<?xml version="1.0" encoding="UTF-8"?>
<svg fill="#272C31" width="100pt" height="100pt" version="1.1" viewBox="0 0 100 100" xmlns="http://www.w3.org/2000/svg">
 <g>
  <path d="m97.078 31.383c-2.1523-2.1523-4.9219-3.2305-8-3.2305s-5.8477 1.2305-8 3.2305c-4.1523 4.1523-4.3086 10.617-0.76953 15.078l-17.23 17.387c-3.2305-2.9219-7.3828-4.6172-11.848-4.9219v-34.773c5.6914-0.61719 10-5.3828 10-11.23 0-6.1523-5.0781-11.23-11.23-11.23s-11.23 5.0781-11.23 11.23c0 5.8477 4.4609 10.617 10 11.23v34.617c-4.6172 0.30859-8.7695 2.1523-11.848 4.9219l-17.383-17.383c3.5391-4.4609 3.3828-10.922-0.76953-15.078-2.1523-2-4.9219-3.0781-8-3.0781-2.9219 0-5.8477 1.2305-8 3.2305-4.3086 4.3086-4.3086 11.539 0 15.848 2.1523 2.1523 4.9219 3.2305 8 3.2305 2.6172 0 5.0781-0.92188 7.0781-2.4609l17.383 17.383c-3.0781 3.5391-4.9219 8-4.9219 13.078 0 10.922 8.7695 19.691 19.691 19.691s19.691-8.7695 19.691-19.691c0-5.0781-1.8477-9.5391-4.9219-13.078l17.383-17.383c2 1.6914 4.4609 2.4609 7.0781 2.4609 2.9219 0 5.8477-1.2305 8-3.2305 4.3086-4.3086 4.3086-11.539-0.15234-15.848zm-56-18.305c0-4.9219 4-8.9219 8.9219-8.9219s8.9219 4 8.9219 8.9219-4 8.9219-8.9219 8.9219-8.9219-4-8.9219-8.9219zm-36.617 32.461c-3.5391-3.5391-3.5391-9.0781 0-12.617 1.6914-1.5391 4-2.4609 6.3086-2.4609 2.3086 0 4.6172 0.92187 6.3086 2.6172 1.6914 1.6914 2.6172 3.8477 2.6172 6.3086 0 2.3086-0.92187 4.6172-2.6172 6.3086-1.6953 1.5352-3.8477 2.457-6.3086 2.457-2.3086 0-4.6172-0.92188-6.3086-2.6133zm35.078 46.77c0.15234-2.7695 0.46094-5.0781 0.46094-5.2305 0-0.76953 0.30859-1.5391 0.61719-2 0.30859-0.61719 0.92187-1.0781 1.6914-1.3828l2.6172-0.92187 3.3828 6.3086h3.3828l3.3828-6.3086 2.6172 0.92187c0.76953 0.30859 1.3828 0.76953 1.6914 1.3828 0.30859 0.46094 0.61719 1.2305 0.61719 2.1523 0 0 0.30859 2.4609 0.46094 5.0781-2.9219 2.1523-6.4609 3.5391-10.461 3.5391-3.8477 0-7.5391-1.2305-10.461-3.5391zm23.078-1.8477c-0.15234-1.8477-0.30859-3.3828-0.30859-3.3828 0-1.0781-0.30859-2.1523-0.92188-3.0781-0.61719-1.0781-1.6914-2-2.9219-2.4609l-4.4609-1.5391-3.6914 6.9219h-0.61719l-3.6953-6.9219-4.4609 1.5391c-1.2305 0.46094-2.3086 1.2305-2.9219 2.4609-0.61719 1.0781-0.92188 2.1523-0.92188 3.0781 0 0-0.15234 1.5391-0.30859 3.5391-2.9219-3.0781-4.7695-7.3828-4.7695-12 0-9.5391 7.8477-17.383 17.383-17.383 9.5391 0 17.383 7.8477 17.383 17.383 0 4.4609-1.8438 8.7656-4.7656 11.844zm32.922-44.922c-1.6914 1.6914-3.8477 2.6172-6.3086 2.6172-2.3086 0-4.6172-0.92188-6.3086-2.6172-3.5391-3.5391-3.5391-9.0781 0-12.617 1.6914-1.6914 3.8477-2.6172 6.3086-2.6172 2.3086 0 4.6172 0.92187 6.3086 2.6172 3.3828 3.5391 3.3828 9.2305 0 12.617z"/>
  <path d="m50 67.691c-3.3828 0-6.3086 2.7695-6.3086 6.3086 0 3.3828 2.7695 6.3086 6.3086 6.3086s6.3086-2.7695 6.3086-6.3086-2.9258-6.3086-6.3086-6.3086zm0 10.156c-2.1523 0-4-1.8477-4-4s1.8477-4 4-4 4 1.8477 4 4-1.8477 4-4 4z"/>
 </g>
</svg>
