<?xml version="1.0" encoding="UTF-8"?>
<svg fill="#272C31" width="100pt" height="100pt" version="1.1" viewBox="0 0 100 100" xmlns="http://www.w3.org/2000/svg">
 <g>
  <path d="m42.617 8h2.4609v2.3086h-2.4609z"/>
  <path d="m64.309 7.5391h-11.848c-0.61328-4.1562-4.3086-7.5391-8.7695-7.5391-4.4609 0-8.1523 3.3828-8.6172 7.5391h-11.848v5.3828h-16.609v87.078h74.152v-86.922h-16.461zm-38.77 2.3086h11.848l-0.003907-1.0781c0-3.5391 2.9219-6.4609 6.4609-6.4609s6.4609 2.9219 6.4609 6.4609v1.0781h11.848v7.3828h-36.613zm53.078 5.5352v82.309h-69.695v-82.309h14.309v4.1523h41.078v-4.1523z"/>
  <path d="m89.23 49.539l-4 8.1523v38.152c0 2.3086 1.8477 4 4 4 2.3086 0 4-1.8477 4-4v-38.152zm0 5.2305l1.6914 3.5391v1.6914h-3.5391v-1.6914zm1.8477 7.3828v28.461h-3.5391v-28.461zm-1.8477 35.539c-0.92188 0-1.6914-0.76953-1.6914-1.6914v-2.9219h3.5391v2.9219c0 0.92188-0.76953 1.6914-1.8477 1.6914z"/>
  <path d="m39.848 31.539h30.309v2.3086h-30.309z"/>
  <path d="m39.848 37.848h20.922v2.3086h-20.922z"/>
  <path d="m22.309 37.539l-1.8477-1.8477-1.5391 1.5391 3.3867 3.5391 7.3828-7.5391-1.5391-1.5391z"/>
  <path d="m24.309 25.848c-5.5391 0-9.8477 4.4609-9.8477 9.8477 0 5.3828 4.4609 9.8477 9.8477 9.8477 5.3828 0 9.8477-4.4609 9.8477-9.8477-0.003906-5.3867-4.3086-9.8477-9.8477-9.8477zm0 17.535c-4.1523 0-7.6914-3.3828-7.6914-7.6914 0-4.1523 3.3828-7.6914 7.6914-7.6914 4.1523 0 7.6914 3.3828 7.6914 7.6914s-3.5391 7.6914-7.6914 7.6914z"/>
  <path d="m39.848 55.383h30.309v2.3086h-30.309z"/>
  <path d="m39.848 61.691h20.922v2.3086h-20.922z"/>
  <path d="m22.309 61.383l-1.8477-1.8438-1.5391 1.6914 3.3867 3.3867 7.3828-7.3867-1.5391-1.6914z"/>
  <path d="m24.309 49.848c-5.5391 0-9.8477 4.4609-9.8477 9.8477 0 5.5391 4.4609 9.8477 9.8477 9.8477 5.3828 0 9.8477-4.4609 9.8477-9.8477 0.15234-5.3867-4.3086-9.8477-9.8477-9.8477zm0 17.535c-4.1523 0-7.6914-3.3828-7.6914-7.6914 0-4.1523 3.3828-7.6914 7.6914-7.6914 4.1523 0 7.6914 3.3828 7.6914 7.6914 0 4.1562-3.5391 7.6914-7.6914 7.6914z"/>
  <path d="m39.848 79.383h30.309v2.3086h-30.309z"/>
  <path d="m39.848 85.691h20.922v2.3086h-20.922z"/>
  <path d="m22.309 85.383l-1.8477-1.8438-1.5391 1.5391 3.3867 3.5391 7.3828-7.5391-1.5391-1.5391z"/>
  <path d="m24.309 73.691c-5.5391 0-9.8477 4.4609-9.8477 9.8477 0 5.3828 4.4609 9.8477 9.8477 9.8477 5.3828 0 9.8477-4.4609 9.8477-9.8477-0.003906-5.3867-4.3086-9.8477-9.8477-9.8477zm0 17.539c-4.1523 0-7.6914-3.3828-7.6914-7.6914 0-4.1523 3.3828-7.6914 7.6914-7.6914 4.1523 0 7.6914 3.3828 7.6914 7.6914 0 4.3086-3.5391 7.6914-7.6914 7.6914z"/>
 </g>
</svg>
