<?xml version="1.0" encoding="UTF-8"?>
<svg fill="#272C31" width="100pt" height="100pt" version="1.1" viewBox="0 0 100 100" xmlns="http://www.w3.org/2000/svg">
 <g>
  <path d="m-0.46094 2v96h100.77v-96zm98.613 2.3086v9.5391h-96.152v-9.5391zm-96.152 91.383v-79.539h96.152v79.539z"/>
  <path d="m81.691 8h2.3086v2.3086h-2.3086z"/>
  <path d="m75.848 8h2.3086v2.3086h-2.3086z"/>
  <path d="m87.539 8h2.3086v2.3086h-2.3086z"/>
  <path d="m9.3828 8h59.23v2.3086h-59.23z"/>
  <path d="m67.23 66.309c2-6.9219 0.92188-9.0781-1.0781-11.383-1.0781-1.3828-2.1523-2.6172-2.1523-6.1523h-2.3086c0 4.4609 1.5391 6.3086 2.6172 7.6914 1.3828 1.6914 2.4609 2.9219 0.46094 9.8477-4.3086 0.46094-7.6914 3.6914-8.1523 8v8c0 5.0781 4.1523 9.0781 9.0781 9.0781 5.0781 0 9.0781-4.1523 9.0781-9.0781v-8c-0.62109-4.1602-3.6953-7.3906-7.543-8.0039zm5.2305 15.844c0 3.6914-3.0781 6.7695-6.7695 6.7695s-6.7695-3.0781-6.7695-6.7695v-6.9219c0-3.6914 3.0781-6.7695 6.7695-6.7695s6.7695 3.0781 6.7695 6.7695z"/>
  <path d="m64.461 72h2.3086v3.3828h-2.3086z"/>
  <path d="m44.309 74.152h2.6172v2.3086h-2.6172z"/>
  <path d="m50.461 74.152h2.6172v2.3086h-2.6172z"/>
  <path d="m38.461 74.152h2.3086v2.3086h-2.3086z"/>
  <path d="m38.461 52h2.3086v2.3086h-2.3086z"/>
  <path d="m38.461 46.461h2.3086v2.3086h-2.3086z"/>
  <path d="m38.461 63.078h2.3086v2.3086h-2.3086z"/>
  <path d="m38.461 68.617h2.3086v2.3086h-2.3086z"/>
  <path d="m38.461 57.539h2.3086v2.3086h-2.3086z"/>
  <path d="m38.461 41.078h2.3086v2.3086h-2.3086z"/>
  <path d="m64.461 41.078h2.1523v2.3086h-2.1523z"/>
  <path d="m59.383 41.078h2.1523v2.3086h-2.1523z"/>
  <path d="m69.691 41.078h2.1523v2.3086h-2.1523z"/>
  <path d="m43.691 41.078h2.1523v2.3086h-2.1523z"/>
  <path d="m74.922 41.078h2.1523v2.3086h-2.1523z"/>
  <path d="m80.152 41.078h2.1523v2.3086h-2.1523z"/>
  <path d="m85.383 41.078h2.1523v2.3086h-2.1523z"/>
  <path d="m48.922 41.078h2.1523v2.3086h-2.1523z"/>
  <path d="m54.152 41.078h2.1523v2.3086h-2.1523z"/>
  <path d="m90.461 41.078h2.3086v2.3086h-2.3086z"/>
  <path d="m90.461 52h2.3086v2.3086h-2.3086z"/>
  <path d="m90.461 46.461h2.3086v2.3086h-2.3086z"/>
  <path d="m90.461 68.617h2.3086v2.3086h-2.3086z"/>
  <path d="m90.461 63.078h2.3086v2.3086h-2.3086z"/>
  <path d="m90.461 57.539h2.3086v2.3086h-2.3086z"/>
  <path d="m90.461 74.152h2.3086v2.3086h-2.3086z"/>
  <path d="m78.309 74.152h2.6172v2.3086h-2.6172z"/>
  <path d="m84.309 74.152h2.6172v2.3086h-2.6172z"/>
  <path d="m9.5391 24h49.691v14.309h2.3086v-16.617h-54.309v35.539h28.617v-2.3086h-26.309z"/>
 </g>
</svg>
