<?xml version="1.0" encoding="UTF-8"?>
<svg fill="#272C31" width="100pt" height="100pt" version="1.1" viewBox="0 0 100 100" xmlns="http://www.w3.org/2000/svg">
 <g>
  <path d="m48.77 90.77h2.3086v2.3086h-2.3086z"/>
  <path d="m48.77 85.848h2.3086v2.3086h-2.3086z"/>
  <path d="m46.461 51.23l-3.6914-3.8477-1.6914 1.6953 5.3828 5.3828 12.461-12.309-1.6914-1.6914z"/>
  <path d="m50 30.461c-9.2305 0-16.617 7.5391-16.617 16.617 0 9.2305 7.5391 16.617 16.617 16.617 9.2305 0 16.617-7.5391 16.617-16.617 0-9.2305-7.3867-16.617-16.617-16.617zm0 30.922c-7.8477 0-14.309-6.4609-14.309-14.309 0-7.8477 6.4609-14.309 14.309-14.309s14.309 6.4609 14.309 14.309c0 7.8477-6.4609 14.309-14.309 14.309z"/>
  <path d="m94.617 0.46094h-89.23c-3.2344 0-5.6953 2.6172-5.6953 5.8477v72.617c0 3.2305 2.6172 5.8477 5.8477 5.8477h36.922v7.2305c0 4.1523 3.3828 7.6914 7.6914 7.6914 4.1523 0 7.6914-3.3828 7.6914-7.6914l0.003906-7.3867h36.922c3.2305 0 5.8477-2.6172 5.8477-5.8477v-72.617c-0.15625-3.0742-2.7695-5.6914-6-5.6914zm-89.234 2.3086h89.23c1.8477 0 3.5391 1.5391 3.5391 3.3828v6.4609l-96.152 0.003907v-6.3086c0-2 1.5391-3.5391 3.3828-3.5391zm50 89.078c0 2.9219-2.4609 5.3828-5.3828 5.3828s-5.3828-2.4609-5.3828-5.3828v-14.77c0-0.76953 0.61719-1.3828 1.3828-1.3828h2v-6c0.61719 0 1.2305 0.15234 2 0.15234 0.61719 0 1.2305 0 2-0.15234v6h2c0.76953 0 1.3828 0.61719 1.3828 1.3828zm-5.3828-24.465c-11.23 0-20.461-9.2305-20.461-20.461s9.2305-20.461 20.461-20.461 20.461 9.2305 20.461 20.461c0 11.387-9.2305 20.461-20.461 20.461zm44.617 14.926h-36.922v-5.2305c0-2-1.5391-3.5391-3.3828-3.6914v-4c10.461-2 18.461-11.23 18.461-22.309 0-12.461-10.152-22.77-22.77-22.77-12.461 0-22.77 10.152-22.77 22.77 0 11.078 8 20.309 18.461 22.309v4c-1.8477 0.15234-3.3828 1.6914-3.3828 3.6914v5.2305h-36.922c-1.8477 0-3.5391-1.5391-3.5391-3.5391v-63.691h96.152v63.691c-0.003906 2-1.543 3.5391-3.3867 3.5391z"/>
  <path d="m78.617 6.6172h2.3086v2.3086h-2.3086z"/>
  <path d="m90.309 6.6172h2.3086v2.3086h-2.3086z"/>
  <path d="m84.461 6.6172h2.3086v2.3086h-2.3086z"/>
  <path d="m8.7695 8.9219h62c0.61719 0 1.2305-0.46094 1.2305-1.2305 0-0.61719-0.46094-1.2305-1.2305-1.2305h-62c-0.61719 0-1.2305 0.46094-1.2305 1.2305 0 0.76953 0.61328 1.2305 1.2305 1.2305z"/>
  <path d="m67.078 24.77h26.461v2.3086h-26.461z"/>
  <path d="m74.152 34.152h19.539v2.3086h-19.539z"/>
  <path d="m76 43.539h17.539v2.3086h-17.539z"/>
  <path d="m76 52.922h17.539v2.3086h-17.539z"/>
  <path d="m71.383 62.309h22.152v2.3086h-22.152z"/>
  <path d="m62.922 71.691h30.617v2.3086h-30.617z"/>
  <path d="m6.4609 24.77h26.461v2.3086h-26.461z"/>
  <path d="m6.4609 34.152h19.539v2.3086h-19.539z"/>
  <path d="m6.4609 43.539h17.539v2.3086h-17.539z"/>
  <path d="m6.4609 52.922h17.539v2.3086h-17.539z"/>
  <path d="m6.4609 62.309h22.152v2.3086h-22.152z"/>
  <path d="m6.4609 71.691h30.617v2.3086h-30.617z"/>
 </g>
</svg>
