<?xml version="1.0" encoding="UTF-8"?>
<svg fill="#272C31" width="100pt" height="100pt" version="1.1" viewBox="0 0 100 100" xmlns="http://www.w3.org/2000/svg">
 <g>
  <path d="m39.848 54.617h-2.9258v-7.2305c0-4.9219-4-8.9219-8.9219-8.9219s-8.9219 4-8.9219 8.9219v7.2305h-2.9219c-2.3086 0-4.1523 1.8477-4.1523 4.1523v15.23c0 2.3086 1.8477 4.1523 4.1523 4.1523h23.539c2.3086 0 4.1523-1.8477 4.1523-4.1523v-15.23c0.30469-2.1523-1.6953-4.1523-4-4.1523zm-18.309-7.2344c0-3.6914 2.9219-6.6172 6.6172-6.6172 3.6914 0 6.6172 2.9219 6.6172 6.6172v7.2305l-13.234 0.003907zm20.309 26.77c0 1.0781-0.92188 1.8477-1.8477 1.8477h-23.691c-1.0781 0-1.8477-0.92188-1.8477-1.8477v-15.23c0-1.0781 0.92187-1.8477 1.8477-1.8477h23.539c1.0781 0 1.8477 0.92188 1.8477 1.8477l-0.003906 15.23z"/>
  <path d="m32.152 63.848c0-2.1523-1.8477-4-4-4s-4 1.8477-4 4c0 0.92188 0.30859 1.8477 0.92188 2.6172l-1.2305 5.0781c-0.15234 0.30859 0 0.76953 0.15234 0.92188 0.15234 0.30859 0.61719 0.46094 0.92188 0.46094h6.3086c0.30859 0 0.61719-0.15234 0.92188-0.46094 0.15234-0.30859 0.30859-0.61719 0.15234-0.92188l-1.2305-5.0781c0.77734-0.77344 1.082-1.543 1.082-2.6172zm-3.3828 2.6133v0l0.92188 4.1523h-3.3828l0.92188-4.1523v-0.15234c0.15234-0.46094 0-0.92188-0.30859-1.2305-0.46094-0.30859-0.61719-0.76953-0.61719-1.3828 0-0.92187 0.76953-1.6914 1.6914-1.6914s1.6914 0.76953 1.6914 1.6914c0 0.46094-0.30859 0.92188-0.61719 1.3828-0.30078 0.46094-0.45312 0.92188-0.30078 1.3828z"/>
  <path d="m-0.30859 10.77v78.461h100.62v-78.461zm98.309 2.3086v15.078l-96-0.003906v-15.074zm-96 73.844v-56.461h96v56.461z"/>
  <path d="m68 24.461c2.1523 0 4-1.8477 4-4 0-2.1523-1.8477-4-4-4s-4 1.8477-4 4c0 2.1562 1.8477 4 4 4zm0-5.6914c0.92188 0 1.6914 0.76953 1.6914 1.6914 0 0.92187-0.76953 1.6914-1.6914 1.6914s-1.6914-0.76953-1.6914-1.6914c0-0.92188 0.76953-1.6914 1.6914-1.6914z"/>
  <path d="m79.23 24.461c2.1523 0 4-1.8477 4-4 0-2.1523-1.8477-4-4-4-2.1523 0-4 1.8477-4 4 0 2.1562 1.8477 4 4 4zm0-5.6914c0.92188 0 1.6914 0.76953 1.6914 1.6914 0 0.92187-0.76953 1.6914-1.6914 1.6914s-1.6914-0.76953-1.6914-1.6914c0-0.92188 0.76953-1.6914 1.6914-1.6914z"/>
  <path d="m90.461 24.461c2.1523 0 4-1.8477 4-4 0-2.1523-1.8477-4-4-4-2.1523 0-4 1.8477-4 4 0 2.1562 1.6914 4 4 4zm0-5.6914c0.92187 0 1.6914 0.76953 1.6914 1.6914 0 0.92187-0.76953 1.6914-1.6914 1.6914-0.92188 0-1.6914-0.76953-1.6914-1.6914 0-0.92188 0.76953-1.6914 1.6914-1.6914z"/>
  <path d="m8 19.383h50.617v2.3086h-50.617z"/>
  <path d="m48.922 58h42.77v-12.617h-42.77zm2.1562-10.309h38.152v8h-38.152z"/>
  <path d="m74.922 50.617h2.3086v2.3086h-2.3086z"/>
  <path d="m62.617 50.617h2.3086v2.3086h-2.3086z"/>
  <path d="m56.461 50.617h2.3086v2.3086h-2.3086z"/>
  <path d="m81.078 50.617h2.3086v2.3086h-2.3086z"/>
  <path d="m68.77 50.617h2.3086v2.3086h-2.3086z"/>
  <path d="m48.922 74h42.77v-12.461h-42.77zm2.1562-10.152h38.152v8h-38.152z"/>
  <path d="m68.77 66.617h2.3086v2.3086h-2.3086z"/>
  <path d="m62.617 66.617h2.3086v2.3086h-2.3086z"/>
  <path d="m81.078 66.617h2.3086v2.3086h-2.3086z"/>
  <path d="m56.461 66.617h2.3086v2.3086h-2.3086z"/>
  <path d="m74.922 66.617h2.3086v2.3086h-2.3086z"/>
 </g>
</svg>
