<?xml version="1.0" encoding="UTF-8"?>
<svg fill="#272C31" width="100pt" height="100pt" version="1.1" viewBox="0 0 100 100" xmlns="http://www.w3.org/2000/svg">
 <g>
  <path d="m50 31.383c3.6914 0 6.7695-3.0781 6.7695-6.7695 0-3.6914-3.0781-6.7695-6.7695-6.7695s-6.7695 3.0781-6.7695 6.7695c0 3.6953 3.0781 6.7695 6.7695 6.7695zm0-11.23c2.4609 0 4.4609 2 4.4609 4.4609 0 2.4609-2 4.4609-4.4609 4.4609s-4.4609-2-4.4609-4.4609c0-2.4609 2-4.4609 4.4609-4.4609z"/>
  <path d="m64.617 46.77c-0.15234-3.8477-0.61719-7.0781-0.61719-7.5391 0-1.0781-0.30859-2.3086-1.0781-3.5391-0.76953-1.2305-1.8477-2.1523-3.2305-2.6172l-5.0781-1.8477-4.1523 7.8477h-0.92188l-4.1523-7.8477-5.0781 1.8477c-1.3828 0.46094-2.4609 1.3828-3.2305 2.6172-0.61719 1.2305-1.0781 2.3086-1.0781 3.5391 0 0.46094-0.46094 3.6914-0.61719 7.5391v1.2305h29.23zm-26.77-1.0781c0.15234-3.5391 0.61719-6.1523 0.61719-6.1523v-0.15234c0-0.92188 0.46094-1.8477 0.76953-2.4609 0.46094-0.76953 1.0781-1.3828 2-1.6914l3.2305-1.0781 4 7.3828h3.6914l4-7.3828 3.0781 1.0781c0.92188 0.30859 1.5391 0.92188 2 1.6914 0.30859 0.61719 0.76953 1.3828 0.76953 2.4609v0.15234s0.30859 2.7695 0.61719 6.1523z"/>
  <path d="m73.691 51.691h-47.383v11.848h47.23v-11.848zm-2.3086 9.6914h-42.766v-7.2305h42.617l-0.003906 7.2305z"/>
  <path d="m48.617 56.617h2.3086v2.3086h-2.3086z"/>
  <path d="m62.461 56.617h2.3086v2.3086h-2.3086z"/>
  <path d="m41.691 56.617h2.3086v2.3086h-2.3086z"/>
  <path d="m55.539 56.617h2.3086v2.3086h-2.3086z"/>
  <path d="m34.77 56.617h2.3086v2.3086h-2.3086z"/>
  <path d="m73.691 66.77h-47.383v11.848h47.23v-11.848zm-2.3086 9.5391h-42.766v-7.2305h42.617l-0.003906 7.2305z"/>
  <path d="m62.461 71.539h2.3086v2.3086h-2.3086z"/>
  <path d="m41.691 71.539h2.3086v2.3086h-2.3086z"/>
  <path d="m55.539 71.539h2.3086v2.3086h-2.3086z"/>
  <path d="m48.617 71.539h2.3086v2.3086h-2.3086z"/>
  <path d="m34.77 71.539h2.3086v2.3086h-2.3086z"/>
  <path d="m39.383 5.3828h16.152v2.3086h-16.152z"/>
  <path d="m58.152 5.3828h2.3086v2.3086h-2.3086z"/>
  <path d="m76.309-0.46094h-52.617c-4 0-7.3828 3.2305-7.3828 7.3828v86.152c0 4 3.2305 7.3828 7.3828 7.3828h52.77c4 0 7.3828-3.2305 7.3828-7.3828v-86.152c-0.15234-4-3.5352-7.3828-7.5352-7.3828zm5.0742 93.539c0 2.7695-2.3086 5.0781-5.0781 5.0781l-52.613-0.003906c-2.7695 0-5.0781-2.3086-5.0781-5.0781v-7.6914h62.77zm0-10h-62.766v-69.23h62.77zm0-71.539h-62.766v-4.6172c0-2.7695 2.3086-5.0781 5.0781-5.0781h52.77c2.7695 0 5.0781 2.3086 5.0781 5.0781l-0.003907 4.6172z"/>
  <path d="m50 96.309c2.4609 0 4.4609-2 4.4609-4.4609 0-2.4609-2-4.4609-4.4609-4.4609s-4.4609 2-4.4609 4.4609c0 2.4609 2 4.4609 4.4609 4.4609zm0-6.4609c1.0781 0 2.1523 0.92188 2.1523 2.1523 0 1.0781-0.92188 2.1523-2.1523 2.1523-1.0781 0-2.1523-0.92188-2.1523-2.1523s1.0742-2.1523 2.1523-2.1523z"/>
 </g>
</svg>
