<?xml version="1.0" encoding="UTF-8"?>
<svg fill="#272C31" width="100pt" height="100pt" version="1.1" viewBox="0 0 100 100" xmlns="http://www.w3.org/2000/svg">
 <g>
  <path d="m17.539 15.383h40.309v2.3086h-40.309z"/>
  <path d="m17.539 22.922h48.922v2.3086h-48.922z"/>
  <path d="m92.152 52.152l7.3828-16h-14.918v-21.383l-15.078-15.078h-59.848v9.2305h-9.2305v91.539h73.848v-9.2305h10.309v-9.6914h7.3828v-29.387zm-2-1.3828h-16.922l5.6914-12.309h16.922zm-19.844 2.3086v26h-37.23v-26zm-43.387-14.617h36.922l5.6914 12.309h-36.922zm43.23-34.922l10.461 10.461h-10.461zm1.8477 94.461h-69.23v-86.77h6.9219v80h62.309zm10.309-9.2305h-70.309v-86.922h55.848v14.461h14.461v19.848h-4.9219l-6.0039 13.074-6-12.922h-42l7.3867 15.844v29.23h51.539zm7.5391-9.6914h-17.23v-26h17.234z"/>
  <path d="m45.848 74.152h2.3086v2.3086h-2.3086z"/>
  <path d="m36.617 74.152h2.3086v2.3086h-2.3086z"/>
  <path d="m41.23 74.152h2.3086v2.3086h-2.3086z"/>
 </g>
</svg>
