<?xml version="1.0" encoding="UTF-8"?>
<svg fill="#272C31" width="100pt" height="100pt" version="1.1" viewBox="0 0 100 100" xmlns="http://www.w3.org/2000/svg">
 <g>
  <path d="m15.078 37.691c0.30859 0.46094 0.46094 0.92188 0.76953 1.3828l0.15234 0.15234c2.6172 4.7695 4.6172 9.8477 5.8477 15.383h-3.6914l-0.003906 2.3125h4.3086v0.15234c0.15234 0.46094 0.15234 1.0781 0.30859 1.6914h-2.3086v2.3086h2.6172c0.15234 0.76953 0.15234 1.3828 0.15234 2v0.30859c0.61719 1.6914 2.3086 2.7695 4.1523 2.7695h10.461c2 0 3.8477-1.3828 4.3086-3.5391l0.15234-1.2305v-0.46094h2.4609v-2.3086h-2.1523c0.15234-0.61719 0.15234-1.2305 0.30859-1.8477h4.1523v-2.3086h-3.6914c1.3828-5.8477 3.5391-11.539 6.4609-16.461 0.15234-0.30859 0.30859-0.46094 0.46094-0.92188 1.8477-3.3828 2.7695-7.2305 2.6172-11.078-0.46094-10.309-8.7695-18.617-19.078-19.383-11.844-0.61328-21.844 8.9258-21.844 20.617 0 2.3086 0.30859 4.6172 1.2305 6.9219zm24.77 23.691l-0.15234 1.0781c-0.15234 0.92187-1.0781 1.5391-2 1.5391h-10.461c-0.76953 0-1.5391-0.46094-1.8477-1.2305 0-0.46094-0.15234-1.0781-0.15234-1.6914h14.77c-0.15625 0.15234-0.15625 0.15234-0.15625 0.30469zm0.30469-2.9219v0.30859h-15.23c-0.15234-0.61719-0.15234-1.2305-0.30859-1.8477h15.848c0 0.46094-0.15234 1.0781-0.30859 1.5391zm-6.3047-49.383c9.0781 0.61719 16.461 8 16.922 17.23 0.15234 3.5391-0.61719 6.9219-2.3086 9.8477l-0.15234 0.15234c-0.15234 0.30859-0.30859 0.61719-0.46094 0.76953-3.0781 5.2305-5.3828 11.23-6.7695 17.691h-16.926c-1.3828-6-3.5391-11.691-6.3086-16.77l-0.15234-0.15234c-0.15234-0.46094-0.46094-0.76953-0.61719-1.0781l-1.6914-3.5391c-0.61719-1.8477-1.0781-4-1.0781-6 0.003906-10.461 8.9258-18.77 19.543-18.152z"/>
  <path d="m55.754 32.309l3.7031 1.0391-0.625 2.2227-3.7031-1.0391z"/>
  <path d="m58.961 19.129l0.57031 2.2344-3.7266 0.95312-0.57031-2.2344z"/>
  <path d="m51.527 7.0312l1.6133 1.6523-2.7539 2.6875-1.6133-1.6523z"/>
  <path d="m39.02 0.23828l2.2227 0.625-1.0391 3.7031-2.2227-0.625z"/>
  <path d="m26.969 0.13672l0.95312 3.7266-2.2344 0.57031-0.95312-3.7266z"/>
  <path d="m14.316 6.5547l2.6875 2.75-1.6523 1.6133-2.6875-2.75z"/>
  <path d="m6.5352 18.457l3.7031 1.0391-0.625 2.2227-3.7031-1.0391z"/>
  <path d="m9.4648 31.75l0.57031 2.2344-3.7266 0.95312-0.57031-2.2344z"/>
  <path d="m95.078 89.539c-0.30859-2.3086-1.5391-4.1523-3.3828-5.5391l-17.539-12.617c-1.3828-1.0781-3.0781-1.5391-4.9219-1.5391-1.0781 0-2.1523 0.15234-3.2305 0.61719l-8.3086-6c0.61719-1.0781 1.0781-2.3086 1.3828-3.5391 2.4609-7.5391 1.5391-15.691-2.4609-22.461l-2 1.2305c3.5391 6.1523 4.4609 13.691 2.1523 20.617-2.1523 6.9219-7.0781 12.617-13.539 15.539-6.1523 2.7695-13.539 2.9219-20 0.46094-6.4609-2.6172-11.691-7.6914-14.309-14-2.9219-7.3828-2.3086-15.848 1.6914-22.617l-1.9961-1.2305c-4.3086 7.3828-5.0781 16.617-1.8477 24.617 2.7695 6.9219 8.4609 12.461 15.539 15.23 3.3828 1.3828 6.9219 2 10.461 2 3.8477 0 7.8477-0.76953 11.383-2.4609 2.9219-1.3828 5.5391-3.2305 7.8477-5.3828l8.3086 5.8477c-0.15234 2.7695 1.0781 5.6914 3.5391 7.3828l17.539 12.617c1.3828 1.0781 3.0781 1.5391 4.9219 1.5391 2.7695 0 5.3828-1.3828 6.9219-3.5391l0.46094-0.61719c1.2305-1.6953 1.6914-4.0039 1.3867-6.1562zm-14.156 5.6914l-2.3086-1.5391 7.5391-10.617 2.3086 1.5391zm-20.305-19.539l-6.9258-4.9219c1.0781-1.2305 2-2.6172 2.9219-4.1523l6.9219 4.9219-1.5391 2.1523-0.14844 0.15625zm3.0742-0.46094l0.30469-0.61719c1.2305-1.6914 3.0781-2.6172 5.0781-2.6172 1.2305 0 2.4609 0.46094 3.5391 1.0781l11.691 8.3086-7.3828 10.926-11.691-8.3086c-2.9219-2.1523-3.5391-6-1.5391-8.7695zm28 19.23l-0.46094 0.61719c-1.2305 1.6914-3.0781 2.6172-5.0781 2.6172-1.2305 0-2.4609-0.30859-3.3828-1.0781l7.5391-10.617c1.2305 0.92188 2.1523 2.3086 2.3086 3.8477 0.46094 1.6914 0 3.2305-0.92578 4.6133z"/>
 </g>
</svg>
