<?xml version="1.0" encoding="UTF-8"?>
<svg fill="#272C31" width="100pt" height="100pt" version="1.1" viewBox="0 0 100 100" xmlns="http://www.w3.org/2000/svg">
 <g>
  <path d="m61.691 43.383l-1.2305 14.617c-0.15234 1.2305 0.30859 2.4609 1.2305 3.3828 0.76953 0.92188 2 1.3828 3.2305 1.3828s2.4609-0.46094 3.2305-1.3828c0.76953-0.92187 1.2305-2.1523 1.2305-3.3828l-0.92187-14.617c3.5391-0.76953 6.9219-2.6172 9.3828-5.3828 5.6914-6.3086 5.6914-16 0.15234-22.461-3.2305-3.6914-8-5.8477-12.922-5.8477-5.3828 0-10.309 2.4609-13.539 6.7695-5.2305 6.7695-4.4609 16.617 1.6914 22.617 2.4648 2.1523 5.3906 3.6914 8.4648 4.3047zm-8.1523-25.535c2.7695-3.6914 7.0781-5.8477 11.691-5.8477 4.3086 0 8.3086 1.8477 11.078 5.0781 4.9219 5.5391 4.7695 13.848-0.15234 19.383-2.3086 2.6172-5.5391 4.3086-9.0781 4.7695l-1.0781 0.30859 1.0781 16.77c0 0.61719-0.15234 1.2305-0.61719 1.6914-0.46094 0.46094-0.92188 0.76953-1.5391 0.76953v1.2305-1.2305c-0.61719 0-1.2305-0.30859-1.5391-0.76953-0.46094-0.46094-0.61719-1.0781-0.61719-1.6914l1.3867-16.77-1.0742-0.15625c-3.0781-0.46094-5.8477-1.8477-8.1523-4-5.2344-5.0742-5.8477-13.691-1.3867-19.535z"/>
  <path d="m21.078 24.77v23.23c-2 1.3828-3.2305 3.6914-3.2305 6.1523 0 2.9219 1.6914 5.5391 4.4609 6.7695l1.6914 0.76953v-6l1.3828-1.2305 1.3828 1.2305v6l1.6914-0.76953c2.6172-1.2305 4.3086-3.8477 4.3086-6.6172 0-2.4609-1.2305-4.7695-3.2305-6.1523l0.003906-23.383c2-1.3828 3.2305-3.6914 3.2305-6.1523 0-2.9219-1.6914-5.5391-4.3086-6.6172l-1.6914-0.76953v6.1523l-1.3867 1.0781-1.3828-1.2305v-6.1523l-1.6914 0.76953c-2.6172 1.2305-4.4609 3.8477-4.4609 6.7695 0 2.4609 1.2305 4.7656 3.2305 6.1523zm0.46094-9.6914v3.2305l3.6914 3.2305 3.6914-3.0781v-3.0781c0.76953 0.92188 1.2305 2.1523 1.2305 3.3828 0 1.8477-1.0781 3.5391-2.6172 4.4609l-0.61719 0.30859v25.848l0.61719 0.30859c1.6914 0.92188 2.6172 2.6172 2.6172 4.4609 0 1.2305-0.46094 2.4609-1.2305 3.3828v-3.0781l-3.6914-3.0781-3.6914 3.082v3.2305c-0.92187-0.92188-1.3828-2.1523-1.3828-3.5391 0-1.8477 1.0781-3.5391 2.6172-4.4609l0.61719-0.30859-0.007813-25.844-0.61328-0.46094c-1.6914-0.92188-2.6172-2.6172-2.6172-4.4609 0-1.2344 0.46484-2.6172 1.3867-3.5391z"/>
  <path d="m36.152 55.848c0 1.3828 0.46094 2.6172 1.5391 3.6914 0.92188 0.92188 2.3086 1.5391 3.6914 1.5391 2.9219 0 5.2305-2.3086 5.2305-5.2305v-12.77h1.3828v-2.3086h-5.3828l0.003907-19.23 2.4609-1.6914-0.92188-8.3086h-5.5391l-0.92188 8.3086 2.4609 1.6914v19.23h-5.3828l-0.003907 2.3086h1.3828zm8.1562 0c0 1.5391-1.2305 2.9219-2.9219 2.9219v1.2305-1.2305c-0.76953 0-1.5391-0.30859-2-0.76953-0.61719-0.61719-0.76953-1.2305-0.76953-2v-12.77h5.6914zm-3.5391-41.848h1.3828l0.61719 4.7695-1.2305 0.76953-1.2305-0.76953z"/>
  <path d="m94.922 80v-51.23h-10.922v2.3086h8.6172v48.922h-85.234v-48.922h11.848v-2.3086h-14.152v51.23h-5.3828v4.6172l4.3086 5.5391h92.309l4.3086-5.5391v-4.6172zm3.2305 3.8477l-3.0781 4.1523h-89.996l-3.0781-4.1523v-1.5391h96.152z"/>
 </g>
</svg>
