<?xml version="1.0" encoding="UTF-8"?>
<svg fill="#F7DC45" width="100pt" height="100pt" version="1.1" viewBox="0 0 100 100" xmlns="http://www.w3.org/2000/svg">
 <path d="m94.234 7.2422h-88.469c-2.4023 0-4.3555 1.9531-4.3555 4.3555v60.781c0 2.3984 1.9531 4.3555 4.3555 4.3555h35.938l-0.73047 7.8359c-0.03125 0.45703-0.53125 4.4805-8.1367 4.4805-1.0273 0-1.8555 0.83203-1.8555 1.8555s0.83203 1.8555 1.8555 1.8555h34.316c1.0234 0 1.8555-0.83203 1.8555-1.8555s-0.83203-1.8555-1.8555-1.8555c-7.6055 0-8.1055-4.0195-8.1445-4.5586l-0.72266-7.7539h35.941c2.3984 0 4.3555-1.9531 4.3555-4.3555l0.003907-60.785c0-2.4023-1.9531-4.3555-4.3516-4.3555zm-38.922 77.48c0 0.042969 0.10938 2.2383 1.8516 4.3242h-14.32c1.7266-2.0625 1.8359-4.2109 1.8359-4.2109l0.75391-8.1016h9.1289zm39.562-12.344c0 0.35156-0.28906 0.64062-0.64062 0.64062h-88.469c-0.35156 0-0.64062-0.28906-0.64062-0.64062v-60.781c0-0.35547 0.28906-0.64062 0.64062-0.64062h88.465c0.35156 0 0.64062 0.28516 0.64062 0.64062z"/>
</svg>
