<svg id="Layer_14" data-name="Layer 14" xmlns="http://www.w3.org/2000/svg" viewBox="0 0 871.69 845.84"><defs><style>.cls-1{fill:#7f7f7f;}.cls-2{fill:#efae65;}.cls-3{fill:#a3805a;}.cls-4{fill:#bebebe;}.cls-5{fill:#fff;}</style></defs><title>all_included</title><g id="_Group_" data-name="&lt;Group&gt;"><path class="cls-1" d="M804.78,234.86a7,7,0,0,1,.15,1.44,4.16,4.16,0,0,1-.45,1.6,16.05,16.05,0,0,1-3.2,4.37c-.64.69-1.3,1.36-2,2-1.31,1.31-2.67,2.59-4,3.87-2.78,2.63-5.67,5.12-8.64,7.53s-6,4.71-9,7.09-5.83,4.91-8.66,7.44c-5.85,5.22-11.61,10.53-17.51,15.69-2.75,2.41-5.57,4.75-8.37,7.09s-5.83,4.75-8.64,7.23c-1.6,1.4-3.16,2.84-4.66,4.33-1.28,1.27-2.49,2.58-3.68,3.92-2.62,2.91-5.21,5.83-7.94,8.63-2.54,2.63-5.27,5.1-8,7.55s-5.74,5-8.78,7.3c-.33.25-.68.51-1,.74q-.78-.11-1.56-.19c-1.15-.11-2.31-.17-3.46-.17a27.93,27.93,0,0,0-2.88.14,29.78,29.78,0,0,0,3-1.79c1.38-.93,2.73-1.89,4.06-2.89q4-3.18,7.81-6.65c2.54-2.31,5.08-4.63,7.48-7.09,2.63-2.68,5.15-5.47,7.65-8.26a86.15,86.15,0,0,1,7.4-7.49c2.86-2.49,5.8-4.86,8.72-7.28q4.69-3.89,9.34-7.83c5.82-4.94,11.42-10.12,17.13-15.18q4.39-3.89,8.88-7.65c2.82-2.36,5.74-4.54,8.59-6.85s5.87-4.77,8.62-7.38a108.45,108.45,0,0,0,8.52-8.53,9.59,9.59,0,0,0,.92-1.49l0-.11-.12-.11a15,15,0,0,0-2-1c-3-1.14-6.14-1.95-9.24-2.84-3.57-1-7.09-2.1-10.57-3.39s-7.07-2.6-10.69-3.68c-7.37-2.18-14.77-4.2-22.11-6.5-3.52-1.1-6.92-2.59-10.47-3.57-1.75-.48-3.5-1-5.26-1.4-1.95-.48-3.91-1-5.88-1.39-3.71-.73-7.43-1.39-11.17-1.9-4-.56-8.07-1.1-12.1-1.7-3.72-.53-7.44-1.14-11.14-1.76-2.08-.35-4.14-.72-6.21-1.1-.79-.14-1.56-.31-2.36-.47-1-.21-1.93-.37-2.89-.61-1.75-.43-3.52-.83-5.26-1.31-1.92-.55-3.84-1.09-5.75-1.65s-3.88-1.15-5.83-1.69-3.89-1-5.85-1.51c-3.7-.91-7.42-1.69-11.12-2.49s-7.22-1.6-10.81-2.42q-11.66-2.66-23.37-5.08c-3.8-.78-7.57-1.62-11.36-2.44s-7.49-1.58-11.24-2.43-7.42-1.87-11.12-2.82c-1.66-.42-3.34-.83-5-1.18-.92-.2-1.85-.42-2.78-.57l-2.63-.41c-1.36-.12-2.73-.26-4.09-.29-1.62,0-3.22,0-4.85,0s-3.21.15-4.82.26c-1.25.09-2.51.24-3.76.38a36.65,36.65,0,0,0-6.18,1.46,15,15,0,0,0-2.31,1.35,49.73,49.73,0,0,0-3.67,3.56c-1.2,1.22-2.42,2.42-3.63,3.61-2.62,2.54-5.42,4.87-8.24,7.18l-5,4.08c-1.33,1.1-2.67,2.21-3.94,3.36-2.9,2.64-5.78,5.3-8.51,8.11s-5.47,5.84-8.24,8.74c-5.23,5.46-10.72,10.68-15.92,16.16-2.64,2.78-5.27,5.54-7.8,8.42-1.4,1.61-2.8,3.21-4.18,4.85-1.13,1.33-2.21,2.7-3.3,4.07-1.12,1.54-2.28,3.06-3.27,4.68a45.8,45.8,0,0,0-3,5.47c-.4.87-.79,1.75-1.2,2.62-.66,1.46-1.3,2.94-1.95,4.42l-1.31-.57a2.44,2.44,0,0,0,.09-1.15,2.8,2.8,0,0,0-.42-1c.82-1.9,1.65-3.78,2.49-5.68.48-1.08,1-2.15,1.59-3.19a38.83,38.83,0,0,1,2.07-3.44l1.79-2.53c1.17-1.65,2.42-3.21,3.66-4.8,1.05-1.34,2.17-2.65,3.27-4,1.34-1.58,2.68-3.15,4.06-4.69q4-4.46,8.14-8.83c5.18-5.49,10.49-10.85,15.53-16.48,2.53-2.84,5.06-5.67,7.74-8.36,1.44-1.44,2.89-2.85,4.38-4.24s3.06-2.78,4.63-4.14c2.83-2.48,5.74-4.86,8.59-7.32a109.55,109.55,0,0,0,7.89-7.66l2.2-2.36c.71-.74,1.39-1.55,2.16-2.23a14.43,14.43,0,0,1,3-2.16,21.43,21.43,0,0,1,3.71-1.44c1.27-.33,2.53-.6,3.81-.86,1.1-.24,2.26-.32,3.39-.47.77-.1,1.54-.17,2.31-.24,2.06-.17,4.09-.3,6.14-.4.6,0,1.18,0,1.77,0,1.18,0,2.36,0,3.53.12s2.17.16,3.25.31,2,.22,2.94.41c2,.4,4,.81,6,1.27,1.67.38,3.35.81,5,1.22,3.7.94,7.39,1.87,11.12,2.65s7.55,1.58,11.31,2.39c7.5,1.62,15,3.11,22.5,4.79,7.9,1.77,15.78,3.58,23.68,5.36,1.9.42,3.8.88,5.69,1.33,1.64.37,3.3.77,4.91,1.24,3.63,1.05,7.26,2.18,10.89,3.26,2,.61,4.07,1.17,6.11,1.7s4,1,6,1.39c3.56.79,7.17,1.4,10.77,2,3.87.66,7.74,1.31,11.62,1.89s7.94,1.14,11.89,1.76c3.6.56,7.21,1.27,10.74,2.17,3.81,1,7.6,2,11.31,3.29,3.47,1.24,6.92,2.53,10.46,3.61,3.73,1.13,7.47,2.22,11.2,3.32s7.17,2.07,10.72,3.26,7,2.6,10.57,3.81,7.24,2.28,10.89,3.37a52.47,52.47,0,0,1,5.1,1.74,18.16,18.16,0,0,1,3.76,1.91,4.64,4.64,0,0,1,1.14,1.12A3.72,3.72,0,0,1,804.78,234.86Z"/><path class="cls-2" d="M800.72,236l0,.11a9.59,9.59,0,0,1-.92,1.49,108.45,108.45,0,0,1-8.52,8.53c-2.75,2.6-5.68,5-8.62,7.38S776.84,258,774,260.4q-4.5,3.76-8.88,7.65c-5.71,5.06-11.31,10.24-17.13,15.18q-4.65,3.94-9.34,7.83c-2.91,2.42-5.85,4.79-8.72,7.28a86.15,86.15,0,0,0-7.4,7.49c-2.51,2.79-5,5.58-7.65,8.26-2.39,2.47-4.94,4.79-7.48,7.09s-5.13,4.53-7.81,6.65c-1.33,1-2.68,2-4.06,2.89a29.78,29.78,0,0,1-3,1.79l-.68.06c-1.86.2-3.71.41-5.54.78l-.64-.19c-.93-.25-1.85-.53-2.75-.83-1.91-.64-3.8-1.34-5.68-2-3.61-1.36-7.26-2.63-10.94-3.86-3.52-1.17-7.07-2.26-10.6-3.41q-5.75-1.88-11.43-3.91c-3.75-1.33-7.48-2.6-11.26-3.8s-7.4-2.15-11.11-3.21C614.51,310,607.12,308,599.7,306c-3.8-1-7.59-2-11.37-3.08s-7.61-2.15-11.45-3.1c-3.55-.89-7.14-1.65-10.74-2.33s-7.49-1.43-11.25-2.06c-5.37-.91-10.74-1.69-16.16-2.21-2.31-.22-4.61-.4-6.91-.63-1.31-.12-2.63-.22-3.93-.38l-3-.41c-1.8-.31-3.6-.61-5.38-1-2.08-.45-4.17-.93-6.25-1.43-3.68-.89-7.35-1.85-11.05-2.75s-7.35-1.87-11-2.88-7.38-1.93-11.06-2.94c-2.27-.63-4.51-1.31-6.77-2s-4.51-1.29-6.77-1.95L463.7,276a42.09,42.09,0,0,0-5.61-1.53l-1-.14,1.41-3.3c.64-1.48,1.29-3,1.95-4.42.41-.87.81-1.75,1.2-2.62a45.8,45.8,0,0,1,3-5.47c1-1.61,2.16-3.14,3.27-4.68,1.09-1.36,2.17-2.74,3.3-4.07,1.38-1.64,2.78-3.24,4.18-4.85,2.53-2.88,5.16-5.64,7.8-8.42,5.21-5.48,10.69-10.7,15.92-16.16,2.77-2.9,5.46-5.85,8.24-8.74s5.61-5.47,8.51-8.11c1.28-1.15,2.62-2.26,3.94-3.36l5-4.08c2.82-2.31,5.62-4.64,8.24-7.18,1.22-1.19,2.43-2.39,3.63-3.61a49.73,49.73,0,0,1,3.67-3.56,15,15,0,0,1,2.31-1.35,36.65,36.65,0,0,1,6.18-1.46c1.25-.15,2.51-.3,3.76-.38,1.61-.11,3.21-.21,4.82-.26s3.22,0,4.85,0c1.36,0,2.73.16,4.09.29l2.63.41c.93.15,1.86.37,2.78.57,1.69.35,3.36.76,5,1.18,3.71.94,7.4,1.95,11.12,2.82s7.49,1.62,11.24,2.43,7.57,1.66,11.36,2.44q11.7,2.44,23.37,5.08,5.39,1.23,10.81,2.42c3.71.81,7.43,1.59,11.12,2.49,2,.48,3.91,1,5.85,1.51s3.89,1.1,5.83,1.69,3.83,1.1,5.75,1.65c1.74.48,3.51.88,5.26,1.31,1,.24,1.93.4,2.89.61.79.16,1.56.33,2.36.47,2.07.38,4.13.76,6.21,1.1,3.7.62,7.42,1.23,11.14,1.76,4,.6,8.07,1.14,12.1,1.7,3.75.51,7.47,1.17,11.17,1.9,2,.38,3.93.91,5.88,1.39,1.76.43,3.51.92,5.26,1.4,3.55,1,6.95,2.47,10.47,3.57,7.34,2.29,14.75,4.32,22.11,6.5,3.62,1.08,7.16,2.37,10.69,3.68s7,2.37,10.57,3.39c3.1.89,6.23,1.7,9.24,2.84a15,15,0,0,1,2,1Z"/><path class="cls-1" d="M691.38,333.06c.4-.19.78-.36,1.15-.56a27.93,27.93,0,0,1,2.88-.14c1.15,0,2.31.06,3.46.17q.78.07,1.56.19c-1.08.77-2.17,1.51-3.27,2.24a28.92,28.92,0,0,1-4.34,2.38,17,17,0,0,1-2.54,1l-1.54.17-.12,0a14.86,14.86,0,0,1-3.52-.67c-1.79-.48-3.57-1-5.32-1.59l-.06,0,.81-.45a18.06,18.06,0,0,1,4.64-2.2c.38-.09.77-.17,1.15-.24.74.21,1.5.41,2.26.55h.37a16.24,16.24,0,0,0,2.27-.76Z"/><path class="cls-1" d="M691.85,332.56l.68-.06c-.37.2-.76.37-1.15.56l-.17.07a16.24,16.24,0,0,1-2.27.76h-.37c-.76-.14-1.51-.33-2.26-.55C688.14,333,690,332.76,691.85,332.56Z"/><path class="cls-1" d="M688.74,338.48l1.54-.17a6.25,6.25,0,0,1-.69.14,6.34,6.34,0,0,1-1,.06Z"/><path class="cls-1" d="M686.31,333.35c-.38.06-.77.15-1.15.24a18.06,18.06,0,0,0-4.64,2.2l-.81.45c-3.82-1.31-7.64-2.65-11.5-3.88-3.45-1.09-6.93-2.1-10.42-3.08-3.72-1.05-7.47-2.07-11.16-3.21-3.86-1.2-7.71-2.41-11.58-3.55s-7.65-2-11.48-3L613,316.89c-7.57-1.86-15.17-3.55-22.72-5.44s-15.13-3.94-22.81-5.39c-7.5-1.43-15-2.73-22.56-3.84-3.26-.4-6.54-.76-9.82-1.05-2-.17-4.08-.37-6.11-.58s-4.12-.52-6.16-.79c-.84-.11-1.67-.3-2.51-.45s-1.48-.25-2.21-.41c-1.89-.41-3.76-.82-5.63-1.28-3.4-.82-6.8-1.7-10.19-2.54-7.6-1.89-15.16-3.92-22.75-5.84-3.68-.93-7.33-2-11-3.06-1.77-.5-3.53-1-5.3-1.51l-2.94-.91a41.12,41.12,0,0,0-4.68-1.36,37.47,37.47,0,0,0-7.73.31l-1,.17a4.14,4.14,0,0,1-3-.38,4.1,4.1,0,0,1-.77-.6c1.54-1,3.08-1.92,4.6-2.91,1.28-.83,2.52-1.7,3.73-2.6.74-.56,1.46-1.14,2.2-1.72a5.7,5.7,0,0,0,.51-.45h0s0,0,0,0c.46-.4.91-.84,1.33-1.29a8.69,8.69,0,0,0,.79-1,3.61,3.61,0,0,0,.42-.67l.3-.71,1.31.57-1.41,3.3,1,.14A42.09,42.09,0,0,1,463.7,276l2.85.88c2.26.66,4.53,1.29,6.77,1.95s4.5,1.35,6.77,2c3.68,1,7.38,1.93,11.06,2.94s7.33,2,11,2.88,7.37,1.86,11.05,2.75c2.08.5,4.17,1,6.25,1.43,1.79.38,3.58.68,5.38,1l3,.41c1.3.16,2.62.26,3.93.38,2.29.24,4.6.41,6.91.63,5.42.52,10.79,1.3,16.16,2.21,3.76.63,7.5,1.34,11.25,2.06s7.19,1.44,10.74,2.33c3.83,1,7.64,2,11.45,3.1S595.91,305,599.7,306c7.42,1.95,14.81,3.94,22.18,6.05,3.71,1.07,7.44,2,11.11,3.21s7.52,2.47,11.26,3.8,7.6,2.65,11.43,3.91c3.53,1.15,7.08,2.24,10.6,3.41,3.68,1.23,7.33,2.49,10.94,3.86,1.89.71,3.77,1.4,5.68,2,.91.3,1.82.58,2.75.83Z"/><path class="cls-1" d="M457.26,269.36a2.44,2.44,0,0,1-.09,1.15l-.3.71a3.61,3.61,0,0,1-.42.67,8.69,8.69,0,0,1-.79,1c-.42.45-.87.89-1.33,1.29q1.25-2.9,2.51-5.79A2.8,2.8,0,0,1,457.26,269.36Z"/><path class="cls-1" d="M456.75,268.27l-.3-.38c-.16-.14-.33-.26-.51-.4a4.63,4.63,0,0,0-1.18-.53,13,13,0,0,0-3.24-.61c-1.51-.15-3-.29-4.55-.46-2.8-.45-5.53-1.18-8.3-1.8-3-.67-6.06-1.14-9.12-1.62s-6.06-.89-9.09-1.38-6.06-1-9.1-1.55-5.9-1-8.86-1.54c-3.25-.6-6.46-1.31-9.67-2.1-3-.72-5.92-1.5-8.84-2.37s-5.69-1.84-8.48-3c-1.51-.6-3-1.18-4.53-1.75s-3-1-4.44-1.49c-2.93-.93-5.88-1.76-8.84-2.55-1.58-.42-3.19-.71-4.79-1-.74-.15-1.5-.22-2.24-.33s-1.8-.19-2.7-.26c-1.46-.14-3-.11-4.42-.16-1.65,0-3.31-.12-5-.29a.58.58,0,0,1-.21,0l-.11,0c.07.18.16.35.22.54-.07-.2-.15-.36-.22-.54l-2,.69a1.7,1.7,0,0,0-.12,1.09c.19,1.13,1.49,1.44,2.43,1.65a16.74,16.74,0,0,0,1.79.26l.61.07,1.1.48a1.22,1.22,0,0,0,1.49-.26h.12c1,.07,2,.11,3,.19s2.06.19,3.1.31l2,.33c.81.12,1.6.35,2.39.52,1.64.36,3.25.84,4.86,1.29,1.4.4,2.78.84,4.18,1.29s2.85.88,4.25,1.39c3.08,1.09,6.08,2.32,9.1,3.52,2.78,1.1,5.64,2,8.52,2.82s5.88,1.67,8.84,2.43q4.76,1.19,9.56,2.2c6,1.24,12,2.51,18,3.55,5.32.91,10.7,1.34,16.09,1.79,2.57.21,5.12.36,7.7.48,2.37.12,4.77.15,7.13.43a9.48,9.48,0,0,1,1.67.43.39.39,0,0,1,.12.06l-.07.12a14.33,14.33,0,0,1-1.77,1.7,50.33,50.33,0,0,1-5.38,3.47c1.05-.19,2.11-.33,3.17-.46s2-.27,3.06-.33c.33,0,.67,0,1,0,0,0,0,0,.06,0q1.25-2.9,2.51-5.79Z"/><path class="cls-1" d="M454.27,274.22a5.7,5.7,0,0,1-.51.45c-.73.58-1.45,1.17-2.2,1.72-1.22.91-2.46,1.77-3.73,2.6-1.53,1-3.06,1.95-4.6,2.91a3.82,3.82,0,0,1-.78-4.29c.64-.36,1.28-.72,1.92-1.07.89-.5,1.79-1,2.67-1.5,1.05-.19,2.11-.33,3.17-.46s2-.27,3.06-.33C453.61,274.24,453.95,274.24,454.27,274.22Z"/><path class="cls-1" d="M444.93,275.48c.71-.16,1.4-.31,2.11-.42-.88.51-1.77,1-2.67,1.5-.64.35-1.28.71-1.92,1.07A3.66,3.66,0,0,1,444.93,275.48Z"/><g id="_Group_2" data-name="&lt;Group&gt;"><path class="cls-1" d="M400.63,542.63a3,3,0,0,1,1.13,1,31,31,0,0,1,2.1,3.41c.27.53.55,1.08.79,1.62-2.63-1.39-5.26-2.8-7.86-4.23a2.68,2.68,0,0,1,1.27-1.77,2.66,2.66,0,0,1,1.36-.37,2.8,2.8,0,0,1,.72.1A2.18,2.18,0,0,1,400.63,542.63Z"/><path class="cls-1" d="M409.29,524.42l2.91-2.13c1.39-1.09,2.78-2.2,4.14-3.3s2.85-2.37,4.32-3.5c3-2.33,6.05-4.61,9.23-6.72l9.26-6.11q2.66-1.79,5.3-3.58c1.36-.93,2.67-1.95,4-2.94,2.11-1.71,4.22-3.42,6.29-5.17s4.15-3.56,6.26-5.3q6.29-5.17,12.71-10.16,6-4.71,11.94-9.57c3.72-3.06,7.4-6.16,11.14-9.2,1.87-1.51,3.81-2.94,5.72-4.4,1.64-1.27,3.35-2.48,5-3.68,3.92-2.78,7.85-5.57,11.72-8.42l.21-.16q4.15-3.22,8.22-6.55,2.23-1.84,4.49-3.66c.66-.52,1.33-1,2-1.55s1.51-1.19,2.29-1.75c1.43-1,2.85-2,4.3-3q2.42-1.62,4.87-3.2c3-1.95,6.06-3.83,9.12-5.72,4-2.51,8-5.1,11.89-7.75,3.68-2.49,7.32-5,11-7.47,4.27-2.82,8.57-5.54,12.91-8.25,3.82-2.38,7.69-4.73,11.52-7.11,4.18-2.6,8.35-5.22,12.56-7.79s8.28-4.95,12.44-7.4c8-4.76,15.86-9.81,23.68-14.9,4-2.58,7.93-5.12,11.93-7.63s7.89-4.94,11.92-7.24l5-2.85.06,0c1.75.6,3.53,1.1,5.32,1.59a14.86,14.86,0,0,0,3.52.67,17.72,17.72,0,0,0-3.11.72c-2.06,1-4,2.22-5.94,3.39q-11.83,7.13-23.39,14.66c-3.87,2.54-7.75,5.11-11.66,7.59-4.24,2.7-8.51,5.32-12.81,7.89-4.08,2.43-8.22,4.76-12.32,7.17s-8.11,4.87-12.15,7.33c-8,4.89-16.15,9.59-24,14.66q-6.38,4.09-12.68,8.32-5.64,3.8-11.4,7.38c-4,2.51-8.07,5-12.08,7.52-1.8,1.15-3.61,2.32-5.36,3.55-1,.71-2,1.38-3,2.11l-2.82,2.13c-3,2.38-5.92,4.81-8.87,7.21s-6,4.68-9,6.95c-2.83,2.11-5.77,4.09-8.62,6.18-1.53,1.12-3.08,2.21-4.58,3.36l-4.19,3.24c-4.81,3.91-9.56,7.88-14.35,11.82-4.54,3.73-9.23,7.28-13.89,10.86-2.17,1.71-4.34,3.42-6.49,5.16-1.89,1.54-3.75,3.09-5.62,4.64-1.56,1.3-3.1,2.64-4.7,3.92-2,1.59-3.94,3.19-6,4.7-1.87,1.36-3.75,2.7-5.68,4-4,2.59-8,5.1-12,7.68-2.11,1.36-4.2,2.75-6.26,4.19-1.74,1.2-3.4,2.51-5.07,3.78-2.42,1.87-4.82,3.77-7.33,5.53-.76.55-1.51,1.12-2.31,1.62l-2.13,1.36c-1.3.83-2.65,1.6-4,2.37s-2.54,1.4-3.8,2.13-2.79,1.67-4.17,2.57c-.53.33-1.05.68-1.59,1l6.46,3.19-1.12,2.27a2.18,2.18,0,0,0-.5-.2,2.8,2.8,0,0,0-.72-.1,2.66,2.66,0,0,0-1.36.37,2.68,2.68,0,0,0-1.27,1.77c-1.25-.67-2.51-1.36-3.75-2.06a3.78,3.78,0,0,0-.12-.61,4.46,4.46,0,0,0-1.82-2.12,9.79,9.79,0,0,0-2.69-1.29c-.27-.1-.55-.2-.83-.27,2-1.35,4-2.72,6-4s4.27-2.78,6.49-4c1-.57,2-1.1,3-1.7s2.12-1.2,3.13-1.87S408.28,525.15,409.29,524.42Z"/><path class="cls-2" d="M234.59,608.92c1.77.43,3.56.84,5.35,1.25,3.47.78,6.95,1.55,10.39,2.48,3.73,1,7.43,2.11,11.1,3.35,2.08.71,4.14,1.5,6.2,2.24,2.22.81,4.45,1.56,6.67,2.36q6.33,2.27,12.54,4.86a14.88,14.88,0,0,0,2.63.88,10.78,10.78,0,0,0,1.55.17,9.42,9.42,0,0,0,1.95-.26,14.88,14.88,0,0,0,3.41-1.27,35,35,0,0,0,3.65-2,50,50,0,0,0,4.11-2.9c1-.74,2-1.46,2.9-2.23,2.77-2.27,5.52-4.54,8.26-6.86s5.74-4.84,8.56-7.34c3-2.64,5.93-5.33,8.86-8s5.72-5.41,8.56-8.14q3.91-3.74,7.9-7.38c2.77-2.53,5.66-4.94,8.52-7.34s5.63-4.7,8.5-7c3.75-3,7.55-5.92,11.32-8.87s7.49-6,11.29-8.93l.1-.09,1.82-1.41a7.61,7.61,0,0,0,1.86-1.92,3.16,3.16,0,0,0,.47-2.11c1.24.69,2.49,1.39,3.75,2.06a2.61,2.61,0,0,0,.3,1.93c.57.94,1.1,1.9,1.62,2.88.3.56.53,1.14.79,1.72.88,2.18,1.75,4.38,2.58,6.59a64.17,64.17,0,0,1,2.06,7.08c1.14,4.61,2.1,9.28,2.83,14,.15,1.35.29,2.7.38,4.07s.16,3,.22,4.51c.11,2.72.07,5.46.06,8.19,0,6.08-.11,12.15-.32,18.22-.16,4.43-.63,8.82-1.1,13.21a.16.16,0,0,0,0,.07h0c-.76,5.57-1.56,11.14-2.54,16.68-.51,2.91-1,5.83-1.53,8.74s-1,6-1.4,8.93c-.27,1.8-.42,3.62-.62,5.43-.14,1.23-.24,2.46-.33,3.68-.26,3.21-.47,6.41-.68,9.62-.17,2.78-.37,5.54-.56,8.31-.11,1.59-.29,3.17-.43,4.76-.12,1.34-.27,2.67-.42,4-.31,2.75-.66,5.52-.93,8.28-.32,3.29-.63,6.57-.91,9.86-.24,2.83-.48,5.64-.78,8.46s-.66,5.88-1,8.82c-.41,3.62-.69,7.24-1.08,10.86-.14.84-.24,1.69-.43,2.52-.15.63-.3,1.28-.43,1.91a22.9,22.9,0,0,1-1.12,3.34,15.49,15.49,0,0,1-1.05,2c-2.34-1-4.58-2.33-6.91-3.41a71.4,71.4,0,0,0-7.95-3.13c-2.65-.88-5.31-1.71-8-2.58-2.39-.78-4.74-1.66-7.08-2.62-4-1.81-7.93-3.78-11.91-5.63-4.23-2-8.51-3.81-12.8-5.62l-7.52-3.24c-2.91-1.25-5.83-2.54-8.78-3.71q-8.06-3.18-16.17-6.11c-2.79-1-5.58-2-8.38-3s-5.83-1.93-8.77-2.85c-2.78-.88-5.54-1.76-8.3-2.72s-5.51-1.93-8.26-2.91-5.77-2-8.67-2.93c-2.63-.84-5.28-1.6-7.9-2.47-5.54-1.81-11.05-3.73-16.54-5.71-2.74-1-5.48-2-8.19-3s-5.69-2.22-8.59-3.19-5.78-1.74-8.72-2.46c-2.7-.68-5.42-1.27-8.1-2-2.84-.79-5.67-1.64-8.51-2.46s-5.39-1.45-8.12-2.08c-5.79-1.36-11.57-2.85-17.43-4-3-.58-6-1-9-1.35s-5.94-.51-8.92-.82a26.73,26.73,0,0,1-5.82-1.33,9.65,9.65,0,0,1-.92-.52,4,4,0,0,1-.4-.4l-.19-.31a9.51,9.51,0,0,1-.41-1.55,26.24,26.24,0,0,1,.2-5.12c.38-2.57,1-5.1,1.48-7.66q.73-4.19,1.43-8.37c.48-2.91.89-5.83,1.25-8.76.16-1.39.32-2.78.47-4.18.07-.63.15-1.27.2-1.9.06-.79.16-1.58.17-2.37s.09-1.85,0-2.78,0-2.07-.12-3.11c-.15-2.13-.36-4.27-.6-6.39-.45-4-1.14-8-1.76-12-.14-1.08-.3-2.17-.4-3.25-.12-1.36-.3-2.74-.36-4.12s-.17-2.7-.14-4,.07-2.44.12-3.67c3,.74,6,1.5,9,2.2,7.27,1.71,14.55,3.34,21.78,5.18,1.82.46,3.63,1,5.46,1.43,1.66.43,3.34.89,5,1.23,2,.4,4,.78,5.94,1.12s3.87.58,5.8.86c7,1,14,1.65,21,2.49H219c1.7.24,3.4.48,5.08.76s3.36.62,5,1C230.92,608,232.75,608.48,234.59,608.92Z"/><path class="cls-1" d="M829.45,380.36c0,.31.09.63.12,1s-.09.63-.14,1-.32.77-.5,1.15c-1.65,2.62-4,4.54-6.34,6.52-.79.67-1.66,1.28-2.48,1.91-.53.41-1.07.82-1.61,1.2-3,2.18-6.09,4.32-9.07,6.55L803.58,404c-1.7,1.28-3.41,2.55-5.18,3.73q-3.26,2.2-6.56,4.3c-1.8,1.14-3.63,2.22-5.47,3.31-4.23,2.51-8.4,5.07-12.51,7.75-4,2.58-7.81,5.3-11.68,8q-11.66,8.11-23,16.63c-7.22,5.39-14.47,10.75-21.62,16.25l-.48.36c-2.86,2.23-5.72,4.48-8.59,6.71s-5.47,4.24-8.12,6.45l-4.9,4.07c-.2-2.31-.37-4.61-.55-6.92.41-.36.83-.71,1.24-1.05,3.32-2.79,6.78-5.43,10.22-8.07,6.56-5.07,13.17-10.07,19.91-14.91,7.59-5.44,15.12-11,22.82-16.22,7.89-5.38,15.79-10.75,23.79-15.94,4.12-2.65,8.31-5.17,12.5-7.69,2-1.18,3.91-2.41,5.84-3.66s3.63-2.36,5.38-3.62q3.18-2.31,6.33-4.66c1.72-1.29,3.42-2.59,5.16-3.84,1.9-1.39,3.81-2.74,5.72-4.12s3.81-2.77,5.68-4.18a42.57,42.57,0,0,0,5.13-4.77,1.35,1.35,0,0,0,.16-.21,18.05,18.05,0,0,0-1.77-.87c-3.25-1.27-6.6-2.27-9.93-3.32-1.75-.56-3.47-1.15-5.2-1.8s-3.45-1.43-5.15-2.21c-6.42-3-12.59-6.49-19.06-9.38-2.31-.89-4.64-1.75-7-2.47-2.59-.79-5.22-1.46-7.86-2.1-2.85-.67-5.67-1.4-8.48-2.2-2.55-.72-5.08-1.48-7.65-2.15-2.37-.62-4.75-1.2-7.12-1.84s-4.44-1.28-6.62-2-4.28-1.49-6.42-2.23-4.54-1.55-6.8-2.34c-4.34-1.51-8.61-3.24-12.92-4.8-2.1-.74-4.2-1.51-6.36-2.12-1.34-.37-2.68-.72-4-1-1-.22-1.95-.38-2.93-.56a35.84,35.84,0,0,0-4.61-.26c-.87,0-1.72,0-2.59.1l-1.95.2a17,17,0,0,0,2.54-1,28.92,28.92,0,0,0,4.34-2.38c1.1-.73,2.2-1.48,3.27-2.24a39.29,39.29,0,0,1,5.63,1.1c2.33.63,4.64,1.31,6.91,2.13s4.46,1.65,6.67,2.51c2,.77,4,1.56,6,2.27,2.18.77,4.37,1.51,6.55,2.27s4.38,1.58,6.57,2.31c1.17.38,2.32.82,3.5,1.17s2.31.73,3.49,1c4.58,1.17,9.19,2.18,13.74,3.37,2.41.63,4.81,1.25,7.23,1.82,2.17.52,4.37.91,6.52,1.46s4.58,1.22,6.83,2a61.7,61.7,0,0,1,6.81,2.7c4.3,2.08,8.36,4.63,12.49,7,1.82,1.05,3.66,2.12,5.52,3.1s3.8,1.91,5.75,2.77l.16.06c3.11,1.2,6.28,2.24,9.43,3.35,1.77.64,3.53,1.29,5.27,2,.36.16.71.33,1.05.52a8.83,8.83,0,0,1,1.05.6c.31.24.62.46.92.69A3.47,3.47,0,0,1,829.45,380.36Z"/><path class="cls-2" d="M824.76,381.68a1.35,1.35,0,0,1-.16.21,42.57,42.57,0,0,1-5.13,4.77c-1.87,1.41-3.77,2.82-5.68,4.18s-3.82,2.73-5.72,4.12c-1.74,1.25-3.44,2.55-5.16,3.84q-3.14,2.36-6.33,4.66c-1.75,1.27-3.57,2.46-5.38,3.62s-3.87,2.48-5.84,3.66c-4.19,2.52-8.38,5-12.5,7.69-8,5.18-15.9,10.55-23.79,15.94-7.7,5.26-15.23,10.78-22.82,16.22-6.73,4.84-13.34,9.84-19.91,14.91-3.44,2.64-6.9,5.28-10.22,8.07-.41.35-.83.69-1.24,1.05-.22-3.05-.43-6.11-.63-9.17a2.16,2.16,0,1,0-4.32,0q.17,5.06.42,10.1c0,.92.09,1.84.14,2.75-1.4,1.15-2.83,2.29-4.25,3.44-1.8,1.35-3.58,2.69-5.41,4-2.13,1.51-4.29,3-6.45,4.46-3.67,2.52-7.37,5-11,7.53-7.95,5.51-15.79,11.2-23.87,16.53-3.92,2.59-7.9,5.08-11.92,7.54-2,1.19-4,2.36-5.89,3.62-2.17,1.41-4.33,2.83-6.47,4.28-3.86,2.62-7.7,5.25-11.56,7.85s-8,5.3-12,7.9-8.27,5.39-12.43,8.06c-3.7,2.38-7.48,4.65-11.22,7-8,4.92-15.84,10-23.53,15.38-5.77,4-11.12,8.57-16.66,12.92l-.46.36q-2.75,2.1-5.64,4a39,39,0,0,1-6,3.25,17.34,17.34,0,0,1-3.44.92,19.4,19.4,0,0,1-3.29-.06,31.14,31.14,0,0,1-5.9-2c-2-.86-4-1.79-6-2.72-2.16-1-4.34-2-6.51-3-4-1.81-8.07-3.46-12.14-5.1l-.3-.12-.11,0c-2-.88-4-1.8-6-2.75s-4.22-2-6.31-3-4.12-2.1-6.14-3.21-4-2.33-5.93-3.49c-4.07-2.38-8.21-4.64-12.17-7.19-1.81-1.18-3.6-2.39-5.46-3.5s-4-2.32-6-3.57c-1.35-.87-2.7-1.71-4-2.64s-2.78-2-4.15-3-2.58-1.95-3.94-2.82c-1-.64-2-1.28-3-1.91-.52-.35-1-.73-1.6-1l-4.86-2.63c-1.46-.79-3-1.46-4.49-2.2l-2.23-1.09-6.46-3.19c.53-.35,1.05-.69,1.59-1,1.38-.89,2.77-1.74,4.17-2.57s2.54-1.41,3.8-2.13,2.69-1.54,4-2.37l2.13-1.36c.79-.51,1.55-1.08,2.31-1.62,2.51-1.76,4.91-3.66,7.33-5.53,1.67-1.28,3.34-2.58,5.07-3.78,2.06-1.44,4.15-2.83,6.26-4.19,4-2.58,8-5.08,12-7.68,1.93-1.27,3.81-2.6,5.68-4,2-1.51,4-3.11,6-4.7,1.6-1.28,3.14-2.62,4.7-3.92,1.87-1.55,3.73-3.1,5.62-4.64,2.15-1.74,4.32-3.45,6.49-5.16,4.66-3.58,9.35-7.13,13.89-10.86,4.79-3.94,9.54-7.91,14.35-11.82l4.19-3.24c1.5-1.15,3.05-2.24,4.58-3.36,2.85-2.08,5.79-4.07,8.62-6.18,3-2.27,6.08-4.55,9-6.95s5.89-4.82,8.87-7.21l2.82-2.13c1-.73,2-1.4,3-2.11,1.75-1.23,3.56-2.39,5.36-3.55,4-2.55,8-5,12.08-7.52q5.77-3.57,11.4-7.38,6.29-4.22,12.68-8.32c7.9-5.07,16-9.77,24-14.66,4-2.46,8.07-4.94,12.15-7.33s8.24-4.74,12.32-7.17c4.3-2.57,8.57-5.18,12.81-7.89,3.91-2.48,7.79-5,11.66-7.59q11.55-7.55,23.39-14.66c2-1.17,3.88-2.41,5.94-3.39a17.72,17.72,0,0,1,3.11-.72,6.34,6.34,0,0,0,1-.06,6.25,6.25,0,0,0,.69-.14l1.95-.2c.87-.07,1.72-.09,2.59-.1a35.84,35.84,0,0,1,4.61.26c1,.17,2,.33,2.93.56,1.35.31,2.69.66,4,1,2.16.61,4.27,1.38,6.36,2.12,4.32,1.56,8.58,3.29,12.92,4.8,2.26.79,4.54,1.56,6.8,2.34s4.28,1.5,6.42,2.23,4.39,1.41,6.62,2,4.75,1.22,7.12,1.84c2.57.67,5.1,1.43,7.65,2.15,2.82.79,5.63,1.53,8.48,2.2,2.64.63,5.27,1.3,7.86,2.1,2.38.72,4.71,1.58,7,2.47,6.47,2.89,12.64,6.4,19.06,9.38,1.7.78,3.4,1.55,5.15,2.21s3.45,1.24,5.2,1.8c3.34,1.05,6.68,2.06,9.93,3.32A18.05,18.05,0,0,1,824.76,381.68Z"/><path class="cls-1" d="M698,513.6c.06,1.64.09,3.26.07,4.9s-.07,3.29-.12,4.92c-.1,3.26-.21,6.52-.37,9.77s-.36,6.52-.84,9.76-1,6.35-1.79,9.48c-.37,1.59-.72,3.17-1.18,4.74-.24.82-.46,1.65-.74,2.47s-.6,1.7-.94,2.53a26.28,26.28,0,0,1-5.06,8.3,31.41,31.41,0,0,1-3.47,3.08c-1.29,1.07-2.64,2-4,3-2.52,1.86-5.11,3.63-7.7,5.39-2.82,1.92-5.66,3.78-8.53,5.61s-5.53,3.37-8.31,5-5.59,3.41-8.38,5.11-5.42,3.32-8.17,4.91l-9,5.2q-8.52,4.95-16.73,10.38c-2.74,1.79-5.43,3.67-8.12,5.52s-5.57,3.68-8.37,5.48c-5.37,3.47-10.8,6.83-16.21,10.24q-8.52,5.38-17.13,10.62c-1.31.78-2.62,1.58-3.92,2.39s-2.86,1.75-4.25,2.67c-2.93,1.92-5.84,3.86-8.72,5.85-5.39,3.75-10.69,7.61-16.09,11.37s-11.12,7.53-16.68,11.32-11.15,7.85-16.66,11.87c-2.55,1.86-5.12,3.72-7.74,5.49l-8.4,5.64-9.08,6.09c-2.73,1.84-5.52,3.56-8.32,5.28s-5.69,3.42-8.53,5.12-5.63,3.32-8.47,5-5.64,3.14-8.5,4.63-6,3.1-8.9,4.76-5.61,3.3-8.35,5c-1.31.82-2.62,1.64-3.93,2.44s-2.72,1.72-4.12,2.52l-4.91,2.8c-.64.37-1.33.68-2,1-.93.47-1.85,1-2.78,1.44-1.13.58-2.28,1.1-3.44,1.62a1.23,1.23,0,0,1-.6,1.29c-.89.48-1.79,1-2.72,1.44a14.9,14.9,0,0,1-2,.83,8.27,8.27,0,0,1-1.5.35,6,6,0,0,0,2.08-1.93,17.74,17.74,0,0,0,1.91-4l1.22-.57c1.08-.51,2.2-1,3.26-1.54l3.3-1.71c2.08-1.07,4.11-2.24,6.13-3.42s3.71-2.26,5.56-3.4c2.75-1.71,5.47-3.49,8.24-5.2s5.77-3.39,8.72-5l4.42-2.38c1.43-.77,2.83-1.58,4.25-2.38,2.82-1.6,5.58-3.26,8.35-5,5.58-3.44,11.19-6.87,16.62-10.54,5.63-3.8,11.17-7.75,16.74-11.65,2.85-2,5.68-4,8.48-6.11,2.52-1.84,5-3.75,7.47-5.62q8.07-6.08,16.4-11.86c2.64-1.84,5.32-3.66,7.94-5.56q4.35-3.16,8.69-6.34c5.16-3.78,10.29-7.6,15.59-11.2,1.44-1,2.88-2,4.34-3l4.85-3.14c2.74-1.79,5.53-3.49,8.31-5.22,5.72-3.6,11.36-7.28,17-10.91,5.28-3.4,10.59-6.72,15.83-10.19,5.49-3.67,10.89-7.48,16.52-10.94,5.79-3.56,11.7-6.9,17.66-10.16,2.72-1.49,5.44-3,8.12-4.54,2.88-1.67,5.75-3.35,8.66-5,5.67-3.24,11.42-6.3,17-9.69q4.2-2.53,8.36-5.13c2.55-1.61,5.1-3.24,7.52-5.06.63-.5,1.28-1,1.86-1.56a16.74,16.74,0,0,0,1.49-1.62,27,27,0,0,0,1.74-2.7c.52-.94,1-1.92,1.41-2.91.27-.68.53-1.38.76-2.07s.5-1.64.72-2.47c.37-1.38.68-2.78,1-4.17.63-2.94,1.17-5.89,1.62-8.86.17-1.35.33-2.72.42-4.08q.15-2.62.26-5.25c.14-3.2.15-6.4.2-9.6s.11-6.44,0-9.66-.29-6.36-.41-9.54-.48-6.59-.87-9.87-.76-6.81-1.08-10.22a3,3,0,0,1,0-.33l1.1-.86q1.71-1.34,3.39-2.72l.22,2.73c.29,3.32.72,6.64,1.1,9.95s.73,6.46.91,9.71S697.9,510.38,698,513.6Z"/><path class="cls-1" d="M695.43,481.55q-1.67,1.38-3.39,2.72l-1.1.86c-.2-2.27-.33-4.54-.45-6.81.15-.11.29-.24.42-.35,1.33-1.12,2.64-2.23,4-3.34C695.06,476.94,695.24,479.25,695.43,481.55Z"/><path class="cls-2" d="M694.26,465.47c.2,3.05.41,6.11.63,9.17-1.33,1.1-2.64,2.22-4,3.34-.14.11-.27.24-.42.35,0-.92-.09-1.84-.14-2.75q-.26-5-.42-10.1a2.16,2.16,0,1,1,4.32,0Z"/><path class="cls-2" d="M693.33,515.09c.1,3.22,0,6.44,0,9.66s-.06,6.4-.2,9.6q-.11,2.62-.26,5.25c-.09,1.36-.25,2.73-.42,4.08-.46,3-1,5.92-1.62,8.86-.31,1.39-.62,2.79-1,4.17-.22.83-.46,1.65-.72,2.47s-.48,1.39-.76,2.07c-.43,1-.89,2-1.41,2.91a27,27,0,0,1-1.74,2.7,16.74,16.74,0,0,1-1.49,1.62c-.58.56-1.23,1.07-1.86,1.56-2.42,1.82-5,3.45-7.52,5.06q-4.15,2.6-8.36,5.13c-5.59,3.39-11.35,6.45-17,9.69-2.9,1.65-5.78,3.32-8.66,5-2.68,1.56-5.41,3.05-8.12,4.54-6,3.26-11.87,6.6-17.66,10.16-5.63,3.46-11,7.27-16.52,10.94-5.23,3.47-10.54,6.8-15.83,10.19-5.68,3.63-11.32,7.32-17,10.91-2.78,1.74-5.57,3.44-8.31,5.22L552,650c-1.46,1-2.9,2-4.34,3-5.3,3.6-10.43,7.42-15.59,11.2q-4.33,3.18-8.69,6.34c-2.62,1.9-5.3,3.72-7.94,5.56q-8.32,5.79-16.4,11.86c-2.49,1.87-4.95,3.78-7.47,5.62-2.8,2.07-5.63,4.12-8.48,6.11-5.57,3.89-11.11,7.85-16.74,11.65-5.43,3.67-11,7.11-16.62,10.54-2.77,1.71-5.53,3.37-8.35,5-1.43.81-2.83,1.61-4.25,2.38l-4.42,2.38c-3,1.6-5.88,3.22-8.72,5s-5.48,3.49-8.24,5.2c-1.85,1.14-3.67,2.32-5.56,3.4s-4,2.36-6.13,3.42l-3.3,1.71c-1.07.55-2.18,1-3.26,1.54l-1.22.57c.12-.35.25-.71.36-1.05a30.31,30.31,0,0,0,.91-3.62,74.58,74.58,0,0,0,1.05-9.12c.22-3,.51-6,.82-9s.6-5.75.87-8.63.47-5.89.71-8.84c.48-5.94,1.19-11.87,1.86-17.8.57-5.23.87-10.5,1.22-15.75.19-2.9.41-5.79.64-8.68.21-2.55.52-5.08.81-7.63.43-2.86.88-5.73,1.4-8.58s1-5.83,1.58-8.74c1-5.75,1.91-11.53,2.73-17.33,1.7-12,1.75-24.15,1.82-36.24,0-2.72,0-5.44-.2-8.16a93.72,93.72,0,0,0-1.09-9.49c-.48-2.88-1.08-5.74-1.67-8.61-.27-1.33-.52-2.68-.88-4-.21-.76-.42-1.53-.62-2.28s-.48-1.49-.72-2.23a64.15,64.15,0,0,0-2.44-6.26c-.25-.55-.5-1.09-.76-1.62l.26.14c.82.43,1.62.91,2.43,1.36,1,.56,2,1.07,2.91,1.67,1.93,1.27,3.92,2.47,5.79,3.82a127.92,127.92,0,0,0,11.88,8c2.1,1.19,4.23,2.36,6.31,3.6,1.91,1.12,3.77,2.32,5.69,3.4,3.83,2.16,7.75,4.15,11.61,6.24,3.5,1.9,7,3.83,10.6,5.43,4.11,1.8,8.22,3.57,12.37,5.27,2,.81,4,1.49,6,2.21s3.71,1.43,5.56,2.17c4.13,1.76,8.22,3.61,12.29,5.51,2.06,1,4.17,1.82,6.29,2.64a18.48,18.48,0,0,0,4.22,1.08,18,18,0,0,0,3.47.12,20.22,20.22,0,0,0,7-2.11,46.71,46.71,0,0,0,5.64-3.05,120.72,120.72,0,0,0,11.12-8.16q2.4-1.92,4.81-3.8c7.26-5.52,14.93-10.48,22.61-15.42,3.76-2.42,7.59-4.71,11.4-7.06q6.33-3.89,12.53-7.93c8-5.21,16.09-10.39,24-15.75,4-2.72,8-5.44,12.1-8.07,1.77-1.15,3.61-2.23,5.42-3.32l6.52-3.94c4.11-2.51,8.11-5.17,12.1-7.85,3.68-2.46,7.33-5,11-7.52q6.38-4.43,12.82-8.73c3.72-2.49,7.45-4.92,11.14-7.47,2.84-2,5.63-4,8.37-6.13a3,3,0,0,0,0,.33q.48,5.12,1.08,10.22c.38,3.29.73,6.57.87,9.87S693.21,511.91,693.33,515.09Z"/><path class="cls-1" d="M690.5,478.32c.11,2.27.25,4.54.45,6.81-2.74,2.12-5.53,4.14-8.37,6.13-3.68,2.54-7.42,5-11.14,7.47Q665,503,658.61,507.45c-3.65,2.53-7.29,5.06-11,7.52-4,2.68-8,5.35-12.1,7.85L629,526.76c-1.81,1.09-3.65,2.17-5.42,3.32-4.08,2.63-8.09,5.36-12.1,8.07-7.94,5.36-16,10.54-24,15.75q-6.21,4-12.53,7.93c-3.81,2.34-7.64,4.64-11.4,7.06-7.68,4.94-15.35,9.9-22.61,15.42q-2.42,1.88-4.81,3.8A120.72,120.72,0,0,1,525,596.26a46.71,46.71,0,0,1-5.64,3.05,20.22,20.22,0,0,1-7,2.11,18,18,0,0,1-3.47-.12,18.48,18.48,0,0,1-4.22-1.08c-2.12-.82-4.23-1.69-6.29-2.64-4.07-1.9-8.16-3.75-12.29-5.51-1.85-.74-3.68-1.49-5.56-2.17s-4-1.4-6-2.21c-4.14-1.7-8.26-3.47-12.37-5.27-3.63-1.6-7.11-3.53-10.6-5.43-3.86-2.08-7.78-4.08-11.61-6.24-1.92-1.08-3.78-2.28-5.69-3.4-2.08-1.24-4.22-2.41-6.31-3.6a127.92,127.92,0,0,1-11.88-8c-1.87-1.35-3.86-2.55-5.79-3.82-.93-.61-1.95-1.12-2.91-1.67-.81-.46-1.61-.93-2.43-1.36l-.26-.14s0,0,0,0c-.25-.55-.52-1.09-.79-1.62a31,31,0,0,0-2.1-3.41,3,3,0,0,0-1.13-1l1.12-2.27,2.23,1.09c1.5.73,3,1.4,4.49,2.2l4.86,2.63c.56.3,1.08.68,1.6,1,1,.63,2,1.27,3,1.91,1.36.87,2.64,1.86,3.94,2.82s2.77,2,4.15,3,2.67,1.77,4,2.64c2,1.25,4,2.38,6,3.57s3.65,2.32,5.46,3.5c4,2.55,8.1,4.81,12.17,7.19,2,1.15,3.92,2.38,5.93,3.49s4.06,2.21,6.14,3.21,4.22,2,6.31,3,4,1.87,6,2.75l.11,0,.3.12c4.07,1.64,8.15,3.29,12.14,5.1,2.17,1,4.35,2,6.51,3,2,.93,4,1.86,6,2.72a31.14,31.14,0,0,0,5.9,2,19.4,19.4,0,0,0,3.29.06,17.34,17.34,0,0,0,3.44-.92,39,39,0,0,0,6-3.25q2.88-1.93,5.64-4l.46-.36c5.53-4.35,10.89-8.9,16.66-12.92C552.13,570.5,560,565.4,568,560.48c3.75-2.31,7.53-4.58,11.22-7q6.23-4,12.43-8.06c4-2.6,8-5.22,12-7.9s7.7-5.23,11.56-7.85c2.15-1.45,4.3-2.86,6.47-4.28,1.93-1.27,3.92-2.43,5.89-3.62,4-2.46,8-4.95,11.92-7.54,8.09-5.33,15.92-11,23.87-16.53,3.66-2.54,7.35-5,11-7.53,2.16-1.48,4.32-3,6.45-4.46,1.82-1.3,3.61-2.64,5.41-4C687.67,480.61,689.1,479.47,690.5,478.32Z"/><path class="cls-1" d="M390.05,757.18a1.63,1.63,0,0,1,.15-1.13,2.56,2.56,0,0,1,.83-1,2.77,2.77,0,0,1,.37-.25c.55-.32,1.1-.62,1.66-.89s1.05-.5,1.59-.73l1.61-.74a17.74,17.74,0,0,1-1.91,4,6,6,0,0,1-2.08,1.93,3,3,0,0,1-1.19-.1A1.55,1.55,0,0,1,390.05,757.18Z"/><path class="cls-1" d="M411.74,573.73a93.72,93.72,0,0,1,1.09,9.49c.17,2.72.21,5.44.2,8.16-.07,12.09-.12,24.26-1.82,36.24-.82,5.79-1.69,11.57-2.73,17.33-.53,2.91-1.05,5.82-1.58,8.74s-1,5.72-1.4,8.58c-.29,2.54-.6,5.07-.81,7.63-.24,2.89-.46,5.78-.64,8.68-.35,5.25-.64,10.52-1.22,15.75-.67,5.93-1.38,11.86-1.86,17.8-.24,3-.43,5.9-.71,8.84s-.58,5.75-.87,8.63-.6,6-.82,9a74.58,74.58,0,0,1-1.05,9.12,30.31,30.31,0,0,1-.91,3.62c-.11.35-.24.71-.36,1.05l-1.61.74c-.53.24-1.05.48-1.59.73s-1.12.57-1.66.89a2.77,2.77,0,0,0-.37.25l-1-1.86h0a15.49,15.49,0,0,0,1.05-2,22.9,22.9,0,0,0,1.12-3.34c.14-.63.29-1.28.43-1.91.2-.83.3-1.67.43-2.52.38-3.62.67-7.24,1.08-10.86.32-2.94.68-5.87,1-8.82s.55-5.63.78-8.46c.27-3.29.58-6.57.91-9.86.27-2.77.62-5.53.93-8.28.15-1.34.3-2.67.42-4,.15-1.59.32-3.17.43-4.76.19-2.77.38-5.53.56-8.31.21-3.21.42-6.41.68-9.62.1-1.23.2-2.46.33-3.68.2-1.81.35-3.63.62-5.43.43-3,.88-6,1.4-8.93s1-5.83,1.53-8.74c1-5.54,1.79-11.11,2.54-16.68h0a.16.16,0,0,1,0-.07c.47-4.39.94-8.78,1.1-13.21.21-6.06.29-12.14.32-18.22,0-2.73,0-5.47-.06-8.19-.06-1.5-.12-3-.22-4.51s-.24-2.72-.38-4.07c-.73-4.69-1.69-9.35-2.83-14a64.17,64.17,0,0,0-2.06-7.08c-.83-2.21-1.7-4.4-2.58-6.59-.26-.58-.5-1.17-.79-1.72-.52-1-1.05-1.93-1.62-2.88a2.61,2.61,0,0,1-.3-1.93c2.6,1.43,5.23,2.84,7.86,4.23,0,0,0,0,0,0,.26.53.51,1.08.76,1.62a64.15,64.15,0,0,1,2.44,6.26c.24.74.51,1.49.72,2.23s.41,1.53.62,2.28c.36,1.31.61,2.67.88,4C410.66,568,411.26,570.85,411.74,573.73Z"/><path class="cls-1" d="M388.11,542a26.75,26.75,0,0,0-2.79-.83,1.82,1.82,0,0,1,.77-2l1.49-1c.29.07.56.17.83.27a9.79,9.79,0,0,1,2.69,1.29,4.46,4.46,0,0,1,1.82,2.12,3.78,3.78,0,0,1,.12.61l-2.16-1.2a2.56,2.56,0,0,1-.72-.58Z"/><path class="cls-2" d="M388.11,542l-.24.16a1.76,1.76,0,0,1-2.41-.63,1.23,1.23,0,0,1-.15-.36A26.75,26.75,0,0,1,388.11,542Z"/><path class="cls-2" d="M156.54,477c1.13.52,2.31,1,3.46,1.44.74.31,1.48.61,2.24.88q3,1.1,6,2.13c7,2.39,14,4.75,20.9,7.23s13.88,4.54,20.86,6.7c7.28,2.24,14.52,4.56,21.74,7s14.5,5,21.79,7.32c7,2.24,14,4.29,21.08,6.18q12.07,3.26,24.12,6.54l8.35,2.23,8,2.13c1.31.35,2.63.76,4,1.05,7.4,1.65,14.87,3,22.32,4.48s14.81,2.91,22.18,4.53c3.86.86,7.73,1.67,11.61,2.43,1.69.33,3.37.63,5.07.93s3.42.58,5.11,1a1.23,1.23,0,0,0,.15.36,1.76,1.76,0,0,0,2.41.63l.24-.16.25.09a7.88,7.88,0,0,1,1.18.68.1.1,0,0,1,0,0,14.92,14.92,0,0,1-1.92,1.71l-.11.09-.1.07c-2.69,2-5.36,4-8,6.08-2.93,2.24-5.87,4.45-8.82,6.67-6,4.46-11.87,9-17.61,13.79-3,2.53-6.05,5.08-9,7.73s-5.61,5.18-8.38,7.8c-2.6,2.47-5.21,4.9-7.86,7.32s-5.54,5-8.41,7.47c-5.1,4.32-10.24,8.59-15.45,12.79A57,57,0,0,1,293.61,621a13.88,13.88,0,0,1-2.36.68,2.68,2.68,0,0,1-.45,0,10.58,10.58,0,0,1-1.85-.56c-3.39-1.51-6.81-2.93-10.26-4.29s-7-2.58-10.47-3.88-6.81-2.59-10.28-3.66-7.18-2.13-10.81-3-7.35-1.74-11-2.62c-1.81-.43-3.6-.89-5.41-1.34s-3.36-.71-5-1c-2.1-.4-4.23-.63-6.35-.92-1.72-.22-3.47-.4-5.2-.58-3.8-.38-7.58-.77-11.36-1.19-2.65-.29-5.3-.63-7.94-1-1.74-.27-3.49-.53-5.21-.86-2-.37-3.89-.81-5.84-1.24-3.51-.81-7-1.75-10.52-2.59-7.26-1.75-14.6-3.15-21.88-4.79L144,586.51c-1.23-.29-2.46-.56-3.7-.82-3.5-.76-7-1.45-10.48-2.32-3.76-.94-7.52-1.93-11.27-2.86-3.45-.84-6.9-1.67-10.31-2.64-3.66-1.05-7.28-2.23-11-3.22-1.9-.51-3.78-1-5.69-1.46-1.74-.42-3.49-.79-5.21-1.23-2-.51-4-1-5.93-1.61-.88-.26-1.77-.55-2.65-.84l-2.64-.88c-3.39-1.13-6.82-2.06-10.27-3-3-.78-6.13-1.41-9.19-2.11A66,66,0,0,1,46.46,561l-.26-.12A18,18,0,0,1,47.5,559a20.42,20.42,0,0,1,1.56-1.72c.73-.71,1.49-1.38,2.26-2L55,551.9c2.84-2.49,5.75-4.89,8.68-7.28,5.67-4.61,11.45-9.09,17.2-13.59,5.93-4.65,11.78-9.41,17.57-14.23,2.9-2.41,5.78-4.85,8.66-7.27s5.57-4.56,8.33-6.85c3.5-2.89,6.91-5.87,10.33-8.82,3.15-2.73,6.42-5.33,9.72-7.89,4.33-3.27,8.79-6.36,13.34-9.34l2-1.31.89-.57C153.39,475.51,155,476.27,156.54,477Z"/><path class="cls-1" d="M219,605.85h-.15l-.58-.09Z"/><path class="cls-3" d="M163.87,467a3.9,3.9,0,0,0,.57.22,3.06,3.06,0,0,0,2.31-.31,74.94,74.94,0,0,0,7.66-5.12c2.58-1.77,5.18-3.5,7.81-5.2,5.12-3.3,10.13-6.8,15.09-10.33s9.91-7.53,14.93-11.19c2.46-1.79,5-3.5,7.47-5.26,2.65-1.9,5.31-3.83,7.95-5.75,5-3.63,10.1-7.18,15.14-10.75s10.11-7.3,15.14-11c5.25-3.82,10.58-7.52,15.91-11.24q7.61-5.32,15.34-10.43c5.26-3.47,10.58-6.85,15.89-10.26s10.52-7,15.68-10.6c5-3.52,9.95-7.11,15-10.59s10.32-7,15.64-10.34c10.89-6.75,22.06-13.06,33-19.77,5.31-3.25,10.55-6.59,15.8-9.93s10.83-6.75,16.25-10.1,10.53-6.87,15.8-10.31c3.62-2.36,7.33-4.59,11-6.86a4.1,4.1,0,0,0,.77.6,4.14,4.14,0,0,0,3,.38l1-.17a37.47,37.47,0,0,1,7.73-.31,41.12,41.12,0,0,1,4.68,1.36l2.94.91c1.76.52,3.52,1,5.3,1.51,3.66,1,7.3,2.13,11,3.06,7.59,1.92,15.14,4,22.75,5.84,3.4.84,6.8,1.72,10.19,2.54,1.87.46,3.75.87,5.63,1.28.73.16,1.46.29,2.21.41s1.66.33,2.51.45c2,.27,4.11.58,6.16.79s4.08.41,6.11.58c3.29.3,6.56.66,9.82,1.05,7.54,1.12,15.06,2.42,22.56,3.84,7.68,1.45,15.22,3.5,22.81,5.39S605.48,315,613,316.89l10.52,2.67c3.83.94,7.69,1.84,11.48,3s7.73,2.34,11.58,3.55c3.7,1.14,7.44,2.16,11.16,3.21,3.49,1,7,2,10.42,3.08,3.86,1.23,7.68,2.57,11.5,3.88l-5,2.85c-4,2.31-8,4.79-11.92,7.24s-8,5-11.93,7.63c-7.81,5.08-15.65,10.13-23.68,14.9-4.15,2.46-8.32,4.9-12.44,7.4s-8.38,5.18-12.56,7.79c-3.83,2.38-7.7,4.73-11.52,7.11-4.34,2.7-8.64,5.43-12.91,8.25-3.71,2.43-7.34,5-11,7.47-3.92,2.65-7.86,5.25-11.89,7.75-3.05,1.89-6.1,3.77-9.12,5.72q-2.46,1.58-4.87,3.2c-1.45,1-2.88,2-4.3,3-.78.56-1.54,1.17-2.29,1.75s-1.35,1-2,1.55q-2.25,1.82-4.49,3.66-4.07,3.33-8.22,6.55l-.21.16c-3.87,2.85-7.8,5.64-11.72,8.42-1.7,1.2-3.41,2.42-5,3.68-1.91,1.46-3.84,2.89-5.72,4.4-3.73,3-7.42,6.14-11.14,9.2q-5.9,4.87-11.94,9.57-6.42,5-12.71,10.16c-2.11,1.74-4.18,3.53-6.26,5.3s-4.18,3.46-6.29,5.17c-1.31,1-2.62,2-4,2.94q-2.64,1.8-5.3,3.58l-9.26,6.11c-3.17,2.11-6.23,4.39-9.23,6.72-1.46,1.13-2.89,2.32-4.32,3.5s-2.75,2.21-4.14,3.3l-2.91,2.13c-1,.73-2.08,1.39-3.13,2.08s-2.08,1.25-3.13,1.87-2,1.13-3,1.7c-2.22,1.25-4.34,2.65-6.49,4s-4,2.68-6,4c-1.29-.42-2.64-.71-4-1-3.56-.86-7.17-1.49-10.73-2.34-3.75-.91-7.48-1.85-11.21-2.8s-7.35-1.8-11-2.67c-7.18-1.69-14.4-3.26-21.58-4.94-3.27-.77-6.56-1.54-9.8-2.43L305,518q-9.93-2.73-19.82-5.62c-3.73-1.09-7.47-2.17-11.19-3.3-3.92-1.2-7.81-2.43-11.72-3.68-7.08-2.26-14.08-4.8-21.07-7.29s-13.85-4.94-20.85-7.18c-7.35-2.36-14.72-4.65-22.06-7-3.39-1.1-6.72-2.34-10.07-3.57s-6.93-2.48-10.42-3.7l-9.4-3.26c-1.55-.55-3.09-1.12-4.63-1.69-1.27-.46-2.51-1-3.76-1.51l-.57-.25c1.39-.89,2.78-1.79,4.15-2.7Z"/><path class="cls-1" d="M162.86,462.57a2.14,2.14,0,0,1-.41.78A3.13,3.13,0,0,1,162.86,462.57Z"/><path class="cls-1" d="M164.24,464.88a1.7,1.7,0,0,1-.37,2.12,2.94,2.94,0,0,1-1.22-1.15,2.91,2.91,0,0,1-.38-1.74,1.5,1.5,0,0,1,.47-.07A1.8,1.8,0,0,1,164.24,464.88Z"/><path class="cls-1" d="M163.87,467a1.7,1.7,0,0,0,.37-2.12,1.8,1.8,0,0,0-1.5-.84,1.5,1.5,0,0,0-.47.07,2.76,2.76,0,0,1,.17-.77,2.14,2.14,0,0,0,.41-.78,3,3,0,0,1,.88-.81c1.09-.68,2.21-1.33,3.3-2s2.07-1.38,3.1-2.08c2.49-1.71,5-3.35,7.61-5s5-3.06,7.45-4.69,5.17-3.41,7.71-5.18,4.94-3.51,7.35-5.36,4.95-3.84,7.48-5.69,5-3.56,7.49-5.35c5.27-3.78,10.5-7.63,15.8-11.36,2.53-1.77,5.1-3.51,7.65-5.26s5.18-3.63,7.76-5.47,5.12-3.68,7.68-5.54,5.23-3.72,7.86-5.57l15.42-10.81c2.36-1.65,4.69-3.31,7.06-4.94,2.78-1.9,5.56-3.77,8.32-5.67,5.16-3.52,10.37-7,15.5-10.58,2.49-1.74,5-3.49,7.43-5.27s5-3.72,7.58-5.57c5.16-3.71,10.34-7.39,15.66-10.85s10.89-6.67,16.47-9.77c2.68-1.5,5.37-3,8-4.45s5.53-3.13,8.31-4.7c5.58-3.17,11.09-6.46,16.57-9.82,5.15-3.15,10.19-6.46,15.34-9.62,5.48-3.37,11-6.65,16.43-10.12,2.65-1.7,5.27-3.45,8-5.08s5.52-3.34,8.31-4.94q3-1.73,6.05-3.39a3.82,3.82,0,0,0,.78,4.29c-3.67,2.27-7.38,4.5-11,6.86-5.27,3.44-10.46,7-15.8,10.31s-10.86,6.67-16.25,10.1-10.49,6.68-15.8,9.93c-10.94,6.71-22.11,13-33,19.77-5.32,3.3-10.5,6.78-15.64,10.34s-10,7.07-15,10.59q-7.74,5.47-15.68,10.6c-5.31,3.41-10.63,6.78-15.89,10.26s-10.27,6.88-15.34,10.43c-5.33,3.72-10.67,7.42-15.91,11.24-5,3.67-10,7.38-15.14,11s-10.12,7.12-15.14,10.75c-2.64,1.92-5.3,3.86-7.95,5.75-2.48,1.76-5,3.47-7.47,5.26-5,3.66-9.87,7.58-14.93,11.19s-10,7-15.09,10.33c-2.63,1.7-5.23,3.42-7.81,5.2a74.94,74.94,0,0,1-7.66,5.12,3.06,3.06,0,0,1-2.31.31A3.9,3.9,0,0,1,163.87,467Z"/><path class="cls-1" d="M163.64,467.19c-1.38.92-2.77,1.81-4.15,2.7l.57.25c1.25.52,2.49,1.05,3.76,1.51,1.54.57,3.08,1.14,4.63,1.69l9.4,3.26c3.49,1.22,7,2.42,10.42,3.7s6.68,2.47,10.07,3.57c7.34,2.38,14.71,4.68,22.06,7,7,2.24,13.92,4.71,20.85,7.18s14,5,21.07,7.29c3.91,1.25,7.8,2.48,11.72,3.68,3.72,1.13,7.45,2.21,11.19,3.3q9.88,2.9,19.82,5.62l14.21,3.94c3.24.89,6.52,1.66,9.8,2.43,7.18,1.67,14.4,3.25,21.58,4.94,3.68.87,7.38,1.72,11,2.67s7.47,1.9,11.21,2.8c3.56.86,7.17,1.49,10.73,2.34,1.33.32,2.68.61,4,1l-1.49,1a1.82,1.82,0,0,0-.77,2c-1.69-.4-3.41-.67-5.11-1s-3.39-.6-5.07-.93c-3.88-.76-7.75-1.58-11.61-2.43-7.37-1.61-14.77-3.1-22.18-4.53s-14.92-2.83-22.32-4.48c-1.33-.3-2.64-.71-4-1.05l-8-2.13-8.35-2.23q-12.06-3.29-24.12-6.54c-7.07-1.89-14.11-3.93-21.08-6.18-7.29-2.34-14.52-4.86-21.79-7.32s-14.46-4.77-21.74-7c-7-2.16-14-4.22-20.86-6.7s-13.93-4.84-20.9-7.23q-3-1-6-2.13c-.77-.27-1.5-.57-2.24-.88-1.15-.48-2.33-.92-3.46-1.44-1.58-.74-3.15-1.5-4.71-2.26l-.89.57-1.89-2.93a21.94,21.94,0,0,0,7-4.37c2-1.23,3.91-2.47,5.84-3.75a1.3,1.3,0,0,1,.35-.17,2.91,2.91,0,0,0,.38,1.74,2.94,2.94,0,0,0,1.22,1.15Z"/><path class="cls-1" d="M336.55,243a1.08,1.08,0,0,0-.27.41c-1,.32-1.95.67-2.93,1s-2.06.83-3.08,1.27c-2.47,1.19-4.92,2.38-7.29,3.75s-4.69,2.8-6.93,4.35c-4.66,3.2-9.3,6.4-14,9.49-2.69,1.76-5.41,3.5-8.12,5.23s-5.67,3.49-8.4,5.37c-5.35,3.7-10.52,7.64-15.94,11.25s-11.14,7-16.54,10.77c-5.59,3.87-11.11,7.86-16.73,11.7-5.3,3.61-10.72,7-16.14,10.47-2.85,1.81-5.67,3.67-8.41,5.64s-5.41,4-8.09,6c-5.25,3.93-10.64,7.65-16,11.36-2.64,1.81-5.26,3.7-7.86,5.57s-5.15,3.71-7.68,5.62-4.85,3.94-7.29,5.9c-2.6,2.1-5.28,4.09-8,6.09-5.42,4-11.14,7.65-16.87,11.22-5.46,3.4-10.91,6.78-16.2,10.42-5.66,3.89-11.25,7.86-16.84,11.82Q99.08,403.21,91.52,409l-.1.07q-4.37,3.4-8.52,7.07c-2.36,2.07-4.63,4.23-7,6.26s-4.87,4.25-7.39,6.28-5,4-7.53,6c-1.23,1-2.46,2-3.67,3L55.71,439l.3.09c1,.26,2,.53,3.06.77q3.22.73,6.47,1.2c3.22.41,6.44.83,9.64,1.5,2.85.6,5.67,1.45,8.5,2.2,6.39,1.66,12.77,3.3,19.27,4.48,3.27.6,6.57,1.09,9.86,1.58,3,.45,5.92,1.05,8.88,1.56,3.25.56,6.51,1.07,9.77,1.6s6.36,1.18,9.56,1.64,6.46.84,9.66,1.49c3.56.71,7,1.64,10.53,2.57a2.39,2.39,0,0,1,1.65,2.9s0,0,0,0a3.13,3.13,0,0,0-.41.78,2.53,2.53,0,0,1-2.48.83c-4.92-.94-9.86-1.81-14.81-2.64-3.13-.52-6.26-.94-9.38-1.55s-6.47-1.19-9.72-1.72-6.3-1.09-9.43-1.69-6.23-1-9.35-1.46c-6.46-1-12.84-2.28-19.2-3.77-3.14-.73-6.28-1.5-9.41-2.28-1.58-.4-3.16-.81-4.75-1.12s-3.06-.55-4.61-.78l-1.85-.22a97.31,97.31,0,0,1-10-1.55c-1.51-.33-3-.66-4.51-1.08a7.71,7.71,0,0,1-3.45-1.74,4,4,0,0,1-1.09-2.67,4.94,4.94,0,0,1,.89-2.68,22.81,22.81,0,0,1,3.76-3.82c1.18-1.05,2.34-2.11,3.53-3.15q3.59-3.16,7.19-6.29t7.45-6.21c2.44-2,4.77-4.08,7.13-6.14s4.94-4.27,7.49-6.3,5.33-4.2,8-6.29,5.59-4.25,8.38-6.37c2.49-1.87,4.95-3.77,7.44-5.63,5.47-4.06,11-8.1,16.64-11.83,5.52-3.62,11.19-7,16.69-10.62,3-2,6-4,8.87-6.08,2.42-1.72,4.77-3.53,7.13-5.35,3.56-2.83,7.06-5.78,10.74-8.46,5.33-3.87,10.69-7.68,16.15-11.35,2.84-1.91,5.66-3.83,8.46-5.79,2.59-1.81,5.12-3.73,7.65-5.62s5.22-3.93,7.91-5.78,5.61-3.72,8.46-5.52c5.69-3.56,11.3-7.26,16.85-11s10.67-7.55,16.12-11.17,11-6.8,16.27-10.46c2.89-2,5.74-4,8.59-6.06,2.55-1.84,5.15-3.66,7.85-5.28,5.61-3.36,11.25-6.68,16.78-10.16s11.2-7.39,17-10.77c2.85-1.67,5.85-3.08,8.84-4.48,2.18-1,4.44-1.89,6.71-2.69a6.21,6.21,0,0,1,4.82,4.14l-.2-.06a1.59,1.59,0,0,0-1.5.4Z"/><path class="cls-1" d="M142.92,590.88l1.85.46c0,1.23-.09,2.44-.12,3.67s.09,2.7.14,4,.24,2.75.36,4.12c.1,1.08.26,2.17.4,3.25.62,4,1.31,8,1.76,12,.24,2.12.45,4.25.6,6.39.07,1,.1,2.07.12,3.11s0,1.85,0,2.78-.11,1.58-.17,2.37c0,.63-.12,1.27-.2,1.9-.15,1.4-.31,2.79-.47,4.18-.36,2.93-.77,5.84-1.25,8.76s-.94,5.58-1.43,8.37c-.45,2.57-1.09,5.1-1.48,7.66a26.24,26.24,0,0,0-.2,5.12,9.51,9.51,0,0,0,.41,1.55l.19.31a4,4,0,0,0,.4.4,9.65,9.65,0,0,0,.92.52,26.73,26.73,0,0,0,5.82,1.33c3,.31,6,.51,8.92.82s6,.77,9,1.35c5.85,1.12,11.63,2.6,17.43,4,2.73.63,5.43,1.3,8.12,2.08s5.67,1.66,8.51,2.46c2.68.77,5.39,1.35,8.1,2,2.94.72,5.85,1.49,8.72,2.46s5.75,2.07,8.59,3.19,5.44,2,8.19,3c5.49,2,11,3.89,16.54,5.71,2.62.87,5.27,1.62,7.9,2.47,2.9.93,5.79,1.9,8.67,2.93s5.49,2,8.26,2.91,5.52,1.84,8.3,2.72c2.94.92,5.85,1.87,8.77,2.85s5.59,2,8.38,3q8.11,2.94,16.17,6.11c3,1.17,5.87,2.46,8.78,3.71l7.52,3.24c4.29,1.81,8.57,3.65,12.8,5.62,4,1.85,7.91,3.82,11.91,5.63,2.34,1,4.69,1.84,7.08,2.62,2.65.87,5.31,1.7,8,2.58a71.4,71.4,0,0,1,7.95,3.13c2.33,1.08,4.56,2.37,6.91,3.41h0l1,1.86a2.56,2.56,0,0,0-.83,1,1.63,1.63,0,0,0-.15,1.13,1.55,1.55,0,0,0,1,1,3,3,0,0,0,1.19.1c-.2.1-.41.2-.63.29a4.63,4.63,0,0,1-2.93,0,30.52,30.52,0,0,1-2.9-1.13c-2.51-1.08-4.95-2.31-7.44-3.41-4-1.61-8.17-2.89-12.28-4.27-2-.68-4.06-1.38-6-2.2-1.33-.56-2.67-1.12-4-1.72-1.08-.5-2.15-1-3.21-1.54-2.46-1.19-4.89-2.41-7.34-3.56-2.8-1.31-5.62-2.59-8.47-3.82q-7.65-3.31-15.32-6.57c-4.45-1.86-8.94-3.66-13.48-5.33-4.7-1.72-9.39-3.52-14.14-5.13-2.72-.92-5.44-1.84-8.19-2.7s-5.61-1.75-8.38-2.7c-5.74-2-11.41-4.15-17.18-6-2.88-1-5.78-1.87-8.67-2.79s-5.54-1.89-8.31-2.88q-8.24-2.94-16.38-6.13c-2.51-1-5-2.07-7.5-3-1.39-.48-2.75-1-4.15-1.41s-2.9-.86-4.37-1.24c-3-.79-6-1.56-9.05-2.37-2.63-.72-5.22-1.56-7.83-2.34-1.48-.45-3-.89-4.44-1.3s-3-.78-4.43-1.15c-2.7-.68-5.41-1.34-8.1-2-2.86-.72-5.74-1.49-8.64-2.1-1.43-.3-2.86-.6-4.3-.86s-2.58-.43-3.88-.62c-2.94-.35-5.88-.6-8.82-1a39.83,39.83,0,0,1-6.4-1.18c-1.84-.53-3.88-1.35-5-3a8.71,8.71,0,0,1-1.25-4.22,32.36,32.36,0,0,1,.16-4.09,40.11,40.11,0,0,1,.6-4.22c.29-1.4.57-2.79.84-4.19s.46-2.74.71-4.12c.47-2.7,1-5.41,1.44-8.14.48-2.89.91-5.8,1.31-8.71.24-1.72.48-3.45.57-5.18,0-1,.1-2,.1-3s0-2.15-.09-3.22c-.16-3.76-.58-7.5-1.05-11.24,0-.07,0-.14,0-.21s0-.11,0-.16c-.52-3.67-1-7.34-1.31-11-.15-1.95-.21-3.91-.29-5.87,0-.84,0-1.7.07-2.54l.07-2.32Z"/><path class="cls-1" d="M219.32,600.4c2.12.29,4.25.52,6.35.92,1.69.31,3.39.61,5,1s3.6.91,5.41,1.34c3.66.88,7.34,1.71,11,2.62s7.23,1.91,10.81,3,6.87,2.38,10.28,3.66,7,2.54,10.47,3.88,6.87,2.78,10.26,4.29a10.58,10.58,0,0,0,1.85.56,2.68,2.68,0,0,0,.45,0,13.88,13.88,0,0,0,2.36-.68,57,57,0,0,0,10.29-6.65c5.21-4.19,10.36-8.47,15.45-12.79,2.86-2.42,5.63-4.95,8.41-7.47s5.26-4.85,7.86-7.32c2.78-2.62,5.53-5.25,8.38-7.8s6-5.2,9-7.73c5.74-4.76,11.65-9.33,17.61-13.79,3-2.22,5.89-4.43,8.82-6.67,2.65-2,5.32-4.09,8-6.08l.1-.07.11-.09a14.92,14.92,0,0,0,1.92-1.71.1.1,0,0,0,0,0,7.88,7.88,0,0,0-1.18-.68l-.25-.09,2.06-1.4a2.56,2.56,0,0,0,.72.58l2.16,1.2a3.16,3.16,0,0,1-.47,2.11,7.61,7.61,0,0,1-1.86,1.92l-1.82,1.41-.35.26a3,3,0,0,0,.25-.17c-3.8,2.94-7.5,6-11.29,8.93s-7.58,5.87-11.32,8.87q-4.3,3.42-8.5,7c-2.86,2.41-5.75,4.81-8.52,7.34s-5.3,4.89-7.9,7.38c-2.84,2.73-5.67,5.47-8.56,8.14s-5.88,5.39-8.86,8c-2.82,2.51-5.69,4.92-8.56,7.34s-5.49,4.59-8.26,6.86c-.94.77-1.93,1.49-2.9,2.23A50,50,0,0,1,300,623a35,35,0,0,1-3.65,2,14.88,14.88,0,0,1-3.41,1.27,9.42,9.42,0,0,1-1.95.26,10.78,10.78,0,0,1-1.55-.17,14.88,14.88,0,0,1-2.63-.88q-6.21-2.59-12.54-4.86c-2.22-.79-4.45-1.55-6.67-2.36-2.06-.74-4.12-1.54-6.2-2.24-3.67-1.24-7.37-2.33-11.1-3.35-3.45-.93-6.92-1.7-10.39-2.48-1.79-.41-3.57-.82-5.35-1.25s-3.67-1-5.52-1.34c-1.67-.36-3.35-.72-5-1s-3.39-.52-5.08-.76l-.73-.1.58.09c-7-.84-14.05-1.5-21-2.49-1.93-.27-3.87-.53-5.8-.86s-4-.72-5.94-1.12c-1.69-.33-3.36-.79-5-1.23-1.82-.47-3.63-1-5.46-1.43-7.23-1.85-14.51-3.47-21.78-5.18-3-.69-6-1.45-9-2.2,0-.69,0-1.38.07-2.07a1.43,1.43,0,0,0-1.15-1.39l.3-1.36,7.39,1.66c7.28,1.64,14.62,3,21.88,4.79,3.51.84,7,1.79,10.52,2.59,1.95.43,3.88.87,5.84,1.24,1.72.32,3.47.58,5.21.86,2.64.35,5.28.69,7.94,1,3.78.42,7.57.81,11.36,1.19C215.85,600,217.6,600.18,219.32,600.4Z"/><path class="cls-1" d="M142,589.27a1.44,1.44,0,0,1,1.41-1.41l.27,0a1.43,1.43,0,0,1,1.15,1.39c0,.69-.06,1.38-.07,2.07l-1.85-.46-1-.24C142,590.18,142,589.73,142,589.27Z"/><path class="cls-1" d="M91.58,573.18c1.91.45,3.8,1,5.69,1.46,3.68,1,7.3,2.17,11,3.22,3.41,1,6.86,1.8,10.31,2.64,3.76.93,7.52,1.92,11.27,2.86,3.47.87,7,1.56,10.48,2.32,1.24.26,2.47.53,3.7.82l-.3,1.36-.27,0a1.44,1.44,0,0,0-1.41,1.41c0,.46,0,.92,0,1.38-3.13-.74-6.28-1.43-9.4-2.21-3.8-.94-7.57-2-11.35-3-3.52-.94-7.06-1.81-10.58-2.78s-7.09-2.08-10.64-3.15c-3.71-1.12-7.42-2.18-11.17-3.08-3.57-.86-7.14-1.72-10.63-2.86L76.63,573l1.15-3.53c.88.3,1.77.58,2.65.84,2,.58,3.94,1.1,5.93,1.61C88.09,572.39,89.84,572.76,91.58,573.18Z"/><path class="cls-1" d="M75.15,568.62l2.64.88L76.63,573c-3-1-6.08-2-9.17-2.82-3.61-1-7.24-1.8-10.89-2.6A91.1,91.1,0,0,1,46,564.88a11.5,11.5,0,0,1-2.33-1,3.14,3.14,0,0,1-1.09-1.08,3,3,0,0,1-.47-1.4,5,5,0,0,1,.3-1.54,4.86,4.86,0,0,1,.51-1.05q.3-.5.63-1a22.22,22.22,0,0,1,3.56-4.07c2.64-2.36,5.3-4.71,8-7q8.48-7.09,17.21-13.93c2.91-2.31,5.88-4.59,8.79-6.93s5.79-4.73,8.68-7.11c5.89-4.84,11.66-9.81,17.51-14.71,2.77-2.32,5.58-4.59,8.33-6.92s5.75-5,8.69-7.44,5.88-4.68,8.89-6.92c2.83-2.1,5.78-4,8.72-5.94,2-1.33,4.09-2.6,6.15-3.87a1,1,0,0,1-.16-.09c.36-.15.73-.3,1.09-.46l1.89,2.93-2,1.31c-4.55,3-9,6.06-13.34,9.34-3.3,2.55-6.57,5.16-9.72,7.89-3.42,3-6.83,5.93-10.33,8.82-2.77,2.28-5.57,4.54-8.33,6.85s-5.75,4.86-8.66,7.27c-5.79,4.81-11.65,9.57-17.57,14.23-5.75,4.5-11.53,9-17.2,13.59C60.8,547,57.88,549.41,55,551.9l-3.72,3.29c-.77.67-1.53,1.34-2.26,2A20.42,20.42,0,0,0,47.5,559a18,18,0,0,0-1.3,1.92l.26.12a66,66,0,0,0,9.23,2.54c3.06.69,6.15,1.33,9.19,2.11C68.32,566.56,71.76,567.49,75.15,568.62Z"/><path class="cls-2" d="M336.15,244.51c.19,1.13,1.49,1.44,2.43,1.65a16.73,16.73,0,0,0,1.79.26l.61.07,1.1.48a1.22,1.22,0,0,0,1.49-.26h.12c1,.07,2,.11,3,.19s2.06.19,3.1.31l2,.33c.81.12,1.6.35,2.39.52,1.64.36,3.25.84,4.86,1.29,1.4.4,2.78.84,4.18,1.29s2.85.88,4.25,1.39c3.08,1.09,6.08,2.32,9.1,3.52,2.78,1.1,5.64,2,8.52,2.82s5.88,1.67,8.84,2.43q4.76,1.19,9.56,2.2c6,1.24,12,2.51,18,3.55,5.32.91,10.7,1.34,16.09,1.79,2.57.21,5.12.36,7.7.48,2.37.12,4.77.15,7.13.43a9.48,9.48,0,0,1,1.67.43.39.39,0,0,1,.12.06l-.07.12a14.32,14.32,0,0,1-1.77,1.7,50.34,50.34,0,0,1-5.38,3.47c-.71.11-1.4.26-2.11.42a3.66,3.66,0,0,0-2.48,2.15q-3,1.66-6.05,3.39-4.19,2.4-8.31,4.94c-2.69,1.64-5.31,3.39-8,5.08-5.41,3.47-11,6.75-16.43,10.12-5.15,3.16-10.19,6.47-15.34,9.62-5.48,3.36-11,6.65-16.57,9.82-2.78,1.58-5.53,3.15-8.31,4.7s-5.36,3-8,4.45c-5.58,3.1-11.12,6.29-16.47,9.77s-10.5,7.14-15.66,10.85c-2.54,1.85-5,3.72-7.58,5.57s-4.94,3.53-7.43,5.27c-5.13,3.58-10.34,7.06-15.5,10.58-2.77,1.9-5.54,3.77-8.32,5.67-2.37,1.62-4.7,3.29-7.06,4.94L262,393.21c-2.63,1.85-5.27,3.68-7.86,5.57s-5.11,3.72-7.68,5.54-5.16,3.68-7.76,5.47-5.12,3.49-7.65,5.26c-5.3,3.73-10.53,7.58-15.8,11.36-2.51,1.79-5,3.53-7.49,5.35s-5,3.8-7.48,5.69-4.86,3.62-7.35,5.36-5.13,3.47-7.71,5.18-5,3.14-7.45,4.69-5.12,3.25-7.61,5c-1,.71-2,1.41-3.1,2.08s-2.21,1.35-3.3,2a3,3,0,0,0-.88.81s0,0,0,0a2.39,2.39,0,0,0-1.65-2.9c-3.5-.93-7-1.86-10.53-2.57-3.2-.64-6.44-1-9.66-1.49s-6.37-1.12-9.56-1.64-6.52-1-9.77-1.6c-3-.51-5.9-1.12-8.88-1.56-3.29-.48-6.59-1-9.86-1.58-6.5-1.18-12.89-2.82-19.27-4.48-2.83-.74-5.64-1.6-8.5-2.2-3.2-.67-6.41-1.09-9.64-1.5q-3.26-.48-6.47-1.2c-1-.24-2-.51-3.06-.77l-.3-.09,1.59-1.31c1.22-1,2.44-2,3.67-3,2.51-2,5-4,7.53-6s4.94-4.18,7.39-6.28,4.65-4.19,7-6.26q4.15-3.66,8.52-7.07l.1-.07q7.57-5.8,15.38-11.31c5.59-4,11.19-7.93,16.84-11.82,5.28-3.63,10.74-7,16.2-10.42,5.73-3.57,11.45-7.18,16.87-11.22,2.68-2,5.36-4,8-6.09,2.44-2,4.85-3.94,7.29-5.9s5.1-3.77,7.68-5.62,5.22-3.76,7.86-5.57c5.41-3.71,10.8-7.43,16-11.36,2.68-2,5.37-4,8.09-6s5.56-3.83,8.41-5.64c5.42-3.44,10.84-6.86,16.14-10.47,5.62-3.83,11.14-7.83,16.73-11.7,5.41-3.76,11.06-7.13,16.54-10.77s10.59-7.55,15.94-11.25c2.73-1.89,5.61-3.58,8.4-5.37s5.43-3.47,8.12-5.23c4.74-3.09,9.38-6.29,14-9.49,2.24-1.55,4.56-3,6.93-4.35s4.82-2.55,7.29-3.75c1-.43,2-.89,3.08-1.27s1.95-.68,2.93-1A1.7,1.7,0,0,0,336.15,244.51Z"/></g><path class="cls-1" d="M338.38,242.69h-.13l0,.06Z"/><path class="cls-1" d="M337.64,242.56a1.54,1.54,0,0,0-1.09.45,1.08,1.08,0,0,0-.27.41l2-.69,0-.06-.2-.06A1.54,1.54,0,0,0,337.64,242.56Z"/></g><path class="cls-4" d="M401.16,251.92c-.17,2-.34,4-.49,6.05-.27,3.12-.51,6.22-.78,9.34l-.43,12.3c-.12,3.45-.07,6.91-.06,10.36,0,6.17.21,12.33.54,18.5.28,5.48.65,11,1.2,16.44-1.65.52-3.3,1-4.93,1.6a2.67,2.67,0,0,0-.75.41c-.73-5.8-1.13-11.66-1.46-17.5s-.55-12-.59-18c0-2.21,0-4.41,0-6.62,0-.86,0-1.71,0-2.58q.21-5.83.39-11.67c0-1.33.05-2.68.17-4l.24-3.12q.52-6.36,1-12.7c.18-2.14.49-4.25.78-6.39.55-4,1.1-8.08,1.65-12.12.32-2.34.85-4.63,1.3-6.94q1.05-5.4,2.12-10.8c.14-.73.33-1.46.51-2.18.49-2,1-4.07,1.46-6.09l1.51-6.33c.22-.88.4-1.77.65-2.64q1.29-4.84,2.61-9.66l1.62-6c.2-.73.37-1.47.6-2.18q1.67-5.23,3.31-10.43c.79-2.5,1.5-5,2.48-7.45q2.16-5.44,4.35-10.86c.31-.77.68-1.49,1-2.22l2.89-6c.61-1.25,1.21-2.5,1.83-3.75s1.31-2.42,2-3.63c1.49-2.71,3-5.44,4.51-8.12,1.68-2.92,3.37-5.83,5.13-8.72.8-1.32,1.59-2.64,2.44-3.94,1.16-1.77,2.35-3.53,3.51-5.29l.38-.61.2-.32a40,40,0,0,0-5.27-2.41c-1.58-.61-3.18-1.18-4.79-1.74s-3.17-1-4.77-1.3l-4-.82c-.58-.12-1.16-.26-1.74-.35l-7.08-1.08c-3.25-.5-6.53-.79-9.8-1h-.18c-7.21-.4-14.44-.14-21.66.06,1-1.78,2-3.55,3.05-5.33,3.27-.09,6.54-.17,9.81-.18,4.37,0,8.75.16,13.11.54,2.39.21,4.74.47,7.11.83l6.14.92c1.28.19,2.54.5,3.82.76s2.8.58,4.18,1c1.7.48,3.36,1,5,1.53s3.1,1.11,4.64,1.73c.7.28,1.42.59,2.1.92.85.41,1.72.79,2.55,1.22a7.47,7.47,0,0,1,2.87,2.08,4,4,0,0,1,.72,1.74,4.18,4.18,0,0,1,0,1.42,16.09,16.09,0,0,1-2.67,5.14l-.06.1c-.08.11-.16.23-.23.33-.85,1.34-1.73,2.67-2.54,4q-1.46,2.45-2.91,4.9c-1.7,2.86-3.31,5.77-5,8.66s-3.17,5.87-4.77,8.8q-.58,1.09-1.11,2.21c-.94,2-1.87,3.9-2.82,5.84l-2,4.19c-.45.92-.77,1.92-1.15,2.86-1.27,3.21-2.55,6.41-3.83,9.63q-2.36,7.46-4.7,14.92c-.48,1.54-.86,3.11-1.29,4.66-.93,3.41-1.84,6.82-2.77,10.22-1.64,6.08-3,12.21-4.5,18.35-.5,2.07-.91,4.16-1.32,6.27q-1.17,6-2.33,11.94c-.46,2.32-.7,4.68-1,7-.53,3.72-1,7.46-1.56,11.19C401.26,250.58,401.22,251.25,401.16,251.92Z"/><path class="cls-4" d="M380.68,94.59c1.13-2,2.28-3.92,3.41-5.89a3.16,3.16,0,0,1,1.71-1.55,3,3,0,0,1,3.74,4.15c-.55,1-1.12,1.93-1.67,2.89l-3.56.1a2.24,2.24,0,0,0-.69.14,2.59,2.59,0,0,0-1.3,1.05Z"/><path class="cls-4" d="M384.69,99.53a2.66,2.66,0,0,1-2.8-2.43,2.57,2.57,0,0,1,.44-1.62,2.59,2.59,0,0,1,1.3-1.05,2.24,2.24,0,0,1,.69-.14l3.56-.1c-1,1.77-2.06,3.54-3.05,5.33Z"/><path class="cls-4" d="M382.33,95.48a2.57,2.57,0,0,0-.44,1.62,2.66,2.66,0,0,0,2.8,2.43h.13c-.49.87-1,1.75-1.43,2.62-1.87,3.58-3.77,7.13-5.6,10.74s-3.58,7.21-5.17,10.91c-1.51,3.53-2.85,7.13-4.06,10.77-2.11,6.43-3.88,12.95-5.51,19.52s-3.16,12.94-4.54,19.47c-1.43,6.73-2.68,13.49-3.63,20.3-.89,6.43-1.5,12.89-1.9,19.36q-.95,16.2-.34,32.4c.17,4.31.54,8.6.87,12.9q.45,5.51.87,11c.07.79.2,1.57.3,2.35.3,2.22.61,4.44.91,6.66.36,2.74.66,5.5,1.17,8.23L358.7,297c.53,2.32,1.08,4.64,1.61,7,.47,2,1,4.08,1.54,6.12q1.71,6.74,3.6,13.41a3.21,3.21,0,0,1,.1,1.33,3.55,3.55,0,0,0-1.78-.46c-1.33-.05-2.67-.12-4-.13-1.79-5.52-3.25-11.15-4.75-16.77-.76-2.94-1.4-5.91-2.1-8.86-.37-1.57-.62-3.16-.92-4.73l-1.24-6.52c-.51-2.7-.81-5.42-1.19-8.13l-.92-6.74c-.11-.83-.27-1.67-.33-2.5q-.81-10.27-1.62-20.55c-.08-1.13-.1-2.28-.14-3.42s-.07-2.29-.1-3.42c-.06-2.29-.12-4.58-.13-6.86,0-4.75,0-9.5.22-14.24a281.09,281.09,0,0,1,2.31-28.27c1.29-9.2,3.07-18.33,5.16-27.38s4.21-18,6.86-26.83c1.34-4.47,2.78-8.91,4.45-13.28s3.53-8.44,5.55-12.54,4.18-8.17,6.33-12.22c1.13-2.16,2.28-4.3,3.49-6.42Z"/><path class="cls-4" d="M360.13,325.42a2.85,2.85,0,0,0,3.61,1.74,2.73,2.73,0,0,0,1.82-2.29,2.07,2.07,0,0,1,.31.23,2.92,2.92,0,0,1,.35,4.11,2.83,2.83,0,0,1-2,1c-1.61-.08-3.23-.17-4.84-.15s-3.12.14-4.67.28-2.83.29-4.23.46q-3.58.43-7.14.9c-2.1.28-4.19.56-6.28.88-1.85.28-3.71.53-5.54.82a20.62,20.62,0,0,0,2.44,3.28,81.09,81.09,0,0,0,11.78,9.73c2.05,1.46,4.09,2.95,6.17,4.37q7,4.85,14,9.73c1.14.8,2.23,1.65,3.34,2.48s2.51,1.81,3.73,2.77c2.24,1.75,4.48,3.49,6.71,5.26q4,3.2,8.06,6.35c2.41,1.87,4.87,3.74,7.41,5.45l.22.13c.21-.73.41-1.47.63-2.2.29-.9.57-1.82.86-2.71.38-1.27.8-2.51,1.26-3.74.58-1.63,1.18-3.25,1.78-4.88.37-1,.87-2,1.3-3.06.67-1.54,1.33-3.08,2-4.61.41-.95.93-1.87,1.38-2.79.81-1.64,1.64-3.28,2.45-4.92.39-.77.84-1.51,1.27-2.25,1-1.77,2-3.52,3-5.28.67-1.16,1.45-2.25,2.19-3.37,1-1.42,1.91-2.86,2.87-4.28.31-.46.67-.89,1-1.33l1.91-2.52c1.68-2.21,3.42-4.38,5.22-6.5,1.07-1.25,2.14-2.49,3.22-3.73.6-.69,1.23-1.37,1.84-2-1.58.14-3.14.41-4.69.68l-3.11.69c-.9.2-1.83.37-2.73.61-2.25.62-4.51,1.21-6.72,1.89-4.26,1.31-8.53,2.62-12.76,4.09v0a2.9,2.9,0,0,0,2-3c-.11-.95-.21-1.91-.3-2.87,5.11-1.59,10.26-3,15.42-4.38,1.27-.33,2.54-.59,3.82-.86,2.34-.5,4.67-1,7.05-1.33a33.13,33.13,0,0,1,3.36-.29,9.32,9.32,0,0,1,2.65.27,3.31,3.31,0,0,1,2.4,1.91,3.78,3.78,0,0,1-.36,2.92,10.28,10.28,0,0,1-1.06,1.54l-.81,1-.63.82-1.17,1.52q-2.85,3.73-5.68,7.48c-1.79,2.38-3.52,4.81-5.26,7.22-1.28,2-2.58,4-3.88,6l0,0a.22.22,0,0,0,0,.07c-.18.3-.34.61-.51.92-.44.79-.89,1.59-1.34,2.38-.76,1.35-1.52,2.71-2.27,4.07-.55,1-1,2-1.48,3L409,364c-.43.86-.78,1.78-1.16,2.66q-1.06,2.48-2.09,5c-.43,1-.77,2-1.12,3-.46,1.26-.92,2.51-1.37,3.76l-1.41,4.39c-.3,1-.56,2-1,2.93a11,11,0,0,1-1,1.82,4.33,4.33,0,0,1-1.1,1.19,4.7,4.7,0,0,1-1,.59l-1.19.25a10.19,10.19,0,0,1-1.63-.16,7.79,7.79,0,0,1-2.62-1.3c-2.51-1.6-4.89-3.42-7.29-5.19-1.63-1.21-3.24-2.44-4.84-3.71-1.78-1.38-3.54-2.79-5.33-4.17-2-1.52-3.91-3.09-5.9-4.57-2.38-1.74-4.72-3.56-7.14-5.24s-5-3.51-7.52-5.24-5.19-3.48-7.74-5.29c-2.88-2-5.81-4-8.61-6.18a57.52,57.52,0,0,1-9.89-9,18.73,18.73,0,0,1-1.9-2.68,13.41,13.41,0,0,1-1.29-2.88,9.29,9.29,0,0,1-.3-1.66,4.3,4.3,0,0,1,.36-2,6.2,6.2,0,0,1,.93-1.33,5.3,5.3,0,0,1,1.78-1.21l.34-.12a19.1,19.1,0,0,1,3.8-.72c.72-.1,1.45-.14,2.17-.22l4.07-.43,8.64-.95,5.42-.6c1.93-.21,3.86-.38,5.81-.43.61,0,1.23,0,1.85,0C359.87,324.65,360,325,360.13,325.42Z"/><path class="cls-5" d="M443.85,108.5l-.38.61c-1.16,1.77-2.35,3.53-3.51,5.29-.84,1.3-1.64,2.62-2.44,3.94-1.76,2.88-3.45,5.8-5.13,8.72-1.55,2.68-3,5.41-4.51,8.12-.66,1.21-1.38,2.39-2,3.63s-1.22,2.5-1.83,3.75l-2.89,6c-.36.73-.74,1.46-1,2.22q-2.19,5.43-4.35,10.86c-1,2.43-1.7,5-2.48,7.45q-1.65,5.2-3.31,10.43c-.22.71-.39,1.45-.6,2.18l-1.62,6q-1.31,4.82-2.61,9.66c-.25.86-.43,1.76-.65,2.64L403,206.24c-.49,2-1,4.07-1.46,6.09-.18.72-.37,1.45-.51,2.18q-1.06,5.38-2.12,10.8c-.45,2.31-1,4.61-1.3,6.94-.55,4-1.1,8.08-1.65,12.12-.3,2.14-.6,4.25-.78,6.39q-.5,6.35-1,12.7l-.24,3.12c-.11,1.32-.13,2.66-.17,4q-.18,5.85-.39,11.67c0,.86,0,1.72,0,2.58,0,2.2,0,4.41,0,6.62,0,6,.27,12,.59,18s.73,11.7,1.46,17.5a2.61,2.61,0,0,0-.8,2.83,2.57,2.57,0,0,0,3.24,1.55l1.57-.54c4.23-1.47,8.5-2.78,12.76-4.09,2.22-.68,4.47-1.26,6.72-1.89.9-.24,1.83-.41,2.73-.61l3.11-.69c1.55-.27,3.11-.55,4.69-.68-.62.68-1.24,1.36-1.84,2-1.08,1.24-2.15,2.48-3.22,3.73-1.79,2.12-3.54,4.29-5.22,6.5l-1.91,2.52c-.33.43-.69.86-1,1.33-1,1.42-1.91,2.86-2.87,4.28-.74,1.12-1.52,2.21-2.19,3.37-1,1.76-2,3.52-3,5.28-.43.75-.88,1.48-1.27,2.25-.8,1.64-1.63,3.27-2.45,4.92-.45.92-1,1.84-1.38,2.79-.66,1.53-1.32,3.07-2,4.61-.43,1-.93,2-1.3,3.06-.59,1.63-1.19,3.25-1.78,4.88-.46,1.24-.87,2.48-1.26,3.74-.29.89-.57,1.81-.86,2.71-.22.72-.42,1.46-.63,2.2l-.22-.13c-2.54-1.71-5-3.57-7.41-5.45q-4.05-3.15-8.06-6.35c-2.23-1.76-4.48-3.51-6.71-5.26-1.22-1-2.48-1.86-3.73-2.77s-2.2-1.68-3.34-2.48q-7-4.9-14-9.73c-2.08-1.42-4.12-2.91-6.17-4.37a81.09,81.09,0,0,1-11.78-9.73,20.62,20.62,0,0,1-2.44-3.28c1.83-.29,3.69-.54,5.54-.82,2.09-.32,4.18-.6,6.28-.88q3.56-.47,7.14-.9c1.4-.17,2.81-.32,4.23-.46s3.11-.26,4.67-.28,3.23.07,4.84.15a2.83,2.83,0,0,0,2-1,2.92,2.92,0,0,0-.35-4.11,2.07,2.07,0,0,0-.31-.23,3.21,3.21,0,0,0-.1-1.33q-1.9-6.67-3.6-13.41c-.52-2-1.07-4.08-1.54-6.12-.53-2.32-1.08-4.64-1.61-7l-1.93-10.26c-.52-2.72-.81-5.49-1.17-8.23-.3-2.22-.61-4.44-.91-6.66-.1-.78-.24-1.56-.3-2.35q-.43-5.51-.87-11c-.34-4.3-.71-8.59-.87-12.9q-.59-16.21.34-32.4c.4-6.47,1-12.93,1.9-19.36.95-6.81,2.2-13.58,3.63-20.3,1.38-6.52,2.94-13,4.54-19.47s3.4-13.09,5.51-19.52c1.21-3.64,2.55-7.24,4.06-10.77,1.59-3.7,3.34-7.32,5.17-10.91s3.73-7.16,5.6-10.74c.47-.88.93-1.75,1.43-2.62,7.22-.2,14.45-.46,21.66-.06h.18c3.27.21,6.54.5,9.8,1l7.08,1.08c.58.08,1.16.22,1.74.35l4,.82c1.61.34,3.2.86,4.77,1.3s3.2,1.13,4.79,1.74a40,40,0,0,1,5.27,2.41Z"/><path class="cls-4" d="M401.14,324.91c.09,1,.19,1.92.3,2.87a2.9,2.9,0,0,1-2,3,3.07,3.07,0,0,1-.73.15,2.89,2.89,0,0,1-2.08-.68,3,3,0,0,1-1-2c-.06-.43-.12-.85-.16-1.27a2.67,2.67,0,0,1,.75-.41C397.84,326,399.5,325.43,401.14,324.91Z"/><path class="cls-4" d="M397.9,331.3a2.57,2.57,0,0,1-3.24-1.55,2.61,2.61,0,0,1,.8-2.83c0,.42.1.85.16,1.27a3,3,0,0,0,1,2,2.89,2.89,0,0,0,2.08.68,3.07,3.07,0,0,0,.73-.15v0Z"/><path class="cls-4" d="M359.76,324.27c1.35,0,2.68.08,4,.13a3.55,3.55,0,0,1,1.78.46,2.73,2.73,0,0,1-1.82,2.29,2.85,2.85,0,0,1-3.61-1.74C360,325,359.87,324.65,359.76,324.27Z"/><path class="cls-5" d="M281.66,396c-.17,1.53-.25,3.08-.36,4.61-.13,1.88-.25,3.78-.36,5.67-.23,3.6-.47,7.19-.75,10.79-.53,6.88-1.42,13.74-2.3,20.59-.33,2.48-.64,5-1,7.45-.24,1.84-.39,3.7-.58,5.55-.29,2.74-.55,5.48-.72,8.23a78.14,78.14,0,0,0-.11,8.53,60.88,60.88,0,0,0,.77,6.73c-1.71.07-3.41,0-5.1-.09-2-.07-4-.17-6-.24-3.67-.15-7.33-.15-11-.15-1.89,0-3.79.13-5.67.2-1.64.06-3.26.19-4.89.3-3.73.27-7.46.58-11.19.89-5.89.49-11.8,1-17.64,1.85-2.77.42-5.52.91-8.25,1.55-.92.21-1.82.44-2.72.67l.42-.55c1.18-1.56,2.37-3.09,3.57-4.62,2.2-2.8,4.44-5.58,6.67-8.37q6.74-8.18,13.51-16.33a3.85,3.85,0,0,0,1.11-2.47,3.59,3.59,0,0,0-3.46-3.72h-.13a2.75,2.75,0,0,0,.55-1,2.8,2.8,0,0,0-1.84-3.43c-1.09-.38-2.14-.82-3.19-1.27-6.25-3-12.4-6.24-18.81-8.87l-3.35-1.38c-.58-.24-1.16-.52-1.76-.7l-5.66-1.9c-1.23-.43-2.45-.85-3.71-1.19l-6.88-1.84c-1.18-.31-2.36-.56-3.56-.82l-6.63-1.4c-1.54-.33-3.11-.5-4.67-.72l-3.57-.52c-.58-.08-1.17-.2-1.76-.25-3.43-.28-6.86-.6-10.31-.75-1.88-.09-3.77-.23-5.64-.25l-6.12-.07c-3.41,0-6.83,0-10.24.17-1.92.07-3.83.17-5.75.27-.79,0-1.58.07-2.38.1s-1.75.08-2.6.06c.24-.66.49-1.31.74-2,.31-.84.61-1.69.94-2.53.61-1.59,1.21-3.21,1.84-4.8,1.22-3.12,2.46-6.23,3.72-9.33s2.49-6.26,3.85-9.36q2.31-5.29,4.63-10.6c1-2,1.91-4.07,2.88-6.09,1.78-.72,3.58-1.4,5.38-2.1a70.62,70.62,0,0,1,15.82-3.91,51.31,51.31,0,0,1,12,.56,119.61,119.61,0,0,1,14,3.47c2.38.74,4.8,1.42,7.17,2.26l4.77,1.7c.89.32,1.82.61,2.7,1l7.22,3,5.38,2.56c1.52.72,3,1.51,4.51,2.29s3.08,1.59,4.59,2.45c1.68.94,3.39,1.84,5,2.86l3,1.89c.73.45,1.48.88,2.19,1.36,1.61,1.11,3.25,2.15,4.82,3.31,3.07,2.28,6.11,4.57,9.1,6.94,1.25,1,2.51,2.07,3.69,3.18,1.66,1.59,3.27,3.21,4.82,4.92l0,0a3.31,3.31,0,0,0,.41,3.91,3.23,3.23,0,0,0,4.49.1c.61-.52,1.22-1.05,1.84-1.55,2.1-1.76,4.24-3.46,6.37-5.16,3.28-2.6,6.57-5.23,9.95-7.69,1.26-.89,2.54-1.75,3.78-2.66l-.31.24A15.79,15.79,0,0,1,281.66,396Z"/><path class="cls-4" d="M258.37,405.52a3.84,3.84,0,0,1-.45,5c-.12.11-.25.22-.38.32a3.89,3.89,0,0,1-5-.4,2.87,2.87,0,0,1,.52-.59C254.79,408.36,256.57,406.93,258.37,405.52Z"/><path class="cls-4" d="M257.93,410.53a3.84,3.84,0,0,0,.45-5l3.51-2.73,4.15-3.18c1-.78,2-1.55,3-2.31,1.79-1.38,3.65-2.66,5.5-4,.68-.49,1.34-1,2-1.47a18,18,0,0,1,1.54-1l.31-.16a9.09,9.09,0,0,1,4.3-1.06,6.49,6.49,0,0,1,4.15,1.47,4.46,4.46,0,0,1,1.18,4.07c-.18,1.28-.21,2.58-.29,3.87s-.16,2.31-.21,3.46c-.29,4.94-.58,9.87-.93,14.81-.5,6.88-1.38,13.73-2.24,20.58-.49,3.78-1,7.56-1.35,11.35l-.62,6.16c-.25,2.45-.36,4.95-.39,7.4,0,2.27,0,4.53.21,6.79.16,1.35.41,2.68.61,4,.25,1.61.34,3.36-.68,4.74a4.65,4.65,0,0,1-2,1.6,9.1,9.1,0,0,1-2.44.6,21.4,21.4,0,0,1-2.85.17c-2.26,0-4.51-.1-6.78-.19-3.46-.14-6.92-.3-10.37-.31-1.72,0-3.45,0-5.18,0s-3.76.08-5.63.21c-7.34.49-14.66,1.08-22,1.71-4,.4-8,.76-11.86,1.5-2.35.45-4.66.92-7,1.45-1.84.41-3.64,1-5.44,1.5a8.56,8.56,0,0,1-2.72.54,4.45,4.45,0,0,1-2-.5,3,3,0,0,1-1.51-1.42,4.93,4.93,0,0,1-.55-2.1,5.69,5.69,0,0,1,.23-1.53,14.4,14.4,0,0,1,1.61-3.34c1-1.52,2.08-3,3.18-4.46,2-2.69,4.11-5.3,6.21-7.91,5.91-7.35,11.91-14.6,18-21.84a.18.18,0,0,1,.05-.06,2.79,2.79,0,0,0,2.43-.94h.13a3.59,3.59,0,0,1,3.46,3.72A3.85,3.85,0,0,1,228,449.3q-6.78,8.14-13.51,16.33c-2.23,2.79-4.47,5.57-6.67,8.37-1.2,1.53-2.4,3.06-3.57,4.62l-.42.55c.9-.23,1.81-.46,2.72-.67,2.72-.64,5.47-1.13,8.25-1.55,5.85-.88,11.75-1.37,17.64-1.85,3.73-.31,7.46-.63,11.19-.89,1.63-.11,3.25-.24,4.89-.3,1.88-.07,3.78-.2,5.67-.2,3.67,0,7.33,0,11,.15,2,.07,4,.17,6,.24,1.69.08,3.4.16,5.1.09a60.88,60.88,0,0,1-.77-6.73,78.14,78.14,0,0,1,.11-8.53c.17-2.75.44-5.48.72-8.23.19-1.85.35-3.71.58-5.55.32-2.48.63-5,1-7.45.87-6.84,1.77-13.7,2.3-20.59.28-3.6.52-7.19.75-10.79.11-1.89.23-3.79.36-5.67.11-1.53.19-3.09.36-4.61a15.79,15.79,0,0,0-2.61,1.58l.31-.24c-1.24.91-2.52,1.78-3.78,2.66-3.38,2.46-6.67,5.09-9.95,7.69-2.13,1.7-4.27,3.4-6.37,5.16l-1.72-2C257.68,410.75,257.8,410.64,257.93,410.53Z"/><path class="cls-4" d="M252.53,410.44a3.89,3.89,0,0,0,5,.4l1.72,2c-.62.5-1.24,1-1.84,1.55a3.23,3.23,0,0,1-4.49-.1A3.31,3.31,0,0,1,252.53,410.44Z"/><path class="cls-4" d="M244,402.3c-3-2.37-6-4.66-9.1-6.94-1.56-1.16-3.21-2.2-4.82-3.31-.71-.48-1.46-.91-2.19-1.36l-3-1.89c-1.63-1-3.35-1.92-5-2.86-1.52-.86-3.06-1.65-4.59-2.45s-3-1.58-4.51-2.29l-5.38-2.56-7.22-3c-.88-.36-1.81-.65-2.7-1l-4.77-1.7c-2.37-.84-4.79-1.53-7.17-2.26a119.61,119.61,0,0,0-14-3.47,51.31,51.31,0,0,0-12-.56,70.62,70.62,0,0,0-15.82,3.91c-1.79.7-3.59,1.38-5.38,2.1,1.17-2.49,2.35-5,3.56-7.42a6.83,6.83,0,0,0,.38-.95c6.4-2.29,13-4.11,19.8-4.29,8.74-.24,17.38,1.82,25.69,4.31,2,.6,4,1.11,5.95,1.78l6.32,2.2c1.43.5,2.84,1,4.25,1.59,2.1.84,4.23,1.61,6.27,2.56l6.13,2.82c1.56.73,3.08,1.53,4.62,2.29s3.06,1.55,4.57,2.39,3.35,1.76,5,2.75c3.39,2,6.81,4.06,10,6.38,6.77,4.84,13.73,9.69,19.22,16a3.8,3.8,0,0,1,.32.42c-1.8,1.42-3.59,2.84-5.33,4.34a2.87,2.87,0,0,0-.52.59l0,0c-1.55-1.7-3.16-3.33-4.82-4.92C246.49,404.38,245.23,403.35,244,402.3Z"/><path class="cls-4" d="M225.56,443.11a2.79,2.79,0,0,1-2.43.94A3.47,3.47,0,0,1,225.56,443.11Z"/><path class="cls-4" d="M140.22,364.32a6.83,6.83,0,0,1-.38.95c-1.21,2.47-2.39,4.93-3.56,7.42-.48.17-1,.37-1.43.56a3.52,3.52,0,0,1-2.45.26,3.23,3.23,0,0,1-2.16-4,3.19,3.19,0,0,1,.21-.52,3.08,3.08,0,0,1,1.17-1.3l.18-.08C134.58,366.46,137.39,365.34,140.22,364.32Z"/><path class="cls-4" d="M130,368.76q1.74-3.68,3.52-7.34a3.14,3.14,0,0,1,1.35-1.29,3.9,3.9,0,0,1,1-.37,3.68,3.68,0,0,1,2.73.44,3.73,3.73,0,0,1,1.67,2.33,3.48,3.48,0,0,1-.07,1.78c-2.83,1-5.64,2.14-8.42,3.25l-.18.08a3.08,3.08,0,0,0-1.17,1.3Z"/><path class="cls-4" d="M117.68,417.35c.86,0,1.74,0,2.6-.06s1.59-.05,2.38-.1c1.92-.1,3.83-.2,5.75-.27,3.41-.13,6.82-.21,10.24-.17l6.12.07c1.87,0,3.76.16,5.64.25,3.44.15,6.88.46,10.31.75.59,0,1.18.17,1.76.25l3.57.52c1.55.22,3.12.39,4.67.72l6.63,1.4c1.21.25,2.38.51,3.56.82l6.88,1.84c1.25.34,2.48.77,3.71,1.19l5.66,1.9c.59.19,1.18.47,1.76.7l3.35,1.38c6.41,2.63,12.56,5.86,18.81,8.87,1,.45,2.1.89,3.19,1.27a2.8,2.8,0,0,1,1.84,3.43,2.75,2.75,0,0,1-.55,1,3.47,3.47,0,0,0-2.43.94,2.06,2.06,0,0,1-.47-.09,67.46,67.46,0,0,1-10.59-4.39c-3.14-1.5-6.3-3-9.45-4.4l-4.38-1.76c-1-.41-2.08-.88-3.14-1.24l-5.36-1.75c-1-.33-2-.71-3.06-1l-5.73-1.5c-1.07-.27-2.14-.6-3.23-.82l-8.92-1.83-6.8-.94c-2-.28-3.91-.39-5.87-.53s-4-.29-5.95-.36-4.13-.19-6.2-.2-4.32,0-6.49,0c-1.78,0-3.54.09-5.32.13-3.39.09-6.77.31-10.16.54l-2.78.15-1.55.06a13.07,13.07,0,0,1-3.26-.33,5.56,5.56,0,0,1-3.4-2.48,5.93,5.93,0,0,1-.67-3.68,18.78,18.78,0,0,1,1.21-4.27c1.13-3.27,2.34-6.5,3.59-9.73,2.5-6.48,5.1-12.93,7.87-19.3,1.45-3.34,2.84-6.72,4.4-10l2.61-5.54.4.19a3.19,3.19,0,0,0-.21.52,3.23,3.23,0,0,0,2.16,4,3.52,3.52,0,0,0,2.45-.26c.48-.19.95-.38,1.43-.56-1,2-1.92,4.06-2.88,6.09q-2.33,5.3-4.63,10.6c-1.35,3.09-2.58,6.23-3.85,9.36s-2.5,6.21-3.72,9.33c-.64,1.59-1.23,3.21-1.84,4.8-.33.84-.63,1.69-.94,2.53C118.18,416,117.92,416.69,117.68,417.35Z"/><path class="cls-4" d="M657.89,302.87a5.63,5.63,0,0,1-1.37,3.29,3.77,3.77,0,0,1-3.67,1,5.68,5.68,0,0,1-1.46-.64c-.43-.3-.87-.6-1.31-.87a25.06,25.06,0,0,0-2.67-1.48,37.34,37.34,0,0,0-8-2.05,65.89,65.89,0,0,0-15.73.21,83.27,83.27,0,0,0-8.24,1.54c-1.74.42-3.51.83-5.24,1.36l-7.55,2.3c-3.59,1.09-7.09,2.43-10.61,3.7l-5.68,2.33c-1.88.78-3.7,1.74-5.54,2.63-.76.36-1.48.83-2.21,1.25s-1.66.9-2.44,1.42c-1,.64-2,1.23-2.93,1.93-.61.43-1.22.88-1.83,1.33A48.9,48.9,0,0,0,565.1,328a2.7,2.7,0,0,1-1.17,4.57,2.63,2.63,0,0,1-1.31,0,5,5,0,0,1-.75-.28,11.51,11.51,0,0,1-1.2-.56,8.12,8.12,0,0,1-1.17-.87,3.69,3.69,0,0,1-.89-1.62c-.06-.39-.1-.78-.16-1.17a8.91,8.91,0,0,1,.26-1.66c.08-.24.17-.48.26-.71.24-.61.51-1.19.81-1.77a16.3,16.3,0,0,1,2.8-3.67,45.37,45.37,0,0,1,7.08-5.7c.6-.44,1.26-.82,1.89-1.22.46-.3.93-.63,1.42-.89l4-2.26c.51-.28,1.06-.5,1.58-.76.91-.42,1.82-.85,2.72-1.28s1.88-.84,2.84-1.22l3.56-1.44c.78-.33,1.56-.68,2.36-1l5.22-1.86c1.27-.45,2.54-1,3.85-1.34l6.33-1.91c2.14-.64,4.26-1.27,6.44-1.8a94.87,94.87,0,0,1,15-2.51,62.73,62.73,0,0,1,15.09.45,34.85,34.85,0,0,1,7.29,1.9c.81.33,1.63.68,2.41,1.07l0-.14c.21-1,.43-2,.65-3,.52-2.27,1-4.54,1.59-6.8,1.68-6.85,3.36-13.73,5.24-20.53.9-3.27,1.72-6.56,2.71-9.8.52-1.75,1-3.52,1.6-5.26.71-2.14,1.42-4.29,2.17-6.42l.07-.2c.53.32,1.06.68,1.56,1.06s.86.71,1.3,1.08a13.69,13.69,0,0,1,1.79,1.93,2.63,2.63,0,0,0,.9.7c-.87,2.64-1.71,5.27-2.52,7.93-1,3.19-1.79,6.4-2.67,9.61q-2.6,9.54-4.9,19.15c-.81,3.36-1.67,6.73-2.35,10.12Q658.31,300.39,657.89,302.87Z"/><path class="cls-5" d="M631.12,243.27l.22,0h0l.16,0a99.15,99.15,0,0,1,23-.29,45.25,45.25,0,0,1,9,2.15,18.26,18.26,0,0,1,2.27,1.27l-.07.2c-.75,2.13-1.46,4.28-2.17,6.42-.59,1.74-1.08,3.51-1.6,5.26-1,3.24-1.81,6.53-2.71,9.8-1.88,6.81-3.57,13.68-5.24,20.53-.55,2.26-1.06,4.54-1.59,6.8-.22,1-.44,2-.65,3l0,.14c-.78-.39-1.6-.73-2.41-1.07a34.85,34.85,0,0,0-7.29-1.9,62.73,62.73,0,0,0-15.09-.45,94.87,94.87,0,0,0-15,2.51c-2.17.54-4.29,1.16-6.44,1.8l-6.33,1.91c-1.3.39-2.58.89-3.85,1.34l-5.22,1.86c-.8.28-1.58.63-2.36,1l-3.56,1.44c-1,.39-1.9.78-2.84,1.22s-1.81.86-2.72,1.28c-.52.25-1.07.48-1.58.76l-4,2.26c-.48.26-1,.59-1.42.89-.64.4-1.29.78-1.89,1.22a45.37,45.37,0,0,0-7.08,5.7,16.3,16.3,0,0,0-2.8,3.67c-.29.58-.57,1.16-.81,1.77-.09.23-.18.47-.26.71a8.91,8.91,0,0,0-.26,1.66c.06.39.1.78.16,1.17a3.69,3.69,0,0,0,.89,1.62,8.12,8.12,0,0,0,1.17.87,11.51,11.51,0,0,0,1.2.56,5,5,0,0,0,.75.28l-.19.81a3.3,3.3,0,0,0-.94-.14,3.66,3.66,0,0,0-2.58,1,3.7,3.7,0,0,0-1.12,2.65,3.58,3.58,0,0,0,1,2.58c2.78,2.35,5.71,4.5,8.63,6.69,2.6,1.94,5.17,3.93,7.76,5.9,1.16.94,2.31,1.87,3.44,2.84.57.49,1.16,1,1.72,1.53l-1.16.27c-1.24.3-2.48.6-3.7.95-3,.84-6,1.74-9,2.64-1.29.39-2.55.89-3.82,1.34-2.1.72-4.16,1.48-6.23,2.34a79.21,79.21,0,0,0-10.73,5.41,51.25,51.25,0,0,0-5.16,3.66c-.53.42-1,.88-1.52,1.34-.68-1.39-1.26-2.84-1.88-4.25q-1.17-2.71-2.37-5.4c-1.36-3.13-2.8-6.21-4.3-9.29q-1.39-2.82-2.76-5.66c-1.05-2.15-2.25-4.24-3.42-6.33-1.35-2.45-2.79-4.83-4.29-7.2A161.55,161.55,0,0,0,504.76,316L499,309.43c-2.85-3.24-5.79-6.37-8.41-9.79-.51-.72-1-1.46-1.48-2.22l2.84.73q1.78.46,3.54,1c2.41.67,4.8,1.38,7.19,2.09,4.63,1.38,9.13,3.11,13.65,4.81,1.61.67,3.18,1.36,4.74,2.15a20.31,20.31,0,0,1,8.44,7.26,3.18,3.18,0,0,0,2.35,1,3.27,3.27,0,0,0,2.29-.93,3.31,3.31,0,0,0,1-2.33,3.61,3.61,0,0,0-.93-2.3l-.09-.11a3.59,3.59,0,0,0,.39-.19,4.45,4.45,0,0,0,1.87-5.57c.26-.61.49-1.22.75-1.83.94-2.22,1.93-4.44,3.07-6.55l2.16-4a79.06,79.06,0,0,1,6.69-10.4,91.43,91.43,0,0,1,15.89-15,109.6,109.6,0,0,1,23.24-12.71A181.61,181.61,0,0,1,631.12,243.27Z"/><path class="cls-4" d="M631.5,243.22l-.16,0h0l-.22,0a181.61,181.61,0,0,0-43,11.17,109.6,109.6,0,0,0-23.24,12.71,91.43,91.43,0,0,0-15.89,15,79.06,79.06,0,0,0-6.69,10.4l-2.16,4c-1.14,2.12-2.12,4.33-3.07,6.55-.26.61-.49,1.22-.75,1.83a4.45,4.45,0,0,1-1.87,5.57,3.59,3.59,0,0,1-.39.19,28.53,28.53,0,0,0-4.33-4.7,30.72,30.72,0,0,0-2.87-2,3.37,3.37,0,0,1,.2-.81c.45-1.1.92-2.18,1.45-3.25.69-1.45,1.4-2.9,2.1-4.36,1.57-3.29,3.34-6.51,5.19-9.65A74.63,74.63,0,0,1,548.38,270c2.49-2.38,5.11-4.64,7.82-6.76a95.79,95.79,0,0,1,7.85-5.69,112.08,112.08,0,0,1,17.69-9.24,178.33,178.33,0,0,1,18.82-6.75c6.3-1.82,12.7-3.28,19.16-4.48a144.87,144.87,0,0,1,19.72-2.5,82.23,82.23,0,0,1,19.71,1.15,39.85,39.85,0,0,1,5.22,1.34,25.13,25.13,0,0,1,4.37,1.87l.13.08A34.39,34.39,0,0,1,673,242a21.59,21.59,0,0,1,1.81,1.55c.43.45.81.92,1.2,1.41a4.21,4.21,0,0,1,1.11,2.75,3.93,3.93,0,0,1-3.94,3.93,4.18,4.18,0,0,1-1.91-.49l1-2.8a3.35,3.35,0,0,0-1.62-3.84,3.21,3.21,0,0,0-.78-.33,3.43,3.43,0,0,0-2.56.32,3.47,3.47,0,0,0-1.54,1.89,18.26,18.26,0,0,0-2.27-1.27,45.25,45.25,0,0,0-9-2.15A99.15,99.15,0,0,0,631.5,243.22Z"/><path class="cls-4" d="M671.26,251.12a2.63,2.63,0,0,1-.9-.7,13.69,13.69,0,0,0-1.79-1.93c-.43-.37-.85-.73-1.3-1.08s-1-.74-1.56-1.06a3.47,3.47,0,0,1,1.54-1.89,3.43,3.43,0,0,1,2.56-.32,3.21,3.21,0,0,1,.78.33,3.35,3.35,0,0,1,1.62,3.84Z"/><path class="cls-4" d="M589,358.11a3.49,3.49,0,0,1-1,2.38,5.46,5.46,0,0,1-3,1.66c-.86.19-1.72.4-2.58.63-3.49.88-7,1.88-10.42,3-3.8,1.18-7.61,2.39-11.32,3.86a71.09,71.09,0,0,0-15,8,27.72,27.72,0,0,0-2.49,2.14,16.36,16.36,0,0,1-2.43,2.11,4.26,4.26,0,0,1-1.88.46,4.16,4.16,0,0,1-1.88-.5,6.84,6.84,0,0,1-2.32-2.74c-1.06-1.9-1.94-3.9-2.88-5.86q-2.31-4.81-4.66-9.62c-1.6-3.31-3.29-6.57-5-9.85a161,161,0,0,0-13.7-22.11c-3.46-4.59-7.25-8.92-11.07-13.22L493.39,314c-2.45-2.76-5-5.44-7.26-8.34a35.8,35.8,0,0,1-4.46-6.74c-1.07-2.31-1.77-5.54.31-7.52a5.45,5.45,0,0,1,4-1.63,15.2,15.2,0,0,1,3.26.49c1.4.36,2.77.79,4.15,1.18q5.44,1.61,10.86,3.32c3.35,1,6.64,2.21,9.93,3.45,2.81,1.07,5.63,2.12,8.37,3.41,1.13.53,2.22,1.1,3.29,1.73l1.06.65a6.74,6.74,0,0,0,.21,2.45,7.52,7.52,0,0,0,2.1,3.33,4.38,4.38,0,0,0,4.89,1l.09.11a3.61,3.61,0,0,1,.93,2.3,3.31,3.31,0,0,1-1,2.33,3.27,3.27,0,0,1-2.29.93,3.18,3.18,0,0,1-2.35-1,20.31,20.31,0,0,0-8.44-7.26c-1.55-.78-3.13-1.48-4.74-2.15-4.52-1.7-9-3.44-13.65-4.81-2.39-.71-4.77-1.42-7.19-2.09q-1.76-.49-3.54-1l-2.84-.73c.46.76,1,1.5,1.48,2.22,2.61,3.42,5.56,6.55,8.41,9.79l5.77,6.53a161.55,161.55,0,0,1,15.32,20.27c1.5,2.37,2.93,4.75,4.29,7.2,1.17,2.1,2.37,4.18,3.42,6.33q1.38,2.84,2.76,5.66c1.5,3.08,2.94,6.17,4.3,9.29q1.2,2.69,2.37,5.4c.62,1.41,1.2,2.86,1.88,4.25.49-.46,1-.92,1.52-1.34a51.25,51.25,0,0,1,5.16-3.66A79.21,79.21,0,0,1,556.51,364c2.07-.86,4.13-1.62,6.23-2.34,1.27-.45,2.53-.95,3.82-1.34,3-.9,6-1.8,9-2.64,1.22-.35,2.47-.65,3.7-.95l1.16-.27c-.56-.53-1.15-1-1.72-1.53-1.13-1-2.28-1.9-3.44-2.84-2.58-2-5.16-4-7.76-5.9-2.92-2.18-5.85-4.34-8.63-6.69a3.58,3.58,0,0,1-1-2.58,3.7,3.7,0,0,1,1.12-2.65,3.66,3.66,0,0,1,2.58-1,3.3,3.3,0,0,1,.94.14,4.35,4.35,0,0,1,1.7,1l1.21,1-.79-.61q1.41,1.09,2.8,2.21c1.09.86,2.2,1.72,3.28,2.59,3,2.37,6,4.8,9,7.22,1.51,1.22,3,2.48,4.43,3.82a19.73,19.73,0,0,1,4.4,5.17A5.13,5.13,0,0,1,589,358.11Z"/><path class="cls-4" d="M534.11,310.73a4.38,4.38,0,0,1-4.89-1,7.52,7.52,0,0,1-2.1-3.33,6.74,6.74,0,0,1-.21-2.45,30.72,30.72,0,0,1,2.87,2A28.53,28.53,0,0,1,534.11,310.73Z"/></svg>