<svg id="Layer_12" data-name="Layer 12" xmlns="http://www.w3.org/2000/svg" viewBox="0 0 871.69 845.84"><defs><style>.cls-1{fill:#7f7f7f;}.cls-2{fill:#fff;}.cls-3{fill:#5c832f;}.cls-4{fill:#ffe11a;}.cls-5{fill:#6edaf4;}.cls-6{fill:#e2e2e2;}.cls-7{fill:#f4bf2a;stroke:#000;stroke-miterlimit:10;stroke-width:0.25px;}</style></defs><title>automatic_ocr</title><path class="cls-1" d="M410.73,68.49q-50.8,0-101.61.15-25.94,0-51.89.08-13,.05-26.06.18c-4.18,0-8.35.17-12.53.23s-8.32.08-12.48.17a3.2,3.2,0,0,0-2.23.93,3.16,3.16,0,0,0-.81,3.07l.42,1.39q.21,15.17.23,30.33c0,10.23.06,20.47,0,30.7q-.11,32.21-.39,64.41-.53,64.44-.86,128.87c-.09,20.52-.21,41-.13,61.56q.06,15.73.19,31.47.15,16.24.31,32.47a3.28,3.28,0,0,0,.68,2q-.09,74.46.09,148.92.09,40.61.37,81.22c.08,12.79.21,25.58.3,38.38,0,5.79.08,11.58.07,17.37s0,11.32-.13,17l0-.19a15.53,15.53,0,0,0-.06,1.74V765l0,9.56a2,2,0,0,0,2,2c5.37,0,10.75,0,16.13,0,5.56.06,11.13.09,16.69.14q16.69.16,33.37.28,32.78.24,65.56.34t65.82.21q32.21.14,64.42.16,101.51.11,203,.09a3.21,3.21,0,0,0,3.18-3.18q0-17.49,0-35c0-10.06.13-20.12.16-30.18,0-20.82.2-41.65.26-62.47q.17-66.61.14-133.22,0-33.68-.07-67.36-.1-33.91-.2-67.84c-.06-22.3,0-44.61-.06-66.92s0-44.74,0-67.1c0-14.75-.08-29.5-.14-44.26q-.08-21.05-.18-42.1C674.15,144,674,130,674,115.9q-.07-21.72,0-43.44a2.84,2.84,0,0,0-2.81-2.82c-5.52,0-11,.07-16.55,0s-10.75-.14-16.13-.17c-10.58-.06-21.16-.19-31.74-.3-21.93-.23-43.85-.3-65.78-.42q-50.51-.29-101-.25Zm52.14,7.92q52.38,0,104.77-.37c8.56,0,17.12-.07,25.67-.14,8.72-.06,17.44-.18,26.15-.28,8.5-.1,17-.13,25.48-.2,4.13,0,8.27-.15,12.4-.15h11c0,10,0,20,0,30.07q0,16.22-.13,32.44-.18,31.81-.31,63.63-.13,33.55-.13,67.08,0,33.69-.07,67.38,0,33.51-.1,67-.11,33.67-.2,67.35c0,22.7,0,45.38,0,68.08q0,33.26,0,66.53,0,21.67.08,43.33c0,13.87.13,27.74.2,41.62.07,13.25.08,26.51.19,39.76.05,7.06,0,14.13,0,21.19q0,10.3,0,20.6-32.39,0-64.79,0-32.74,0-65.48,0c-43.77.06-87.55,0-131.32.21-33.18.14-66.36.18-99.53.35q-25.26.13-50.53.32c-8.27.07-16.54.16-24.8.22-4,0-8,.1-12,.1H208.12q0-3.12,0-6.23v-4.1a28.72,28.72,0,0,0-.07-3.16l0,.25c-.09-4.11-.09-8.23-.11-12.34q-.05-7.65,0-15.31.12-15.31.23-30.63c.19-21.92.27-43.82.38-65.74s.14-43.8.16-65.7q0-33.17.07-66.33,0-23.42,0-46.83a3.28,3.28,0,0,0,.67-2c.22-22.69.49-45.38.51-68.08,0-22.06-.08-44.11-.17-66.17-.18-43.12-.56-86.24-.91-129.36q-.23-29.42-.32-58.83-.07-28.2.25-56.4c4.1.06,8.21.08,12.31.17,5.51.11,11,.2,16.52.24q16.37.12,32.74.17c21.44.07,42.89,0,64.34.07q51,.11,101.91.12Z"/><path class="cls-1" d="M677.61,379.41c.08,45.29.1,90.59-.28,135.89q-.29,33.84-.86,67.67c-.18,10.67-.55,21.32-.85,32-.15,5.43-.28,10.87-.44,16.3-.16,5.12-.35,10.26-.46,15.38-.51,21.57-.56,43.15-.58,64.71q0,16,0,32.05c0,10.37-.09,20.76,0,31.13a2.94,2.94,0,0,1-2.9,2.9c-8,.09-16.08,0-24.13,0H621.69q-25.7,0-51.4,0-26.28.05-52.55.25-13.29.1-26.57.38c-4.14.09-8.3.25-12.44.24H439.24q-51.31,0-102.61-.16-32.35-.15-64.68-.18l-33.45,0c-10.78,0-21.56.17-32.32-.1a3.48,3.48,0,0,1-2.43-1,3.32,3.32,0,0,1-1-2.43c.19-2.3.09-4.66.11-7l.07-6.93c.06-4.36.14-8.71.19-13.07q.17-11.7.36-23.41c.29-16.76.37-33.53.44-50.3q.1-22.5.26-45a3.2,3.2,0,0,1-1.16-2.43q-.25-16.07-.5-32.11c-.3-22.48-.63-44.94-.77-67.42s-.16-44.74-.16-67.12q0-64.45.18-128.93c.09-21.85.18-43.71.38-65.56.2-21.08.38-42.17.43-63.25q.07-32.3-.15-64.62c-.11-21.23-.17-42.46-.42-63.68,0,0,0-.09,0-.15a4.2,4.2,0,0,1,0-2.3,4.31,4.31,0,0,1,4.16-3.17c8.36.11,16.73.09,25.08.11s16.51,0,24.76,0c17.53,0,35.06-.15,52.58-.26,16.58-.1,33.17-.14,49.75-.19q25.11-.08,50.21-.25,18-.1,35.93-.11,15.12,0,30.24.1,33.66.24,67.32.71,32.42.42,64.86.79l32.47.35,16.67.16c2.55,0,5.1,0,7.64,0h4a9.63,9.63,0,0,0,2.42-.15l1.09-.14a3,3,0,0,1,2.22.93,3.13,3.13,0,0,1,.93,2.21q.32,20.4.65,40.79c.23,14.09.67,28.16,1,42.23.64,29.25.88,58.52,1.06,87.79.15,22.66.18,45.32.3,68S677.58,356.69,677.61,379.41Zm-9.32,392.2c0-12.69-.06-25.36-.07-38,0-14.44,0-28.87-.06-43.31-.06-14.13-.17-28.28-.5-42.42-.16-6.78-.42-13.58-.6-20.37s-.36-13.37-.56-20.06c-.67-22.16-.94-44.32-1.22-66.49q-.42-33.62-.5-67.25-.19-68.18.11-136.35.19-34.15.33-68.27t.49-68.14q.19-16.73.45-33.46c.17-10.86.51-21.69.78-32.55.47-19.85.73-39.72,1-59.58h-3c-2.11,0-4.22,0-6.33,0l-13.06.11-24.36.26q-25.26.25-50.5.56c-34.27.41-68.53.95-102.8,1.13q-12.33.07-24.64.06c-35.67,0-71.34-.34-107-.43-21.85,0-43.7-.24-65.55-.33q-16.66-.08-33.34,0c-9.05,0-18.12,0-27.17.09-.09,8.94-.14,17.88-.18,26.82-.25,43-.49,85.95-.19,128.93.14,21.35.37,42.71.49,64.06s.21,42.44.26,63.66q.15,65.87.08,131.75c0,44.83-.7,89.65-1.41,134.48a3.26,3.26,0,0,1-1.15,2.42q.05,9.94.11,19.86c.14,21.26.2,42.54.41,63.8.09,10.14.3,20.28.45,30.43q.14,8.16.25,16.33c0,2.77.07,5.52.09,8.28,0,1.14,0,2.29,0,3.44,1.32,0,2.64-.06,4,0h6.69l13.09,0,28.31,0c17.78,0,35.53,0,53.3-.1q53.35-.14,106.68-.2l33,0c10.41,0,20.82-.07,31.24.12,10.64.2,21.3.41,32,.5q15.59.14,31.2.18,31.78.14,63.56.12l29.67,0C650.87,771.6,659.59,771.53,668.29,771.61Z"/><path class="cls-2" d="M668.22,733.57c0,12.67.1,25.35.07,38-8.7-.08-17.42,0-26.13,0l-29.67,0q-31.78,0-63.56-.12-15.59-.07-31.2-.18c-10.65-.09-21.31-.29-32-.5-10.42-.19-20.84-.12-31.24-.12l-33,0q-53.35,0-106.68.2c-17.77.06-35.52.12-53.3.1l-28.31,0-13.09,0h-6.69c-1.32,0-2.64,0-4,0,0-1.15,0-2.3,0-3.44,0-2.77-.06-5.52-.09-8.28q-.1-8.16-.25-16.33c-.15-10.15-.36-20.29-.45-30.43-.2-21.26-.27-42.54-.41-63.8q-.05-9.92-.11-19.86a3.26,3.26,0,0,0,1.15-2.42c.71-44.83,1.37-89.65,1.41-134.48q0-65.87-.08-131.75-.07-31.83-.26-63.66c-.11-21.35-.35-42.71-.49-64.06-.29-43-.06-85.95.19-128.93,0-8.94.09-17.88.18-26.82,9.05-.08,18.12-.06,27.17-.09q16.68,0,33.34,0c21.85.09,43.7.28,65.55.33,35.65.09,71.33.43,107,.43q12.33,0,24.64-.06c34.27-.18,68.53-.72,102.8-1.13q25.24-.32,50.5-.56l24.36-.26,13.06-.11c2.11,0,4.22,0,6.33,0h3c-.3,19.86-.56,39.73-1,59.58-.27,10.86-.61,21.69-.78,32.55q-.29,16.73-.45,33.46-.37,34.08-.49,68.14t-.33,68.27q-.36,68.18-.11,136.35.08,33.62.5,67.25c.28,22.17.55,44.33,1.22,66.49q.3,10,.56,20.06c.18,6.79.44,13.59.6,20.37.33,14.13.44,28.28.5,42.42C668.23,704.7,668.21,719.14,668.22,733.57Z"/><path class="cls-1" d="M454.28,772.17a2.4,2.4,0,0,0-1.08.63,2.44,2.44,0,0,0-.38,3,2.62,2.62,0,0,0,1.46,1.12,6.31,6.31,0,0,0,2.12.13,2.49,2.49,0,0,0,0-5l-1,0a3.08,3.08,0,0,0-1.09.15Z"/><path class="cls-1" d="M496.5,88.56a153.86,153.86,0,0,0-19.07,1.95,274.19,274.19,0,0,0-37.35,8.57,315.25,315.25,0,0,0-35.42,12.78,219.5,219.5,0,0,0-33.12,17.78q-1.87,1.23-3.73,2.47c-3.29-.12-6.58-.13-9.87,0,1.1-1.54,2.13-3.11,3.13-4.71a22.87,22.87,0,0,0,3-7,13.85,13.85,0,0,0-1.86-11.12,12,12,0,0,0-2.31-2.65,14.84,14.84,0,0,0-2.89-1.88,26.23,26.23,0,0,0-4-1.65,28,28,0,0,0-4.24-1c-1.36-.23-2.73-.4-4.11-.53a72.13,72.13,0,0,0-9.71-.1c-3.13.12-6.23.45-9.34.82s-6.3.85-9.43,1.41a97.84,97.84,0,0,0-18.14,5,46,46,0,0,0-7.68,3.78,38.53,38.53,0,0,0-7,5.67,34.28,34.28,0,0,0-4.8,6.15,23.68,23.68,0,0,0-1.72,3.53,39.46,39.46,0,0,0-1.53,4.62,31,31,0,0,0-.75,4.06c-.19,1.45-.32,2.89-.39,4.35-.06,1.14-.05,2.27,0,3.41-1,.21-2.07.41-3.1.65l-5.45,1.25q-1.4.32-2.81.6a20.47,20.47,0,0,0-2.46.65,15.6,15.6,0,0,0-2.6,1.31,2.31,2.31,0,0,0,0,4,23.29,23.29,0,0,0,2.93,1.6,17.75,17.75,0,0,0,3.43.93c2.61.5,5.29.61,7.92.87,1.39.14,2.79.2,4.19.29a43.47,43.47,0,0,0,4.65,10.28,42.27,42.27,0,0,0,4.36,5.79,22.32,22.32,0,0,0,1.82,1.81l-2.06-.28a49.82,49.82,0,0,0-18.45,1.1,48.54,48.54,0,0,0-8,2.95,53,53,0,0,0-8.08,4.62,65.41,65.41,0,0,0-13,11.93,70.84,70.84,0,0,0-5,6.76,62.75,62.75,0,0,0-4.44,8.26,37.13,37.13,0,0,0-2.76,7.94,28.12,28.12,0,0,0-.56,4.25,13.47,13.47,0,0,0,.71,4.59,17.08,17.08,0,0,0,3.89,6.64,21.74,21.74,0,0,0,3,2.49,23.27,23.27,0,0,0,3.93,2.25c5.19,2.44,11,3,16.72,2.8a64.41,64.41,0,0,0,18.17-3.69,125.1,125.1,0,0,0,17.06-7.2c2.62-1.34,5.2-2.78,7.76-4.24,2.79-1.59,5.57-3.21,8.32-4.89l.32-.2a11.23,11.23,0,0,0-.57,1,2.48,2.48,0,0,0,2.8,3.64l.29-.07a33.21,33.21,0,0,0,2.87,3.45,45.17,45.17,0,0,0,5.79,5.1,59.8,59.8,0,0,0,7.65,4.81,102.49,102.49,0,0,0,16.17,6.87,162.79,162.79,0,0,0,17.95,4.77c1.42.3,2.85.61,4.29.84l3.6.57,8.81,1.4c1.39.22,2.78.37,4.19.51l.87.09-.42.81c-.9,1.76-1.77,3.53-2.53,5.35l-1.69.1-18.38,1.06c-8.51.49-17,.75-25.55,1.08q-11.42.44-22.85.72l-6.19.17c-7.08,0-14.15.06-21.22.23h-.12a3.29,3.29,0,0,0-2.32,5.61,3.4,3.4,0,0,0,2.32,1c1.78.09,3.56.2,5.34.23l3.78,0c2.42,0,4.84.08,7.27.1l14.39.07c3.51,0,7,0,10.52,0l9.31,0h1.23c.92,0,1.84,0,2.76,0L350,269.2l6.66-.24c.94,0,1.88-.15,2.82-.24l14.7-1.38a1.74,1.74,0,0,0,.69.48,3.62,3.62,0,0,0,1.14.35,1.8,1.8,0,0,0,1-.17,3.86,3.86,0,0,0,1.19-1l3.3-.31c.61-.06,1.22-.17,1.82-.27l2.88-.48L403.92,263l4.32-.71c.32-.05.63-.14.94-.21l3.06-.67,10-2.22,17.95-1.56,2.9-.25q4.11.37,8.23.6,1.88.76,3.77,1.48a257.57,257.57,0,0,0,43.14,12.31l-.92.73c-2,1.61-4,3.24-6,4.86L484.25,283c-2.64,2.13-5.2,4.35-7.7,6.64q-3.21,2.93-6.13,6.16c-2.07,2.29-4,4.74-5.78,7.22-1.66,2.24-3,4.65-4.51,7a32.18,32.18,0,0,0-2.08,3.63c-.27.6-.51,1.21-.76,1.82a6.71,6.71,0,0,0-.43,2.55,5.72,5.72,0,0,0,.43,1.87,10.34,10.34,0,0,0,.89,1.78,15.28,15.28,0,0,0,1.2,1.61,12.53,12.53,0,0,0,1.33,1.36,21.92,21.92,0,0,0,3.1,2.29c1.27.82,2.63,1.51,4,2.21a66.34,66.34,0,0,0,7.94,3.39c1.58.58,3.17,1.17,4.77,1.7l7.06,2.3c1.49.48,3,1,4.48,1.45l11.46,3.43c3.49,1,7,2,10.52,3,4.14,1.15,8.28,2.29,12.42,3.39a2.66,2.66,0,0,0,1.42-5.12c-4.48-1.2-8.92-2.53-13.38-3.8-3.56-1-7.13-2-10.67-3.07-4.07-1.21-8.16-2.39-12.21-3.67l-8.51-2.69c-3.45-1.09-6.89-2.25-10.24-3.63-1.41-.62-2.78-1.31-4.15-2a31.38,31.38,0,0,1-4.08-2.46,17.17,17.17,0,0,1-2-1.93,11.67,11.67,0,0,1-.82-1.33q-.05-.15-.09-.31v-.2a15,15,0,0,1,.73-2.32c.47-1,1-1.94,1.57-2.89.7-1.2,1.37-2.42,2.07-3.62a65.55,65.55,0,0,1,4.38-6.43l-.34.43a80,80,0,0,1,5.67-6.61c2.18-2.26,4.52-4.36,6.89-6.43,1.06-.93,2.11-1.87,3.21-2.75l2.76-2.18,7.13-5.66c2.66-2.11,5.36-4.17,8-6.3l0,0q12.63,2.2,25.41,3.29c6.43.56,12.88.85,19.34,1.08,2.31.09,4.62.16,6.94.17l17.61.11q8,.05,16,0c3.09,0,6.18-.05,9.27-.14,3.29-.09,6.57-.31,9.86-.47a59.09,59.09,0,0,0,8.31-.87,34.45,34.45,0,0,0,3.49-.91,9.23,9.23,0,0,0,1.33-.52,5.5,5.5,0,0,0,1.56-1,3.88,3.88,0,0,0,.53-.6,6.79,6.79,0,0,0,.6-1.25,5.82,5.82,0,0,0,.22-1.49,4.75,4.75,0,0,0-.19-1.41l-.35-.84c-.28-.51-.59-1-.9-1.49s-.47-.82-.71-1.23c-.9-1.59-1.79-3.19-2.76-4.74L617.29,257c-.37-.58-.7-1.2-1.11-1.76l-3.91-5.37c-.94-1.29-1.84-2.64-2.85-3.88l-3.92-4.8-1-1.29q0-.34.05-.69c.23-3.23.27-6.47.27-9.7,0-6.39-.5-12.75-1.05-19.11-.18-2-.4-4-.63-6.07q-.95-8.33-1.89-16.66c-.13-1.18-.28-2.35-.44-3.53a13,13,0,0,0-.78-8.28q-.27-.68-.58-1.33c-.28-2-.57-4-.84-6-.66-4.86-1.55-9.68-2.62-14.47q1-.8,1.94-1.57c1.89-1.45,3.8-2.85,5.79-4.16,1.05-.7,2.13-1.36,3.2-2,.86-.52,1.72-1.08,2.61-1.56l5.33-2.88c3.31-1.79,6.69-3.44,10-5.22a1.82,1.82,0,0,0-1.4-3.33c-4.58,1.68-9.05,3.69-13.54,5.59-2.05.87-4.07,1.79-6.11,2.69-1.45.64-2.91,1.26-4.34,1.94l-5.76,2.71-.18-.41a37.46,37.46,0,0,0-4.91-7.66,50.5,50.5,0,0,0-4.81-5.28l.26-.08a10.73,10.73,0,0,0,3.82-2,4.76,4.76,0,0,0,1.21-1.53,5.44,5.44,0,0,0,.41-1.57l.08-.45a2.68,2.68,0,0,0-.26-1.94,2.58,2.58,0,0,0-1.5-1.15c-.86-.28-1.71-.52-2.57-.76a33.53,33.53,0,0,0-3.68-.69l-3.13-.5c-1.66-.26-3.33-.48-5-.8-2.05-.39-4.1-.75-6.15-1.13-1.26-.23-2.5-.52-3.74-.82s-2.52-.63-3.77-1a35.69,35.69,0,0,0-4.73-1.94,3.2,3.2,0,0,0-2.46,5.85,17.71,17.71,0,0,0,4.37,1.81c1.94.88,3.89,1.75,5.82,2.65l4.45,2.05c1.33.61,2.65,1.24,3.95,1.9.78.4,1.54.86,2.29,1.34l-3.23,1.15c-1.74.6-3.47,1.23-5.22,1.8l-6.6,2.16-8.88,2.92c-1.15.38-2.31.74-3.46,1.14l-6,2.12-1.28-.28q-3.16-.67-6.33-1.25c1.08-1.25,2.16-2.51,3.16-3.82.86-1.12,1.66-2.27,2.43-3.45a38.71,38.71,0,0,0,2.14-3.43,12.76,12.76,0,0,0,.66-1.63,8.46,8.46,0,0,0,.3-1.69l0-.49a3.19,3.19,0,0,0-.22-1,9.55,9.55,0,0,0-.58-1.34l-.07-.17a2.17,2.17,0,0,0-.92-1.19,2.13,2.13,0,0,0-1.53-.2l-1.86.31a10.91,10.91,0,0,0-2.31.86c-.81.35-1.59.8-2.37,1.2l-2.56,1.32a67.24,67.24,0,0,0-9.42,6,73.44,73.44,0,0,0-6.71,5.78l-2.24-.25c1.27-1.93,2.52-3.87,3.77-5.81a100,100,0,0,0,8.51-15.85,30,30,0,0,0,2.25-8,21.72,21.72,0,0,0-.43-8.26A14.13,14.13,0,0,0,523,97.62a18.14,18.14,0,0,0-2.22-3A15.91,15.91,0,0,0,518,92.31a16.93,16.93,0,0,0-3.94-1.88,33.14,33.14,0,0,0-7.87-1.73,42.85,42.85,0,0,0-4.85-.24c-1.62,0-3.25.06-4.87.09ZM495,92.82c2-.11,4-.14,6-.16a46.52,46.52,0,0,1,6.28.3A33.35,33.35,0,0,1,514,94.7a15.86,15.86,0,0,1,2.47,1.38,13.28,13.28,0,0,1,4,5,15,15,0,0,1,.78,3,25.49,25.49,0,0,1-.09,5.35,32.88,32.88,0,0,1-2.16,7.12q-1.27,2.92-2.69,5.77c-1.09,2.19-2.33,4.3-3.6,6.38s-2.61,4.15-3.94,6.22c-.6.93-1.17,1.86-1.78,2.78l-.45.67q-2.63-.25-5.26-.46c-1.29-.1-2.57-.16-3.86-.21q1.46-.8,2.9-1.64c1.69-1,3.44-1.9,5.07-3a13.72,13.72,0,0,0,2.29-1.93,9.43,9.43,0,0,0,1.42-2.39,2.14,2.14,0,0,0,0-2.09,2.07,2.07,0,0,0-1.79-1c-.73-.09-1.44-.18-2.17-.19a9.62,9.62,0,0,0-1.94.28c-.95.18-1.87.48-2.81.71-1.32.32-2.63.67-4,1-1.86.48-3.71,1-5.56,1.53s-3.84,1.05-5.74,1.64l-7.2,2.24-6.6,2.06c-1.38.43-2.75.95-4.12,1.42l-2.56.88c-.84,0-1.69,0-2.53.05l-8.32.28c-1.68.06-3.36.15-5,.16l-8.2.1-2.21,0c-.25,0-.51,0-.76,0l-2.21-.13-5.24-.32-2.49-.34c-.93-.13-1.9-.2-2.82-.39l-3.58-.76c-.91-.19-1.8-.45-2.7-.68s-1.91-.53-2.87-.81c-.8-.23-1.6-.51-2.4-.74a13.79,13.79,0,0,0-3.74-.56,19.84,19.84,0,0,0-4,.52,29.57,29.57,0,0,0-4,1.16c-2.33.81-4.62,1.75-6.89,2.74a14.29,14.29,0,0,0-3-1.64,44.33,44.33,0,0,0-7.73-2.06,79.49,79.49,0,0,0-9.28-1.26q4.89-3.14,9.94-6a226.38,226.38,0,0,1,24-11.77,329.39,329.39,0,0,1,36.25-12.59A272.43,272.43,0,0,1,482.78,94l-.17,0L483,94l.16,0-.11,0c4-.52,7.91-.94,11.89-1.15ZM336.54,105.28c2-.08,4-.12,5.94-.09a53,53,0,0,1,5.67.46c1.09.16,2.18.36,3.25.61a22.28,22.28,0,0,1,3.39,1.15,18.07,18.07,0,0,1,3,1.64,12.18,12.18,0,0,1,1.49,1.48,16.57,16.57,0,0,1,1.52,2.54,13.37,13.37,0,0,1,.73,2.57,17.75,17.75,0,0,1,0,3.5c-.09.57-.2,1.13-.33,1.7a14.36,14.36,0,0,1-.78,2.24,43.65,43.65,0,0,1-3,5.29c-.83,1.29-1.69,2.56-2.58,3.8-6.26.27-12.51.86-18.73,1.64-3.08.38-6.15.78-9.22,1.25l-9,1.37c-3.61.55-7.21,1.12-10.81,1.74-4.34.75-8.7,1.43-13,2.24l-7.93,1.48c-1.91.36-3.84.68-5.74,1.07l-2.87.6a47.78,47.78,0,0,1,.38-5.42c.2-1.37.45-2.72.77-4.07a33.34,33.34,0,0,1,1.49-4.5c.42-1,.88-1.9,1.39-2.82a24.62,24.62,0,0,1,1.71-2.58,38.17,38.17,0,0,1,6.35-6.34,44.32,44.32,0,0,1,4.07-2.68A39.19,39.19,0,0,1,298,113a111.1,111.1,0,0,1,26.71-6.64l-.53.07c4.11-.55,8.23-1,12.38-1.19Zm24.11,7.5,0,.1,0-.1Zm-70.81,4.84-.2.16.2-.16ZM537.3,127.69q0,.1,0,.19h0l0-.19Zm-.29.08.22-.06,0,.06.07.18s0,.08,0,.12a10.1,10.1,0,0,1-.43,1.4,36.35,36.35,0,0,1-2,3.38c-.86,1.33-1.74,2.63-2.7,3.89-1.22,1.54-2.47,3-3.75,4.54-2.8-.47-5.61-.89-8.43-1.3l-2.89-.4q1.17-1,2.37-1.92c1.14-.87,2.3-1.7,3.49-2.5,1.47-1,3-1.85,4.53-2.71s3-1.62,4.49-2.37c1.34-.66,2.66-1.38,4-2a9.11,9.11,0,0,1,1-.32Zm.31.12h0ZM578,128l.81.1c1.34.16,2.68.26,4,.39-.7.28-1.41.54-2.12.8l-.71.27q-1-.8-2-1.56Zm-40.69.06a2.41,2.41,0,0,1-.06.43l.06-.43Zm-55.16,8.54c3.55-1.13,7.1-2.22,10.66-3.29,1.49-.45,3-.9,4.47-1.32L501,131l.83-.25-1.19.72c-1.17.69-2.33,1.42-3.5,2.11-2.28,1.36-4.63,2.59-7,3.86l-4.39-.17-4.93-.19,1.29-.41Zm65,8.17c1.75-.6,3.55-1.11,5.32-1.66l11-3.42c3.81-1.19,7.62-2.37,11.41-3.64q1.34-.45,2.67-.94,1.93,1.6,3.74,3.33a48.89,48.89,0,0,1,4.47,5,30.23,30.23,0,0,1,3.12,5l-.59.27c-.52.24-1,.47-1.55.73l-11.47,5.94-1.27-.63A142.64,142.64,0,0,0,546.52,145l.59-.2Zm-184.79-8.89c-1.91,1.4-3.79,2.85-5.6,4.4s-3.92,3.36-5.73,5.2a18.47,18.47,0,0,0-4.16,6.27c-.68,1.81-1.21,4.2.34,5.74a5.5,5.5,0,0,0,1.32.89A7,7,0,0,0,350,159a8.72,8.72,0,0,0,4.06-.43c3.17-.74,6.27-1.73,9.39-2.64,2.07-.61,4.08-1.41,6.12-2.13.66-.23,1.34-.44,2-.71l3.41-1.43c1.88-.79,3.77-1.56,5.64-2.4l6.3-2.83,3-1.33-1.8,1.89-3,3.21c-1.13,1.21-2.26,2.42-3.44,3.57l-6.41,6.21c-.94.91-1.86,1.83-2.84,2.68l-6.47,5.62a60.3,60.3,0,0,0-5.39-2.74c-2.6-1.18-5.28-2.18-8-3.13-3-1.06-6.1-2-9.2-2.86-2.53-.68-5.09-1.26-7.66-1.79l.54-.62c1.09-1.27,2.24-2.5,3.37-3.75,3.69-4.11,7.38-8.22,11-12.36,1.43-1.63,2.85-3.25,4.23-4.93q3.73-.15,7.47-.15Zm6.86.18c3.19.16,6.37.44,9.53.85,2.06.31,4.1.7,6.13,1.16a35,35,0,0,1,5.14,1.47c-2.92,1.36-5.83,2.76-8.75,4.14-1.72.81-3.42,1.64-5.16,2.41l-5.91,2.6-3.54,1.33-2.65,1c-.34.13-.69.28-1,.39-3.89,1.24-7.77,2.61-11.75,3.53l.55-.07a3.29,3.29,0,0,1-.85.07,5.11,5.11,0,0,1-.58-.17l-.1-.05v-.08a11,11,0,0,1,.48-1.69,16.89,16.89,0,0,1,1.75-3,37.52,37.52,0,0,1,4.21-4.25c1.89-1.67,3.8-3.31,5.78-4.86,2.2-1.67,4.46-3.25,6.75-4.79Zm-26.86.85c3.09-.33,6.18-.56,9.27-.73-1,1.22-2.06,2.43-3.1,3.64-.8.93-1.59,1.88-2.41,2.8l-5.3,6c-2.53,2.86-5.08,5.69-7.57,8.59h0c-2.34-.45-4.68-.86-7-1.26-5.95-1-12-1.6-18-2.17-1.95-.19-3.9-.31-5.85-.45l-9-.63L283.25,152l-5.11-.34q-.15-.86-.28-1.73-.14-1.14-.23-2.28c1.48-.33,3-.67,4.44-1l8.13-1.57q5.73-1.11,11.48-2.11c4-.71,8.07-1.48,12.13-2.11l16.37-2.52c4-.53,8.1-1.05,12.15-1.48Zm177.5.46-.12.09.12-.09Zm-109.49,1c1.67.36,3.28.93,4.91,1.38,1.09.3,2.18.57,3.28.84.87.22,1.75.38,2.64.56,1.09.22,2.17.44,3.27.58l4,.5c.73.09,1.45.19,2.2.23l7.6.36c.56,0,1.13,0,1.69,0l4.72-.11c1.61,0,3.22-.06,4.82-.13l-.44.18-8.28,3.3-7.91,3.16c-1,.41-2.09.8-3.09,1.27l-14.59,6.9-5.26,2.48c-.93.44-1.83,1-2.73,1.45l-15.88,8.45-5,2.66c-.79.42-1.55.91-2.32,1.37l-6.26,3.72q-1.32-1.38-2.74-2.66a56,56,0,0,0-4.83-3.87l5.65-5c1-.86,1.88-1.79,2.81-2.71l6.34-6.28c1.18-1.17,2.27-2.39,3.39-3.62l2.8-3.1c1.26-1.39,2.55-2.75,3.7-4.22a23.39,23.39,0,0,0,2-2.84,3.69,3.69,0,0,0,.45-1.42c1.65-.67,3.31-1.29,5-1.87a33.77,33.77,0,0,1,5.61-1.47,14.19,14.19,0,0,1,2.47-.06Zm65.19,3.29,4.41-.1c.92,0,1.86,0,2.79.08l-12.23,7.16c-1.07.62-2.1,1.33-3.15,2q-1.88,1.2-3.74,2.43-4,2.65-8,5.45t-8,6l-2.54.63c-3.13.81-6.19,1.79-9.24,2.86a93.09,93.09,0,0,0-16.27,7.36,58.21,58.21,0,0,0-13.69,10.55,47,47,0,0,0-5.07,6.68q-.29.45-.56.92l-.56,0c-1.41.09-2.8.3-4.2.49s-2.95.48-4.41.75l-2.19.39a59.89,59.89,0,0,0-3.27-7.11,48.31,48.31,0,0,0-4.49-6.84l6.5-3.86c2.65-1.57,5.41-2.94,8.12-4.39l15.23-8.11c2.86-1.53,5.82-2.84,8.75-4.23l12.86-6.09,12.43-5c3.21-1.28,6.38-2.65,9.65-3.79l11.58-4,9.31-.21Zm-4,10.48c1-.6,1.94-1.15,2.92-1.71l5.88-3.38,8.52-4.89.52-.3,8,.26c1.79.06,3.57.16,5.35.3l1,.08L500.07,148q-3.9,5.85-7.78,11.72l-.43.65h-.29a181.53,181.53,0,0,0-18.84.57,166.21,166.21,0,0,0-17.48,2.15c5.31-3.82,10.76-7.42,16.31-10.89Zm28.18,2.32,7.82-11.63,1.21.12c-1.57,1.81-3,3.69-4.48,5.6q-3.27,4.33-6.12,8.94-.76,1.22-1.51,2.46l-.82.35c1.28-2,2.59-3.89,3.89-5.82Zm12.14-10,1-1q2.9.33,5.8.71l-.58-.08q3.52.48,7,1l-4.7,5.39-12.92,5.18-6.41,2.57c1.42-2.18,2.94-4.3,4.52-6.37l-.23.31c2.05-2.66,4.19-5.25,6.5-7.7Zm16.9,1.72.39-.44,3,.53-.29.1L527.15,148l1.63-1.84Zm-6,7c.82-.33,1.67-.59,2.5-.88l7.84-2.69,5.78-2q2,.42,3.94.89a149.15,149.15,0,0,1,23.1,7.42q2.27,1,4.5,2l-.61.33-5.17,2.9-13.75,7.71-10.52,5.88c-4.42,2.47-8.83,5-13.28,7.37-3.28,1.77-6.54,3.54-9.86,5.24s-6.58,3.15-9.95,4.58a82.63,82.63,0,0,1-8.28,3,54.71,54.71,0,0,1-5.64,1.35,14.17,14.17,0,0,1,.05-1.73q.1-.44.22-.86c1.82-.47,3.63-1,5.44-1.45q4.33-1.16,8.58-2.56c3-1,5.92-2,8.82-3.11,1.24-.48,2.45-1,3.65-1.6s2.33-1.27,3.47-1.94a34.2,34.2,0,0,0,3-2,11.62,11.62,0,0,0,2.68-2.64,8.57,8.57,0,0,0,1.38-6.3,5.88,5.88,0,0,0-1.28-2.79,13.48,13.48,0,0,0-3-2.5,24.19,24.19,0,0,0-7.28-3c-1.62-.44-3.26-.81-4.9-1.13l5.87-6.81q1.16-1.35,2.34-2.68l.33-.13Zm-256.26-2.84,4.49-1.13c1.17-.3,2.35-.56,3.54-.82q.1.82.23,1.63t.25,1.49l-.62,0c-2.82-.19-5.65-.37-8.46-.72l-.68-.11,1.25-.3Zm331.22-1.61q-1.31,1-2.59,2L595,150l2.78-1.31Zm-9.14,4.3c.49-.26,1-.5,1.5-.74.22.76.42,1.53.62,2.3-1.67,1.58-3.26,3.26-4.78,5q-.54.61-1,1.23c-.88-.54-1.78-1.07-2.68-1.58s-1.79-1-2.7-1.49l9.09-4.7Zm-238.14,1.85.08,0-.08,0Zm-.25.29,0,.18q0-.09,0-.18Zm165.43.85-4.11,4.8-1.13,1.31-.41-.06q-3.62-.55-7.25-.93L515.64,156Zm-236.39.54,9.43.65,13,.92,4.94.35c2.05.15,4.1.39,6.14.59q3.84.38,7.66.88h0c3.08.42,6.15.94,9.22,1.5l-6.52,7.64c-.5.58-1,1.2-1.45,1.8q-1.23,1.55-2.44,3.12c-1.94,2.54-3.83,5.11-5.61,7.76l-.1.15-.91-.36q-2.92-1.18-5.88-2.22a1.15,1.15,0,0,0-1-.68l-1.32-.12-1.12-.37c-2.86-.94-5.75-1.79-8.68-2.51q-1.34-.33-2.7-.6-.81-.53-1.59-1.11a30.1,30.1,0,0,1-2.46-2.16,26.6,26.6,0,0,1-2.13-2.45c-1-1.28-1.86-2.59-2.69-3.95a35.18,35.18,0,0,1-2.13-4.21,46.06,46.06,0,0,1-1.64-4.61ZM591.59,158c.56,2.39,1,4.81,1.44,7.23q.15.87.3,1.74c-1.29-1.11-2.67-2.13-4-3.16q-.93-.72-1.9-1.38,2-2.32,4.17-4.44Zm-270.83,2,.29,0-.29,0Zm181.44,38c3-1,6-2.25,8.91-3.51,5.71-2.46,11.19-5.34,16.66-8.28,8.39-4.52,16.69-9.2,25-13.85L566,165l5.65-3.16c1-.58,2.11-1.1,3.17-1.65h0l2.08,1.09c1.82,1,3.61,2,5.36,3q-.56.82-1.09,1.67a51.78,51.78,0,0,0-3.91,7.84,49.69,49.69,0,0,0-2.55,8.26,38.6,38.6,0,0,0-.8,8.95,37.78,37.78,0,0,0,1.09,8.13c.22.92.49,1.84.8,2.74l-1.53.69a108,108,0,0,1-14,4.54,135.55,135.55,0,0,1-15.38,3c-5.06.65-10.16,1.09-15.27,1.29A89.49,89.49,0,0,1,515,210.7a52.79,52.79,0,0,1-11.89-3.1,24.84,24.84,0,0,1-4.73-2.69,21.9,21.9,0,0,1-3-2.92,14,14,0,0,1-1.21-2,60,60,0,0,0,8-2ZM280.93,161.26l.07.17-.07-.17Zm43.74,9.29,1.71-2,5.72-6.66c2.6.5,5.19,1,7.77,1.65,3.17.75,6.28,1.68,9.38,2.68,2.85.92,5.67,1.92,8.44,3.07,1.54.66,3,1.38,4.53,2.15L360,173.34c-.75.65-1.51,1.25-2.29,1.86l-6.7,5.24L343,186.76,335.92,192l-10.2-4.69-6.81-3.12c-1.11-.51-2.24-1-3.38-1.45q2.65-3.91,5.54-7.64l0,0c1.18-1.54,2.36-3.1,3.62-4.57Zm167.69-4.75h.73L492,167.54c-1.77,2.85-3.51,5.71-5.35,8.52,1.73-3.51,3.65-6.93,5.7-10.26Zm92.41.07q1.33.89,2.6,1.86a38.61,38.61,0,0,1,6.41,5.92q.41.57.77,1.15l1.46,9.84-.09.25c-.21.48-.43.95-.67,1.42a14.42,14.42,0,0,1-1.26,2,44.58,44.58,0,0,1-7.13,6.94,60.94,60.94,0,0,1-8.48,5.35l-.26-.81a33.59,33.59,0,0,1-1.05-4.83,40.31,40.31,0,0,1,0-9.59,48.27,48.27,0,0,1,3.3-11.43,50.2,50.2,0,0,1,4.43-8.06Zm-95.88,11.29c1.42-2.1,2.78-4.25,4.14-6.38,1-1.63,2.09-3.25,3.14-4.87,3.51.15,7,.43,10.5.8l-3.3,4.19-1.88,2.38c-1.4,1.77-2.68,3.64-4,5.5a79.29,79.29,0,0,0-4.69,7.77c-.69,1.31-1.28,2.68-1.88,4-.14.32-.28.64-.4,1l-2.24.56-8.51,2.09,0-.06a3.83,3.83,0,0,1-.12-.41v-.24a19.91,19.91,0,0,1,.72-2.41q.54-1.61,1.17-3.18l.57-1.41q3.54-4.57,6.78-9.35ZM475,166.42c2.78-.21,5.55-.38,8.33-.5l-13.06,5.83c-.78.34-1.53.75-2.28,1.13l-7.21,3.63-14.49,7.29c-.75.37-1.47.79-2.2,1.21l-7.16,4.06-8,4.57-2.55,1.45c-.3.17-.61.33-.9.52l-12.8,8.34-2.55,1.66-.76.51a195.06,195.06,0,0,1,18.31-19.94c5.32-5.11,10.87-10,16.59-14.63l2.34-.65A140.83,140.83,0,0,1,463,167.59c4-.52,8-.88,12-1.18Zm35.57.75.12,0-.12,0Zm-2.94,3.74,2.61-3.32.32-.42.19,0c1.94.28,3.87.61,5.79,1a43.45,43.45,0,0,1,5.88,1.54,19.39,19.39,0,0,1,3.4,1.91,8.13,8.13,0,0,1,.7.71l.12.22a7.17,7.17,0,0,1,.23.87,11.29,11.29,0,0,1,0,1.34,7.88,7.88,0,0,1-.27,1.06,9.38,9.38,0,0,1-.58.94,15.52,15.52,0,0,1-1.89,1.82c-1.22.91-2.49,1.74-3.79,2.54a36.51,36.51,0,0,1-4.77,2.39,158.22,158.22,0,0,1-17.25,5.87l-3.37.94c.41-.92.83-1.83,1.28-2.73.69-1.34,1.45-2.64,2.23-3.93,1.68-2.83,3.59-5.51,5.52-8.16l3.66-4.65Zm-98.11,39.7c.63-.46,1.24-.94,1.89-1.38l1.88-1.26,7.48-5,6.1-4.06c.83-.56,1.72-1,2.59-1.53l15.27-8.81c.93-.54,1.84-1.12,2.8-1.61l4.81-2.44L467.22,177l4.17-2.12c.64-.33,1.31-.6,2-.9l14-6.24q-1.36,2.36-2.62,4.78-1.72,3.28-3.24,6.66c-1,2.16-1.83,4.37-2.75,6.56l.17-.41c-.46,1.07-.92,2.15-1.35,3.23q-3.27,4.05-6.8,7.87c-8,2-16.07,3.8-24.1,5.68-7.45,1.74-14.91,3.43-22.35,5.19l-15.15,3.58.37-.27Zm-64.28-19.24c.87-.66,1.72-1.34,2.58-2l6.77-5.37,6.65-5.28c.78-.62,1.54-1.23,2.28-1.88l3.11-2.74c1,.66,2,1.36,2.9,2.07a55.89,55.89,0,0,1,4.25,3.7l-5.08,3c-2.5,1.49-5,2.94-7.47,4.5l-14.87,9.44-5.19-2.39,4.07-3Zm90.63-17.12a254.39,254.39,0,0,0-22,21.36q-1,1.13-2,2.28,0-.14,0-.28a5.19,5.19,0,0,0-.47-1.47,5.35,5.35,0,0,0-.84-1.15,3.83,3.83,0,0,0-1.25-.77,7,7,0,0,0-1.49-.47,9,9,0,0,0-1-.15l.52-.71q1.61-2,3.41-3.86a39.65,39.65,0,0,1,3.77-3.35,79.19,79.19,0,0,1,16.75-9.62q2.31-1,4.66-1.81Zm-156.2,4a50.32,50.32,0,0,1,6.59.48c2.38.34,4.75.76,7.09,1.29,2.69.61,5.34,1.4,8,2.22,3.27,1,6.49,2.2,9.67,3.46-.73,1.16-1.43,2.32-2.1,3.51a60.94,60.94,0,0,0-3.78,8.21,33.66,33.66,0,0,0-2,7.92,32.3,32.3,0,0,0,0,8.68q.06.39.12.78c-3.51,2.16-7.1,4.22-10.69,6.25a148.6,148.6,0,0,1-14.2,7.15c-3.34,1.38-6.74,2.61-10.17,3.72a67.52,67.52,0,0,1-10.82,2.56,49,49,0,0,1-11.54.06,30.26,30.26,0,0,1-6.41-1.69,25.79,25.79,0,0,1-4.46-2.59,18.45,18.45,0,0,1-2.17-2.1,16.39,16.39,0,0,1-1.46-2.52,16.69,16.69,0,0,1-.8-2.8,16.33,16.33,0,0,1,.09-2.81,34.18,34.18,0,0,1,.81-3.73,33.31,33.31,0,0,1,1.29-3.58,73.41,73.41,0,0,1,3.36-6.82,59.34,59.34,0,0,1,4.61-6.86,70.07,70.07,0,0,1,4.75-5.41,64.39,64.39,0,0,1,6.31-5.61,56.07,56.07,0,0,1,11.06-6.5,49.29,49.29,0,0,1,5.05-1.77,38,38,0,0,1,5.2-1.07,59.24,59.24,0,0,1,6.63-.41Zm-6,.33-.37.05.37-.05Zm91.07,12.56c2.76-1.75,5.62-3.37,8.43-5l4.2-2.5.83,1a56.36,56.36,0,0,1,6.53,11.21l.13.31-3.54.73c-4.07.84-8.17,1.62-12.22,2.54L357.7,202l-1.18-.55-4.64-2.13,12.84-8.16Zm-54.3-.2c.81-1.52,1.7-3,2.62-4.44l3.54,1.46q7.64,3.49,15.25,7l-8.48,6.26c-1.35,1-2.72,2-4.1,2.92-4.36,3-8.73,6-13.2,8.88l-.78.5a34.07,34.07,0,0,1,.06-8.12,37.3,37.3,0,0,1,1-4.65A43.41,43.41,0,0,1,308,196l-.11.26c.76-1.8,1.58-3.56,2.5-5.28Zm6.34-2.9.32.14-.32-.14Zm267.81,14.14a58.25,58.25,0,0,0,6.69-4.86,41,41,0,0,0,5.67-5.71q.82,7.06,1.64,14.12c.53,4.6.89,9.22,1.19,13.84.26,4.06.34,8.11.29,12.17q0,1.33-.06,2.65c-2.4-2.91-4.83-5.79-7.14-8.77-2.43-3.2-4.79-6.47-7-9.83a74.65,74.65,0,0,1-5.87-11q2.35-1.19,4.6-2.57Zm-108.5-8.34a5.36,5.36,0,0,0,.22,1.19l-1.63.4,1.41-1.59Zm13,1,.64-.16c0,.07,0,.14,0,.2a17.21,17.21,0,0,0,0,1.92,24.55,24.55,0,0,1-4.53,0,18.79,18.79,0,0,1-2.16-.46l6.1-1.48Zm97.65.43,0,0,0,0ZM406.9,197.45a5.34,5.34,0,0,1,.82.22l.21.12,0,0,.13.21a3.89,3.89,0,0,1,.13.48,2.32,2.32,0,0,1-.08.68l.07-.48-.13.37c-.32.64-.65,1.27-.94,1.92s-.51,1.15-.77,1.73c-.38.86-.75,1.73-1.15,2.58l-.85,1.79q-.85,1.16-1.68,2.33l-1,1.46a29.1,29.1,0,0,1,.09-5.62,27.58,27.58,0,0,1,1.58-5.84q.48-1,1-2a19,19,0,0,1,2.53.05ZM320,210c2.06-1.44,4.11-2.88,6.12-4.38l6.5-4.86,4.46-3.33,2.81,1.3,1.94.9-1.66,1.05-13,8.24-4.59,2.9c-.4.15-.78.32-1.17.47-2.18.86-4.36,1.75-6.54,2.59-1.86.72-3.68,1.58-5.51,2.37,3.6-2.35,7.14-4.79,10.66-7.25Zm87.3-12.54.35.15-.35-.15Zm.58.09.1.23h0l-.09-.22Zm69.89.07a6,6,0,0,0,.72.65,13.28,13.28,0,0,0,6.45,2.26,24.62,24.62,0,0,0,5.35,0,14.83,14.83,0,0,0,.6,1.48,13.85,13.85,0,0,0,2,3.05,19.6,19.6,0,0,0,3.33,3.15,27.14,27.14,0,0,0,6.83,3.68,50.34,50.34,0,0,0,8.83,2.48,74.83,74.83,0,0,0,8.64,1,92.16,92.16,0,0,0,9.81.18,159.57,159.57,0,0,0,19.06-1.81,128.33,128.33,0,0,0,18.57-4.3,81.08,81.08,0,0,0,8.39-3.06l1-.46q.38.87.77,1.73a79.18,79.18,0,0,0,4,7.71c1.59,2.65,3.39,5.18,5.2,7.68,1.21,1.68,2.42,3.36,3.7,5,1.54,2,3.13,3.91,4.73,5.84,1.3,1.57,2.58,3.15,3.87,4.73-.12,1.78-.28,3.55-.5,5.33a59.09,59.09,0,0,1-3.33,13.79,34,34,0,0,1-3.32,6,18,18,0,0,1-2.54,2.58,19.69,19.69,0,0,1-2.93,1.73,14.33,14.33,0,0,1-2.63.74,22.64,22.64,0,0,1-4.42-.1,33.21,33.21,0,0,1-7-2.24,70.88,70.88,0,0,1-6.4-3.26q-3.6-2-7.09-4.25-3.33-2.13-6.6-4.37c-4.38-3-8.79-5.95-13-9.17-1.59-1.26-3.11-2.59-4.61-4a40.89,40.89,0,0,1-4.16-4.3c-.58-.78-1.12-1.59-1.63-2.42l.42-.1c5.46-1.25,10.93-2.41,16.37-3.78l5.78-1.45c1.38-.35,2.75-.78,4.12-1.18s2.8-.86,4.2-1.33c1-.32,1.9-.65,2.83-1s1.6-.7,2.4-1.07a6.27,6.27,0,0,0,1.14-.64,7.27,7.27,0,0,0,1.36-1.27,2.2,2.2,0,0,0,.34-2.65,8.88,8.88,0,0,0-1-1.42,6.22,6.22,0,0,0-1.29-1,8.4,8.4,0,0,0-1.57-.63,11.62,11.62,0,0,0-1.74-.38c-1.33-.24-2.67-.44-4-.57a51.65,51.65,0,0,0-5.35-.18,76.57,76.57,0,0,0-8.82.63,82,82,0,0,0-8.83,1.53,33.2,33.2,0,0,0-7.38,2.61,16.3,16.3,0,0,0-3.21,2.08,8,8,0,0,0-2.42,3.52,14.26,14.26,0,0,0-.69,3.67,7.89,7.89,0,0,0,.09,1.74c-3.17.73-6.35,1.46-9.51,2.27L497.82,238c-1.53.39-3.06.8-4.58,1.22a94.28,94.28,0,0,0-11.81.84c-3.07.39-6.13.83-9.17,1.34-3.33.56-6.64,1.23-9.94,1.92-3.08.64-6.16,1.28-9.23,2l-14,3.19q-2-1-3.94-2a113.78,113.78,0,0,1-10.36-6.24c2.5-2.39,5.1-4.69,7.65-7,1.09-1,2.16-2,3.29-3l6.41-5.48c1.34-1.15,2.67-2.31,4-3.44l5.73-4.71,4.92-4c2.3-1.89,4.52-3.89,6.73-5.89,2.39-2.16,4.69-4.42,6.93-6.72l.69-.71,6.66-1.62Zm-79.5.09a28.28,28.28,0,0,0-1,3.15,31.51,31.51,0,0,0-.67,4.06,27.38,27.38,0,0,0,.33,8.13q.06.35.14.69l-.55.13-3.67.89a74.7,74.7,0,0,0-1.32-10.14,56.74,56.74,0,0,0-1.39-5.52c2.51-.46,5-1,7.54-1.31l.6-.07Zm9.72.08h0v0Zm0,.06h0l0,.1,0-.1Zm.14.21a2.39,2.39,0,0,1,0,.34l0-.34Zm-39.07,5.4c3.39-.78,6.79-1.45,10.19-2.16l6.9-1.44a68.49,68.49,0,0,1,2.6,11.37q.27,2.2.41,4.41l-9.79,2.41-4,1a4.79,4.79,0,0,0,.44-1.78,8.51,8.51,0,0,0-.56-3.36,8.88,8.88,0,0,0-1.84-2.79,15.65,15.65,0,0,0-2.76-2.2c-1.19-.82-2.45-1.59-3.69-2.34s-2.25-1.27-3.41-1.84l5.55-1.27Zm47.6,8.65c16.8-4.06,33.64-8,50.47-11.94l-.34.35c-2.09,2.12-4.26,4.15-6.47,6.15-1.72,1.54-3.43,3.1-5.2,4.57l-5.91,4.94c-1.53,1.27-3.08,2.53-4.59,3.83q-5.34,4.61-10.71,9.2c-1.36,1.17-2.65,2.42-4,3.63l-5.71,5.22c-.37.34-.73.69-1.09,1q-1.7-1.2-3.36-2.46a68.75,68.75,0,0,1-11.5-11.26c-.87-1.16-1.69-2.34-2.45-3.58a41.39,41.39,0,0,1-2.54-4.95l-.14-.37.66-1.22q6.44-1.59,12.88-3.15Zm-74.21-6.86,4.87-3.09,3.14,1.45,0,0c-2.46.61-4.9,1.28-7.34,1.93l-2,.54,1.34-.84Zm-13.74,8.89,7.27-2.47c.33-.11.67-.19,1-.28l3.57-1,9-2.39c1.15-.3,2.3-.63,3.47-.9l3.41-.78c2.16,1,4.31,2,6.42,3.13,1.19.63,2.34,1.34,3.47,2.07.95.61,1.91,1.21,2.82,1.87a11.55,11.55,0,0,1,1.49,1.46,5,5,0,0,1,.28.48,8.74,8.74,0,0,1,.3,1.11,4.86,4.86,0,0,1,0,.56v.06l-.12.18a15.21,15.21,0,0,1-1.54,1.44,31.17,31.17,0,0,1-4.82,2.66l-.86.34-.58.13a2.76,2.76,0,0,0-1.13.71,2.13,2.13,0,0,0,2.07,3.56c.69-.2,1.37-.4,2-.64s1.18-.49,1.76-.74l.27-.12.57-.16,3.06-.87c2.35-.67,4.7-1.3,7.05-1.94q5.16-1.43,10.36-2.77,0,1.87,0,3.73-1.43,1.48-2.81,3c-1,1.07-1.91,2.15-2.89,3.2a26.31,26.31,0,0,0-2.73,3.59,4.8,4.8,0,0,0-.81,3.43,6.86,6.86,0,0,0,1.42,2.93,18,18,0,0,0,3.75,3.57L382.6,247c-.76,1.36-1.5,2.73-2.23,4.12L376,250.7l-13.46-2.15c-1.25-.2-2.49-.46-3.73-.72q-4.4-.89-8.75-2c-2.87-.73-5.71-1.59-8.54-2.48-3-1-6-2-9-3.24l.27.11c-2.83-1.19-5.6-2.52-8.32-4a56.52,56.52,0,0,1-7.59-4.75,43.76,43.76,0,0,1-7.5-7.19c.53-.12,1.05-.26,1.58-.41a16,16,0,0,0,1.94-.78q1-.43,1.94-.9c2.8-1.36,5.44-3.07,8.09-4.7q2.54-1.56,5.05-3.14l.7-.24Zm42.55,2.5a2.73,2.73,0,0,1,0,.27l0-.27Zm-61.53.43-.41.17h0l.41-.17Zm61.41.14a2.33,2.33,0,0,1-.16.38l.16-.38Zm23.43.35L393,219.07q0-.53,0-1.06l1.62-.41Zm-77.91,1.26,0,0h0Zm243.42,1.87c.93.14,1.87.28,2.79.51l-.17.07a66.59,66.59,0,0,1-6.67,2.26c-2,.57-4,1.16-6,1.68l-7.59,1.94c-1.9.49-3.83.89-5.74,1.34l-8.83,2.06a12,12,0,0,1,0-1.35,10.39,10.39,0,0,1,.42-1.57q.09-.17.19-.33a10.41,10.41,0,0,1,.91-.88q.85-.61,1.73-1.17a14.73,14.73,0,0,1,2-1,43.07,43.07,0,0,1,6-1.91c2.22-.54,4.47-.94,6.73-1.26a58.79,58.79,0,0,1,14.13-.36Zm.27,0,.15,0-.15,0Zm-160,.92c4.62,8.38,12.08,14.95,19.93,20.33q-1.21,1.24-2.37,2.53c-1.06,1.18-2,2.42-3,3.69l-.67-.15c-3.19-.7-6.35-1.54-9.49-2.43l-1.38-.41a26.79,26.79,0,0,1-2.61-2.82,20.57,20.57,0,0,1-2.1-3.55,23.31,23.31,0,0,1-1.23-4.66,23.61,23.61,0,0,1-.08-4.82,28.2,28.2,0,0,1,1-4.18q1-1.76,2-3.54Zm-5.18,1,.4-.39q-.57,1.47-1,3-.2.63-.35,1.27l-2.09,3.71q.4-2.51.63-5,1.21-1.28,2.46-2.51Zm197.56,2.84.1.13-.1-.13Zm-184.33,0,.16.21-.16-.21ZM387.62,231c.35-.4.7-.81,1-1.22q-.62,4.07-1.59,8.08A17.75,17.75,0,0,1,385,235.8a5.61,5.61,0,0,1-.36-.6v0l0-.07a19.94,19.94,0,0,1,1.44-2.32c.5-.6,1-1.19,1.53-1.78Zm6,2.46a21.39,21.39,0,0,0,1.87,7.65q.4.85.87,1.66l-.4-.16a62.32,62.32,0,0,1-5.94-2.82l0-.06,3.59-6.27Zm-9.06,1.19v0Zm.14.62.14.33a3.13,3.13,0,0,1-.14-.33Zm126.24,3.9c1.57-.4,3.15-.83,4.73-1.19l8.16-1.87c.26.55.56,1.08.86,1.6a31,31,0,0,0,2.76,3.95,28,28,0,0,0,2,2.29l-.67.13c-1.19.22-2.37.5-3.56.74s-2.6.52-3.89.79l-6,1.23-.14,0q-.23-.31-.48-.61a16.12,16.12,0,0,0-2.79-2.67,15.18,15.18,0,0,0-3.32-1.82,29.29,29.29,0,0,0-3.4-1.15l5.69-1.43Zm-91-2.46.29.23-.29-.23Zm2,6.37a121.13,121.13,0,0,0,11.54,6.7l-4.27,1c-4.07-.6-8.14-1.27-12.17-2.09l.06-.09-.06.07.1-.13,0-.07,0,0a67.58,67.58,0,0,1,4.77-5.41Zm164.2,30.84a15,15,0,0,0,3.58-1.25,16.65,16.65,0,0,0,3.24-2,18.83,18.83,0,0,0,2.77-2.59,24.56,24.56,0,0,0,2.63-3.78A34.69,34.69,0,0,0,600,260.7c.54-1.25,1-2.51,1.46-3.8a57.6,57.6,0,0,0,2-9q.32-2,.56-3.95l3.27,4,3.59,4.92c1,1.42,2.15,2.82,3.09,4.3,1.23,2,2.46,3.91,3.7,5.85.61,1,1.15,2,1.72,2.95l.75,1.27c.45.76,1,1.46,1.35,2.25l.09.36a4.56,4.56,0,0,1,0,.72,3.8,3.8,0,0,1-.15.57l-.16.27a3.3,3.3,0,0,1-.3.28,9.41,9.41,0,0,1-1.13.6,31.52,31.52,0,0,1-5.88,1.46c-2.86.36-5.74.47-8.61.64-3.09.2-6.17.31-9.26.37s-6.18.08-9.27.09c-1.66,0-3.32,0-5,0l-14.94-.14-13.64-.12c-2.34,0-4.69-.18-7-.29q-5-.22-10.07-.55c-6.43-.42-12.84-1.08-19.23-1.94l.37.05q-5.37-.73-10.7-1.66c1.1-1,2.18-2.08,3.25-3.13a29.38,29.38,0,0,0,5.18-6.41,21.19,21.19,0,0,0,1.43-3.39,17.58,17.58,0,0,0,.75-3.72,8,8,0,0,0-.13-2.63l.31-.07c1.06-.24,2.11-.49,3.17-.74,1.69-.24,3.38-.49,5.07-.79,1.43-.26,2.84-.57,4.25-.93,1.11-.28,2.2-.68,3.29-1.06l.08.07c2.31,2.06,4.84,3.88,7.35,5.7,2.08,1.51,4.22,2.93,6.34,4.37,2,1.33,3.9,2.68,5.89,4a128,128,0,0,0,16.26,9.31c1.33.6,2.7,1.13,4.07,1.65a31.18,31.18,0,0,0,4.17,1.27,24.2,24.2,0,0,0,4.06.49l.88,0a22.55,22.55,0,0,0,3.73-.36ZM388.54,244.48c2.08,1.12,4.28,2,6.45,2.94a79.21,79.21,0,0,0,8.21,2.85,27.9,27.9,0,0,0,3.61,2.22q.64.33,1.3.63H408c-1.63-.07-3.25-.15-4.88-.24-2.72-.15-5.46-.28-8.19-.47-2.9-.2-5.8-.35-8.69-.65l-.46,0q1.49-3.57,2.73-7.24Zm103.46.71a58.77,58.77,0,0,1,8.52.23,31.63,31.63,0,0,1,6.77,1.71,14.14,14.14,0,0,1,1.76,1l-4,.82-2.91.32c-3.08.34-6.16.67-9.25.94-8.64.75-17.27,1.53-25.92,2.24l-9.77.82-.87,0q2.28-.49,4.55-1c5.51-1.28,11-2.76,16.44-4.23l8.84-2.39c2-.21,3.91-.36,5.88-.42Zm-115.84,5.53.11,0-.11,0ZM499,254.89q5-1,10-2.06l3.19-.71,0,.19a11.17,11.17,0,0,1,0,2.09,19.82,19.82,0,0,1-.91,3.27,18.6,18.6,0,0,1-2,3.3c-1.52,1.89-3.23,3.59-4.93,5.32-1,1.06-2.13,2.05-3.25,3q-8.53-1.66-16.94-3.88-11.43-3-22.54-7.13h2.1A189.47,189.47,0,0,0,499,254.89Zm-116.16,3.39q1.06-2.19,2-4.42l2.63.26c1.23.12,2.48.15,3.71.22l4.45.27c4.33.25,8.67.27,13,.47-.88.19-1.75.38-2.64.52l-8,1.26L385,258.91l-1.72.13-.82.06.4-.82Zm213-.33-.1.25.1-.25Zm-86.17,2.62-.14.18.14-.18Zm111.94,9.82q0,.1,0,.2l0-.2Zm-.26,1,0,.08,0-.08Zm-.4.38-.25.19.25-.19ZM461.87,318.18l.18.43a4.58,4.58,0,0,1-.18-.43Zm-44.8-69.65,0,.06.06-.08,0,0ZM483,94l-.23,0,.28,0Z"/><path class="cls-1" d="M487.23,540l-5.87.16c-3.55.11-7.09.26-10.64.43s-7,.34-10.53.43-7.31.11-11,.12-7.55,0-11.33.09c-3.51,0-7,.15-10.52.27-1.79.06-3.59.13-5.39.17s-3.89.07-5.84.08-3.84,0-5.75,0l-5.27,0q-5.46-.05-10.91,0c-7.29.09-14.58.34-21.86.7q-5.28.26-10.52.9c-1.74.21-3.47.43-5.21.62s-3.63.34-5.45.47c-3.6.25-7.22.26-10.83.21s-7.31-.17-11-.28c-3.49-.1-7-.09-10.48-.11q-5.67,0-11.34-.08c-3.09,0-6.19-.13-9.28-.24-2.86-.1-5.72-.32-8.59-.39-6.36-.15-12.7.36-19,.82a1,1,0,1,0,0,1.92c4-.29,8-.6,12-.75,1.7-.06,3.39-.11,5.09-.1s3.51.08,5.27.17c3.53.19,7.06.34,10.59.42s7.27.12,10.92.14,7.39,0,11.09,0,7.18.18,10.77.27,7.15.18,10.71.06,7.18-.37,10.75-.79c1.78-.22,3.55-.46,5.33-.65s3.51-.35,5.28-.46c3.55-.23,7.11-.34,10.66-.48s7.2-.26,10.79-.32,7.3-.12,10.95-.09c7.37,0,14.75.23,22.12,0,3.75-.11,7.49-.26,11.23-.34s7.41-.12,11.11-.14c3.54,0,7.09,0,10.64-.06s7.14-.14,10.71-.31c7.32-.37,14.64-.67,22-.81,1.9,0,3.8,0,5.7,0s3.63.16,5.44.26,3.62.19,5.44.26c1.65.07,3.31.11,5,.18,3.65.14,7.29.3,10.93.43l11.14.39c7.08.24,14.17.31,21.26.33,3.58,0,7.16,0,10.74-.19s7.45-.31,11.17-.43c2.95-.09,5.89-.19,8.84-.2s6,0,8.93.12,5.84.15,8.76.19c1.54,0,3.08,0,4.62.13s3.29.25,4.93.37a1,1,0,1,0,0-1.92c-1.91-.15-3.83-.31-5.74-.43s-3.64-.16-5.46-.21c-3.5-.09-7-.23-10.49-.32s-7-.05-10.47,0q-5.55.15-11.09.41c-3.49.15-7,.34-10.47.36s-7.2,0-10.81,0-7.3-.1-10.94-.18-7-.24-10.56-.36q-5.72-.21-11.45-.45c-3.61-.15-7.21-.26-10.82-.41-1.83-.08-3.66-.19-5.48-.29s-3.58-.15-5.38-.2l-1.6,0c-1.18,0-2.36,0-3.54.05Z"/><path class="cls-1" d="M435.28,575.81c-7.36.17-14.72.19-22.08.3q-5,.08-10,.28c-3.72.14-7.44.26-11.17.31s-7.47.08-11.21.11-7.23.11-10.85.19c-7.25.16-14.5.26-21.74.59-3.53.16-7,.47-10.59.6s-7,.09-10.58.07-7.22,0-10.83-.08l-5.82-.1c-1.74,0-3.49-.08-5.23-.19-2.71-.15-5.41-.37-8.11-.6-1.45-.12-2.91-.21-4.36-.26-1.29,0-2.59,0-3.88,0s-2.8.1-4.19.17-2.69.23-4,.38-2.86.4-4.29.65c-1.65.29-3.28.67-4.91,1a1,1,0,0,0-.67,1.18,1,1,0,0,0,1.18.67c1.53-.36,3.05-.72,4.59-1,.67-.12,1.34-.26,2-.35l2.09-.29h0c.81-.09,1.61-.2,2.42-.26q1.51-.12,3-.19c1.65-.08,3.3-.14,5-.13,1.81,0,3.61.07,5.41.22s3.56.31,5.34.44,3.75.23,5.62.31,3.68.11,5.52.15c3.61.07,7.23.09,10.84.11s7.11.05,10.66,0c1.7,0,3.39-.05,5.09-.15l5.5-.34c3.58-.2,7.15-.37,10.73-.46l11.1-.24c3.63-.08,7.27-.17,10.91-.22s7.44-.07,11.16-.11,7.36-.11,11-.23c3.35-.11,6.71-.22,10.06-.26q5.57-.08,11.14-.1c3.54,0,7.08,0,10.62-.06s7.23-.14,10.85-.18c1.75,0,3.5-.05,5.25,0,2,.05,4,.11,6,.19,3.46.14,6.92.34,10.38.46s7.18.17,10.77.27c3.75.1,7.49.25,11.23.41s7.19.25,10.78.34c7.12.17,14.24.2,21.36.32,3.54.06,7.09.11,10.62.39,3.77.3,7.53.68,11.29,1,3.4.32,6.82.56,10.23.76q5.46.32,10.93.53,5.26.21,10.5.62c3.57.28,7.12.6,10.7.78,4.06.2,8.12.32,12.18.31,2,0,4,0,6,0,2.33,0,4.65-.13,7-.26a1,1,0,0,0,1-1,1,1,0,0,0-1-1c-2,.11-4,.22-6,.25-1.77,0-3.54,0-5.3.05q-5.3,0-10.59-.16c-3.5-.12-7-.35-10.48-.64s-7-.53-10.55-.76c-7.14-.47-14.28-.92-21.41-1.54-3.72-.32-7.43-.7-11.14-1-1.77-.16-3.54-.3-5.31-.41s-3.58-.16-5.38-.19c-7.11-.15-14.21-.17-21.33-.29q-5.6-.09-11.2-.27c-3.64-.11-7.28-.3-10.93-.42s-7-.15-10.56-.24-7-.25-10.57-.41c-3.73-.16-7.46-.31-11.2-.32-3.52,0-7,.1-10.55.18Z"/><path class="cls-1" d="M415.21,610H398.09c-7.35,0-14.69,0-22,.25s-14.94.89-22.39,1.47c-3.64.29-7.29.52-10.93.85s-7.27.74-10.9,1.07-7.49.6-11.23.87-7.2.5-10.81.63c-1.82.07-3.64.13-5.47.14l-5.75,0-11.7,0c-4.57,0-9.13.08-13.69.13a1,1,0,1,0,0,1.92q12-.15,24-.17h2.58c2.72,0,5.44,0,8.16-.09q3-.11,6-.26c1.89-.1,3.78-.24,5.67-.37,3.56-.25,7.12-.48,10.67-.8l5.67-.53c1.8-.17,3.61-.38,5.41-.55s3.83-.34,5.75-.5,3.78-.28,5.67-.41c3.71-.28,7.42-.59,11.13-.86s7.35-.48,11-.64c1.79-.08,3.58-.12,5.37-.15s3.6-.07,5.41-.08c7.48-.06,15-.07,22.43-.07,3.71,0,7.41,0,11.11,0s7.19.24,10.78.37c2,.07,4,.14,6.06.18,2.27,0,4.55.06,6.82.12a1,1,0,1,0,0-1.92c-2,0-3.94-.06-5.91-.1s-3.77-.09-5.65-.15c-3.71-.12-7.42-.31-11.13-.41-.93,0-1.85,0-2.78,0Z"/><path class="cls-1" d="M441,643.07c-2.09.15-4.17.34-6.26.47-1.79.11-3.58.16-5.38.18q-5.52,0-11,.16c-3.8.08-7.61.21-11.41.34l-5.51.15c-1.85,0-3.7,0-5.56,0-7.32,0-14.65-.4-22-.61-3.75-.11-7.49-.21-11.24-.23s-7.57.09-11.34.22c-3.5.11-7,.38-10.49.61-3.74.25-7.49.52-11.23.7s-7.77.36-11.65.54c-3.69.17-7.38.48-11.06.79-3.41.29-6.82.64-10.22,1l-12.08,1.33-13.38,1.43a1,1,0,0,0-.68.28,1,1,0,0,0,0,1.36.93.93,0,0,0,.68.28q12.57-1.34,25.14-2.73c3.36-.37,6.72-.73,10.09-1,3.7-.31,7.41-.64,11.12-.81,3.93-.19,7.87-.35,11.8-.55,3.66-.18,7.32-.44,11-.68,1.66-.11,3.32-.23,5-.33q2.93-.18,5.86-.31c2-.09,4-.12,5.93-.17,1.66,0,3.32-.07,5-.06,7.48,0,14.95.34,22.42.58q5.63.18,11.27.26c3.61.05,7.2,0,10.81-.15s7.42-.26,11.14-.34,7.49-.14,11.24-.17c1.84,0,3.67,0,5.51-.16,2.2-.14,4.38-.33,6.57-.49a1,1,0,0,0,.68-.28,1,1,0,0,0-.63-1.64Z"/><path class="cls-1" d="M328.35,677.8c-1.68.05-3.36.15-5,.25s-3.53.23-5.3.39c-3.66.34-7.31.71-11,1s-7.22.37-10.83.54c-1.76.08-3.53.19-5.3.3s-3.45.25-5.18.44c-2.33.26-4.64.57-7,.93s-4.74.78-7.11,1.17a.94.94,0,0,0-.57.44,1,1,0,0,0-.1.74,1,1,0,0,0,.44.57,1,1,0,0,0,.74.1c3-.49,6-1,9-1.46l2.68-.36c.9-.12,1.81-.2,2.71-.3s1.83-.16,2.75-.23,1.79-.13,2.69-.19c3.58-.24,7.16-.36,10.75-.51s7-.48,10.46-.82c1.69-.16,3.39-.33,5.09-.47l3.09-.24c1-.08,2-.12,2.93-.19,1.63-.1,3.26-.16,4.89-.22,1.83-.06,3.65-.14,5.48-.15h3.25c.85,0,1.69,0,2.54,0,1.78,0,3.56.1,5.34.15,3.71.11,7.42.31,11.14.51q5.1.26,10.2.63c3.74.28,7.49.56,11.24.78,1.78.1,3.57.16,5.35.22s3.33.1,5,.13q5.7.09,11.4.09c3.39,0,6.78-.06,10.17-.06,3.55,0,7.1,0,10.65,0q2.84,0,5.69,0c1.75,0,3.49-.1,5.23-.17l5.38-.23a1,1,0,1,0,0-1.92c-3.69.15-7.38.36-11.08.4s-7.54,0-11.31,0c-3.26,0-6.53,0-9.79,0-3.71,0-7.42,0-11.12,0s-7.57-.11-11.34-.23q-5.18-.18-10.37-.58c-3.77-.28-7.53-.56-11.29-.79s-7.23-.39-10.85-.56-7.17-.28-10.76-.34l-2.38,0c-2.87,0-5.74.09-8.61.19Zm-47.23,5.41-.18,0,.18,0Z"/><path class="cls-1" d="M329.25,710.69c-3.58,0-7.17.12-10.75.22s-7.2.31-10.79.48c-3.43.16-6.86.31-10.28.52q-5.82.35-11.63.77c-4.6.33-9.19.77-13.78,1.23a1,1,0,0,0-.67.28,1,1,0,0,0,0,1.36.93.93,0,0,0,.67.28l6.56-.64c2-.19,3.94-.33,5.91-.5,1.8-.15,3.6-.26,5.41-.39l4.67-.3c3.8-.23,7.6-.44,11.41-.61s7.34-.35,11-.51,7.08-.2,10.62-.26c1.63,0,3.25,0,4.88,0,1,0,1.95,0,2.92,0l3.13.1c.84,0,1.68.08,2.51.13l2.32.15c.89.07,1.77.11,2.65.2l3.1.3c1.86.18,3.73.41,5.59.63l5.28.6c1.83.21,3.67.41,5.51.6s3.51.31,5.27.43c3.59.25,7.19.33,10.78.43s7.1.26,10.64.56,7.22.56,10.84.67,7.35,0,11-.11,7.07-.14,10.6-.18c4.46,0,8.93,0,13.39-.25a1,1,0,0,0,0-1.92c-3.84.23-7.69.22-11.53.24q-5.13,0-10.25.14l-5.49.12c-1.86,0-3.73.1-5.6.08-3.61,0-7.22-.24-10.81-.53-1.73-.14-3.45-.3-5.18-.4q-2.83-.17-5.66-.28c-3.64-.14-7.27-.2-10.91-.39-7.08-.37-14.11-1.34-21.16-2.11l-2.67-.29c-1-.09-2-.21-2.94-.28l-3.1-.23c-.84-.06-1.68-.1-2.51-.14s-1.55-.08-2.33-.11-1.78-.07-2.67-.08l-4.38,0Z"/><g id="_Group_" data-name="&lt;Group&gt;"><path class="cls-1" d="M460.67,720V714.4c0-1.76-.06-3.52-.1-5.28-.1-3.81-.16-7.64-.23-11.46-.14-7.83-.14-15.68-.15-23.52q0-16.66-.17-33.33c-.06-5.55-.12-11.11-.25-16.67-.07-2.81-.14-5.62-.18-8.43,0-1.42-.06-2.86-.08-4.29a16.24,16.24,0,0,0-.07-2c-.08-.64-.16-1.3-.25-1.94a2.34,2.34,0,0,1,.71-1.72,2.46,2.46,0,0,1,1.69-.7h0l16.72.09c11,.07,22,.12,33.06.27s22.19.44,33.3.51c5.5,0,11,.08,16.52.1h5.12V609h-5.46c-5.51,0-11,.06-16.52.1s-11.13.14-16.69.24-11.06.2-16.59.27-11,.14-16.52.17l-4.75,0c-8.68.06-17.35.09-26,.16,0,.17,0,.34,0,.51,0,1,0,2-.06,3,0,2-.07,4-.11,6-.08,4-.17,7.92-.24,11.88l-.07,4.07c-.09,6.49-.11,13-.15,19.48-.08,11.09,0,22.2-.11,33.3q-.07,8.21-.23,16.43c-.06,2.67-.17,5.35-.2,8V719h37.82l-1.25,1.92H461.63A1,1,0,0,1,460.67,720Z"/><path class="cls-1" d="M611.42,675.41a1.92,1.92,0,0,1-.93,1.64,1.78,1.78,0,0,1-1.31.21c0-.74,0-1.49,0-2.23,0-1.28,0-2.54,0-3.81.7,1.06,1.34,2.16,2,3.26A1.85,1.85,0,0,1,611.42,675.41Z"/><path class="cls-1" d="M578.11,606l33-.07a1.63,1.63,0,0,1,1.41.1,1.72,1.72,0,0,1,.82,1.43c.2,3.76.2,7.52.26,11.28s.09,7.4.12,11.12c0,7.4.17,14.81.26,22.22.06,5.71.19,11.41.2,17.12,0,2.05,0,4.12,0,6.17h-2.77a1.85,1.85,0,0,0-.25-.94c-.63-1.11-1.28-2.2-2-3.26.06-10.11.24-20.24.36-30.35.07-5.59.1-11.17.17-16.76,0-2.81.06-5.62.1-8.43,0-2.2.06-4.41.15-6.61l-15.35,0L577.77,609l-11.42,0v-2.88C570.26,606.08,574.19,606.06,578.11,606Z"/><path class="cls-1" d="M611.42,675.41h2.77c0,3.41,0,6.81,0,10.21,0,5.78,0,11.56-.08,17.34s-.12,11.34-.12,17a2.25,2.25,0,0,1-2.23,2.23c-5.19,0-10.37-.12-15.55-.17q-16.71-.15-33.41-.45c-5.67-.1-11.33-.16-17-.25s-11.28-.23-16.91-.27q-12-.12-24-.14h-2.95c.43-.64.85-1.29,1.28-1.92H511q8.41,0,16.83-.11c5.64-.06,11.28-.17,16.92-.26s11.32-.16,17-.26,11.09-.19,16.65-.26,11.21-.15,16.82-.2c4.76,0,9.51-.11,14.28-.16,0-6.88-.12-13.77-.16-20.65,0-3.83,0-7.64,0-11.47,0-2.79-.06-5.59-.07-8.37a1.78,1.78,0,0,0,1.31-.21A1.92,1.92,0,0,0,611.42,675.41Z"/><path class="cls-3" d="M609.29,697.1c0,6.88.14,13.77.16,20.65-4.76,0-9.51.12-14.28.16q-8.41.08-16.82.2c-5.55.07-11.11.17-16.65.26s-11.33.17-17,.26-11.28.2-16.92.26S516.59,719,511,719h-7.79c2-3,4-5.91,5.93-8.87.62-.93,1.26-1.82,1.93-2.72,1.06-1.42,2.1-2.86,3.17-4.28l2.79-3.36c.81-1,1.68-1.91,2.54-2.86.34-.36.68-.71,1-1.06s.95-1,1.46-1.43L523.7,693c.38-.33.8-.63,1.21-.95l.28-.2-.16.12a19.6,19.6,0,0,1,3.15-1.84,17.3,17.3,0,0,1,3.09-.89,4,4,0,0,1,2.34.26,16,16,0,0,1,2.35,1.42,26.4,26.4,0,0,1,3.33,3.41q1.54,1.91,3,3.84c.46.63.91,1.26,1.33,1.92s.8,1.34,1.21,2,.86,1.37,1.33,2a3.15,3.15,0,0,0,2.36,1.6,4,4,0,0,0,2.79-1.44,20,20,0,0,0,2-2.45c.3-.4.59-.81.88-1.22.47-.64.94-1.29,1.39-1.94l3.1-4.4c1.48-2.11,2.91-4.26,4.4-6.35.82-1.16,1.64-2.36,2.49-3.5l2.57-3.44,2.18-2.74c.68-.85,1.41-1.66,2.11-2.48.36-.42.73-.81,1.11-1.21s.62-.68.95-1,.79-.8,1.21-1.17l1.33-1.19h0l0,0a30.36,30.36,0,0,1,3.36-2.35c.72-.42,1.44-.84,2.19-1.22s1.21-.58,1.82-.85l1.15-.42c.38-.14.78-.23,1.17-.34a13.07,13.07,0,0,1,2.07-.4,18.6,18.6,0,0,1,2.25-.12,22.75,22.75,0,0,1,2.47.18,22.44,22.44,0,0,1,2.82.71c.95.27,1.87.61,2.79,1,.46.21.93.44,1.39.69a8.34,8.34,0,0,1,1.25.84,16.82,16.82,0,0,1,2.28,2.29c.62.84,1.21,1.7,1.79,2.56s1.32,1.83,2,2.74a2,2,0,0,0,1.13.86l.15,0c0,2.79,0,5.59.07,8.37C609.27,689.46,609.27,693.28,609.29,697.1Z"/><path class="cls-3" d="M609.19,671.21c0,1.28,0,2.54,0,3.81,0,.74,0,1.49,0,2.23l-.15,0a2,2,0,0,1-1.13-.86c-.67-.91-1.35-1.82-2-2.74s-1.17-1.73-1.79-2.56a16.82,16.82,0,0,0-2.28-2.29,8.34,8.34,0,0,0-1.25-.84c-.46-.25-.93-.47-1.39-.69-.91-.36-1.84-.7-2.79-1a22.44,22.44,0,0,0-2.82-.71,22.75,22.75,0,0,0-2.47-.18,18.6,18.6,0,0,0-2.25.12,13.07,13.07,0,0,0-2.07.4c-.4.11-.79.2-1.17.34l-1.15.42c-.61.27-1.22.54-1.82.85s-1.47.8-2.19,1.22a30.36,30.36,0,0,0-3.36,2.35l0,0h0l-1.33,1.19c-.42.37-.8.79-1.21,1.17s-.64.65-.95,1-.74.79-1.11,1.21c-.7.82-1.43,1.64-2.11,2.48l-2.18,2.74-2.57,3.44c-.86,1.14-1.67,2.34-2.49,3.5-1.49,2.1-2.92,4.24-4.4,6.35l-3.1,4.4c-.45.65-.91,1.3-1.39,1.94-.29.41-.58.82-.88,1.22a20,20,0,0,1-2,2.45,4,4,0,0,1-2.79,1.44,3.15,3.15,0,0,1-2.36-1.6c-.47-.65-.9-1.33-1.33-2s-.79-1.34-1.21-2-.87-1.29-1.33-1.92q-1.49-1.93-3-3.84a26.4,26.4,0,0,0-3.33-3.41,16,16,0,0,0-2.35-1.42,4,4,0,0,0-2.34-.26,17.3,17.3,0,0,0-3.09.89,19.6,19.6,0,0,0-3.15,1.84l.16-.12-.28.2c-.41.32-.82.62-1.21.95L522,694.44c-.51.44-1,1-1.46,1.43s-.69.7-1,1.06c-.86.95-1.73,1.87-2.54,2.86l-2.79,3.36c-1.07,1.42-2.11,2.86-3.17,4.28-.67.9-1.31,1.79-1.93,2.72-2,3-4,5.9-5.93,8.87h-2.78c.62-.95,1.25-1.91,1.88-2.84l3.33-5c.59-.88,1.19-1.76,1.77-2.65.2-.3.4-.61.61-.9l3.68-5c.94-1.29,2-2.52,3-3.75.41-.51.8-1,1.23-1.52l2.05-2.35a45.32,45.32,0,0,1,3.35-3.4c.61-.56,1.25-1.11,1.9-1.64a17.6,17.6,0,0,1,4.58-2.77,14.3,14.3,0,0,1,2.31-.78,8,8,0,0,1,3.61-.11,9.1,9.1,0,0,1,2.51,1.06q.58.34,1.12.71c.42.3.8.61,1.2.95a15,15,0,0,1,1.64,1.65c1.16,1.34,2.21,2.77,3.25,4.21a44,44,0,0,1,2.69,4c.8,1.4,1.5,2.86,2.39,4.21l.24.26h.07l.06,0h0a.87.87,0,0,0,.21-.09l-.21.09c.2-.11.4-.25.59-.37a15.85,15.85,0,0,0,1.91-2.09l.17-.21c1.48-2,2.91-3.94,4.32-5.94s2.8-4,4.19-6c1-1.49,2.07-3,3.1-4.44s2-2.78,3.06-4.16c2-2.67,4.13-5.24,6.37-7.72.51-.58,1.07-1.09,1.61-1.64.3-.32.65-.6,1-.9s.44-.4.67-.59c.72-.56,1.43-1.13,2.2-1.65.34-.24.69-.51,1-.72l1.24-.74a27.86,27.86,0,0,1,4.62-2.19,19.23,19.23,0,0,1,4.48-1,22.23,22.23,0,0,1,3-.19h.1a23.85,23.85,0,0,1,4.81.53,22,22,0,0,1,5.06,1.53,17.62,17.62,0,0,1,2.16,1.22,12,12,0,0,1,2.28,1.92c.51.58,1,1.19,1.42,1.79C608.58,670.3,608.9,670.75,609.19,671.21Z"/><path class="cls-1" d="M503.19,719c-.43.63-.85,1.28-1.28,1.92h-2.75l1.25-1.92Z"/><path class="cls-3" d="M525.19,691.81l-.16.12-.12.08Z"/><path class="cls-4" d="M489.8,609.77V610a1.11,1.11,0,0,0-.27,0,1.07,1.07,0,0,0-.72,1.29q.17.66.3,1.32a18.44,18.44,0,0,1,.16,2.37c0,.63,0,1.26-.1,1.88s-.23,1-.32,1.53-.23,1.11-.36,1.66a23.17,23.17,0,0,1-1.11,3.34,20.4,20.4,0,0,1-2.2,3.7,16.12,16.12,0,0,1-6.39,5,21.86,21.86,0,0,1-4.68,1.3l-.9.06q-.76.07-1.52.07c-.82,0-1.65-.06-2.46-.12l-1.44-.15a8.35,8.35,0,0,0-.87-.11l-.65,0a2.33,2.33,0,0,0-1.69.24,2.25,2.25,0,0,0-1,1.34,2.12,2.12,0,0,0-.08.6h-.17l.07-4.07c.07-4,.16-7.92.24-11.88,0-2,.09-4,.11-6,0-1,0-2,.06-3,0-.17,0-.34,0-.51C472.45,609.86,481.12,609.82,489.8,609.77Z"/><path class="cls-4" d="M469.23,633.45c.81.07,1.64.11,2.46.12q.76,0,1.52-.07l.9-.06a21.86,21.86,0,0,0,4.68-1.3,16.12,16.12,0,0,0,6.39-5,20.4,20.4,0,0,0,2.2-3.7,23.17,23.17,0,0,0,1.11-3.34c.14-.55.26-1.11.36-1.66s.21-1,.32-1.53.1-1.25.1-1.88a18.44,18.44,0,0,0-.16-2.37q-.14-.66-.3-1.32a1.07,1.07,0,0,1,.72-1.29,1.11,1.11,0,0,1,.27,0,1.06,1.06,0,0,1,1,.77,31.74,31.74,0,0,1,.84,4.35c.09.65.1,1.31.16,2a11.47,11.47,0,0,1,0,1.76,18.84,18.84,0,0,1-.67,3.61,20.89,20.89,0,0,1-1.61,3.85,22.35,22.35,0,0,1-2,3.06l-.26.34a20.64,20.64,0,0,1-1.78,2c-.67.64-1.37,1.23-2.09,1.81a20.51,20.51,0,0,1-4.71,2.92,21.8,21.8,0,0,1-3,1.09,20.25,20.25,0,0,1-2.28.54,23,23,0,0,1-2.77.32c-.41,0-.81,0-1.21,0s-1-.09-1.44-.16-.9-.12-1.34-.21a3.91,3.91,0,0,1-.73-.2l-.54-.23-.37-.14a2.42,2.42,0,0,1-1.35-1,2.28,2.28,0,0,1-.3-1.15,2.12,2.12,0,0,1,.08-.6,2.25,2.25,0,0,1,1-1.34,2.33,2.33,0,0,1,1.69-.24l.65,0a8.35,8.35,0,0,1,.87.11Z"/></g><path class="cls-4" d="M470.41,648.62c-.08.25-.18.49-.27.74a3.07,3.07,0,0,0-.12.83,6.66,6.66,0,0,0,.21,1.64c.17.84.38,1.67.63,2.49.3,1,.6,1.95.91,2.92a1.1,1.1,0,0,0,2.11-.59q-.4-1.14-.78-2.29a25.48,25.48,0,0,1-1.08-3.84,3.51,3.51,0,0,1,0-.56v0a.95.95,0,0,0,.36-1.85,5.89,5.89,0,0,0-1-.16h-.07a1,1,0,0,0-.85.7Z"/><path class="cls-4" d="M484.39,642.41a.86.86,0,0,0,0,1.21q3.41,3.47,6.83,6.92a.85.85,0,1,0,1.21-1.21q-3.43-3.45-6.83-6.92a.84.84,0,0,0-.6-.25.86.86,0,0,0-.61.25Z"/><path class="cls-4" d="M496.42,632.17a.71.71,0,0,0,.26,1l4.11,2.12,1.45.75c.38.2.76.43,1.14.64s.81.44,1.2.68l1.51.93c.9.56,1.79,1.11,2.68,1.69a.71.71,0,0,0,1-.26.71.71,0,0,0-.25-1q-1.3-.84-2.61-1.64l-1.54-1c-.4-.25-.82-.47-1.23-.7s-.74-.43-1.12-.63l-1.38-.71-4.21-2.17a.79.79,0,0,0-.36-.09.69.69,0,0,0-.6.34Z"/><path class="cls-4" d="M502.19,618.82a.72.72,0,0,0,.71.71c.93.07,1.86.12,2.78.21l1.82.17,2.22.21c.32,0,.64,0,1,.09l6.4.83-.19,0,2.38.34a.79.79,0,0,0,.55-.07.7.7,0,0,0,.25-1,.67.67,0,0,0-.42-.33c-2.7-.41-5.42-.75-8.13-1.09-1.08-.14-2.16-.23-3.24-.34l-2.35-.22c-1-.09-2-.15-3-.23h0a.71.71,0,0,0-.67.71Z"/><path class="cls-5" d="M526,633.54a1.23,1.23,0,0,0-.06.19s0,0,0,0,0,0,0,0a.1.1,0,0,1,0,.06.25.25,0,0,0,0,.11.46.46,0,0,0,.06.1.52.52,0,0,0,.08.08,10.46,10.46,0,0,0,1.16.63,7.65,7.65,0,0,1,1.32.91h0a0,0,0,0,0,0,0,6.57,6.57,0,0,0,1.11.61l.14.06a8.27,8.27,0,0,0,1.57.43l.56.1c.43.07.86.16,1.29.26a13.05,13.05,0,0,1,2.13.69c.76.29,1.53.52,2.33.76l1.06.34a15.67,15.67,0,0,0,1.63.44h0a5.94,5.94,0,0,0,1.34,0,9.28,9.28,0,0,0,2.2-.63l.82-.34,0,0h0l1.19-.52.72-.32a3.41,3.41,0,0,1,.58-.18l.58-.08a7.7,7.7,0,0,0,1.81-.52,14.31,14.31,0,0,0,2.79-1.68,5.14,5.14,0,0,0,.45-.4,4.54,4.54,0,0,0,.38-.43,3.93,3.93,0,0,0,.25-.41,3.58,3.58,0,0,0,.14-.46,3.39,3.39,0,0,0,0-.76,7,7,0,0,0-.45-1.48,5.65,5.65,0,0,0-.54-1h0a6,6,0,0,0-.54-.53,4.6,4.6,0,0,0-.69-.41l-.06,0h0a18.75,18.75,0,0,0-2.72-.67l-1.48-.32c-1-.24-2-.51-3-.74s-2.2-.51-3.31-.74c-.56-.12-1.13-.24-1.7-.34s-.9-.15-1.35-.21a10.8,10.8,0,0,0-2.42,0,7.74,7.74,0,0,0-.86.18c-.25.08-.49.16-.73.26h0a9.31,9.31,0,0,0-1.57.88,4.91,4.91,0,0,0-.54.54.61.61,0,0,1-.44,1l-.45,0-.49.15a7.24,7.24,0,0,0-1.2.73,12.44,12.44,0,0,0-2.2,2.16,7.47,7.47,0,0,0-.51.71C526.27,633.05,526.11,633.28,526,633.54Zm28.44-1.63a4.26,4.26,0,0,1,.16,1.13,2.81,2.81,0,0,1-.25,1.17,3.5,3.5,0,0,1-.54.79,8.32,8.32,0,0,1-1.66,1.34,13.63,13.63,0,0,1-2.18,1.2,7.73,7.73,0,0,1-2,.55h-.1a2.05,2.05,0,0,0-.52.12c-.51.23-1,.49-1.5.71l-.77.35c-.29.12-.58.26-.88.37a9,9,0,0,1-1.21.43,9.51,9.51,0,0,1-1.13.23,5.54,5.54,0,0,1-2-.07c-.65-.16-1.3-.37-1.94-.56l-1.68-.49c-.53-.16-1-.36-1.58-.54a13.56,13.56,0,0,0-1.67-.49c-.3-.06-.6-.12-.9-.17s-.64-.09-.95-.16a8.85,8.85,0,0,1-2.39-.77,5.79,5.79,0,0,1-.91-.55,8.7,8.7,0,0,0-.85-.59l-.65-.33a6.7,6.7,0,0,1-.64-.3,2,2,0,0,1-.68-.6,1.67,1.67,0,0,1-.3-.84,1.69,1.69,0,0,1,.1-.63,4.18,4.18,0,0,1,.2-.45c.18-.3.37-.61.58-.89a12.68,12.68,0,0,1,1.5-1.78,11.88,11.88,0,0,1,1.06-.94,9,9,0,0,1,.94-.68,5,5,0,0,1,1-.52l.08,0a.5.5,0,0,1,.07-.18,6.45,6.45,0,0,1,.42-.65c.12-.16.24-.32.37-.46a4.94,4.94,0,0,1,.94-.74,8.63,8.63,0,0,1,1.23-.67,7.1,7.1,0,0,1,1.16-.41,8.62,8.62,0,0,1,1.94-.24l.51,0c.59,0,1.15.12,1.73.23,1.23.21,2.45.51,3.66.82l2,.53c.55.15,1.11.32,1.65.49s1.24.37,1.86.54l1.69.42c.49.11,1,.21,1.48.36a5.06,5.06,0,0,1,1.93.95,3.56,3.56,0,0,1,.79.9,8.45,8.45,0,0,1,.43.91A8.25,8.25,0,0,1,554.42,631.91Z"/><path class="cls-5" d="M552.77,630.17a5.65,5.65,0,0,1,.54,1,7,7,0,0,1,.45,1.48,3.39,3.39,0,0,1,0,.76,3.58,3.58,0,0,1-.14.46,3.93,3.93,0,0,1-.25.41,4.54,4.54,0,0,1-.38.43,5.14,5.14,0,0,1-.45.4,14.31,14.31,0,0,1-2.79,1.68,7.7,7.7,0,0,1-1.81.52l-.58.08a3.41,3.41,0,0,0-.58.18l-.72.32-1.19.52h0l0,0-.82.34a9.28,9.28,0,0,1-2.2.63,5.94,5.94,0,0,1-1.34,0h0a15.67,15.67,0,0,1-1.63-.44l-1.06-.34c-.79-.24-1.57-.46-2.33-.76a13.05,13.05,0,0,0-2.13-.69c-.43-.1-.86-.19-1.29-.26l-.56-.1a8.27,8.27,0,0,1-1.57-.43l-.14-.06a6.57,6.57,0,0,1-1.11-.61,0,0,0,0,1,0,0h0a7.65,7.65,0,0,0-1.32-.91,10.46,10.46,0,0,1-1.16-.63.52.52,0,0,1-.08-.08.46.46,0,0,1-.06-.1.25.25,0,0,1,0-.11.1.1,0,0,0,0-.06s0,0,0,0,0,0,0,0a1.23,1.23,0,0,1,.06-.19c.14-.26.29-.49.45-.73a7.47,7.47,0,0,1,.51-.71,12.44,12.44,0,0,1,2.2-2.16,7.24,7.24,0,0,1,1.2-.73l.49-.15.45,0a.61.61,0,0,0,.44-1,4.91,4.91,0,0,1,.54-.54,9.31,9.31,0,0,1,1.57-.88h0c.25-.1.49-.18.73-.26a7.74,7.74,0,0,1,.86-.18,10.8,10.8,0,0,1,2.42,0c.45.07.91.12,1.35.21s1.14.21,1.7.34c1.11.24,2.2.49,3.31.74s2,.51,3,.74l1.48.32a18.75,18.75,0,0,1,2.72.67h0l.06,0a4.6,4.6,0,0,1,.69.41,6,6,0,0,1,.54.53Z"/><path class="cls-5" d="M569.68,623l-.1.15s0,0,0,0l0,.14a3.33,3.33,0,0,0,0,.47,3.53,3.53,0,0,0,.18.59,4,4,0,0,0,.35.6,3.45,3.45,0,0,0,.49.51,4.86,4.86,0,0,0,.53.29,6.13,6.13,0,0,0,1.2.27h0a17.59,17.59,0,0,1,2.19.28,11.4,11.4,0,0,1,2.48,1l1.3.67c.36.19.73.36,1.11.53a14.28,14.28,0,0,0,1.92.67c.59.15,1.19.27,1.78.36a15,15,0,0,0,2.25.16c.49,0,1,0,1.46-.06l1.67-.12,1.51-.11a6,6,0,0,1,1,0,2.68,2.68,0,0,1,.71.2c.24.11.47.24.71.34a5.67,5.67,0,0,0,1.26.34h0a7.27,7.27,0,0,0,1.72,0h0a9.42,9.42,0,0,0,2.27-.63,10.49,10.49,0,0,0,1-.49c.28-.16.58-.32.85-.5l.8-.53c.4-.26.78-.56,1.16-.86l.46-.4c.1-.09.21-.17.32-.27.34-.34.69-.68,1-1h0s0,0,0,0a6.15,6.15,0,0,0,.44-.74,4.56,4.56,0,0,0,.21-.77,5.51,5.51,0,0,0,0-1.22h0a0,0,0,0,0,0,0s0,0,0,0a20.16,20.16,0,0,0-.73-3c-.24-.77-.52-1.52-.8-2.28a2.87,2.87,0,0,0-.18-.32,1.15,1.15,0,0,0-.2-.2,2.57,2.57,0,0,0-.34-.19,7,7,0,0,0-1-.23c-.47-.06-.94-.09-1.4-.14s-.8-.09-1.2-.16c-.8-.16-1.61-.29-2.42-.42s-1.43-.24-2.13-.37c-.94-.19-1.88-.41-2.83-.55a14,14,0,0,0-2.18-.14,18.57,18.57,0,0,0-2.09.16c-.95.15-1.88.34-2.82.53a10.19,10.19,0,0,1-1.31.2l-.49,0-.3,0h-.71c-.91,0-1.83,0-2.74,0a26.87,26.87,0,0,0-3,.08,4,4,0,0,0-.72.18l-.42.25a4.82,4.82,0,0,0-.53.54c-.35.47-.67,1-1,1.49a13.93,13.93,0,0,1-1,1.31c-.63.8-1.38,1.49-2,2.28l-.15.2a.21.21,0,0,0,0,.09.33.33,0,0,1,0,.1,5.34,5.34,0,0,1,.63-.44.39.39,0,0,1,.53.14.4.4,0,0,1-.15.53,3.6,3.6,0,0,0-.43.29h0A2.94,2.94,0,0,0,569.68,623Zm35.49-.07a5.2,5.2,0,0,1,0,1.19,3.94,3.94,0,0,1-.26.95,4,4,0,0,1-.55,1,6.36,6.36,0,0,1-.67.78,4,4,0,0,0-.33.29,2.56,2.56,0,0,1-.32.29l-.79.65-.73.54-.65.44c-.27.17-.53.36-.81.52a11.75,11.75,0,0,1-4.41,1.68,7.78,7.78,0,0,1-1.35.07,6.17,6.17,0,0,1-1.12-.14,6.87,6.87,0,0,1-1-.32c-.26-.11-.51-.25-.77-.38h0l-.06,0-.32-.09a7.77,7.77,0,0,0-1.53.06l-1.46.14a20.51,20.51,0,0,1-4.48,0,14.83,14.83,0,0,1-3.75-.94c-.32-.12-.63-.26-.94-.41l-.79-.38-1-.56c-.52-.28-1-.55-1.56-.79a6.38,6.38,0,0,0-.93-.32c-.28-.07-.56-.12-.86-.17-.58-.06-1.14-.09-1.7-.18a3.58,3.58,0,0,1-2.25-1,4.32,4.32,0,0,1-.69-1.11,3.59,3.59,0,0,1-.2-.68,2.19,2.19,0,0,1,0-.67,1.11,1.11,0,0,1,.08-.38.66.66,0,0,1-.7-.46,1.53,1.53,0,0,1-.08-.55,1.2,1.2,0,0,1,.19-.58,8.79,8.79,0,0,1,.58-.71c.23-.26.47-.51.71-.74s.46-.49.69-.74.45-.5.67-.77.21-.29.32-.45l.38-.65a13.1,13.1,0,0,1,1-1.5,4.94,4.94,0,0,1,.65-.63,2.88,2.88,0,0,1,.77-.44,5,5,0,0,1,1.52-.32l.73-.06H577c.88,0,1.76,0,2.64,0h1.53c.41,0,.82,0,1.24-.08l1.5-.26c.62-.12,1.24-.23,1.87-.33a17.63,17.63,0,0,1,2.89-.26,13.32,13.32,0,0,1,1.33.07,20,20,0,0,1,2,.28l1,.19c1.11.23,2.22.41,3.34.6.59.1,1.17.2,1.76.33l.94.19.68.1.69.08a6.24,6.24,0,0,1,1.51.33,3.19,3.19,0,0,1,.45.19,1.67,1.67,0,0,1,.3.18,1.94,1.94,0,0,1,.58.6,5.08,5.08,0,0,1,.45,1c.19.52.4,1,.56,1.56s.37,1.24.53,1.87A12.49,12.49,0,0,1,605.16,623Z"/><path class="cls-5" d="M604,622.86a5.51,5.51,0,0,1,0,1.22,4.56,4.56,0,0,1-.21.77,6.15,6.15,0,0,1-.44.74s0,0,0,0h0c-.3.37-.65.71-1,1-.1.1-.21.18-.32.27l-.46.4c-.38.29-.77.6-1.16.86l-.8.53c-.27.18-.56.34-.85.5a10.49,10.49,0,0,1-1,.49,9.42,9.42,0,0,1-2.27.63h0a7.27,7.27,0,0,1-1.72,0h0a5.67,5.67,0,0,1-1.26-.34c-.24-.1-.47-.23-.71-.34a2.68,2.68,0,0,0-.71-.2,6,6,0,0,0-1,0l-1.51.11-1.67.12c-.49,0-1,.06-1.46.06a15,15,0,0,1-2.25-.16c-.6-.09-1.2-.21-1.78-.36a14.28,14.28,0,0,1-1.92-.67c-.37-.17-.74-.34-1.11-.53l-1.3-.67a11.4,11.4,0,0,0-2.48-1,17.59,17.59,0,0,0-2.19-.28h0a6.13,6.13,0,0,1-1.2-.27,4.86,4.86,0,0,1-.53-.29,3.45,3.45,0,0,1-.49-.51,4,4,0,0,1-.35-.6,3.53,3.53,0,0,1-.18-.59,3.33,3.33,0,0,1,0-.47l0-.14s0,0,0,0l.1-.15a2.94,2.94,0,0,1,.27-.26h0a3.6,3.6,0,0,1,.43-.29.4.4,0,0,0,.15-.53.39.39,0,0,0-.53-.14,5.34,5.34,0,0,0-.63.44.33.33,0,0,0,0-.1.21.21,0,0,1,0-.09l.15-.2c.65-.79,1.4-1.48,2-2.28a13.93,13.93,0,0,0,1-1.31c.3-.51.62-1,1-1.49a4.82,4.82,0,0,1,.53-.54l.42-.25a4,4,0,0,1,.72-.18,26.87,26.87,0,0,1,3-.08c.91,0,1.83,0,2.74,0h.71l.3,0,.49,0a10.19,10.19,0,0,0,1.31-.2c.94-.19,1.87-.38,2.82-.53a18.57,18.57,0,0,1,2.09-.16,14,14,0,0,1,2.18.14c.95.15,1.9.36,2.83.55.7.14,1.42.25,2.13.37s1.61.26,2.42.42c.4.07.79.12,1.2.16s.93.08,1.4.14a7,7,0,0,1,1,.23,2.57,2.57,0,0,1,.34.19,1.15,1.15,0,0,1,.2.2,2.87,2.87,0,0,1,.18.32c.28.76.56,1.51.8,2.28a20.16,20.16,0,0,1,.73,3s0,0,0,0a0,0,0,0,1,0,0Z"/><path class="cls-1" d="M745.72,397q0,25.07-.06,50.16c0,8.6-.15,17.2-.18,25.8,0,3.86,0,7.71,0,11.57,0,.93,0,1.86,0,2.79a21.35,21.35,0,0,1,0,2.4c0,.42-.08.77-.15,1.11v6.94a4,4,0,0,1-4,4q-17.29,0-34.58,0-19.76,0-39.53,0-38.09-.1-76.21-.28c-19.56-.1-39.12-.25-58.68-.34L474.49,501q-58.29-.25-116.59-.69-57.43-.46-114.85-.45c-37.34,0-74.66-.24-112-.2l-.1,0a2,2,0,0,1-2.45-1.86c-.09-17.26,0-34.53,0-51.78v-1.64a2.79,2.79,0,0,1-.81-1.93Q127.34,406,127,369.6c-.19-24.24-.28-48.5-.65-72.74-.08-.51-.16-1-.25-1.52a4.45,4.45,0,0,1,4.27-5.63h0q19,.1,37.95.17c12.78.07,25.55.15,38.34.16q37.82,0,75.64.08c77.87.09,155.74-.21,233.61-.34q57.87-.08,115.72.29,28.29.19,56.58.46,14,.14,27.91.27l13.36.14c3.93,0,7.89.17,11.81-.07a3.32,3.32,0,0,1,3.3,3.28c.26,8.3.3,16.6.41,24.9s.29,16.85.37,25.28C745.58,361.89,745.72,379.45,745.72,397ZM738,297.32c-1.78,0-3.57,0-5.35,0-2.73,0-5.46,0-8.19.08-5.74.07-11.49.1-17.23.16-11.88.1-23.78.25-35.68.36q-36.6.34-73.17.47-32.34.17-64.65.16c-56.06,0-112.11-.29-168.17-.35q-115.55-.12-231.09.36c-.35,23.67-.45,47.34-.63,71q-.27,36.42-.65,72.84a2.79,2.79,0,0,1-.81,1.93v2.73c0,16.29.09,32.56,0,48.85,24.05,0,48.1-.08,72.16-.14q37.31-.08,74.63-.14c18.89,0,37.78-.07,56.66-.2q14.64-.08,29.31-.23c9.77-.08,19.57-.11,29.35-.18q58.05-.42,116.09-.61c39-.17,78.07-.47,117.11-.6,19.47-.07,38.94-.15,58.41-.12q25.65.05,51.3.07v-2.89a7.26,7.26,0,0,1-.16-1.66c0-2,0-3.92,0-5.88q0-5.71,0-11.41c0-8.66-.15-17.31-.17-26q-.08-24.5-.06-49,0-13.14.1-26.26c.06-9.2.08-18.39.2-27.57.1-8.39.26-16.76.36-25.14C737.76,311.15,737.81,304.24,738,297.32Z"/><path class="cls-6" d="M732.65,297.34c1.78,0,3.57,0,5.35,0-.18,6.92-.24,13.83-.32,20.73-.1,8.37-.26,16.75-.36,25.14-.12,9.19-.15,18.37-.2,27.57Q737,383.88,737,397q0,24.48.06,49c0,8.66.15,17.31.17,26q0,5.71,0,11.41c0,2,0,3.92,0,5.88a7.26,7.26,0,0,0,.16,1.66v2.89q-25.65,0-51.3-.07c-19.47,0-38.94.06-58.41.12-39,.12-78.07.43-117.11.6q-58.05.25-116.09.61c-9.77.07-19.57.1-29.35.18s-19.55.17-29.31.23c-18.88.14-37.77.16-56.66.2q-37.31.08-74.63.14c-24.05.06-48.1.16-72.16.14.08-16.29,0-32.56,0-48.85v-2.73a2.79,2.79,0,0,0,.81-1.93q.36-36.42.65-72.84c.18-23.68.28-47.35.63-71q115.55-.66,231.09-.36c56.06.06,112.11.35,168.17.35q32.32,0,64.65-.16,36.59-.19,73.17-.47c11.9-.11,23.79-.26,35.68-.36,5.74-.06,11.49-.09,17.23-.16C727.18,297.39,729.91,297.35,732.65,297.34Z"/><rect class="cls-7" x="356.2" y="433.72" width="99.22" height="35.55"/><rect class="cls-7" x="484.36" y="433.72" width="99.22" height="35.55"/><rect class="cls-7" x="612.51" y="433.72" width="99.22" height="35.55"/></svg>