<svg id="Layer_5" data-name="Layer 5" xmlns="http://www.w3.org/2000/svg" viewBox="0 0 871.69 845.84"><defs><style>.cls-1{fill:#5987fc;}.cls-2{fill:#fefefe;}.cls-3{fill:#4db7ff;}.cls-4{fill:#55aeff;}</style></defs><title>cloud_based</title><path class="cls-1" d="M463.4,397.19a32.91,32.91,0,0,1-.23,5.25,22.9,22.9,0,0,1-4.78,11.89,43.69,43.69,0,0,1-6.55,6.42,62.34,62.34,0,0,1-12.35,7c-3,1.24-6.14,2.29-9.3,3.23a84.23,84.23,0,0,1-8.73,2.15l-8.38,1.51-6,.78c-1.9.26-3.83.35-5.75.5-1.75.14-3.5.29-5.26.37l-7.85.34c-2.08.08-4.17.08-6.25.12-1.7,0-3.38.06-5.08.06q-7.08,0-14.16-.08c-8.05-.11-16.11-.34-24.16-.58q-7.15-.21-14.32-.47c-4-.15-8-.28-12-.56-4.22-.29-8.43-.57-12.64-.93q-6.85-.58-13.69-1.24-12.66-1.17-25.35-2.1c-8.33-.61-16.66-1.17-25-2-4.25-.43-8.49-.93-12.74-1.39-2.23-.25-4.45-.46-6.68-.67s-4.41-.32-6.63-.45c-3.91-.24-7.83-.32-11.74-.51-4.36-.2-8.73-.35-13.08-.76-2.26-.21-4.52-.42-6.79-.68l-5.79-.72c-4.27-.5-8.55-1-12.82-1.49-2.33-.27-4.65-.57-7-.87l-4.51-.6-.45-.06-.1,0a112.22,112.22,0,0,1-11.08-2l-3.31-.79c-1.21-.29-2.39-.75-3.56-1.12-2-.63-4-1.38-5.91-2.08s-3.7-1.31-5.56-1.93c-1-.35-2.06-.63-3.09-.94l-.93-.28-4.46-3.4c-2.51-2-5-3.89-7.5-5.94-4.85-4.06-9.77-8.07-13.74-13.05A45.6,45.6,0,0,1,83,380.32,41.13,41.13,0,0,1,80.49,371a38.05,38.05,0,0,1,0-8.6,42.32,42.32,0,0,1,2.77-9.88A53.39,53.39,0,0,1,89.48,342a56.39,56.39,0,0,1,9-9.14,76.38,76.38,0,0,1,15.5-9.06,66,66,0,0,1,15.25-4.16,59.45,59.45,0,0,1,6-.41,49.35,49.35,0,0,1,6.31.37c1.3.21,2.61.4,3.9.68,1.46.32,2.92.65,4.36,1.05l2.12.58,1.08.32c.38.13.77.26,1.16.37a12.48,12.48,0,0,0,2.1.37,8.08,8.08,0,0,0,1.62-.28,6.13,6.13,0,0,0,1.46-.7,6.26,6.26,0,0,0,2.29-2.79,38.87,38.87,0,0,0,1.88-5.13l1.56-4.88c.47-1.46,1-2.9,1.56-4.35.92-2.57,2-5.1,3-7.64,1.28-2.9,2.65-5.75,4.21-8.52a70.35,70.35,0,0,1,5.13-7.76,107.49,107.49,0,0,1,18-18.28,84.17,84.17,0,0,1,8.54-5.72A80,80,0,0,1,224,249.08a75.49,75.49,0,0,1,10-2.1c2.22-.27,4.45-.46,6.69-.53a48,48,0,0,1,6.78.34,54.25,54.25,0,0,1,11.82,3.2,32.43,32.43,0,0,1,5.67,3.31,35.49,35.49,0,0,1,4.47,4.62,13.08,13.08,0,0,1,1,1.45,8,8,0,0,0,1.57,2.25,4.8,4.8,0,0,0,3.26,1.35,5.19,5.19,0,0,0,1.71-.27l1.12-.47c.42-.32.85-.65,1.26-1a9.58,9.58,0,0,0,1-1.17c.9-1,1.83-2,2.8-3a70.29,70.29,0,0,1,6.08-5.22,97.11,97.11,0,0,1,8.87-6,87.49,87.49,0,0,1,10-5,86,86,0,0,1,20.44-5.69c2-.25,4-.45,6-.55a41.38,41.38,0,0,1,6.68.23,47,47,0,0,1,9.66,2.78,42.58,42.58,0,0,1,8,4.58,33.43,33.43,0,0,1,4.77,4.82,39.76,39.76,0,0,1,4.5,7.82c.42,1,.83,1.93,1.24,2.9.79,2.21,1.61,4.42,2.21,6.69.62,2.42,1.25,4.83,1.78,7.27.43,2,.68,4.18,2.38,5.51a7,7,0,0,0,2.09,1.19,9.9,9.9,0,0,0,2.64.53c1.55.13,3.09.15,4.65.14a112.27,112.27,0,0,1,13.85.44,50.21,50.21,0,0,1,10.92,2.87,55.93,55.93,0,0,1,11,6.69,83.22,83.22,0,0,1,13.35,13.18,67.93,67.93,0,0,1,6.85,11c1,2.09,2.09,4.18,3,6.32a52.73,52.73,0,0,1,3.43,11.87,35.57,35.57,0,0,1,.06,7.58,32.73,32.73,0,0,1-1.43,5.48c-.18.52-.4,1-.61,1.54a31,31,0,0,1-1.49,3c-.22.39-.46.77-.69,1.16a13.45,13.45,0,0,0-.59,1.35,6.64,6.64,0,0,0-.25,1.48,7,7,0,0,0,.8,3A15.72,15.72,0,0,0,445,358c.73.81,1.53,1.54,2.27,2.34l1.73,1.85c.76.82,1.45,1.73,2.15,2.61.83,1.17,1.65,2.32,2.47,3.49a50.38,50.38,0,0,1,2.69,4.38c1,1.73,1.86,3.52,2.66,5.33a65.21,65.21,0,0,1,4.1,14.74C463.22,394.25,463.34,395.72,463.4,397.19Z"/><path class="cls-2" d="M451.17,352.63c.57.56,1.15,1.11,1.7,1.69l1.85,1.94c.94,1,1.77,2.13,2.64,3.18,1.11,1.36,2.08,2.84,3.09,4.26a55.44,55.44,0,0,1,4.69,8.07,66.41,66.41,0,0,1,5.59,17,50.74,50.74,0,0,1,1,9.9,42.58,42.58,0,0,1-1,8.79,32.48,32.48,0,0,1-8.31,14.95,53.57,53.57,0,0,1-14.24,10.52A89.07,89.07,0,0,1,431,439.48c-2.38.66-4.78,1.31-7.21,1.76l-3.25.59c-1.94.36-3.88.79-5.84,1.05l-7.27,1c-2.51.33-5,.48-7.58.69-1.69.14-3.38.24-5.08.33-2.26.1-4.52.26-6.78.31l-7.4.18c-8.09.19-16.18.1-24.28-.05-8.46-.16-16.93-.31-25.39-.6-4.43-.15-8.86-.29-13.29-.5-4.6-.22-9.19-.51-13.79-.82-3.69-.25-7.39-.61-11.07-.95l-14.45-1.36c-8.43-.79-16.89-1.37-25.34-2s-16.81-1.39-25.2-2.35q-6.44-.74-12.88-1.33c-3.91-.35-7.85-.45-11.77-.63q-6.87-.33-13.74-.76c-4.21-.27-8.41-.72-12.6-1.21-8.59-1-17.19-2.06-25.77-3.21l1.12.14c-2.13-.28-4.27-.56-6.4-.89-1.79-.27-3.6-.5-5.38-.82-2.15-.4-4.3-.76-6.42-1.26-1.11-.26-2.26-.46-3.35-.8l-3.53-1.09c-3.86-1.19-7.62-2.75-11.46-4-1.83-.61-3.65-1.27-5.51-1.81-2-.6-4.08-1.2-6.13-1.78-4.24-1.2-8.47-2.43-12.7-3.66a3.6,3.6,0,0,1-.86-6.57,3.71,3.71,0,0,1,2.77-.36q3.1.66,6.21,1.36l1.63.38q-2-1.63-4-3.31a100.52,100.52,0,0,1-10.75-10A45.81,45.81,0,0,1,76,376.06a41.16,41.16,0,0,1-.59-17.43,49.11,49.11,0,0,1,6.54-16.46,62,62,0,0,1,5.62-7.69,48.5,48.5,0,0,1,6-6,75.93,75.93,0,0,1,15.29-9.9,66.08,66.08,0,0,1,17.42-5.73,58.28,58.28,0,0,1,9.69-1,49.2,49.2,0,0,1,7.47.52c2.09.31,4.17.6,6.22,1.11,1.12.28,2.23.56,3.34.86l1.71.48c.24-.75.45-1.51.67-2.29.12-.44.25-.89.38-1.34l1.14-3.87c.57-2,1.3-3.92,2-5.87s1.53-4,2.3-6A85.28,85.28,0,0,1,167,283.12a92.41,92.41,0,0,1,10.68-14.38,99.23,99.23,0,0,1,13-12.39,91.15,91.15,0,0,1,7.8-5.62,82.36,82.36,0,0,1,7.6-4.27A89,89,0,0,1,223,240a82.72,82.72,0,0,1,9.23-1.82,67.41,67.41,0,0,1,9.08-.77,55.64,55.64,0,0,1,18.31,3.07,35.36,35.36,0,0,1,8.75,4.17,29.17,29.17,0,0,1,5.67,4.9c.48.58,1,1.17,1.44,1.76,1.13-1.15,2.3-2.25,3.53-3.29,2.47-2.09,5-4.1,7.69-6a90.19,90.19,0,0,1,16.33-9.08,88,88,0,0,1,17.83-5.71,93.73,93.73,0,0,1,9.87-1.39c1.74-.15,3.49-.25,5.24-.25a35.63,35.63,0,0,1,3.72.18,44.27,44.27,0,0,1,9.87,2.09,52.78,52.78,0,0,1,8.2,3.56,36.9,36.9,0,0,1,13.38,12.14,47.66,47.66,0,0,1,4.22,8.15c.4,1,.81,2,1.22,3.06a49.9,49.9,0,0,1,1.74,5.22c.54,2,1,4,1.47,6,.22,1,.44,2.06.63,3.09.13.77.25,1.55.39,2.32,2.82.17,5.67-.11,8.49-.15,6.18-.08,12.48.25,18.45,2a51,51,0,0,1,16,8.05,88.43,88.43,0,0,1,13.5,12.22,72,72,0,0,1,6.08,7.84,65.28,65.28,0,0,1,4.38,7.39c1,2.13,2.15,4.24,3.09,6.43a66.05,66.05,0,0,1,3.27,8.95,48.82,48.82,0,0,1,1.52,8.65,33.78,33.78,0,0,1-.49,9.09,34.79,34.79,0,0,1-1.73,5.85c-.45,1.17-.91,2.36-1.47,3.49C451.66,351.71,451.42,352.17,451.17,352.63Zm12,49.81a32.91,32.91,0,0,0,.23-5.25c-.06-1.47-.18-2.94-.36-4.4a65.21,65.21,0,0,0-4.1-14.74c-.8-1.81-1.68-3.6-2.66-5.33a50.38,50.38,0,0,0-2.69-4.38c-.82-1.17-1.64-2.32-2.47-3.49-.7-.88-1.39-1.79-2.15-2.61l-1.73-1.85c-.74-.8-1.54-1.53-2.27-2.34a15.72,15.72,0,0,1-1.64-2.09,7,7,0,0,1-.8-3,6.64,6.64,0,0,1,.25-1.48,13.45,13.45,0,0,1,.59-1.35c.23-.39.47-.77.69-1.16a31,31,0,0,0,1.49-3c.21-.51.43-1,.61-1.54a32.73,32.73,0,0,0,1.43-5.48,35.57,35.57,0,0,0-.06-7.58,52.73,52.73,0,0,0-3.43-11.87c-.94-2.14-2-4.23-3-6.32a67.93,67.93,0,0,0-6.85-11A83.22,83.22,0,0,0,420.87,289a55.93,55.93,0,0,0-11-6.69A50.21,50.21,0,0,0,399,279.49,112.27,112.27,0,0,0,385.1,279c-1.56,0-3.1,0-4.65-.14a9.9,9.9,0,0,1-2.64-.53,7,7,0,0,1-2.09-1.19c-1.7-1.33-2-3.54-2.38-5.51-.53-2.44-1.16-4.85-1.78-7.27-.6-2.27-1.42-4.48-2.21-6.69-.41-1-.82-1.93-1.24-2.9a39.76,39.76,0,0,0-4.5-7.82,33.43,33.43,0,0,0-4.77-4.82,42.58,42.58,0,0,0-8-4.58,47,47,0,0,0-9.66-2.78,41.38,41.38,0,0,0-6.68-.23c-2,.1-4,.3-6,.55A86,86,0,0,0,308,240.83a87.49,87.49,0,0,0-10,5,97.11,97.11,0,0,0-8.87,6,70.29,70.29,0,0,0-6.08,5.22c-1,1-1.9,1.95-2.8,3a9.58,9.58,0,0,1-1,1.17c-.41.34-.84.67-1.26,1l-1.12.47a5.19,5.19,0,0,1-1.71.27,4.8,4.8,0,0,1-3.26-1.35,8,8,0,0,1-1.57-2.25,13.08,13.08,0,0,0-1-1.45,35.49,35.49,0,0,0-4.47-4.62,32.43,32.43,0,0,0-5.67-3.31,54.25,54.25,0,0,0-11.82-3.2,48,48,0,0,0-6.78-.34c-2.24.07-4.47.26-6.69.53a75.49,75.49,0,0,0-10,2.1,80,80,0,0,0-18.45,7.87,84.17,84.17,0,0,0-8.54,5.72,107.49,107.49,0,0,0-18,18.28,70.35,70.35,0,0,0-5.13,7.76c-1.56,2.77-2.93,5.62-4.21,8.52-1,2.54-2.08,5.07-3,7.64-.52,1.45-1.09,2.89-1.56,4.35l-1.56,4.88a38.87,38.87,0,0,1-1.88,5.13,6.26,6.26,0,0,1-2.29,2.79,6.13,6.13,0,0,1-1.46.7,8.08,8.08,0,0,1-1.62.28,12.48,12.48,0,0,1-2.1-.37c-.39-.11-.78-.24-1.16-.37l-1.08-.32-2.12-.58c-1.44-.4-2.9-.73-4.36-1.05-1.29-.28-2.6-.47-3.9-.68a49.35,49.35,0,0,0-6.31-.37,59.45,59.45,0,0,0-6,.41A66,66,0,0,0,114,323.83a76.38,76.38,0,0,0-15.5,9.06,56.39,56.39,0,0,0-9,9.14,53.39,53.39,0,0,0-6.22,10.5,42.32,42.32,0,0,0-2.77,9.88,38.05,38.05,0,0,0,0,8.6A41.13,41.13,0,0,0,83,380.32a45.6,45.6,0,0,0,5.12,8.85c4,5,8.89,9,13.74,13.05,2.45,2.05,5,4,7.5,5.94l4.46,3.4.93.28c1,.31,2.07.59,3.09.94q2.79.93,5.56,1.93c2,.7,3.91,1.45,5.91,2.08,1.17.37,2.35.83,3.56,1.12l3.31.79a112.22,112.22,0,0,0,11.08,2l-.26,0,.36.05.45.06,4.51.6c2.33.3,4.65.6,7,.87,4.27.51,8.55,1,12.82,1.49l5.79.72c2.27.26,4.53.47,6.79.68,4.35.41,8.72.56,13.08.76,3.91.19,7.83.27,11.74.51,2.22.13,4.42.25,6.63.45s4.45.42,6.68.67c4.25.46,8.49,1,12.74,1.39,8.31.82,16.64,1.38,25,2s16.91,1.32,25.35,2.1q6.84.64,13.69,1.24c4.21.36,8.42.64,12.64.93,4,.28,8,.41,12,.56q7.17.26,14.32.47c8.05.24,16.11.47,24.16.58q7.08.11,14.16.08c1.7,0,3.38,0,5.08-.06,2.08,0,4.17,0,6.25-.12l7.85-.34c1.76-.08,3.51-.23,5.26-.37,1.92-.15,3.85-.24,5.75-.5l6-.78,8.38-1.51a84.23,84.23,0,0,0,8.73-2.15c3.16-.94,6.26-2,9.3-3.23a62.34,62.34,0,0,0,12.35-7,43.69,43.69,0,0,0,6.55-6.42,22.9,22.9,0,0,0,4.78-11.89Z"/><path class="cls-3" d="M811.9,226.07a23.71,23.71,0,0,1-.17,3.86,22.89,22.89,0,0,1-1.22,4.84,22.31,22.31,0,0,1-2.29,3.89,31.57,31.57,0,0,1-4.81,4.72,46.2,46.2,0,0,1-9.07,5.17c-2.23.91-4.51,1.68-6.82,2.37a61.35,61.35,0,0,1-6.42,1.58l-6.15,1.11-4.41.57c-1.39.19-2.81.26-4.22.37s-2.57.21-3.86.27l-5.77.24c-1.53.07-3.06.06-4.59.09-1.24,0-2.48.05-3.72.05q-5.21,0-10.41-.06c-5.91-.08-11.82-.25-17.73-.42-3.51-.11-7-.22-10.52-.35-2.94-.11-5.89-.21-8.82-.41-3.1-.22-6.19-.42-9.28-.69-3.36-.28-6.71-.59-10.06-.9q-9.3-.87-18.61-1.55c-6.12-.44-12.24-.85-18.34-1.46-3.12-.31-6.24-.68-9.36-1-1.63-.18-3.27-.34-4.9-.49s-3.24-.24-4.87-.33c-2.87-.18-5.75-.24-8.62-.37-3.2-.16-6.42-.26-9.61-.56-1.66-.16-3.32-.32-5-.51-1.42-.16-2.84-.35-4.25-.52l-9.42-1.09c-1.76-.21-3.52-.44-5.28-.67l.15,0-3.2-.43-.11,0-.33,0h-.07a82.54,82.54,0,0,1-8.14-1.46l-2.43-.58c-.89-.21-1.75-.55-2.62-.82-1.46-.46-2.89-1-4.34-1.53s-2.71-1-4.08-1.42c-.74-.25-1.51-.46-2.27-.68l-.68-.21-3.27-2.5c-1.85-1.44-3.71-2.86-5.51-4.36-3.57-3-7.18-5.93-10.09-9.58a33.41,33.41,0,0,1-3.76-6.5,30.13,30.13,0,0,1-1.86-6.84,27.83,27.83,0,0,1,0-6.32,31.13,31.13,0,0,1,2-7.26,39,39,0,0,1,4.56-7.7,42,42,0,0,1,6.61-6.72,56.85,56.85,0,0,1,11.38-6.65,48.39,48.39,0,0,1,11.2-3.05,43,43,0,0,1,4.39-.3,34.15,34.15,0,0,1,4.63.27c1,.15,1.92.29,2.86.5s2.15.48,3.21.77l1.55.43.79.23c.29.1.57.19.86.27a10.13,10.13,0,0,0,1.54.27,6.06,6.06,0,0,0,1.19-.21,4.38,4.38,0,0,0,1.07-.51,4.59,4.59,0,0,0,1.69-2,29.09,29.09,0,0,0,1.37-3.76l1.15-3.58c.35-1.08.76-2.14,1.14-3.2.68-1.89,1.46-3.75,2.21-5.61.94-2.13,1.94-4.23,3.09-6.26a50.17,50.17,0,0,1,3.77-5.7,78.88,78.88,0,0,1,13.23-13.42,61.17,61.17,0,0,1,6.27-4.2,58.43,58.43,0,0,1,13.55-5.78,54.12,54.12,0,0,1,7.32-1.54c1.64-.2,3.27-.34,4.91-.39a34.61,34.61,0,0,1,5,.25A39.68,39.68,0,0,1,662,118a23.43,23.43,0,0,1,4.16,2.43,25.63,25.63,0,0,1,3.28,3.39,9.33,9.33,0,0,1,.71,1.06,6,6,0,0,0,1.16,1.66,3.53,3.53,0,0,0,2.39,1,3.58,3.58,0,0,0,1.26-.2l.82-.34.93-.73a7.57,7.57,0,0,0,.75-.86c.66-.76,1.34-1.49,2.06-2.2a50.86,50.86,0,0,1,4.46-3.83,69.41,69.41,0,0,1,6.51-4.4,65,65,0,0,1,7.31-3.7,63.18,63.18,0,0,1,15-4.18c1.48-.18,3-.33,4.44-.4a29.83,29.83,0,0,1,4.91.17,34.23,34.23,0,0,1,7.09,2,31.07,31.07,0,0,1,5.91,3.36,24.92,24.92,0,0,1,3.5,3.54,29.09,29.09,0,0,1,3.31,5.75c.3.7.6,1.41.91,2.12.58,1.63,1.18,3.25,1.62,4.92s.91,3.54,1.31,5.33c.31,1.45.5,3.07,1.75,4.05a4.94,4.94,0,0,0,1.53.87,7.13,7.13,0,0,0,1.94.4c1.14.09,2.27.11,3.41.1a82.39,82.39,0,0,1,10.18.32,36.38,36.38,0,0,1,8,2.11,41.11,41.11,0,0,1,8.08,4.91,60.64,60.64,0,0,1,9.8,9.68,49.65,49.65,0,0,1,5,8c.76,1.55,1.54,3.08,2.23,4.65a38.88,38.88,0,0,1,2.52,8.72,25.21,25.21,0,0,1,0,5.56,24.37,24.37,0,0,1-1,4c-.13.38-.29.75-.44,1.13-.34.75-.69,1.49-1.1,2.2-.16.29-.34.57-.51.85s-.3.66-.43,1a5.07,5.07,0,0,0-.18,1.09,5.29,5.29,0,0,0,.58,2.2,12.81,12.81,0,0,0,1.21,1.54c.54.58,1.12,1.13,1.66,1.71l1.28,1.36c.56.6,1.06,1.27,1.58,1.92l1.81,2.56a35.15,35.15,0,0,1,2,3.22c.72,1.27,1.36,2.58,2,3.91a48.59,48.59,0,0,1,3,10.82C811.77,223.92,811.86,225,811.9,226.07Z"/><path class="cls-2" d="M802.92,193.35c.42.41.85.82,1.25,1.25s.91.94,1.36,1.42c.69.73,1.3,1.56,1.94,2.33.81,1,1.52,2.09,2.27,3.13a41.11,41.11,0,0,1,3.44,5.92,49.07,49.07,0,0,1,4.11,12.47,37.73,37.73,0,0,1,.72,7.27,31.08,31.08,0,0,1-.78,6.45,23.77,23.77,0,0,1-6.1,11,39.31,39.31,0,0,1-10.46,7.71,64.65,64.65,0,0,1-12.54,4.84c-1.74.48-3.51,1-5.29,1.29l-2.39.44c-1.42.26-2.85.57-4.29.77l-5.34.72c-1.84.25-3.71.35-5.56.51-1.25.1-2.48.18-3.73.24-1.66.08-3.32.19-5,.23l-5.44.13c-5.94.14-11.88.08-17.82,0-6.22-.11-12.44-.22-18.66-.43-3.25-.11-6.5-.22-9.75-.37s-6.75-.38-10.13-.61c-2.71-.18-5.42-.44-8.13-.69l-10.61-1c-6.19-.58-12.4-1-18.61-1.47s-12.35-1-18.5-1.73c-3.15-.36-6.31-.68-9.46-1-2.87-.26-5.77-.33-8.64-.47-3.37-.15-6.73-.34-10.09-.55-3.1-.2-6.18-.53-9.26-.89-6-.73-12.07-1.45-18.1-2.25-1.57-.21-3.14-.41-4.7-.65-1.32-.21-2.64-.37-4-.61-1.58-.29-3.16-.56-4.72-.93-.81-.19-1.66-.34-2.46-.58l-2.59-.8c-2.84-.88-5.59-2-8.41-3-1.35-.45-2.69-.94-4-1.33s-3-.89-4.5-1.31c-3.11-.88-6.22-1.79-9.33-2.69a2.64,2.64,0,0,1-.63-4.82,2.72,2.72,0,0,1,2-.27l4.56,1,1.2.28c-1-.8-2-1.61-2.95-2.43a74,74,0,0,1-7.89-7.33,33.38,33.38,0,0,1-7.56-14,30,30,0,0,1-.43-12.8,36.05,36.05,0,0,1,4.79-12.09,46.61,46.61,0,0,1,4.13-5.64,36,36,0,0,1,4.39-4.43,55.16,55.16,0,0,1,11.23-7.26,47.78,47.78,0,0,1,12.79-4.21,42.52,42.52,0,0,1,7.11-.71,36,36,0,0,1,5.49.38c1.54.23,3.07.44,4.57.82.82.2,1.64.41,2.45.63l1.26.35c.17-.55.33-1.11.49-1.68.09-.33.18-.65.28-1,.28-1,.55-1.9.83-2.84.43-1.46,1-2.88,1.45-4.32s1.12-2.93,1.69-4.39a62,62,0,0,1,4.32-9.09,68.39,68.39,0,0,1,7.84-10.55,72.48,72.48,0,0,1,9.52-9.1,64.49,64.49,0,0,1,5.73-4.13,61.23,61.23,0,0,1,5.58-3.14,65.72,65.72,0,0,1,12.46-4.76,62.67,62.67,0,0,1,6.79-1.34,49.45,49.45,0,0,1,6.66-.56A41,41,0,0,1,662.27,111a25.77,25.77,0,0,1,6.42,3.06,21.14,21.14,0,0,1,4.17,3.61l1.06,1.28c.83-.84,1.69-1.65,2.59-2.41,1.82-1.53,3.7-3,5.64-4.38a66.73,66.73,0,0,1,12-6.67,64.82,64.82,0,0,1,13.09-4.19,71,71,0,0,1,7.25-1c1.28-.11,2.56-.18,3.85-.18a25,25,0,0,1,2.73.13,31.55,31.55,0,0,1,7.25,1.54,37.76,37.76,0,0,1,6,2.61,27.06,27.06,0,0,1,9.83,8.91,35.63,35.63,0,0,1,3.09,6l.9,2.25a36.77,36.77,0,0,1,1.28,3.84c.39,1.46.76,2.92,1.08,4.41.16.75.32,1.51.46,2.27.1.56.18,1.14.29,1.7,2.07.13,4.16-.08,6.23-.11A46.15,46.15,0,0,1,771,135.08,37.35,37.35,0,0,1,782.78,141a64.89,64.89,0,0,1,9.91,9,54.08,54.08,0,0,1,4.47,5.76,48.4,48.4,0,0,1,3.21,5.43c.77,1.57,1.58,3.12,2.27,4.72a47.78,47.78,0,0,1,2.4,6.57,35.16,35.16,0,0,1,1.12,6.36,24.45,24.45,0,0,1-.36,6.67,25.58,25.58,0,0,1-1.27,4.3c-.33.86-.67,1.73-1.08,2.56C803.28,192.67,803.1,193,802.92,193.35Zm8.81,36.58a23.71,23.71,0,0,0,.17-3.86c0-1.08-.13-2.15-.26-3.23a48.59,48.59,0,0,0-3-10.82c-.59-1.33-1.23-2.64-2-3.91a35.15,35.15,0,0,0-2-3.22l-1.81-2.56c-.52-.65-1-1.32-1.58-1.92L800,199c-.54-.58-1.12-1.13-1.66-1.71a12.81,12.81,0,0,1-1.21-1.54,5.29,5.29,0,0,1-.58-2.2,5.07,5.07,0,0,1,.18-1.09c.13-.33.27-.66.43-1s.35-.56.51-.85c.41-.71.76-1.45,1.1-2.2.15-.38.31-.75.44-1.13a24.37,24.37,0,0,0,1-4,25.21,25.21,0,0,0,0-5.56,38.88,38.88,0,0,0-2.52-8.72c-.69-1.57-1.47-3.1-2.23-4.65a49.65,49.65,0,0,0-5-8,60.64,60.64,0,0,0-9.8-9.68,41.11,41.11,0,0,0-8.08-4.91,36.38,36.38,0,0,0-8-2.11,82.39,82.39,0,0,0-10.18-.32c-1.14,0-2.27,0-3.41-.1a7.13,7.13,0,0,1-1.94-.4,4.94,4.94,0,0,1-1.53-.87c-1.25-1-1.44-2.6-1.75-4.05-.4-1.79-.85-3.56-1.31-5.33s-1-3.29-1.62-4.92c-.31-.71-.61-1.42-.91-2.12a29.09,29.09,0,0,0-3.31-5.75,24.92,24.92,0,0,0-3.5-3.54,31.07,31.07,0,0,0-5.91-3.36,34.23,34.23,0,0,0-7.09-2,29.83,29.83,0,0,0-4.91-.17c-1.48.07-3,.22-4.44.4a63.18,63.18,0,0,0-15,4.18,65,65,0,0,0-7.31,3.7,69.41,69.41,0,0,0-6.51,4.4,50.86,50.86,0,0,0-4.46,3.83c-.72.71-1.4,1.44-2.06,2.2a7.57,7.57,0,0,1-.75.86l-.93.73-.82.34a3.58,3.58,0,0,1-1.26.2,3.53,3.53,0,0,1-2.39-1,6,6,0,0,1-1.16-1.66,9.33,9.33,0,0,0-.71-1.06,25.63,25.63,0,0,0-3.28-3.39A23.43,23.43,0,0,0,662,118a39.68,39.68,0,0,0-8.68-2.35,34.61,34.61,0,0,0-5-.25c-1.64.05-3.27.19-4.91.39a54.12,54.12,0,0,0-7.32,1.54,58.43,58.43,0,0,0-13.55,5.78,61.17,61.17,0,0,0-6.27,4.2A78.88,78.88,0,0,0,603,140.71a50.17,50.17,0,0,0-3.77,5.7c-1.15,2-2.15,4.13-3.09,6.26-.75,1.86-1.53,3.72-2.21,5.61-.38,1.06-.79,2.12-1.14,3.2l-1.15,3.58a29.09,29.09,0,0,1-1.37,3.76,4.59,4.59,0,0,1-1.69,2,4.38,4.38,0,0,1-1.07.51,6.06,6.06,0,0,1-1.19.21,10.13,10.13,0,0,1-1.54-.27c-.29-.08-.57-.17-.86-.27l-.79-.23-1.55-.43c-1.06-.29-2.13-.54-3.21-.77s-1.9-.35-2.86-.5a34.15,34.15,0,0,0-4.63-.27,43,43,0,0,0-4.39.3,48.39,48.39,0,0,0-11.2,3.05,56.85,56.85,0,0,0-11.38,6.65,42,42,0,0,0-6.61,6.72,39,39,0,0,0-4.56,7.7,31.13,31.13,0,0,0-2,7.26,27.83,27.83,0,0,0,0,6.32,30.13,30.13,0,0,0,1.86,6.84,33.41,33.41,0,0,0,3.76,6.5c2.91,3.65,6.52,6.6,10.09,9.58,1.8,1.5,3.66,2.92,5.51,4.36l3.27,2.5.68.21c.76.22,1.53.43,2.27.68,1.37.46,2.73.93,4.08,1.42s2.88,1.07,4.34,1.53c.87.27,1.73.61,2.62.82l2.43.58a82.54,82.54,0,0,0,8.14,1.46h.07l.33,0,.11,0,3.2.43-.15,0c1.76.23,3.52.46,5.28.67l9.42,1.09c1.41.17,2.83.36,4.25.52,1.66.19,3.32.35,5,.51,3.19.3,6.41.4,9.61.56,2.87.13,5.75.19,8.62.37,1.63.09,3.25.18,4.87.33s3.27.31,4.9.49c3.12.34,6.24.71,9.36,1,6.1.61,12.22,1,18.34,1.46s12.41,1,18.61,1.55c3.35.31,6.7.62,10.06.9,3.09.27,6.18.47,9.28.69,2.93.2,5.88.3,8.82.41,3.5.13,7,.24,10.52.35,5.91.17,11.82.34,17.73.42q5.2.08,10.41.06c1.24,0,2.48,0,3.72-.05,1.53,0,3.06,0,4.59-.09l5.77-.24c1.29-.06,2.58-.17,3.86-.27s2.83-.18,4.22-.37l4.41-.57,6.15-1.11a61.35,61.35,0,0,0,6.42-1.58c2.31-.69,4.59-1.46,6.82-2.37a46.2,46.2,0,0,0,9.07-5.17,31.57,31.57,0,0,0,4.81-4.72,22.31,22.31,0,0,0,2.29-3.89A22.89,22.89,0,0,0,811.73,229.93Z"/><path class="cls-4" d="M811.26,631.07a56.64,56.64,0,0,1-.38,8.83,54.15,54.15,0,0,1-2.8,11.09,51.84,51.84,0,0,1-5.25,8.88,71.56,71.56,0,0,1-11,10.8,104.44,104.44,0,0,1-20.76,11.83,161.77,161.77,0,0,1-15.61,5.42,139.31,139.31,0,0,1-14.69,3.62c-4.69.85-9.38,1.71-14.07,2.54l-10.09,1.32c-3.2.42-6.44.58-9.66.83-2.94.24-5.88.5-8.83.62l-13.21.57c-3.49.15-7,.13-10.5.2q-4.26.09-8.53.11-11.9,0-23.8-.13c-13.53-.19-27.07-.58-40.59-1q-12-.36-24.07-.8c-6.73-.24-13.48-.47-20.19-.94-7.08-.48-14.17-1-21.24-1.56q-11.5-1-23-2.07-21.27-2-42.59-3.54c-14-1-28-2-42-3.35-7.14-.71-14.27-1.55-21.41-2.33-3.74-.42-7.48-.78-11.22-1.12s-7.42-.54-11.14-.76c-6.57-.4-13.16-.54-19.74-.85-7.32-.35-14.67-.6-22-1.28-3.8-.35-7.6-.72-11.4-1.16-3.25-.37-6.49-.81-9.73-1.2-7.18-.84-14.37-1.65-21.55-2.5-4-.47-8.05-1-12.08-1.51l-6.72-.9-.52-.07-.76-.1-.15,0-.44-.06c-6.1-.85-12.22-1.83-18.19-3.27l-5.57-1.34c-2-.48-4-1.26-6-1.88-3.35-1-6.64-2.31-9.94-3.5-3.1-1.11-6.21-2.2-9.33-3.24-1.72-.58-3.47-1-5.2-1.57l-1.56-.47-7.5-5.72c-4.22-3.29-8.48-6.54-12.59-10-8.17-6.83-16.43-13.57-23.1-21.94a76.49,76.49,0,0,1-8.6-14.87,69.24,69.24,0,0,1-4.26-15.65,64.74,64.74,0,0,1,0-14.46,71.9,71.9,0,0,1,4.66-16.6,88.58,88.58,0,0,1,10.46-17.64A95.17,95.17,0,0,1,198,523a128.33,128.33,0,0,1,26-15.21,110.47,110.47,0,0,1,25.63-7,96,96,0,0,1,10-.7,83.15,83.15,0,0,1,10.59.62c2.2.35,4.39.67,6.56,1.15,2.46.54,4.9,1.1,7.33,1.76,1.19.33,2.38.64,3.56,1l1.81.54c.65.22,1.3.43,2,.61a21.1,21.1,0,0,0,3.52.62,13.22,13.22,0,0,0,2.73-.47,10.77,10.77,0,0,0,2.45-1.16,10.49,10.49,0,0,0,3.85-4.7,65.72,65.72,0,0,0,3.16-8.61c.87-2.73,1.74-5.47,2.62-8.2.79-2.46,1.74-4.88,2.62-7.31,1.55-4.34,3.32-8.58,5.05-12.84,2.15-4.89,4.44-9.67,7.06-14.33a119.11,119.11,0,0,1,8.63-13A180.81,180.81,0,0,1,363.51,405a142.16,142.16,0,0,1,14.34-9.6,148.81,148.81,0,0,1,15.46-7.76,147.12,147.12,0,0,1,15.56-5.47,125.91,125.91,0,0,1,16.75-3.53c3.73-.46,7.47-.78,11.24-.89a79,79,0,0,1,11.4.57,91.59,91.59,0,0,1,19.86,5.37,53.64,53.64,0,0,1,9.52,5.57,58.67,58.67,0,0,1,7.52,7.76,25.11,25.11,0,0,1,1.63,2.43,12.94,12.94,0,0,0,2.64,3.78,8,8,0,0,0,5.47,2.27,8.5,8.5,0,0,0,2.88-.44l1.87-.79c.72-.54,1.44-1.1,2.13-1.67a16.26,16.26,0,0,0,1.73-2c1.51-1.74,3.07-3.41,4.71-5a118.43,118.43,0,0,1,10.21-8.76,158.21,158.21,0,0,1,14.9-10.08,138.58,138.58,0,0,1,51.07-18c3.38-.42,6.77-.75,10.17-.92a68.09,68.09,0,0,1,11.24.39A78.35,78.35,0,0,1,622,362.89a71.27,71.27,0,0,1,13.51,7.69,56.34,56.34,0,0,1,8,8.1,66.39,66.39,0,0,1,7.57,13.15l2.08,4.86c1.33,3.72,2.7,7.42,3.7,11.25,1.06,4.06,2.1,8.11,3,12.21.73,3.31,1.15,7,4,9.27a11.67,11.67,0,0,0,3.5,2,16.77,16.77,0,0,0,4.44.9c2.6.21,5.2.25,7.81.23,7.78-.06,15.54-.16,23.29.75a83,83,0,0,1,18.34,4.82,93.84,93.84,0,0,1,18.49,11.24,138.63,138.63,0,0,1,22.43,22.15,113.94,113.94,0,0,1,11.51,18.41c1.74,3.52,3.52,7,5.09,10.62a89,89,0,0,1,5.77,20,59.63,59.63,0,0,1,.1,12.74,55.47,55.47,0,0,1-2.41,9.21c-.3.87-.66,1.73-1,2.59a55,55,0,0,1-2.51,5c-.37.66-.78,1.29-1.16,2s-.7,1.5-1,2.27a10.89,10.89,0,0,0-.41,2.48,11.6,11.6,0,0,0,1.34,5,26,26,0,0,0,2.77,3.52c1.22,1.35,2.56,2.59,3.8,3.92l2.91,3.11c1.28,1.38,2.44,2.91,3.62,4.4l4.14,5.85A81.77,81.77,0,0,1,799.3,590a99.7,99.7,0,0,1,4.47,9,110.17,110.17,0,0,1,6.89,24.77C811,626.14,811.16,628.6,811.26,631.07ZM653.36,548a6.15,6.15,0,0,0-.58-4.47,5.85,5.85,0,0,0-3.47-2.67,6,6,0,0,0-1.5-.2,5.88,5.88,0,0,0-5.64,4.26c-1.33,4.81-2.79,9.58-4.2,14.37-2.14,7.23-4.26,14.43-7.11,21.42-2.83,6.54-5.94,13-9.39,19.22a158,158,0,0,1-12.47,19A100.61,100.61,0,0,1,592.87,635a98.54,98.54,0,0,1-19.26,11.15,92.06,92.06,0,0,1-20.7,5.79,102,102,0,0,1-23.36,0l-9.11-1.07q-6.89-1.05-13.73-2.21c-4.9-.84-9.77-1.81-14.65-2.78-2.39-.47-4.76-1.17-7.13-1.76-2.05-.51-4-1.08-6.06-1.72-2.19-.68-4.42-1.28-6.57-2.1l-6.82-2.59-6.56-3a81.28,81.28,0,0,1-15.07-9.07,76.73,76.73,0,0,1-11.78-11.71,58.8,58.8,0,0,1-6.16-10.31,48.84,48.84,0,0,1-2.56-9.81c-.93-8.76,0-17.65.64-26.41.26-3.54-3.14-6.49-6.49-6.49a6.49,6.49,0,0,0-4.59,1.9,6.82,6.82,0,0,0-1.9,4.59c-.34,4.62-.71,9.26-.92,13.89a79.06,79.06,0,0,0,.61,14.83,55.87,55.87,0,0,0,1.49,7.14,50.77,50.77,0,0,0,3.22,8.08,64.9,64.9,0,0,0,7.6,11.55,76.81,76.81,0,0,0,10.49,10.77A90.79,90.79,0,0,0,454,646.87l5.58,2.66c2,.93,4.05,1.67,6.06,2.48,1.34.54,2.68,1.16,4,1.62l6.67,2.25a200,200,0,0,0,21.16,5.4c3.47.76,7,1.35,10.46,2,3.76.72,7.55,1.41,11.35,1.9,4.32.57,8.64,1.22,13,1.61a118.49,118.49,0,0,0,15.31.41,91.65,91.65,0,0,0,16.57-2.28,87.91,87.91,0,0,0,14.24-4.69,108.71,108.71,0,0,0,14.94-7.51,101.49,101.49,0,0,0,12-8.79,94.8,94.8,0,0,0,11.35-11.23,137.09,137.09,0,0,0,9.33-12.4,141.18,141.18,0,0,0,8.5-14.19c2.43-4.63,4.58-9.42,6.6-14.24a136.63,136.63,0,0,0,5.19-14.32c1.49-5.14,2.72-10.37,3.92-15.59C651.4,557.33,652.51,552.68,653.36,548ZM564,455a5.09,5.09,0,1,0-10.18,0c-.47,11.42-1,22.85-1.34,34.29-.31,9.67-.7,19.35-.8,29a4.68,4.68,0,1,0,9.36,0C562.19,497.25,563.07,476.14,564,455Zm-89.92,71.23a7.72,7.72,0,0,0,2.73-10.42c-1.24-2.28-2.28-4.63-3.3-7a88.11,88.11,0,0,1-3.5-10.15,81.52,81.52,0,0,1-2-10.05A212.12,212.12,0,0,1,466.74,463a7.77,7.77,0,0,0-15.53,0c0,12.87.4,25.89,3.38,38.46a80.73,80.73,0,0,0,5.47,14.91,74.94,74.94,0,0,0,3.57,7.11A7.7,7.7,0,0,0,474.06,526.26Z"/><path class="cls-2" d="M672.5,419.72c4.74.28,9.53-.19,14.27-.25,10.38-.14,21,.42,31,3.38a85.19,85.19,0,0,1,26.83,13.52,148,148,0,0,1,22.7,20.54,122.86,122.86,0,0,1,10.21,13.17,110.8,110.8,0,0,1,7.36,12.42c1.76,3.58,3.62,7.13,5.2,10.81a109.93,109.93,0,0,1,5.49,15,81.29,81.29,0,0,1,2.56,14.53,57.21,57.21,0,0,1-.82,15.29,60.3,60.3,0,0,1-2.92,9.83c-.75,2-1.53,4-2.46,5.85-.39.79-.79,1.57-1.21,2.34,1,.94,1.93,1.87,2.86,2.85l3.1,3.26c1.59,1.67,3,3.57,4.44,5.34,1.87,2.28,3.49,4.76,5.19,7.16a94,94,0,0,1,7.88,13.55,111.36,111.36,0,0,1,9.4,28.53,86.06,86.06,0,0,1,1.65,16.64,71.93,71.93,0,0,1-1.78,14.76,54.52,54.52,0,0,1-13.95,25.13,90,90,0,0,1-23.93,17.67,149.86,149.86,0,0,1-28.71,11.07c-4,1.1-8,2.2-12.11,3l-5.47,1c-3.26.61-6.51,1.32-9.8,1.76l-12.23,1.65c-4.22.57-8.49.81-12.73,1.17-2.85.23-5.68.41-8.54.55-3.79.18-7.59.44-11.39.54l-12.44.29c-13.59.32-27.2.17-40.8-.09-14.23-.27-28.46-.51-42.68-1-7.44-.26-14.88-.49-22.32-.84-7.74-.37-15.45-.86-23.18-1.38-6.2-.42-12.41-1-18.61-1.6l-24.28-2.27c-14.17-1.33-28.38-2.32-42.58-3.37s-28.26-2.34-42.35-4q-10.82-1.23-21.65-2.22c-6.57-.6-13.19-.76-19.77-1.07q-11.56-.54-23.09-1.27c-7.09-.46-14.14-1.21-21.18-2-13.81-1.65-27.63-3.31-41.43-5.15l-1.88-.25c-2.95-.39-5.92-.79-8.87-1.24s-6.05-.85-9.05-1.4c-3.6-.66-7.22-1.26-10.79-2.11-1.86-.44-3.79-.77-5.63-1.34l-5.92-1.83c-6.5-2-12.8-4.63-19.26-6.77-3.08-1-6.14-2.14-9.26-3.05-3.43-1-6.86-2-10.3-3-7.13-2-14.24-4.09-21.35-6.15a6,6,0,0,1-1.44-11,6.24,6.24,0,0,1,4.65-.61c3.49.75,7,1.5,10.44,2.29l2.74.63q-3.4-2.73-6.76-5.56c-6.29-5.3-12.59-10.58-18.06-16.77a76.85,76.85,0,0,1-17.3-32,69.08,69.08,0,0,1-1-29.29,82.39,82.39,0,0,1,11-27.66,104.81,104.81,0,0,1,9.45-12.92,80.66,80.66,0,0,1,10-10.12,126.36,126.36,0,0,1,25.69-16.63,110.3,110.3,0,0,1,29.27-9.64,97.74,97.74,0,0,1,16.28-1.62,83.73,83.73,0,0,1,12.56.87c3.51.53,7,1,10.46,1.88,1.87.47,3.74.94,5.61,1.43,1,.26,1.91.54,2.87.82.4-1.27.76-2.55,1.12-3.85.21-.75.42-1.49.64-2.25.64-2.16,1.27-4.33,1.91-6.5,1-3.33,2.2-6.59,3.32-9.87s2.56-6.72,3.87-10.06a142.72,142.72,0,0,1,9.87-20.79,156.09,156.09,0,0,1,17.95-24.15,166.8,166.8,0,0,1,21.78-20.82A154.15,154.15,0,0,1,366,384.94a143.94,143.94,0,0,1,12.77-7.18,149.34,149.34,0,0,1,28.52-10.89,139.1,139.1,0,0,1,15.52-3.06,111.41,111.41,0,0,1,15.26-1.29,93.7,93.7,0,0,1,30.77,5.15c5.08,1.79,10.28,3.87,14.7,7a49.42,49.42,0,0,1,9.53,8.25c.81,1,1.63,2,2.42,3,1.9-1.92,3.87-3.78,5.94-5.52,4.15-3.51,8.45-6.9,12.91-10a152.48,152.48,0,0,1,27.45-15.26,148,148,0,0,1,30-9.58,154.16,154.16,0,0,1,16.58-2.34c2.93-.25,5.87-.42,8.8-.42a59.49,59.49,0,0,1,6.26.3A73.53,73.53,0,0,1,620,346.54a89.47,89.47,0,0,1,13.78,6,61.92,61.92,0,0,1,22.48,20.41,80,80,0,0,1,7.09,13.69q1,2.56,2.05,5.14a82.69,82.69,0,0,1,2.92,8.77c.91,3.35,1.76,6.7,2.48,10.11.37,1.72.74,3.45,1,5.19C672.07,417.11,672.26,418.42,672.5,419.72ZM810.88,639.9a56.64,56.64,0,0,0,.38-8.83c-.1-2.47-.31-4.93-.6-7.38a110.17,110.17,0,0,0-6.89-24.77,99.7,99.7,0,0,0-4.47-9,81.77,81.77,0,0,0-4.53-7.37l-4.14-5.85c-1.18-1.49-2.34-3-3.62-4.4l-2.91-3.11c-1.24-1.33-2.58-2.57-3.8-3.92a26,26,0,0,1-2.77-3.52,11.6,11.6,0,0,1-1.34-5,10.89,10.89,0,0,1,.41-2.48c.3-.77.63-1.53,1-2.27s.79-1.29,1.16-2a55,55,0,0,0,2.51-5c.35-.86.71-1.72,1-2.59a55.47,55.47,0,0,0,2.41-9.21,59.63,59.63,0,0,0-.1-12.74,89,89,0,0,0-5.77-20c-1.57-3.6-3.35-7.1-5.09-10.62a113.94,113.94,0,0,0-11.51-18.41,138.63,138.63,0,0,0-22.43-22.15,93.84,93.84,0,0,0-18.49-11.24A83,83,0,0,0,703,433.29c-7.75-.91-15.51-.81-23.29-.75-2.61,0-5.21,0-7.81-.23a16.77,16.77,0,0,1-4.44-.9,11.67,11.67,0,0,1-3.5-2c-2.86-2.25-3.28-6-4-9.27-.9-4.1-1.94-8.15-3-12.21-1-3.83-2.37-7.53-3.7-11.25l-2.08-4.86a66.39,66.39,0,0,0-7.57-13.15,56.34,56.34,0,0,0-8-8.1A71.27,71.27,0,0,0,622,362.89a78.35,78.35,0,0,0-16.22-4.67,68.09,68.09,0,0,0-11.24-.39c-3.4.17-6.79.5-10.17.92a138.58,138.58,0,0,0-51.07,18,158.21,158.21,0,0,0-14.9,10.08,118.43,118.43,0,0,0-10.21,8.76c-1.64,1.62-3.2,3.29-4.71,5a16.26,16.26,0,0,1-1.73,2c-.69.57-1.41,1.13-2.13,1.67l-1.87.79a8.5,8.5,0,0,1-2.88.44,8,8,0,0,1-5.47-2.27,12.94,12.94,0,0,1-2.64-3.78,25.11,25.11,0,0,0-1.63-2.43,58.67,58.67,0,0,0-7.52-7.76,53.64,53.64,0,0,0-9.52-5.57,91.59,91.59,0,0,0-19.86-5.37,79,79,0,0,0-11.4-.57c-3.77.11-7.51.43-11.24.89a125.91,125.91,0,0,0-16.75,3.53,147.12,147.12,0,0,0-15.56,5.47,148.81,148.81,0,0,0-15.46,7.76,142.16,142.16,0,0,0-14.34,9.6,180.81,180.81,0,0,0-30.29,30.72,119.11,119.11,0,0,0-8.63,13c-2.62,4.66-4.91,9.44-7.06,14.33-1.73,4.26-3.5,8.5-5.05,12.84-.88,2.43-1.83,4.85-2.62,7.31-.88,2.73-1.75,5.47-2.62,8.2a65.72,65.72,0,0,1-3.16,8.61,10.49,10.49,0,0,1-3.85,4.7,10.77,10.77,0,0,1-2.45,1.16,13.22,13.22,0,0,1-2.73.47,21.1,21.1,0,0,1-3.52-.62c-.66-.18-1.31-.39-2-.61l-1.81-.54c-1.18-.34-2.37-.65-3.56-1-2.43-.66-4.87-1.22-7.33-1.76-2.17-.48-4.36-.8-6.56-1.15a83.15,83.15,0,0,0-10.59-.62,96,96,0,0,0-10,.7,110.47,110.47,0,0,0-25.63,7A128.33,128.33,0,0,0,198,523a95.17,95.17,0,0,0-15.12,15.37A88.58,88.58,0,0,0,172.43,556a71.9,71.9,0,0,0-4.66,16.6,64.74,64.74,0,0,0,0,14.46A69.24,69.24,0,0,0,172,602.73a76.49,76.49,0,0,0,8.6,14.87c6.67,8.37,14.93,15.11,23.1,21.94,4.11,3.43,8.37,6.68,12.59,10l7.5,5.72,1.56.47c1.73.52,3.48,1,5.2,1.57,3.12,1,6.23,2.13,9.33,3.24,3.3,1.19,6.59,2.45,9.94,3.5,2,.62,4,1.4,6,1.88l5.57,1.34c6,1.44,12.09,2.42,18.19,3.27l.44.06.15,0,.76.1.52.07,6.72.9c4,.52,8.05,1,12.08,1.51,7.18.85,14.37,1.66,21.55,2.5,3.24.39,6.48.83,9.73,1.2,3.8.44,7.6.81,11.4,1.16,7.31.68,14.66.93,22,1.28,6.58.31,13.17.45,19.74.85,3.72.22,7.43.42,11.14.76s7.48.7,11.22,1.12c7.14.78,14.27,1.62,21.41,2.33,14,1.39,28,2.33,42,3.35q21.32,1.57,42.59,3.54,11.51,1.07,23,2.07c7.07.61,14.16,1.08,21.24,1.56,6.71.47,13.46.7,20.19.94q12,.45,24.07.8c13.52.4,27.06.79,40.59,1q11.91.16,23.8.13,4.27,0,8.53-.11c3.5-.07,7-.05,10.5-.2l13.21-.57c2.95-.12,5.89-.38,8.83-.62,3.22-.25,6.46-.41,9.66-.83l10.09-1.32c4.69-.83,9.38-1.69,14.07-2.54a139.31,139.31,0,0,0,14.69-3.62,161.77,161.77,0,0,0,15.61-5.42,104.44,104.44,0,0,0,20.76-11.83,71.56,71.56,0,0,0,11-10.8,51.84,51.84,0,0,0,5.25-8.88A54.15,54.15,0,0,0,810.88,639.9Z"/><path class="cls-2" d="M558.88,449.94A5.12,5.12,0,0,1,564,455c-.91,21.11-1.79,42.22-3,63.31a4.68,4.68,0,1,1-9.36,0c.1-9.67.49-19.35.8-29,.38-11.44.87-22.87,1.34-34.29A5.15,5.15,0,0,1,558.88,449.94Z"/><path class="cls-2" d="M476.79,515.84a7.62,7.62,0,0,1-13.16,7.69,74.94,74.94,0,0,1-3.57-7.11,80.73,80.73,0,0,1-5.47-14.91c-3-12.57-3.4-25.59-3.38-38.46a7.77,7.77,0,0,1,15.53,0A212.12,212.12,0,0,0,468,488.63a81.52,81.52,0,0,0,2,10.05,88.11,88.11,0,0,0,3.5,10.15C474.51,511.21,475.55,513.56,476.79,515.84Z"/><path class="cls-2" d="M432.07,613.93a76.73,76.73,0,0,0,11.78,11.71,81.28,81.28,0,0,0,15.07,9.07l6.56,3,6.82,2.59c2.15.82,4.38,1.42,6.57,2.1,2,.64,4,1.21,6.06,1.72,2.37.59,4.74,1.29,7.13,1.76,4.88,1,9.75,1.94,14.65,2.78q6.86,1.17,13.73,2.21l9.11,1.07a102,102,0,0,0,23.36,0,92.06,92.06,0,0,0,20.7-5.79A98.54,98.54,0,0,0,592.87,635,100.61,100.61,0,0,0,609,618.9a158,158,0,0,0,12.47-19c3.45-6.23,6.56-12.68,9.39-19.22,2.85-7,5-14.19,7.11-21.42,1.41-4.79,2.87-9.56,4.2-14.37a5.88,5.88,0,0,1,5.64-4.26,6,6,0,0,1,1.5.2,5.85,5.85,0,0,1,3.47,2.67,6.15,6.15,0,0,1,.58,4.47c-.85,4.7-2,9.35-3,14-1.2,5.22-2.43,10.45-3.92,15.59a136.63,136.63,0,0,1-5.19,14.32c-2,4.82-4.17,9.61-6.6,14.24a141.18,141.18,0,0,1-8.5,14.19,137.09,137.09,0,0,1-9.33,12.4,94.8,94.8,0,0,1-11.35,11.23,101.49,101.49,0,0,1-12,8.79,108.71,108.71,0,0,1-14.94,7.51,87.91,87.91,0,0,1-14.24,4.69,91.65,91.65,0,0,1-16.57,2.28,118.49,118.49,0,0,1-15.31-.41c-4.35-.39-8.67-1-13-1.61-3.8-.49-7.59-1.18-11.35-1.9-3.48-.67-7-1.26-10.46-2a200,200,0,0,1-21.16-5.4l-6.67-2.25c-1.36-.46-2.7-1.08-4-1.62-2-.81-4.09-1.55-6.06-2.48L454,646.87a90.79,90.79,0,0,1-20.54-13.21A76.81,76.81,0,0,1,423,622.89a64.9,64.9,0,0,1-7.6-11.55,50.77,50.77,0,0,1-3.22-8.08,55.87,55.87,0,0,1-1.49-7.14,79.06,79.06,0,0,1-.61-14.83c.21-4.63.58-9.27.92-13.89a6.82,6.82,0,0,1,1.9-4.59,6.49,6.49,0,0,1,4.59-1.9c3.35,0,6.75,3,6.49,6.49-.63,8.76-1.57,17.65-.64,26.41a48.84,48.84,0,0,0,2.56,9.81A58.8,58.8,0,0,0,432.07,613.93Z"/></svg>