<svg id="Layer_10" data-name="Layer 10" xmlns="http://www.w3.org/2000/svg" viewBox="0 0 871.69 845.84"><defs><style>.cls-1{fill:#7f7f7f;}.cls-2{fill:#fff;}.cls-3,.cls-4{fill:#f2c611;}.cls-3{stroke:#f2c611;stroke-miterlimit:10;stroke-width:15px;}</style></defs><title>duplicate_detection</title><g id="file"><path class="cls-1" d="M568.05,121.11a49.37,49.37,0,0,0-7.71-7.59,45.09,45.09,0,0,0-6.7-4.35l-2.7-1.38c-1.67-.85-3.39-1.59-5.09-2.35-3.89-1.61-7.76-3.19-11.7-4.64-1.92-.72-3.85-1.42-5.76-2.17s-3.91-1.61-5.9-2.34-3.91-1.46-5.94-2-4.16-1.07-6.28-1.47c-4.12-.78-8.25-1.48-12.39-2.13-2.63-.35-5.28-.65-7.91-.93-2.83-.28-5.66-.69-8.48-1q-4.47-.45-9-.77c-2.83-.2-5.68-.27-8.52-.38s-5.37-.16-8.06-.36c-3-.24-6-.47-9-.73-5.7-.47-11.39-.72-17.09-.9-5.9-.2-11.8-.23-17.7-.24s-12,0-18,0c-3.42,0-6.82.07-10.23.15-2.7.05-5.4.11-8.1.3-6.44.43-12.89.94-19.33,1.42-5.87.42-11.76.55-17.64.72-6.14.16-12.27.36-18.41.55-2.58.08-5.17.19-7.76.19h-.81c-2.86,0-5.7-.22-8.54-.39s-5.57-.3-8.37-.36a51.81,51.81,0,0,0-7.52.43c-2,.32-4.08.67-6.1,1.07-1.26.24-2.51.5-3.75.8-.46-1.75-.89-3.54-1.28-5.32a3.3,3.3,0,0,0-3.17-2.42,3.52,3.52,0,0,0-.65.07L272,80.5a20.6,20.6,0,0,1,2.23-.54c1-.19,2-.4,3-.57,2.42-.4,4.86-.8,7.29-1.15a65.67,65.67,0,0,1,7.45-.73c4.41-.09,8.84.23,13.24.54,2.16.16,4.31.27,6.47.3s4.5,0,6.74-.11c6-.16,12-.39,18-.55,6.24-.15,12.47-.32,18.72-.63,5.87-.28,11.74-.82,17.62-1.17,5.44-.34,10.88-.46,16.33-.46h1.67c12.45,0,24.9.19,37.34.53,6.11.16,12.2.61,18.29,1.11,3,.24,5.94.58,8.9.86s5.62.43,8.42.58,5.84.27,8.75.54,6,.58,9.06.94c3.21.39,6.4.94,9.61,1.4,3,.42,5.93.81,8.86,1.39s6,1.21,9,1.86c2.7.58,5.41,1.2,8.06,2A78.52,78.52,0,0,1,526,90.13c2.42,1.11,4.83,2.19,7.29,3.25l.54.23.08,0h0c5,2.09,10,4.2,14.82,6.55,1.28.61,2.58,1.16,3.82,1.84l3.73,2a50.34,50.34,0,0,1,7.13,4.75,48.73,48.73,0,0,1,7.51,7c2,2.38,3.93,4.85,5.76,7.36a81.32,81.32,0,0,1,4.59,6.88c1.4,2.38,2.56,4.87,3.78,7.36,1.08,2.24,2.12,4.51,3.09,6.8,1.24,2.92,2.5,5.83,3.55,8.83s1.9,6,2.71,9c.77,2.85,1.39,5.72,2,8.61.63,3.05,1,6.14,1.38,9.25.34,2.93.4,5.89.5,8.83s.15,6.16.26,9.23c.2,5.86.38,11.73.81,17.58.93,12.41,2.43,24.77,2.86,37.2.43,12,.66,24,1.38,36,.38,6.24.69,12.46.8,18.71.09,6,.09,12,0,17.93s-.13,12.23-.35,18.33-.43,12.42-.51,18.64c-.07,5.79,0,11.6,0,17.39v18.67q0,18.06-1,36.08c-.34,6.37-.66,12.74-.92,19.13-.22,5.7-.3,11.39-.5,17.09-.22,6.22-.53,12.43-.78,18.64-.23,5.87-.32,11.73-.58,17.6s-.55,11.78-.89,17.68-.58,11.95-1.32,17.89c-.8,6.38-1.9,12.7-3.1,19q-.83,4.37-1.75,8.71c-.57,2.74-1.24,5.51-2.08,8.18a95.85,95.85,0,0,1-6.83,17.09c-1.39,2.59-2.79,5.18-4.4,7.65s-3.48,5.08-5.37,7.53-3.86,4.89-5.94,7.21c-1.9,2.15-3.78,4.36-5.84,6.36-1.11,1.07-2.17,2.17-3.35,3.15s-2.54,2.17-3.9,3.13a53.66,53.66,0,0,1-6.57,4.27,43.41,43.41,0,0,1-9.6,3.86,82.86,82.86,0,0,1-9.25,1.81c-2.93.38-5.84.69-8.77.9-5.94.45-11.89,1-17.86,1.19-6.21.18-12.41.31-18.61.62-5.57.28-11.12.9-16.66,1.62l-.16,0-.19,0-.47.05-.27,0c-2.77.38-5.53.74-8.32,1-3.15.3-6.29.54-9.44.78-2.85.22-5.72.42-8.59.46s-5.8,0-8.71-.07c-6-.18-12-.49-18-1.11-5.53-.58-11.06-1.28-16.62-1.59-5.9-.32-11.82.22-17.71.53-5.71.3-11.43.35-17.14.55-11.74.42-23.46,1.63-35.22,1.24-2.69-.08-5.37-.4-8.06-.58-2.94-.18-5.89-.28-8.83-.38-6-.19-11.91-.43-17.85-.84-3.08-.22-6.17-.39-9.25-.55-2.86-.13-5.72-.27-8.56-.53-3.2-.31-6.37-.66-9.54-1.09l-8.14-1.16-2.81-.32c-2.93-.34-5.9-.51-8.84-.77-2.78-.24-5.56-.59-8.34-.9A156.21,156.21,0,0,1,219.16,637a37.43,37.43,0,0,1-7.38-2.29c-1.26-.58-2.48-1.17-3.71-1.82-2.46-1.28-4.82-2.79-7.15-4.28a37.32,37.32,0,0,1-5.12-3.64,30.58,30.58,0,0,1-3.33-3.54,35.29,35.29,0,0,1-4.82-8c-1.24-2.75-2.23-5.64-3.27-8.48s-1.86-5.45-2.61-8.25-1.24-5.47-1.74-8.22-.92-5.57-1.19-8.38c-1.07-11.61-1.5-23.28-1.61-34.95-.05-5.67-.22-11.33-.36-17-.16-6-.31-12-.7-18s-.9-12.26-1.34-18.38c-.39-5.87-.67-11.76-.94-17.64s-.65-11.6-.8-17.39c-.18-6.11-.27-12.24-.35-18.36-.15-12.07-.32-24.14-.3-36.2,0-11.73,0-23.47.62-35.19.67-12.47,1.32-24.93,1.69-37.42.36-11.92.2-23.85.26-35.77,0-5.91.07-11.8-.05-17.7-.12-6.1-.39-12.19-.49-18.29-.22-11.78-.2-23.62.74-35.39,0-.27,0-.54.07-.81l1.89.15c0,.13,0,.28,0,.42a4.2,4.2,0,0,0,2.05,3.55l0,.61c-.3,5.87-.27,11.77-.11,17.66s.4,11.89.84,17.82c.45,6.14.93,12.27,1.28,18.4.34,5.84.53,11.69.8,17.53.54,12,.9,24.07.63,36.11q-.2,9.44-.58,18.86c-.22,6-.55,12-.8,18-.49,12-.45,24-.59,36s-.35,24-.47,36c-.13,11.84.12,23.65.45,35.49s1.4,23.78,2,35.7c.57,11.72.53,23.46.9,35.19q.26,8.71.77,17.39c.31,5.44.73,10.91,1.4,16.31.76,4.93,1.59,9.84,2.71,14.7a105.35,105.35,0,0,0,4.36,14.77,28.06,28.06,0,0,0,1.77,3.55c.69,1.15,1.42,2.25,2.2,3.33a25.62,25.62,0,0,0,3.4,3.44c2.27,1.69,4.66,3.19,7.06,4.67,1.13.7,2.28,1.4,3.46,2s2.05,1,3.09,1.53c4.39,1.74,9.11,2.42,13.77,3.08,3.47.43,7,.77,10.45,1.12,3.89.42,7.78.77,11.69,1,3,.19,5.9.43,8.84.78s5.86.8,8.8,1.08,6,.58,9,.73,5.79.23,8.68.31c6.11.16,12.2.39,18.32.4h4.31c4.36,0,8.73,0,13.09.16,2.9.13,5.8.27,8.71.3,2.71,0,5.44-.12,8.15-.27,6-.31,12-.78,18-1.15,5.66-.35,11.33-.58,17-.82,6.13-.27,12.23-.74,18.36-1.09,5.63-.32,11.27-.05,16.91.18,2.71.11,5.41.31,8.14.42,3,.11,6,.18,9,.16,6.09,0,12.18,0,18.25-.46,5.89-.42,11.77-.93,17.62-1.62,6-.69,12.05-1.58,18.13-2s12-.43,17.94-.43c3.05,0,6.1,0,9.14-.05s5.91-.18,8.86-.28l9.1-.34c2.66-.09,5.3-.36,7.94-.66,1.17-.19,2.34-.39,3.5-.63a40.33,40.33,0,0,0,6.84-2.05,39.73,39.73,0,0,0,6.48-3.55l2.66-1.86,2.47-2c.93-.76,1.77-1.66,2.63-2.47,1.48-1.39,2.88-2.9,4.24-4.4,3-3.27,5.82-6.61,8.56-10.08a105.36,105.36,0,0,0,5.9-9.07,99,99,0,0,0,4.55-9.22c.61-1.58,1.2-3.16,1.75-4.75.59-1.75,1.12-3.54,1.66-5.32,1-3.46,1.74-7,2.46-10.58,1.35-6.67,2.46-13.39,3.4-20.14.18-1.63.39-3.27.5-4.91.46-6.3.73-12.62,1-18.94.23-5.86.47-11.73.62-17.59s.24-11.73.47-17.59.49-11.69.62-17.53c.13-6.36.27-12.72.49-19.07.2-5.94.54-11.87.78-17.79.53-12.39.65-24.77.62-37.16,0-12-.18-23.93,0-35.89.08-5.82.39-11.61.57-17.41q.28-9.48.39-19,.12-9.27.18-18.53c0-5.7-.22-11.39-.39-17.09-.16-6-.32-12-.38-18-.07-6.2-.11-12.39-.3-18.59-.19-6.51-.51-13-.94-19.48-.39-5.76-.88-11.54-1.08-17.32-.19-6.11-.35-12.23-.4-18.34,0-3.16,0-6.32-.11-9.48-.07-1.54,0-3.1-.19-4.63-.12-1.36-.26-2.73-.38-4.09-.42-2.62-.86-5.21-1.36-7.82s-1.13-4.93-1.77-7.37c-.69-2.69-1.53-5.32-2.4-7.94-.78-2.35-1.75-4.63-2.71-6.91s-1.86-4.33-2.86-6.47c-1.09-2.35-2.15-4.75-3.43-7-.65-1.16-1.3-2.31-2-3.43s-1.55-2.36-2.38-3.52c-1.26-1.78-2.56-3.52-3.89-5.26,0,0,0,0-.05-.05A.36.36,0,0,0,568.05,121.11Z"/><path class="cls-2" d="M594.76,286.84c.18,5.7.42,11.39.39,17.09q-.06,9.27-.18,18.53-.12,9.48-.39,19c-.18,5.8-.49,11.6-.57,17.41-.15,12,0,23.93,0,35.89,0,12.39-.09,24.77-.62,37.16-.24,5.93-.58,11.85-.78,17.79-.22,6.36-.35,12.72-.49,19.07-.13,5.84-.39,11.69-.62,17.53s-.32,11.72-.47,17.59-.39,11.73-.62,17.59c-.26,6.32-.53,12.63-1,18.94-.11,1.65-.32,3.28-.5,4.91-.94,6.75-2.05,13.47-3.4,20.14-.72,3.54-1.42,7.13-2.46,10.58-.54,1.78-1.07,3.56-1.66,5.32-.55,1.59-1.15,3.17-1.75,4.75a99,99,0,0,1-4.55,9.22,105.36,105.36,0,0,1-5.9,9.07c-2.74,3.47-5.59,6.82-8.56,10.08-1.36,1.5-2.75,3-4.24,4.4-.86.81-1.7,1.71-2.63,2.47l-2.47,2-2.66,1.86a39.73,39.73,0,0,1-6.48,3.55,40.33,40.33,0,0,1-6.84,2.05c-1.16.24-2.32.45-3.5.63-2.63.3-5.28.57-7.94.66l-9.1.34c-2.94.11-5.9.24-8.86.28s-6.09.05-9.14.05c-6,0-12,0-17.94.43s-12.08,1.31-18.13,2c-5.84.69-11.73,1.2-17.62,1.62-6.07.45-12.16.43-18.25.46-3,0-6-.05-9-.16-2.73-.11-5.43-.31-8.14-.42-5.64-.23-11.28-.5-16.91-.18-6.13.35-12.23.82-18.36,1.09-5.67.24-11.34.47-17,.82-6,.36-12,.84-18,1.15-2.71.15-5.44.28-8.15.27-2.9,0-5.8-.16-8.71-.3-4.36-.2-8.73-.19-13.09-.16h-4.31c-6.11,0-12.2-.24-18.32-.4-2.89-.08-5.79-.15-8.68-.31s-6-.42-9-.73-5.86-.74-8.8-1.08-5.89-.59-8.84-.78c-3.91-.24-7.8-.59-11.69-1-3.48-.35-7-.69-10.45-1.12-4.66-.66-9.38-1.34-13.77-3.08-1-.49-2.07-1-3.09-1.53s-2.32-1.34-3.46-2c-2.4-1.48-4.79-3-7.06-4.67a25.62,25.62,0,0,1-3.4-3.44c-.78-1.08-1.51-2.19-2.2-3.33a28.06,28.06,0,0,1-1.77-3.55,105.35,105.35,0,0,1-4.36-14.77c-1.12-4.86-2-9.77-2.71-14.7-.67-5.4-1.09-10.87-1.4-16.31q-.51-8.69-.77-17.39c-.38-11.73-.34-23.47-.9-35.19-.59-11.92-1.67-23.78-2-35.7s-.58-23.65-.45-35.49c.12-12,.32-24,.47-36s.11-24,.59-36c.24-6,.58-12,.8-18q.36-9.44.58-18.86c.27-12-.09-24.08-.63-36.11-.27-5.84-.46-11.69-.8-17.53-.35-6.13-.84-12.26-1.28-18.4-.43-5.93-.66-11.88-.84-17.82s-.19-11.78.11-17.66l0-.61a3.75,3.75,0,0,0,2.07.57c8.71-.16,17.41-.31,26.09-.86,3.89-.24,7.78-.65,11.66-.88s7.79-.26,11.69-.28,7.82,0,11.72,0c1.82,0,3.64,0,5.47-.19a37.63,37.63,0,0,0,6.91-1.21A43.64,43.64,0,0,0,260,221a60.51,60.51,0,0,0,6.28-3c5.71-3.17,9.81-8.46,12.8-14.17a47.4,47.4,0,0,0,4.17-11.8,114,114,0,0,0,1.57-12.12c.43-4.1.92-8.21,1.3-12.31s.58-7.92.73-11.89.26-8.15.22-12.23c0-2.08-.2-4.17-.34-6.25s-.23-3.93-.35-5.9a102.11,102.11,0,0,0-1.17-12.18c-.72-4-1.63-8-2.61-11.92-.86-3.46-2.12-6.82-3.13-10.23q-1-3.36-1.85-6.74c1.24-.3,2.5-.55,3.75-.8,2-.39,4.06-.74,6.1-1.07A51.81,51.81,0,0,1,295,88c2.79.07,5.59.18,8.37.36s5.68.36,8.54.39h.81c2.59,0,5.18-.11,7.76-.19,6.14-.19,12.27-.39,18.41-.55,5.89-.16,11.77-.3,17.64-.72,6.44-.47,12.89-1,19.33-1.42,2.7-.19,5.4-.24,8.1-.3,3.42-.08,6.82-.12,10.23-.15q9-.06,18,0c5.9,0,11.8,0,17.7.24,5.7.19,11.39.43,17.09.9,3,.26,6,.49,9,.73,2.69.2,5.37.27,8.06.36s5.68.18,8.52.38q4.5.32,9,.77c2.82.28,5.64.69,8.48,1,2.63.28,5.28.58,7.91.93,4.14.65,8.27,1.35,12.39,2.13,2.12.4,4.2.92,6.28,1.47s4,1.27,5.94,2,3.94,1.55,5.9,2.34,3.85,1.46,5.76,2.17c3.94,1.46,7.82,3,11.7,4.64,1.7.76,3.42,1.5,5.09,2.35l2.7,1.38a45.09,45.09,0,0,1,6.7,4.35,49.37,49.37,0,0,1,7.71,7.59.36.36,0,0,1,.07.08s0,0,.05.05c1.32,1.74,2.63,3.48,3.89,5.26.82,1.16,1.61,2.34,2.38,3.52s1.36,2.27,2,3.43c1.28,2.25,2.34,4.66,3.43,7,1,2.13,1.92,4.31,2.86,6.47s1.93,4.56,2.71,6.91c.88,2.62,1.71,5.25,2.4,7.94.63,2.44,1.28,4.9,1.77,7.37s.94,5.2,1.36,7.82c.12,1.36.26,2.73.38,4.09.15,1.53.12,3.09.19,4.63.12,3.16.08,6.32.11,9.48.05,6.11.22,12.23.4,18.34.2,5.78.69,11.55,1.08,17.32.43,6.49.76,13,.94,19.48.19,6.2.23,12.39.3,18.59C594.44,274.87,594.6,280.86,594.76,286.84Zm-52.5-123.75a3.63,3.63,0,0,0,2.51-4.43,3.54,3.54,0,0,0-1.66-2.15,3.8,3.8,0,0,0-2.77-.36c-1.34.23-2.67.43-4,.62-2.74.35-5.45.72-8.18,1-3.13.39-6.25.85-9.38,1.13-2,.19-4,.32-6,.42a35.66,35.66,0,0,1-5.89-.22,34,34,0,0,1-7.1-2,15,15,0,0,1-2-1.12c-.13-.12-.26-.26-.38-.38a2.68,2.68,0,0,1-.15-.27c0-.11-.07-.22-.11-.34a33.25,33.25,0,0,1,1.16-3.19c2.08-4.89,4.23-9.8,7.36-14.12a43.51,43.51,0,0,1,6.56-6.63,25.76,25.76,0,0,1,3.32-2.08c.09.49.2,1,.28,1.47.24,1.34.49,2.66.72,4a4.36,4.36,0,0,0,2.05,2.66,4.46,4.46,0,0,0,6.11-1.59,4.77,4.77,0,0,0,.45-3.44c-.38-2.05-.74-4.1-1.13-6.14-.05-.36-.11-.74-.18-1.11-.07-.16-.12-.32-.19-.5a4.16,4.16,0,0,0-.8-1.58,7,7,0,0,0-1.16-1.35,5.94,5.94,0,0,0-2.48-1.44,9.93,9.93,0,0,0-2.24-.26,9.55,9.55,0,0,0-1.92.2A17.34,17.34,0,0,0,511,121.5a29.85,29.85,0,0,0-6,4.28,43.89,43.89,0,0,0-5.53,5.89,44.39,44.39,0,0,0-4.51,7c-1.17,2.2-2.15,4.47-3.12,6.75l-.16.38c-.63,1.48-1.28,3-1.86,4.47-.32.85-.62,1.71-.89,2.58a7.9,7.9,0,0,0-.13,3.51,9.28,9.28,0,0,0,.89,2.82,11.85,11.85,0,0,0,1.65,2.43,10.56,10.56,0,0,0,2.13,1.74,13.33,13.33,0,0,0,2.08,1.11,33,33,0,0,0,11.37,2.93c4,.42,7.92-.09,11.87-.5,3.31-.34,6.6-.92,9.89-1.42l5.2-.8C536.68,164.18,539.49,163.71,542.27,163.09Zm-60.64-9.5a9.06,9.06,0,0,0,.45-3.55,8.32,8.32,0,0,0-1.3-3.85A8.75,8.75,0,0,0,478,143.5a15.05,15.05,0,0,0-2.48-1.2,29.17,29.17,0,0,0-4-1.38,41.64,41.64,0,0,0-8.25-1.11c-1.07-.07-2.12-.09-3.17-.08.43-.5.85-1,1.26-1.51,2.69-3.36,5.37-7.1,6-11.46a14.85,14.85,0,0,0,.22-2.78,9.67,9.67,0,0,0-1-3.78,9.77,9.77,0,0,0-1.69-2.58,11.36,11.36,0,0,0-2.55-2.05,13.2,13.2,0,0,0-6.87-1.59h-.11a18.79,18.79,0,0,0-3.48.46,15.12,15.12,0,0,0-3.21,1.12c-.63.27-1.23.55-1.82.88a17.73,17.73,0,0,0-2.66,1.92,18.72,18.72,0,0,0-3.93,4.74,19.33,19.33,0,0,0-1.53,3.2,22.89,22.89,0,0,0-1,3,11.08,11.08,0,0,0-.32,3.59,18.29,18.29,0,0,0,.67,3.4,4.89,4.89,0,0,0,3.63,3.46c-.22,3.33-.42,6.67-.4,10a62.12,62.12,0,0,0,1,11c-.43,0-.85-.07-1.28-.12a3.49,3.49,0,0,0-3.37,2.58,3.56,3.56,0,0,0,.35,2.7,3.44,3.44,0,0,0,2.09,1.61c1.5.24,3,.42,4.51.51a2.42,2.42,0,0,0,.69.58,3,3,0,0,0,2.25.3,2.77,2.77,0,0,0,1.23-.7c1.75,0,3.5,0,5.24,0A39.08,39.08,0,0,0,469.43,165a25.37,25.37,0,0,0,11-8.71A13.07,13.07,0,0,0,481.63,153.59Zm-50.2,16.7a16.76,16.76,0,0,0-.2-4.5c-.09-.57-.2-1.15-.31-1.71-.2-1.16-.46-2.32-.72-3.47-.43-2-.88-4-1.4-6s-1-4.27-1.67-6.37c-.72-2.42-1.44-4.82-2.16-7.24-.62-2-1.34-4-2.08-6.06a71.55,71.55,0,0,0-4.09-9.33,21.48,21.48,0,0,0-2.55-3.86,15.76,15.76,0,0,0-1.24-1.27,6.83,6.83,0,0,0-2.29-1.4,5,5,0,0,0-1.82-.34,6.14,6.14,0,0,0-3,.82,11,11,0,0,0-3.21,3.7,41.7,41.7,0,0,0-2.47,4.75c-.45.92-.89,1.84-1.3,2.77-1,2.24-2,4.47-2.92,6.74-1.71,4.16-3.46,8.29-5,12.51-2.4,6.63-4.78,13.26-7.07,19.92a3.93,3.93,0,0,0,5.78,4.44,4,4,0,0,0,1.81-2.35c.69-2,1.38-4,2.08-6l.19-.08c3.09-1.46,6.22-2.82,9.35-4.2,4.33-1.61,8.65-3.23,13.08-4.52a3,3,0,0,0,2-1.9c.55,2.09,1.08,4.17,1.59,6.28.28,1.16.57,2.34.84,3.51.36,1.5.77,3,1.05,4.52,0,.2,0,.39.05.59a4,4,0,0,0,1.13,2.71,3.83,3.83,0,0,0,5.44,0A4.06,4.06,0,0,0,431.43,170.28Z"/><path class="cls-1" d="M491.84,145.37c1-2.28,1.94-4.55,3.12-6.75a44.39,44.39,0,0,1,4.51-7,43.89,43.89,0,0,1,5.53-5.89,29.85,29.85,0,0,1,6-4.28,17.34,17.34,0,0,1,4.12-1.51,9.55,9.55,0,0,1,1.92-.2,9.93,9.93,0,0,1,2.24.26,5.94,5.94,0,0,1,2.48,1.44,7,7,0,0,1,1.16,1.35,4.16,4.16,0,0,1,.8,1.58c.07.18.12.34.19.5.07.36.12.74.18,1.11.39,2,.76,4.09,1.13,6.14a4.77,4.77,0,0,1-.45,3.44,4.46,4.46,0,0,1-6.11,1.59,4.36,4.36,0,0,1-2.05-2.66c-.23-1.34-.47-2.66-.72-4-.08-.49-.19-1-.28-1.47a25.76,25.76,0,0,0-3.32,2.08,43.51,43.51,0,0,0-6.56,6.63c-3.13,4.32-5.28,9.23-7.36,14.12a33.25,33.25,0,0,0-1.16,3.19c0,.12.07.23.11.34a2.68,2.68,0,0,0,.15.27c.12.12.24.26.38.38a15,15,0,0,0,2,1.12,34,34,0,0,0,7.1,2,35.66,35.66,0,0,0,5.89.22c2-.09,4-.23,6-.42,3.13-.28,6.25-.74,9.38-1.13,2.73-.32,5.44-.69,8.18-1,1.35-.19,2.69-.39,4-.62a3.8,3.8,0,0,1,2.77.36,3.54,3.54,0,0,1,1.66,2.15,3.63,3.63,0,0,1-2.51,4.43c-2.78.62-5.59,1.09-8.41,1.53l-5.2.8c-3.29.5-6.59,1.08-9.89,1.42-3.94.4-7.91.92-11.87.5a33,33,0,0,1-11.37-2.93,13.33,13.33,0,0,1-2.08-1.11,10.56,10.56,0,0,1-2.13-1.74,11.85,11.85,0,0,1-1.65-2.43,9.28,9.28,0,0,1-.89-2.82,7.9,7.9,0,0,1,.13-3.51c.27-.86.57-1.73.89-2.58.58-1.5,1.23-3,1.86-4.47Zm5.37,10.39,0-.32h0A2.92,2.92,0,0,0,497.21,155.76Zm0-.35a.79.79,0,0,1,0-.18.83.83,0,0,0,0,.18Z"/><path class="cls-1" d="M482.08,150a9.06,9.06,0,0,1-.45,3.55,13.07,13.07,0,0,1-1.2,2.7,25.37,25.37,0,0,1-11,8.71,39.08,39.08,0,0,1-15.33,3.17c-1.74,0-3.48,0-5.24,0a3.09,3.09,0,0,0,.81-2.89c-.32-1.5-.59-3-.82-4.52,2.89-.09,5.79-.19,8.67-.53a37.85,37.85,0,0,0,7.88-2.05,29.66,29.66,0,0,0,5.25-3,24.59,24.59,0,0,0,2.48-2.4,12.31,12.31,0,0,0,.63-1.07c.11-.32.19-.63.27-1a0,0,0,0,1,0,0c-.43-.24-.88-.46-1.34-.66a28.29,28.29,0,0,0-5.49-1.4,56.43,56.43,0,0,0-10.57-.22c-2,.15-4,.26-6,.5a17.07,17.07,0,0,0-2,.39l-.38.13c0-1.74.05-3.47.15-5.21s.2-3.59.31-5.37a55.91,55.91,0,0,0,4.14-4.78,41.47,41.47,0,0,0,4.37-7,13.75,13.75,0,0,0,.47-1.66c0-.27,0-.55,0-.82a1.23,1.23,0,0,1-.11-.18l-.15-.08q-.45-.14-.89-.24c-.58,0-1.13,0-1.7,0a18,18,0,0,0-2.21.63,18.47,18.47,0,0,0-1.73,1,18.06,18.06,0,0,0-1.43,1.44.3.3,0,0,0,0-.11,3.44,3.44,0,0,0-5.87-2.43,3.63,3.63,0,0,0-1,2.43q-.36,5.51-.7,11c0,.53-.07,1.07-.09,1.59a4.89,4.89,0,0,1-3.63-3.46,18.29,18.29,0,0,1-.67-3.4,11.08,11.08,0,0,1,.32-3.59,22.89,22.89,0,0,1,1-3,19.33,19.33,0,0,1,1.53-3.2,18.72,18.72,0,0,1,3.93-4.74,17.73,17.73,0,0,1,2.66-1.92c.59-.32,1.19-.61,1.82-.88a15.12,15.12,0,0,1,3.21-1.12,18.79,18.79,0,0,1,3.48-.46h.11a13.2,13.2,0,0,1,6.87,1.59,11.36,11.36,0,0,1,2.55,2.05,9.77,9.77,0,0,1,1.69,2.58,9.67,9.67,0,0,1,1,3.78,14.85,14.85,0,0,1-.22,2.78c-.65,4.36-3.33,8.1-6,11.46-.4.51-.82,1-1.26,1.51,1.05,0,2.11,0,3.17.08a41.64,41.64,0,0,1,8.25,1.11,29.17,29.17,0,0,1,4,1.38,15.05,15.05,0,0,1,2.48,1.2,8.75,8.75,0,0,1,2.81,2.69A8.32,8.32,0,0,1,482.08,150Z"/><path class="cls-2" d="M474,150.72a0,0,0,0,0,0,0c-.08.34-.16.65-.27,1a12.31,12.31,0,0,1-.63,1.07,24.59,24.59,0,0,1-2.48,2.4,29.66,29.66,0,0,1-5.25,3,37.85,37.85,0,0,1-7.88,2.05c-2.88.34-5.78.43-8.67.53,0-.2-.07-.4-.09-.61a78.38,78.38,0,0,1-.55-10.68l.38-.13a17.07,17.07,0,0,1,2-.39c2-.24,4-.35,6-.5a56.43,56.43,0,0,1,10.57.22,28.29,28.29,0,0,1,5.49,1.4C473.14,150.27,473.59,150.48,474,150.72Z"/><path class="cls-2" d="M457.57,124.47a1.23,1.23,0,0,0,.11.18c0,.27,0,.55,0,.82a13.75,13.75,0,0,1-.47,1.66,41.47,41.47,0,0,1-4.37,7,55.91,55.91,0,0,1-4.14,4.78c.26-3.89.54-7.76.8-11.64a18.06,18.06,0,0,1,1.43-1.44,18.47,18.47,0,0,1,1.73-1,18,18,0,0,1,2.21-.63c.57,0,1.12,0,1.7,0q.45.1.89.24Z"/><path class="cls-1" d="M449.67,165.28a3.09,3.09,0,0,1-.81,2.89c-1.39,0-2.78-.07-4.17-.18a3.74,3.74,0,0,1-.65-1.16,35.63,35.63,0,0,1-1.54-5.52c0-.2-.07-.39-.11-.59a44.24,44.24,0,0,0,4.82.09l1.63-.05C449.08,162.27,449.35,163.78,449.67,165.28Z"/><path class="cls-1" d="M446,123.7a3.45,3.45,0,0,1,3.44,3.44.3.3,0,0,1,0,.11l-.11.12a19,19,0,0,0-1.51,2.63,19.81,19.81,0,0,0-.63,2.16c.12.5.24,1,.38,1.51a5,5,0,0,1-3.42,6,4.89,4.89,0,0,1-2.38,0c0-.53.05-1.07.09-1.59q.34-5.49.7-11a3.63,3.63,0,0,1,1-2.43A3.45,3.45,0,0,1,446,123.7Z"/><path class="cls-1" d="M449.35,127.37l.11-.12c-.26,3.87-.54,7.75-.8,11.64-.62.65-1.28,1.26-2,1.85l-.58.39a5.92,5.92,0,0,0-2.34,1.35,4.25,4.25,0,0,0,4.14,7.1l.28-.11a78.38,78.38,0,0,0,.55,10.68c0,.2.07.4.09.61l-1.63.05a44.24,44.24,0,0,1-4.82-.09,62.12,62.12,0,0,1-1-11c0-3.35.19-6.68.4-10a4.89,4.89,0,0,0,2.38,0,5,5,0,0,0,3.42-6c-.13-.5-.26-1-.38-1.51a19.81,19.81,0,0,1,.63-2.16A19,19,0,0,1,449.35,127.37Z"/><path class="cls-1" d="M448.66,138.89c-.11,1.78-.22,3.58-.31,5.37s-.15,3.47-.15,5.21l-.28.11a4.25,4.25,0,0,1-4.14-7.1,5.92,5.92,0,0,1,2.34-1.35l.58-.39C447.37,140.14,448,139.53,448.66,138.89Z"/><path class="cls-1" d="M448.86,168.16a2.77,2.77,0,0,1-1.23.7,3,3,0,0,1-2.25-.3,2.42,2.42,0,0,1-.69-.58C446.08,168.1,447.47,168.15,448.86,168.16Z"/><path class="cls-1" d="M444,166.83a3.74,3.74,0,0,0,.65,1.16c-1.51-.09-3-.27-4.51-.51a3.44,3.44,0,0,1-2.09-1.61,3.56,3.56,0,0,1-.35-2.7,3.49,3.49,0,0,1,3.37-2.58c.43.05.85.09,1.28.12,0,.2.07.39.11.59A35.63,35.63,0,0,0,444,166.83Z"/><path class="cls-1" d="M431.23,165.79a16.76,16.76,0,0,1,.2,4.5,4.06,4.06,0,0,1-1.12,2.71,3.83,3.83,0,0,1-5.44,0,4,4,0,0,1-1.13-2.71c0-.2,0-.39-.05-.59-.28-1.53-.69-3-1.05-4.52-.27-1.17-.55-2.35-.84-3.51-.51-2.11-1-4.18-1.59-6.28a2.85,2.85,0,0,0,.07-1.71,2.71,2.71,0,0,0-.89-1.39,155.78,155.78,0,0,0-5.93-18.16,42.83,42.83,0,0,0-2.52-5.12c-.47.81-.92,1.66-1.35,2.51s-1.05,2-1.51,3l-2.63,5.76c-1.59,3.75-3.21,7.48-4.6,11.3-.82,2.27-1.66,4.54-2.48,6.8-1.86.81-3.73,1.65-5.56,2.51a2.85,2.85,0,0,0-1.36,1.77,2.94,2.94,0,0,0,4.16,3.44c-.7,2-1.39,4-2.08,6a4,4,0,0,1-1.81,2.35,3.93,3.93,0,0,1-5.78-4.44c2.29-6.67,4.67-13.3,7.07-19.92,1.54-4.23,3.28-8.36,5-12.51.93-2.27,1.94-4.5,2.92-6.74.4-.93.85-1.85,1.3-2.77a41.7,41.7,0,0,1,2.47-4.75,11,11,0,0,1,3.21-3.7,6.14,6.14,0,0,1,3-.82,5,5,0,0,1,1.82.34,6.83,6.83,0,0,1,2.29,1.4,15.76,15.76,0,0,1,1.24,1.27,21.48,21.48,0,0,1,2.55,3.86,71.55,71.55,0,0,1,4.09,9.33c.74,2,1.46,4,2.08,6.06.72,2.42,1.44,4.82,2.16,7.24.63,2.11,1.12,4.25,1.67,6.37s1,4,1.4,6c.26,1.15.51,2.31.72,3.47C431,164.64,431.14,165.22,431.23,165.79Z"/><path class="cls-1" d="M420.27,153.67a2.85,2.85,0,0,1-.07,1.71c-.08-.35-.18-.72-.27-1.07-.18-.67-.36-1.36-.55-2A2.71,2.71,0,0,1,420.27,153.67Z"/><path class="cls-1" d="M419.93,154.31c.09.35.19.72.27,1.07a3,3,0,0,1-2,1.9c-4.43,1.3-8.75,2.92-13.08,4.52-3.13,1.38-6.26,2.74-9.35,4.2l-.19.08c.54-1.59,1.11-3.17,1.69-4.76.36-1,.72-2,1.08-3,.58-.27,1.15-.51,1.73-.77,1.65-.72,3.29-1.42,5-2,3.83-1.42,7.67-2.82,11.6-3.94a2.52,2.52,0,0,1,.77-.11,3,3,0,0,1,2,.77C419.57,153,419.76,153.64,419.93,154.31Z"/><path class="cls-2" d="M419.38,152.28a3,3,0,0,0-2-.77,2.52,2.52,0,0,0-.77.11c-3.93,1.12-7.76,2.52-11.6,3.94-1.69.62-3.33,1.32-5,2-.58.26-1.15.5-1.73.77.82-2.27,1.66-4.54,2.48-6.8,1.39-3.82,3-7.55,4.6-11.3l2.63-5.76c.46-1,1-2,1.51-3s.88-1.7,1.35-2.51a42.83,42.83,0,0,1,2.52,5.12A155.78,155.78,0,0,1,419.38,152.28Z"/><path class="cls-1" d="M398.35,158.36c-.36,1-.72,2-1.08,3-.58,1.59-1.15,3.17-1.69,4.76a2.94,2.94,0,0,1-2.09.22,3,3,0,0,1-2.07-3.66,2.85,2.85,0,0,1,1.36-1.77C394.62,160,396.49,159.17,398.35,158.36Z"/><path class="cls-1" d="M287.05,143.5c0,4.08-.07,8.15-.22,12.23s-.38,7.94-.73,11.89-.86,8.21-1.3,12.31a114,114,0,0,1-1.57,12.12,47.4,47.4,0,0,1-4.17,11.8c-3,5.71-7.09,11-12.8,14.17a60.51,60.51,0,0,1-6.28,3,43.64,43.64,0,0,1-5.21,1.9,37.63,37.63,0,0,1-6.91,1.21c-1.82.16-3.64.19-5.47.19-3.9,0-7.8,0-11.72,0s-7.79.07-11.69.28-7.78.63-11.66.88c-8.68.55-17.39.7-26.09.86a3.75,3.75,0,0,1-2.07-.57c.11-2.16.28-4.32.54-6.47.05-.32.11-.63.18-1a4.13,4.13,0,0,1,1.35-.26c7.73-.13,15.47-.34,23.19-.69,3.83-.18,7.67-.5,11.49-.8s7.79-.51,11.69-.63,7.64-.2,11.46-.23c3.64,0,7.32,0,10.95-.34a59.93,59.93,0,0,0,11.3-3.32,28.53,28.53,0,0,0,4.67-2.66,27.62,27.62,0,0,0,4.09-4.14,36.51,36.51,0,0,0,2.61-4c.76-1.36,1.44-2.74,2.09-4.16s1.08-3.05,1.51-4.62a52.54,52.54,0,0,0,1.15-5.16c.31-2.39.57-4.78.82-7.17.3-2.71.63-5.43.93-8.14q1.28-12.07,1.4-24.22c0-4.1-.18-8.17-.45-12.26-.24-3.78-.49-7.57-.92-11.34a106.12,106.12,0,0,0-4.67-17.87c-.58-1.66-1.13-3.31-1.66-5s-.89-3.21-1.3-4.83a38.22,38.22,0,0,1-.76-3.86c.77-.4,1.54-.78,2.32-1.13a36.91,36.91,0,0,1,4.43-1.31q.85,3.38,1.85,6.74c1,3.42,2.27,6.78,3.13,10.23,1,4,1.89,7.91,2.61,11.92a102.11,102.11,0,0,1,1.17,12.18c.12,2,.24,3.93.35,5.9S287,141.42,287.05,143.5Z"/><path class="cls-2" d="M280.16,135.62c.27,4.09.49,8.15.45,12.26q-.12,12.15-1.4,24.22c-.3,2.71-.63,5.43-.93,8.14-.26,2.39-.51,4.78-.82,7.17a52.54,52.54,0,0,1-1.15,5.16c-.43,1.57-1,3.09-1.51,4.62s-1.34,2.79-2.09,4.16a36.51,36.51,0,0,1-2.61,4,27.62,27.62,0,0,1-4.09,4.14,28.53,28.53,0,0,1-4.67,2.66,59.93,59.93,0,0,1-11.3,3.32c-3.63.38-7.3.31-10.95.34-3.82,0-7.64.12-11.46.23s-7.79.34-11.69.63-7.65.62-11.49.8c-7.72.35-15.46.55-23.19.69a4.13,4.13,0,0,0-1.35.26,31.25,31.25,0,0,1,1.24-4.79c.61-1.7,1.34-3.36,2-5h0l.07-.12c2.12-5,4.36-9.95,6.67-14.88q1.66-3.56,3.48-7c1.36-2.56,2.85-5.06,4.33-7.56,2.81-4.71,5.79-9.31,8.9-13.82q4.86-7.07,9.62-14.19c5.4-8,10.68-16.13,16.52-23.81,5.18-6.63,10.66-13,16.32-19.26q4.17-4.6,8.48-9.08l1.12-1.16a6,6,0,0,0,.82.3,5.23,5.23,0,0,0,4.21-.55,51.36,51.36,0,0,1,7.13-4.6,38.22,38.22,0,0,0,.76,3.86c.4,1.62.81,3.23,1.3,4.83s1.08,3.32,1.66,5a106.12,106.12,0,0,1,4.67,17.87C279.67,128,279.91,131.84,280.16,135.62Z"/><path class="cls-1" d="M276.32,85c.39,1.78.82,3.56,1.28,5.32a36.91,36.91,0,0,0-4.43,1.31c-.78.35-1.55.73-2.32,1.13,0-.19-.07-.36-.09-.55-.34-2.11-.63-4.21-.9-6.33a3.13,3.13,0,0,1,1-2.34,3.26,3.26,0,0,1,1.69-.89,3.52,3.52,0,0,1,.65-.07A3.3,3.3,0,0,1,276.32,85Z"/><path class="cls-1" d="M183.25,208.4l-.07.12h0c-.7,1.67-1.43,3.33-2,5a31.25,31.25,0,0,0-1.24,4.79,4.1,4.1,0,0,0-2.74,3.46l-1.89-.15a45.61,45.61,0,0,1,1.13-7.51,67.27,67.27,0,0,1,2.39-7.21c1.94-5.25,4.17-10.41,6.51-15.5,1.09-2.39,2.19-4.76,3.37-7.11s2.63-5,4-7.42c2.7-4.76,5.45-9.5,8.46-14.08,3.12-4.74,6.16-9.52,9.1-14.38,3-5,6.13-10,9.22-15s6-9.73,9.41-14.36c3.62-5,7.53-9.68,11.61-14.27q5.63-6.32,11.5-12.42c2.13-2.21,4.28-4.37,6.59-6.4,2.61-2.28,5.41-4.33,8.17-6.44A4.09,4.09,0,0,1,270,79.2,4.28,4.28,0,0,1,272,80.5l.47,2.12a3.26,3.26,0,0,0-1.69.89,3.13,3.13,0,0,0-1,2.34c.27,2.12.57,4.23.9,6.33,0,.19.05.36.09.55a51.36,51.36,0,0,0-7.13,4.6,5.23,5.23,0,0,1-4.21.55,6,6,0,0,1-.82-.3l-1.12,1.16q-4.31,4.47-8.48,9.08c-5.66,6.24-11.14,12.63-16.32,19.26-5.84,7.68-11.12,15.79-16.52,23.81q-4.78,7.11-9.62,14.19c-3.1,4.51-6.09,9.11-8.9,13.82-1.48,2.5-3,5-4.33,7.56q-1.82,3.48-3.48,7C187.61,198.45,185.37,203.4,183.25,208.4Z"/><path class="cls-1" d="M179.9,218.37c-.07.32-.12.63-.18,1-.26,2.15-.43,4.31-.54,6.47a4.2,4.2,0,0,1-2.05-3.55c0-.13,0-.28,0-.42A4.1,4.1,0,0,1,179.9,218.37Z"/></g><g id="file-2" data-name="file"><path class="cls-1" d="M632.1,279.86l-1,.13.4-.07Z"/><path class="cls-1" d="M591.94,278.62s0,0,0,0a.8.8,0,0,0,0-.19A.71.71,0,0,1,591.94,278.62Zm.63.66a15.12,15.12,0,0,0,2.05,1.12,34.84,34.84,0,0,0,7.1,2,37,37,0,0,0,5.87.2c2-.09,4-.23,6-.42,3.15-.28,6.26-.74,9.38-1.12q4.31-.53,8.6-1.11l-.4.07,1-.13-.57.07c1.2-.18,2.42-.36,3.62-.57a3.8,3.8,0,0,1,2.77.36,3.59,3.59,0,0,1,1.66,2.15,3.63,3.63,0,0,1-2.52,4.43c-2.77.62-5.59,1.09-8.4,1.54l-5.21.78c-3.28.5-6.57,1.08-9.89,1.42a56.17,56.17,0,0,1-11.85.5,37.12,37.12,0,0,1-6.2-1,38.12,38.12,0,0,1-5.17-1.89,11.79,11.79,0,0,1-2.08-1.11,10.14,10.14,0,0,1-2.13-1.73,12.32,12.32,0,0,1-1.65-2.44,9.45,9.45,0,0,1-.9-2.82,7.9,7.9,0,0,1,.15-3.51c.27-.86.57-1.73.89-2.58.58-1.5,1.23-3,1.86-4.47l.16-.38a2.89,2.89,0,0,1,.13-.3c.9-2.17,1.86-4.35,3-6.45a44.39,44.39,0,0,1,4.51-7A43.09,43.09,0,0,1,599.8,249a29.91,29.91,0,0,1,6-4.29,17.24,17.24,0,0,1,4.1-1.51,9.58,9.58,0,0,1,1.93-.2,10.77,10.77,0,0,1,2.24.26,6.09,6.09,0,0,1,2.48,1.44,6.9,6.9,0,0,1,1.15,1.35,4.39,4.39,0,0,1,.81,1.58c.07.18.12.34.19.5.05.36.12.74.18,1.11.39,2,.76,4.09,1.12,6.14a4.7,4.7,0,0,1-.45,3.44,4.44,4.44,0,0,1-6.1,1.59,4.32,4.32,0,0,1-2.05-2.66c-.24-1.32-.49-2.66-.72-4l-.28-1.48a25.76,25.76,0,0,0-3.32,2.08,44.23,44.23,0,0,0-6.57,6.63c-3.13,4.32-5.26,9.23-7.34,14.12A30,30,0,0,0,592,278.3c0,.12.07.23.09.35a2.51,2.51,0,0,1,.15.26C592.32,279,592.46,279.16,592.58,279.28Z"/><path class="cls-2" d="M567.48,273.28c.45.2.89.42,1.32.66a0,0,0,0,1,0,0h0a8.39,8.39,0,0,1-.26,1,9.26,9.26,0,0,1-.63,1.07,24.54,24.54,0,0,1-2.48,2.4,30.26,30.26,0,0,1-5.26,3,37.51,37.51,0,0,1-7.87,2.05c-2.88.34-5.78.43-8.67.53,0-.2-.07-.4-.09-.61A78.19,78.19,0,0,1,543,272.7l.38-.15a17.07,17.07,0,0,1,2-.39c2-.24,4-.35,6-.5a56.46,56.46,0,0,1,10.57.22A29.56,29.56,0,0,1,567.48,273.28Z"/><path class="cls-2" d="M549.61,247.4q.85-.06,1.7,0c.31.07.59.15.9.24l.13.08a1.23,1.23,0,0,1,.11.18c0,.28,0,.55,0,.82a12.43,12.43,0,0,1-.49,1.67,41,41,0,0,1-4.37,7,55.76,55.76,0,0,1-4.13,4.78c.26-3.89.54-7.76.81-11.65a15.73,15.73,0,0,1,1.42-1.43,15.55,15.55,0,0,1,1.73-1A15.18,15.18,0,0,1,549.61,247.4Z"/><path class="cls-1" d="M537.19,283.94A47.91,47.91,0,0,0,542,284l1.63-.05c.22,1.51.5,3,.81,4.52a3.09,3.09,0,0,1-.81,2.89c-1.39,0-2.78-.07-4.17-.18a3.74,3.74,0,0,1-.65-1.16,37,37,0,0,1-1.53-5.51C537.26,284.33,537.22,284.14,537.19,283.94Z"/><path class="cls-1" d="M543.46,262.1c-.11,1.8-.22,3.58-.31,5.37S543,271,543,272.7l-.28.11a4.26,4.26,0,0,1-4.16-7.11,6.29,6.29,0,0,1,2.34-1.35l.59-.38C542.17,263.37,542.84,262.75,543.46,262.1Z"/><path class="cls-1" d="M543.65,291.38a2.77,2.77,0,0,1-1.23.7,3,3,0,0,1-2.24-.3,2.73,2.73,0,0,1-.7-.58C540.87,291.31,542.26,291.37,543.65,291.38Z"/><path class="cls-1" d="M542.38,256.89a5,5,0,0,1-3.42,6,4.89,4.89,0,0,1-2.38,0c0-.53.07-1.05.09-1.58.22-3.67.46-7.34.7-11a4.68,4.68,0,0,1,.18-1,3.24,3.24,0,0,1,.84-1.43,3.4,3.4,0,0,1,2.43-1,3.45,3.45,0,0,1,3.44,3.44v.09a1.27,1.27,0,0,0-.13.13,20.32,20.32,0,0,0-1.5,2.63,17.21,17.21,0,0,0-.63,2.16C542.12,255.88,542.24,256.39,542.38,256.89Z"/><path class="cls-1" d="M540.82,246.91a3.4,3.4,0,0,0-2.43,1,3.24,3.24,0,0,0-.84,1.43l-3.63-.67a15,15,0,0,1,1.19-2.38,18.34,18.34,0,0,1,6.59-6.65c.59-.32,1.19-.61,1.81-.88a16,16,0,0,1,3.23-1.12,18.79,18.79,0,0,1,3.48-.46h.09a13.12,13.12,0,0,1,6.88,1.61,11.3,11.3,0,0,1,2.55,2,9.77,9.77,0,0,1,1.69,2.58,9.89,9.89,0,0,1,1,3.78,16.07,16.07,0,0,1-.2,2.78c-.65,4.36-3.33,8.1-6,11.46L554.92,263q1.58,0,3.16.08a42.66,42.66,0,0,1,8.26,1.11,29.65,29.65,0,0,1,3.94,1.38,16.36,16.36,0,0,1,2.5,1.2,8.75,8.75,0,0,1,2.81,2.69,8.48,8.48,0,0,1,1.3,3.85,9.43,9.43,0,0,1-.46,3.56,12.53,12.53,0,0,1-1.19,2.69,25.43,25.43,0,0,1-11,8.71,38.85,38.85,0,0,1-15.33,3.17c-1.74,0-3.5,0-5.25,0a3.09,3.09,0,0,0,.81-2.89c-.31-1.5-.59-3-.81-4.52,2.89-.09,5.79-.19,8.67-.53a37.51,37.51,0,0,0,7.87-2.05,30.26,30.26,0,0,0,5.26-3,24.54,24.54,0,0,0,2.48-2.4,9.26,9.26,0,0,0,.63-1.07,8.39,8.39,0,0,0,.26-1h0a0,0,0,0,0,0,0c-.43-.24-.88-.46-1.32-.66a29.56,29.56,0,0,0-5.49-1.4,56.46,56.46,0,0,0-10.57-.22c-2,.15-4,.26-6,.5a17.07,17.07,0,0,0-2,.39l-.38.15c0-1.74.05-3.48.15-5.22s.2-3.58.31-5.37a55.76,55.76,0,0,0,4.13-4.78,41,41,0,0,0,4.37-7,12.43,12.43,0,0,0,.49-1.67c0-.27,0-.54,0-.82a1.23,1.23,0,0,0-.11-.18l-.13-.08c-.31-.09-.59-.18-.9-.24q-.85,0-1.7,0a15.18,15.18,0,0,0-2.2.62,15.55,15.55,0,0,0-1.73,1,15.73,15.73,0,0,0-1.42,1.43v-.09A3.45,3.45,0,0,0,540.82,246.91Z"/><path class="cls-1" d="M537.56,249.36a4.68,4.68,0,0,0-.18,1c-.24,3.67-.49,7.34-.7,11,0,.53-.07,1.05-.09,1.58a4.93,4.93,0,0,1-3.64-3.46,18.29,18.29,0,0,1-.67-3.4,11.89,11.89,0,0,1,.32-3.59,21.09,21.09,0,0,1,1-3c.11-.27.22-.55.34-.82Z"/><path class="cls-1" d="M539,262.91a5,5,0,0,0,3.42-6c-.13-.5-.26-1-.38-1.51a17.21,17.21,0,0,1,.63-2.16,20.32,20.32,0,0,1,1.5-2.63,1.27,1.27,0,0,1,.13-.13c-.27,3.89-.55,7.76-.81,11.65-.62.65-1.28,1.27-2,1.86l-.59.38a6.29,6.29,0,0,0-2.34,1.35,4.26,4.26,0,0,0,4.16,7.11l.28-.11a78.19,78.19,0,0,0,.55,10.66c0,.2.05.4.09.61L542,284a47.91,47.91,0,0,1-4.82-.08,61.14,61.14,0,0,1-1-11c0-3.35.19-6.68.4-10A4.89,4.89,0,0,0,539,262.91Z"/><path class="cls-1" d="M537.3,284.53a37,37,0,0,0,1.53,5.51,3.74,3.74,0,0,0,.65,1.16c-1.51-.09-3-.27-4.51-.51a3.4,3.4,0,0,1-2.08-1.61,3.5,3.5,0,0,1,3-5.26l1.28.12C537.22,284.14,537.26,284.33,537.3,284.53Z"/><path class="cls-1" d="M515.06,276.88a2.85,2.85,0,0,1-.05,1.71c-.08-.35-.18-.7-.27-1.05-.18-.69-.36-1.36-.55-2.05A2.74,2.74,0,0,1,515.06,276.88Z"/><path class="cls-1" d="M514.73,277.54c.09.35.19.7.27,1.05a3,3,0,0,1-2,1.9c-4.43,1.3-8.75,2.92-13.08,4.54-3.13,1.36-6.26,2.73-9.35,4.18a1.27,1.27,0,0,1-.2.08c.55-1.59,1.12-3.19,1.69-4.76.36-1,.72-2,1.08-3l1.74-.77c1.65-.72,3.29-1.42,5-2,3.83-1.42,7.67-2.81,11.6-3.94a2.85,2.85,0,0,1,2.73.66C514.37,276.18,514.56,276.85,514.73,277.54Z"/><path class="cls-2" d="M514.18,275.49a2.85,2.85,0,0,0-2.73-.66c-3.93,1.13-7.76,2.52-11.6,3.94-1.69.62-3.33,1.32-5,2l-1.74.77c.82-2.27,1.66-4.54,2.48-6.8,1.4-3.82,3-7.55,4.62-11.3l2.63-5.76c.46-1,1-2,1.5-3s.88-1.7,1.36-2.51a44.08,44.08,0,0,1,2.52,5.13A157.31,157.31,0,0,1,514.18,275.49Z"/><path class="cls-1" d="M490.37,289.3a3,3,0,0,1-2.08.22,3,3,0,0,1-1.77-1.36,3,3,0,0,1-.31-2.28l.08-.26a2.82,2.82,0,0,1,1.28-1.53c1.84-.86,3.7-1.7,5.56-2.51-.36,1-.72,2-1.08,3C491.49,286.11,490.92,287.71,490.37,289.3Z"/><path class="cls-1" d="M487.57,284.09a2.82,2.82,0,0,0-1.28,1.53l-2.61-.92c1.35-3.79,2.71-7.6,4.1-11.39,1.53-4.24,3.27-8.37,5-12.53.94-2.27,2-4.5,2.93-6.74.4-.93.85-1.85,1.3-2.77a39.64,39.64,0,0,1,2.47-4.75,10.75,10.75,0,0,1,3.21-3.7,6.13,6.13,0,0,1,3-.81,4.58,4.58,0,0,1,1.81.34,6.86,6.86,0,0,1,2.31,1.39A13.78,13.78,0,0,1,511,245a20.57,20.57,0,0,1,2.55,3.86,68.36,68.36,0,0,1,4.1,9.33c.73,2,1.46,4,2.07,6,.73,2.42,1.44,4.82,2.16,7.24.63,2.11,1.13,4.25,1.69,6.37s1,4,1.4,6c.24,1.15.5,2.31.72,3.47.11.57.22,1.15.31,1.73a16.63,16.63,0,0,1,.2,4.48,4.11,4.11,0,0,1-1.13,2.73,3.86,3.86,0,0,1-5.44,0,4.09,4.09,0,0,1-1.12-2.73c0-.2,0-.39-.05-.59-.28-1.51-.69-3-1.05-4.52-.28-1.17-.55-2.35-.85-3.51-.51-2.11-1-4.2-1.58-6.28a2.85,2.85,0,0,0,.05-1.71,2.74,2.74,0,0,0-.88-1.39,157.31,157.31,0,0,0-5.93-18.14,44.08,44.08,0,0,0-2.52-5.13c-.49.81-.93,1.66-1.36,2.51s-1,2-1.5,3l-2.63,5.76c-1.59,3.75-3.21,7.48-4.62,11.3-.82,2.27-1.66,4.54-2.48,6.8C491.27,282.39,489.41,283.23,487.57,284.09Z"/><path class="cls-1" d="M490.37,289.3c-.7,2-1.38,4-2.07,6a4.23,4.23,0,0,1-1.81,2.36,3.95,3.95,0,0,1-5.79-4.45c1-2.85,2-5.68,3-8.52l2.61.92-.08.26a3,3,0,0,0,.31,2.28,3,3,0,0,0,1.77,1.36A3,3,0,0,0,490.37,289.3Z"/><path class="cls-2" d="M536.18,273a61.14,61.14,0,0,0,1,11l-1.28-.12a3.5,3.5,0,0,0-3,5.26,3.4,3.4,0,0,0,2.08,1.61c1.5.24,3,.42,4.51.51a2.73,2.73,0,0,0,.7.58,3,3,0,0,0,2.24.3,2.77,2.77,0,0,0,1.23-.7c1.75,0,3.51,0,5.25,0a38.85,38.85,0,0,0,15.33-3.17,25.43,25.43,0,0,0,11-8.71,12.53,12.53,0,0,0,1.19-2.69,9.43,9.43,0,0,0,.46-3.56,8.48,8.48,0,0,0-1.3-3.85,8.75,8.75,0,0,0-2.81-2.69,16.36,16.36,0,0,0-2.5-1.2,29.65,29.65,0,0,0-3.94-1.38,42.66,42.66,0,0,0-8.26-1.11q-1.58-.1-3.16-.08l1.26-1.51c2.69-3.36,5.37-7.1,6-11.46a16.07,16.07,0,0,0,.2-2.78,9.89,9.89,0,0,0-1-3.78,9.77,9.77,0,0,0-1.69-2.58,11.3,11.3,0,0,0-2.55-2,13.12,13.12,0,0,0-6.88-1.61h-.09a18.79,18.79,0,0,0-3.48.46,16,16,0,0,0-3.23,1.12c-.62.27-1.21.55-1.81.88a18.34,18.34,0,0,0-6.59,6.65,15,15,0,0,0-1.19,2.38c-.12.27-.23.55-.34.82a21.09,21.09,0,0,0-1,3,11.89,11.89,0,0,0-.32,3.59,18.29,18.29,0,0,0,.67,3.4,4.93,4.93,0,0,0,3.64,3.46C536.37,266.28,536.17,269.62,536.18,273Zm-154.54,6c.15-4.08.26-8.14.2-12.22,0-2.09-.2-4.18-.32-6.26s-.24-3.93-.35-5.9A105,105,0,0,0,380,242.39c-.72-4-1.65-8-2.62-11.91-.85-3.47-2.11-6.83-3.12-10.25q-1-3.36-1.86-6.74c1.24-.3,2.5-.55,3.77-.8,2-.39,4-.74,6.09-1.07a52,52,0,0,1,7.53-.43c2.79.07,5.57.18,8.37.36s5.68.36,8.54.39h.81c2.58,0,5.17-.11,7.76-.19,6.13-.19,12.27-.4,18.41-.57,5.89-.16,11.77-.3,17.63-.72,6.45-.47,12.89-1,19.34-1.42,2.7-.19,5.4-.24,8.1-.3,3.4-.08,6.82-.12,10.22-.13,6-.05,12-.05,18,0s11.81,0,17.71.24c5.7.19,11.39.45,17.08.9q4.52.38,9,.73c2.69.2,5.39.27,8.07.36s5.68.18,8.52.38c3,.22,6,.47,9,.77,2.82.28,5.64.69,8.46,1q4,.4,7.91.92c4.14.65,8.27,1.35,12.41,2.13,2.11.4,4.2.92,6.28,1.47s4,1.27,5.93,2,3.94,1.55,5.91,2.34S627,223.31,629,224c3.93,1.46,7.82,3,11.69,4.64,1.71.76,3.43,1.5,5.09,2.35l2.7,1.38a46.33,46.33,0,0,1,6.71,4.35,49.83,49.83,0,0,1,7.82,7.73c1.34,1.73,2.65,3.47,3.9,5.25.82,1.16,1.59,2.34,2.36,3.52s1.36,2.27,2,3.43c1.27,2.27,2.32,4.66,3.43,7,1,2.13,1.92,4.31,2.86,6.47s1.93,4.58,2.7,6.91c.89,2.63,1.73,5.26,2.42,7.94.62,2.44,1.28,4.9,1.75,7.37s1,5.2,1.36,7.82c.13,1.36.26,2.73.39,4.09.15,1.53.12,3.09.19,4.63.12,3.16.08,6.32.11,9.48.05,6.11.2,12.23.4,18.34.19,5.78.69,11.55,1.07,17.32q.67,9.74,1,19.48c.19,6.2.23,12.39.28,18.59.07,6,.23,12,.39,18,.16,5.7.42,11.39.39,17.09q-.06,9.27-.18,18.53-.12,9.48-.4,19c-.16,5.8-.49,11.61-.55,17.41-.15,12,0,23.93,0,35.89,0,12.39-.11,24.77-.62,37.16-.24,5.93-.58,11.85-.78,17.79-.22,6.36-.35,12.72-.5,19.07-.12,5.84-.39,11.69-.61,17.53s-.34,11.73-.49,17.59-.38,11.73-.62,17.59c-.24,6.32-.53,12.63-1,19-.11,1.63-.32,3.27-.51,4.91-.94,6.74-2.05,13.46-3.39,20.13-.72,3.55-1.42,7.13-2.47,10.58-.53,1.78-1.07,3.56-1.66,5.32-.54,1.59-1.13,3.17-1.74,4.75a99,99,0,0,1-4.55,9.22,100.45,100.45,0,0,1-5.91,9.07c-2.73,3.47-5.57,6.82-8.54,10.08-1.36,1.5-2.75,3-4.24,4.4-.86.81-1.71,1.71-2.63,2.47l-2.47,2c-.89.61-1.77,1.23-2.66,1.85A40.85,40.85,0,0,1,637,752a41.55,41.55,0,0,1-6.84,2c-1.16.26-2.32.45-3.5.63-2.65.3-5.29.57-8,.67l-9.08.32c-3,.11-5.9.24-8.86.3s-6.1.05-9.15,0c-6,0-12,0-17.93.43s-12.08,1.31-18.13,2c-5.86.67-11.74,1.19-17.62,1.62-6.07.43-12.16.42-18.25.45-3,0-6,0-9-.16-2.71-.11-5.41-.31-8.13-.42-5.64-.23-11.28-.5-16.93-.18-6.11.35-12.22.82-18.34,1.09-5.67.24-11.34.47-17,.82-6,.36-12,.84-18,1.15-2.7.15-5.44.28-8.14.27-2.92,0-5.8-.16-8.71-.3-4.37-.2-8.73-.18-13.11-.16-1.43,0-2.86,0-4.31,0-6.1,0-12.2-.24-18.3-.4-2.89-.07-5.79-.15-8.69-.31s-6-.42-9-.72-5.86-.76-8.79-1.09-5.9-.59-8.86-.78c-3.9-.24-7.79-.59-11.68-1-3.48-.36-7-.7-10.45-1.13-4.66-.65-9.38-1.32-13.77-3.08-1-.49-2.08-1-3.09-1.53-1.19-.63-2.32-1.32-3.47-2-2.4-1.47-4.79-3-7-4.67a25.62,25.62,0,0,1-3.4-3.44c-.78-1.08-1.51-2.17-2.21-3.32a31.25,31.25,0,0,1-1.77-3.56,109.5,109.5,0,0,1-4.36-14.75c-1.11-4.86-1.94-9.79-2.7-14.71-.67-5.4-1.11-10.87-1.42-16.31q-.49-8.69-.77-17.39c-.36-11.73-.32-23.47-.9-35.19-.58-11.91-1.67-23.78-2-35.7s-.58-23.65-.46-35.47c.13-12,.34-24,.49-36s.11-24,.59-36c.24-6,.57-12,.8-18q.36-9.44.58-18.86c.27-12-.09-24.08-.65-36.11-.27-5.83-.46-11.69-.78-17.52-.35-6.14-.84-12.27-1.28-18.41-.43-5.93-.66-11.87-.84-17.82s-.2-11.77.09-17.66l0-.61a3.79,3.79,0,0,0,2.08.57c8.69-.16,17.41-.3,26.09-.86,3.89-.24,7.76-.65,11.66-.86s7.79-.27,11.69-.3l11.72,0c1.81,0,3.64,0,5.45-.18a38.77,38.77,0,0,0,6.92-1.23,45.34,45.34,0,0,0,5.21-1.89,63.3,63.3,0,0,0,6.26-3c5.72-3.17,9.83-8.46,12.81-14.17a46.65,46.65,0,0,0,4.16-11.8,114,114,0,0,0,1.58-12.12c.43-4.1.92-8.19,1.28-12.31C381.26,286.88,381.48,282.92,381.64,278.95Zm255.42,7.36a3.63,3.63,0,0,0,2.52-4.43,3.59,3.59,0,0,0-1.66-2.15,3.8,3.8,0,0,0-2.77-.36c-1.2.2-2.42.39-3.62.57q-4.29.59-8.6,1.11c-3.12.38-6.24.84-9.38,1.12-2,.19-4,.32-6,.42a37,37,0,0,1-5.87-.2,34.84,34.84,0,0,1-7.1-2,15.12,15.12,0,0,1-2.05-1.12c-.12-.12-.26-.24-.38-.38a2.51,2.51,0,0,0-.15-.26c0-.12-.07-.23-.09-.35a30,30,0,0,1,1.16-3.19c2.08-4.89,4.21-9.8,7.34-14.12a44.23,44.23,0,0,1,6.57-6.63,25.76,25.76,0,0,1,3.32-2.08l.28,1.48c.23,1.32.47,2.66.72,4a4.32,4.32,0,0,0,2.05,2.66,4.44,4.44,0,0,0,6.1-1.59,4.7,4.7,0,0,0,.45-3.44c-.36-2.05-.73-4.1-1.12-6.14-.05-.36-.12-.74-.18-1.11-.07-.16-.12-.32-.19-.5a4.39,4.39,0,0,0-.81-1.58,6.9,6.9,0,0,0-1.15-1.35,6.09,6.09,0,0,0-2.48-1.44,10.77,10.77,0,0,0-2.24-.26,9.58,9.58,0,0,0-1.93.2,17.24,17.24,0,0,0-4.1,1.51,29.91,29.91,0,0,0-6,4.29,43.09,43.09,0,0,0-5.55,5.87,44.39,44.39,0,0,0-4.51,7c-1.11,2.11-2.07,4.28-3,6.45a2.89,2.89,0,0,0-.13.3l-.16.38c-.63,1.48-1.28,3-1.86,4.47-.32.85-.62,1.71-.89,2.58a7.9,7.9,0,0,0-.15,3.51,9.45,9.45,0,0,0,.9,2.82,12.32,12.32,0,0,0,1.65,2.44,10.14,10.14,0,0,0,2.13,1.73,11.79,11.79,0,0,0,2.08,1.11,38.12,38.12,0,0,0,5.17,1.89,37.12,37.12,0,0,0,6.2,1,56.17,56.17,0,0,0,11.85-.5c3.32-.34,6.61-.92,9.89-1.42l5.21-.78C631.47,287.4,634.29,286.92,637.06,286.3ZM526.23,293.5A16.63,16.63,0,0,0,526,289c-.09-.58-.2-1.16-.31-1.73-.22-1.16-.47-2.32-.72-3.47-.43-2-.88-4-1.4-6s-1.05-4.27-1.69-6.37c-.72-2.42-1.43-4.82-2.16-7.24-.61-2-1.34-4-2.07-6a68.36,68.36,0,0,0-4.1-9.33A20.57,20.57,0,0,0,511,245a13.78,13.78,0,0,0-1.23-1.28,6.86,6.86,0,0,0-2.31-1.39,4.58,4.58,0,0,0-1.81-.34,6.13,6.13,0,0,0-3,.81,10.75,10.75,0,0,0-3.21,3.7,39.64,39.64,0,0,0-2.47,4.75c-.45.92-.89,1.84-1.3,2.77-1,2.24-2,4.47-2.93,6.74-1.71,4.16-3.46,8.29-5,12.53-1.39,3.79-2.75,7.6-4.1,11.39-1,2.83-2,5.67-3,8.52a3.95,3.95,0,0,0,5.79,4.45,4.23,4.23,0,0,0,1.81-2.36c.69-2,1.36-4,2.07-6a1.27,1.27,0,0,0,.2-.08c3.09-1.46,6.22-2.82,9.35-4.18,4.33-1.62,8.65-3.24,13.08-4.54a3,3,0,0,0,2-1.9c.55,2.08,1.07,4.17,1.58,6.28.3,1.16.57,2.34.85,3.51.36,1.5.77,3,1.05,4.52,0,.2,0,.39.05.59a4.09,4.09,0,0,0,1.12,2.73,3.86,3.86,0,0,0,5.44,0A4.11,4.11,0,0,0,526.23,293.5Z"/><path class="cls-1" d="M270,345.71c0-.27,0-.55.07-.82L272,345c0,.13,0,.28,0,.42a4.19,4.19,0,0,0,2,3.55l0,.61c-.3,5.89-.26,11.77-.09,17.66s.4,11.89.84,17.82c.45,6.14.93,12.27,1.28,18.41.32,5.83.51,11.69.78,17.52.55,12,.92,24.08.65,36.11q-.22,9.44-.58,18.86c-.23,6-.55,12-.8,18-.49,12-.45,24-.59,36s-.35,24-.49,36c-.12,11.82.13,23.65.46,35.47s1.4,23.8,2,35.7c.58,11.72.54,23.46.9,35.19q.28,8.71.77,17.39c.31,5.44.74,10.91,1.42,16.31.76,4.93,1.59,9.85,2.7,14.71a109.5,109.5,0,0,0,4.36,14.75,31.25,31.25,0,0,0,1.77,3.56c.7,1.15,1.43,2.24,2.21,3.32a25.62,25.62,0,0,0,3.4,3.44c2.25,1.69,4.64,3.2,7,4.67,1.15.72,2.28,1.4,3.47,2,1,.54,2.05,1,3.09,1.53,4.39,1.75,9.11,2.43,13.77,3.08,3.47.43,7,.77,10.45,1.13,3.89.4,7.78.76,11.68,1,3,.19,5.91.43,8.86.78s5.86.8,8.79,1.09,6,.57,9,.72,5.8.24,8.69.31c6.1.16,12.2.39,18.3.4,1.44,0,2.88,0,4.31,0,4.37,0,8.73,0,13.11.16,2.9.13,5.79.27,8.71.3,2.7,0,5.44-.12,8.14-.27,6-.31,12-.78,18-1.15,5.67-.35,11.34-.58,17-.82,6.13-.27,12.23-.74,18.34-1.09,5.64-.32,11.28-.05,16.93.18,2.71.11,5.41.31,8.13.42,3,.12,6,.18,9,.16,6.09,0,12.18,0,18.25-.45,5.87-.43,11.76-.94,17.62-1.62,6-.7,12.05-1.59,18.13-2s12-.43,17.93-.43c3.05,0,6.1,0,9.15,0s5.9-.19,8.86-.3l9.08-.32c2.66-.11,5.3-.38,8-.67,1.17-.19,2.34-.38,3.5-.63a41.55,41.55,0,0,0,6.84-2,40.85,40.85,0,0,0,6.48-3.56c.89-.62,1.77-1.24,2.66-1.85l2.47-2c.92-.76,1.77-1.66,2.63-2.47,1.48-1.39,2.88-2.9,4.24-4.4,3-3.27,5.82-6.61,8.54-10.08a100.45,100.45,0,0,0,5.91-9.07,99,99,0,0,0,4.55-9.22c.61-1.58,1.2-3.16,1.74-4.75.59-1.75,1.13-3.54,1.66-5.32,1.05-3.46,1.75-7,2.47-10.58,1.34-6.67,2.44-13.39,3.39-20.13.19-1.65.4-3.28.51-4.91.45-6.32.73-12.63,1-19,.24-5.86.47-11.73.62-17.59s.24-11.73.49-17.59.49-11.69.61-17.53c.15-6.36.28-12.72.5-19.07.2-5.94.54-11.87.78-17.79.51-12.39.65-24.77.62-37.16,0-12-.18-23.93,0-35.89.07-5.8.39-11.61.55-17.41q.28-9.48.4-19,.1-9.27.18-18.53c0-5.7-.23-11.39-.39-17.09-.16-6-.32-12-.39-18-.05-6.2-.09-12.39-.28-18.59q-.28-9.74-1-19.48c-.38-5.76-.88-11.54-1.07-17.32-.2-6.11-.35-12.23-.4-18.34,0-3.16,0-6.32-.11-9.48-.07-1.54,0-3.1-.19-4.63-.13-1.36-.26-2.73-.39-4.09-.4-2.62-.85-5.21-1.36-7.82s-1.13-4.93-1.75-7.37c-.69-2.67-1.53-5.3-2.42-7.94-.77-2.34-1.75-4.63-2.7-6.91s-1.88-4.33-2.86-6.47c-1.11-2.35-2.16-4.74-3.43-7-.66-1.16-1.3-2.31-2-3.43s-1.54-2.36-2.36-3.52c-1.26-1.78-2.56-3.52-3.9-5.25a49.83,49.83,0,0,0-7.82-7.73,46.33,46.33,0,0,0-6.71-4.35l-2.7-1.38c-1.66-.85-3.37-1.59-5.09-2.35-3.87-1.61-7.76-3.19-11.69-4.64-1.93-.72-3.86-1.42-5.76-2.17s-3.93-1.59-5.91-2.34-3.91-1.46-5.93-2-4.17-1.07-6.28-1.47c-4.13-.78-8.26-1.48-12.41-2.13q-3.95-.51-7.91-.92c-2.82-.3-5.64-.7-8.46-1-3-.3-6-.55-9-.77-2.83-.2-5.68-.27-8.52-.38s-5.39-.16-8.07-.36q-4.52-.34-9-.73c-5.68-.46-11.38-.72-17.08-.9-5.9-.2-11.81-.23-17.71-.24s-12,0-18,0c-3.4,0-6.82.05-10.22.13-2.7.05-5.4.11-8.1.3-6.45.43-12.89.94-19.34,1.42-5.86.42-11.74.55-17.63.72-6.14.16-12.28.38-18.41.57-2.59.08-5.18.19-7.76.19h-.81c-2.86,0-5.7-.2-8.54-.39s-5.57-.3-8.37-.36a52,52,0,0,0-7.53.43c-2,.32-4.06.67-6.09,1.07-1.27.24-2.52.5-3.77.8-.46-1.77-.88-3.54-1.27-5.32a3.3,3.3,0,0,0-3.17-2.42,3.52,3.52,0,0,0-.65.07l-.49-2.12c.74-.22,1.48-.39,2.24-.54,1-.19,2-.4,3-.57,2.43-.4,4.86-.8,7.3-1.13a59.76,59.76,0,0,1,7.45-.73c4.4-.11,8.84.22,13.23.53,2.16.16,4.31.27,6.47.3s4.51,0,6.75-.11c6-.16,12-.39,18-.55,6.25-.15,12.49-.31,18.72-.62,5.89-.3,11.76-.84,17.63-1.19,5.44-.32,10.88-.45,16.33-.45h1.66c12.46,0,24.9.19,37.35.53,6.11.16,12.2.61,18.29,1.11,3,.24,5.93.58,8.9.86,2.81.27,5.62.43,8.42.58s5.84.27,8.75.54,6,.58,9.06,1c3.21.38,6.4.94,9.6,1.39,3,.42,5.93.82,8.87,1.39s6,1.21,9,1.86c2.7.58,5.43,1.2,8.06,2a75.08,75.08,0,0,1,8.92,3.43c2.61,1.19,5.21,2.36,7.84,3.48l.08,0h.05c5,2.09,9.95,4.18,14.79,6.53,1.27.61,2.58,1.16,3.82,1.84l3.73,2a57.84,57.84,0,0,1,14.63,11.78c2,2.38,3.93,4.85,5.76,7.36a78.06,78.06,0,0,1,4.58,6.88c1.4,2.39,2.58,4.87,3.78,7.36,1.08,2.24,2.13,4.52,3.1,6.8,1.24,2.92,2.5,5.83,3.54,8.83s1.9,6,2.73,9c.77,2.85,1.39,5.72,2,8.61.63,3.05,1,6.14,1.39,9.25.34,2.93.4,5.89.5,8.83s.15,6.17.26,9.25c.19,5.86.38,11.72.81,17.56.93,12.41,2.42,24.77,2.86,37.2.43,12,.65,24,1.38,36,.36,6.24.69,12.47.78,18.71.11,6,.11,12,.05,17.94s-.13,12.22-.36,18.32-.42,12.42-.5,18.64c-.07,5.8,0,11.6,0,17.4,0,6.21,0,12.43,0,18.65q0,18.06-1,36.08c-.32,6.37-.65,12.74-.9,19.13-.23,5.7-.31,11.39-.51,17.1-.22,6.21-.53,12.42-.77,18.63-.24,5.87-.34,11.74-.58,17.6s-.57,11.78-.89,17.68-.58,12-1.32,17.89c-.8,6.38-1.92,12.7-3.1,19-.55,2.9-1.15,5.8-1.75,8.69s-1.26,5.51-2.08,8.18a96.87,96.87,0,0,1-6.83,17.09c-1.39,2.59-2.79,5.2-4.41,7.65s-3.47,5.09-5.36,7.53-3.87,4.89-5.94,7.21c-1.9,2.15-3.78,4.36-5.86,6.36-1.09,1.07-2.16,2.17-3.33,3.15s-2.54,2.17-3.9,3.15a58.22,58.22,0,0,1-6.57,4.27,43.37,43.37,0,0,1-9.6,3.85,83.46,83.46,0,0,1-9.25,1.81c-2.93.39-5.84.69-8.77.9-6,.46-11.89,1-17.86,1.2-6.21.18-12.42.3-18.61.61-5.63.28-11.23.92-16.82,1.65l-.66.09c-2.86.38-5.72.76-8.6,1q-4.7.45-9.42.78c-2.85.22-5.72.42-8.59.47s-5.8,0-8.71-.08c-6-.18-12-.49-18-1.11-5.53-.57-11.06-1.28-16.62-1.58-5.9-.34-11.84.2-17.72.51-5.7.3-11.42.35-17.13.57-11.76.4-23.46,1.62-35.23,1.23-2.69-.08-5.37-.4-8-.58-2.94-.18-5.89-.28-8.84-.38-5.94-.18-11.89-.43-17.83-.84-3.08-.2-6.17-.39-9.26-.54-2.85-.15-5.71-.28-8.56-.54-3.19-.31-6.36-.65-9.53-1.09-2.71-.38-5.43-.78-8.15-1.16l-2.79-.32c-2.94-.34-5.9-.51-8.84-.77s-5.57-.59-8.34-.9A153.16,153.16,0,0,1,314,760.2a37.15,37.15,0,0,1-7.38-2.29c-1.26-.58-2.5-1.17-3.73-1.82-2.44-1.28-4.82-2.79-7.15-4.28a37.82,37.82,0,0,1-5.12-3.64,31.79,31.79,0,0,1-3.33-3.54,36.3,36.3,0,0,1-4.82-8c-1.24-2.75-2.21-5.64-3.25-8.48s-1.88-5.45-2.62-8.25-1.23-5.45-1.74-8.22-.92-5.57-1.17-8.38c-1.07-11.61-1.51-23.28-1.61-34.95-.05-5.66-.22-11.33-.38-17-.15-6-.31-12-.7-17.94-.39-6.14-.89-12.27-1.32-18.4-.4-5.87-.67-11.76-.94-17.64s-.65-11.58-.81-17.39c-.16-6.11-.26-12.23-.34-18.36-.15-12.07-.34-24.14-.3-36.2,0-11.73,0-23.47.61-35.19.67-12.46,1.32-24.93,1.7-37.42.35-11.92.2-23.85.24-35.77,0-5.9.08-11.8,0-17.7-.12-6.1-.39-12.19-.5-18.29C269,369.31,269.06,357.47,270,345.71Z"/><path class="cls-1" d="M381.84,266.73c.05,4.08-.05,8.14-.2,12.22s-.38,7.94-.74,11.89c-.36,4.12-.85,8.21-1.28,12.31A114,114,0,0,1,378,315.27a46.65,46.65,0,0,1-4.16,11.8c-3,5.71-7.09,11-12.81,14.17a63.3,63.3,0,0,1-6.26,3,45.34,45.34,0,0,1-5.21,1.89,38.77,38.77,0,0,1-6.92,1.23c-1.81.15-3.64.18-5.45.18l-11.72,0c-3.9,0-7.8.07-11.69.3s-7.78.62-11.66.86c-8.68.57-17.4.7-26.09.86A3.79,3.79,0,0,1,274,349c.11-2.16.3-4.32.54-6.45.05-.32.12-.65.18-1a4.21,4.21,0,0,1,1.36-.26c7.73-.13,15.47-.32,23.19-.69,3.83-.18,7.65-.5,11.49-.8s7.79-.51,11.69-.63,7.64-.2,11.45-.23,7.32,0,11-.34a59.8,59.8,0,0,0,11.28-3.32,28.1,28.1,0,0,0,4.68-2.66,27.62,27.62,0,0,0,4.09-4.14,36.34,36.34,0,0,0,2.61-4c.76-1.36,1.44-2.75,2.08-4.17s1.09-3.05,1.53-4.62.84-3.42,1.15-5.16c.31-2.39.55-4.76.82-7.17.3-2.7.63-5.43.93-8.14q1.28-12.07,1.4-24.22c0-4.09-.19-8.17-.45-12.26-.24-3.78-.5-7.56-.92-11.34a107.76,107.76,0,0,0-4.67-17.87c-.58-1.65-1.15-3.31-1.66-5s-.89-3.21-1.31-4.83c-.32-1.27-.54-2.58-.74-3.86.77-.4,1.54-.78,2.32-1.13a36,36,0,0,1,4.41-1.31q.87,3.38,1.86,6.74c1,3.42,2.27,6.78,3.12,10.25,1,3.94,1.9,7.9,2.62,11.91a105,105,0,0,1,1.17,12.18c.11,2,.23,3.93.35,5.9S381.81,264.64,381.84,266.73Z"/><path class="cls-1" d="M365.56,215.4c-.35-2.11-.65-4.21-.92-6.32a3.17,3.17,0,0,1,1-2.34,3.28,3.28,0,0,1,1.69-.9,3.52,3.52,0,0,1,.65-.07,3.3,3.3,0,0,1,3.17,2.42c.39,1.78.81,3.55,1.27,5.32a36,36,0,0,0-4.41,1.31c-.78.35-1.55.73-2.32,1.13C365.61,215.76,365.59,215.58,365.56,215.4Z"/><path class="cls-1" d="M272,345l-1.89-.15a48.41,48.41,0,0,1,1.12-7.51,67.34,67.34,0,0,1,2.4-7.21c1.94-5.25,4.17-10.39,6.51-15.5,1.08-2.39,2.19-4.76,3.37-7.1,1.27-2.51,2.63-5,4-7.44,2.69-4.76,5.45-9.5,8.46-14.08,3.1-4.74,6.16-9.52,9.08-14.38s6.14-10,9.23-15,6-9.73,9.39-14.36c3.63-5,7.55-9.68,11.62-14.27,3.74-4.21,7.59-8.36,11.5-12.42,2.12-2.21,4.28-4.36,6.59-6.38,2.59-2.29,5.41-4.35,8.17-6.44a4,4,0,0,1,3.23-.43,4.31,4.31,0,0,1,2.05,1.31l.49,2.12a3.28,3.28,0,0,0-1.69.9,3.17,3.17,0,0,0-1,2.34c.27,2.11.57,4.21.92,6.32,0,.19.05.36.09.55a52.77,52.77,0,0,0-7.14,4.6,5.14,5.14,0,0,1-4.2.55,6,6,0,0,1-.82-.3c-.38.39-.76.77-1.12,1.16q-4.31,4.47-8.48,9.08c-5.67,6.24-11.14,12.63-16.32,19.26-5.86,7.69-11.12,15.81-16.52,23.81q-4.78,7.11-9.62,14.19c-3.1,4.51-6.09,9.11-8.9,13.82-1.48,2.5-3,5-4.33,7.56-1.23,2.32-2.38,4.67-3.48,7-2.31,4.93-4.55,9.87-6.68,14.88l-.05.13c-.72,1.66-1.43,3.33-2,5a31.88,31.88,0,0,0-1.26,4.78A4.15,4.15,0,0,0,272,345Z"/><path class="cls-1" d="M274,349a4.19,4.19,0,0,1-2-3.55c0-.13,0-.28,0-.42a4.15,4.15,0,0,1,2.73-3.46c-.05.32-.12.65-.18,1C274.27,344.68,274.08,346.84,274,349Z"/></g><path class="cls-3" d="M451.32,439.39a117.25,117.25,0,0,0-18.07,6.75,2.32,2.32,0,0,0-1,1.13,134.59,134.59,0,0,0-16.44,9.21c-.77.51-1.59,1-2.36,1.47s-1.72,1.21-2.56,1.83c-1.77,1.3-3.52,2.64-5.22,4a124.44,124.44,0,0,0-9.58,9,116.76,116.76,0,0,0-31.85,96.7,127,127,0,0,0,2.57,13.61,117.7,117.7,0,0,0,4.06,13,120.63,120.63,0,0,0,50.81,61.31,113.38,113.38,0,0,0,24.2,10.87,125.21,125.21,0,0,0,25.57,5.26,121.49,121.49,0,0,0,25.21-.14,115.9,115.9,0,0,0,26-5.81c4.05-1.43,8-3.11,11.91-4.93A108.06,108.06,0,0,0,546,656.47a124.8,124.8,0,0,0,20.36-16,123,123,0,0,0,16.16-19.32,120.49,120.49,0,0,0,11.95-22.54,129.7,129.7,0,0,0,7.07-24.7,106,106,0,0,0,1.62-13.47,113.59,113.59,0,0,0,0-13.5,121.65,121.65,0,0,0-4.46-26.23,114.26,114.26,0,0,0-10.67-25,125.72,125.72,0,0,0-15.44-21.18,121.17,121.17,0,0,0-19.88-17.75,117.27,117.27,0,0,0-48.2-19.93A123.06,123.06,0,0,0,483.74,435a121.6,121.6,0,0,0-32.42,4.38Zm47.83,1.47a116,116,0,0,1,14.55,3,119.43,119.43,0,0,1,14.3,5,121.66,121.66,0,0,1,26.24,15.35,109.68,109.68,0,0,1,28,31.71,116.17,116.17,0,0,1,16.18,60.08,132.41,132.41,0,0,1-1.18,16.41,99.56,99.56,0,0,1-2.81,13.48,115.11,115.11,0,0,1-4.6,13.11l.21-.5a117.2,117.2,0,0,1-14.75,25.49A113.28,113.28,0,0,1,555.42,644l.47-.36-1.51,1.16.35-.27a115.64,115.64,0,0,1-55.41,23.05,115,115,0,0,1-29.27.08c-2.37-.33-4.74-.69-7.09-1.17q-3.77-.77-7.5-1.75a109.41,109.41,0,0,1-14-4.8,126.28,126.28,0,0,1-26.92-15.73,119.53,119.53,0,0,1-20.4-20.39,118.21,118.21,0,0,1-14.65-25,116.11,116.11,0,0,1-7.78-28.74,121.48,121.48,0,0,1,0-30.64,121,121,0,0,1,8.48-30.65,122.52,122.52,0,0,1,6.92-13.68,128.55,128.55,0,0,1,8.42-12.41q2.26-2.91,4.69-5.68c1.9-2.16,3.93-4.21,6-6.19,1.86-1.78,3.79-3.49,5.73-5.19s4.12-3.31,6.11-5a117.35,117.35,0,0,1,10.06-6.63c1.89-1.11,3.82-2.15,5.79-3.11a2.75,2.75,0,0,0,1.92-.27q1.7-.79,3.43-1.53a120.81,120.81,0,0,1,30.31-8.22l-.66.09a117.56,117.56,0,0,1,30.24,0Zm-59.33,7.93-.55.23.55-.23Zm88.43.11.32.13-.32-.13ZM395.83,482.3l-.16.21.16-.21Zm201.64,57.95,0,.19,0-.19Zm-22.19,83.68-.32.42.32-.42ZM440.9,659.67l.57.24-.57-.24Zm29.47,8,.39.05-.39-.05Z"/><path class="cls-4" d="M510.93,487.28l0,0A41.54,41.54,0,0,0,504.4,480a18.89,18.89,0,0,0-3.43-2,33.53,33.53,0,0,0-7.36-2,16.64,16.64,0,0,0-3.3,0,15.34,15.34,0,0,0-2.87.8,14.35,14.35,0,0,0-2.43,1.44,21.37,21.37,0,0,0-2.9,2.91,35,35,0,0,0-2.1,3.3c-.77,1.35-1.54,2.69-2.24,4.07l-2.33,4.66q-1.41,2.79-2.72,5.63l-.19.47a3.08,3.08,0,0,1-.79,1.36l-.63.49a3.09,3.09,0,0,1-.8.32c-.16.63-.32,1.25-.48,1.88-1,4.18-1.81,8.41-2.43,12.66q-.33,2.64-.59,5.29-.73,7.34-.93,14.71c-.06,2.6-.11,5.19-.09,7.78a58.59,58.59,0,0,0,.54,6.84c.25,1.68.53,3.35.87,5a43.72,43.72,0,0,0,1.31,4.75c1,3.12,2.11,6.19,3.34,9.23.63,1.43,1.29,2.83,2.05,4.2a37.13,37.13,0,0,0,2.38,3.73,18.58,18.58,0,0,0,2.42,2.51,15.68,15.68,0,0,0,2.68,1.6,32.55,32.55,0,0,0,6.89,1.76,15.23,15.23,0,0,0,3.1,0,17.86,17.86,0,0,0,3.6-1,16.16,16.16,0,0,0,2.83-1.7,55.55,55.55,0,0,0,4.71-4.25c.75-.75,1.44-1.54,2.16-2.34.52-.58,1-1.21,1.48-1.83s1-1.42,1.51-2.17,1-1.48,1.4-2.25.9-1.54,1.27-2.35l1.14-2.48c.71-1.72,1.42-3.44,2-5.2q1-3.18,2-6.38c.58-2,1.09-4,1.58-6,.44-1.82.69-3.67,1-5.51.5-4.43.92-8.86,1.16-13.31.07-1.22.11-2.44.14-3.66s0-2.26,0-3.4c0-2.09-.31-4.18-.54-6.27-.38-2.58-.77-5.16-1.19-7.74-.66-4-1.2-8.11-2.74-11.92A34.86,34.86,0,0,0,510.93,487.28Zm11.88,33.8c0,2.48-.12,5-.34,7.44-.24,2.71-.52,5.42-.81,8.13-.12,1.16-.28,2.33-.42,3.49-.1.8-.24,1.58-.37,2.36-.06.49-.13,1-.24,1.46-.52,2.52-1.09,5-1.78,7.53s-1.43,5.07-2.22,7.58a68.79,68.79,0,0,1-2.74,7.2,44.56,44.56,0,0,1-3.54,6.57,49.64,49.64,0,0,1-4.72,6.23c-.84.93-1.7,1.87-2.61,2.74a28.43,28.43,0,0,1-5.25,4.25,17,17,0,0,1-9.36,2.33,26.8,26.8,0,0,1-4.19-.58,21.58,21.58,0,0,1-7.54-2.85,17.09,17.09,0,0,1-3.39-2.91c-.49-.58-1-1.16-1.42-1.77-3.07-4.17-4.84-9.1-6.48-14-.84-2.47-1.64-4.93-2.31-7.44a31.48,31.48,0,0,1-.71-3.46c-.2-1.39-.43-2.78-.58-4.18a57.61,57.61,0,0,1-.41-7.39c.06-2.6.17-5.19.3-7.78.25-4.91.69-9.81,1.23-14.71.58-5.22,1.31-10.41,2.38-15.54.43-2,.92-4.07,1.42-6.09a2.84,2.84,0,0,1-.13-2c.56-1.38,1.17-2.74,1.81-4.08.21-.72.44-1.44.7-2.15s.46-1.27.7-1.91.63-1.44.93-2.14a27.75,27.75,0,0,1,1.83-3.3c1.44-2.35,3-4.61,4.59-6.86a2,2,0,0,1,1.17-.9l.09,0a21.71,21.71,0,0,1,2.48-2.25,16.07,16.07,0,0,1,2.26-1.57,18.63,18.63,0,0,1,2.13-1,15.61,15.61,0,0,1,4.71-1c.25,0,.5,0,.75,0a18.71,18.71,0,0,1,4.29.51,39.47,39.47,0,0,1,4.69,1.41,28.13,28.13,0,0,1,4.48,2,23,23,0,0,1,6.39,5.71l0,0,0,0,.11.15c1.18,1.53,2.33,3.05,3.46,4.61a31.59,31.59,0,0,1,5.54,11.75c.62,2.85,1,5.75,1.45,8.63.19,1.25.39,2.5.56,3.76s.42,2.78.58,4.18c.12,1.22.29,2.44.36,3.66C522.74,518.33,522.8,519.69,522.81,521.08Z"/><path class="cls-4" d="M519.3,519.71c0,1.14,0,2.27,0,3.4s-.06,2.44-.14,3.66c-.24,4.45-.67,8.88-1.16,13.31-.27,1.84-.52,3.69-1,5.51-.5,2-1,4-1.58,6s-1.29,4.26-2,6.38c-.58,1.76-1.29,3.48-2,5.2l-1.14,2.48c-.37.8-.85,1.57-1.27,2.35s-.94,1.5-1.4,2.25-1,1.45-1.51,2.17-1,1.25-1.48,1.83c-.71.8-1.41,1.58-2.16,2.34a55.55,55.55,0,0,1-4.71,4.25,16.16,16.16,0,0,1-2.83,1.7,17.86,17.86,0,0,1-3.6,1,15.23,15.23,0,0,1-3.1,0,32.55,32.55,0,0,1-6.89-1.76,15.68,15.68,0,0,1-2.68-1.6,18.58,18.58,0,0,1-2.42-2.51,37.13,37.13,0,0,1-2.38-3.73c-.76-1.37-1.43-2.78-2.05-4.2-1.23-3-2.34-6.11-3.34-9.23a43.72,43.72,0,0,1-1.31-4.75c-.34-1.66-.62-3.34-.87-5a58.59,58.59,0,0,1-.54-6.84c0-2.6,0-5.19.09-7.78q.19-7.37.93-14.71.27-2.65.59-5.29c.62-4.25,1.39-8.48,2.43-12.66.15-.63.32-1.26.48-1.88a3.09,3.09,0,0,0,.8-.32l.63-.49a3.08,3.08,0,0,0,.79-1.36l.19-.47q1.3-2.85,2.72-5.63l2.33-4.66c.7-1.38,1.47-2.72,2.24-4.07a35,35,0,0,1,2.1-3.3,21.37,21.37,0,0,1,2.9-2.91,14.35,14.35,0,0,1,2.43-1.44,15.34,15.34,0,0,1,2.87-.8,16.64,16.64,0,0,1,3.3,0,33.53,33.53,0,0,1,7.36,2,18.89,18.89,0,0,1,3.43,2,41.54,41.54,0,0,1,6.49,7.21l0,0a34.86,34.86,0,0,1,3.9,6.51c1.53,3.81,2.08,7.89,2.74,11.92.42,2.57.81,5.15,1.19,7.74C519,515.53,519.27,517.61,519.3,519.71Z"/><path class="cls-4" d="M498.47,617.94a11.9,11.9,0,0,1-.13,5.85,14.36,14.36,0,0,1-2.75,5,17.14,17.14,0,0,1-3.25,2.88,15,15,0,0,1-4.18,2.15,12.47,12.47,0,0,1-3.53.63,21.52,21.52,0,0,1-3.22-.24,13.88,13.88,0,0,1-5.11-1.81,14.87,14.87,0,0,1-4.82-4.47,9.45,9.45,0,0,1-1.27-2.56,13.21,13.21,0,0,1-.46-2.64,15.46,15.46,0,0,1,.06-3.13,19.3,19.3,0,0,1,.56-3.12,20.76,20.76,0,0,1,2.34-5.32c.71-1.12,1.46-2.21,2.24-3.28a2.8,2.8,0,0,1-.35-2.13,2.67,2.67,0,0,1,1.19-1.54,2.37,2.37,0,0,1,1.25-.33,4.65,4.65,0,0,1,.74.07c1.35.24,2.68.51,4,.84a21.69,21.69,0,0,1,2.74.81,34.86,34.86,0,0,1,7.31,3.53,19.39,19.39,0,0,1,4.44,3.9A11.67,11.67,0,0,1,498.47,617.94Zm-4.38,3.11a9.68,9.68,0,0,0,0-1.37,13,13,0,0,0-.66-2.35,8.93,8.93,0,0,0-.69-1.18,14.49,14.49,0,0,0-1.73-1.66,26.41,26.41,0,0,0-4.92-2.82,47.54,47.54,0,0,0-5.32-1.79,36.52,36.52,0,0,0-4,6.29,19.38,19.38,0,0,0-1,3.71,15.91,15.91,0,0,0,0,2.85,8.81,8.81,0,0,0,.25,1,11.33,11.33,0,0,0,.72,1.21,14.13,14.13,0,0,0,1.44,1.43,15.41,15.41,0,0,0,2.15,1.27,12.72,12.72,0,0,0,2.25.58,15,15,0,0,0,2.63.06,14,14,0,0,0,2.37-.66,22.54,22.54,0,0,0,3.47-2,13.74,13.74,0,0,0,1.82-1.82,12,12,0,0,0,.93-1.55C493.89,621.9,494,621.48,494.09,621.05Z"/><path class="cls-4" d="M494.07,619.68a9.68,9.68,0,0,1,0,1.37c-.09.43-.2.84-.33,1.26a12,12,0,0,1-.93,1.55,13.74,13.74,0,0,1-1.82,1.82,22.54,22.54,0,0,1-3.47,2,14,14,0,0,1-2.37.66,15,15,0,0,1-2.63-.06,12.72,12.72,0,0,1-2.25-.58,15.41,15.41,0,0,1-2.15-1.27,14.13,14.13,0,0,1-1.44-1.43,11.33,11.33,0,0,1-.72-1.21,8.81,8.81,0,0,1-.25-1,15.91,15.91,0,0,1,0-2.85,19.38,19.38,0,0,1,1-3.71,36.52,36.52,0,0,1,4-6.29,47.54,47.54,0,0,1,5.32,1.79,26.41,26.41,0,0,1,4.92,2.82,14.49,14.49,0,0,1,1.73,1.66,8.93,8.93,0,0,1,.69,1.18A13,13,0,0,1,494.07,619.68Z"/></svg>