<svg xmlns="http://www.w3.org/2000/svg" viewBox="0 0 871.69 845.84"><defs><style>.cls-1,.cls-6{fill:#bebebe;}.cls-1{opacity:0.83;}.cls-2{fill:#3975e4;}.cls-3{fill:#fff;}.cls-4{fill:#7f7f7f;}.cls-5{fill:none;}.cls-7{fill:#996425;}.cls-8{fill:#6edaf4;}</style></defs><title>find_it_fast</title><g id="Mag_outline" data-name="Mag outline"><path class="cls-1" d="M309.59,405.48c-2.74,0-5.49.12-8.23.21s-5.28,0-7.93,0c-2.41,0-4.82.09-7.22.24-2.09.13-4.15.1-6.24.14a56.81,56.81,0,0,0-9,1c-2.07.38-4.1.9-6.17,1.26s-4.15.45-6.22.65a64.85,64.85,0,0,1-8.5.45c-2.65-.09-5.29-.23-7.94-.23-3.12,0-6.21.17-9.31.41-2.76.21-5.49.39-8.26.43-2.53,0-5.05.19-7.57.4-5.67.48-11.37.8-17.05,1.08a63.92,63.92,0,0,1-10.27-.39c-1.05-.18-2.1-.37-3.14-.6-1.93-.41-3.89-.65-5.84-.91a58.47,58.47,0,0,0-8-.36c-5.33,0-10.69.16-16,.41-5.08.24-10.16.83-15.23,1.33a81.59,81.59,0,0,1-8.39.62c-2.65,0-5.33-.25-8-.47-2.82-.25-5.62-.56-8.45-.71a74.29,74.29,0,0,0-8.08.14c-2.64.16-5.26.26-7.91.17-2.32-.07-4.64-.27-7-.39-2.47-.14-5-.1-7.43-.18-2.72-.09-5.45-.18-8.17-.31-2.48-.11-5-.15-7.43-.13-1.38,0-2.76.14-4.13.14s-2.51-.15-3.77-.18c-4.28-.13-8.48,1.06-12.64,1.92-2.94.61-4.6,4-3.84,6.77a5.53,5.53,0,0,0,2.53,3.29,5.74,5.74,0,0,0,4.24.56c1.19-.25,2.38-.48,3.57-.68a35.89,35.89,0,0,1,6.87-.05c2.7.41,5.38.91,8.1,1.15,2.51.22,5,.3,7.57.35,2.69.05,5.39,0,8.09-.07,2.38-.05,4.76,0,7.14-.16s4.88-.33,7.32-.39,5.13-.21,7.69-.3c2.78-.11,5.54-.2,8.32-.09s5.42.28,8.13.39c3.76.16,7.52.39,11.26.85l-1.56-.21c3.13.42,6.24.78,9.39,1,2.62.16,5.24.35,7.85.55,5.12.39,10.23.65,15.37.81,2.66.08,5.31.1,8,.15s5.43.18,8.14.25c5.37.13,10.77,0,16.12-.44,5.63-.42,11.25-.77,16.86-1.35,2.58-.26,5.16-.44,7.74-.54s5.46-.41,8.19-.52c5.82-.23,11.6.4,17.41.6,5.35.18,10.69.46,16,1a113.32,113.32,0,0,0,16,.65c2.76-.13,5.52-.51,8.27-.7s5.29-.32,7.94-.46,5.51-.38,8.26-.55,5.44-.25,8.15-.42,5.63-.45,8.44-.67,5.6-.42,8.39-.73a98.82,98.82,0,0,1,21.77-.31c2.69.39,5.38.79,8.1.95s5.19.24,7.79.25c5.61,0,11.23-.34,16.83-.44,5.1-.1,10.22,0,15.32.11,2.6,0,5.2.13,7.79.35,2.83.24,5.73.74,8.57.4a6.27,6.27,0,0,0,5.41-9.43,6,6,0,0,0-3.75-2.88c-2.94-.42-5.88-.7-8.85-1-2.46-.22-4.92-.45-7.39-.57-4.86-.23-9.73-.5-14.6-.67-5.1-.17-10.21-.24-15.32-.49-4.92-.24-9.89-.47-14.79-1-2.81-.39-5.62-.77-8.46-.91-2.66-.12-5.31-.09-8-.13s-5.1-.07-7.65-.05c-2.83,0-5.66.12-8.48,0-5.17-.14-10.33-.27-15.5-.27Z"/><path class="cls-1" d="M711.33,310.48a9.59,9.59,0,0,0-1.87,1.56,12.63,12.63,0,0,0-3.15,4.5,8.24,8.24,0,0,0-.35,2,14.11,14.11,0,0,0,.23,2.57,11.6,11.6,0,0,0,.79,2.31,15.47,15.47,0,0,1,.66,2.58,51.76,51.76,0,0,1-.27,8.29,64.64,64.64,0,0,0,0,9.26c.23,3.34,1,6.64,1.52,9.93.51,3.11,1.17,6.21,1.66,9.33.33,2.5.64,5,.88,7.5,0,0,0,.06,0,.1,0,.63-.05,1.25-.1,1.87-.46,2.55-1.23,5-1.83,7.56-.32,1.34-.57,2.69-.86,4-.32,1.52-.74,3-1.06,4.55-.6,2.92-1.19,5.86-1.92,8.76-.34,1.35-.7,2.67-.93,4-.19,1.16-.3,2.35-.57,3.49a32.48,32.48,0,0,1-3.35,1.68c-1.71.64-3.46,1.1-5.23,1.57-1.33.35-2.63.77-4,1.13l-3.86.17c-4,.18-7.95.85-11.9,1.41-4.33.53-8.66.88-13,1.16-2.16.14-4.32.41-6.47.61l-.92.08-2.81-.25c-2.12-.17-4.23-.39-6.34-.6s-4.39-.35-6.58-.5c-1.16-.07-2.32-.18-3.47-.32-4.42-.69-8.79-1.65-13.25-2.13a104.81,104.81,0,0,0-13.32-.37c-4.53.08-9,.37-13.55.62s-8.93.28-13.4.31-8.65.07-13,.36c-2.18.14-4.36.4-6.54.56s-4.6.31-6.91.55a100.89,100.89,0,0,1-12.8.75c-2,0-4,0-6-.1-2.22-.06-4.44-.21-6.66-.31-4.29-.19-8.57-.11-12.86,0s-8.54,0-12.82-.09-8.58.37-12.88.71l-2.3.16a4.87,4.87,0,0,0-.84-.06v0c-1.41,0-2.82.08-4.23.2l-2.88.08c-1.91.05-3.82.09-5.72.08-3.4-.05-6.79-.21-10.18-.27-1.21,0-2.41,0-3.61.1l-1.07,0c-4.57-.07-9.14-.19-13.72-.25s-8.89-.2-13.33-.4l-4.85-.2c-.59-.09-1.18-.18-1.77-.22a6.37,6.37,0,0,0-1,0,5.4,5.4,0,0,0-1.06.11q-2.75-.07-5.5-.11c-4.65,0-9.29-.05-13.93-.42-1.74-.26-3.48-.57-5.22-.88-2.59-.46-5.18-.82-7.79-1.07-2.23-.21-4.48-.28-6.72-.43s-4.43-.29-6.66-.37c-4.48-.18-9-.19-13.46-.28s-9.19-.33-13.78-.44c-4.43-.1-8.86-.28-13.29-.44s-9,0-13.42,0c-2.25,0-4.5.07-6.74.18-2.54.12-5.06.42-7.58.77A126.38,126.38,0,0,0,298.58,410c-2.34.58-4.68,1.22-7,1.93a3,3,0,0,0-1.32,5,2.86,2.86,0,0,0,2.12.88c2.16-.26,4.34-.55,6.51-.7,2.35-.16,4.71-.25,7.07-.36,2.05-.1,4.11-.12,6.17-.19,2.24-.07,4.48-.17,6.72-.19,9.09-.07,18.17.28,27.25.73,4.43.21,8.88.25,13.31.42s8.91.25,13.36.28,9.14.16,13.71.38,8.91.2,13.35.54c2.09.16,4.19.4,6.28.59,1.12.1,2.25.15,3.39.18a4.21,4.21,0,0,0,4.17,3.95c3.86-.05,7.72-.14,11.58,0,3.57.09,7.14.08,10.69.34a98.89,98.89,0,0,0,10.32.34,51.85,51.85,0,0,0,5.49-.52h2c4.69,0,9.36-.09,14-.4,2.92-.19,5.83-.48,8.74-.72l5.51,0c3.5,0,7,0,10.49,0,5.16,0,10.32-.08,15.48,0,4.31.08,8.61,0,12.91-.33,2.09-.14,4.16-.32,6.24-.46s4.33-.23,6.5-.35,4.31-.31,6.47-.49l1-.08,4.86.06c2.12,0,4.23.11,6.35.17,2.3.07,4.61,0,6.91-.05,9-.1,17.93-.1,26.89-.07q2.29,0,4.57,0c3.31.51,6.61,1,9.94,1.37,4.53.46,9.07.86,13.61,1.17,4.17.28,8.34.42,12.51.59s8.48.45,12.72.62a111.58,111.58,0,0,0,12.92-.4c4.22-.31,8.42-.92,12.59-1.62l2.38,0c4.28-.07,8.57-.27,12.83-.7a111.15,111.15,0,0,0,14.06-2.09c2-.46,4-1,6-1.44,1-.25,2.06-.53,3.08-.85a33.2,33.2,0,0,0,4.08-1.7,21.94,21.94,0,0,0,3.19-1.77,12.17,12.17,0,0,0,3.55-3.67,12.8,12.8,0,0,0,1.24-3c.29-.93.5-1.89.77-2.83s.57-1.81.89-2.71a55.8,55.8,0,0,0,1.78-5.91c.45-2,.72-4,1-6.07l.14-.37a29.29,29.29,0,0,0,1.74-12.14c-.11-1.84-.31-3.68-.44-5.52s-.36-3.89-.6-5.83-.42-3.71-.67-5.56c-.13-1-.28-2-.43-3,0-1.69.09-3.37.06-5.06,0-2.09-.17-4.19-.06-6.28s.33-4.17.52-6.25.31-4.24.37-6.37.17-4.18.16-6.28-.07-4.38-.27-6.56c-.13-1.33-.27-2.65-.5-4-.41-2.34-1.11-4.74-3.19-6.12a5,5,0,0,0-2.74-.79,4.76,4.76,0,0,0-2.54.7Zm3.75,7.28,0,.23q0-.12,0-.23Zm-4.69,43.9.1.78-.1-.78Zm-5.91,42.62c0,.11-.09.22-.14.33l.14-.33Z"/><path class="cls-2" d="M715.45,310.12a2.22,2.22,0,0,1-1.59,2.14c0-.93,0-1.87,0-2.8a3,3,0,0,0-.47-1.62A2.31,2.31,0,0,1,715.45,310.12Z"/><path class="cls-2" d="M685.1,408.74c1.48-.19,3-.37,4.43-.66,1.73-.35,3.43-.73,5.14-1.17s3.15-.9,4.72-1.38,3-.9,4.46-1.45a6.47,6.47,0,0,0,.85-.49,1.2,1.2,0,0,0,.18-.16,1.69,1.69,0,0,1,.11-.19,27.2,27.2,0,0,0,.62-2.87c.17-.82.34-1.62.47-2.43.12-1.44.27-2.87.31-4.31s0-3.05-.06-4.58c-.1-3-.24-6.09-.24-9.13,0-3.4.13-6.8.29-10.2s.38-6.94.4-10.42c0-3.11,0-6.23.19-9.33.1-1.78.24-3.58.42-5.35.17-1.6.35-3.21.36-4.81,0-3.26-.26-6.51-.29-9.77s0-6.35.08-9.52q.05-3.92.09-7.86l1.74-.09c1.26,0,2.52-.1,3.78-.17a2.14,2.14,0,0,0,.7-.15q-.05,6.46,0,12.9c0,2.58.07,5.15.22,7.73.15,2.31.3,4.61.3,6.93a49,49,0,0,1-.36,5.13c-.19,1.68-.36,3.36-.52,5-.29,3.11-.49,6.23-.67,9.33-.19,3.48-.54,6.94-.82,10.42s-.52,6.8-.66,10.2c-.13,3-.21,6.09-.28,9.13,0,1.64,0,3.29-.15,4.92-.11,1.37-.27,2.74-.43,4.11a37.5,37.5,0,0,1-1,4.85,8.67,8.67,0,0,1-1.08,2.75,6.47,6.47,0,0,1-2.8,2.18,20,20,0,0,1-2.64,1l-2.46.76c-1.39.44-2.79.89-4.21,1.27-1.87.52-3.74,1-5.63,1.38-1.58.34-3.2.55-4.8.79-3.44.5-6.9.83-10.35,1.14s-6.86.46-10.3.59-6.57.18-9.85.16c-7.34-.06-14.65-.22-22-.67-3.4-.21-6.8-.46-10.2-.7s-6.83-.37-10.24-.59c-6.77-.45-13.54-1.12-20.32-1.44-7.14-.34-14.3-.38-21.46-.37h-3.25c-5.85,0-11.72,0-17.56.29-3.63.19-7.25.54-10.87.91q-5.13.5-10.29,1c-6.8.59-13.59,1.21-20.4,1.64-3.58.22-7.16.39-10.73.59-3.33.19-6.66.44-10,.64-7,.43-14,.76-21,.81-3.45,0-6.92,0-10.39-.06s-7.1,0-10.66-.12c-3.33-.08-6.65-.16-10-.21-3.6-.06-7.2-.09-10.81-.18-6.93-.17-13.85-.54-20.78-.74s-13.74-.22-20.6-.31c-7-.1-14.05-.34-21.08-.61-13.75-.54-27.5-.62-41.25-.65-6.92,0-13.82.21-20.73.37s-13.56.29-20.35.36c-3.34,0-6.68,0-10,.28s-7,.53-10.5.74c-6.66.39-13.34.44-20,.53-7,.1-14.07.34-21.11.43-6.83.09-13.66.18-20.49.08s-13.41-.2-20.13-.26-13.52,0-20.28-.11-13.41-.22-20.12-.29q-9.64-.08-19.27-.13c-3.24,0-6.48,0-9.71-.16-3.39-.15-6.76-.4-10.14-.54-6.65-.28-13.29-.39-19.93-.2-3.21.09-6.42.26-9.61.4-2.69.13-5.38.4-8.08.5a55.36,55.36,0,0,1-8.84-.15,19.44,19.44,0,0,1-4.35-1,24.72,24.72,0,0,1-2.33-.94c-.84-.38-1.64-.84-2.46-1.25a2.42,2.42,0,0,1-.86-3.3A2.38,2.38,0,0,1,45,408.4a2.65,2.65,0,0,0,.61,1,2.54,2.54,0,0,0,2.68.59,20.21,20.21,0,0,0,3.86,1.11,38,38,0,0,0,6.49,0c2-.11,3.93-.27,5.88-.49,2.2-.26,4.4-.53,6.61-.67s4.67-.34,7-.45c5-.22,9.94-.39,14.91-.26,2.55.07,5.08.15,7.63.26s5,.31,7.58.4c3.21.12,6.43.11,9.65.12s6.52,0,9.77.07c6.48.07,13,.15,19.45.28s13.19.22,19.79.24c6.88,0,13.76,0,20.63.15s13.56.22,20.34.19c7,0,14-.13,21-.35s13.73-.28,20.59-.43,13.45-.65,20.16-1.2c3.25-.26,6.51-.34,9.77-.38s6.75-.09,10.14-.16q10.6-.24,21.2-.56c6.67-.21,13.37-.16,20.05-.16,7,0,13.92,0,20.9.15,7.14.12,14.3.39,21.45.59,6.85.2,13.71.21,20.56.28,6.68.07,13.37.28,20.05.56,3.49.13,7,.3,10.45.39s7.22.15,10.85.21c6.85.13,13.71.33,20.57.49,3.45.08,6.91.18,10.36.2,3.61,0,7.22,0,10.83-.12,6.94-.15,13.87-.64,20.81-1s14-.67,21-1.22c6.81-.54,13.61-1,20.41-1.69,3.42-.33,6.84-.67,10.29-.82s6.82-.24,10.23-.2q10.82.1,21.63.37c7,.19,14,.71,21,1.36,3.44.33,6.88.64,10.33.9s7,.47,10.48.71c6.82.46,13.63,1.07,20.46,1.25,7,.18,14,.38,21,.12,3.63-.12,7.26-.31,10.88-.55C678.55,409.49,681.83,409.12,685.1,408.74Zm19.61-5.14-.42.31A3.67,3.67,0,0,0,704.7,403.61Z"/><path class="cls-2" d="M713.41,307.84a3,3,0,0,1,.47,1.62c0,.93,0,1.87,0,2.8a2.14,2.14,0,0,1-.7.15c-1.26.07-2.52.12-3.78.17l-1.74.09,0-3.21A2.85,2.85,0,0,1,708,308c1.7-.07,3.41-.12,5.13-.21Z"/><path class="cls-2" d="M713.41,307.84h-.25c-1.72.09-3.42.15-5.13.21a3.08,3.08,0,0,1,2.74-1.69A3.13,3.13,0,0,1,713.41,307.84Z"/><path class="cls-2" d="M706.58,308.09l1.46,0a2.85,2.85,0,0,0-.36,1.41l0,3.21q-.72,0-1.45,0c-2,0-4,0-6,0L689,312.61c-7.29,0-14.59,0-21.88-.18-6.89-.21-13.77-.3-20.67-.45s-13.77-.28-20.67-.4-13.5-.53-20.26-.82-13.67-.29-20.5-.48c-3.44-.1-6.88-.3-10.32-.42s-6.6-.19-9.89-.25q-10.45-.2-20.91-.25c-6.88,0-13.75.19-20.62.26s-13.49.31-20.23.43c-6.93.11-13.86.25-20.8.22s-14-.07-21.05-.12c-6.51-.06-13-.1-19.52.33-6.86.46-13.72.77-20.59,1-3.51.12-7,.18-10.53.24-3.3.06-6.6.12-9.88.13-6.68,0-13.36-.11-20-.24s-13.62-.18-20.42-.17c-3.39,0-6.77.1-10.16.21s-6.71.22-10,.38-6.7.3-10,.38-6.61.13-9.9.29c-6.72.33-13.43,1-20.17,1.13-1.77.06-3.56.09-5.33.07-1.55,0-3.11-.1-4.65-.19-3.41-.19-6.81-.36-10.22-.56-3-.17-5.93-.45-8.91-.5a51.84,51.84,0,0,0-5.28.13c-1.51.12-3,.27-4.54.37-3.23.24-6.47.38-9.71.56s-6.76.34-10.15.38c-6.33.06-12.66-.15-19-.24-3.36,0-6.72-.21-10.07-.38-3.11-.16-6.19-.45-9.29-.72-6.47-.55-13-.76-19.49-.81-3.61,0-7.22,0-10.82.08-3,0-6,.08-9,.07-6.72,0-13.44-.07-20.16-.07-3.22,0-6.45,0-9.67,0s-6.6-.19-9.89-.26-6.6-.19-9.89-.28c-1.77,0-3.58-.11-5.35,0-1.58.11-3.14.28-4.71.48-2.16.29-4.32.62-6.48.89s-4.15.42-6.24.54c-4,.24-7.93.46-11.89.52-3.79,0-7.58-.13-11.37-.15-2,0-4,0-5.94.1-1.7.07-3.41.15-5.11.34a28.43,28.43,0,0,1-4.46.47,6.23,6.23,0,0,0-1,.28l-.65.21a1.71,1.71,0,0,1-.42.09c.18-1.85.38-3.71.59-5.56l.75-.28c.47-.1.93-.19,1.39-.27s1.16-.19,1.73-.3c1.47-.28,2.95-.5,4.43-.64,2-.2,4.11-.22,6.16-.26q2.25,0,4.51,0c2.82,0,5.64.1,8.46,0,3.14-.07,6.27-.22,9.4-.4s6.46-.37,9.69-.75c1.6-.19,3.21-.42,4.81-.61s3.36-.44,5.06-.52a82.72,82.72,0,0,1,10.41.26c3.16.24,6.34.47,9.5.67s6.62.4,9.93.42,6.72,0,10.08,0c6.68,0,13.36-.15,20-.29s13.11-.36,19.66-.21c3.35.08,6.71.13,10,.34,3.19.19,6.36.55,9.55.84s6.29.52,9.44.7c3.35.18,6.71.21,10.06.25,3.08,0,6.17.06,9.25,0s6.35,0,9.51-.2c3.34-.19,6.68-.5,10-.73s6.51-.45,9.75-.83c1.69-.19,3.4-.39,5.11-.42q2.12,0,4.24,0c3.3.11,6.58.31,9.88.44s6.68.34,10,.45,6.63-.06,9.93-.19,6.66-.39,10-.58,6.61-.36,9.92-.46,6.65-.12,10-.21,6.74-.25,10.11-.34,6.71-.19,10.06-.26,6.66,0,10,.06c6.79.17,13.56.5,20.35.71s13.41.52,20.13.58,13.54.18,20.29.08c3.52-.06,7.06-.12,10.58-.3s6.91-.45,10.36-.63c6.72-.35,13.45-.34,20.17-.37,7,0,14,0,20.92-.15s13.68-.3,20.51-.48c6.67-.17,13.35-.43,20-.57s13.52-.35,20.27-.35h.62q10.36,0,20.72.26c3.3.08,6.58.18,9.88.3s6.9.29,10.35.33c6.74,0,13.49.13,20.23.43,3.33.15,6.67.33,10,.43q5.37.15,10.75.24c6.84.1,13.67.42,20.51.61,3.45.1,6.91.19,10.36.38s6.63.43,9.94.55c6.73.25,13.45.31,20.18.43,3.36.06,6.73.13,10.09.15C702.8,308.09,704.68,308.16,706.58,308.09Z"/><path class="cls-3" d="M707.47,330c0,3.26.34,6.51.29,9.77,0,1.6-.19,3.21-.36,4.81-.18,1.77-.31,3.57-.42,5.35-.17,3.11-.17,6.23-.19,9.33,0,3.48-.25,6.94-.4,10.42s-.28,6.8-.29,10.2c0,3,.13,6.09.24,9.13.06,1.53.1,3.05.06,4.58s-.19,2.87-.31,4.31c-.13.82-.3,1.62-.47,2.43a27.2,27.2,0,0,1-.62,2.87,1.69,1.69,0,0,0-.11.19,1.2,1.2,0,0,1-.18.16,6.47,6.47,0,0,1-.85.49c-1.47.55-3,1-4.46,1.45s-3.14,1-4.72,1.38-3.41.82-5.14,1.17c-1.46.29-2.95.47-4.43.66-3.26.38-6.55.75-9.84,1-3.62.24-7.25.43-10.88.55-7,.26-14,.06-21-.12-6.83-.18-13.64-.79-20.46-1.25-3.5-.24-7-.44-10.48-.71s-6.89-.57-10.33-.9c-7-.65-14-1.17-21-1.36q-10.82-.29-21.63-.37c-3.41,0-6.82.06-10.23.2s-6.86.49-10.29.82c-6.81.65-13.61,1.16-20.41,1.69-7,.55-14,.89-21,1.22s-13.86.82-20.81,1c-3.61.08-7.22.15-10.83.12-3.45,0-6.91-.12-10.36-.2-6.86-.17-13.72-.36-20.57-.49-3.62-.07-7.23-.12-10.85-.21s-7-.26-10.45-.39c-6.68-.28-13.37-.49-20.05-.56-6.85-.07-13.71-.08-20.56-.28-7.14-.2-14.3-.47-21.45-.59-7-.12-13.93-.13-20.9-.15-6.68,0-13.38-.06-20.05.16q-10.6.34-21.2.56c-3.39.07-6.76.11-10.14.16s-6.52.12-9.77.38c-6.71.55-13.43,1.08-20.16,1.2s-13.73.22-20.59.43-14,.31-21,.35c-6.77,0-13.55-.1-20.34-.19s-13.75-.13-20.63-.15c-6.6,0-13.19-.11-19.79-.24s-13-.21-19.45-.28c-3.25,0-6.52-.06-9.77-.07s-6.44,0-9.65-.12c-2.53-.09-5.06-.28-7.58-.4s-5.08-.19-7.63-.26c-5-.13-9.94,0-14.91.26-2.33.11-4.67.3-7,.45s-4.41.42-6.61.67c-2,.22-3.91.38-5.88.49a38,38,0,0,1-6.49,0A20.21,20.21,0,0,1,48.26,410a2.67,2.67,0,0,0,1.67-2.4c.06-1.65.18-3.3.16-5s-.06-3.13-.1-4.69c-.08-2.92-.31-5.82-.48-8.73-.34-6-.28-12-.2-18s.21-12,.27-18,0-11.91-.09-17.86c0-4.19-.06-8.39.13-12.57.11-2.5.3-5,.55-7.49a1.71,1.71,0,0,0,.42-.09l.65-.21a6.23,6.23,0,0,1,1-.28,28.43,28.43,0,0,0,4.46-.47c1.7-.19,3.41-.27,5.11-.34,2-.08,4-.11,5.94-.1,3.79,0,7.58.19,11.37.15,4-.06,7.93-.28,11.89-.52,2.09-.12,4.16-.28,6.24-.54s4.32-.59,6.48-.89c1.57-.2,3.13-.37,4.71-.48,1.77-.11,3.58,0,5.35,0,3.3.09,6.6.21,9.89.28s6.6.2,9.89.26,6.45,0,9.67,0c6.72,0,13.44.07,20.16.07,3,0,6,0,9-.07,3.6,0,7.21-.1,10.82-.08,6.51,0,13,.26,19.49.81,3.1.27,6.18.56,9.29.72,3.35.17,6.71.34,10.07.38,6.33.09,12.66.29,19,.24,3.39,0,6.76-.18,10.15-.38s6.48-.33,9.71-.56c1.53-.1,3-.25,4.54-.37a51.84,51.84,0,0,1,5.28-.13c3,.06,5.93.34,8.91.5,3.41.2,6.81.37,10.22.56,1.55.09,3.11.17,4.65.19,1.77,0,3.56,0,5.33-.07,6.74-.18,13.45-.81,20.17-1.13,3.3-.16,6.61-.21,9.9-.29s6.7-.22,10-.38,6.7-.27,10-.38,6.77-.21,10.16-.21q10.21,0,20.42.17c6.67.12,13.35.24,20,.24,3.29,0,6.58-.08,9.88-.13,3.51-.06,7-.11,10.53-.24,6.88-.25,13.73-.56,20.59-1,6.49-.43,13-.38,19.52-.33,7,.06,14,.11,21.05.12s13.86-.11,20.8-.22c6.74-.11,13.49-.35,20.23-.43s13.74-.29,20.62-.26,13.94.11,20.91.25c3.3.06,6.6.15,9.89.25s6.88.31,10.32.42c6.83.19,13.67.19,20.5.48s13.49.7,20.26.82,13.78.26,20.67.4,13.78.24,20.67.45c7.29.22,14.59.13,21.88.18l11.17.08c2,0,4,0,6,0q.72,0,1.45,0,0,3.94-.09,7.86C707.52,323.7,707.45,326.88,707.47,330Z"/><path class="cls-2" d="M50,307.1a2.65,2.65,0,0,1,.82,2c0,.21,0,.42-.08.63-.29.1-.58.22-.86.35s-.82.39-1.22.61a2.48,2.48,0,0,0-1.13,2.79,2.53,2.53,0,0,0,2.62,1.82c-.25,2.49-.44,5-.55,7.49-.19,4.18-.17,8.38-.13,12.57.06,5.94.13,11.9.09,17.86s-.2,12-.27,18-.13,12,.2,18c.17,2.91.4,5.81.48,8.73,0,1.56.09,3.12.1,4.69s-.1,3.31-.16,5a2.67,2.67,0,0,1-1.67,2.4l-.09,0c-.89-.43-1.75-.89-2.64-1.32a2.58,2.58,0,0,0-.56-.2.88.88,0,0,1-.06-.16c-.2-1.41-.44-2.84-.54-4.26-.06-1-.12-2-.16-3-.08-2-.17-4.09-.34-6.12-.33-4-.59-8-.71-11.95-.18-6-.15-12.09-.11-18.14,0-3,.07-6.06.1-9.09s0-6.08.06-9.12q.07-9.05.42-18.1c.24-6.49.84-13,1.6-19.42a3.09,3.09,0,0,1,.82-2,2.81,2.81,0,0,1,2-.82A2.76,2.76,0,0,1,50,307.1Z"/><path class="cls-2" d="M49.9,310.05c.28-.12.57-.25.86-.35-.21,1.85-.42,3.71-.59,5.56a2.53,2.53,0,0,1-2.62-1.82,2.48,2.48,0,0,1,1.13-2.79C49.08,310.44,49.48,310.24,49.9,310.05Z"/><path class="cls-2" d="M48.17,409.92l.09,0a2.54,2.54,0,0,1-2.68-.59,2.65,2.65,0,0,1-.61-1,2.58,2.58,0,0,1,.56.2C46.42,409,47.28,409.49,48.17,409.92Z"/><path class="cls-4" d="M72.24,392.83a8.29,8.29,0,1,0,8.29-8.29,8.37,8.37,0,0,0-8.29,8.29Z"/><path class="cls-4" d="M106.77,393.75a5.91,5.91,0,1,0,5.91-5.91,6,6,0,0,0-5.91,5.91Z"/><path class="cls-4" d="M140.49,392.24a6,6,0,1,0,6-6,6,6,0,0,0-6,6Z"/><path class="cls-4" d="M179.19,386.38a6.27,6.27,0,0,0-2.87,3.72l-.22,1.66a6.23,6.23,0,0,0,.44,2.3l0,.17a6.29,6.29,0,0,0,12.12-3.34,8.29,8.29,0,0,0-1-2.27,6.65,6.65,0,0,0-3.72-2.87,6.21,6.21,0,0,0-1.64-.22,6.27,6.27,0,0,0-3.16.85ZM177,395l0,.06,0-.06Z"/><g id="_Group_" data-name="&lt;Group&gt;"><g id="_Group_2" data-name="&lt;Group&gt;"><path class="cls-5" d="M769.8,309.4a186.54,186.54,0,0,1,1.13,35.12c-.2,1.83-.31,3.66-.48,5.48s-.4,3.79-.64,5.68c0,.2-.06.42-.09.62a241.13,241.13,0,0,1-5,24.6,186.1,186.1,0,0,1-8.5,25.21q-2.42,5.62-5.13,11.09c-.86,1.75-1.72,3.49-2.6,5.23-.48.94-1,1.87-1.5,2.8-.26.47-.53,1-.81,1.44a16.2,16.2,0,0,0-.75,1.54A187.74,187.74,0,0,1,732,448.33a173.1,173.1,0,0,1-13.62,15.46,160.75,160.75,0,0,1-15.25,13.32A182.66,182.66,0,0,1,664.7,499.7c-1.76.68-3.51,1.44-5.28,2.13-2.16.84-4.35,1.63-6.55,2.38-4,1.36-8,2.57-12,3.69a182.87,182.87,0,0,1-23.53,4.87q-7.89,1-15.83,1.45c-3,.16-6,.24-8.94.27-1.53,0-3.06,0-4.59,0l-2.29-.06c-.4,0-.8,0-1.19,0A165.11,165.11,0,0,1,566,513a180.4,180.4,0,0,1-44.6-12.23,188,188,0,0,1-40.43-23.7,186,186,0,0,1-32-32.13q-2-2.66-4-5.4l3,0c3.35.06,6.71.18,10.07.27,3.66.1,7.32,0,11-.09,14.23-.16,28.47-.16,42.69-.1,2.42,0,4.85,0,7.27.06,5.25.81,10.5,1.64,15.78,2.18,7.2.73,14.4,1.37,21.61,1.85,6.63.45,13.25.66,19.88.94s13.46.72,20.19,1A179.2,179.2,0,0,0,617,445c6.7-.5,13.36-1.46,20-2.57,1.26,0,2.51,0,3.78,0,6.79-.11,13.61-.43,20.37-1.11A178.22,178.22,0,0,0,683.45,438c3.16-.73,6.3-1.54,9.47-2.29,1.65-.39,3.28-.84,4.89-1.36a51.17,51.17,0,0,0,6.49-2.7,33.14,33.14,0,0,0,5-2.82A19.13,19.13,0,0,0,715,423a20,20,0,0,0,2-4.79c.47-1.48.8-3,1.21-4.5s.91-2.88,1.41-4.3a87.28,87.28,0,0,0,2.82-9.38c.73-3.19,1.14-6.42,1.65-9.65.08-.19.15-.38.22-.58A46.58,46.58,0,0,0,727,370.56c-.17-2.93-.49-5.85-.7-8.77-.22-3.1-.58-6.17-1-9.25s-.67-5.89-1.07-8.82c-.2-1.6-.44-3.19-.68-4.78.07-2.68.13-5.35.09-8-.07-3.32-.27-6.65-.1-10s.53-6.62.83-9.93.48-6.73.58-10.11.28-6.64.26-10c0-3.48-.11-7-.44-10.42-.2-2.11-.43-4.21-.79-6.29-.65-3.71-1.76-7.53-5.08-9.71a7.89,7.89,0,0,0-4.34-1.26v-.53a4.83,4.83,0,0,0-.73-2.57,1.61,1.61,0,0,0-.4,0l-4.07.18-4.07.16-2.32.08c-3,.11-6,0-9,0-5.35,0-10.69-.13-16-.22-10.68-.17-21.36-.28-32-.68-5.27-.19-10.52-.57-15.79-.86-5.47-.29-11-.44-16.45-.59-10.86-.33-21.7-.81-32.57-1q-8.53-.13-17-.38c-5.29-.16-10.6-.44-15.89-.67-10.7-.46-21.42-.59-32.12-.67-5.48-.06-11-.29-16.44-.5q-7.84-.32-15.68-.49-16.44-.37-32.89-.4h-1c-6.52,0-13,.12-19.55.27q3-6.06,6.35-11.91c2-3.36,3.91-6.72,6.08-10q3.5-5.23,7.35-10.22t8.15-9.88c2.79-3.17,5.64-6.34,8.65-9.3s6.1-5.82,9.26-8.6c1.67-1.47,3.38-2.89,5.09-4.3,1.46-1.2,2.89-2.42,4.39-3.58,4.41-3.38,9-6.54,13.57-9.58l.11-.07a4.77,4.77,0,0,0,3.8-.34q7.12-3.77,14.51-6.94c3.84-1.59,7.72-3,11.64-4.42s8.21-2.58,12.35-3.8A179.5,179.5,0,0,1,567.38,156a174,174,0,0,1,40.28-.59l4.4.57q2.94.4,5.88.89c2,.31,3.87.77,5.82,1.13,4.41.81,8.78,1.79,13.13,2.91a186.82,186.82,0,0,1,25,8.36,190.81,190.81,0,0,1,40.38,23.53,214.74,214.74,0,0,1,16.81,14.65,166.19,166.19,0,0,1,15.21,16.69,194.93,194.93,0,0,1,13.11,19.42,171.56,171.56,0,0,1,9.9,19.8,187.4,187.4,0,0,1,7.8,22.78A191.13,191.13,0,0,1,769.8,309.4Z"/><path class="cls-6" d="M488.12,424.19c11.35,0,22.71.07,34.06.59,10.77.49,21.5,1.56,32.26,2.28,5.42.36,10.83.61,16.26,1s10.79.76,16.2,1.1c11.62.71,23.24,1,34.87,1.07,5.2,0,10.44,0,15.64-.25,5.46-.21,10.91-.46,16.35-1s11-1,16.43-1.81c2.55-.38,5.11-.72,7.64-1.25,3-.65,6-1.39,8.93-2.19,2.24-.62,4.46-1.32,6.68-2l3.89-1.22a32.12,32.12,0,0,0,4.18-1.53,10.21,10.21,0,0,0,4.46-3.45,13.5,13.5,0,0,0,1.7-4.35,62.45,62.45,0,0,0,1.59-7.69c.25-2.16.48-4.35.66-6.53.22-2.59.2-5.22.25-7.81.1-4.83.22-9.67.44-14.5q.27-6.07.73-12.15c.1-1.35.2-2.69.31-4,.45-5.52,1-11,1.31-16.54.28-4.95.61-9.88,1.07-14.82.25-2.66.53-5.33.81-8a79.26,79.26,0,0,0,.58-8.14c0-3.69-.26-7.35-.48-11-.26-4.09-.33-8.17-.35-12.26,0-6.82,0-13.64,0-20.47l0-3.95a7.89,7.89,0,0,1,4.34,1.26c3.32,2.19,4.43,6,5.08,9.71.36,2.09.58,4.18.79,6.29.33,3.47.42,6.94.44,10.42,0,3.32-.15,6.64-.26,10s-.28,6.74-.58,10.11-.66,6.61-.83,9.93,0,6.65.1,10c0,2.68,0,5.35-.09,8,.25,1.59.48,3.17.68,4.78.39,2.93.7,5.88,1.07,8.82s.73,6.16,1,9.25c.2,2.92.53,5.84.7,8.77a46.58,46.58,0,0,1-2.77,19.27c-.08.2-.15.39-.22.58-.5,3.23-.92,6.46-1.65,9.65a87.28,87.28,0,0,1-2.82,9.38c-.5,1.41-1,2.84-1.41,4.3s-.74,3-1.21,4.5a20,20,0,0,1-2,4.79,19.13,19.13,0,0,1-5.64,5.82,33.14,33.14,0,0,1-5,2.82,51.17,51.17,0,0,1-6.49,2.7c-1.62.52-3.24,1-4.89,1.36-3.16.75-6.3,1.56-9.47,2.29a178.22,178.22,0,0,1-22.32,3.32c-6.76.68-13.58,1-20.37,1.11-1.27,0-2.52,0-3.78,0-6.63,1.11-13.29,2.06-20,2.57a179.2,179.2,0,0,1-20.53.64c-6.73-.27-13.46-.71-20.19-1s-13.25-.49-19.88-.94c-7.21-.48-14.41-1.12-21.61-1.85-5.28-.54-10.53-1.37-15.78-2.18-2.42,0-4.85-.06-7.27-.06-14.22-.06-28.46-.06-42.69.1-3.65,0-7.31.19-11,.09-3.36-.09-6.72-.21-10.07-.27l-3,0q-4.61-6.48-8.64-13.31l1.45-.13c5-.5,10-1,15.09-1.31l2.16-.12c9.28-.48,18.59-.47,27.88-.46Z"/><path class="cls-2" d="M713.94,260.17l-4.48.17,4.07-.18A1.61,1.61,0,0,1,713.94,260.17Z"/><path class="cls-2" d="M709.37,347.5c-.79-5-1.83-9.87-2.65-14.82s-1.85-9.63-2.29-14.49c.26-2.41.5-4.82.54-7.23,0-4-.24-8-.38-12a59.44,59.44,0,0,0,.17-9.89c-.07-.38-.15-.77-.22-1.16,0-2.52.07-5,.09-7.56q.07-5.06.11-10.15c.66-.86,1.38-1.67,2.1-2.46l.68,0c2-.07,4-.16,6-.27a4,4,0,0,0,1.1-.21c0,6.83-.07,13.65,0,20.47,0,4.09.09,8.17.35,12.26.22,3.67.47,7.32.48,11a79.26,79.26,0,0,1-.58,8.14c-.28,2.66-.56,5.33-.81,8-.46,4.94-.79,9.87-1.07,14.82-.3,5.53-.86,11-1.31,16.54-.11,1.35-.21,2.69-.31,4l-.75-.06c.07-1,.12-1.9.16-2.86v-.17C710.37,355.43,709.89,351.46,709.37,347.5Z"/><path class="cls-2" d="M710.62,264.37a7.61,7.61,0,0,1,4-1.1h0l0,3.95a4,4,0,0,1-1.1.21c-2,.11-4,.2-6,.27l-.68,0,.81-.86A15.85,15.85,0,0,1,710.62,264.37Z"/><path class="cls-2" d="M713.94,260.17a4.83,4.83,0,0,1,.73,2.57v.53h0a7.61,7.61,0,0,0-4,1.1,15.85,15.85,0,0,0-3,2.49l-.81.86c-.68,0-1.38.08-2.08.1,0-1.69,0-3.39.06-5.08a4.93,4.93,0,0,1,.57-2.24l4.07-.16Z"/><path class="cls-2" d="M706.84,267.72c-.72.79-1.44,1.59-2.1,2.46,0-.79,0-1.57,0-2.36C705.46,267.8,706.15,267.75,706.84,267.72Z"/><path class="cls-2" d="M703.07,260.58l2.32-.08a4.93,4.93,0,0,0-.57,2.24c0,1.69,0,3.39-.06,5.08-.77,0-1.54.07-2.3.07-3.16,0-6.34,0-9.52,0-5.9,0-11.81-.1-17.73-.13-11.58-.06-23.16.07-34.74-.28-10.94-.34-21.88-.47-32.83-.71s-21.87-.45-32.82-.65c-10.73-.19-21.43-.83-32.16-1.29s-21.7-.47-32.55-.77c-5.46-.17-10.92-.48-16.39-.65q-7.86-.25-15.71-.4-16.59-.32-33.19-.39c-6,0-12.08.07-18.13.18,1.22-2.84,2.51-5.64,3.89-8.41,6.52-.15,13-.27,19.55-.27h1q16.45,0,32.89.4,7.84.19,15.68.49c5.47.21,11,.45,16.44.5,10.7.08,21.42.21,32.12.67,5.29.24,10.6.52,15.89.67q8.51.25,17,.38c10.87.17,21.71.65,32.57,1,5.5.16,11,.3,16.45.59,5.27.29,10.52.67,15.79.86,10.67.4,21.34.52,32,.68,5.35.09,10.69.2,16,.22C697.07,260.58,700.07,260.69,703.07,260.58Z"/><path class="cls-2" d="M704.76,289a59.44,59.44,0,0,1-.17,9.89c0-1.17-.08-2.33-.09-3.5,0-2.51,0-5,0-7.55C704.61,288.27,704.69,288.66,704.76,289Z"/><path class="cls-3" d="M702.46,267.89c.76,0,1.53,0,2.3-.07,0,.79,0,1.57,0,2.36q-.05,5.08-.11,10.15c0,2.52-.07,5-.09,7.56s-.06,5,0,7.55c0,1.17,0,2.33.09,3.5.15,4,.43,8,.38,12,0,2.41-.28,4.82-.54,7.23,0,.13,0,.26,0,.39q-.42,4.24-.65,8.5c-.27,4.94-.28,9.88-.31,14.82,0,5.53-.38,11-.64,16.54s-.44,10.78-.45,16.19c0,4.83.2,9.67.37,14.5.09,2.41.16,4.83.08,7.27,0,.22,0,.45,0,.67-.08,2-.28,4.11-.47,6.15-.2,1.3-.47,2.58-.74,3.87-.33,1.54-.5,3.08-1,4.57l-.18.29-.28.27a0,0,0,0,0,0,0c-.2.12-.39.25-.59.35s-.5.28-.76.4c-2.32.87-4.71,1.56-7.08,2.3s-5,1.53-7.5,2.19c-2.69.72-5.42,1.32-8.14,1.86-2.32.46-4.69.75-7,1.07h-.08c-5.17.59-10.33,1.17-15.52,1.51-5.77.37-11.52.66-17.3.87-11.1.39-22.24.08-33.35-.21-9.71-.25-19.39-1.05-29.08-1.74q-1.63-.24-3.26-.4a121.52,121.52,0,0,0-12.61-.65h0l-4.15-.29c-5.47-.42-10.94-.92-16.4-1.42-11.1-1-22.22-1.86-33.37-2.16q-17.14-.45-34.32-.58c-5.42,0-10.83.1-16.24.33s-10.9.79-16.34,1.3l-4.3.38-1.13.1q-3.08-5.89-5.7-12c-1.37-3.26-2.62-6.56-3.8-9.88s-2.12-6.57-3.08-9.9c-1-3.5-1.85-7.06-2.66-10.6-.85-3.76-1.67-7.57-2.19-11.38.06.39.11.79.16,1.19-.16-1.2-.33-2.39-.49-3.58l0-.27c0-.11,0-.24,0-.35A213.88,213.88,0,0,1,412,335.79a182.65,182.65,0,0,1,14.3-72.19c.12-.28.24-.55.37-.83,6-.11,12.08-.2,18.13-.18q16.59.08,33.19.39,7.86.15,15.71.4c5.46.17,10.92.48,16.39.65,10.85.3,21.7.3,32.55.77s21.42,1.1,32.16,1.29q16.42.3,32.82.65c10.95.24,21.89.37,32.83.71,11.58.35,23.16.22,34.74.28,5.92,0,11.83.09,17.73.13C696.12,267.91,699.3,267.89,702.46,267.89Z"/><path class="cls-2" d="M709.37,347.5c.52,4,1,7.93,1.39,11.9v.17c0,1-.09,1.91-.16,2.86a.31.31,0,0,0,0,.1c-.73,4-2,8-2.91,12-.49,2.12-.91,4.27-1.37,6.4-.5,2.42-1.17,4.8-1.68,7.22-.61,3-1.21,6-1.88,8.92,0-.22,0-.45,0-.67.08-2.43,0-4.86-.08-7.27-.17-4.83-.39-9.67-.37-14.5,0-5.41.2-10.79.45-16.19s.61-11,.64-16.54c0-4.94,0-9.88.31-14.82q.24-4.26.65-8.5c0-.13,0-.26,0-.39.44,4.86,1.49,9.69,2.29,14.49S708.59,342.54,709.37,347.5Z"/><path class="cls-2" d="M700.09,412.23l-.62.47a.48.48,0,0,0,0-.12C699.7,412.48,699.89,412.35,700.09,412.23Z"/><path class="cls-2" d="M691.66,415.28c2.37-.74,4.76-1.42,7.08-2.3.26-.12.52-.26.76-.4a.48.48,0,0,1,0,.12q-.12.67-.27,1.35a52,52,0,0,1-5.31,2.66,85.3,85.3,0,0,1-8.31,2.49c-2.1.56-4.17,1.22-6.27,1.79l-6.14.28c-6.33.28-12.62,1.35-18.89,2.23-6.88.84-13.75,1.4-20.66,1.85-3.43.22-6.85.65-10.27,1l-1.46.13-4.46-.39c-3.36-.27-6.72-.63-10.07-1s-7-.56-10.44-.79c-1.85-.11-3.68-.29-5.51-.49-5.94-.93-11.82-2.16-17.78-3,9.69.68,19.37,1.49,29.08,1.74,11.1.29,22.24.61,33.35.21,5.78-.21,11.53-.5,17.3-.87,5.19-.35,10.35-.92,15.52-1.51H669c2.36-.31,4.72-.61,7-1.07,2.73-.54,5.45-1.14,8.14-1.86C686.67,416.81,689.17,416,691.66,415.28Z"/><path class="cls-6" d="M573.64,420.85l-3.4-.24c-4.16-.28-8.32-.53-12.47-.82a121.52,121.52,0,0,1,12.61.65Q572,420.61,573.64,420.85Z"/><path class="cls-2" d="M482.95,424.2c-9.3,0-18.61,0-27.88.46l-2.16.12v-.1c3.87-.22,7.74-.61,11.6-1,3.66-.38,7.31-.59,11-.87,3.47-.25,6.92-.66,10.39-.89,6.86-.45,13.72-.53,20.59-.57,7.1,0,14.19-.09,21.28-.48s14.32-.86,21.51-1c2.85-.06,5.69-.1,8.54-.07h0c4.15.29,8.31.54,12.47.82l3.4.24c6,.81,11.83,2,17.78,3,1.83.2,3.66.38,5.51.49,3.48.22,7,.44,10.44.79s6.71.7,10.07,1l4.46.39,1.46-.13c3.42-.31,6.84-.74,10.27-1,6.91-.45,13.78-1,20.66-1.85,6.27-.89,12.56-2,18.89-2.23l6.14-.28c2.1-.57,4.17-1.23,6.27-1.79a85.3,85.3,0,0,0,8.31-2.49,52,52,0,0,0,5.31-2.66q.15-.67.27-1.35l.62-.47a0,0,0,0,1,0,0l.28-.27.18-.29c.47-1.48.65-3,1-4.57.27-1.29.54-2.57.74-3.87.19-2,.39-4.11.47-6.15.67-3,1.28-5.94,1.88-8.92.52-2.42,1.18-4.8,1.68-7.22.46-2.13.87-4.28,1.37-6.4,1-4,2.18-8,2.91-12a.31.31,0,0,1,0-.1l.75.06q-.45,6.07-.73,12.15c-.21,4.83-.34,9.67-.44,14.5,0,2.59,0,5.22-.25,7.81-.18,2.18-.42,4.36-.66,6.53a62.45,62.45,0,0,1-1.59,7.69,13.5,13.5,0,0,1-1.7,4.35,10.21,10.21,0,0,1-4.46,3.45,32.12,32.12,0,0,1-4.18,1.53l-3.89,1.22c-2.22.7-4.44,1.4-6.68,2-3,.8-5.92,1.54-8.93,2.19-2.52.53-5.09.86-7.64,1.25-5.45.81-10.95,1.31-16.43,1.81s-10.89.74-16.35,1c-5.19.21-10.43.29-15.64.25-11.63-.09-23.25-.36-34.87-1.07-5.41-.34-10.8-.74-16.2-1.1s-10.85-.59-16.26-1c-10.76-.72-21.49-1.78-32.26-2.28-11.35-.53-22.71-.61-34.06-.59Z"/><path class="cls-2" d="M452.9,424.78c-5,.31-10.06.81-15.09,1.31l-1.45.13c-.3-.5-.59-1-.89-1.51,2.89.07,5.79.08,8.69.15s5.82,0,8.73-.18Z"/><path class="cls-2" d="M432.64,417.33l4.3-.38c5.44-.52,10.88-1.08,16.34-1.3s10.82-.37,16.24-.33q17.18.15,34.32.58c11.15.3,22.26,1.13,33.37,2.16,5.46.5,10.92,1,16.4,1.42l4.15.29c-2.85,0-5.69,0-8.54.07-7.19.12-14.35.58-21.51,1s-14.18.44-21.28.48c-6.88,0-13.73.12-20.59.57-3.47.22-6.92.64-10.39.89-3.65.28-7.3.49-11,.87-3.86.42-7.73.8-11.6,1-2.91.16-5.82.25-8.73.18s-5.8-.08-8.69-.15c-1.38-2.4-2.71-4.82-4-7.28Z"/><path class="cls-2" d="M428.83,425.18c.27.57.55,1.13.84,1.7h0C429.38,426.31,429.1,425.75,428.83,425.18Z"/><path class="cls-6" d="M428.48,424.43l.17.36c-.07-.12-.12-.24-.18-.36Z"/><path class="cls-6" d="M416.37,440.8a3,3,0,0,1,.12.28h-.09Z"/></g></g><g id="_Group_3" data-name="&lt;Group&gt;"><path class="cls-4" d="M828.81,660.86a7.33,7.33,0,0,1-2.6,9.92A127.3,127.3,0,0,0,814,678.36a22.47,22.47,0,0,1-2.09,1.39c-.86.48-1.73,1-2.64,1.4a32.69,32.69,0,0,1-3.58,1.45c-1,.31-2,.56-2.95.92-1.57.58-3.1,1.26-4.65,1.85-1.36.53-2.71,1-4.06,1.57-5.09,2.23-10.08,4.68-14.94,7.39-2.24,1.26-4.48,2.52-6.74,3.75-.8.43-1.59.84-2.41,1.22a7.56,7.56,0,0,1-1.72.76,6.07,6.07,0,0,0-.65.13q-2.25,1.26-4.49,2.55a3.9,3.9,0,0,1-5.27-1.38c-3.79-6.74-7.46-13.54-11.36-20.21-3.54-6.07-7.07-12.16-10.39-18.36-1.53-2.85-2.89-5.78-4.44-8.61s-3.08-5.72-4.54-8.61c-1.65-3.29-3.25-6.6-5-9.81-1.58-2.86-3.25-5.69-4.94-8.5-3.65-6.1-7.27-12.2-11.09-18.19-1.83-2.86-3.87-5.59-5.74-8.42s-3.53-5.66-5.35-8.47c-1.09-1.69-2.25-3.33-3.42-5-1-1.39-1.9-2.82-2.83-4.23q-2.69-4-5.29-8.13c-3.5-5.47-7.21-10.82-10.59-16.38-3.75-6.17-7.16-12.52-10.57-18.88q-5.67-10.63-11.63-21.1a6.66,6.66,0,0,1-.89-3.05c4.36-1.41,8.66-3,12.92-4.74,1.86-.75,3.7-1.54,5.54-2.36a6.81,6.81,0,0,1-2.43,9.23l-.06,0q5.17,8.93,10.52,17.78c4.14,6.84,8.14,13.78,11.63,21,2.84,5.82,5.68,11.64,8.57,17.44,1.58,3.15,3.16,6.31,4.54,9.56s3,6.29,4.61,9.4c1.7,3.32,3.21,6.71,4.78,10.08,1.26,2.71,2.65,5.34,4,8,3.28,6.28,6.58,12.55,10,18.75.94,1.68,1.9,3.36,2.88,5,.85,1.45,1.79,2.84,2.69,4.27,1.72,2.74,3.48,5.44,5.15,8.21,3.29,5.48,6.77,10.86,10,16.4,3,5.23,5.93,10.5,8.87,15.78,2.79,5,5.71,10,8.58,14.92l1.2-.67a10.45,10.45,0,0,1,1.23-1.09c.34-.26.7-.48,1-.71.84-.53,1.67-1.05,2.52-1.55,2.29-1.35,4.61-2.64,6.89-4a165.92,165.92,0,0,0,14.22-9.33c1.85-1.49,3.76-2.92,5.65-4.35a66.43,66.43,0,0,1,6-4.95,37.93,37.93,0,0,1,3.32-2c.82-.42,1.67-.76,2.52-1.11,1.88-.85,3.74-1.79,5.56-2.77-.3-.64-.55-1.29-.8-2a10.81,10.81,0,0,1-.58-1.51c-1.74-3.29-3.59-6.49-5.32-9.78-2.47-4.71-5-9.38-7.5-14.08-3.25-6.14-6.64-12.21-9.76-18.42q-4.91-9.78-10-19.48c-3.47-6.63-7.12-13.17-10.73-19.72s-7.19-12.92-10.91-19.3c-1.84-3.15-3.75-6.27-5.59-9.43s-3.69-6.35-5.56-9.52c-3.71-6.29-7.31-12.65-10.89-19-1.75-3.11-3.47-6.23-5.28-9.29-1.58-2.67-3.23-5.29-4.83-8-3.06-5.07-6-10.21-8.93-15.37l-3.16,1.81a45.4,45.4,0,0,1-6.68,3.14,4.49,4.49,0,0,1-5.07-2.06s0,0,0,0a202.7,202.7,0,0,0,18-14.3,4.7,4.7,0,0,1,3,2.25c2.69,4.73,5.43,9.43,8,14.21,2,3.72,4,7.47,6,11.19,3.34,6.29,7,12.39,10.49,18.61,3.65,6.49,7.22,13,10.86,19.53s7.19,13.15,10.87,19.67q5.27,9.34,10.76,18.55c3.87,6.56,7.75,13.1,11.81,19.54,3.66,5.81,7.36,11.61,10.91,17.48,3.82,6.34,7.67,12.66,11.49,19,1.17,1.94,2.3,3.89,3.49,5.83.8,1.3,1.63,2.6,2.39,3.94,1.25,2.16,2.48,4.33,3.78,6.45a12.59,12.59,0,0,1,1,1.22l.17.17a15.24,15.24,0,0,1,2.15,3.29C827.1,657.85,827.95,659.35,828.81,660.86Z"/><path class="cls-7" d="M811.88,659.73c.25.67.49,1.32.8,2-1.83,1-3.68,1.92-5.56,2.77-.85.35-1.7.7-2.52,1.11a37.93,37.93,0,0,0-3.32,2,66.43,66.43,0,0,0-6,4.95c-1.9,1.44-3.8,2.86-5.65,4.35a165.92,165.92,0,0,1-14.22,9.33c-2.28,1.36-4.6,2.65-6.89,4-.85.49-1.68,1-2.52,1.55-.35.22-.71.45-1,.71a10.45,10.45,0,0,0-1.23,1.09l-1.2.67c-2.87-5-5.79-9.9-8.58-14.92-2.94-5.28-5.84-10.55-8.87-15.78-3.2-5.54-6.68-10.91-10-16.4-1.67-2.77-3.43-5.47-5.15-8.21-.9-1.44-1.84-2.83-2.69-4.27-1-1.67-1.94-3.35-2.88-5-3.45-6.2-6.76-12.47-10-18.75-1.38-2.65-2.77-5.27-4-8-1.57-3.38-3.07-6.76-4.78-10.08-1.59-3.11-3.24-6.18-4.61-9.4s-3-6.4-4.54-9.56c-2.89-5.8-5.73-11.62-8.57-17.44-3.49-7.2-7.49-14.14-11.63-21q-5.35-8.85-10.52-17.78l.06,0a6.81,6.81,0,0,0,2.43-9.23,196.09,196.09,0,0,0,29.11-16q1.93-1.3,3.84-2.62s0,0,0,0a4.49,4.49,0,0,0,5.07,2.06,45.4,45.4,0,0,0,6.68-3.14l3.16-1.81c2.93,5.16,5.87,10.3,8.93,15.37,1.6,2.66,3.25,5.28,4.83,8,1.82,3.06,3.53,6.18,5.28,9.29,3.58,6.37,7.18,12.73,10.89,19,1.87,3.17,3.72,6.34,5.56,9.52s3.75,6.28,5.59,9.43q5.59,9.57,10.91,19.3c3.61,6.55,7.27,13.09,10.73,19.72q5.08,9.69,10,19.48c3.12,6.2,6.51,12.28,9.76,18.42,2.49,4.7,5,9.37,7.5,14.08,1.73,3.29,3.58,6.49,5.32,9.78A10.81,10.81,0,0,0,811.88,659.73Z"/><path class="cls-4" d="M769.73,356.3c0-.2.06-.42.09-.62.24-1.88.46-3.78.64-5.68s.28-3.66.48-5.48a186.54,186.54,0,0,0-1.13-35.12,191.13,191.13,0,0,0-4.7-23.26,187.4,187.4,0,0,0-7.8-22.78,171.56,171.56,0,0,0-9.9-19.8,194.93,194.93,0,0,0-13.11-19.42,166.19,166.19,0,0,0-15.21-16.69,214.74,214.74,0,0,0-16.81-14.65,190.81,190.81,0,0,0-40.38-23.53,186.82,186.82,0,0,0-25-8.36c-4.35-1.11-8.73-2.1-13.13-2.91-2-.36-3.87-.82-5.82-1.13s-3.91-.62-5.88-.89l-4.4-.57a174,174,0,0,0-40.28.59,179.5,179.5,0,0,0-25.48,5.45c-4.14,1.22-8.29,2.37-12.35,3.8s-7.81,2.83-11.64,4.42q-7.4,3.18-14.51,6.94a4.77,4.77,0,0,1-3.8.34l-.11.07c-4.62,3-9.16,6.2-13.57,9.58-1.49,1.16-2.93,2.38-4.39,3.58-1.72,1.4-3.42,2.83-5.09,4.3-3.16,2.78-6.27,5.64-9.26,8.6s-5.85,6.12-8.65,9.3-5.53,6.52-8.15,9.88-5,6.73-7.35,10.22c-2.16,3.24-4.13,6.6-6.08,10a199.21,199.21,0,0,0-10.61,21.15A182.65,182.65,0,0,0,412,335.79a213.88,213.88,0,0,0,1.64,24.84c0,.11,0,.24,0,.35l0,.27c.17,1.19.34,2.38.49,3.58,0-.4-.1-.8-.16-1.19.52,3.81,1.33,7.63,2.19,11.38.81,3.54,1.66,7.1,2.66,10.6,1,3.33,1.93,6.64,3.08,9.9s2.43,6.62,3.8,9.88a180.79,180.79,0,0,0,55.13,71.66,188,188,0,0,0,40.43,23.7A180.4,180.4,0,0,0,566,513a165.11,165.11,0,0,0,18.53,1.4c.39,0,.79,0,1.19,0l2.29.06c1.53,0,3.06,0,4.59,0,3,0,6-.11,8.94-.27q7.94-.44,15.83-1.45a182.87,182.87,0,0,0,23.53-4.87c4-1.12,8-2.33,12-3.69,2.2-.75,4.39-1.54,6.55-2.38,1.77-.7,3.52-1.45,5.28-2.13a182.66,182.66,0,0,0,38.43-22.59,160.75,160.75,0,0,0,15.25-13.32A173.1,173.1,0,0,0,732,448.33a187.74,187.74,0,0,0,13.47-20.12,16.2,16.2,0,0,1,.75-1.54c.28-.48.55-1,.81-1.44.52-.93,1-1.86,1.5-2.8.89-1.74,1.74-3.48,2.6-5.23q2.71-5.48,5.13-11.09a186.1,186.1,0,0,0,8.5-25.21A241.13,241.13,0,0,0,769.73,356.3Zm14.48-32.58A203.13,203.13,0,0,1,782.33,365a147.52,147.52,0,0,1-4.46,20.41c-1.09,3.66-2.27,7.27-3.57,10.85-1.2,3.25-2.37,6.52-3.78,9.68-2.11,5-4.36,9.87-6.9,14.65q-2,3.74-4.24,7.34a76,76,0,0,1-4.21,6.42c-2.67,4-5.48,7.85-8.4,11.65l0,0a183.13,183.13,0,0,1-17.1,19.48q-5.13,5.11-10.54,9.92a5.06,5.06,0,0,0-3.71.48l-7.5,4.26c-1,.58-2,1.16-3,1.81a36.8,36.8,0,0,0-3.11,2.33,4.47,4.47,0,0,0-1.16,2,4.56,4.56,0,0,0,.44,3.44q-1.9,1.33-3.84,2.62a196.09,196.09,0,0,1-29.11,16s0,0,0,0a6.83,6.83,0,0,0-9.25-2.42q-2.94,1.67-5.88,3.34a6.7,6.7,0,0,0-3.32,6.2q-3.1,1-6.23,1.88a183.36,183.36,0,0,1-18.53,4.14,187.49,187.49,0,0,1-20.18,2.39c-3.76.22-7.5.35-11.26.34-1.84,0-3.68,0-5.51-.09l-2.29-.09a10.52,10.52,0,0,1-1.76-.13l-2.67-.18a24,24,0,0,1-3.58-.35l-1.81-.19A199,199,0,0,1,535,514.54,191.79,191.79,0,0,1,417.9,407.09a185,185,0,0,1-12.17-39.64,194.18,194.18,0,0,1-2.82-20.19,185.67,185.67,0,0,1,5.63-62,188.69,188.69,0,0,1,14.23-37.18,161.17,161.17,0,0,1,9.68-16.53c3.89-5.79,7.94-11.44,12.37-16.82,2.22-2.7,4.53-5.35,6.92-7.91,2.2-2.34,4.4-4.76,6.81-6.88,2.59-2.3,5-4.72,7.67-7,2.4-2.1,4.9-4.08,7.44-6,1.54-1.19,3.08-2.37,4.67-3.51,1.14-.84,2.36-1.59,3.52-2.39s2.42-1.64,3.65-2.42c1.4-.9,2.78-1.85,4.22-2.68,2.29-1.36,4.58-2.71,6.93-3.95a4.66,4.66,0,0,1,2.16-3.16,184.85,184.85,0,0,1,31-15c2.51-.93,5-1.85,7.58-2.69,2.73-.9,5.53-1.64,8.31-2.34,5-1.28,10.06-2.37,15.16-3.21s10.44-1.58,15.7-2.08c2.84-.26,5.7-.47,8.56-.62,1.35-.07,2.69-.12,4-.16.45,0,.91,0,1.36,0,.7,0,1.38,0,2.05,0s1.22-.06,1.83-.06h1.83c1.35,0,2.69,0,4,.06,2.76.09,5.51.27,8.27.34a139.87,139.87,0,0,1,14.17,1.4l1.4.15c2.13.22,4.27.65,6.37,1.07,1.65.33,3.31.66,4.95,1,3.4.77,6.77,1.62,10.13,2.58a179.21,179.21,0,0,1,19.25,6.71,198.06,198.06,0,0,1,20.13,9.59,179.08,179.08,0,0,1,18,11.36,197.64,197.64,0,0,1,16.58,13.21,177.1,177.1,0,0,1,14.78,15c4.83,5.53,9.43,11.29,13.74,17.25a184.42,184.42,0,0,1,11.5,18,194.71,194.71,0,0,1,9.31,18.7,201.47,201.47,0,0,1,7.77,21.25A187.83,187.83,0,0,1,784.21,323.71Z"/><path class="cls-4" d="M717.85,475.26a5.12,5.12,0,0,1,1.25.16,202.7,202.7,0,0,1-18,14.3,4.56,4.56,0,0,1-.44-3.44,4.47,4.47,0,0,1,1.16-2,36.8,36.8,0,0,1,3.11-2.33c1-.65,2-1.22,3-1.81l7.5-4.26A5.09,5.09,0,0,1,717.85,475.26Z"/><path class="cls-4" d="M668.13,508.29s0,0,0,0c-1.84.82-3.68,1.6-5.54,2.36-4.26,1.72-8.56,3.33-12.92,4.74a6.7,6.7,0,0,1,3.32-6.2q2.93-1.68,5.88-3.34A6.83,6.83,0,0,1,668.13,508.29Z"/></g><path class="cls-6" d="M714.61,517.21a3.87,3.87,0,0,0-1.76,2.29,3.68,3.68,0,0,0,.39,3c3.42,4.52,6.91,9,10.57,13.31,3.22,3.81,6.48,7.58,9.61,11.46,2.73,3.64,5.47,7.3,7.9,11.14,2.65,4.18,4.93,8.56,7.3,12.91s4.64,8.46,6.9,12.73,4.39,8.34,6.7,12.45a183.46,183.46,0,0,0,14,21.14l.72.93a4.58,4.58,0,0,0,2,1.19,4.61,4.61,0,0,0,5.21-6.77c-2.78-4.36-5.35-8.83-7.87-13.33-2.44-4.34-4.88-8.68-7.24-13.07-2.21-4.1-4.52-8.12-6.92-12.1s-4.87-7.89-7.26-11.86c-1.18-2-2.37-3.9-3.61-5.82s-2.61-3.75-4-5.57c-2.84-3.72-5.81-7.36-8.9-10.87s-6.08-6.67-9.06-10.07-5.7-6.83-8.44-10.34l-1-1.33a4.15,4.15,0,0,0-2.29-1.76,3.77,3.77,0,0,0-1-.14,3.83,3.83,0,0,0-1.94.52Z"/><path class="cls-6" d="M788.41,637.34a3.27,3.27,0,0,0-1.95,1.49,3.44,3.44,0,0,0-.33,2.51c.67,3.41,1.33,6.83,1.92,10.26a3.12,3.12,0,0,0,1.49,1.93,3.23,3.23,0,0,0,4.42-1.16,3.48,3.48,0,0,0,.33-2.49c-.58-3.43-1.22-6.86-1.89-10.27a3.2,3.2,0,0,0-3.19-2.38,3,3,0,0,0-.81.11Z"/><path class="cls-8" d="M588.12,177.73c-2.24.43-3.49,3.08-2.92,5.15a4.19,4.19,0,0,0,1.92,2.5,4.42,4.42,0,0,0,3.22.42c1.47-.27,3-.5,4.44-.73a37.9,37.9,0,0,1,7.47-.08c3.93.65,7.77,1.78,11.61,2.81,3.55.95,7,2,10.52,3.2s6.9,2.69,10.32,4.07,6.7,2.66,10,4c4.64,2.07,9.22,4.25,13.72,6.61,2.48,1.3,5,2.56,7.39,4l3.57,2.17c1.12.68,2.18,1.5,3.25,2.25,3.87,3.07,7.62,6.29,11.44,9.43,2.14,1.77,4.36,3.45,6.55,5.17a64.39,64.39,0,0,1,9.92,10c2.46,3.31,4.88,6.64,7.2,10.06l4.07,6a96.17,96.17,0,0,1,4.91,8.43q2.13,4,4,8.12c1.77,4.38,3.52,8.77,5.19,13.2,1.77,4.71,3.57,9.39,5.37,14.09a5.41,5.41,0,0,0,2.32,3,5.06,5.06,0,0,0,3.89.51,5.11,5.11,0,0,0,3.52-6.2c-1.49-6.17-3.35-12.26-5.15-18.34-.85-2.85-1.8-5.66-2.73-8.48a106.23,106.23,0,0,0-7.8-17.71c-1.79-3.28-3.8-6.49-5.91-9.58-1.67-2.45-3.3-4.93-5.08-7.3-3.34-4.47-6.69-9.07-11-12.68-2.62-2.19-5.28-4.29-8-6.34l-2.7-2c-1.9-1.5-3.79-3-5.69-4.51-1.45-1.14-2.87-2.33-4.36-3.41-1.17-.85-2.3-1.77-3.52-2.55a86.58,86.58,0,0,0-7.58-4.48c-2.67-1.35-5.34-2.69-8.07-3.91-5.9-2.63-11.86-5-18-7.11-2.94-1-5.9-1.93-8.84-2.94-2.62-.9-5.21-1.85-7.86-2.65-5.19-1.57-10.48-2.72-15.78-3.84-3-.65-6.1-1.23-9.2-1.62a28.83,28.83,0,0,0-3.63-.22,64.71,64.71,0,0,0-12.05,1.49Z"/><path class="cls-8" d="M734.82,330.45A6.16,6.16,0,1,0,741,324.3a6.21,6.21,0,0,0-6.16,6.16Z"/></g></svg>