<svg id="Layer_13" data-name="Layer 13" xmlns="http://www.w3.org/2000/svg" viewBox="0 0 871.69 845.84"><defs><style>.cls-1{fill:#7f7f7f;}</style></defs><title>intelligent_tagging</title><path class="cls-1" d="M281.59,183.74q-46.16,0-92.32.09H182.5l-5.18,5.81,14.74,0q47.7.06,95.39.09,39.42,0,78.83.08h25.19q17,0,34-.05l23.29-.11,11.12-.06,5.48,0c1.16,0,2.31-.05,3.46-.11.06,14.65.14,29.3.13,43.95q0,23.6,0,47.2,0,47.31-.11,94.63-.09,47.54-.22,95.08c-.08,31.41-.23,62.84-.22,94.25q0,26.27.06,52.55,0,12.67.06,25.33c0,7.64.08,15.29.07,22.93,0,.05,0,.11,0,.17v10.85c-61.15,0-122.3.44-183.45.81q-40.15.23-80.31.41H192.93l-45.95,0c-15.12,0-30.24,0-45.36-.11.1-14.93.09-29.86.11-44.79q0-23.55.08-47.1.05-47.09,0-94.18,0-94.89.09-189.8,0-9.77,0-19.55l-.37.41q-2,2.27-4.09,4.52.07,45.15.08,90.29c0,31.41,0,62.81,0,94.21s0,62.82,0,94.24q0,28.42.07,56.83,0,14.13.06,28.25c0,9.47,0,18.95.09,28.43a1.89,1.89,0,0,0,.55,1.33,2,2,0,0,0,1.84.48l.25-.05c15.81-.11,31.63-.1,47.45-.12l46.88,0h10q41.94.16,83.88.43c60.89.36,121.79.75,182.68.79a2.86,2.86,0,0,0,2.83-2.83V666.31c0-.25,0-.5,0-.75,0-.05,0-.11,0-.16,0-14.53.09-29.06.12-43.59q0-23.78.07-47.56c0-31.56-.1-63.11-.2-94.67q-.29-94.85-.36-189.7,0-25.94,0-51.88c0-17.08.07-34.16.14-51.25a2.63,2.63,0,0,0-2.59-2.59l-5.13-.23c-.59,0-1.18,0-1.77,0h-1l-2.74,0-12-.06-24.27-.12q-16.76-.07-33.5,0H365.51q-42,0-83.93.09Z"/><path class="cls-1" d="M184.48,183.93a27.42,27.42,0,0,0-3.06,2,28.2,28.2,0,0,0-2.64,2.42q-2.2,2.19-4.33,4.45c-2.86,3-5.54,6.25-8.25,9.42-1.36,1.59-2.71,3.2-4.13,4.75s-2.94,3.12-4.43,4.67c-3,3.08-5.75,6.33-8.58,9.53-1.42,1.61-2.84,3.21-4.32,4.75s-3,3.08-4.52,4.62c-3.08,3.14-6.07,6.37-9.14,9.52-1.43,1.47-2.9,2.91-4.28,4.43s-2.92,3.28-4.32,5c-2.68,3.25-5.5,6.39-8.25,9.58-1.51,1.75-3,3.52-4.4,5.36a44.34,44.34,0,0,0-3.44,5c-.52.93-1,1.88-1.46,2.83s-.92,1.75-1.39,2.63c-1,2-2.05,3.92-2.9,6-.39.94-.73,1.88-1,2.85s-.54,2-.77,2.94c-.5,2.12-.87,4.27-1.3,6.41a1.51,1.51,0,0,0,1,1.83,1.49,1.49,0,0,0,1.83-1q.63-3.08,1.32-6.14a32.11,32.11,0,0,1,1.61-5c1.19-2.6,2.57-5.11,4-7.59.71-1.25,1.45-2.48,2.23-3.69s1.54-2.23,2.35-3.31c2.61-3.28,5.47-6.34,8.26-9.46,1.38-1.54,2.76-3.09,4.11-4.66s2.91-3.37,4.41-5,2.86-2.92,4.33-4.33,3.21-3.1,4.79-4.68,3-3,4.46-4.5,3.12-3.07,4.65-4.62c3-3.05,5.77-6.32,8.6-9.53q2.12-2.41,4.3-4.77c1.46-1.58,3-3.11,4.44-4.68,2.88-3.1,5.54-6.4,8.26-9.64,1.36-1.61,2.72-3.22,4.13-4.79s2.79-3,4.23-4.48c.92-.94,1.86-1.86,2.77-2.81.43-.45.85-.92,1.29-1.36.63-.63,1.29-1.22,2-1.8a2,2,0,0,0-1.42-3.38,2,2,0,0,0-1,.27Z"/><path class="cls-1" d="M325.32,237.44a109.86,109.86,0,0,1-12.26.61,58.41,58.41,0,0,1-6.56-.32c-2.12-.23-4.23-.54-6.37-.64a100.3,100.3,0,0,0-13.23.21c-4.5.39-8.84,1.78-13.27,2.6a78.64,78.64,0,0,1-16,.81c-5-.41-10.08-.76-15.09-1.39-3.59-.58-7.2-1.62-10.85-1.68a42.53,42.53,0,0,0-5.18.27,37,37,0,0,1-6.53.33,13.6,13.6,0,0,1-1.55-.43,8.57,8.57,0,0,0-1.48-.64,4.89,4.89,0,0,0-3.87.42,5.31,5.31,0,0,0-2.51,3.73,31.15,31.15,0,0,1-1,3.69,4.59,4.59,0,0,0,6.74,5.18,4.72,4.72,0,0,0,2.06-2.6,19.35,19.35,0,0,0,4,.16c1.51-.09,3-.27,4.51-.45A40.28,40.28,0,0,1,231,247a30,30,0,0,1,3.68.17c1.84.29,3.68.64,5.53.9,2.34.33,4.68.54,7,.7,1.77.12,3.54.18,5.3.32,2.09.17,4.16.45,6.24.64a84.09,84.09,0,0,0,12.63-.12,60.39,60.39,0,0,0,7.11-.79c2-.35,4-.73,6-1.06a73.51,73.51,0,0,1,8.7-.29,89.4,89.4,0,0,1,9.48.5,68.12,68.12,0,0,0,7.85.9c2.55.09,5.09,0,7.64-.07a71.36,71.36,0,0,0,7.95-.76c2.15-.33,4.3-.72,6.45-1a56.94,56.94,0,0,1,6.43-.39h3.19c1.37,0,2.73,0,4.1,0a71,71,0,0,0,7.46-.45c2.46-.28,4.92-.65,7.38-1a40.3,40.3,0,0,1,8.88-.26c1.2.19,2.41.4,3.62.54a29.17,29.17,0,0,0,5.29,0c2.4-.17,4.79-.56,7.18-.9a26.47,26.47,0,0,1,5.33-.17c2.13.37,4.18,1,6.27,1.54a29.94,29.94,0,0,0,3.14.73c.77.11,1.54.21,2.31.29a8.69,8.69,0,0,0,4.41-1.05,3.77,3.77,0,0,0,1.81-2.35,3.93,3.93,0,0,0-2.75-4.83,4.13,4.13,0,0,0-2.89.33l-.45.13a18.31,18.31,0,0,1-2.17,0c-1.41-.24-2.8-.59-4.19-.94a37.73,37.73,0,0,0-5.59-1c-3.2-.31-6.44.35-9.6.8a35.69,35.69,0,0,1-7.54.28c-2-.34-4-.74-6-1a55.57,55.57,0,0,0-6.34-.43c-2,0-3.94.1-5.9.21a57.74,57.74,0,0,1-6.37.18c-4-.21-8-.79-12.06-.93l-1.14,0a76,76,0,0,0-11,1.12Z"/><path class="cls-1" d="M343.49,292.61c-1.47,0-2.93.11-4.4.26-4.47.47-8.9,1.32-13.32,2.08-2,.34-3.93.71-5.89,1.1l-3.38.66c-1,.19-1.94.34-2.91.49-1.36.12-2.7.23-4.07.26s-2.81,0-4.21,0c-2.84,0-5.68,0-8.52-.11s-5.5-.23-8.25-.41c-1.26-.09-2.51-.22-3.76-.32q-2.21-.19-4.41-.3c-2.7-.14-5.4-.25-8.09-.36-1.45-.06-2.91-.14-4.37-.12-.7,0-1.41,0-2.11,0l-2.35.14c-1.41.08-2.82.25-4.23.4l-4.53.49c-2.79.3-5.59.45-8.39.63s-5.49.45-8.23.72-5.59.41-8.4.44a130,130,0,0,1-16.78-.44c-5.67-.68-11.33-1.48-17-2.1-2.74-.3-5.5-.58-8.25-.79-.65-.05-1.3-.12-2-.14s-1.52,0-2.29,0c-1.33,0-2.65,0-4-.07-2.77-.13-5.53-.41-8.29-.59a39.42,39.42,0,0,0-4,0c-1.42.05-2.84.14-4.25.3-5.68.69-11.31,1.68-17,2.63l-2.07.35a1.09,1.09,0,0,0-.76,1.33,1.11,1.11,0,0,0,1.34.76c4.26-.72,8.53-1.43,12.81-2,2.62-.3,5.24-.57,7.88-.65a54,54,0,0,1,7.94.45h0c2.14.29,4.27.59,6.41.84s4.09.43,6.13.67c5.55.84,11.09,1.75,16.65,2.58,2.81.41,5.61.87,8.42,1.24q2.36.31,4.73.57c1.32.14,2.65.18,4,.22,2.86.08,5.71,0,8.57-.07,2.68-.07,5.36-.12,8-.37,2.95-.28,5.89-.62,8.84-.86s5.74-.38,8.6-.65c2.68-.25,5.34-.61,8-.89,1.48-.15,3-.29,4.45-.4s3-.1,4.44-.11c2.77,0,5.54.07,8.31.09s5.45,0,8.18.15c5.57.21,11.14.25,16.71.21l4.27,0h1.83c.68,0,1.38,0,2.05,0,.86-.07,1.71-.1,2.57-.22l2.36-.33c1.36-.19,2.71-.48,4.06-.72q8.26-1.5,16.59-2.62l-.51.07c1.36-.16,2.73-.33,4.09-.41s2.73-.11,4.1-.07c3,.09,5.9.32,8.85.55s5.64.46,8.46.64,5.61.25,8.41.3c1.67,0,3.35,0,5,0h3.47c2.71,0,5.41.1,8.12.16,5.69.11,11.38.27,17.07.36l3.11.07a2.07,2.07,0,0,0,1.46-3.53,2.18,2.18,0,0,0-1.46-.61c-1.61-.14-3.23-.27-4.85-.33-1.45-.06-2.89-.08-4.33-.1-2.8-.05-5.59-.07-8.39-.1s-5.44-.06-8.16-.08c-2.89,0-5.78,0-8.67.08-5.6.09-11.2-.21-16.78-.64-2.89-.22-5.79-.46-8.69-.6-1.16-.06-2.33-.1-3.5-.1Zm-170.85,5,.22,0-.22,0Z"/><path class="cls-1" d="M340.71,323.45c-4.06.13-8.12.45-12.17.85s-8,.94-12,1.49c-2.69.32-5.38.6-8.09.68s-5.52.16-8.29.29-5.73.31-8.59.35c-1.18,0-2.36,0-3.53,0-1.54,0-3.07,0-4.61,0-2.25.05-4.49.08-6.74.09s-4.21-.19-6.31-.38c-1.21-.17-2.43-.33-3.64-.54l-4.37-.75c-1.54-.26-3.1-.44-4.65-.62a37.56,37.56,0,0,0-3.92-.27,29.37,29.37,0,0,0-4,.13c-1.55.18-3.09.4-4.63.63s-2.85.5-4.27.77l-4.21.79c-.94.17-1.9.29-2.85.42-1.31.12-2.64.29-4,.32-1.53,0-3.05.08-4.58.07-2.73,0-5.46-.07-8.2-.17q-4.46-.18-8.91-.46c-2.71-.17-5.41-.37-8.13-.39s-5.59.07-8.39.13-5.82.16-8.72,0-5.64-.29-8.46-.55-5.47-.46-8.21-.64l-4.42-.28c-1.48-.08-2.95-.11-4.43-.1-.62,0-1.25,0-1.86.09a10.64,10.64,0,0,0-3,.48,24.5,24.5,0,0,1-4.37,1,1.12,1.12,0,0,0-.78,1.37,1.13,1.13,0,0,0,1.37.78c1-.18,1.91-.35,2.86-.55.38-.08.77-.16,1.14-.27l.56-.18a6.08,6.08,0,0,1,1-.23c1.38-.13,2.75-.2,4.14-.21s2.7.06,4.05.14c2.79.15,5.57.39,8.34.65s5.37.64,8.06.87,5.64.41,8.48.45,5.59,0,8.39,0c1.56,0,3.11,0,4.67,0,1.38,0,2.74.13,4.11.2s2.55.19,3.82.29c1.51.11,3,.21,4.52.3q4.07.23,8.14.33c2.21.05,4.43.13,6.64.07,1.13,0,2.26,0,3.39-.14s2.47-.2,3.69-.37,2.15-.29,3.22-.48l3.44-.64q3.26-.61,6.54-1.09l2-.22c.38,0,.76,0,1.14,0l1.14,0c.39,0,.78,0,1.16,0l1.16,0c.39,0,.79.07,1.18.11l1.07.1c1.34.19,2.67.39,4,.61s2.56.48,3.84.71c1.53.29,3.06.53,4.6.77.61.09,1.22.16,1.84.22s1.5.19,2.26.22c1.46.06,2.91.13,4.36.13s2.7,0,4.05,0,2.7-.06,4.05-.05,2.79,0,4.19,0,2.78,0,4.17-.09l3.61-.16c2.71-.13,5.43-.25,8.15-.33,1.17,0,2.34-.06,3.51-.12,1.43-.07,2.84-.18,4.25-.31,1.22-.11,2.43-.28,3.64-.45l3.91-.53c2.72-.35,5.45-.66,8.19-.89s5.61-.38,8.42-.51c1.39-.06,2.78-.1,4.16-.13s2.62,0,3.93,0c2.81.17,5.61.54,8.41.73a157.89,157.89,0,0,0,16.6.13c2.63-.09,5.25-.21,7.88-.25s5.38-.05,8.07,0l8,0c1.34,0,2.69,0,4-.07l1.86-.06a22.42,22.42,0,0,1,2.94.06,28.89,28.89,0,0,1,5.39,1.69,1.58,1.58,0,0,0,1.79-.73,1.59,1.59,0,0,0,.16-1.22,1.53,1.53,0,0,0-.73-.95c-.93-.43-1.87-.82-2.82-1.22q-1.05-.44-2.15-.78a14.64,14.64,0,0,0-3.07-.53,37.16,37.16,0,0,0-4.22-.07q-4.12.08-8.25.1c-5.33,0-10.67.05-16,.2-2.83.09-5.66.17-8.48.17-2.68,0-5.35-.09-8-.21-2.83-.12-5.65-.4-8.47-.7-1.3-.14-2.61-.27-3.91-.29h-.91c-1.18,0-2.35,0-3.53.07Zm-24.46,2.38-.16,0,.16,0Zm-161.57,2-.13,0,.13,0Z"/><path class="cls-1" d="M397.17,353.89c-2.68.07-5.36.19-8,.35s-5.44.35-8.16.58-5.61.59-8.41,1l-4.35.61c-2.53.32-5.07.61-7.62.79-1.43.1-2.87.2-4.3.28s-2.91.11-4.37.15c-1.25,0-2.5,0-3.75-.07l-4.14-.13c-2.78-.07-5.55-.15-8.32-.35s-5.23-.5-7.84-.84h0l-4-.53c-1.23-.16-2.46-.25-3.69-.35-2.72-.22-5.45-.31-8.19-.34s-5.37.09-8,.24-5.59.41-8.38.67l-3.56.34c-1.43.14-2.85.25-4.27.43h0l-.32,0h.09c-2.3.31-4.59.66-6.88,1.09q-3.71.7-7.43,1.32h.11c-1.16.16-2.31.34-3.47.44-1.48.13-2.95.26-4.43.34-2.72.14-5.45.17-8.17.18-5.48,0-11-.17-16.45-.43-2.82-.13-5.63-.34-8.44-.59-2.62-.22-5.22-.59-7.83-.84s-5.36-.43-8-.62-5.57-.32-8.36-.39c-1.39,0-2.79,0-4.18,0l-3.83,0c-2.8,0-5.6.14-8.4.26-5.21.22-10.41.72-15.61,1-3.42.2-6.84.38-10.26.48l-12.44.36a1.29,1.29,0,0,0,0,2.58c6.25-.18,12.5-.33,18.75-.59,5.3-.22,10.59-.59,15.88-.82s10.61-.2,15.91-.11c1.39,0,2.79,0,4.18.1s3,.16,4.48.26c2.71.18,5.43.44,8.14.68s5.23.52,7.84.83,5.25.59,7.88.75c2.95.18,5.89.32,8.84.41,2.73.08,5.46.09,8.2.08s5.29-.08,7.93-.16c1.33,0,2.65-.12,4-.21,1.48-.1,2.95-.25,4.43-.4s2.79-.38,4.17-.58c1.23-.18,2.45-.43,3.67-.66,2.76-.53,5.52-1.06,8.3-1.48l.12,0c2.59-.32,5.19-.54,7.8-.75s5.5-.44,8.25-.59c2.58-.14,5.18-.22,7.76-.21,1.43,0,2.85,0,4.27.07s2.73.14,4.1.23c2.4.16,4.79.43,7.18.74,2.57.37,5.14.74,7.72,1s5.45.41,8.18.42l4.18,0c1.3,0,2.59.05,3.89.06h2.26c.8,0,1.62-.06,2.42-.09,1.27,0,2.54-.14,3.81-.21,5-.31,10-1,15-1.69,2.6-.33,5.21-.64,7.82-.83s5.3-.37,7.95-.48,5.37-.21,8.05-.23c1.38,0,2.75,0,4.13.1s2.64.16,4,.19h.77a1.77,1.77,0,0,0,1.25-3,1.84,1.84,0,0,0-1.25-.52c-2.49-.15-5-.37-7.46-.37Z"/><path class="cls-1" d="M192.77,385.68q-8.43.07-16.86.46c-4,.2-8.09.33-12.13.57-2,.12-4,.25-6,.36-2.32.13-4.64.16-7,.21a1.34,1.34,0,0,0,0,2.69c3.25-.07,6.49-.17,9.73-.33,2.81-.14,5.61-.27,8.42-.34s5.73-.18,8.59-.26,5.55-.12,8.32-.15q4.43,0,8.86,0c2.73,0,5.45.28,8.17.43q4.36.25,8.72.38c2.88.08,5.75.11,8.63.13,2.72,0,5.45,0,8.17,0,3,0,5.95.11,8.92.23,2.81.11,5.61.34,8.41.54s5.41.32,8.12.42,5.59.21,8.38.36c1.48.08,3,.16,4.45.21s3.06.08,4.6.09c2.71,0,5.44-.1,8.15-.21,1.45-.06,2.91-.15,4.36-.16l4.45,0c2.79,0,5.57,0,8.35-.06a71.28,71.28,0,0,1,8.27.13c2.95.3,5.88.67,8.84.91,2.73.22,5.47.33,8.21.39q2.37,0,4.73.07c1.47,0,2.93,0,4.4-.05,2.74,0,5.48-.22,8.21-.41,2.9-.2,5.8-.4,8.7-.52s5.6-.09,8.4-.05a83,83,0,0,1,8.59.62c2.83.33,5.64.72,8.48,1s5.62.42,8.44.57,5.82.19,8.73.16c3.72,0,7.44-.36,11.15-.66,4.16-.34,8.32-.57,12.48-.8a2.24,2.24,0,0,0,1.55-.64,2.18,2.18,0,0,0,.64-1.55,2.21,2.21,0,0,0-2.19-2.19c-1.66,0-3.31.11-5,.25-1.32.11-2.64.26-3.95.41-2.8.32-5.59.68-8.38,1-1.36.15-2.71.29-4.08.39-1.52.11-3,.19-4.57.26-1.3.06-2.61.06-3.91,0l-4.79-.06c-2.66-.05-5.34-.09-8-.25-2.88-.17-5.75-.41-8.63-.62s-5.84-.12-8.74,0c-1.34,0-2.67.13-4,.2l-4,.21c-2.84.16-5.68.39-8.52.55q-4.57.26-9.14.35c-2.7,0-5.4,0-8.09-.09s-5.66-.2-8.48-.5c-3-.31-5.95-.71-8.94-.89-1.75-.1-3.5-.06-5.25,0-.93,0-1.85,0-2.77,0-2.88,0-5.76-.08-8.64-.11-1.53,0-3.06,0-4.59,0-1.27,0-2.54.06-3.81.09-1.6,0-3.2.06-4.79.08s-2.9,0-4.35-.06c-1.24,0-2.48-.1-3.72-.18l-4.66-.32c-2.89-.21-5.78-.35-8.67-.53s-5.59-.48-8.37-.78q-8.22-.87-16.48-1c-5.84-.09-11.67-.16-17.51-.32-2.81-.08-5.63-.23-8.44-.4-1.31-.07-2.62-.18-3.93-.21q-1.6,0-3.2,0Z"/><path class="cls-1" d="M184.95,417.15c-.48,0-1,0-1.45,0l-3.15.13c-1.51.07-3,.19-4.53.29-2.7.17-5.39.39-8.09.58-3,.21-6,.42-9.05.66l-7.32.6a1.22,1.22,0,0,0-.82.34,1.16,1.16,0,0,0,.82,2c3.33-.28,6.66-.57,10-.8l9.64-.67q4.53-.31,9.06-.57c1.52-.09,3-.11,4.57-.16.74,0,1.48,0,2.22,0s1.28,0,1.92,0c1.59.08,3.18.16,4.77.28l4.73.39,1.89.13c.65,0,1.31.11,2,.13,1.45.06,2.91.16,4.36.15s3.07,0,4.61,0l4.79-.18,4.5-.18c1.5-.06,3-.05,4.48,0,.55,0,1.11.05,1.66.09s1.25.08,1.87.14q2.32.24,4.64.53c2.69.34,5.38.71,8.07,1.07l-.3,0c2.82.41,5.64.83,8.44,1.41,1.53.32,3.05.64,4.58,1s3,.63,4.49.93c.55.11,1.09.23,1.64.32l2.88.46c1.54.25,3.08.43,4.63.62,3,.36,5.94.57,8.92.77s5.93.3,8.9.4c1.3,0,2.61.07,3.91.06h.71c.48,0,1,0,1.43,0l2.8-.16c1.27-.07,2.53-.22,3.79-.34l4.9-.48c2.74-.26,5.5-.41,8.25-.5,6-.2,12-.15,18-.34,2.83-.09,5.66-.24,8.48-.47s5.85-.55,8.77-.77c3.09-.23,6.17-.43,9.25-.62s6-.4,9-.55,5.83-.27,8.74-.15c1.7.07,3.38.16,5.07.27,1.29.09,2.59.18,3.88.25,1.5.08,3,.17,4.51.22l2.61.08c.64,0,1.29,0,1.93,0,1.53,0,3.05,0,4.58,0s3.1-.1,4.66-.17c.52,0,1.05,0,1.57-.09l2.93-.28c.59-.05,1.18-.1,1.77-.19l2.77-.41c3-.44,6-1,9-1.48,2.29-.38,4.59-.74,6.89-1.06h-.07l.12,0,.28,0-.18,0,.59-.08.4-.05a1.51,1.51,0,0,0,.67-.39,1.52,1.52,0,0,0,0-2.14,1.44,1.44,0,0,0-1.07-.45c-3.62.48-7.23,1.07-10.84,1.7l-4.75.83c-1.5.26-3,.47-4.51.7l-4.22.44c-.72.08-1.46.09-2.19.13s-1.34.09-2,.12c-1.46.05-2.91.13-4.37.14s-2.94.07-4.41,0-3.07-.05-4.6-.11l-4.91-.23c-1.32-.07-2.64-.16-4-.19l-2.7-.07c-.77,0-1.54,0-2.3,0-1.36,0-2.71.07-4.07.16s-3,.18-4.43.29l-9.59.69c-3,.21-5.94.43-8.91.7s-5.8.54-8.71.74-5.65.31-8.48.38c-3,.06-6,.09-9,.14s-6.1.15-9.15.3c-2.71.14-5.43.41-8.13.7l-4.64.48c-.57.05-1.13.11-1.69.14l-1.56.1c-.3,0-.61.05-.91.06l-2.52,0c-.69,0-1.38,0-2.08,0-1.36,0-2.71-.06-4.06-.12q-4.76-.23-9.51-.56c-2.82-.2-5.61-.58-8.41-.94l-2.09-.35c-.73-.12-1.46-.22-2.19-.37-1.4-.29-2.81-.55-4.2-.86-2.91-.67-5.83-1.36-8.77-1.91l-2.23-.42c-.8-.15-1.61-.25-2.42-.37-1.54-.24-3.08-.46-4.62-.68-2.77-.39-5.54-.83-8.32-1.16-.68-.08-1.35-.18-2-.24l-2.49-.21c-.32,0-.64,0-1,0l-1.34,0c-.78,0-1.57,0-2.34,0-1.28,0-2.56.07-3.84.12l-4.77.19c-1.57.05-3.14.08-4.71.09-.54,0-1.07,0-1.61,0l-3-.1c-2.77-.1-5.53-.36-8.3-.55l-2.55-.18c-.79-.05-1.59-.06-2.39-.1s-1.59,0-2.38,0Zm79.51,7.16.13,0-.13,0Zm161.08-3.64h-.05l.15,0Z"/><path class="cls-1" d="M333.27,458.07a1.16,1.16,0,0,0-.82,1.43,1.13,1.13,0,0,0,.54.7q1.18.53,2.4,1a18.77,18.77,0,0,0,2.65.67c1.77.34,3.57.56,5.36.75,1.63.17,3.25.32,4.88.46,2.23.21,4.47.35,6.7.55l3.56.35c.51.07,1,.13,1.53.23l1.78.32c1.3.23,2.61.43,3.91.62s2.39.28,3.59.35c.56,0,1.12.08,1.68.09l2.24,0c.57,0,1.15,0,1.73-.05l1.46-.05c1.27-.07,2.54-.14,3.8-.22q3.82-.25,7.64-.56c4.82-.4,9.62-1,14.45-1.27.58,0,1.16,0,1.75-.06s1.24-.06,1.86-.09c1.13-.06,2.26-.16,3.38-.25,2.4-.2,4.8-.38,7.22-.44l1.17,0a1,1,0,1,0,0-2c-.78-.05-1.55-.1-2.33-.12-.58,0-1.17,0-1.75,0-1.17,0-2.34.14-3.51.23-2.43.18-4.86.34-7.3.4-4.72.12-9.41.76-14.12,1.15-2.46.2-4.92.4-7.38.56l-3.91.25c-1.29.07-2.58.12-3.87.16-.57,0-1.15,0-1.72,0s-1.08,0-1.62,0-1.27,0-1.89-.11l-2.09-.21c-1.18-.17-2.36-.35-3.53-.55l-1.77-.32c-.6-.11-1.2-.19-1.8-.28-1.29-.19-2.59-.29-3.88-.4l-3.33-.27c-1.32-.11-2.64-.21-4-.33-2.3-.21-4.61-.39-6.89-.7h0c-1.1-.15-2.19-.34-3.27-.57a20.85,20.85,0,0,1-3.25-1l-.41-.19a1.5,1.5,0,0,0-.61-.16,1.06,1.06,0,0,0-.28,0Zm7.9,1.91.22,0-.22,0Zm25.12,2.83.23,0-.23,0Z"/><path class="cls-1" d="M365.12,487.09c-.54,0-1.07,0-1.61.1l-2,.19c-1.12.11-2.24.27-3.36.41-2.09.27-4.17.61-6.25,1l-5.57,1c-1.55.26-3.1.47-4.66.68l-2.8.3c-.36,0-.71.09-1.06.14l-.91.12c-.21,0-.43,0-.64.09l-1.5.31c-.43.09-.85.22-1.27.34-1,.29-2,.62-2.93.95a1,1,0,0,0-.69,1.21,1,1,0,0,0,1.21.69l2.39-.79c.27-.09.55-.16.82-.24s.55-.18.82-.23c.59-.12,1.19-.29,1.8-.37l1.89-.26c1.07-.12,2.15-.21,3.22-.36l3.52-.49c.46-.07.93-.16,1.39-.24l2.25-.39,2.93-.5c.84-.14,1.67-.3,2.51-.42l3.23-.48c2.08-.25,4.16-.52,6.25-.63.58,0,1.16-.08,1.75-.09l1.92,0c1,0,2,0,3,0,.41,0,.82,0,1.23,0l1.58.09c.73,0,1.45.15,2.18.25l1.76.34c.48.09,1,.22,1.44.34,1.1.27,2.19.55,3.28.84l1.46.36c.46.11.92.24,1.39.34,1,.21,2.08.46,3.13.63s2.38.38,3.58.52l1.79.21c.59.07,1.18.11,1.77.16q3.17.28,6.36.41c1.65.07,3.3.13,5,.16.83,0,1.67,0,2.5,0,1.1,0,2.2,0,3.31-.08a.94.94,0,0,0,0-1.87c-2.43-.12-4.87-.17-7.3-.21-2.19,0-4.38-.12-6.56-.22-1.29-.06-2.56-.17-3.84-.28s-2.54-.26-3.81-.4l-1.61-.25c-.42-.07-.84-.12-1.25-.21-1.08-.22-2.16-.43-3.23-.7-2.2-.54-4.38-1.11-6.57-1.65-.6-.14-1.22-.24-1.82-.36s-1.12-.16-1.68-.23a27.21,27.21,0,0,0-3-.22l-2.56,0c-1.36,0-2.71,0-4.07.1Z"/><path class="cls-1" d="M420.8,517.93q-2.92.19-5.82.49c-1.6.16-3.2.4-4.79.59l-2.79.34c-.94.11-1.89.18-2.83.26s-1.65.09-2.47.12-1.66,0-2.5,0h-3.48c-2.22,0-4.45,0-6.67,0-3.48.05-7,.2-10.43.37-2.66.13-5.32.38-8,.64-.64.06-1.28.16-1.92.24l-2.31.29-3.89.55H363l-2.68.35c-.69.09-1.38.2-2.07.26l-3.19.26c-.61.05-1.23.12-1.84.13-1.72,0-3.45.1-5.16.06s-3.73-.07-5.59-.07c-.77,0-1.54,0-2.3,0l-3.6.2c-.75,0-1.49.14-2.24.22-1.3.14-2.59.29-3.88.47a1.28,1.28,0,0,0-.8.61,1.33,1.33,0,0,0,.48,1.82,1.45,1.45,0,0,0,1,.13l.83-.12c.88-.11,1.76-.19,2.64-.29.65-.07,1.29-.15,1.94-.19,1.77-.09,3.53-.21,5.3-.2s3.78,0,5.67.1,3.54,0,5.31,0,3.41-.2,5.11-.32,3.31-.36,5-.54c1.5-.17,3-.39,4.48-.54,1.77-.18,3.54-.36,5.32-.48,6.89-.48,13.8-.5,20.71-.46l5.17,0h2.54c.86,0,1.71-.06,2.56-.1,1.57-.07,3.13-.25,4.69-.44q2.73-.34,5.46-.72l3.1-.43c1.29-.17,2.58-.33,3.87-.47a1.73,1.73,0,0,0,1.15-.48,1.62,1.62,0,0,0,.48-1.15,1.65,1.65,0,0,0-1.55-1.63Zm-57.89,3.94-.28,0,.28,0Z"/><path class="cls-1" d="M425.64,558.81c-3.08.14-6.17.3-9.23.63-2.9.31-5.8.66-8.69,1s-5.93.71-8.91.86q-2.43.12-4.84.21c-1.37.05-2.74.09-4.11.16q-4.39.22-8.77.54c-3.12.23-6.23.45-9.36.6-2.85.13-5.7.21-8.55.3s-6,.26-9,.52-5.75.59-8.62.91-5.91.61-8.84,1.07l-2.29.37c-.84.14-1.69.33-2.53.5-1.5.3-3,.64-4.5,1l-4.43,1c-.49.11-1,.19-1.47.28l-2.9.52h0c-1.35.16-2.7.35-4.05.45l-4.93.34c-2.85.19-5.7.46-8.54.7-1.59.13-3.19.23-4.79.33s-3.05.13-4.59.17c-.53,0-1.06,0-1.6,0h-.77c-.51,0-1,0-1.54,0-1.53,0-3.05-.07-4.58-.13-5.87-.21-11.74-.61-17.62-.89-1.65-.08-3.3-.16-4.95-.22-1.46-.05-2.93-.08-4.39-.11-2.87-.06-5.75-.07-8.62-.16-6-.18-11.91-.48-17.84-1.11l-4.47-.47c-1.5-.15-3-.32-4.49-.44s-3.11-.28-4.66-.38l-4.86-.33q-4.72-.33-9.43-.69c-1.33-.1-2.67-.18-4-.25s-2.64-.18-4-.17l-5.52,0c-.56,0-1.12,0-1.68.07q-1.55.08-3.1.2c-2.26.16-4.51.43-6.75.72-2,.27-4,.57-6,.94-2.26.41-4.5.93-6.72,1.53-2.05.55-4.08,1.18-6.11,1.81-2.18.68-4.36,1.36-6.52,2.09l-2.48.84a.92.92,0,0,0,.49,1.78c2.16-.72,4.3-1.46,6.47-2.14,2.37-.73,4.73-1.48,7.11-2.17q3.32-1,6.69-1.66c2.43-.5,4.89-.87,7.35-1.21l-.17,0c2-.27,4.1-.5,6.16-.68,1-.09,2.06-.15,3.1-.21.73,0,1.46-.09,2.19-.1l5.52,0c1.32,0,2.65.09,4,.16s2.67.14,4,.24l9.43.68,4.86.34c1.55.11,3.11.25,4.66.38s3,.29,4.49.44l4.47.47c2.88.3,5.77.53,8.66.71,3.06.19,6.12.31,9.18.4,2.88.08,5.75.1,8.62.16,1.46,0,2.93.05,4.39.11q2.48.09,4.95.21l8.73.46c3,.16,5.92.33,8.89.44,1.53.05,3.05.09,4.58.13.69,0,1.37,0,2.06,0s1.24,0,1.86,0c1.53,0,3.06-.07,4.59-.16s3.19-.2,4.79-.33c2.85-.23,5.69-.5,8.54-.7l4.93-.34c1.42-.1,2.83-.3,4.24-.47.73-.09,1.45-.25,2.18-.38s1.49-.24,2.23-.41l4.32-1c1.71-.38,3.42-.77,5.14-1.11.84-.17,1.67-.35,2.51-.49l2.87-.46h0c1.45-.19,2.9-.37,4.36-.53l3.93-.44c3.14-.36,6.27-.69,9.42-1,1.35-.12,2.7-.19,4-.25s2.93-.15,4.4-.17c3.09-.05,6.19-.08,9.29-.15,2.85-.06,5.7-.22,8.54-.33s5.77-.21,8.65-.25l5-.07c1.26,0,2.53,0,3.79-.12l2.7-.16c.75,0,1.5-.12,2.25-.19,1.34-.11,2.68-.25,4-.39q4.13-.45,8.27-.84c1.41-.14,2.83-.23,4.25-.33l4.71-.32a1.52,1.52,0,0,0,1-.43,1.47,1.47,0,0,0-1-2.5Z"/><path class="cls-1" d="M180.41,599.24c-2.85.08-5.71.17-8.55.39l-3.59.28c-.92.07-1.84.22-2.75.34s-1.62.18-2.41.32c-1.19.22-2.37.43-3.57.63a4.16,4.16,0,0,0-1.51.34,1.84,1.84,0,0,0-.52.32,1.79,1.79,0,0,0-.33.5.93.93,0,0,0-.09.69.9.9,0,0,0,.63.63c.5.15,1,.29,1.52.39s1.06.18,1.59.27a.91.91,0,0,0,1.11-.63.94.94,0,0,0-.42-1l2.35-.43,4.25-.54c.64-.08,1.3-.1,1.95-.15l2.84-.22c.46,0,.93-.05,1.4-.07l3.27-.15c1.46-.07,2.93-.09,4.39-.13,5.78-.16,11.56-.06,17.34,0,6.25.08,12.5.11,18.74.15,6,0,11.91.38,17.86.59,2.94.11,5.88.16,8.82.22s5.73.14,8.59.21c1.44,0,2.88.07,4.32.09s3,.05,4.44,0q4.61,0,9.22-.13l4.5-.09c1.48,0,3-.07,4.43,0l2.87,0c.59,0,1.18.05,1.78.09q2.36.14,4.71.31c3.1.23,6.2.4,9.3.55,2.7.13,5.41.25,8.11.47l5,.43c1.53.14,3.07.25,4.6.37s3,.14,4.48.2c.41,0,.82,0,1.24,0l3.18,0c1.48,0,3-.13,4.45-.21s3-.21,4.5-.33c3-.24,6.05-.57,9.07-.91l4.34-.5,1.73-.18c.73-.07,1.46-.17,2.19-.23,1.48-.11,3-.25,4.44-.33s3.13-.18,4.69-.25,3.16-.12,4.74-.16,3.12-.06,4.68-.07h2.38c.52,0,1,0,1.55,0,1.41.06,2.83.1,4.24.2,3.05.22,6.11.46,9.16.79s6.19.72,9.28,1.11c2.81.36,5.63.64,8.46.84s5.76.36,8.64.36h.84c.53,0,1.06,0,1.59,0l2.68-.11c.79,0,1.57-.14,2.36-.21s1.41-.16,2.12-.25c3.3-.43,6.57-1.05,9.85-1.64a1.31,1.31,0,0,0,.8-.62,1.36,1.36,0,0,0,.13-1,1.34,1.34,0,0,0-.62-.8,1.45,1.45,0,0,0-1-.13c-3.57.55-7.13,1.17-10.7,1.71l-2.33.26c-.71.08-1.43.12-2.14.16s-1.21.08-1.81.09c-.76,0-1.52.05-2.29,0-1.55,0-3.09,0-4.63-.09s-3.12-.14-4.68-.23c-1.3-.08-2.6-.19-3.9-.33q-2.43-.25-4.85-.52l-4.67-.52c-1.46-.16-2.94-.29-4.41-.42s-2.87-.23-4.31-.33c-.6,0-1.21-.07-1.81-.1-.76,0-1.52-.11-2.29-.12-1.42,0-2.85-.1-4.27-.08-1.59,0-3.18.05-4.77.11l-9.22.35c-1.4.06-2.8.16-4.2.23-.77,0-1.54.12-2.31.18s-1.25.09-1.88.16c-3.08.32-6.15.68-9.23,1s-6.13.63-9.2.87c-1.5.12-3,.21-4.49.3l-2.09.12c-.5,0-1,0-1.51,0H324l-2.45,0c-.61,0-1.23,0-1.84-.07l-2.65-.11c-.61,0-1.22-.09-1.83-.13q-2.4-.19-4.8-.41c-1.34-.12-2.69-.25-4-.34-2.95-.18-5.9-.34-8.85-.48-3.16-.16-6.32-.36-9.48-.59-1.47-.11-2.94-.19-4.41-.27-.56,0-1.12,0-1.68,0-.77,0-1.54-.05-2.31,0q-4.37.06-8.73.15-4.73.09-9.46.13c-1.64,0-3.28,0-4.91-.06s-3-.07-4.56-.11c-2.94-.07-5.89-.15-8.83-.21s-5.89-.14-8.83-.24-6-.25-8.93-.36c-5.75-.23-11.52-.19-17.28-.23-6.34-.05-12.68-.16-19-.19h-.68c-2.68,0-5.35.06-8,.13ZM159.53,603l-.16,0,.11,0Z"/><path class="cls-1" d="M183.67,634.58c-3.79,0-7.59.06-11.38.1q-5.94.06-11.88,0a1.22,1.22,0,0,0,0,2.44c6.68.09,13.36,0,20-.05,5.7-.05,11.4,0,17.1,0s11.35.18,17,.28l8.52.14c2.9.05,5.8.2,8.7.34.58,0,1.15.08,1.73.12.73.05,1.46.09,2.19.15,1.36.13,2.72.24,4.09.38l9.21,1c5.76.58,11.54.87,17.32,1.16,2.7.14,5.4.28,8.09.5l8.74.71c1.48.13,3,.22,4.45.31s3,.14,4.46.2,2.76.05,4.13.07c.7,0,1.39,0,2.09,0s1.29,0,1.93,0c2.89-.09,5.77-.2,8.66-.29s6.06-.14,9.09-.18q4.06,0,8.13,0c2.9,0,5.8,0,8.71.13s5.55.25,8.33.33l2.59.07c.69,0,1.38,0,2.07,0,.52,0,1,0,1.56,0l2.89-.15c1.36-.07,2.71-.21,4.06-.32s2.64-.23,4-.31c1.57-.11,3.14-.2,4.71-.27.69,0,1.38,0,2.07,0s1.39,0,2.09,0c2.89,0,5.77.18,8.66.33q4.07.22,8.14.57c1.32.12,2.65.25,4,.31l2.54.11c.71,0,1.42,0,2.13,0,2.77,0,5.53-.32,8.28-.6,3.51-.35,7-.61,10.54-.9,3.86-.32,7.72-.59,11.58-.89a1.36,1.36,0,0,0,.92-.38,1.3,1.3,0,0,0-.92-2.21c-1.65,0-3.3,0-5,.07-1.33,0-2.66.13-4,.22-2.79.2-5.58.45-8.37.66s-5.59.53-8.39.77l-1.8.13c-.7,0-1.41.1-2.11.11l-2.59,0c-.68,0-1.37-.05-2-.08-2.73-.13-5.46-.45-8.19-.63s-5.68-.34-8.52-.43c-1.37,0-2.75-.09-4.12-.09h-2.4c-.75,0-1.5,0-2.25.06-1.35,0-2.7.17-4,.29-1.56.14-3.12.3-4.68.45l-4,.4c-.71.07-1.44.11-2.16.16s-1.18.1-1.77.11l-2.61.07c-.65,0-1.31,0-2,0-1.5,0-3,0-4.48-.06-2.84,0-5.68-.11-8.52-.1s-5.76.06-8.64.1c-5.69.08-11.38.26-17.07.49l-4.52.16c-1.44,0-2.87.05-4.31.07s-2.85,0-4.27-.06c-.59,0-1.19,0-1.79-.07s-1.39,0-2.08-.08c-1.6-.1-3.19-.21-4.78-.34-1.25-.1-2.49-.22-3.73-.34q-4.56-.42-9.12-.75c-2.87-.21-5.75-.35-8.62-.51l-4.34-.26c-1.31-.08-2.62-.17-3.92-.29-2.82-.26-5.64-.54-8.45-.86-3.07-.36-6.14-.7-9.21-1-2.84-.29-5.69-.45-8.54-.61s-5.66-.22-8.49-.31c-5.68-.17-11.36-.28-17-.38-3.18-.05-6.36-.09-9.54-.12h-3.13l-5.78,0Z"/><path class="cls-1" d="M373.26,268.91l-3.16.21c-2.25.15-4.51.28-6.77.39l-3.55.16c-1.13,0-2.26.13-3.39.19-2.34.14-4.67.35-7,.55a.94.94,0,0,0-.64.26.9.9,0,0,0,.64,1.54c2.57-.21,5.15-.43,7.73-.59,1-.06,2.08-.12,3.12-.17l3.36-.15q3.49-.17,7-.41l3.12-.2c.51,0,1-.05,1.54-.05h.29c.16,0,.33,0,.49,0l1,.09c.49,0,1,.12,1.47.18l1.56.21c1.14.14,2.27.27,3.41.37,2.13.18,4.26.27,6.39.33,1.89,0,3.78.1,5.67.16.8,0,1.6.05,2.4.1.48,0,1,0,1.44.08l1.35.13c1.28.19,2.54.42,3.82.64,1.61.28,3.23.52,4.85.75a1.13,1.13,0,0,0,.79-.11,1,1,0,0,0,.47-.61,1,1,0,0,0-.1-.79,1,1,0,0,0-.61-.47c-2.43-.35-4.86-.76-7.29-1.17-.61-.1-1.22-.16-1.83-.24-.24,0-.49,0-.73-.05l-.75-.05c-1.07,0-2.15-.06-3.23-.06-4.46,0-8.92-.11-13.36-.49-2.15-.18-4.27-.58-6.43-.75-.34,0-.68,0-1,0-.68,0-1.36,0-2,.09Z"/><path class="cls-1" d="M251.41,449.52c-5.17,0-10.35,0-15.52.06l-15.41.1c-10.29.06-20.58.07-30.86.13l-13.9.07-7.12,0c-2.37,0-4.75.07-7.13.1a1.54,1.54,0,1,0,0,3.08c2.58,0,5.16.09,7.74.1l7.77,0,15,.09c10.34.07,20.67.07,31,.13l15.39.11c5.16,0,10.32,0,15.48,0q15.27,0,30.54,0l14.08,0,6.87,0h4.83c0,4.31.07,8.62,0,12.93,0,5.11-.09,10.21-.12,15.32-.07,10.15-.11,20.31,0,30.46,0,4.75.12,9.49.18,14.23,0,1.07,0,2.14.07,3.22s.1,2.05.18,3.08.09,2.21.09,3.32v2.2c-1.93,0-3.86,0-5.79,0-1,0-2.07,0-3.11,0s-2.3-.06-3.45-.08c-2.5,0-5,0-7.52,0H253.08q-30.91,0-61.82.16-9.85,0-19.7.09c-5.88,0-11.75.22-17.63.24,0-4.52.09-9,.16-13.57.08-5.11.23-10.22.34-15.34.05-2.44.15-4.87.19-7.31s0-4.83,0-7.25q0-7.58-.06-15.16-.07-13.71-.05-27.41a1.58,1.58,0,0,0-3.16,0q0,15.31-.07,30.62,0,7.55,0,15.1,0,3.63.13,7.25c.08,2.52.13,5,.2,7.57.13,4.49.21,9,.28,13.48.07,4.33.17,8.66.13,13a1,1,0,0,0,1,1c4.73,0,9.45.12,14.17.19,5,.07,10,.1,14.95.12l30.78.11q30.71.12,61.43.09h19.46c1.59,0,3.18,0,4.77,0,1.38,0,2.76-.09,4.14-.11s2.88,0,4.32.05c1.68,0,3.36,0,5,0a1.43,1.43,0,0,0,1.42-1.42c0-2.39-.08-4.79.11-7.17.08-1,.14-2.06.17-3.09,0-1.2,0-2.4.06-3.6.07-5,.16-10.07.18-15.11q.08-15.24,0-30.48c0-4.8-.1-9.61-.11-14.41s0-9.5.06-14.26a1.83,1.83,0,0,0-.54-1.31,1.94,1.94,0,0,0-1.31-.54c-.56,0-1.13-.09-1.69-.1h-5.56l-7.47,0-15.29,0h-9.94l-20.68,0Z"/><path class="cls-1" d="M153,450.66a.91.91,0,0,0-.9.9v2.24a.9.9,0,0,0,1.8,0v-1.34h16.27a.9.9,0,0,0,0-1.8Z"/><path class="cls-1" d="M236.48,454.44q-7,0-14,.13c-9.32.11-18.63.11-28,.14-11.66,0-23.31.07-35,.19a1.12,1.12,0,0,0-1.11,1.11,1.08,1.08,0,0,0,.19.61.89.89,0,0,0-.18.54v79.17a.91.91,0,0,0,.9.9H269.05c6.14,0,12.28,0,18.41,0,3.13,0,6.26,0,9.39.06,1.38,0,2.77,0,4.16,0,.72,0,1.45.05,2.17.11s1.43.09,2.16.11a1.26,1.26,0,0,0,1.25-1.25c0-1.09,0-2.17,0-3.26s.05-2.29.07-3.43c0-2.2.05-4.41.06-6.61q0-6.76,0-13.51c0-4.64,0-9.28,0-13.93s0-9.24.05-13.86c0-4.38,0-8.76.05-13.14,0-4.2.11-8.39.12-12.58a1.67,1.67,0,0,0-1.66-1.66c-9.09,0-18.19,0-27.28,0H250.43c-4.65,0-9.3.07-13.95.1Zm-76.21,27.22V457.12c18.51.19,37,.15,55.52.26,4.67,0,9.33.09,14,.14s9.24.06,13.86.11c9.27.09,18.55,0,27.82,0,10.74,0,21.48,0,32.22,0,0,3.93.08,7.85.12,11.78,0,4.66,0,9.31.05,14,0,9.27,0,18.54,0,27.81q0,6.32,0,12.65,0,3,.06,6c0,1.06,0,2.11.07,3.17,0,.68,0,1.37,0,2.05h-.26c-.46,0-.92.09-1.37.12-1.05.06-2.11.07-3.16.08l-6.44,0c-4.44,0-8.87,0-13.31.05-9,0-18,0-26.93,0H160.27V481.66Z"/><path class="cls-1" d="M591.43,267.41c-3.45,1.94-6.82,4-10.21,6.09-3.24,2-6.46,3.95-9.7,5.91q-4.58,2.79-9.15,5.61c-2.45,1.5-4.95,2.94-7.34,4.54l-21.7,14.49c-1.69,1.13-3.26,2.45-4.86,3.7l-11.79,9.17-10.23,8c-4.2,3.27-8.22,6.73-12.3,10.14a3.09,3.09,0,0,0-.94,2.26,3.2,3.2,0,0,0,3.2,3.2,3.39,3.39,0,0,0,2.26-.94c3.95-3.29,7.84-6.65,11.9-9.8l9.38-7.28,15.88-12.31,20.57-13.64c1.88-1.24,3.76-2.42,5.68-3.59l12-7.31c3.37-2.05,6.76-4.07,10.14-6.11s7-4.26,10.64-6.21a3.4,3.4,0,0,0-1.73-6.35,3.49,3.49,0,0,0-1.72.45Z"/><path class="cls-1" d="M573.21,437.29c-4,.11-8.08.25-12.12.38-3.74.12-7.47.4-11.21.63-1.16.07-2.32.13-3.47.28l-7.37,1c-5.17.68-10.34,1.44-15.45,2.48-1.74.36-3.46.82-5.2,1.18a39.06,39.06,0,0,0-4.86,1.14,12.38,12.38,0,0,0-2.46,1.15c-.36.25-.71.51-1,.79a8.32,8.32,0,0,0-1.13,1.32c-.19.41-.37.83-.54,1.25a6.84,6.84,0,0,0-.33,1.84,24.06,24.06,0,0,0,.4,2.84,3.23,3.23,0,0,0,1.56,2,3.4,3.4,0,0,0,4.65-1.22l.34-.81a3.46,3.46,0,0,0,0-1.81q0-.27-.08-.53l.4-.21a27,27,0,0,1,4-1c1.66-.3,3.29-.71,4.94-1.07,3.95-.87,7.95-1.44,11.94-2.06l11-1.44c1.41-.18,2.87-.2,4.29-.3l7.18-.48c3.66-.24,7.33-.3,11-.45l10.67-.41c1.59-.06,3.19-.12,4.79-.16a3.31,3.31,0,1,0,0-6.61h-.17c-3.88,0-7.77.13-11.65.24Zm-58.75,14.17-.22.28a2.41,2.41,0,0,1,.22-.28Z"/><path class="cls-1" d="M491.13,557.51a4.12,4.12,0,0,0,1.46,5.59c10.4,5.75,20.87,11.37,31.33,17,3.33,1.79,6.74,3.43,10.12,5.14,3.55,1.8,7.1,3.6,10.68,5.34,7.92,3.84,15.8,7.8,23.83,11.4a4.13,4.13,0,0,0,3,.39,3.84,3.84,0,0,0,.92-7c-8.38-4.09-16.71-8.27-25.06-12.41-3.68-1.82-7.33-3.72-11-5.59-3.08-1.57-6.18-3.12-9.22-4.76-10.17-5.48-20.33-11-30.44-16.54a4.26,4.26,0,0,0-2.06-.53,4,4,0,0,0-3.53,2Z"/><path d="M772.72,192.59l-24.45-6.1a2.49,2.49,0,0,0-.31-.39l-7.28-7.28v-7q.91-.92,1.78-1.92c6.79-7.85,10.88-18.42,11.5-29.76q0-.68.07-1.36c.08-1.5.15-2.92.29-4.35l2.41-24.11a26.56,26.56,0,0,0-26.43-29.2h-27a26.56,26.56,0,0,0-26.43,29.2l2.41,24.09c.14,1.44.22,2.87.29,4.38q0,.68.07,1.35c.62,11.35,4.71,21.92,11.5,29.76q.87,1,1.78,1.92v7l-7.28,7.28a2.48,2.48,0,0,0-.3.38l-24.45,6.11c-10.36,2.59-16.07,9-16.07,17.91V228a7.86,7.86,0,0,0,7.85,7.85h128.3a7.86,7.86,0,0,0,7.85-7.85V210.5c0-9-5.71-15.32-16.07-17.91Zm-58.6,27.19h5.35l.55,0,1.88,11H711.68l1.88-11,.55,0Zm8.19-7.85a2.84,2.84,0,0,1-2.84,2.84h-5.35a2.84,2.84,0,0,1-2.84-2.84v-4l5.51-3.68,5.51,3.68Zm-24.39-35.79a31.75,31.75,0,0,0,37.75,0v2.68l-18.88,18.88-18.88-18.88Zm28.3,28.37h0l-5.48-3.65,17.45-17.45,4.91,4.91-11,19.88a.14.14,0,0,1-.09.07.17.17,0,0,1-.14,0l-5.59-3.73ZM687.3,93.23a21.59,21.59,0,0,1,16-7.09h27a21.55,21.55,0,0,1,21.44,23.69l-1.53,15.26a71.64,71.64,0,0,0-7.35-13.54,2.51,2.51,0,0,0-3.43-.59c-6.59,4.5-35.91,5.07-46.66,4.91a2.49,2.49,0,0,0-1.9.83,54.08,54.08,0,0,0-7.28,10.66l-1.75-17.54a21.59,21.59,0,0,1,5.46-16.6Zm-2.67,46.65q0-.66-.07-1.33l0-.93a58.58,58.58,0,0,1,9.36-16.73c6.93.06,35.25,0,46.14-4.6a73.24,73.24,0,0,1,9.06,21.27c0,.33,0,.65-.05,1s0,.89-.07,1.34c-1.15,21-15.28,37.47-32.16,37.47S685.78,160.89,684.62,139.88Zm10.78,43.52,17.45,17.45-5.48,3.66h0l-5.59,3.73a.17.17,0,0,1-.14,0,.13.13,0,0,1-.09-.07l-11-19.88,4.91-4.91ZM649.8,228V210.5c0-6.62,4.13-11,12.27-13l24.38-6.09,10.71,19.27a5.17,5.17,0,0,0,7.39,1.78l1.71-1.14v.66a7.83,7.83,0,0,0,2.56,5.8L706.6,230.8H673.86V217.27a2.51,2.51,0,1,0-5,0V230.8h-16.2A2.84,2.84,0,0,1,649.8,228Zm134,0a2.84,2.84,0,0,1-2.84,2.84h-16.2V217.27a2.51,2.51,0,1,0-5,0V230.8H727l-2.23-13.08a7.83,7.83,0,0,0,2.56-5.8v-.66l1.71,1.14a5.21,5.21,0,0,0,2.89.87,5.15,5.15,0,0,0,4.51-2.65l10.7-19.26,24.38,6.08c8.14,2,12.27,6.43,12.27,13V228Z"/><path d="M779.33,333.62H656.24a8.72,8.72,0,0,0-8.71,8.71v162a8.72,8.72,0,0,0,8.71,8.71H779.33a8.72,8.72,0,0,0,8.71-8.71v-162A8.72,8.72,0,0,0,779.33,333.62Zm2.73,170.67a2.74,2.74,0,0,1-2.73,2.73H656.24a2.74,2.74,0,0,1-2.73-2.73v-162a2.74,2.74,0,0,1,2.73-2.73H779.33a2.74,2.74,0,0,1,2.73,2.73Z"/><path d="M662.48,498.05h32.89V465.16H662.48Zm6-26.91h20.93v20.93H668.46Z"/><path d="M701.34,498.05h32.89V465.16H701.34Zm6-26.91h20.93v20.93H707.32Z"/><path d="M740.21,498.05H773.1V426.3H740.21Zm6-65.77h20.93v59.79H746.19Z"/><path d="M662.48,459.18h32.89V426.3H662.48Zm6-26.91h20.93v20.93H668.46Z"/><path d="M701.34,459.18h32.89V426.3H701.34Zm6-26.91h20.93v20.93H707.32Z"/><path d="M662.48,420.32h32.89V387.43H662.48Zm6-26.91h20.93v20.93H668.46Z"/><path d="M701.34,420.32h32.89V387.43H701.34Zm6-26.91h20.93v20.93H707.32Z"/><path d="M740.21,420.32H773.1V387.43H740.21Zm6-26.91h20.93v20.93H746.19Z"/><path d="M662.48,378.46H773.1v-29.9H662.48Zm6-23.92h98.66v17.94H668.46Z"/><path d="M717.73,669.09A19.74,19.74,0,1,0,698,649.35,19.77,19.77,0,0,0,717.73,669.09Zm0-33.85a14.1,14.1,0,1,1-14.1,14.1A14.12,14.12,0,0,1,717.73,635.24Z"/><path d="M772.11,700.12h-20.2l8.59-12.41c16.23-21.64,13.88-57.2-5-76.11a54.09,54.09,0,0,0-76.5,0c-18.91,18.9-21.26,54.47-5.09,76l8.65,12.5H661.36L630.47,765H803Zm-93.63-15.8c-14.66-19.56-12.56-51.67,4.5-68.74a48.45,48.45,0,0,1,68.52,0c17.06,17.06,19.17,49.18,4.44,68.82l-38.7,55.89-27.82-40.17h0Zm-13.55,21.44h21.53l30.78,44.44L748,705.76h20.54l25.52,53.59H639.4Z"/></svg>