<svg id="Layer_7" data-name="Layer 7" xmlns="http://www.w3.org/2000/svg" viewBox="0 0 871.69 862.28"><defs><style>.cls-1{fill:#dfce00;}.cls-2{fill:#fff;}.cls-3{fill:#bababa;}.cls-4{fill:#7f7f7f;}</style></defs><title>no_load_files</title><path class="cls-1" d="M661.87,444.38q.13,9.23.13,18.47c0,6.34-.15,12.66-.54,19-.37,5.83-.84,11.66-1.33,17.5-1,12.84-2.38,25.63-4.5,38.34q-1.63,9.71-3.25,19.43c-1,5.82-2,11.65-3.3,17.42-2.7,12.15-5.63,24.29-9,36.28a5.18,5.18,0,0,1-6.29,3.58,5.11,5.11,0,0,1-3.7-4.46,4.43,4.43,0,0,0,.13-1.09,4.74,4.74,0,0,0,0-.6.64.64,0,0,1,0-.15c.6-2.6,1.18-5.21,1.76-7.81,1.45-6.43,2.9-12.88,4.26-19.34,1.25-5.86,2.28-11.78,3.35-17.67s1.88-11.73,2.75-17.6,1.69-11.45,2.48-17.19c.56-4.83,1.07-9.66,1.56-14.5.43-4.55.74-9.12,1.07-13.68.42-5.83.9-11.68,1.23-17.52.37-6.28.58-12.53.56-18.81,0-12.46-.15-24.9-.74-37.34-.29-6-.78-12.06-1.18-18.08-.41-6.28-.7-12.57-.95-18.85-.23-6.1-.28-12.2-.35-18.29s-.19-12.23-.32-18.34c-.27-12.49-.22-25-1.21-37.5-.47-6-1-12-1.53-18-.58-6.34-1.2-12.67-1.65-19-.41-5.84-.77-11.7-.84-17.57-.08-6.13.12-12.25.35-18.39.24-6.41.43-12.81.24-19.22-.17-5.82-.82-11.59-1.53-17.34-.87-5.88-1.75-11.77-2.85-17.62a96.87,96.87,0,0,0-4.94-18.56A28.84,28.84,0,0,0,629,165a15.23,15.23,0,0,0-1.55-1.6,11,11,0,0,0-1.29-.75,16.73,16.73,0,0,0-2.71-.65c-3.13-.31-6.28-.54-9.43-.91s-6.29-.83-9.44-1.27c-3.72-.47-7.43-.91-11.15-1.29s-7.58-.88-11.38-1.09-7.53-.28-11.29-.43-7.65-.37-11.47-.6c-6.15-.37-12.29-.61-18.45-.69s-12.19-.09-18.29-.23c-5.88-.13-11.74-.47-17.6-.84-6.45-.4-12.89-.6-19.34-.68-6.25-.08-12.49.32-18.72.75-6,.42-12,1.45-18,2.12-3,.35-6,.69-9,.95-1.46.13-2.9.27-4.37.33-1.7.09-3.41.24-5.12.26-6,0-12-.06-18-.19s-12-.09-18-.06c-6.41,0-12.79-.09-19.2-.29-5.93-.19-11.87-.54-17.78-1.09-6.24-.58-12.46-1.42-18.68-2.08a153.39,153.39,0,0,0-18-.86c-6.1.05-12.21.15-18.29.59-6.61.46-13.2,1-19.78,1.66-5.78.52-11.59.77-17.38.84-6.73.09-13.44.24-20.16.54-5.91.26-11.82.87-17.69,1.5-6.23.68-12.44,1.46-18.68,2s-12.39.63-18.61.67c-4.32,0-8.63,0-13,0l-5.15,0a3.56,3.56,0,0,0-3.45-2.94,3.51,3.51,0,0,0-2.47,1,3.42,3.42,0,0,0-.95,1.92c-2.66,0-5.33,0-8,.1l1.75-1.7a37.49,37.49,0,0,0,6.73-5.37h0l0,0a3.43,3.43,0,0,0,1-1l5.1-.12c12.48-.24,25-.17,37.46-1.27,6.25-.56,12.47-1.39,18.7-2.11,5.84-.67,11.7-1.25,17.57-1.56,6.7-.35,13.4-.55,20.12-.72,5.82-.15,11.64-.51,17.43-1.13,6.55-.7,13.1-1.38,19.66-1.92,6.14-.52,12.3-.68,18.47-.79a151.34,151.34,0,0,1,18,.79c6.23.61,12.43,1.39,18.66,1.92,12.23,1,24.53,1.14,36.78,1,6.09-.08,12.16-.12,18.25,0l8.53.14c3,0,6,.14,9,0,3.34-.15,6.65-.33,10-.6,2.86-.24,5.73-.54,8.57-.9,6.07-.78,12.16-1.68,18.26-2.07,5.51-.37,11-.68,16.55-.68h2.1q9.78.13,19.54.75c5.83.37,11.66.69,17.5.81,6.07.13,12.14.13,18.2.27s12.23.41,18.31.91,12.37.91,18.56,1.34c6.34.46,12.65,1.36,19,2.24,5.64.78,11.24,1.87,16.87,2.71,3.29.42,6.57.75,9.87,1a28.17,28.17,0,0,1,3.57.5,15,15,0,0,1,5.12,2.17,18.06,18.06,0,0,1,4.81,5,36.17,36.17,0,0,1,3.31,6.41A96.53,96.53,0,0,1,645.61,186c1.2,6,2.19,12,3.17,18,.54,3.33.95,6.68,1.33,10,.32,2.84.63,5.7.75,8.56.08,1.62.22,3.27.23,4.9l0,5.12c0,3-.06,6-.13,9-.12,6.16-.23,12.32,0,18.47.19,5.83.56,11.68,1,17.48,1,12.62,2.53,25.19,3.72,37.8,1.14,12.17,1.25,24.43,1.66,36.64.2,6.1.42,12.19.58,18.29q.21,9.65.64,19.27c.28,6,.68,11.92,1.14,17.88.49,6.29,1.06,12.57,1.41,18.88C661.5,432.31,661.79,438.33,661.87,444.38Z"/><path class="cls-2" d="M649.27,464c0,6.28-.19,12.53-.56,18.81-.33,5.84-.81,11.69-1.23,17.52-.33,4.57-.64,9.13-1.07,13.68-.49,4.85-1,9.67-1.56,14.5-.79,5.74-1.62,11.46-2.48,17.19s-1.7,11.75-2.75,17.6-2.1,11.82-3.35,17.67c-1.36,6.46-2.81,12.9-4.26,19.34-.59,2.61-1.16,5.22-1.76,7.81a.64.64,0,0,0,0,.15,5.09,5.09,0,0,0-1.48-3.06,5,5,0,0,0-3.66-1.52c-5.64.38-11.29.52-16.95.47s-11.2-.08-16.8,0-11.08.29-16.61.4c-5.21.1-10.41,0-15.6,0-11.23-.09-22.43-.43-33.66-.33-10.93.1-21.87.18-32.82.29q-16.75.17-33.51.45c-11.14.18-22.28.35-33.4.78-10.74.42-21.43,1.48-32.15,2.31-5.65.43-11.32.9-17,1.15-5.86.28-11.7.43-17.56.5-11.15.13-22.33.14-33.49.17-10.87,0-21.75,0-32.62-.31q-9.73-.31-19.44-.79c-3.43-.18-6.85-.36-10.28-.64-3-.26-6-.63-9-1-5.69-.91-11.37-1.84-17.1-2.48-5.52-.61-11.06-.92-16.63-1.18S209.48,603.1,204,603q-8.81-.25-17.61-.58c-10.68-.38-21.32-1.39-32-1.39h-.54c-3,0-5.93.1-8.91.22-2.56.1-5.1.35-7.65.55s-5,.54-7.52.86c-2.83.35-5.64.7-8.48,1l-3.5.41c-2.28-8.88-4.67-17.73-7-26.58-2.54-9.57-5-19.16-7.21-28.81-.86-3.71-1.7-7.42-2.49-11.14s-1.5-7.4-2.26-11.09c-1.57-7.63-2.79-15.31-3.86-23-1.07-8.16-2.1-16.32-3.35-24.45s-2.7-16.45-3.89-24.7c0-.06,0-.12,0-.18q-3.72-28-5.13-56.25c-.45-9.48-.68-19-.63-28.47.05-9.92.15-19.85.22-29.79.13-19.16.19-38.32-.19-57.47-.09-4.4-.24-8.81-.33-13.21a4.18,4.18,0,0,0,0-1.69h0c0-1.25,0-2.51,0-3.75l.18-.09A61.65,61.65,0,0,1,89.53,261c2.43-.6,4.92-1,7.39-1.39,5-.81,10-1.87,15-2.65,3.59-.42,7.2-.73,10.79-1.1s7.37-.87,11-1.32a108,108,0,0,0,11.43-1.85,27.14,27.14,0,0,0,4.54-1.55,25.06,25.06,0,0,0,6.39-4.21,39,39,0,0,0,5.32-6,45.26,45.26,0,0,0,5.21-9.4,53.94,53.94,0,0,0,3.41-11.23A135.46,135.46,0,0,0,172.33,198c.18-5.83-.29-11.66-.42-17.48-.08-3-.08-6,0-9.07s.05-6.34.12-9.5a3.84,3.84,0,0,0,0-.55l5.15,0c4.32,0,8.63.06,13,0,6.22,0,12.42-.18,18.61-.67s12.46-1.28,18.68-2c5.87-.63,11.78-1.24,17.69-1.5,6.71-.29,13.43-.45,20.16-.54,5.79-.08,11.6-.32,17.38-.84,6.59-.61,13.17-1.2,19.78-1.66,6.07-.43,12.19-.54,18.29-.59a153.39,153.39,0,0,1,18,.86c6.23.67,12.44,1.51,18.68,2.08,5.91.55,11.84.9,17.78,1.09,6.41.2,12.79.32,19.2.29,6,0,12-.06,18,.06s12,.23,18,.19c1.7,0,3.41-.17,5.12-.26,1.47-.06,2.92-.2,4.37-.33,3-.26,6-.6,9-.95,6-.68,12-1.7,18-2.12,6.23-.43,12.47-.83,18.72-.75,6.45.08,12.89.28,19.34.68,5.86.37,11.71.72,17.6.84,6.1.14,12.19.17,18.29.23s12.3.32,18.45.69c3.82.23,7.63.46,11.47.6s7.53.24,11.29.43,7.6.69,11.38,1.09,7.43.82,11.15,1.29c3.15.43,6.28.88,9.44,1.27s6.29.6,9.43.91a16.73,16.73,0,0,1,2.71.65,11,11,0,0,1,1.29.75A15.23,15.23,0,0,1,629,165a28.84,28.84,0,0,1,2.76,4.91,96.87,96.87,0,0,1,4.94,18.56c1.1,5.86,2,11.74,2.85,17.62.72,5.75,1.37,11.52,1.53,17.34.19,6.41,0,12.81-.24,19.22-.23,6.14-.42,12.26-.35,18.39.08,5.87.43,11.73.84,17.57.45,6.36,1.07,12.69,1.65,19,.54,6,1.06,12,1.53,18,1,12.47.95,25,1.21,37.5.13,6.11.27,12.23.32,18.34s.12,12.19.35,18.29c.24,6.28.54,12.57.95,18.85.4,6,.88,12,1.18,18.08C649.12,439.06,649.25,451.5,649.27,464Z"/><path class="cls-1" d="M630.22,608.24a4.74,4.74,0,0,1,0,.6,4.43,4.43,0,0,1-.13,1.09A5,5,0,0,1,630.22,608.24Z"/><path class="cls-1" d="M630.22,608.24a5,5,0,0,0-.09,1.69,5.16,5.16,0,0,1-3.67,3.91l-1.38.19c-4.59.6-9.22,1.11-13.85,1.28-4.41.14-8.82.2-13.24.32-4.22.1-8.44.22-12.65.43s-8.38.5-12.58.52c-11,.1-22-.27-33-.52-11.32-.28-22.64-.22-33.94-.24-11.59,0-23.17,0-34.76,0-10.21,0-20.41.05-30.62,0-5.6,0-11.23-.06-16.83.08s-11.47.35-17.2.64c-11,.56-21.91,1.25-32.88,1.56-11.29.32-22.6.06-33.89,0-10.95-.06-21.88-.09-32.82-.32q-16.65-.35-33.24-1.52c-5.84-.41-11.64-.88-17.43-1.74-5.47-.82-10.93-1.84-16.4-2.74-4.59-.59-9.18-1.15-13.81-1.42q-7.67-.46-15.35-.75c-10.14-.42-20.28-.86-30.41-1.5-5.51-.35-11-.95-16.5-1.25s-10.92-.58-16.4-.51-10.86.32-16.25.93l-13.94,1.6a3.32,3.32,0,0,0,1-3.31c-.13-.52-.27-1-.4-1.56l3.5-.41c2.84-.33,5.65-.69,8.48-1,2.51-.32,5-.67,7.52-.86s5.09-.45,7.65-.55c3-.12,5.93-.22,8.91-.22h.54c10.69,0,21.33,1,32,1.39q8.81.33,17.61.58c5.47.14,10.95.2,16.41.46s11.1.56,16.63,1.18c5.73.64,11.41,1.57,17.1,2.48,3,.38,6,.75,9,1,3.43.28,6.85.46,10.28.64q9.73.5,19.44.79c10.87.35,21.75.33,32.62.31,11.16,0,22.34,0,33.49-.17,5.86-.06,11.7-.22,17.56-.5,5.68-.26,11.34-.72,17-1.15,10.72-.83,21.41-1.89,32.15-2.31,11.13-.43,22.27-.6,33.4-.78s22.34-.33,33.51-.45c10.95-.12,21.88-.19,32.82-.29,11.23-.1,22.43.24,33.66.33,5.19,0,10.4.12,15.6,0,5.54-.1,11.08-.32,16.61-.4s11.2-.05,16.8,0,11.31-.09,16.95-.47a5,5,0,0,1,3.66,1.52A5.09,5.09,0,0,1,630.22,608.24Z"/><path class="cls-1" d="M154.95,238.38s0,0,0,0c.46-.58.9-1.16,1.3-1.79.68-1,1.29-2,1.91-3a43.67,43.67,0,0,0,2.34-4.8c.41-1.1.82-2.2,1.18-3.31.43-1.33.81-2.65,1.15-4,.56-2.2.91-4.45,1.29-6.68q.48-4,.79-8c.13-1.68.22-3.35.29-5,.06-1.88.2-3.8.17-5.67-.08-3.73-.27-7.46-.47-11.18s-.32-7.53-.37-11.31.17-7.75.46-11.6c0-.19,0-.37.06-.55q3.43,0,6.87,0a3.84,3.84,0,0,1,0,.55c-.06,3.16-.06,6.33-.12,9.5s0,6,0,9.07c.13,5.82.6,11.65.42,17.48a135.46,135.46,0,0,1-2.23,22.28,53.94,53.94,0,0,1-3.41,11.23,45.26,45.26,0,0,1-5.21,9.4,39,39,0,0,1-5.32,6,25.06,25.06,0,0,1-6.39,4.21,27.14,27.14,0,0,1-4.54,1.55,108,108,0,0,1-11.43,1.85c-3.68.45-7.35.95-11,1.32s-7.2.68-10.79,1.1c-5,.78-10,1.84-15,2.65-2.47.4-5,.79-7.39,1.39a61.65,61.65,0,0,0-7.81,2.34l-.18.09c0-2.33,0-4.63,0-6.94,1.19-.43,2.4-.82,3.62-1.2a106.12,106.12,0,0,1,11.41-2.66c3.58-.68,7.12-1.5,10.7-2.16,3.79-.72,7.62-1.1,11.46-1.47,3.63-.35,7.26-.78,10.88-1.23,3.43-.42,6.85-.83,10.27-1.28a36.8,36.8,0,0,0,7.42-1.74,20.32,20.32,0,0,0,3.16-1.91A38.16,38.16,0,0,0,154.95,238.38Z"/><path class="cls-1" d="M171.94,161.44q-3.43,0-6.87,0a3.42,3.42,0,0,1,.95-1.92,3.51,3.51,0,0,1,2.47-1A3.56,3.56,0,0,1,171.94,161.44Z"/><path class="cls-1" d="M166.83,149.76a3.39,3.39,0,0,1-.19,3.7h-.12q-.46.5-1,1h0c-1,.59-1.89,1.21-2.81,1.88-1.37,1.1-2.65,2.29-3.91,3.49l-1,.61c-.68.4-1.37.77-2.06,1.13l1.32,0-.91.87-5.59,5.33c-2.93,2.8-5.79,5.69-8.7,8.53s-6.11,5.93-9,9c-5.72,6-11.24,12.25-16.38,18.76-2.39,3.29-4.77,6.56-7.09,9.9-4.85,6.93-9.72,13.84-14.45,20.85-2.4,3.57-5,7-7.53,10.46a48.14,48.14,0,0,0-3.07,5c-1,1.82-1.89,3.64-2.76,5.51,0-.75,0-1.51,0-2.26,0-1,0-1.93.05-2.89-2.37,3.11-4.71,6.22-7.06,9.31l-.9.61a14.5,14.5,0,0,1,.15-3.33,21.21,21.21,0,0,1,1.74-5.17A75.57,75.57,0,0,1,80.43,243c1.89-3,4.11-5.78,6.16-8.65,1.85-2.58,3.57-5.26,5.28-7.92,2.25-3.48,4.54-6.93,6.77-10.42s4.6-7.28,6.93-10.9c1.16-1.79,2.3-3.58,3.47-5.36,1.32-2,2.85-3.91,4.34-5.82,2.51-3.21,5.13-6.37,7.81-9.44,2.89-3.27,5.86-6.45,9-9.48s6.36-5.95,9.58-8.89c3-2.76,6.07-5.44,9.16-8.08q2.47-2.13,4.94-4.27a31.44,31.44,0,0,1,3.79-3,31,31,0,0,1,4.51-2.26,4.54,4.54,0,0,1,1.8-.46,2.77,2.77,0,0,1,.83.12A3.41,3.41,0,0,1,166.83,149.76Z"/><path class="cls-1" d="M166.52,153.46h.12a3.43,3.43,0,0,1-1,1l0,0Q166.06,154,166.52,153.46Z"/><path class="cls-2" d="M165.39,196.07c0,1.87-.1,3.79-.17,5.67-.08,1.66-.17,3.34-.29,5q-.31,4-.79,8c-.38,2.23-.73,4.48-1.29,6.68-.35,1.36-.72,2.67-1.15,4-.36,1.11-.77,2.21-1.18,3.31a43.67,43.67,0,0,1-2.34,4.8c-.61,1-1.23,2-1.91,3-.41.63-.84,1.21-1.3,1.79,0,0,0,0,0,0a38.16,38.16,0,0,1-4.49,4.49,20.32,20.32,0,0,1-3.16,1.91,36.8,36.8,0,0,1-7.42,1.74c-3.41.45-6.84.86-10.27,1.28-3.62.45-7.25.88-10.88,1.23-3.84.37-7.67.75-11.46,1.47-3.58.67-7.12,1.48-10.7,2.16a106.12,106.12,0,0,0-11.41,2.66c-1.21.38-2.43.77-3.62,1.2,0-.23,0-.47,0-.7.87-1.87,1.78-3.7,2.76-5.51a48.14,48.14,0,0,1,3.07-5c2.51-3.49,5.13-6.89,7.53-10.46,4.73-7,9.6-13.91,14.45-20.85,2.31-3.34,4.69-6.61,7.09-9.9,5.14-6.51,10.67-12.75,16.38-18.76,2.93-3.08,6-6,9-9s5.77-5.73,8.7-8.53l5.59-5.33.91-.87c2.67-.06,5.35-.09,8-.1,0,.18-.05.36-.06.55-.29,3.85-.52,7.74-.46,11.6s.18,7.53.37,11.31S165.32,192.34,165.39,196.07Z"/><path class="cls-1" d="M157.81,160.46l1-.61-1.75,1.7-1.32,0C156.44,161.22,157.13,160.85,157.81,160.46Z"/><path class="cls-1" d="M118.18,605.62a3.32,3.32,0,0,1-1,3.31l-3.48.4a3.29,3.29,0,0,1-1.68-2c-.24-.81-.49-1.62-.72-2.43a2.77,2.77,0,0,1,.56-.13l6-.7C117.91,604.59,118.05,605.1,118.18,605.62Z"/><path class="cls-1" d="M87.69,454.27c1.19,8.25,2.6,16.47,3.89,24.7s2.28,16.29,3.35,24.45c1.07,7.72,2.29,15.4,3.86,23,.77,3.68,1.48,7.39,2.26,11.09s1.64,7.43,2.49,11.14c2.23,9.66,4.67,19.25,7.21,28.81,2.35,8.85,4.74,17.7,7,26.58l-6,.7a2.77,2.77,0,0,0-.56.13c-2.3-7.76-4.53-15.58-6.71-23.38-2.57-9.08-5.05-18.19-7.33-27.34-1.13-4.51-2.29-9-3.33-13.56s-2-9.28-3-13.93c-1.93-9.08-3.16-18.31-4.39-27.51-1.13-8.35-2.29-16.69-3.68-25-1.55-9.18-3-18.36-4.14-27.6-2.46-19.09-4.05-38.28-5.06-57.49-.47-9.18-.6-18.38-.69-27.57q-.15-15.17-.32-30.35c-.12-9.63-.32-19.26-.56-28.9-.24-9.34-.61-18.68-.91-28-.06-2-.12-4-.15-6.07a3.22,3.22,0,0,0,.69.27,3.13,3.13,0,0,0,2.48-.33c.18-.13.35-.26.52-.37.06.43.14.88.22,1.32a3.48,3.48,0,0,0,6.34.83,3,3,0,0,0,.37-1c.09,4.4.24,8.81.33,13.21.38,19.16.32,38.32.19,57.47-.06,9.94-.17,19.86-.22,29.79-.05,9.5.18,19,.63,28.47q1.36,28.22,5.13,56.25C87.68,454.15,87.68,454.2,87.69,454.27Z"/><path class="cls-1" d="M113.65,609.33l3.48-.4a3,3,0,0,1-1.2.64A3.1,3.1,0,0,1,113.65,609.33Z"/><path class="cls-1" d="M113.65,609.33l-1.83.2a2.38,2.38,0,0,1-2.39-2.38,2.3,2.3,0,0,1,1.83-2.26c.23.81.47,1.62.72,2.43A3.29,3.29,0,0,0,113.65,609.33Z"/><path class="cls-1" d="M81.58,267.22a4.18,4.18,0,0,1,0,1.69c0-.22,0-.43,0-.65S81.58,267.56,81.58,267.22Z"/><path class="cls-1" d="M81.63,250.65c0,1,0,1.93-.05,2.89,0,.75,0,1.51,0,2.26l0,.09q-.15.36-.27.73a31.61,31.61,0,0,0-4.51,2c-.74.41-1.46.84-2.16,1.32C76.92,256.87,79.26,253.76,81.63,250.65Z"/><path class="cls-1" d="M81.59,268.25c0,.22,0,.43,0,.65a3,3,0,0,1-.37,1,3.48,3.48,0,0,1-6.34-.83c-.08-.43-.15-.88-.22-1.32a47.45,47.45,0,0,1,6.32-4c.18,1.16.37,2.33.59,3.48h0C81.58,267.56,81.58,267.91,81.59,268.25Z"/><path class="cls-1" d="M81.51,255.9l0-.09c0,.23,0,.47,0,.7l-.29.12Q81.36,256.26,81.51,255.9Z"/><path class="cls-1" d="M81.54,256.51c0,2.31,0,4.62,0,6.94a5.44,5.44,0,0,0-.55.27l0-.22a24.57,24.57,0,0,1-.29-4.85,16.06,16.06,0,0,1,.59-2Z"/><path class="cls-1" d="M81.54,263.46c0,1.24,0,2.49,0,3.75-.22-1.15-.41-2.31-.59-3.48A5.44,5.44,0,0,1,81.54,263.46Z"/><path class="cls-1" d="M80.95,263.51l0,.22a47.45,47.45,0,0,0-6.32,4c-.32-1.78-.59-3.57-.82-5.36-.05-.43-.1-.86-.14-1.28.29-.37.58-.75.86-1.14.7-.47,1.42-.91,2.16-1.32a31.61,31.61,0,0,1,4.51-2,16.06,16.06,0,0,0-.59,2A24.57,24.57,0,0,0,80.95,263.51Z"/><path class="cls-1" d="M74.67,267.74c-.18.12-.35.24-.52.37a3.13,3.13,0,0,1-2.48.33,3.22,3.22,0,0,1-.69-.27h0c0-1.13,0-2.26-.05-3.39.93-1.21,1.87-2.44,2.79-3.67,0,.42.09.84.14,1.28C74.08,264.17,74.35,266,74.67,267.74Z"/><path class="cls-1" d="M74.57,260c-.28.38-.56.77-.86,1.14l0-.52Z"/><path class="cls-1" d="M73.71,261.1c-.92,1.23-1.85,2.46-2.79,3.67,0,1.13,0,2.26.05,3.39a3,3,0,0,1-1.23-1.2,3.27,3.27,0,0,1-.33-2.47,3.5,3.5,0,0,1,1.48-1.93c.92-.65,1.83-1.33,2.78-2Z"/><rect class="cls-3" x="159.77" y="524.89" width="83.8" height="39.65"/><rect class="cls-3" x="272.74" y="524.89" width="83.8" height="39.65"/><rect class="cls-3" x="498.68" y="524.89" width="83.8" height="39.65"/><rect class="cls-3" x="385.71" y="524.89" width="83.8" height="39.65"/><rect class="cls-3" x="159.77" y="462.22" width="83.8" height="39.65"/><rect class="cls-3" x="272.74" y="462.22" width="83.8" height="39.65"/><rect class="cls-3" x="498.68" y="462.22" width="83.8" height="39.65"/><rect class="cls-3" x="385.71" y="462.22" width="83.8" height="39.65"/><rect class="cls-3" x="159.77" y="398.28" width="83.8" height="39.65"/><rect class="cls-3" x="272.74" y="398.28" width="83.8" height="39.65"/><rect class="cls-3" x="498.68" y="398.28" width="83.8" height="39.65"/><rect class="cls-3" x="385.71" y="398.28" width="83.8" height="39.65"/><rect class="cls-3" x="159.77" y="336.8" width="83.8" height="39.65"/><rect class="cls-3" x="272.74" y="336.8" width="83.8" height="39.65"/><rect class="cls-3" x="498.68" y="336.8" width="83.8" height="39.65"/><rect class="cls-3" x="385.71" y="336.8" width="83.8" height="39.65"/><rect class="cls-3" x="159.77" y="274.23" width="83.8" height="39.65"/><rect class="cls-3" x="272.74" y="274.23" width="83.8" height="39.65"/><rect class="cls-3" x="498.68" y="274.23" width="83.8" height="39.65"/><rect class="cls-3" x="385.71" y="274.23" width="83.8" height="39.65"/><rect class="cls-3" x="272.74" y="210.97" width="83.8" height="39.65"/><rect class="cls-3" x="498.68" y="210.97" width="83.8" height="39.65"/><rect class="cls-3" x="385.71" y="210.97" width="83.8" height="39.65"/><path class="cls-4" d="M454.4,464.63a176.07,176.07,0,0,0,0,136.32,174.93,174.93,0,0,0,93.31,93.47,181.35,181.35,0,0,0,44.12,12A176.1,176.1,0,0,0,683.74,694a187.41,187.41,0,0,0,19.73-9.78,181.08,181.08,0,0,0,19.07-12.72,187.8,187.8,0,0,0,32.32-32.36,182.29,182.29,0,0,0,22.32-38.33c0-.08.06-.17.1-.24a169.88,169.88,0,0,0,11.78-43.41,188.47,188.47,0,0,0,0-46.87,177,177,0,0,0-11.64-43.07,188.6,188.6,0,0,0-23.3-39.75,177.81,177.81,0,0,0-70.94-54.77,181,181,0,0,0-43.6-11.94,184.41,184.41,0,0,0-46.51,0,187.51,187.51,0,0,0-45.68,12.55,210.27,210.27,0,0,0-31.06,16.56,5.15,5.15,0,0,1-3.73.7c-.82.6-1.65,1.23-2.46,1.84a189.38,189.38,0,0,0-32.65,32.76,184.84,184.84,0,0,0-23,39.31Zm347.88,61.28A187.86,187.86,0,0,1,755.5,656.28a187.68,187.68,0,0,1-77.92,52.49,186.89,186.89,0,0,1-45.9,9.46,184.85,184.85,0,0,1-91.41-16.15,188.3,188.3,0,0,1-72.61-58.53A183.42,183.42,0,0,1,432.44,555a186.19,186.19,0,0,1,.45-47.11,183.35,183.35,0,0,1,67.63-118.37l.83-.65c2.15-1.68,4.31-3.3,6.52-4.89,0-.18.08-.36.13-.54a5.61,5.61,0,0,1,1.46-2.49c.38-.29.77-.59,1.14-.9,3.39-2.49,6.85-4.87,10.42-7.1a158,158,0,0,1,21-11.11,180.69,180.69,0,0,1,23.37-8.47,187.7,187.7,0,0,1,47-7c1.27,0,2.52,0,3.77,0a177.9,177.9,0,0,1,20.55,1.15,194.83,194.83,0,0,1,24.26,4.23,180.57,180.57,0,0,1,23,7.26,192.89,192.89,0,0,1,22,10.15A185.27,185.27,0,0,1,744.28,397a180.88,180.88,0,0,1,16.25,17.46A185.45,185.45,0,0,1,775,434.68a188.65,188.65,0,0,1,19.55,44.16,184.11,184.11,0,0,1,5.37,23.48A197.44,197.44,0,0,1,802.28,525.92Z"/><path class="cls-2" d="M789,510.26a188.47,188.47,0,0,1,0,46.87,169.88,169.88,0,0,1-11.78,43.41c0,.08-.06.17-.1.24a182.29,182.29,0,0,1-22.32,38.33,187.8,187.8,0,0,1-32.32,32.36,181.08,181.08,0,0,1-19.07,12.72,178.75,178.75,0,0,1-65,22.16,184.83,184.83,0,0,1-46.64,0,181.35,181.35,0,0,1-44.12-12A175.27,175.27,0,0,1,442.29,556.53a176,176,0,0,1,12.11-91.9l.08-.17a184.84,184.84,0,0,1,23-39.31,189.38,189.38,0,0,1,32.65-32.76c.81-.61,1.64-1.24,2.46-1.84a5.15,5.15,0,0,0,3.73-.7,210.27,210.27,0,0,1,31.06-16.56,187.51,187.51,0,0,1,45.68-12.55,184.41,184.41,0,0,1,46.51,0,181,181,0,0,1,43.6,11.94,177.81,177.81,0,0,1,70.94,54.77,188.6,188.6,0,0,1,23.3,39.75A177,177,0,0,1,789,510.26ZM701.11,617.71a25.38,25.38,0,0,0,.49-3.26,23.69,23.69,0,0,0-.58-4.35,22.54,22.54,0,0,0-1.16-2.9c-.46-1-.95-2-1.5-2.92-1-1.76-2.26-3.41-3.43-5.09a89.67,89.67,0,0,0-7.07-8.79,72.19,72.19,0,0,0-10.28-9.05,50.15,50.15,0,0,0-12-6.54,64.66,64.66,0,0,0-12.28-3.48,105.5,105.5,0,0,0-18.62-1.59q-3.89,0-7.78.24a145.74,145.74,0,0,0-26.43,4.21,167.91,167.91,0,0,0-25,8.71,188.73,188.73,0,0,0-22.79,11.86,75.88,75.88,0,0,0-10.22,7.33,25.53,25.53,0,0,0-3.82,4.14,16.64,16.64,0,0,0-2.84,5.31,6.1,6.1,0,0,0,11.73,3.36c.33-.59.68-1.16,1.06-1.71a34.84,34.84,0,0,1,3.76-3.5,112.57,112.57,0,0,1,12.3-7.62,167.73,167.73,0,0,1,15.51-7.65,146.52,146.52,0,0,1,34.61-9.73,117,117,0,0,1,28.76-.23,70.78,70.78,0,0,1,15,3.85,51.27,51.27,0,0,1,9,5.24c1.6,1.32,3.15,2.67,4.64,4.12a55.21,55.21,0,0,1,4.58,5.18A64.06,64.06,0,0,1,683,613.16c.17.45.31.91.45,1.37l-.12.78a9,9,0,0,0,13.58,7.8A8.86,8.86,0,0,0,701.11,617.71Zm-17.44-183.3a4.82,4.82,0,1,0-9.64,0c-.47,12.56-1,25.13-1.28,37.69-.29,11-.67,22-.81,33,0,.29,0,.6,0,.9a4.69,4.69,0,0,0,9.37,0q.92-35.34,2.33-70.68ZM563.31,471.78c.08-4,0-8.07,0-12.1q0-9.78-.13-19.55a5.56,5.56,0,0,0-11.11,0q.12,10.05.13,20.08c0,4.23.05,8.48,0,12.71-.1,4.83-.18,9.66-.32,14.49-.08,2.3-.15,4.6-.2,6.92l-.12,4.28a16.6,16.6,0,0,0,.12,3.9,6.18,6.18,0,0,0,2.16,3.68,5.32,5.32,0,0,0,2.31,1.36,5.22,5.22,0,0,0,4-.52,10.26,10.26,0,0,0,1.8-1.42,5.17,5.17,0,0,0,.79-6.15,4,4,0,0,0-.26-.38c.43-4.46.42-9,.55-13.47S563.23,476.4,563.31,471.78Z"/><path class="cls-4" d="M701.59,614.45a25.38,25.38,0,0,1-.49,3.26,8.86,8.86,0,0,1-4.16,5.4,9.12,9.12,0,0,1-7,.91,9,9,0,0,1-6.62-8.71l.12-.78c-.14-.46-.28-.92-.45-1.37a64.06,64.06,0,0,0-6.16-10.31,55.21,55.21,0,0,0-4.58-5.18c-1.5-1.45-3-2.8-4.64-4.12a51.27,51.27,0,0,0-9-5.24,70.78,70.78,0,0,0-15-3.85,117,117,0,0,0-28.76.23,146.52,146.52,0,0,0-34.61,9.73,167.73,167.73,0,0,0-15.51,7.65,112.57,112.57,0,0,0-12.3,7.62,34.84,34.84,0,0,0-3.76,3.5c-.38.55-.73,1.13-1.06,1.71a6.1,6.1,0,0,1-11.73-3.36,16.64,16.64,0,0,1,2.84-5.31,25.53,25.53,0,0,1,3.82-4.14,75.88,75.88,0,0,1,10.22-7.33,188.73,188.73,0,0,1,22.79-11.86,167.91,167.91,0,0,1,25-8.71A145.74,145.74,0,0,1,626.93,570q3.88-.25,7.78-.24a105.5,105.5,0,0,1,18.62,1.59,64.66,64.66,0,0,1,12.28,3.48,50.15,50.15,0,0,1,12,6.54,72.19,72.19,0,0,1,10.28,9.05,89.67,89.67,0,0,1,7.07,8.79c1.16,1.68,2.4,3.33,3.43,5.09.55,1,1,1.91,1.5,2.92a22.54,22.54,0,0,1,1.16,2.9A23.69,23.69,0,0,1,701.59,614.45Z"/><path class="cls-4" d="M678.84,429.59a4.85,4.85,0,0,1,4.82,4.82l0,.95q-1.36,35.34-2.33,70.68a4.69,4.69,0,0,1-9.37,0c0-.29,0-.6,0-.9.14-11,.51-22,.81-33,.32-12.56.81-25.13,1.28-37.69A4.88,4.88,0,0,1,678.84,429.59Z"/><path class="cls-4" d="M563.31,459.68c0,4,.08,8.07,0,12.1-.08,4.62-.12,9.22-.27,13.82s-.12,9-.55,13.47a4,4,0,0,1,.26.38,5.17,5.17,0,0,1-.79,6.15,10.26,10.26,0,0,1-1.8,1.42,5.22,5.22,0,0,1-4,.52,5.32,5.32,0,0,1-2.31-1.36,6.18,6.18,0,0,1-2.16-3.68,16.6,16.6,0,0,1-.12-3.9l.12-4.28c.05-2.31.13-4.62.2-6.92.14-4.83.22-9.66.32-14.49.08-4.23,0-8.48,0-12.71q0-10-.13-20.08a5.56,5.56,0,0,1,11.11,0Q563.28,449.91,563.31,459.68Zm-.88,42.13c0-.24-.06-.47-.09-.7A3.42,3.42,0,0,0,562.43,501.81Z"/></svg>