<svg xmlns="http://www.w3.org/2000/svg" viewBox="0 0 871.69 862.28"><defs><style>.cls-1{fill:#7f7f7f;}.cls-2{fill:#fff;}.cls-3{fill:#d1b00d;}</style></defs><title>quick_document_review</title><g id="Layer_10" data-name="Layer 10"><path class="cls-1" d="M517.07,601.3q.05,26.48-.08,53c0,8.91-.09,17.82-.1,26.73,0,8.74,0,17.48-.07,26.24a3.39,3.39,0,0,1-3.36,3.35c-11.61.12-23.22.09-34.82.11q-106,.17-211.88.38c-35.94.12-71.87.37-107.81.55-17.65.08-35.32.16-53,.35l-26.13.27-13.48.13c-2,0-4,0-6,.07l-5.64.2a2.59,2.59,0,0,1-1.89-.78A2.85,2.85,0,0,1,52,710c-.1-1.24-.09-2.47-.11-3.71l0-3c-.19-17-.27-33.92-.44-50.89-.16-17.34-.34-34.67-.44-52q-.3-53.9-.45-107.81-.07-31.28,0-62.58a3.65,3.65,0,0,1-.07-.51q-.29-13.72-.4-27.42t-.18-27.5q-.22-44.48-.48-88.93h.06a3.11,3.11,0,0,0,2.18-.9,3.28,3.28,0,0,0,.9-2.18c0-.39.09-.79.15-1.17a13.58,13.58,0,0,1,.8-2.81c.39-.89.81-1.74,1.27-2.6l.3,46.73.37,53.95q.08,13.23.13,26.46c0,8.78,0,17.56-.08,26.35a3,3,0,0,1,0,.45q.49,35.11.82,70.2.52,53.8.81,107.62.12,25.74.17,51.48c0,8.61.07,17.23.1,25.84,0,4.33,0,8.65.06,13,0,2.09,0,4.18,0,6.27,0,1,0,2,0,3.07,2,0,3.94.08,5.91.08h8.18l17.71,0q26.29-.05,52.57-.19,27.26-.19,54.52-.38l52.88-.35c17.73-.11,35.47-.35,53.23-.52s35.24-.35,52.86-.53,35.19-.29,52.79-.51q26.82-.3,53.62-.6l26.46-.28c7.29-.07,14.59-.17,21.88-.2-.15-9-.25-17.95-.37-26.92-.13-10-.34-20-.48-30.08q-.47-30.32-.76-60.67Q508,532.59,507.6,479q-.32-53.8-.52-107.59-.29-54.07-.33-108.14-.1-52.18-.31-104.38c-2.11,0-4.23,0-6.34,0l-9.64.08c-6.48.06-13,.09-19.45.16-17.71.19-35.42.52-53.13.75q-26.14.34-52.27.56-26.41.24-52.85.44c-17.71.13-35.41.16-53.11.21-17.91,0-35.81.13-53.73.16q-26.38.05-52.77.07l-13.63,0c.57-.78,1.16-1.55,1.74-2.33,1.57-1.94,3.17-3.83,4.85-5.66a1.41,1.41,0,0,0,.2-.27q22.91-.22,45.84-.48,53.4-.59,106.81-1c17.62-.15,35.25-.18,52.87-.24s35.12-.1,52.67-.12,35.13.08,52.7.11q13.4,0,26.81,0l14-.06c2.38,0,4.78-.06,7.16-.06,1.66,0,3.33,0,5,.08a3.77,3.77,0,0,1,3.71,3.72q.54,61.61,1.12,123.24.29,27.39.54,54.78.22,26.77.4,53.53.4,53.87.75,107.74Q516.94,547.8,517.07,601.3Z"/><path class="cls-2" d="M509.68,677c.12,9,.22,18,.37,26.92-7.29,0-14.59.13-21.88.2l-26.46.28q-26.82.27-53.62.6c-17.6.21-35.19.34-52.79.51s-35.24.37-52.86.53-35.5.4-53.23.52l-52.88.35q-27.26.17-54.52.38-26.28.17-52.57.19l-17.71,0H63.35c-2,0-3.94,0-5.91-.08,0-1,0-2,0-3.07,0-2.09,0-4.18,0-6.27,0-4.33,0-8.65-.06-13,0-8.62-.09-17.24-.1-25.84q-.07-25.74-.17-51.48-.25-53.8-.81-107.62-.35-35.09-.82-70.2a3,3,0,0,0,0-.45c.08-8.79.12-17.57.08-26.35s-.08-17.64-.13-26.46l-.37-53.95L54.78,276c1.69-3.19,3.73-6.18,5.71-9.2,1.63-2.51,3.38-4.94,5.09-7.41,3.09-4.45,6.23-8.87,9.33-13.3,3.26-4.69,6.51-9.38,9.89-14s7-9.29,10.44-14q2.78-3.83,5.54-7.66,2.9-4,5.88-8c1.78-2.24,3.55-4.45,5.38-6.65,1.7-2,3.43-4.06,5.15-6.07,3.83-4.48,7.65-9,11.37-13.56q3.62-4.45,6.92-9.12c.94-1.33,1.85-2.67,2.81-4,.4-.56.82-1.13,1.25-1.7l13.63,0q26.4,0,52.77-.07c17.92,0,35.82-.11,53.73-.16,17.7-.06,35.4-.08,53.11-.21s35.24-.28,52.85-.44q26.14-.24,52.27-.56c17.71-.24,35.42-.56,53.13-.75,6.48-.07,13-.1,19.45-.16l9.64-.08c2.11,0,4.23,0,6.34,0q.19,52.2.31,104.38.12,54.09.33,108.14.27,53.8.52,107.59.32,53.62.83,107.26.27,30.34.76,60.67C509.34,656.91,509.55,666.93,509.68,677Z"/><path class="cls-1" d="M146.12,150.25a2.19,2.19,0,0,1,.2,2.83l-6.12.06c.91-1,1.85-1.93,2.82-2.89a2.25,2.25,0,0,1,1.56-.63A2.18,2.18,0,0,1,146.12,150.25Z"/><path class="cls-1" d="M146.32,153.08a1.41,1.41,0,0,1-.2.27c-1.69,1.83-3.28,3.72-4.85,5.66-.58.78-1.17,1.55-1.74,2.33h-5.6l1.58-2.81.49-.64q2-2.48,4.19-4.76Z"/><path class="cls-1" d="M139.12,153.15h1.08Q138,155.43,136,157.9l-.49.64c1-1.79,2-3.57,3-5.38Z"/><path class="cls-1" d="M130,166c1.83-2.48,3.63-5,5.55-7.42l-1.58,2.81h5.6c-.43.56-.84,1.13-1.25,1.7-1,1.31-1.87,2.66-2.81,4q-3.3,4.69-6.92,9.12c-3.72,4.57-7.54,9.08-11.37,13.56-1.72,2-3.45,4-5.15,6.07-1.83,2.2-3.61,4.42-5.38,6.65q-3,4-5.88,8-2.76,3.84-5.54,7.66c-3.43,4.71-7,9.32-10.44,14s-6.63,9.29-9.89,14c-3.1,4.44-6.24,8.85-9.33,13.3-1.71,2.46-3.46,4.9-5.09,7.41-2,3-4,6-5.71,9.2,0-.83,0-1.66,0-2.49-1.8,2.39-3.6,4.8-5.36,7.21,0,1.64,0,3.29,0,4.93a3.07,3.07,0,0,1-2.12-.9,3,3,0,0,1-.91-2.18,19.56,19.56,0,0,1,1.07-5.39,39.83,39.83,0,0,1,2.37-5.06c1.06-1.88,2.22-3.69,3.42-5.48,1.52-2.29,3.08-4.56,4.65-6.83,2.79-4,5.69-8,8.53-11.92,3.21-4.48,6.36-9,9.59-13.48q5.24-7.23,10.65-14.33c3.4-4.48,6.71-9,10-13.6,1.73-2.4,3.51-4.79,5.28-7.17,1.08-1.44,2.25-2.83,3.36-4.24.84-1,1.71-2.06,2.56-3.09,7.24-8.63,14.92-16.87,21.88-25.72Z"/><path class="cls-1" d="M54.77,273.51c0,.83,0,1.66,0,2.49-.46.85-.88,1.71-1.27,2.6a13.58,13.58,0,0,0-.8,2.81c-.06.38-.1.78-.15,1.17a3.28,3.28,0,0,1-.9,2.18,3.11,3.11,0,0,1-2.18.9h-.06c0-1.64,0-3.29,0-4.93C51.17,278.3,53,275.9,54.77,273.51Z"/><path class="cls-1" d="M398.75,255.57c-9.48.07-19,.17-28.44.36s-19,.18-28.55.29c-9.31.11-18.6.45-27.9.89-2.65.13-5.3.19-7.95.36-2.95.18-5.88.41-8.83.68-1.57.14-3.14.4-4.7.6-1.8.23-3.59.55-5.39.85-3.5.59-7,1.32-10.49,1.85a33.72,33.72,0,0,1-6.45.18,51.64,51.64,0,0,1-8.86-2.47,32.46,32.46,0,0,0-12-2,53.26,53.26,0,0,0-7.07.85c-1.38.23-2.75.52-4.11.86-1.62.4-3.25.79-4.87,1.22-3.45.94-6.91,1.83-10.39,2.7-1.68.42-3.41.68-5.1,1-1.48.3-3,.49-4.47.72a70,70,0,0,1-10.16.74,55.12,55.12,0,0,1-6-.55c-4.59-.75-9.12-1.67-13.63-2.82-3.71-.94-7.47-2-11.33-1.58a38.48,38.48,0,0,0-7.19,1.59l-5.1,1.53a3.16,3.16,0,0,0,1.68,6.1,89.82,89.82,0,0,1,10.46-2.83,18.09,18.09,0,0,1,3.31,0,70.74,70.74,0,0,1,8.39,2.25c2,.61,4.09,1.17,6.15,1.63,2.32.52,4.64,1,7,1.4a52.41,52.41,0,0,0,11.18.73c2.8-.14,5.6-.51,8.37-.91,2.56-.37,5.08-.8,7.62-1.27,4.31-.8,8.52-2.12,12.8-3.1,2.62-.6,5.21-1.19,7.87-1.61a36.71,36.71,0,0,1,7.84-.23,29.4,29.4,0,0,1,6,1.74l3.06,1.24a33.38,33.38,0,0,0,8.24,2.08,35.56,35.56,0,0,0,9.28-.27c4.53-.61,9-1.42,13.57-2.12,2.07-.23,4.13-.47,6.2-.63,2.41-.18,4.82-.31,7.24-.42,4.65-.22,9.32-.23,14-.34,9.33-.22,18.66-.21,28-.18l14.33,0c4.61,0,9.22-.11,13.83-.16,9.33-.12,18.66-.07,28-.07h3.9a138.89,138.89,0,0,1,19,.76,5,5,0,0,0,2.51-.68,5,5,0,0,0-1.19-9.08,85,85,0,0,0-8.6-1.43,58.74,58.74,0,0,0-6.57-.52q-4.27-.05-8.55-.05l-5.88,0Z"/><path class="cls-1" d="M425.86,327c-3.28.11-6.55.23-9.82.43s-6.32.42-9.47.63c-6,.39-11.88,1.33-17.79,2.2-1.92.2-3.83.42-5.75.51-2.44.11-4.88.15-7.33.16q-6.32,0-12.63.19c-1,0-2.08.12-3.13.18s-2.11.1-3.16.18l-6.26.52-7.12.58c-2.45.2-4.92.27-7.37.41-1.25.07-2.51.06-3.76,0h-1.56c-1.78,0-3.54,0-5.31-.1-2.06-.12-4.15-.16-6.2-.38l-6.38-.7c-2.73-.39-5.46-.78-8.17-1.26-3.13-.56-6.22-1.26-9.31-2a59,59,0,0,0-10.1-1.53,72.3,72.3,0,0,0-13.8,1c-3.62.49-7.22,1.07-10.83,1.61-2.84.37-5.68.73-8.54.91-1.58.1-3.17.12-4.76.12s-3.2,0-4.78-.09l-7.65-.53c-2.1-.14-4.19-.35-6.29-.53s-4.39-.29-6.59-.43c-4.24-.25-8.52-.25-12.77-.33-2.08,0-4.17-.11-6.25-.11s-4.17-.08-6.25,0c-4,.18-7.93.37-11.87.91q-5.36.73-10.71,1.5-3.41.42-6.84.68a38.2,38.2,0,0,1-7.11-.09,9.86,9.86,0,0,1-1.15-.3l-.1-.2a2,2,0,0,1-.05-.36,2.82,2.82,0,0,0-5.15-.68,3,3,0,0,0-.28,2.17,6,6,0,0,0,1.86,3.31,7.65,7.65,0,0,0,4.28,1.62,36.74,36.74,0,0,0,4.76.34c1.71,0,3.43-.18,5.14-.3,3.74-.27,7.46-.89,11.16-1.41h0c3.9-.52,7.82-1.08,11.75-1.22,2.23-.08,4.45-.17,6.68-.14s4.45.07,6.68.15c4.57.16,9.13.33,13.69.58s9,.74,13.5,1.23a147.61,147.61,0,0,0,16.76,1,105.92,105.92,0,0,0,13.88-1.22l6.72-.92c3-.36,6-.71,9-.87a48.44,48.44,0,0,1,8.16.24c2.9.45,5.69,1.27,8.53,2l3.71,1c1.06.27,2.16.45,3.24.67,4.61,1,9.25,1.63,13.91,2.25,2.1.28,4.18.48,6.29.65s4,.33,6.09.36c2.21,0,4.43.17,6.64.09l7.55-.27c2.34-.08,4.67-.28,7-.42l6.31-.36c4.19-.24,8.4-.2,12.6-.18,4.45,0,8.89.32,13.34.27a112.84,112.84,0,0,0,12.64-1.1c2.31-.29,4.64-.59,7-.77q4-.31,8.06-.57c5.21-.34,10.39-1,15.56-1.69l1.28-.18a4.78,4.78,0,0,0,2.12-1.24A4.82,4.82,0,0,0,426,327ZM159,331.2l.05.12h0l0-.11Zm.06.19,0,0,.11.25a2,2,0,0,1-.13-.27Zm.27.33.1.14-.1-.14Zm111.77,3.51-.49.07.49-.07Z"/><path class="cls-1" d="M418.39,399.74c-2.85,1.08-5.73,2.11-8.63,3a98.81,98.81,0,0,1-15.4,4c-2.86.33-5.71.4-8.58.5-.75,0-1.5,0-2.24,0-1,0-2,0-3.07-.08-4.08-.24-8.13-.53-12.19-1-2.09-.25-4.17-.51-6.26-.77-1.71-.22-3.43-.44-5.15-.57-2.1-.16-4.19-.32-6.29-.42-1.81-.08-3.63-.15-5.45-.24-4.13-.21-8.25-.43-12.38-.63-3.65-.17-7.31-.26-11-.46-4.06-.22-8.09-.58-12.12-1.05-1.86-.22-3.72-.47-5.59-.64l-3.27-.3c-1.13-.11-2.28-.1-3.41-.15-.6,0-1.2,0-1.8,0s-1.36,0-2,.06c-1.63.16-3.28.27-4.91.53-1.46.23-3,.4-4.4.7l-4.84,1c-2.8.58-5.59,1.28-8.39,1.89-3,.64-6,1.24-9,1.66-2.15.27-4.31.47-6.48.55a50.2,50.2,0,0,1-7.86-.36,100,100,0,0,1-14.14-3.61,37.83,37.83,0,0,0-13.83-1.77c-2,.08-3.9.28-5.85.44a101.13,101.13,0,0,1-11.71,0l-11.77-.4c-1.47-.05-2.93-.13-4.4-.17-1,0-2-.07-2.94-.08a51.31,51.31,0,0,0-7.65.56,64.68,64.68,0,0,0-6.39,1.31,66.74,66.74,0,0,0-7.1,2.21c-4.63,1.69-9.08,3.9-13.54,6a4.11,4.11,0,0,0-1.95,2.53,4.25,4.25,0,0,0,3,5.22,4.51,4.51,0,0,0,3.27-.43c3-1.4,6-2.81,9-4.13a66.08,66.08,0,0,1,15.16-4.22c4.73-.52,9.45,0,14.17.33,3.71.23,7.43.44,11.14.66a98.91,98.91,0,0,0,10,.36c1.68-.07,3.34-.19,5-.31,1.06-.07,2.11-.15,3.17-.22a40.15,40.15,0,0,1,6.68.15c2.42.41,4.78,1.07,7.16,1.67,2.18.55,4.35,1,6.55,1.5a58.47,58.47,0,0,0,6.42.9,52.06,52.06,0,0,0,9.1,0,89.36,89.36,0,0,0,11.3-1.79c3.92-.83,7.8-1.85,11.68-2.9,2-.54,4-1,6-1.54,1.79-.45,3.61-.79,5.42-1.16,1.06-.22,2.15-.36,3.22-.52l3-.28c1-.09,2-.06,3-.08,1.83,0,3.68.07,5.51.2,4.14.29,8.27.65,12.42.88,3.72.21,7.44.26,11.17.38,4,.12,8,.29,12.05.49s7.78.36,11.67.55,7.91.74,11.83,1.26a150.14,150.14,0,0,0,23.64,1.64l2.67-.07a48.42,48.42,0,0,0,7.12-.84,72.51,72.51,0,0,0,11-3.07q5.75-2,11.32-4.44a2.44,2.44,0,0,0,1.13-2.77,2.58,2.58,0,0,0-2.35-1.83,1.88,1.88,0,0,0-.67.12Z"/><path class="cls-1" d="M432,472.95c-3.91.39-7.78,1.1-11.64,1.79-3,.52-5.92,1.07-8.83,1.8l-6.18,1.54c-1.27.32-2.53.75-3.79,1.13-5.91,1.79-11.81,3.68-17.94,4.6a58.9,58.9,0,0,1-7.53.42c-1.4,0-2.8,0-4.2-.09l-5.95-.17c-4.12-.11-8.24-.13-12.36-.15-3.62,0-7.25-.11-10.86-.32-4.17-.24-8.33-.54-12.49-.79-7.6-.47-15.21-.39-22.81-.87q-6.16-.39-12.3-1c-3.77-.38-7.55-.81-11.33-1-8.08-.38-16.16-.49-24.25-.74-7.56-.23-15.11-.84-22.66-1.26-7.83-.44-15.67-1-23.51-1.06-4,0-8,0-11.94.17-2,.09-4,.21-6,.36s-3.88.37-5.83.6c-1.7.21-3.4.43-5.09.71A102.81,102.81,0,0,0,173.9,481a119.07,119.07,0,0,0-19.56,7.84,2.85,2.85,0,0,0,.68,5.21,3,3,0,0,0,2.2-.29c2.68-1.3,5.36-2.53,8.1-3.69l-.68.29a94.27,94.27,0,0,1,11.46-4,97.37,97.37,0,0,1,11.39-2.37c3.71-.38,7.41-.78,11.13-.83s7.59-.14,11.38,0c2,.09,4,.13,5.94.27l6.4.45c4.07.29,8.14.64,12.21,1,7.8.64,15.59,1.32,23.4,1.83,3.89.25,7.8.33,11.7.44s7.58.22,11.36.39c4.07.18,8.12.48,12.18.82,3.59.3,7.17.65,10.76.84,8.18.42,16.37.47,24.55.79,3.57.14,7.13.47,10.69.74,4.19.32,8.37.61,12.57.82,3.69.19,7.37.26,11.06.44,4.66.24,9.31.53,14,.65A59.82,59.82,0,0,0,391.92,491c2.92-.69,5.81-1.55,8.68-2.42l6.39-1.94c1.5-.46,3-.81,4.53-1.21s3-.84,4.49-1.16l6.22-1.33c3.59-.77,7.2-1.54,10.83-2.08a4,4,0,0,0,1.78-1,4,4,0,0,0,0-5.72,4,4,0,0,0-2.62-1.19Z"/><path class="cls-1" d="M330.07,558.09c-1.88,0-3.78,0-5.66.11s-3.86.18-5.77.39c-2.32.25-4.65.46-7,.78l-6,.83L300,561l-6,.67c-1.84.21-3.7.25-5.55.37-3.78.23-7.58.31-11.37.48-7.19.33-14.34,1.2-21.49,2-2.7.29-5.39.6-8.09.82a86.31,86.31,0,0,1-17.2-.18,50.45,50.45,0,0,1-7-1.59c-1.12-.34-2.23-.74-3.33-1.11-1.88-.64-3.76-1.29-5.64-1.95a39.13,39.13,0,0,0-13.51-2.21,86.77,86.77,0,0,0-10.7,1.1c-3.56.51-7.11,1.11-10.64,1.85-3.7.78-7.42,1.55-11.07,2.53l-4,1.08-2.17.59a2.45,2.45,0,0,0-3.93-2.81c-.5.52-1,1-1.5,1.58a9,9,0,0,0-2.05,2.82,3.06,3.06,0,0,0,2,3.84,6.49,6.49,0,0,0,2.7.14,23.16,23.16,0,0,0,2.95-.51c3-.71,5.89-1.55,8.87-2.21l5.14-1.14c1.37-.31,2.77-.52,4.14-.78,2.59-.49,5.18-.88,7.78-1.28,5.35-.65,10.76-1.43,16.14-.81a40.58,40.58,0,0,1,7.1,1.87c1.15.4,2.26.9,3.38,1.36l5.51,2.25a44,44,0,0,0,5.14,1.73,54,54,0,0,0,8.34,1.38c2.53.26,5.08.33,7.62.36s5.28,0,7.91-.25q6-.47,12-1c3.5-.31,7-.58,10.52-.75q4.77-.22,9.53-.36c2.61-.08,5.21-.11,7.81-.25,1.4-.07,2.83-.08,4.23-.23l5.21-.55c3-.32,6.07-.78,9.09-1.19l-1.16.15,6.17-.82,5.8-.62c1.93-.2,3.88-.26,5.82-.4s3.8-.08,5.69-.12c.63,0,1.26,0,1.88.06l3.74.14c3.57.13,7.15.54,10.71.85q6,.53,11.91,1c3.67.28,7.35.4,11,.54,3.52.13,7,.26,10.57.26,1.88,0,3.77.07,5.64,0s4-.08,5.93-.25c4-.32,7.91-.63,11.83-1.3l2.77-.47c1-.17,2-.39,3-.55.65-.06,1.3-.11,2-.13a24.64,24.64,0,0,1,3.27.21l1.19.14c.81.14,1.6.28,2.4.47a3.79,3.79,0,0,0,4.28-5.57,4,4,0,0,0-2.27-1.74,35.76,35.76,0,0,0-9.48-2,31.23,31.23,0,0,0-6.66.61l-3.31.52,1.18-.16-4.73.65-5.4.52c-.81.08-1.64.09-2.46.13l-3.59.19c-1.31.07-2.62.06-3.94.06H379.8c-1.8,0-3.59,0-5.38-.07-7.34-.13-14.7-.46-22-1.15-3.79-.36-7.58-.77-11.38-1.07-1.78-.14-3.56-.32-5.35-.4s-3.44-.23-5.16-.23Z"/><path class="cls-1" d="M296.78,633.21c-1.93.15-3.86.26-5.78.48l-7.07.81c-2.33.27-4.64.65-7,1l-4.91.72-4.93.75-6,.76a87.28,87.28,0,0,1-12.26.63c-4.86-.07-9.72-.42-14.57-.72-4.58-.29-9.16-.58-13.74-.65a86.25,86.25,0,0,0-14.93.91l-7.37,1.17c-1.8.29-3.56.7-5.34,1.09-2,.43-3.92.84-5.87,1.29l-8.19,1.91c-1.68.39-3.36.74-5,1.1-3,.65-6,1.14-9.08,1.57a25.21,25.21,0,0,1-5.32.24,21,21,0,0,1-2.91-.86,2.92,2.92,0,0,0-3.3,4.29,3.09,3.09,0,0,0,1.75,1.34,17.4,17.4,0,0,0,5.17,1.13,35.87,35.87,0,0,0,7-.61c4.17-.58,8.3-1.38,12.42-2.3l9.8-2.19c3.07-.68,6.17-1.26,9.25-1.9,1.36-.28,2.77-.4,4.14-.59l4.09-.58a93.29,93.29,0,0,1,15.89-.36l6.52.47c4.06.3,8.11.72,12.17,1,3.62.3,7.25.58,10.88.6a67,67,0,0,0,7.27-.25l3.2-.33c4.28-.44,8.55-1,12.82-1.53,4.82-.63,9.64-1.15,14.48-1.62,2.35-.23,4.71-.35,7.06-.5a89.81,89.81,0,0,1,16.23.39c2.24.33,4.46.77,6.67,1.29l4,.95,5.19,1.19a73.77,73.77,0,0,0,9.35,1.42,75.2,75.2,0,0,0,12.34.1c1.73-.12,3.45-.36,5.17-.54,2.74-.31,5.47-.7,8.2-1.09l6.64-.77a68.12,68.12,0,0,1,16.25.12c2.89.41,5.78.86,8.67,1.29l4,.58c1.46.21,2.91.38,4.38.46s3.06.05,4.59,0c3.47-.11,6.94-.58,10.39-.93,2.26-.23,4.53-.53,6.76-.94a3.56,3.56,0,0,0,2.19-1.69,3.68,3.68,0,0,0-1.32-5l-.88-.37a3.69,3.69,0,0,0-2,0l-.31,0c-2.05.23-4.11.41-6.17.56-4.94.37-9.87.82-14.81.27-5.38-.79-10.7-1.89-16.09-2.57-2.27-.29-4.54-.47-6.83-.57a69.82,69.82,0,0,0-7.36.18c-2.21.14-4.41.4-6.61.63-3,.3-5.91.75-8.87,1.05-2,.21-4,.46-6,.59a76.83,76.83,0,0,1-14.61-.35c-4.82-.71-9.55-1.9-14.3-3a78.54,78.54,0,0,0-17.58-1.91q-3.8,0-7.6.31Zm126.47,4.87-.42.06.42-.06Z"/><path class="cls-3" d="M821.61,553.25a3.74,3.74,0,0,1,3.71,3.7c-.28,35-.25,69.93-.25,104.9a3.48,3.48,0,0,1-3.46,3.46c-1.55,0-3.1,0-4.64-.07-.92,0-1.84-.15-2.76-.16l-7-.06c-5,0-10-.12-15-.1-9.5,0-19,.18-28.49.33q-32.36.46-64.69.74c-8.33.07-16.64.18-25,.22s-16.77.08-25.16.11l-49.14.24q-50.89.25-101.77.09c-17-.07-34.07-.15-51.12-.45-8.43-.16-16.86-.38-25.28-.53-8.2-.15-16.41-.21-24.62-.35q-25.3-.44-50.63-.52l-24.61-.09c-4.38,0-8.76,0-13.15-.07l-5.9-.06h-2l-.73-.1-2-.7a2,2,0,0,1-1.47-1.94c.17-7,.2-14.09.25-21.15a3.32,3.32,0,0,1-1.51-2.74q-.19-20.41-.33-40.83c-.06-6.91-.09-13.82-.19-20.74q-.13-9.71-.28-19.43a4.09,4.09,0,0,1,4-4.07h0q63.27.72,126.56.87c68.14.19,136.29-.12,204.43-.46q50.67-.25,101.32-.15,24.74,0,49.52.09c8,0,16,0,24.06-.06,3.67,0,7.37,0,11-.1,1.28,0,2.55,0,3.82.06l.89.08.39,0Zm-3.46,105.18c0-32.54,0-65.08-.21-97.61-1.8,0-3.6,0-5.4,0q-7.33-.07-14.66-.11c-10,0-20,0-30.08,0q-31.3.08-62.61.07-25.7,0-51.41,0c-17-.07-33.92-.19-50.88-.27q-51.22-.22-102.46-.31Q401.5,560,302.55,561l-.24,16.43c-.1,6.92-.12,13.84-.18,20.77q-.13,19.89-.33,39.79a3.34,3.34,0,0,1-1.49,2.74c0,6.15.07,12.29.18,18.44a7.44,7.44,0,0,1,1.22,0l3.93,0,8-.06,17.35-.08c10.93,0,21.86,0,32.79-.13,11.42-.1,22.83-.29,34.25-.44,10.87-.16,21.74-.27,32.61-.53q25.64-.61,51.3-.73c17.15-.09,34.31-.1,51.46-.12,33.29,0,66.61.15,99.91.31,16.56.08,33.12.09,49.67.26,16.39.17,32.78.29,49.17.47,15.64.17,31.28.46,46.93.63,7.11.08,14.21.17,21.33.09l11.26-.12h2.56c.63,0,1.25-.08,1.88-.11S817.46,658.44,818.14,658.43Z"/><path class="cls-2" d="M817.93,560.81c.24,32.53.22,65.07.21,97.61-.69,0-1.38,0-2.07.07s-1.25.11-1.88.11h-2.56l-11.26.12c-7.11.08-14.21,0-21.33-.09-15.64-.17-31.28-.46-46.93-.63-16.39-.18-32.78-.3-49.17-.47-16.55-.17-33.1-.18-49.67-.26-33.29-.17-66.61-.36-99.91-.31-17.16,0-34.32,0-51.46.12s-34.21.33-51.3.73c-10.87.26-21.74.37-32.61.53-11.42.15-22.83.34-34.25.44-10.93.11-21.86.1-32.79.13l-17.35.08-8,.06-3.93,0a7.44,7.44,0,0,0-1.22,0c-.11-6.15-.15-12.29-.18-18.44a3.34,3.34,0,0,0,1.49-2.74q.19-19.89.33-39.79c.06-6.92.08-13.84.18-20.77l.24-16.43q98.92-1.1,197.87-.83,51.22.08,102.46.31c17,.08,33.92.2,50.88.27q25.7.1,51.41,0,31.32,0,62.61-.07c10,0,20.06-.06,30.08,0q7.33,0,14.66.11C814.34,560.81,816.13,560.84,817.93,560.81Z"/><path class="cls-3" d="M813.46,249.39a3.75,3.75,0,0,1,3.7,3.71c-.27,35-.24,69.93-.24,104.9a3.49,3.49,0,0,1-3.46,3.45c-1.55,0-3.1,0-4.65-.06-.92,0-1.84-.16-2.76-.16l-7-.06c-5,0-10-.12-15-.1-9.51,0-19,.18-28.5.31q-32.35.47-64.69.74c-8.32.07-16.63.18-25,.24l-25.16.11q-24.58.12-49.15.24-50.89.24-101.76.09c-17-.07-34.08-.15-51.12-.45-8.43-.16-16.86-.38-25.28-.54-8.2-.15-16.42-.2-24.62-.35q-25.32-.44-50.63-.52l-24.61-.08-13.16-.08-5.9,0-2,0c-.24,0-.48-.06-.73-.1l-2-.69a2.05,2.05,0,0,1-1.48-1.94c.18-7,.2-14.1.25-21.15a3.37,3.37,0,0,1-1.51-2.74q-.19-20.43-.33-40.83c0-6.91-.09-13.83-.19-20.74q-.13-9.73-.28-19.43a4.11,4.11,0,0,1,4-4.08h.06q63.26.74,126.55.87c68.15.19,136.29-.11,204.44-.45q50.65-.25,101.31-.15,24.76,0,49.52.08c8,0,16,0,24.06,0,3.69,0,7.37-.06,11.06-.11,1.27,0,2.55,0,3.82.07.3,0,.58,0,.89.07l.39,0ZM810,354.57c0-32.54,0-65.07-.21-97.61-1.81,0-3.61,0-5.4,0-4.89,0-9.78-.09-14.68-.11-10,0-20,0-30.07,0q-31.32.08-62.61.07-25.7,0-51.41-.06c-17-.07-33.92-.19-50.89-.26q-51.22-.24-102.45-.31-98.92-.17-197.87.83-.12,8.21-.25,16.43c-.1,6.92-.12,13.84-.18,20.77q-.13,19.89-.31,39.79a3.34,3.34,0,0,1-1.51,2.74c0,6.15.07,12.29.19,18.43a6.36,6.36,0,0,1,1.22,0l3.93,0c2.65,0,5.3,0,8-.06l17.36-.08c10.92,0,21.86,0,32.78-.13,11.42-.11,22.83-.29,34.25-.45,10.88-.15,21.74-.27,32.61-.53q25.65-.61,51.3-.72c17.16-.1,34.32-.11,51.46-.13,33.31,0,66.61.16,99.92.33,16.55.08,33.12.08,49.67.25,16.38.17,32.78.29,49.17.47,15.64.17,31.28.46,46.93.64,7.1.07,14.21.17,21.32.08,3.76,0,7.52-.09,11.27-.11H806c.63,0,1.25-.09,1.88-.11Z"/><path class="cls-2" d="M809.78,257c.22,32.54.21,65.07.21,97.61l-2.08.08c-.63,0-1.25.1-1.88.11h-2.55c-3.75,0-7.51.07-11.27.11-7.1.09-14.21,0-21.32-.08-15.64-.18-31.28-.47-46.93-.64-16.39-.18-32.79-.3-49.17-.47-16.55-.17-33.12-.17-49.67-.25-33.31-.17-66.61-.36-99.92-.33-17.15,0-34.31,0-51.46.13s-34.19.31-51.3.72c-10.87.26-21.73.38-32.61.53-11.42.16-22.83.34-34.25.45-10.92.11-21.86.09-32.78.13l-17.36.08c-2.65,0-5.3,0-8,.06l-3.93,0a6.36,6.36,0,0,0-1.22,0c-.12-6.14-.15-12.28-.19-18.43a3.34,3.34,0,0,0,1.51-2.74q.19-19.91.31-39.79c.06-6.92.08-13.84.18-20.77q.13-8.21.25-16.43,98.92-1.11,197.87-.83,51.22.07,102.45.31c17,.07,33.92.19,50.89.26q25.7.1,51.41.06,31.3,0,62.61-.07c10,0,20-.07,30.07,0,4.9,0,9.79.08,14.68.11C806.18,257,808,257,809.78,257Z"/><path class="cls-3" d="M817.9,399.1a3.74,3.74,0,0,1,3.71,3.7c-.27,35-.25,69.93-.25,104.9a3.48,3.48,0,0,1-3.46,3.46c-1.54,0-3.09,0-4.64-.07-.92,0-1.84-.15-2.76-.16l-7-.06c-5,0-10-.12-15-.1-9.5,0-19,.18-28.49.31q-32.35.47-64.69.75c-8.32.07-16.64.18-25,.22l-25.17.11-49.14.24q-50.89.25-101.76.09c-17-.07-34.08-.15-51.13-.45-8.43-.16-16.86-.38-25.28-.53-8.2-.16-16.41-.21-24.61-.36q-25.32-.42-50.64-.51l-24.6-.09c-4.39,0-8.78,0-13.16-.07l-5.9-.06-2,0-.73-.09-2-.7a2,2,0,0,1-1.48-1.94c.17-7,.2-14.1.25-21.15a3.32,3.32,0,0,1-1.51-2.74q-.19-20.41-.33-40.83c-.06-6.91-.09-13.83-.19-20.74q-.13-9.71-.28-19.43a4.1,4.1,0,0,1,4-4.07h0q63.27.72,126.56.87c68.15.19,136.29-.12,204.43-.46q50.67-.25,101.32-.15,24.76,0,49.52.09c8,0,16,0,24.06-.06,3.69,0,7.37,0,11.06-.1,1.27,0,2.54,0,3.81.06l.89.08.4,0Zm-3.45,105.18c0-32.54,0-65.08-.21-97.61-1.81,0-3.61,0-5.4,0-4.9,0-9.79-.08-14.68-.1-10-.06-20,0-30.07,0q-31.32.08-62.62.07c-17.14,0-34.26,0-51.4-.06-17-.06-33.92-.18-50.89-.26q-51.22-.22-102.45-.31-98.94-.17-197.88.83l-.24,16.43c-.1,6.92-.12,13.84-.18,20.77q-.13,19.89-.31,39.79a3.32,3.32,0,0,1-1.51,2.74c0,6.15.07,12.29.19,18.44a7.3,7.3,0,0,1,1.21,0l3.93,0,8-.06,17.36-.08c10.92,0,21.84,0,32.78-.13,11.42-.1,22.83-.29,34.25-.44,10.87-.16,21.74-.27,32.61-.53q25.65-.61,51.3-.73c17.16-.09,34.31-.1,51.46-.12,33.31,0,66.61.15,99.91.31,16.56.08,33.12.08,49.67.26,16.39.16,32.79.28,49.18.46,15.63.18,31.28.47,46.91.64,7.11.08,14.23.17,21.33.09l11.27-.12h2.55c.63,0,1.25-.08,1.88-.11S813.75,504.29,814.45,504.28Z"/><path class="cls-2" d="M814.23,406.66c.22,32.53.21,65.07.21,97.61-.7,0-1.38,0-2.08.07s-1.25.1-1.88.11h-2.55l-11.27.12c-7.1.08-14.21,0-21.33-.09-15.63-.17-31.28-.46-46.91-.64-16.39-.18-32.79-.3-49.18-.46-16.55-.18-33.1-.18-49.67-.26-33.29-.17-66.6-.36-99.91-.31-17.16,0-34.31,0-51.46.12s-34.19.33-51.3.73c-10.87.26-21.74.37-32.61.53-11.42.15-22.83.34-34.25.44-10.93.11-21.86.1-32.78.13l-17.36.08-8,.06L298,505a7.3,7.3,0,0,0-1.21,0c-.12-6.15-.15-12.29-.19-18.44a3.32,3.32,0,0,0,1.51-2.74q.19-19.89.31-39.79c.06-6.92.08-13.84.18-20.77l.24-16.43q98.94-1.1,197.88-.83,51.22.08,102.45.31c17,.08,33.92.2,50.89.26,17.14.08,34.26.07,51.4.06q31.32,0,62.62-.07c10,0,20-.07,30.07,0,4.89,0,9.78.07,14.68.1C810.63,406.66,812.42,406.7,814.23,406.66Z"/><path class="cls-1" d="M333.24,287.59q.36,11.44.48,22.87c0,3.48,0,7,.15,10.45q.09,2.9.22,5.79a35.55,35.55,0,0,0,.69,6.48,3.37,3.37,0,1,0,6.5-1.79c-.07-.31-.13-.62-.19-.94-.36-3.29-.39-6.63-.5-9.93-.11-3.54-.11-7.08-.15-10.62q-.12-11.17-.47-22.32a3.37,3.37,0,1,0-6.74,0Z"/><path class="cls-1" d="M342.62,284.88a60.06,60.06,0,0,0-9.57,1.65,3.39,3.39,0,0,0-2.35,4.15,3.43,3.43,0,0,0,4.15,2.35c2.1-.46,4.2-.95,6.33-1.26a23.13,23.13,0,0,1,4.83-.07,18.37,18.37,0,0,1,3.33.94,20.33,20.33,0,0,1,3,1.78,16,16,0,0,1,1.91,1.83,12.77,12.77,0,0,1,.84,1.39,9.48,9.48,0,0,1,.32,1.11c0,.24,0,.47,0,.71s-.13.51-.21.77a11.2,11.2,0,0,1-.75,1.27,16.13,16.13,0,0,1-1.91,1.78,45.8,45.8,0,0,1-8.68,4.67c-1.21.49-2.42.95-3.66,1.35a3.37,3.37,0,0,0,1.8,6.5,74.36,74.36,0,0,0,7.25-2.91,36.32,36.32,0,0,0,7.65-4.51c.61-.48,1.21-1,1.77-1.51a14.48,14.48,0,0,0,1.6-1.94,9.82,9.82,0,0,0,1.73-4.05c1.23-6.75-4.62-12.13-10.29-14.51a20.12,20.12,0,0,0-7.8-1.52q-.63,0-1.26,0Z"/><path class="cls-1" d="M375.68,292q-.08,10.67-.19,21.34c0,2.25,0,4.5-.07,6.75q0,2.19,0,4.36c0,.92-.07,1.84-.12,2.77a14.62,14.62,0,0,0,.06,2.4,13,13,0,0,0,.23,1.47l.34.81a5,5,0,0,0,.51,1,3.37,3.37,0,0,0,2,1.55,3.52,3.52,0,0,0,2.59-.34,5.71,5.71,0,0,0,1.86-1.9,3.24,3.24,0,0,0,.34-2.59,3.39,3.39,0,0,0-1.23-1.81c0-1.28.13-2.56.14-3.84q0-2.44.06-4.89c0-2,0-4.06.07-6.09q.1-10.5.18-21a3.37,3.37,0,1,0-6.74,0Z"/><path class="cls-1" d="M385.4,283.87a12.19,12.19,0,0,0-4.75,1.51,8.06,8.06,0,0,0-3.11,3.57,3.43,3.43,0,0,0,1.21,4.61,3.39,3.39,0,0,0,4.61-1.21q.28-.54.59-1.07c.21-.13.43-.25.66-.37a10.47,10.47,0,0,1,1.29-.34,20,20,0,0,1,3.76.06,22.7,22.7,0,0,1,3.87,1,13,13,0,0,1,1.86,1.06,11.69,11.69,0,0,1,1,1,10.83,10.83,0,0,1,.63,1.08,11.58,11.58,0,0,1,.37,1.36,11.1,11.1,0,0,1,0,1.65,5.74,5.74,0,0,1-1.2,2.77,21.81,21.81,0,0,1-2.75,2.66,59.62,59.62,0,0,1-7.52,4.48c-1.3.68-2.63,1.32-4,1.9h0l-.8.34a3.37,3.37,0,0,0,0,5.82,3.24,3.24,0,0,0,2.6.34c2.55-1.07,5-2.28,7.46-3.56a46.5,46.5,0,0,0,7.08-4.6,19,19,0,0,0,3.48-3.61,13.1,13.1,0,0,0,2-4.15,11.42,11.42,0,0,0,.3-4.64,14.21,14.21,0,0,0-.5-2.47,12.79,12.79,0,0,0-1-2.23,11.81,11.81,0,0,0-3.31-3.64,16.08,16.08,0,0,0-4.24-2.2,20.89,20.89,0,0,0-4.79-1.11,21.62,21.62,0,0,0-2.81-.19,18.33,18.33,0,0,0-2,.11ZM384.32,291l-.14.11h0l-.11.08.25-.19Zm-.58.52-.14.18.14-.18Z"/><path class="cls-1" d="M393.5,309.89a3.38,3.38,0,0,0-1.21,4.61l8.77,12.58c2.29,3.29,4.57,6.61,6.62,10a3.37,3.37,0,1,0,5.82-3.4c-2.05-3.45-4.35-6.74-6.62-10-2.89-4.21-5.85-8.39-8.77-12.58a3.56,3.56,0,0,0-2-1.55,3.32,3.32,0,0,0-.89-.12,3.4,3.4,0,0,0-1.71.46Z"/><path class="cls-1" d="M423.66,288.14c.17,4.63.21,9.27.29,13.9,0,1.17,0,2.34,0,3.51q-.06,3.67-.12,7.34c-.06,3.26-.19,6.52-.29,9.78l-.17,5.3c0,.9,0,1.8-.07,2.7,0,.45,0,.9,0,1.35s0,1.09,0,1.64a7.1,7.1,0,0,0,.37,2.39,3.66,3.66,0,0,0,1.55,2,3.37,3.37,0,0,0,4.61-1.21,3.24,3.24,0,0,0,.34-2.6L430,334c-.08-1.1,0-2.21,0-3.32,0-.9,0-1.8.07-2.7l.17-5.3c.11-3.26.23-6.52.29-9.78q.06-3.67.12-7.34c0-1.17.06-2.34,0-3.51-.07-4.63-.12-9.27-.29-13.9a3.37,3.37,0,1,0-6.74,0Z"/><path class="cls-1" d="M473.48,284a3.24,3.24,0,0,0-1.55,2c-.74,4.64-1.59,9.25-2.46,13.86-.41,2.2-1,4.39-1.45,6.58a91.89,91.89,0,0,1-5,15L461,326.07l-.25-1.17q-1.13-5.28-2.19-10.57c-1.59-8-3-16-4.37-24a3.23,3.23,0,0,0-1.55-2,3.37,3.37,0,0,0-4.61,1.21,3.61,3.61,0,0,0-.34,2.6c1.41,8.11,2.82,16.22,4.43,24.29q1,5.22,2.16,10.42c.31,1.43.61,2.86.94,4.28l.6,2.56a13,13,0,0,0,1.43,4.08,3.41,3.41,0,0,0,5.29.68,5.59,5.59,0,0,0,1.41-2.19l.4-1,.61-1.5q1.78-4.12,3.59-8.23a97.86,97.86,0,0,0,6.19-18.18l1.22-5.51c.34-1.55.59-3.13.89-4.68.58-3.11,1.11-6.24,1.61-9.36a3.64,3.64,0,0,0-.34-2.6,3.41,3.41,0,0,0-2-1.55,3.41,3.41,0,0,0-2.6.34Z"/><path class="cls-1" d="M488.89,292.28c-.3,6.12-.66,12.25-1,18.37-.15,2.6-.39,5.19-.59,7.78-.06.8-.13,1.6-.19,2.41-.11,1.33-.18,2.68-.33,4a3.37,3.37,0,0,0,5.91,3.24c.94-1.68.87-3.76,1-5.64.1-1.11.19-2.22.28-3.33l.63-8.39c.18-2.45.29-4.91.43-7.36q.32-5.54.59-11.09a3.39,3.39,0,0,0-3.37-3.37,3.42,3.42,0,0,0-3.37,3.37Z"/><path class="cls-1" d="M515.94,286.17a3.19,3.19,0,0,0-1.55,2q-1.91,13.5-3.65,27c-.37,2.75-.73,5.5-1.18,8.24-.25,1.48-.49,3-.79,4.42a17.48,17.48,0,0,0-.36,2,4,4,0,0,0,.58,2.53,3.84,3.84,0,0,0,3.25,1.76c.9,0,1.79,0,2.68.1,3.14.48,6.22,1.27,9.33,1.9l3,.59a33,33,0,0,0,3.34.44,7.84,7.84,0,0,0,2-.19,7.4,7.4,0,0,0,1.73-.58,9.49,9.49,0,0,0,3.92-4.29c.64-1.22,1.21-2.46,1.74-3.74a3.22,3.22,0,0,0-.34-2.6,3.37,3.37,0,0,0-4.61-1.21l-.68.53a3.41,3.41,0,0,0-.87,1.48,23.14,23.14,0,0,1-1.75,3.31c-.14.17-.29.33-.44.49l-.13,0a9.33,9.33,0,0,1-1.45-.06c-2.63-.4-5.23-1-7.83-1.59-1-.22-2-.43-3.08-.64-.71-.14-1.42-.28-2.14-.39l-1-.14c.39-2.17.7-4.36,1-6.54q.78-5.72,1.53-11.45c0,.3-.08.6-.12.9.76-5.63,1.51-11.27,2.3-16.9a5.16,5.16,0,0,0,.28-1.3q.17-1.6.35-3.2a3.37,3.37,0,0,0-5.07-2.91ZM531.77,330l-.27.21.27-.21Zm-.65.43-.18.08.18-.08Z"/><path class="cls-1" d="M551.28,287.71a3.37,3.37,0,0,0,0,4.77,3.56,3.56,0,0,0,2.38,1c3.13.27,6.26.54,9.38.93l1.12.23a3.53,3.53,0,0,0,2.6-.34,3.37,3.37,0,0,0-.81-6.16,48.76,48.76,0,0,0-5.59-.79l-6.71-.61h-.18a3.35,3.35,0,0,0-2.2,1Z"/><path class="cls-1" d="M548.1,291.27c0,4.38,0,8.75-.26,13.13-.18,3.43-.52,6.83-.84,10.24-.18,1.84-.35,3.68-.47,5.53a28.23,28.23,0,0,0,.28,5.68c.11.8.25,1.6.44,2.39.12.47.24.93.4,1.38a5.81,5.81,0,0,0,2.82,3.22,12.38,12.38,0,0,0,3.11,1.12,26.26,26.26,0,0,0,3.88.56,39.23,39.23,0,0,0,7.76-.32c3-.33,5.93-.8,8.88-1.27a3.23,3.23,0,0,0,2-1.55,3.37,3.37,0,0,0-1.21-4.61,3.64,3.64,0,0,0-2.6-.34c-1.62.26-3.23.5-4.86.74a47.16,47.16,0,0,1-10.8.53,16.33,16.33,0,0,1-2.73-.66h0a24.12,24.12,0,0,1-.55-2.66,38.77,38.77,0,0,1,.15-7.31c.21-2.47.49-4.93.7-7.4.25-2.92.4-5.84.55-8.77.06-1.18,0-2.37.05-3.56,0-2,0-4,0-6a3.37,3.37,0,1,0-6.74,0Z"/><path class="cls-1" d="M572.23,306.65a156.75,156.75,0,0,1-15.78,2.72l-3.48.44-.9.12a3.37,3.37,0,0,0-1.49,5.63,3.21,3.21,0,0,0,2.38,1q3.54-.45,7.08-.93c1.39-.19,2.78-.35,4.16-.58,3.29-.56,6.59-1.09,9.83-1.89a3.36,3.36,0,0,0-.95-6.6,3.59,3.59,0,0,0-.85.1Zm-15.83,2.73-.74.1.74-.1Z"/><path class="cls-1" d="M610.24,285.54a11.55,11.55,0,0,0-1.94.36,13.46,13.46,0,0,0-2.83,1.26,18.37,18.37,0,0,0-2.6,1.91,21.81,21.81,0,0,0-2.14,2,40.9,40.9,0,0,0-3.74,4.76,59.48,59.48,0,0,0-5.8,10.64,44.52,44.52,0,0,0-3.36,11.18,13.73,13.73,0,0,0,.35,6.13,11.25,11.25,0,0,0,3.5,5.13c3.27,2.72,7.58,4,11.73,4.6a23.76,23.76,0,0,0,6.22.06,12.58,12.58,0,0,0,5.79-2,3.55,3.55,0,0,0,1.55-2,3.37,3.37,0,0,0-5-3.81,10,10,0,0,1-1.07.65,12.3,12.3,0,0,1-1.87.49,23.24,23.24,0,0,1-4.45,0,29.4,29.4,0,0,1-6.09-1.64,16,16,0,0,1-2.33-1.37c-.29-.25-.56-.51-.82-.79a10.66,10.66,0,0,1-.66-1.12,8.92,8.92,0,0,1-.3-1.08,17,17,0,0,1,0-2.2,44.1,44.1,0,0,1,2.77-9.32,58.4,58.4,0,0,1,6.66-11.65,29.25,29.25,0,0,1,3.9-4.07,14,14,0,0,1,2-1.23c.3-.1.6-.19.92-.26h.69l.27.08.19.11.2.19a9.07,9.07,0,0,1,.53.93,10.89,10.89,0,0,1,.36,1.37c0,.29,0,.57,0,.85-.11.55-.25,1.08-.41,1.62a3.37,3.37,0,1,0,6.5,1.8,18.45,18.45,0,0,0,.5-2.12,10.25,10.25,0,0,0,0-3.34,11.32,11.32,0,0,0-.9-3.06,9,9,0,0,0-1.64-2.61,8.35,8.35,0,0,0-2.4-1.78,9.16,9.16,0,0,0-3.34-.8h-.15a6.24,6.24,0,0,0-.92.07Zm1,6.56.16.07-.16-.07Z"/><path class="cls-1" d="M611.45,309.51c-1.09,0-2.2.13-3.29.25a29.35,29.35,0,0,0-3.45.56,3.37,3.37,0,1,0,1.79,6.5c.58-.13,1.17-.24,1.76-.33a25.23,25.23,0,0,1,3.85-.23c.09.3.16.61.22.92.24,2.82.17,5.67.14,8.49l0,4c0,.68,0,1.37,0,2.06a5,5,0,0,0,.57,2.38,3.78,3.78,0,0,0,.65.91,5,5,0,0,0,1.81,1,3.24,3.24,0,0,0,2.6-.34,3.37,3.37,0,0,0,1.21-4.61l-.14-.22c0-1.29,0-2.59.06-3.87,0-1.73.06-3.45,0-5.18-.07-3.19.18-6.75-1.62-9.53a6,6,0,0,0-3-2.3,8.48,8.48,0,0,0-3-.41Zm1,6.81.26.2-.26-.2Zm.19,0,.19.08-.19-.08Z"/><path class="cls-1" d="M652.85,288.83l-2.39.2-5.44.47q-6,.51-12,.9a3.5,3.5,0,0,0-2.38,1,3.37,3.37,0,0,0,2.38,5.75c3.79-.25,7.58-.53,11.37-.85l.32,0a3.41,3.41,0,0,0,1.48,1.8,3.59,3.59,0,0,0,2.6.34c1.39-.24,2.76-.52,4.13-.83a17.74,17.74,0,0,0,2.42-.69,9.69,9.69,0,0,0,2.11-1,7.09,7.09,0,0,0,1.74-1.88,3.27,3.27,0,0,0,.34-2.6,3.36,3.36,0,0,0-.86-1.49,3.41,3.41,0,0,0-1.49-.87,5.1,5.1,0,0,0-2-.36c-.76,0-1.53.11-2.31.17Z"/><path class="cls-1" d="M633.1,292.63a132,132,0,0,0-4.28,16.71c-.51,2.8-.92,5.61-1.29,8.43-.19,1.47-.32,3-.44,4.44a20.55,20.55,0,0,0,0,4.28,13.81,13.81,0,0,0,.36,1.9,7.83,7.83,0,0,0,.79,1.75,8.87,8.87,0,0,0,1.23,1.55,7,7,0,0,0,2,1.4,15.07,15.07,0,0,0,8.52,1.11,51.13,51.13,0,0,0,9-1.86,3.37,3.37,0,0,0-1.79-6.5,49.57,49.57,0,0,1-7,1.58,20.89,20.89,0,0,1-4,.14,11.63,11.63,0,0,1-1.68-.46l-.27-.16-.22-.22-.1-.16a7.52,7.52,0,0,1-.19-.73,22.12,22.12,0,0,1,0-3.62c.13-1.64.29-3.28.5-4.92.53-3.74,1.16-7.47,2-11.15.89-4,2-7.85,3.27-11.71a3.39,3.39,0,0,0-2.36-4.15,3.35,3.35,0,0,0-.88-.12,3.48,3.48,0,0,0-3.26,2.48ZM634.27,327v0h0v0Zm0,0h0l.15.19-.15-.19Z"/><path class="cls-1" d="M654.06,309.18c-3.21.27-6.44.57-9.63,1-1.4.21-2.8.39-4.19.65l-6.67,1.26a3.37,3.37,0,0,0-.8,6.16,3.56,3.56,0,0,0,2.59.34l6.88-1.29c1.23-.23,2.48-.39,3.72-.57,2.7-.3,5.39-.61,8.09-.83a3.56,3.56,0,0,0,2.38-1,3.37,3.37,0,0,0,0-4.77,3.35,3.35,0,0,0-2.21-1Z"/><path class="cls-1" d="M673.75,295q-1,4.75-1.83,9.52c-.37,2-.78,4-1.09,6-.41,2.72-.86,5.44-1.22,8.17l-.48,3.68c-.08.66-.16,1.31-.22,2-.13,1.52-.15,3.19,1.05,4.31a3.43,3.43,0,0,0,3.28.87,3.37,3.37,0,0,0,1.49-.87,3.32,3.32,0,0,0,.86-1.48.83.83,0,0,0,.11-.38,4.06,4.06,0,0,0-.06-2c.14-1.84.38-3.66.62-5.49.43-2.85.8-5.72,1.32-8.55.86-4.68,1.71-9.36,2.66-14a3.52,3.52,0,0,0-.34-2.59,3.39,3.39,0,0,0-2-1.55,3.16,3.16,0,0,0-.85-.11,3.32,3.32,0,0,0-3.3,2.47Z"/><path class="cls-1" d="M680.91,283.58a11.89,11.89,0,0,0-6.05,3.3,14,14,0,0,0-3.23,6.48,16.78,16.78,0,0,0-.34,5.32,3.53,3.53,0,0,0,1,2.38,3.37,3.37,0,0,0,5.75-2.38,18.14,18.14,0,0,1,0-2.82,17.2,17.2,0,0,1,.79-2.79,10.27,10.27,0,0,1,.74-1.29c.2-.21.4-.41.61-.61a10,10,0,0,1,1-.62,14.07,14.07,0,0,1,2.23-.58,15.29,15.29,0,0,1,2.62,0,30,30,0,0,1,6,1.73,35,35,0,0,1,6.45,3.72,25.84,25.84,0,0,1,3.71,3.61,17,17,0,0,1,1.65,2.74,15,15,0,0,1,.69,2.45,16,16,0,0,1-.05,2.48,22,22,0,0,1-1.13,4.17,27.85,27.85,0,0,1-3.08,5.11,39.07,39.07,0,0,1-5.75,5.84,34.72,34.72,0,0,1-6.67,4q-2.53,1-5.15,1.82c-1,.31-2.06.57-3.1.83s-1.85.46-2.79.62a12.88,12.88,0,0,1-1.84.06c-.31-.08-.61-.17-.91-.28a26.82,26.82,0,0,1-4.34-2.73l-.16-.12a3.65,3.65,0,0,0-2.38-1,3.37,3.37,0,0,0-3.37,3.37,3.22,3.22,0,0,0,1,2.38c1,.81,2.09,1.58,3.17,2.33a19.43,19.43,0,0,0,2.63,1.56c.59.29,1.21.52,1.82.76a10.08,10.08,0,0,0,2.47.47,14.74,14.74,0,0,0,3.67-.3,31.32,31.32,0,0,0,3.46-.8,60.06,60.06,0,0,0,7.66-2.51,37.52,37.52,0,0,0,12.92-8.7,42.75,42.75,0,0,0,4.6-5.69,25.43,25.43,0,0,0,3.3-7,21.25,21.25,0,0,0,.72-3.81,15.66,15.66,0,0,0,0-4,16.72,16.72,0,0,0-3.07-7.39,30.7,30.7,0,0,0-11.83-9.45,34.48,34.48,0,0,0-7-2.5,26.66,26.66,0,0,0-3.77-.58c-.29,0-.59,0-.88,0a18.81,18.81,0,0,0-3.64.44Zm11.4,8.27.2.08-.2-.08Zm-22.37,34.5.25.2-.25-.2Z"/><path class="cls-1" d="M348.69,441a10.26,10.26,0,0,0-3.43.93,30.28,30.28,0,0,0-8.75,6.11,41.34,41.34,0,0,0-6.86,8.63,39,39,0,0,0-2.41,5.06,12.63,12.63,0,0,0-.8,5.34,10.16,10.16,0,0,0,1.86,5.08,14.4,14.4,0,0,0,3.86,3.78,22,22,0,0,0,4.67,2.2,24.45,24.45,0,0,0,5.63,1.28,41.88,41.88,0,0,0,11.2-.4c2.36-.31,4.72-.64,7.05-1.15a3.37,3.37,0,0,0-1.79-6.5c-2.1.46-4.22.76-6.35,1.06l.21,0-1.13.15.59-.08a38,38,0,0,1-9.17.28,25.36,25.36,0,0,1-5.15-1.39,18.23,18.23,0,0,1-2.58-1.4,11.88,11.88,0,0,1-1.2-1.19,11.06,11.06,0,0,1-.81-1.35c-.07-.21-.12-.42-.17-.63a11.89,11.89,0,0,1,0-1.38,12.17,12.17,0,0,1,.61-2.05,36.23,36.23,0,0,1,3.8-6.5,40.15,40.15,0,0,1,6.11-6.21,25.33,25.33,0,0,1,4.34-2.62l.44-.14c0,1.15,0,2.31,0,3.46a3.37,3.37,0,0,0,6.74,0,30.36,30.36,0,0,0-.36-6.22c-.16-.41-.32-.81-.5-1.21a6.06,6.06,0,0,0-.76-1.07,3.13,3.13,0,0,0-1-.88,6.28,6.28,0,0,0-1.59-.77c-.46-.09-.92-.16-1.39-.21l-.44,0a4.78,4.78,0,0,0-.56,0Zm.78,6.76.25.11-.25-.11Z"/><path class="cls-1" d="M375,445.72a3.54,3.54,0,0,0-1.55,2c-1.24,3.57-2.54,7.13-3.6,10.76a42.32,42.32,0,0,0-1.28,5.4,17.53,17.53,0,0,0,.22,6.45,12.21,12.21,0,0,0,.9,2.37,10.44,10.44,0,0,0,1.72,2.57,10.81,10.81,0,0,0,4.41,3,9.87,9.87,0,0,0,2,.53,10.22,10.22,0,0,0,3.27,0,13,13,0,0,0,5.17-2,16.66,16.66,0,0,0,6.31-8.8,18.4,18.4,0,0,0,.83-5.48,13.49,13.49,0,0,0-1.55-6.16,12.42,12.42,0,0,0-3.45-4.14,11,11,0,0,0-3-1.75,13.2,13.2,0,0,0-3.09-.66,10.31,10.31,0,0,0-2.46,0l.1-.28a3.38,3.38,0,0,0-2.35-4.14,3.34,3.34,0,0,0-.89-.12,3.39,3.39,0,0,0-1.7.46Zm7.22,10.84c.32.07.62.15.92.25s.6.34.9.54a11.65,11.65,0,0,1,1.24,1.24,13.19,13.19,0,0,1,.92,1.61,11.14,11.14,0,0,1,.39,1.47,15.86,15.86,0,0,1,0,2.31,17.44,17.44,0,0,1-.87,3.21,15.93,15.93,0,0,1-1.32,2.21,14.67,14.67,0,0,1-1.51,1.54,10.91,10.91,0,0,1-1.41.82,11.41,11.41,0,0,1-1.61.44c-.26,0-.52,0-.78,0a10.28,10.28,0,0,1-1.1-.31,10.14,10.14,0,0,1-1-.55c-.23-.21-.44-.42-.65-.65a11.8,11.8,0,0,1-.82-1.39,11,11,0,0,1-.37-1.42,16.2,16.2,0,0,1,0-2.7,50.08,50.08,0,0,1,1.77-6.77c.37-.38.75-.75,1.15-1.11.2-.13.41-.24.62-.35a12.51,12.51,0,0,1,1.68-.44,12.05,12.05,0,0,1,1.85,0Zm3.32,11-.08.2.08-.2Z"/><path class="cls-1" d="M402.87,446.48c-.55,2-1.12,3.93-1.6,5.92q-.63,2.64-1.27,5.28l-1,4.06c-.25,1-.4,2.13-.6,3.19-.53,2.84-1.05,5.67-1.55,8.51-.21,1.2-.43,2.39-.61,3.59a42.19,42.19,0,0,0-.77,7,3.37,3.37,0,0,0,6.74,0,21.08,21.08,0,0,1,.16-2.79c.8-5.16,1.75-10.29,2.71-15.43.42-2.24.95-4.44,1.48-6.66q.6-2.48,1.19-5c.48-2,1-4,1.6-5.92a3.4,3.4,0,0,0-2.36-4.14,3.28,3.28,0,0,0-.88-.12,3.42,3.42,0,0,0-3.27,2.47Z"/><path class="cls-1" d="M423.89,429.72c-.12,7-.42,14.08-.79,21.12-.07,1.47-.18,2.94-.26,4.41-.1,1.67-.16,3.34-.3,5-.27,3.1-.49,6.22-.81,9.31l-.62-1.12c-1.07-2-2.15-3.94-3.16-5.94s-2.2-4.14-3.13-6.29l-2.91-6.71c-.3-.78-.59-1.56-.88-2.34a3.58,3.58,0,0,0-1.55-2,3.37,3.37,0,0,0-4.61,1.21,3.26,3.26,0,0,0-.34,2.6c.91,2.43,1.93,4.8,3,7.18.65,1.51,1.25,3.08,2,4.55l3.18,6.29c.79,1.56,1.65,3.08,2.48,4.61s1.56,2.79,2.42,4.14a19.44,19.44,0,0,0,2.8,3.71,4,4,0,0,0,3.8,1.18,4.8,4.8,0,0,0,3.06-3.31,39.68,39.68,0,0,0,1.19-7.22c.09-.82.16-1.63.23-2.45q.31-3.53.61-7c.22-2.61.32-5.23.48-7.84s.28-5,.41-7.55c.27-5.16.41-10.33.5-15.49a3.37,3.37,0,0,0-6.74,0Z"/><path class="cls-1" d="M472.3,435.62c-6.65.75-13.28,1.68-19.92,2.54l-.9.12a3.37,3.37,0,0,0-1.48,5.64,3.2,3.2,0,0,0,2.38,1c6.64-.86,13.27-1.8,19.92-2.54a3.64,3.64,0,0,0,2.38-1,3.39,3.39,0,0,0-2.17-5.77Z"/><path class="cls-1" d="M450.4,442a17.29,17.29,0,0,0-1.77,2.59,23.74,23.74,0,0,0-1.28,2.86,38,38,0,0,0-1.69,6.6c-.68,3.39-1.2,6.81-1.65,10.24a68.36,68.36,0,0,0-.89,10.14,3.37,3.37,0,1,0,6.74,0,69.22,69.22,0,0,1,.92-10.34c.38-2.56.75-5.11,1.27-7.64a47.62,47.62,0,0,1,1.88-7.35,21.41,21.41,0,0,1,1.29-2.37,3.53,3.53,0,0,0,1-2.34,3.37,3.37,0,0,0-3.37-3.37,3.26,3.26,0,0,0-2.38,1Zm.46,21.39-.07.52.07-.52Z"/><path class="cls-1" d="M464,454.85c-5.92,1.51-11.89,2.84-17.86,4.1a3.37,3.37,0,0,0-.81,6.16,3.53,3.53,0,0,0,2.6.34c6-1.26,11.94-2.6,17.87-4.1a3.36,3.36,0,0,0-.94-6.61,3.49,3.49,0,0,0-.86.11Z"/><path class="cls-1" d="M487,442.13a3.25,3.25,0,0,0-1.55,2c-.37,2.17-.76,4.34-1.06,6.52q-.38,2.8-.76,5.61c-.35,2.61-.74,5.21-1,7.83-.26,2.92-.54,5.84-.79,8.77l-.43,5.31a16.57,16.57,0,0,0,.67,7.63,3.66,3.66,0,0,0,1.55,2,3.37,3.37,0,0,0,4.61-1.21,3.26,3.26,0,0,0,.34-2.6,10.58,10.58,0,0,1-.56-1.87,45.79,45.79,0,0,1,.3-6c.11-1.31.21-2.62.32-3.92l.88-9.79q.42-3.17.85-6.33l.57-4.21c.27-2,.64-4,1-6a3.59,3.59,0,0,0-.34-2.6,3.39,3.39,0,0,0-2-1.55,3.32,3.32,0,0,0-.89-.12,3.4,3.4,0,0,0-1.71.46Z"/><path class="cls-1" d="M509.33,446.89a8,8,0,0,0-1.11,2,13,13,0,0,0-.5,2.48c-.22,1.78-.42,3.56-.56,5.34-.11,1.48-.2,3-.29,4.46-.07,1.21-.13,2.42-.19,3.63a29.89,29.89,0,0,0-.06,5.05,3.37,3.37,0,0,0,5.07,2.91,3.54,3.54,0,0,0,1.55-2,11.51,11.51,0,0,0,.44-2.45,2.68,2.68,0,0,0-.37-1.54c0-.58.07-1.16.09-1.74,0-1.12.11-2.24.17-3.36.12-2.36.29-4.72.53-7.06a3.39,3.39,0,0,0,1.82-1.49l.34-.8a3.35,3.35,0,0,0,0-1.79,16.12,16.12,0,0,0-.77-2.85,3.46,3.46,0,0,0-2.35-2.35,3.35,3.35,0,0,0-.89-.12,3.58,3.58,0,0,0-2.92,1.67Z"/><path class="cls-1" d="M517.68,437.3a13.33,13.33,0,0,0-6.33,3.86,10.8,10.8,0,0,0-2.93,5.63,22,22,0,0,0-.19,3.8v6.15a3.37,3.37,0,0,0,6.74,0v-4.38c0-1.39-.07-2.81,0-4.2.06-.29.13-.57.22-.85a9.86,9.86,0,0,1,.57-1,13.07,13.07,0,0,1,1.5-1.46,11.21,11.21,0,0,1,1.32-.8,13.77,13.77,0,0,1,1.59-.4,12.27,12.27,0,0,1,1.9,0,20.13,20.13,0,0,1,3.32,1,20,20,0,0,1,7.37,5.67,19.4,19.4,0,0,1,1.83,3.06,16.76,16.76,0,0,1,.71,2.63,14.15,14.15,0,0,1,0,2.48,18.37,18.37,0,0,1-.89,3.15,19.13,19.13,0,0,1-1.67,2.88,17.78,17.78,0,0,1-2.4,2.37,47.92,47.92,0,0,1-8.39,4.89,14.57,14.57,0,0,1-1.94.6h-.2l-.53-.14-.21-.13a21,21,0,0,1-2.49-2.53,3.28,3.28,0,0,0-2.38-1,3.37,3.37,0,0,0-3.37,3.37,3.56,3.56,0,0,0,1,2.39,15.42,15.42,0,0,0,4.49,3.92,8.72,8.72,0,0,0,3.72.84,8.85,8.85,0,0,0,2.08-.3,12.31,12.31,0,0,0,1.71-.56,45.75,45.75,0,0,0,6-3,36.25,36.25,0,0,0,6-4.26,18.23,18.23,0,0,0,4.08-5.36,22.38,22.38,0,0,0,1.43-3.53,19.48,19.48,0,0,0,.7-3.8,13.72,13.72,0,0,0-.21-3.72,17.26,17.26,0,0,0-.86-3.28,21.66,21.66,0,0,0-3.92-6.34,26.83,26.83,0,0,0-5.16-4.42,23.18,23.18,0,0,0-6.6-3.08,17.57,17.57,0,0,0-3.85-.62l-.55,0a15.45,15.45,0,0,0-3.28.45Zm3,35-.21,0,.21,0Z"/><path class="cls-1" d="M547.36,437a3.37,3.37,0,0,0,0,4.77l.68.53a3.36,3.36,0,0,0,1.7.46c3.7.47,7.4.95,11.11,1.39,3.27.4,6.55.88,9.85,1a3.37,3.37,0,0,0,0-6.74c-3.3-.17-6.58-.65-9.85-1-3.7-.44-7.4-.93-11.11-1.39h-.22a3.36,3.36,0,0,0-2.16,1Z"/><path class="cls-1" d="M554.92,439.39a3.54,3.54,0,0,0-1.55,2c-.56,1.64-1.12,3.27-1.62,4.92l-1.5,5c-.74,2.47-1.22,5-1.76,7.52a52.56,52.56,0,0,0-1.05,6.81c-.3,3.64.32,7.33,2.73,10.19a10.07,10.07,0,0,0,3.68,2.8,12.19,12.19,0,0,0,5.39,1,25.44,25.44,0,0,0,5.14-.75,17.21,17.21,0,0,0,4.79-2.08,3.37,3.37,0,1,0-3.41-5.82c-.56.34-1.13.65-1.71.94a14.52,14.52,0,0,1-6.07,1,11,11,0,0,1-1.21-.33,8.44,8.44,0,0,1-.89-.51c-.25-.23-.47-.47-.7-.72a9.62,9.62,0,0,1-.6-1,14.52,14.52,0,0,1-.44-1.63,21.8,21.8,0,0,1,.17-4.38c.3-1.95.72-3.86,1.14-5.79.29-1.36.5-2.76.9-4.08,1.13-3.78,2.23-7.56,3.52-11.29a3.39,3.39,0,0,0-2.35-4.15,3.32,3.32,0,0,0-.89-.12,3.41,3.41,0,0,0-1.71.46Zm5.23,33.55-.2,0,.2,0Z"/><path class="cls-1" d="M582.27,455.18c-4.31.36-8.62.93-12.92,1.45-5.34.65-10.65,1.44-16,2.25a3.22,3.22,0,0,0-2,1.55,3.37,3.37,0,0,0,1.21,4.61,3.66,3.66,0,0,0,2.6.34c4.07-.61,8.14-1.19,12.21-1.77,5-.6,9.91-1.28,14.88-1.69a3.55,3.55,0,0,0,2.38-1,3.38,3.38,0,0,0-2.21-5.76Z"/><path class="cls-1" d="M589,449.68q-1.29,4.31-2.48,8.64c-.54,2-1.15,3.92-1.61,5.91l-1.69,7.27c-.21.91-.41,1.82-.61,2.73l-.43,1.93c-.21.93-.32,1.88-.45,2.82l-.12.9a3.31,3.31,0,0,0,.46,1.7,3.41,3.41,0,0,0,2.91,1.67,4.1,4.1,0,0,0,2.11-.5,5.14,5.14,0,0,0,1.82-2.15,3.5,3.5,0,0,0,0-3.46l.18-.79c.22-1,.44-2,.67-3l1.67-7.18c.45-1.93,1-3.83,1.55-5.74q1.23-4.5,2.57-9a3.4,3.4,0,0,0-2.35-4.15,3.32,3.32,0,0,0-.88-.12,3.44,3.44,0,0,0-3.27,2.48Z"/><path class="cls-1" d="M608.19,435.32a3.4,3.4,0,0,0-2,1.55,3.52,3.52,0,0,0-.34,2.6c.14.71.26,1.42.38,2.13.14,1,.27,2.1.37,3.15a33.48,33.48,0,0,1,.07,4.88c-.09,1.85-.18,3.69-.32,5.54s-.23,3.4-.42,5.09q-.33,3-.66,6c-.23,1.64-.45,3.27-.77,4.89-.06.3-.13.6-.21.9-.61-1.07-1.2-2.15-1.79-3.22-1-1.82-2-3.69-2.84-5.57-1-2.17-2-4.34-3-6.53-.6-1.39-1.19-2.79-1.79-4.18a3.61,3.61,0,0,0-.4-1.19c-.21-.38-.42-.77-.62-1.16l-.36-.81a3.37,3.37,0,0,0-6.16,2.6,13.29,13.29,0,0,0,.65,1.51c1.4,3.17,2.69,6.38,4.14,9.53,1.62,3.49,3.27,7,5.14,10.32a57.66,57.66,0,0,0,3.28,5.49,11,11,0,0,0,1.09,1.48,4.65,4.65,0,0,0,1.83,1.1,5.23,5.23,0,0,0,3.62-.52,6.92,6.92,0,0,0,1.26-1,6.23,6.23,0,0,0,1-1.47,19,19,0,0,0,1.19-3.66,67.14,67.14,0,0,0,1.67-10.42c.21-1.87.47-3.74.61-5.61.21-2.84.42-5.68.55-8.52a42.78,42.78,0,0,0-.26-7.5c-.22-1.69-.43-3.38-.76-5A3.33,3.33,0,0,0,609,435.2a3.18,3.18,0,0,0-.84.11Z"/><path class="cls-1" d="M654.7,439.23l-4.07.1c-2.37.06-4.73.18-7.09.28-2,.08-4,.31-6.06.51l-4.33.42c-2,.2-4.07.51-6.11.78a3.24,3.24,0,0,0-2,1.55,3.37,3.37,0,0,0,1.21,4.61l.8.34a3.37,3.37,0,0,0,1.8,0l2.12-.29c2.28-.29,4.57-.49,6.86-.71,1.74-.17,3.48-.38,5.22-.45,2.26-.1,4.52-.23,6.78-.28l3.6-.09a42.06,42.06,0,0,1,4.66,0l0,0a3.37,3.37,0,1,0,4.77-4.77,15.7,15.7,0,0,0-1.42-1.17c-.44-.2-.88-.38-1.33-.54a11.85,11.85,0,0,0-1.47-.23,18.75,18.75,0,0,0-2.37-.13l-1.55,0Zm3,6.73.12,0-.12,0Zm.89.22.21.09-.21-.09Z"/><path class="cls-1" d="M643.71,442.82c-.35,1.75-.74,3.49-1,5.25-.22,1.32-.44,2.63-.65,3.95-.41,2.47-.91,4.94-1.2,7.42s-.6,5.09-.9,7.63c-.17,1.39-.3,2.78-.4,4.17a33,33,0,0,0,.7,9.83,3.37,3.37,0,1,0,6.5-1.79c-.12-.5-.23-1-.31-1.5-.12-1.1-.2-2.21-.25-3.31a37.24,37.24,0,0,1,.2-4.53c.09-1.14.23-2.27.36-3.41q.38-3.29.77-6.57.54-3.24,1.08-6.48c.49-3,1-5.91,1.63-8.87a3.52,3.52,0,0,0-.34-2.6,3.4,3.4,0,0,0-2-1.55,3.18,3.18,0,0,0-.84-.11,3.33,3.33,0,0,0-3.31,2.46Z"/><path class="cls-1" d="M672.34,447q-1.28,5.49-2.48,11c-.5,2.29-1,4.58-1.43,6.88-.48,2.64-1,5.28-1.41,7.93s-.93,5.39-1.16,8.12a3.25,3.25,0,0,0,1,2.38,3.37,3.37,0,0,0,4.77,0,3.59,3.59,0,0,0,1-2.38c.06-.7.14-1.4.23-2.09.71-4.57,1.54-9.11,2.38-13.66.37-2,.86-4,1.3-6q1.13-5.19,2.34-10.35a3.42,3.42,0,0,0-2.35-4.14,3.23,3.23,0,0,0-.86-.11,3.36,3.36,0,0,0-3.29,2.47Zm.58,31.08-.06.47.06-.47Z"/><path class="cls-1" d="M703.56,440.83a32.16,32.16,0,0,0-2.91,3.59c-.85,1.27-1.55,2.64-2.31,4-.53.93-1.08,1.84-1.63,2.76-1.22,2.06-2.52,4.1-3.67,6.21l-4,7.34c-1.75,3.22-3.45,6.45-5.14,9.71a3.37,3.37,0,0,0,5.82,3.4c1.54-3,3.09-5.94,4.68-8.88l4.24-7.8c1-1.77,2-3.49,3.07-5.22l1.91-3.23q0,1.6.07,3.21c.07,3.09.15,6.18.26,9.27.22,6,.62,12,1.13,18a3.57,3.57,0,0,0,1,2.38,3.37,3.37,0,0,0,4.77,0,3.24,3.24,0,0,0,1-2.38q-.81-9.47-1.17-19c-.11-2.84-.17-5.69-.23-8.54q-.06-2.68-.12-5.36c0-.87,0-1.74-.05-2.62a17,17,0,0,0-.27-3.13,13.82,13.82,0,0,0-1.15-3,3.26,3.26,0,0,0-2-1.55,3.37,3.37,0,0,0-.89-.12,3.23,3.23,0,0,0-2.39,1Z"/><path class="cls-1" d="M709.57,464.52c-5.48.22-11,.58-16.43,1a3.56,3.56,0,0,0-2.38,1,3.37,3.37,0,0,0,2.38,5.75c5.47-.44,10.94-.81,16.43-1a3.37,3.37,0,0,0,.11-6.74Z"/><path class="cls-1" d="M725,444.37c-1.65,8.08-3.24,16.18-4.7,24.3q-.83,4.62-1.62,9.26c-.13.73-.24,1.46-.36,2.19a13.09,13.09,0,0,0-.28,1.79,8.75,8.75,0,0,0,.17,1.69,4.27,4.27,0,0,0,1,1.76,4,4,0,0,0,1.83,1,8.25,8.25,0,0,0,3.24-.12l2.07-.31,2.13-.3c1.64-.17,3.28-.36,4.92-.46,2.07-.12,4.12-.2,6.19-.23,3.8-.07,7.61.13,11.4.28a3.37,3.37,0,1,0,0-6.74c-4.68-.18-9.35-.31-14-.24a95.9,95.9,0,0,0-11.73,1.11q1.17-6.8,2.38-13.6c1.18-6.54,2.52-13,3.85-19.54a3.53,3.53,0,0,0-.34-2.6,3.39,3.39,0,0,0-2-1.55,3.19,3.19,0,0,0-.84-.11,3.32,3.32,0,0,0-3.3,2.47Z"/><path class="cls-1" d="M335,634.23a3.37,3.37,0,1,0,3.37-3.37,3.4,3.4,0,0,0-3.37,3.37Z"/><path class="cls-1" d="M374.35,636.89a3.37,3.37,0,1,0,3.37-3.37,3.4,3.4,0,0,0-3.37,3.37Z"/><path class="cls-1" d="M416,638.91a3.37,3.37,0,1,0,3.37-3.37,3.4,3.4,0,0,0-3.37,3.37Z"/><path class="cls-1" d="M455.34,638.29a3.37,3.37,0,1,0,3.37-3.37,3.4,3.4,0,0,0-3.37,3.37Z"/><path class="cls-1" d="M485.14,638.29a3.37,3.37,0,1,0,3.37-3.37,3.4,3.4,0,0,0-3.37,3.37Z"/></g></svg>