<svg id="Layer_15" data-name="Layer 15" xmlns="http://www.w3.org/2000/svg" viewBox="0 0 871.69 845.84"><defs><style>.cls-1{fill:#404040;}</style></defs><title>simple_pricing</title><path class="cls-1" d="M191.17,250.87c-.65.62-1.3,1.23-1.9,1.89a20.27,20.27,0,0,0-1.87,2.57,37.71,37.71,0,0,0-2.36,4.31c-1.65,1.64-3.35,3.23-5,4.83-2.65,2.5-5.48,4.83-8.23,7.22l-9.38,7.22c-2.18,1.68-4.43,3.24-6.69,4.81q-14.94,10.44-29.93,20.79a4.94,4.94,0,0,0-2.17,2.82,4.75,4.75,0,0,0,.48,3.63c1.22,2.09,4.33,3.15,6.44,1.69q11.62-8,23.18-16.08c4.62-3.23,9.31-6.36,13.78-9.79l9.29-7.14q1-.74,1.9-1.52c-.68,3-1.24,6-1.81,9-1.21,6.36-2.34,12.74-3.48,19.12-2,11.14-4,22.28-6.16,33.38-4.64,23.56-9.71,47-13.88,70.68-2.2,12.55-4.37,25.1-6.26,37.69-1.77,11.72-3.1,23.49-4.6,35.24q-.56,3.13-1.12,6.24c-.34,1.92-.87,3.79-1.32,5.68a95.79,95.79,0,0,1-3.44,11.47,20.5,20.5,0,0,1-1.25,2.16A17.76,17.76,0,0,1,134,510a31.44,31.44,0,0,1-5.26,3,64.91,64.91,0,0,1-7.07,2.34l-.72,0c-3.71-.11-7.44-.27-11.14-.07-2.22.13-4.38.3-6.58.56-1.66.19-3.31.41-5,.71a31.12,31.12,0,0,0-3.47.85,10.38,10.38,0,0,0-4.09,2.46c-2.74,2.5-2,7.26,1.16,9l.63.36a5.72,5.72,0,0,0,2.88.78,15,15,0,0,0,2.51.06c1,0,1.92-.15,2.88-.23,1.69-.15,3.4-.37,5.08-.63,2.8-.43,5.59-.89,8.37-1.44l3.49-.69c3.76.08,7.52.25,11.28.37,10.75.34,21.54.59,32.23,1.92a118.81,118.81,0,0,1,16.67,3.65c2.83.84,5.6,1.84,8.38,2.81,3.6,1.26,7.13,2.67,10.67,4.09,1.55.66,3.09,1.33,4.62,2,1.19.54,2.37,1.09,3.58,1.59a13.34,13.34,0,0,0,2.65.89,6.48,6.48,0,0,0,2.5.17,8.12,8.12,0,0,0,3.69-1.16,6.06,6.06,0,0,0-3.78-11.24c-1.42-.48-2.8-1.11-4.18-1.67l-4.82-2c-2.67-1.09-5.37-2.11-8.06-3.13-2.9-1.09-5.84-2.08-8.78-3.09a116.86,116.86,0,0,0-24.16-5.13c-5.79-.69-11.62-1-17.45-1.23a19.07,19.07,0,0,0,3-4.64,35.25,35.25,0,0,0,1.73-4.37c1-2.76,2-5.53,2.7-8.35l1.37-5.15c.35-1.32.56-2.68.83-4,1.27-6.42,2-12.91,2.86-19.4q.18-1.41.36-2.82c.75-5.44,1.49-10.89,2.33-16.31q1.5-9.7,3.14-19.36c2-12,4.2-24,6.44-36,2.18-11.69,4.55-23.35,6.9-35q3.62-17.94,6.82-36c1.42-7.92,2.78-15.84,4.13-23.77.69-4,1.4-8,2.12-11.94,1.43-7.88,3.13-15.68,6.13-23.13.39-.89.78-1.78,1.21-2.66.92-1,1.74-2.07,2.64-3.09a11.23,11.23,0,0,0,1.22-1.48,7.7,7.7,0,0,0,1-2.2,5.87,5.87,0,0,0-.78-4.5,5,5,0,0,0-4.28-2.47,5.16,5.16,0,0,0-3.54,1.46ZM142.31,484.38v.05a.11.11,0,0,1,0,0v-.1Zm-7.46,25.05-.28.21.28-.21Zm26.85,20,.52.07-.52-.07Z"/><path class="cls-1" d="M530,400.8l-1.63.27c-7.49.93-15,1.65-22.53,2.35-4.61.43-9.25,1-13.87,1.3l-14.27.83-8.19.48c-1.21.07-2.44.22-3.65.21l-12.23-.07-18.56-.11c-6.78,0-13.54-.37-20.32-.64-5.43-.21-10,4.7-10,10a10,10,0,0,0,2.92,7,10.17,10.17,0,0,0,7,2.92c6.78.27,13.54.6,20.32.61H465.9c1.2,0,2.44-.2,3.65-.3l9-.74L492,423.83c2.58-.21,5.18-.72,7.74-1.08l9.13-1.3c4.1-.58,8.18-1.3,12.27-2a100.15,100.15,0,0,0,13.19-3,8.15,8.15,0,0,0,1.94-14.9,7.54,7.54,0,0,0-3.95-1,14,14,0,0,0-2.33.22Z"/><path class="cls-1" d="M475,362.39c-.52,1.2-1.09,2.38-1.59,3.58a28,28,0,0,0-1.18,3.64c-.71,2.71-1.2,5.47-1.65,8.23-.61,3.75-1.13,7.52-1.78,11.26q-1.15,6.61-2.3,13.21-2,11.35-4,22.72c-.55,3.18-1.17,6.35-1.63,9.55q-1,7-2,14c-.57,4-.9,8-1.32,11.94-.17,1.62-.22,3.24-.31,4.86l-.18,3c0,.75,0,1.5,0,2.25,0,1.21,0,2.44.11,3.65l.22,2.52c.13,1.42.39,2.83.63,4.24a4,4,0,0,0,1.9,2.47A4.14,4.14,0,0,0,465.6,482a4.45,4.45,0,0,0,.42-3.18c-.1-.58-.2-1.16-.29-1.74a71.51,71.51,0,0,1-.35-9.41c.11-2.14.21-4.27.31-6.4.07-1.54.26-3.08.39-4.61.28-3.26.56-6.5.94-9.76l1.36-11.57c2.22-15.19,4.43-30.38,6.75-45.56.52-3.39.9-6.8,1.36-10.2.33-2.39.71-4.76,1.2-7.13q.16-.76.34-1.52a2.82,2.82,0,0,0,2-.83,2.68,2.68,0,0,0,.83-2c-.21-1.68-.45-3.38-.68-5.06a2.77,2.77,0,0,0-2-2,2.73,2.73,0,0,0-.72-.09,2.7,2.7,0,0,0-2.49,1.4Zm1.48,17.52,0,.22,0-.22Z"/><path class="cls-1" d="M770.64,267.15c-4.21,2.84-7.25,7.19-9.93,11.43a78.72,78.72,0,0,0-5.64,11l-1,.93-9,8.33c-4.69,4.35-9.61,8.49-14.62,12.45A252.68,252.68,0,0,1,703.18,329a5.38,5.38,0,0,0,5.43,9.3,261.81,261.81,0,0,0,25.81-16.56c4.58-3.43,9.05-7.07,13.37-10.86-2.26,8.47-4,17.06-5.55,25.68-.55,3-1,6.05-1.42,9.07l-2.36,15c-1,6.16-1.87,12.34-2.79,18.51-2.22,14.87-4.55,29.72-6.88,44.58-1.17,7.46-2.6,14.88-3.89,22.31q-1.64,9.34-3.37,18.66c-1.22,6.64-2.45,13.29-3.63,20-1.27,7.18-2.63,14.36-3.77,21.57l-2.84,18c-.81,5.1-1.44,10.23-2.16,15.35-.69,4.85-1.28,9.72-1.9,14.59-.33,2.54-.61,5.09-.91,7.64-.13,1.12-.21,2.24-.32,3.36-.07.71-.13,1.4-.19,2.11s-.06,1.68-.07,2.52l0,0-2.08-.29c-3.34-.49-6.66-1-10-1.36l-13-1.39c-2.58-.28-5.21-.31-7.8-.37a77.46,77.46,0,0,0-8.7.32,57,57,0,0,0-8.34,1.36,14.83,14.83,0,0,0-3.36,1.44,9.89,9.89,0,0,0-3.33,3.75,6.23,6.23,0,0,0-.63,4.85,6,6,0,0,0,2.89,3.75c1,.44,2,.89,3.11,1.24a12.79,12.79,0,0,0,3.4.34l3,0,5.67.08c3.45,0,6.9.12,10.34.19l11.24.23a112.87,112.87,0,0,0,14.16-.13c1.09-.11,2.16-.25,3.22-.44,2.18.32,4.35.65,6.52,1,7.42,1.24,14.83,2.5,22.23,3.89,6.32,1.18,12.64,2.43,19,3.64l10.64,2c3.38.64,6.81,1.15,10.12,2.09a6.08,6.08,0,0,0,6.62-1.28,6,6,0,0,0,1.56-2.68,5.84,5.84,0,0,0-.61-4.67,8.25,8.25,0,0,0-2.46-2.53,23,23,0,0,0-3.11-1.42,27.14,27.14,0,0,0-3.08-.9c-1.6-.43-3.24-.75-4.86-1.12-3.55-.79-7.12-1.5-10.68-2.23-6.92-1.43-13.85-2.85-20.79-4.19-5.47-1.06-11-2-16.45-3,.32-1.22.57-2.45.78-3.7.63-3.86,1.18-7.74,1.73-11.62,1-7,1.92-13.92,2.89-20.88,2.06-14.78,4.45-29.5,6.94-44.22,2.2-13,4.57-26,6.7-39q2-12.31,4-24.63c1.29-7.84,2.3-15.74,3.45-23.61,1.84-12.62,3.46-25.27,5.3-37.89l3.65-25c1-6.91,2.31-13.8,3.81-20.62a168.16,168.16,0,0,1,8.15-27.33q.39-.88.79-1.76l1.93-1.9c2-2,4.05-4,6-6.18a64.37,64.37,0,0,0,4.25-5.43,15.3,15.3,0,0,0,1.52-3,7.53,7.53,0,0,0,.45-4.79,7.29,7.29,0,0,0-5-4.78,6,6,0,0,0-1.6-.21,9.51,9.51,0,0,0-5.14,1.78ZM706,568.58l0,.12,0-.12Zm-47,12h0l-.41.05.41-.05Z"/></svg>