<svg id="Layer_8" data-name="Layer 8" xmlns="http://www.w3.org/2000/svg" xmlns:xlink="http://www.w3.org/1999/xlink" viewBox="0 0 871.69 845.84"><defs><style>.cls-1{fill:#eebf70;}.cls-2{fill:#faf175;}.cls-3{fill:url(#linear-gradient);}.cls-4{fill:url(#linear-gradient-2);}.cls-5{fill:url(#linear-gradient-3);}</style><linearGradient id="linear-gradient" x1="336.67" y1="449.54" x2="336.71" y2="449.56" gradientUnits="userSpaceOnUse"><stop offset="0" stop-color="#fff" stop-opacity="0"/><stop offset="0.86" stop-color="#888" stop-opacity="0.21"/><stop offset="1" stop-opacity="0.45"/></linearGradient><linearGradient id="linear-gradient-2" x1="335.65" y1="451.14" x2="335.73" y2="451.18" xlink:href="#linear-gradient"/><linearGradient id="linear-gradient-3" x1="-51.3" y1="133.65" x2="442.79" y2="364.05" xlink:href="#linear-gradient"/></defs><title>swift_upload</title><path class="cls-1" d="M813.24,560.45a2,2,0,0,1,1.17,1.6,2,2,0,0,1-1.78,2.22l-1.73.12a2.36,2.36,0,0,0,.39-1.57,24.94,24.94,0,0,0-.31-2.47l1.23-.08A2.29,2.29,0,0,1,813.24,560.45Z"/><path class="cls-1" d="M811,560.35a24.94,24.94,0,0,1,.31,2.47,2.36,2.36,0,0,1-.39,1.57c-.7,0-1.39.07-2.09.06l-2.3,0a27.37,27.37,0,0,1-3.66-4.13l2.52.12,3,0C809.23,560.46,810.1,560.4,811,560.35Z"/><path class="cls-1" d="M810.9,564.4a2.48,2.48,0,0,1-3.72.64l-.66-.6,2.3,0C809.51,564.47,810.2,564.44,810.9,564.4Z"/><path class="cls-1" d="M696.14,441a3.13,3.13,0,0,1,.53,2.25,3,3,0,0,1-.7,1.52q-2-1.7-4.08-3.37a2.7,2.7,0,0,1-.94-1.71c1,0,2.1,0,3.14,0a1.91,1.91,0,0,1,.74.19A3.37,3.37,0,0,1,696.14,441Z"/><path class="cls-1" d="M586.51,454.38c4.25-1.07,8.46-2.27,12.77-3.06,4.13-.77,8.28-1.47,12.42-2.19,3.45-.6,6.9-1.12,10.36-1.68s6.61-1.13,9.94-1.58,6.64-.67,10-1,6.64-.87,9.95-1.36,6.8-1,10.19-1.56,6.78-1,10.2-1.35,6.77-.49,10.16-.68c2.84-.16,5.67-.21,8.5-.18a2.7,2.7,0,0,0,.94,1.71q2,1.67,4.08,3.37a2.59,2.59,0,0,1-.56.51,3.16,3.16,0,0,1-2.05.55h-.8c-1,0-1.95-.05-2.91,0-1.9.07-3.77.17-5.67.31-1.55.12-3.1.3-4.65.47-3.31.37-6.64.68-9.93,1.21-6.74,1.08-13.43,2.54-20.17,3.65-3.54.58-7.09,1-10.66,1.44-3.34.37-6.67.81-10,1.38s-6.63,1.18-9.94,1.72-6.54,1.11-9.8,1.66c-3.42.58-6.85,1.08-10.26,1.6s-6.75,1.33-10.12,2c-3.14.64-6.32,1.12-9.5,1.67s-6.36,1.15-9.51,1.87q-3.33.94-6.61,2c-2.37.78-4.74,1.52-7.07,2.42a.55.55,0,0,1-.13,0c.12-.68.24-1.37.37-2.05.25-1.36.49-2.74.74-4.1a48.69,48.69,0,0,1,4.87-2.23c1.48-.57,2.95-1.11,4.46-1.6,1.34-.43,2.69-.8,4.06-1.15,2.86-.77,5.8-1.36,8.69-2C581.41,455.57,584,455,586.51,454.38Z"/><path class="cls-2" d="M556.23,522.9c-1.61-.91-3.25-1.78-4.93-2.54l-.59-.26a27.65,27.65,0,0,0-4.13-1.37c.62-2.87,1.22-5.73,1.76-8.63.5-2.7,1-5.42,1.45-8.12q2.91-16.35,5.86-32.7a.55.55,0,0,0,.13,0c2.33-.9,4.7-1.65,7.07-2.42q3.29-1.09,6.61-2c3.14-.71,6.32-1.32,9.51-1.87s6.35-1,9.5-1.67c3.37-.69,6.72-1.51,10.12-2s6.85-1,10.26-1.6c3.26-.55,6.53-1.12,9.8-1.66s6.61-1.14,9.94-1.72,6.64-1,10-1.38c3.57-.39,7.12-.86,10.66-1.44,6.74-1.11,13.43-2.57,20.17-3.65,3.29-.52,6.61-.84,9.93-1.21,1.55-.17,3.1-.36,4.65-.47,1.9-.15,3.77-.24,5.67-.31,1,0,1.95,0,2.91,0h.8a3.16,3.16,0,0,0,2.05-.55,2.59,2.59,0,0,0,.56-.51q2.89,2.37,5.78,4.81c2.89,2.44,5.65,5,8.58,7.44s6.19,5,9.2,7.52,6,5.23,9,7.84c5.49,4.81,10.87,9.75,16.41,14.51,2.74,2.34,5.36,4.81,8,7.24s5.49,5,8.08,7.74h0l.08.08c2.33,2.53,4.54,5.14,6.73,7.79,2.55,3.08,5.17,6.1,7.62,9.26s4.41,6.23,6.5,9.41,4.42,6.49,6.53,9.81c1.46,2.3,2.85,4.64,4.39,6.89s3.07,4.42,4.58,6.66,2.91,4.62,4.36,7c.34.53.68,1.06,1,1.57-5.29-.26-10.6-.63-15.85-1.29-3.17-.39-6.31-.89-9.47-1.36-2.95-.45-5.9-.83-8.86-1.2-3.2-.4-6.38-.81-9.57-1.27s-6.13-1-9.19-1.5c-5.93-1-11.89-1.92-17.8-3.06-3-.58-6.08-1.18-9.09-1.89-2.67-.63-5.33-1.35-8-2.13-3.88-1.22-7.75-2.45-11.56-3.87-4.18-1.55-8.34-3.16-12.51-4.76a3.77,3.77,0,0,0-2.79-.08,3.67,3.67,0,0,0-2,1.79c-2.73,2.13-5.43,4.29-8.23,6.32a72.82,72.82,0,0,1-8.16,5q-3.18,1.68-6.34,3.41c-1.94,1.07-3.87,2.15-5.82,3.21s-3.85,1.91-5.82,2.76-4.11,1.75-6.14,2.7-4.09,1.92-6.11,2.92c-1.24.62-2.47,1.26-3.69,1.93a32.14,32.14,0,0,0-2.73,1.72c-.9.62-1.9,1.08-2.8,1.69s-1.76,1.3-2.66,1.91l-.64.29a1.11,1.11,0,0,0-.43.36,200.53,200.53,0,0,0-16.19-14.53c-5.6-4.49-11.44-8.68-17.29-12.83-3-2.12-5.92-4.28-8.84-6.48s-5.74-4.15-8.74-6-6.28-3.84-9.51-5.6S559.51,524.76,556.23,522.9Z"/><path class="cls-1" d="M695.34,437.24c4.2,3.43,8.54,6.68,12.82,10s8.31,6.5,12.45,9.77c3,2.34,5.82,4.79,8.64,7.29,3,2.65,6,5.27,9,8s5.68,5.21,8.6,7.74,5.74,5.07,8.55,7.68,5.94,5.41,8.91,8.12q4.15,3.77,8,7.82c2.68,2.79,5.38,5.58,8,8.41a99.69,99.69,0,0,1,7.72,9.34c2.37,3.26,4.8,6.47,7.14,9.75s4.36,6.38,6.47,9.63a85.54,85.54,0,0,1,6.2,10.58,42.77,42.77,0,0,1,2.17,5.34,32.18,32.18,0,0,1,.89,3.46,1.31,1.31,0,0,1,0,.2c-.87.05-1.74.12-2.59.1l-3,0-2.52-.12c-.37-.51-.71-1-1-1.57-1.45-2.33-2.82-4.7-4.36-7s-3.06-4.43-4.58-6.66-2.94-4.59-4.39-6.89c-2.11-3.32-4.37-6.53-6.53-9.81s-4.16-6.39-6.5-9.41-5.07-6.17-7.62-9.26c-2.19-2.65-4.4-5.26-6.73-7.79l-.08-.08h0c-2.59-2.69-5.34-5.2-8.08-7.74s-5.27-4.91-8-7.24c-5.54-4.76-10.91-9.7-16.41-14.51-3-2.61-5.94-5.26-9-7.84s-6.14-5-9.2-7.52-5.68-5-8.58-7.44q-2.88-2.44-5.78-4.81a3,3,0,0,0,.7-1.52,3.13,3.13,0,0,0-.53-2.25,3.37,3.37,0,0,0-1.3-1.07,1.91,1.91,0,0,0-.74-.19c-1,0-2.1,0-3.14,0a2.69,2.69,0,0,1,3.79-2.82A2.55,2.55,0,0,1,695.34,437.24Z"/><path class="cls-1" d="M690.86,540a3,3,0,0,1,.52,2.17,3,3,0,0,1-1.22,2l-1.16.91-1-.41a3.68,3.68,0,0,1-1.83-4.82l.06-.13.48-.38a2.88,2.88,0,0,1,2.94-.28A3,3,0,0,1,690.86,540Z"/><path class="cls-1" d="M690.86,540a3,3,0,0,0-1.2-1,2.88,2.88,0,0,0-2.94.28l-.48.38a3.67,3.67,0,0,1,2-1.79A3.77,3.77,0,0,1,691,538c4.16,1.6,8.32,3.21,12.51,4.76,3.82,1.42,7.68,2.65,11.56,3.87,2.63.78,5.28,1.5,8,2.13,3,.7,6,1.31,9.09,1.89,5.91,1.14,11.87,2.07,17.8,3.06,3.06.51,6.12,1,9.19,1.5s6.37.87,9.57,1.27c3,.37,5.91.74,8.86,1.2,3.16.47,6.3,1,9.47,1.36,5.25.66,10.56,1,15.85,1.29a27.37,27.37,0,0,0,3.66,4.13h-1.07c-2.32,0-4.64-.18-7-.3-3-.15-5.94-.29-8.9-.55-3.18-.26-6.34-.61-9.51-1s-6.19-.74-9.28-1-6-.55-8.94-.88c-6.17-.69-12.31-1.75-18.46-2.64s-12.19-1.69-18.28-2.57c-3.13-.45-6.25-.94-9.36-1.51a93,93,0,0,1-9.37-2.4A160.13,160.13,0,0,1,689,545.05l1.16-.91a3,3,0,0,0,1.22-2A3,3,0,0,0,690.86,540Z"/><path class="cls-1" d="M554.57,526.1c-1.2-.73-2.41-1.47-3.63-2.18a27.83,27.83,0,0,0-5.05-2.15c.18-.72.37-1.45.52-2.18.06-.28.13-.58.18-.86a27.65,27.65,0,0,1,4.13,1.37l.59.26c1.68.75,3.31,1.62,4.93,2.54,3.28,1.86,6.56,3.71,9.89,5.51s6.39,3.63,9.51,5.6,5.91,3.91,8.74,6,5.85,4.36,8.84,6.48c5.85,4.15,11.69,8.34,17.29,12.83a200.53,200.53,0,0,1,16.19,14.53.9.9,0,0,0-.1.85.94.94,0,0,0,1.21.55l.2-.08c2.23,2.23,4.41,4.51,6.61,6.74,2.7,2.74,5.28,5.56,7.76,8.49,2.25,2.65,4.5,5.31,6.61,8.07a91.84,91.84,0,0,1,5.93,9c1.74,2.95,3.3,6,5,9a61,61,0,0,1,2.78,5.56c.68,1.59,1.31,3.21,1.93,4.82,1.22,3.17,2.27,6.38,3.47,9.56s2.39,6.59,3.3,10c1,3.77,1.74,7.64,2.48,11.47.66,3.46,1.23,6.94,1.72,10.42.24,1.68.45,3.37.63,5s.42,3.64.49,5.46a50.74,50.74,0,0,1-.06,6.19c-.13,1.72-.32,3.43-.53,5.15-.43,3.47-.85,6.93-1.31,10.39a36.16,36.16,0,0,1-1,4.84c-.45,1.73-.9,3.45-1.33,5.18s-.8,3.3-1.25,4.95-.92,3.25-1.25,4.91a74,74,0,0,0-1.21,10,54.58,54.58,0,0,0,.55,8.38c.39,2.78.8,5.54,1.42,8.27,0,.06,0,.14.05.2.71,2.63,1.5,5.22,2.32,7.83s1.68,5.47,2.53,8.22a70.15,70.15,0,0,0,3,8c.57,1.27,1.13,2.53,1.69,3.79l.82,1.91a11.45,11.45,0,0,1,.92,2.75,3.4,3.4,0,0,1-5.54,3,3.49,3.49,0,0,1-.6-.65,3.41,3.41,0,0,1-.37-.66c-.17-.3-.32-.61-.48-.92-1-1.59-2.22-3.1-3.35-4.63-1.38-1.89-2.87-3.68-4.42-5.44a85.31,85.31,0,0,0-6.49-6.28c-2.67-2.27-5.37-4.52-8.07-6.76l-1.79-1.5a1.54,1.54,0,0,0,1.61-.52,1.67,1.67,0,0,0-.22-2.33c-4.51-3.65-8.9-7.4-13.11-11.37a1.71,1.71,0,0,1,1.58.32l3.21,2.65c2.94,2.43,5.86,4.87,8.82,7.29,2.73,2.21,5.49,4.38,8.21,6.6s5.57,4.62,8.18,7.13c-.42-1.46-.82-2.92-1.24-4.39-1-3.56-2-7.1-2.8-10.71a46.41,46.41,0,0,1-.93-5.33c-.17-1.85-.29-3.68-.43-5.52a77.82,77.82,0,0,1-.09-10.94,73,73,0,0,1,1-10c.69-3.33,1.42-6.68,2.21-10,.42-1.71.89-3.41,1.28-5.13a35.33,35.33,0,0,0,.75-4.91c.28-3.33.55-6.66.65-10a46,46,0,0,0-.9-10c-.69-3.25-1.32-6.5-2.08-9.73q-.68-2.85-1.34-5.67c-.68-2.67-1.46-5.31-2.19-8s-1.46-5.49-2.32-8.2c-1-3.29-2.42-6.46-3.61-9.69s-2.2-6.47-3.39-9.68c-.61-1.66-1.23-3.31-1.92-4.94s-1.37-3.05-2-4.61-1.2-3.29-1.89-4.9c-.61-1.45-1.28-2.84-2-4.22-1.09-1.92-2.21-3.79-3.47-5.6s-2.7-3.77-4.15-5.6-3-3.77-4.55-5.62-3.06-3.48-4.64-5.18a1.94,1.94,0,0,0,.15.15c-2.26-2.43-4.51-4.87-6.76-7.32q-5.09-5.43-10.4-10.63a138.53,138.53,0,0,0-11.09-9.63c-5.71-4.56-11.54-9-17.32-13.46-2.8-2.17-5.51-4.44-8.38-6.51s-5.94-4.11-9-6C562.42,531.14,558.5,528.62,554.57,526.1Z"/><path class="cls-1" d="M638.52,744.67a1.81,1.81,0,0,1-.23-2.48,1.71,1.71,0,0,1,.9-.56c4.21,4,8.61,7.73,13.11,11.37a1.67,1.67,0,0,1,.22,2.33,1.54,1.54,0,0,1-1.61.52c-1.66-1.4-3.28-2.84-4.91-4.29C643.48,749.31,640.93,747.06,638.52,744.67Z"/><path class="cls-2" d="M337.05,449c-.08.15-.17.29-.26.44a1.15,1.15,0,0,1,.08-.16l-.09.16c-.05.08-.1.19-.17.27s0,0,0,0l-.08.14s0,0,0,0a2.51,2.51,0,0,0-.14.22l-.12.18-.19.3-.17.27c-.13.2-.25.4-.37.6l-.15.22a3.61,3.61,0,0,1-.21.34c-.12.19-.23.37-.34.56a136.06,136.06,0,0,0-8.67,16.69,2.75,2.75,0,0,0,3.48,3.69,3,3,0,0,0,1.53-1.45c1.39-2.29,2.81-4.57,4.21-6.87,3.82-6,7.69-12,12.09-17.59,2.24-2.87,4.72-5.55,7.2-8.2s5-5.27,7.33-8,4.49-5.41,6.69-8.15,4.49-5.45,6.84-8.1c4.7-5.34,9.77-10.34,14.72-15.45S400,389.17,405,384.3q3.73-3.62,7.37-7.32c2.23-2.27,4.48-4.53,6.79-6.73,5.35-4.78,10.83-9.41,16.09-14.29,2.85-2.65,5.72-5.26,8.67-7.81,2.77-2.41,5.68-4.68,8.55-7,2-1.61,4.1-3.17,6.16-4.72a3,3,0,0,0,1.2-2.16l1.49-3.24a1.44,1.44,0,0,0,.13-.59h0a2,2,0,0,0,.22-1.14c-.21-2.59-.5-5.15-.86-7.72-.32-2.38-.72-4.74-1-7.12s-.55-4.74-.71-7.12l-.09-1.53c-.08-1.85-.09-3.7-.08-5.55,0-5.39-.1-10.79,0-16.19h0V284c0-1.09.07-2.18.18-3.28s.29-2.4.46-3.6c.36-2.41.74-4.81,1.1-7.22s.68-4.77,1.18-7.13,1-4.78,1.61-7.16c1.38-6,3.07-11.89,4.79-17.77l.19-.63c2.77-9.25,5.26-18.57,7.95-27.83.67-2.15,1.36-4.29,2.17-6.39.89-2.36,1.83-4.7,2.78-7s1.78-4.36,2.74-6.51c.71-1.59,1.48-3.16,2.25-4.72.31.3.62.63.92.94a110.37,110.37,0,0,1,8.62,11c1.29,1.8,2.58,3.62,3.73,5.51s2.21,3.75,3.25,5.67c2.51,4.79,5,9.59,7.26,14.5,1.25,2.7,2.48,5.41,3.67,8.15,1.11,2.57,2.21,5.15,3.33,7.72,2.23,5.11,4.67,10.13,7.07,15.16s4.59,10,6.74,15c1.15,2.69,2.31,5.39,3.42,8.11s2.11,5.35,3.07,8.05c1.82,5.11,3.35,10.32,4.76,15.54.53,2,1.06,4.06,1.57,6.09a1.83,1.83,0,0,0,.05.23c1.22,5.2,2.38,10.41,3.41,15.65.56,2.79,1.07,5.58,1.61,8.37s1.08,5.46,1.56,8.21c1,5.39,1.45,10.83,2.13,16.25.7,5.6,1.56,11.18,2.69,16.7.51,2.52,1.13,5,1.81,7.47a2,2,0,0,0,0,1c.1.36.2.72.28,1.08.27,1.21.53,2.41.75,3.63s.34,2.59.44,3.89c.13,1.56.21,3.13.2,4.69,0,2,0,4.07-.05,6.1-.15,2.82-.28,5.64-.51,8.46-.24,3-.51,6-.79,9q-.82,9-1.73,18c-.26,2.63-.58,5.26-1,7.87-.22,1.52-.38,3.05-.66,4.56-.32,1.75-.65,3.5-1,5.25-.48,2.59-1.08,5.16-1.62,7.74-.4,1.88-.8,3.74-1.18,5.62-.22,1-.43,2.07-.65,3.09-2.39,11.67-4.82,23.33-7.11,35-.68,3.44-1.34,6.88-2.13,10.29-.31,1.36-.6,2.75-.93,4.11-.09.38-.19.74-.29,1.12l-1.57,5.83c-.74,2.41-1.47,4.84-2.3,7.23q-.82,2.41-1.65,4.81c-.51,1.5-1.1,3-1.66,4.47-2,5.42-4.26,10.76-6.52,16.08q-1.93,4.54-3.86,9.08a3.61,3.61,0,1,0,6.58,3c2.65-5.62,5.11-11.34,7.54-17.07.52-1.24,1-2.51,1.48-3.75s.89-2.25,1.3-3.4q.93-2.59,1.88-5.19c.48-1.33.89-2.69,1.33-4,1-3.14,1.95-6.32,2.89-9.49.37-1.27.66-2.57,1-3.85l.38-1.44a27.83,27.83,0,0,1,5.05,2.15c1.22.71,2.43,1.45,3.63,2.18,3.93,2.52,7.85,5,11.81,7.51,3.06,1.94,6.06,3.93,9,6s5.58,4.34,8.38,6.51c5.78,4.49,11.6,8.9,17.32,13.46a138.53,138.53,0,0,1,11.09,9.63q5.3,5.22,10.4,10.63c2.25,2.44,4.5,4.89,6.76,7.32a1.94,1.94,0,0,1-.15-.15c1.58,1.7,3.16,3.41,4.64,5.18s3.06,3.72,4.55,5.62,2.82,3.69,4.15,5.6,2.38,3.68,3.47,5.6c.71,1.38,1.38,2.78,2,4.22.69,1.6,1.25,3.27,1.89,4.9s1.35,3.07,2,4.61,1.31,3.28,1.92,4.94c1.18,3.21,2.21,6.47,3.39,9.68s2.56,6.39,3.61,9.69c.86,2.7,1.56,5.45,2.32,8.2s1.51,5.29,2.19,8q.66,2.83,1.34,5.67c.75,3.23,1.38,6.48,2.08,9.73a46,46,0,0,1,.9,10c-.1,3.34-.37,6.67-.65,10a35.33,35.33,0,0,1-.75,4.91c-.39,1.72-.86,3.42-1.28,5.13-.8,3.31-1.52,6.66-2.21,10a73,73,0,0,0-1,10,77.82,77.82,0,0,0,.09,10.94c.14,1.85.26,3.68.43,5.52a46.41,46.41,0,0,0,.93,5.33c.75,3.62,1.8,7.15,2.8,10.71.42,1.47.82,2.94,1.24,4.39-2.61-2.51-5.38-4.83-8.18-7.13s-5.48-4.39-8.21-6.6c-3-2.41-5.88-4.85-8.82-7.29L640.77,742a1.71,1.71,0,0,0-1.58-.32c-.82-.78-1.62-1.55-2.43-2.34-2.25-2.21-4.31-4.62-6.69-6.72s-5.06-4-7.64-6c-5.6-4.27-11-8.81-16.56-13.12a202.4,202.4,0,0,0-17.14-12.21q-4.54-2.81-9-5.77c-2.65-1.74-5.24-3.56-7.93-5.25a142,142,0,0,0-18.36-10.1c-3.17-1.38-6.36-2.69-9.6-3.88s-6.57-2.27-9.89-3.32-6.71-2-10.07-2.89-6.6-1.82-9.9-2.78l-.34-.09-.12,0-.13,0c-3.34-1-6.67-2-10-2.94s-6.48-1.73-9.72-2.59c-3.48-.9-6.94-1.9-10.44-2.7s-7.19-1.51-10.83-2.12-7.21-.93-10.82-1.29c-1.86-.18-3.69-.4-5.52-.64s-3.69-.63-5.52-1c-6.94-1.31-13.85-2.74-20.71-4.38-3.29-.79-6.58-1.56-9.91-2.23-3.48-.7-7-1.39-10.45-2.15-6.94-1.52-13.88-3-20.88-4.14-3.39-.57-6.77-1.11-10.17-1.56s-6.93-.89-10.35-1.57c-6.55-1.31-13.08-2.76-19.51-4.59-6.36-2-12.61-4.43-18.9-6.73-6.09-2.23-12-4.93-18.14-7.11-3.14-1.11-6.3-2.21-9.47-3.25-3.41-1.11-6.81-2.22-10.2-3.42a78.21,78.21,0,0,1-9.08-4.08c-2.85-1.45-5.63-3-8.36-4.72-2-1.3-4-2.63-5.88-4-2.14-1.57-4.32-3.12-6.35-4.84-4.08-3.47-7.94-7.21-11.66-11.06-3.35-3.69-6.46-7.58-9.67-11.4-1.81-2.17-3.63-4.35-5.42-6.54-1.55-1.9-3-3.88-4.47-5.84s-2.8-3.89-4.18-5.85c-1.59-2.25-3.21-4.51-4.72-6.82-2.73-4.16-5.09-8.56-7.45-12.94q-3.92-7.45-7.61-15c-1.35-2.78-2.7-5.55-4-8.33-1.23-2.62-2.35-5.29-3.46-8s-2.2-5.2-3.21-7.84-1.91-5.36-2.82-8.05q-2.75-8.18-4.85-16.54c-.69-2.9-1.31-5.83-1.92-8.76-.65-3.2-1.23-6.42-1.94-9.59s-1.55-6.3-2.34-9.46a70.61,70.61,0,0,0-2.74-9,74.11,74.11,0,0,0-4.57-9.24c-.83-1.46-1.66-2.91-2.57-4.31s-1.93-2.8-2.95-4.15l-.61-.78a2.15,2.15,0,0,0-.44-1.28c-1.46-1.95-3-3.84-4.52-5.76-.6-.78-1.17-1.57-1.78-2.34-.78-1-1.55-1.95-2.36-2.91A56.1,56.1,0,0,0,155,398c-1.67-1.54-3.46-2.94-5.25-4.33s-3.51-2.65-5.28-4-3.56-2.63-5.39-3.89-3.49-2.45-5.19-3.73c-.91-.68-1.8-1.37-2.74-2s-1.85-1.26-2.78-1.87c-1.21-.79-2.41-1.57-3.66-2.26s-2.34-1.27-3.51-1.88-2.23-1.24-3.37-1.82l-.29-.14c-.48-.22-1-.38-1.51-.56-.66-.23-1.31-.48-2-.74h0c-1.76-.89-3.53-1.75-5.3-2.61-.49-.24-1-.47-1.48-.69-1.37-.62-2.77-1.2-4.15-1.79-1.83-.8-3.71-1.5-5.57-2.22-3.46-1.36-7-2.53-10.53-3.66-2-.65-4-1.33-6.09-1.94l-7-2.07-1.08-.31,1.31-.57c1.21-.53,2.42-1.07,3.6-1.66L80,352.11c.73-.37,1.43-.79,2.13-1.18s1.69-1,2.51-1.48,1.67-1.1,2.45-1.7,1.49-1.12,2.18-1.75c1-.94,2.07-1.88,3.06-2.86.42-.42.84-.82,1.24-1.25s.92-1,1.34-1.47.81-.94,1.16-1.46a28.77,28.77,0,0,0,1.8-2.79A24.33,24.33,0,0,0,99,333.54c.18-.46.35-.94.5-1.43,1.34.67,2.69,1.33,4,2l3.79,2c.85.46,1.73.89,2.57,1.39l6.29,3.72,5.38,3.53c1.6,1.06,3.17,2.21,4.74,3.32,3.11,2.21,6.12,4.57,9.14,6.91,4.65,3.61,9.35,7.16,14.17,10.54a1.8,1.8,0,0,0,1.25.38,1.68,1.68,0,0,0,.89-3c-3.25-2.68-6.54-5.3-9.81-8l-4.82-3.93c-1.5-1.22-3-2.39-4.57-3.55l-2.31-1.77c-.71-.55-1.49-1-2.22-1.55l-3-2.08c-.53-.38-1.09-.71-1.64-1.06-1.21-.75-2.39-1.51-3.59-2.27-.63-.39-1.25-.82-1.9-1.17l-6.22-3.52c-.49-.28-1-.53-1.51-.8-1.26-.63-2.51-1.28-3.76-1.92-1.66-.84-3.33-1.64-5-2.43-.62-.29-1.23-.59-1.85-.86-3-1.4-6-2.76-8.94-4.1-3.64-1.64-7.3-3.24-10.94-4.84S72.56,316,69,314.52c-1.11-.47-2.22-.93-3.34-1.38,1.16-.41,2.34-.82,3.49-1.25,2-.74,4-1.59,5.91-2.47s3.55-1.78,5.31-2.72,3.52-1.82,5.28-2.76,3.74-2.07,5.62-3.09c.88-.43,1.76-.86,2.66-1.27s1.9-.81,2.86-1.21,1.7-.72,2.52-1.14c1.13-.58,2.22-1.17,3.32-1.81,1.69-1,3.31-2.07,5-3s3.69-2.1,5.5-3.22c1.66-1,3.25-2.2,4.83-3.37s3.33-2.54,5-3.84,3.21-2.46,4.82-3.68,3.19-2.47,4.74-3.77,2.78-2.5,4.14-3.77,2.47-2.36,3.72-3.52c1.95-1.81,4-3.57,5.93-5.36,1.32-1.2,2.61-2.41,3.87-3.67-.07.35-.16.69-.23,1-.2.89-.34,1.79-.49,2.68-.32,1.83-.56,3.68-.8,5.52-.49,3.6-.88,7.2-1.07,10.83,0,.81-.05,1.64,0,2.45a21.94,21.94,0,0,0,.63,4.28c.17.68.34,1.33.55,2,.1.34.22.67.34,1l-1.43,1.17c-.91.75-1.81,1.53-2.74,2.27s-2.07,1.58-3.12,2.36c-.53.4-1.13.73-1.69,1.09s-.86.53-1.3.79l-3.39,2c-2.43,1.42-4.82,2.91-7.12,4.55-2.48,1.77-5,3.53-7.41,5.38a2.54,2.54,0,0,0,1.09,4.58,2.69,2.69,0,0,0,1.87-.44l.92-.52,1.3.43c.64.23,1.29.42,1.92.67l2.13.85c1.17.46,2.31,1,3.45,1.59.51.24,1,.57,1.49.85l1.62.92c1.28.82,2.56,1.62,3.81,2.48.74.5,1.5,1,2.23,1.53l2.36,1.72a78.88,78.88,0,0,1,7.45,6.14c1.16,1.09,2.31,2.2,3.45,3.32.93.91,1.82,1.87,2.73,2.82,2.19,2.44,4.36,4.9,6.39,7.46,1,1.3,2,2.6,3.08,3.87s2.2,2.65,3.33,3.94c1.53,1.73,3,3.49,4.55,5.2.78.85,1.55,1.7,2.32,2.57.39.44.78.88,1.14,1.33s.84,1.08,1.25,1.62a1,1,0,0,0,1.31.22.94.94,0,0,0,.22-1.3,23.64,23.64,0,0,1-1.54-2.15c-.44-.71-.86-1.43-1.29-2.15-.87-1.46-1.76-2.89-2.74-4.28s-2-2.73-3-4.09-2-2.68-2.92-4-2-2.81-3-4.2-2.11-2.61-3.2-3.89-2.19-2.48-3.34-3.67c-.62-.62-1.21-1.28-1.83-1.88s-1.47-1.36-2.19-2.05c-.56-.52-1.14-1-1.72-1.53s-1.06-.94-1.61-1.39l-2.2-1.77c-.73-.59-1.52-1.11-2.27-1.67-1.37-1-2.81-2-4.24-2.94-.65-.44-1.33-.85-2-1.27s-1.39-.9-2.11-1.32l-2.55-1.49c-.55-.32-1.11-.61-1.67-.89l-1.38-.73c-.18-.08-.36-.19-.55-.27l-2.58-1.13c-.61-.27-1.25-.48-1.87-.71s-1.31-.48-2-.71l-.23-.07c3-1.79,5.91-3.65,8.89-5.42,1-.62,2.13-1.21,3.19-1.8s1.95-1.08,2.87-1.68c.63-.43,1.27-.84,1.9-1.26s1-.72,1.46-1.09c.92-.7,1.8-1.46,2.65-2.23,1.34-1.22,2.66-2.44,4-3.63.45-.4.9-.8,1.36-1.18,2.16-1.82,4.28-3.67,6.32-5.62,1.7-1.61,3.27-3.4,4.8-5.17s3.26-3.85,4.75-5.9,2.84-4.21,4.16-6.38a68.77,68.77,0,0,0,3.69-6.59c.21-.45.41-.9.61-1.35a31,31,0,0,0,.08,3.12,24.91,24.91,0,0,0,.64,3.64c.31,1.25.63,2.46,1,3.69.32,1,.67,2.1,1,3.14s.66,2,1,3c.08.23.17.45.26.67.09.46.18.93.25,1.4.25,1.53.4,3.07.59,4.6.42,3.34.85,6.67,1.44,10,1.2,6.76,3.91,13.12,6.25,19.54,1.17,3.22,2.33,6.42,3.75,9.54a102.41,102.41,0,0,0,5.09,9.37c1.72,2.91,3.65,5.69,5.57,8.47s3.84,5.37,5.81,8,4,5.26,6.16,7.72c2.44,2.74,4.93,5.43,7.5,8,2.36,2.41,4.78,4.75,7.33,7s5.25,4.49,7.9,6.71,5.2,4.22,7.82,6.3,5.18,4.31,7.79,6.43c5.46,4.44,11.53,8,17.56,11.58q6.78,4,13.48,8.18c4.48,2.76,9,5.47,13.46,8.22,5.77,3.64,11.5,7.38,17.53,10.56,3,1.59,6.08,3.18,9.19,4.6q5,2.3,10.05,4.46,2.56,1.09,5.14,2.14a2.84,2.84,0,0,0,.77.2,98.85,98.85,0,0,0-6.11,8.64h0l0,0-.09.16A0,0,0,0,1,337.05,449Z"/><path class="cls-1" d="M627.14,574.36l.84.85-.2.08a.94.94,0,0,1-1.21-.55.9.9,0,0,1,.1-.85Z"/><path class="cls-1" d="M627.75,573.25c.9-.61,1.75-1.31,2.66-1.91s1.9-1.07,2.8-1.69a32.14,32.14,0,0,1,2.73-1.72c1.22-.67,2.45-1.31,3.69-1.93,2-1,4.07-2,6.11-2.92s4.09-1.81,6.14-2.7,3.91-1.77,5.82-2.76,3.88-2.14,5.82-3.21q3.16-1.73,6.34-3.41a72.82,72.82,0,0,0,8.16-5c2.8-2,5.5-4.19,8.23-6.32l-.06.13a3.68,3.68,0,0,0,1.83,4.82l1,.41c-1.72,1.36-3.45,2.7-5.18,4.07s-3.61,2.73-5.5,4-3.79,2.33-5.73,3.43-4,2.32-6,3.5-4,2.37-6,3.46c-1.21.66-2.41,1.33-3.65,1.91l-3.38,1.52c-4.16,1.82-8.38,3.51-12.7,4.94-2.1.7-4.27,1.13-6.34,1.89-.47.16-.93.35-1.4.49a13.49,13.49,0,0,1-1.82.41c-1,.17-1.91.34-2.87.44l-.42.15-.84-.85-.46-.46a1.11,1.11,0,0,1,.43-.36Z"/><path class="cls-1" d="M560,378.84c.2.75.41,1.51.59,2.27a1.68,1.68,0,0,1-1.36,1.09,1.57,1.57,0,0,1-1.67-1c-.21-.72-.41-1.44-.61-2.16a1.52,1.52,0,0,1,1-1.12,1.72,1.72,0,0,1,1.29.06A1.35,1.35,0,0,1,560,378.84Z"/><path class="cls-1" d="M550.18,465.88c.39-1.88.79-3.74,1.18-5.62.55-2.58,1.14-5.15,1.62-7.74.34-1.75.66-3.5,1-5.25.28-1.51.44-3,.66-4.56.38-2.61.69-5.24,1-7.87q.9-9,1.73-18c.27-3,.55-6,.79-9,.23-2.82.37-5.64.51-8.46,0-2,0-4.07.05-6.1,0-1.55-.07-3.12-.2-4.69-.1-1.3-.22-2.61-.44-3.89s-.48-2.42-.75-3.63c-.08-.36-.18-.72-.28-1.08a2,2,0,0,1,0-1c.2.72.4,1.44.61,2.16a1.57,1.57,0,0,0,1.67,1,1.68,1.68,0,0,0,1.36-1.09c.3,1.23.57,2.46.75,3.71.29,1.95.48,3.91.6,5.87.09,1.77.12,3.55.14,5.33.1,5.87-.08,11.73-.39,17.59s-.6,11.73-1,17.59c-.22,3.29-.46,6.57-.72,9.86-.1,1.23-.23,2.44-.36,3.67s-.24,2.62-.44,3.92q-.41,2.75-.84,5.49c-.2,1.36-.48,2.72-.72,4.08l-.88,4.9c-1.11.59-2.2,1.2-3.28,1.83a2.15,2.15,0,0,0-1,1.42Z"/><path class="cls-1" d="M556.77,463.13c-.25,1.36-.49,2.74-.74,4.1-.13.68-.25,1.37-.37,2.05a2.45,2.45,0,0,1-3-1.45,2.63,2.63,0,0,1-.09-1.46,2.15,2.15,0,0,1,1-1.42C554.57,464.32,555.66,463.71,556.77,463.13Z"/><path class="cls-1" d="M541.61,519l-2.24-.58c.34-1.36.62-2.75.93-4.11.79-3.42,1.45-6.86,2.13-10.29,2.29-11.7,4.72-23.36,7.11-35,.22-1,.43-2.07.65-3.09l2.35.49a2.63,2.63,0,0,0,.09,1.46,2.45,2.45,0,0,0,3,1.45q-2.94,16.35-5.86,32.7c-.48,2.7-.94,5.42-1.45,8.12-.55,2.89-1.14,5.76-1.76,8.63-1.09-.28-2.19-.53-3.28-.78A1.56,1.56,0,0,0,541.61,519Z"/><path class="cls-1" d="M542.84,521a1.58,1.58,0,0,1-1.29-1.76,2.38,2.38,0,0,1,.06-.26,1.56,1.56,0,0,1,1.7-1c1.09.24,2.19.49,3.28.78-.05.28-.12.58-.18.86-.16.73-.35,1.46-.52,2.18l-.41-.13C544.61,521.42,543.73,521.2,542.84,521Z"/><path class="cls-1" d="M539.07,519.53c.1-.38.2-.74.29-1.12l2.24.58a2.38,2.38,0,0,0-.06.26,1.58,1.58,0,0,0,1.29,1.76c.89.2,1.77.42,2.64.64l.41.13-.38,1.44c-.32,1.28-.62,2.58-1,3.85-.94,3.17-1.86,6.34-2.89,9.49-.44,1.34-.85,2.7-1.33,4q-.94,2.59-1.88,5.19c-.41,1.14-.86,2.26-1.3,3.4s-1,2.52-1.48,3.75c-2.43,5.72-4.89,11.45-7.54,17.07a3.61,3.61,0,1,1-6.58-3q1.93-4.53,3.86-9.08c2.26-5.33,4.51-10.66,6.52-16.08.56-1.49,1.14-3,1.66-4.47s1.1-3.21,1.65-4.81c.83-2.39,1.55-4.82,2.3-7.23Z"/><path class="cls-1" d="M513.66,667.14l.34.09q4.94,1.43,9.9,2.78c3.37.92,6.74,1.85,10.07,2.89s6.63,2.13,9.89,3.32,6.44,2.5,9.6,3.88a142,142,0,0,1,18.36,10.1c2.68,1.69,5.27,3.51,7.93,5.25q4.45,2.94,9,5.77a202.4,202.4,0,0,1,17.14,12.21c5.57,4.32,11,8.86,16.56,13.12,2.58,2,5.21,3.88,7.64,6s4.43,4.51,6.69,6.72c.81.79,1.61,1.56,2.43,2.34a1.71,1.71,0,0,0-.9.56,1.81,1.81,0,0,0,.23,2.48c2.41,2.39,5,4.63,7.49,6.9,1.62,1.45,3.25,2.88,4.91,4.29a2.18,2.18,0,0,1-.72-.3c-3-1.95-5.93-4-8.75-6.13-2.33-1.8-4.59-3.7-6.77-5.68s-4.47-4.27-6.79-6.3-4.56-3.66-6.93-5.39c-2.61-1.91-5.21-3.83-7.76-5.84s-5.15-4.1-7.77-6.09c-5.2-4-10.44-7.94-16-11.46-4-2.42-8.13-4.58-12.22-6.85s-8.17-4.46-12.3-6.59c-2.17-1.13-4.34-2.27-6.56-3.32s-4.68-2.11-7.06-3.07c-4.24-1.72-8.55-3.2-12.9-4.58-3.32-1-6.65-2-10-2.91-4-1.09-8-2.14-12-3.23-3.76-1-7.51-2.16-11.27-3.18s-7.53-2-11.31-2.88l-10.59-2.57c-3.41-.83-6.85-1.5-10.3-2.07-3.7-.61-7.42-1-11.15-1.45-3.51-.38-7-.67-10.53-1.31s-7-1.32-10.48-2-6.92-1.39-10.34-2.23-7-1.77-10.53-2.55c-3.3-.71-6.61-1.38-9.9-2.13-6.93-1.59-13.86-3.16-20.83-4.53-3.66-.71-7.32-1.42-11-2.07-3.37-.6-6.74-1.09-10.1-1.76s-6.75-1.49-10.1-2.35c-3.55-.92-7.1-1.87-10.59-3s-6.69-2.29-10-3.64-6.48-2.65-9.72-4c-3.53-1.44-7-3-10.47-4.58-2.85-1.28-5.69-2.57-8.58-3.78-6.53-2.77-13.19-5.19-19.78-7.83a88.48,88.48,0,0,1-9.17-4.51,105.57,105.57,0,0,1-9.42-5.64c-2.82-1.94-5.56-4-8.26-6.08s-5.46-4.46-8.05-6.87-4.9-4.55-7.23-6.94c-2.57-2.63-5-5.36-7.47-8.13-2.27-2.6-4.6-5.18-6.84-7.83s-4.55-5.49-6.73-8.31-4.1-5.48-6.1-8.26-4.1-5.86-6-8.93c-3.64-6-7-12.18-10.29-18.39-1.67-3.11-3.25-6.27-4.83-9.41s-3.18-6.35-4.6-9.6-2.86-6.61-4.19-10c-1.22-3.08-2.26-6.22-3.32-9.35q-3.44-10.24-5.83-20.74c-.55-2.4-1-4.82-1.53-7.24a7.8,7.8,0,0,0,.15-2c-.07-1.93-.19-3.85-.35-5.77a39.52,39.52,0,0,0-1.37-6.8c-.42-1.54-1-3-1.47-4.56-.57-1.77-1.06-3.57-1.59-5.37a42.48,42.48,0,0,0-1.64-4.76c-.72-1.69-1.56-3.31-2.33-5a54.61,54.61,0,0,0-2.44-5.13c-.32-.56-.75-1-1.11-1.53-.7-1.43-1.39-2.87-2.22-4.24.16.17.32.32.49.48a2.33,2.33,0,0,0,2.86.09,2.39,2.39,0,0,0,1-2l.61.78c1,1.35,2,2.73,2.95,4.15s1.74,2.85,2.57,4.31a74.11,74.11,0,0,1,4.57,9.24,70.61,70.61,0,0,1,2.74,9c.79,3.16,1.62,6.29,2.34,9.46s1.29,6.39,1.94,9.59c.61,2.94,1.23,5.86,1.92,8.76q2.09,8.38,4.85,16.54c.91,2.69,1.81,5.39,2.82,8.05s2.12,5.23,3.21,7.84,2.23,5.36,3.46,8c1.32,2.79,2.67,5.56,4,8.33q3.68,7.58,7.61,15c2.36,4.37,4.73,8.77,7.45,12.94,1.51,2.32,3.12,4.57,4.72,6.82,1.38,2,2.76,3.92,4.18,5.85s2.91,3.94,4.47,5.84c1.79,2.19,3.61,4.37,5.42,6.54,3.21,3.82,6.31,7.71,9.67,11.4,3.72,3.85,7.58,7.59,11.66,11.06,2,1.72,4.21,3.27,6.35,4.84,1.92,1.4,3.89,2.74,5.88,4,2.73,1.68,5.5,3.27,8.36,4.72a78.21,78.21,0,0,0,9.08,4.08c3.39,1.2,6.79,2.31,10.2,3.42,3.17,1,6.32,2.14,9.47,3.25,6.12,2.18,12,4.87,18.14,7.11,6.29,2.3,12.54,4.69,18.9,6.73,6.43,1.83,13,3.28,19.51,4.59,3.42.68,6.89,1.11,10.35,1.57s6.78,1,10.17,1.56c7,1.18,13.94,2.62,20.88,4.14,3.48.75,7,1.45,10.45,2.15,3.32.67,6.61,1.45,9.91,2.23,6.87,1.65,13.77,3.07,20.71,4.38,1.83.35,3.68.73,5.52,1s3.67.46,5.52.64c3.61.36,7.23.68,10.82,1.29s7.23,1.29,10.83,2.12,7,1.8,10.44,2.7c3.24.86,6.5,1.66,9.72,2.59s6.67,1.94,10,2.94l.13,0Z"/><path class="cls-1" d="M543.69,306.15c-.51-2-1-4.06-1.57-6.09-1.4-5.22-2.94-10.43-4.76-15.54-1-2.7-2-5.39-3.07-8.05s-2.26-5.42-3.42-8.11c-2.15-5-4.37-10.05-6.74-15s-4.83-10.05-7.07-15.16c-1.12-2.57-2.22-5.15-3.33-7.72-1.18-2.74-2.42-5.44-3.67-8.15-2.26-4.91-4.76-9.71-7.26-14.5-1-1.92-2.11-3.82-3.25-5.67s-2.44-3.71-3.73-5.51a110.37,110.37,0,0,0-8.62-11c-.3-.31-.61-.64-.92-.94l1-2,.64-1.29a3.05,3.05,0,0,0-1.13-3.82l.05-.07a18,18,0,0,1,2.75,2.05,36.39,36.39,0,0,1,2.87,3l2.2,2.56c1.37,1.58,2.61,3.29,3.83,5,1.55,2.14,3.09,4.3,4.55,6.49,1.62,2.42,3.12,4.9,4.56,7.43,2.9,5.13,5.61,10.37,8.25,15.63,2.44,4.91,4.61,9.94,6.87,14.92s4.77,10.06,7.23,15.06,4.92,10.28,7.18,15.52,4.48,10.19,6.36,15.42c1,2.65,1.88,5.33,2.7,8s1.58,5.43,2.34,8.16c1.55,5.65,2.76,11.4,3.93,17.13,1.13,5.49,2,11,2.92,16.56.43,2.55.89,5.11,1.22,7.67.36,2.85.65,5.69.89,8.55s.35,5.58.51,8.37.38,5.38.63,8.06q.39,4.34.74,8.7c.24,2.92.72,5.82,1.25,8.71a1.28,1.28,0,0,1-.05.66c-.18-.77-.39-1.52-.59-2.27a1.35,1.35,0,0,0-.79-.87,1.72,1.72,0,0,0-1.29-.06,1.52,1.52,0,0,0-1,1.12c-.68-2.47-1.3-5-1.81-7.47-1.13-5.52-2-11.1-2.69-16.7-.68-5.42-1.17-10.86-2.13-16.25-.48-2.75-1-5.47-1.56-8.21s-1.06-5.58-1.61-8.37c-1-5.24-2.19-10.45-3.41-15.65A1.83,1.83,0,0,1,543.69,306.15Z"/><path class="cls-1" d="M484.1,177.29a3.08,3.08,0,0,1,2.33.07c.14.06.26.14.39.21a3.05,3.05,0,0,1,1.13,3.82l-.64,1.29-1,2c-.28-.28-.58-.56-.88-.81a27.36,27.36,0,0,0-2.26-1.67,2.91,2.91,0,0,1-1.16-1c-.13-.22-.24-.45-.37-.68,0,0,0,0,0-.06l.82-1.64A3.14,3.14,0,0,1,484.1,177.29Z"/><path class="cls-1" d="M483.36,176.68a3,3,0,0,1,2.14,0,.58.58,0,0,1,.18.09c.4.24.79.48,1.18.74l-.05.07c-.13-.07-.25-.15-.39-.21a3.08,3.08,0,0,0-2.33-.07,3.14,3.14,0,0,0-1.7,1.6l-.82,1.64a3,3,0,0,1,1.78-3.85Z"/><path class="cls-1" d="M456.24,306q-.16-3.11-.25-6.22c-.07-2.44-.24-4.87-.4-7.31s-.3-4.58-.4-6.87a66.73,66.73,0,0,1,0-7.66c.2-2.53.46-5.05.71-7.57.23-2.36.45-4.72.84-7,.77-4.69,1.79-9.34,2.8-14,.53-2.45,1-4.93,1.5-7.38s1-4.72,1.67-7,1.29-4.7,1.93-7,1.17-4.43,1.79-6.64,1.34-4.67,2-7c.74-2.58,1.46-5.17,2.29-7.73,1.48-4.61,3.34-9.07,5.19-13.54,1-2.31,1.93-4.6,3-6.89.83-1.87,1.75-3.71,2.67-5.55,0,0,0,0,0,.06.13.23.24.46.37.68a2.91,2.91,0,0,0,1.16,1,27.36,27.36,0,0,1,2.26,1.67c.3.25.6.52.88.81-.78,1.56-1.54,3.12-2.25,4.72-1,2.15-1.86,4.32-2.74,6.51s-1.89,4.68-2.78,7c-.81,2.11-1.5,4.25-2.17,6.39-2.68,9.27-5.18,18.59-7.95,27.83l-.19.63c-1.72,5.88-3.41,11.79-4.79,17.77-.57,2.38-1.11,4.76-1.61,7.16s-.84,4.74-1.18,7.13-.74,4.81-1.1,7.22c-.17,1.2-.35,2.39-.46,3.6s-.14,2.19-.18,3.28v.1h0c-.07,5.4,0,10.8,0,16.19,0,1.85,0,3.7.08,5.55Z"/><path class="cls-1" d="M459.86,331.61a2,2,0,0,1-1.54-.46l-.14-.13c.17-.38.34-.77.51-1.14a1.45,1.45,0,0,1,2.78.6h0A2,2,0,0,1,459.86,331.61Z"/><path class="cls-1" d="M457.58,329.77a59.23,59.23,0,0,1-1-8.83c-.13-2.39-.08-4.79-.13-7.19s-.07-4.76-.19-7.13l0-.65,2.75-.13.09,1.53q.25,3.57.71,7.12c.31,2.38.71,4.74,1,7.12.36,2.57.65,5.13.86,7.72a2,2,0,0,1-.22,1.14,1.45,1.45,0,0,0-2.78-.6c-.18.38-.35.77-.51,1.14A2.3,2.3,0,0,1,457.58,329.77Z"/><path class="cls-1" d="M458.32,331.14a2.06,2.06,0,0,0,3.16-.66,1.44,1.44,0,0,1-.13.59l-1.49,3.24a2.83,2.83,0,0,0-.51-1.93,3,3,0,0,0-1.17-1l-.15-.05a2.64,2.64,0,0,1,.16-.36Z"/><path class="cls-1" d="M456.62,334.47c.46-1,.92-2.07,1.4-3.09l.15.05a3,3,0,0,1,1.17,1,2.83,2.83,0,0,1,.51,1.93c-.2.45-.41.89-.61,1.34a1.47,1.47,0,0,1-1.91.72A1.45,1.45,0,0,1,456.62,334.47Z"/><path class="cls-1" d="M456.62,334.47a1.45,1.45,0,0,0,.72,1.91,1.47,1.47,0,0,0,1.91-.72c.2-.45.41-.89.61-1.34a3,3,0,0,1-1.2,2.16c-2.07,1.55-4.14,3.1-6.16,4.72-2.87,2.3-5.79,4.56-8.55,7-2.95,2.55-5.82,5.16-8.67,7.81-5.26,4.87-10.75,9.51-16.09,14.29-2.32,2.2-4.56,4.46-6.79,6.73q-3.63,3.71-7.37,7.32-7.5,7.3-14.77,14.8c-4.95,5.12-10,10.12-14.72,15.45q-3.52,4-6.84,8.1c-2.2,2.74-4.39,5.49-6.69,8.15s-4.84,5.37-7.33,8-5,5.33-7.2,8.2c-4.39,5.6-8.27,11.59-12.09,17.59-1.4,2.3-2.82,4.58-4.21,6.87a3,3,0,0,1-1.53,1.45,2.75,2.75,0,0,1-3.48-3.69,136.06,136.06,0,0,1,8.67-16.69c.1-.19.22-.37.34-.56a3.61,3.61,0,0,0,.21-.34l.15-.22c.12-.2.24-.4.37-.6l.17-.27.19-.3.12-.18a2.51,2.51,0,0,1,.14-.22s0,0,0,0l.08-.14s0,0,0,0,.12-.19.18-.27.18-.29.26-.44a0,0,0,0,0,0,0l.09-.16,0,0h0a98.85,98.85,0,0,1,6.11-8.64,2.73,2.73,0,0,0,2.87-1.58,2.68,2.68,0,0,0,.08-2c1.52-1.76,3.09-3.47,4.67-5.19,2.43-2.67,4.81-5.39,7.11-8.17,4.48-5.44,8.82-11,13.62-16.14,2.54-2.73,5.14-5.4,7.75-8.06,2.41-2.46,4.8-4.95,7.25-7.38,5.34-5.28,10.87-10.36,16.42-15.43,2.67-2.52,5.28-5.09,7.94-7.63,2.91-2.79,6-5.41,9.1-7.95,2.86-2.33,5.72-4.64,8.5-7.08s5.84-5.13,8.78-7.65c2.53-2.17,5.15-4.26,7.77-6.31q5-4,10.12-7.82a2.88,2.88,0,0,1,2.77-.32C457.54,332.4,457.08,333.44,456.62,334.47Z"/><path class="cls-1" d="M346.24,436.51a2.68,2.68,0,0,1-.08,2,2.73,2.73,0,0,1-2.87,1.58c.28-.39.59-.78.9-1.16C344.85,438.14,345.54,437.32,346.24,436.51Z"/><path class="cls-1" d="M336.87,449.25a1.15,1.15,0,0,0-.08.16h0Z"/><path class="cls-1" d="M184.83,264.35a1.16,1.16,0,0,1,0-.19l.25-.53c.24-.51.47-1,.69-1.57.18,1.3.45,2.6.71,3.9,1.15,4.43,2.65,8.78,3.37,13.32.68,4.27,1.23,8.55,2.11,12.78.68,2.55,1.48,5,2.38,7.52s1.87,4.82,2.83,7.22c1.06,2.65,2.07,5.33,3.1,8a68.79,68.79,0,0,0,3,6.56l.79,1.43a164.87,164.87,0,0,0,11.12,16.65c1.93,2.64,3.87,5.27,5.91,7.83s4.06,4.84,6.19,7.18a1,1,0,0,1,.1.1.08.08,0,0,0,0,0h0a.48.48,0,0,1,.07.07c1.81,1.94,3.65,3.88,5.52,5.78s3.82,3.64,5.81,5.37c2.55,2.22,5.07,4.46,7.64,6.66s5.11,4.25,7.64,6.38,5,4.4,7.61,6.46c1.34,1,2.67,2.13,4.09,3.09s2.56,1.72,3.86,2.55c3,1.8,6,3.55,9,5.29,5.73,3.31,11.41,6.72,17.12,10.06,2.89,1.69,5.84,3.3,8.7,5,3.08,1.88,6.15,3.81,9.21,5.72,2.32,1.42,4.62,2.87,7,4.25q4.18,2.45,8.41,4.85c5.19,3,10.4,5.9,15.65,8.74a2.93,2.93,0,0,1,1.45,1.54.15.15,0,0,1,0,.06c-.7.81-1.39,1.62-2.05,2.45-.31.39-.62.78-.9,1.16a2.84,2.84,0,0,1-.77-.2q-2.58-1.05-5.14-2.14-5.06-2.17-10.05-4.46c-3.11-1.43-6.15-3-9.19-4.6-6-3.18-11.76-6.92-17.53-10.56-4.49-2.75-9-5.46-13.46-8.22s-9-5.48-13.48-8.18c-6-3.61-12.1-7.14-17.56-11.58-2.61-2.12-5.15-4.34-7.79-6.43s-5.26-4.13-7.82-6.3-5.28-4.46-7.9-6.71-5-4.55-7.33-7c-2.57-2.61-5.05-5.3-7.5-8-2.18-2.45-4.2-5.07-6.16-7.72s-3.93-5.3-5.81-8-3.85-5.56-5.57-8.47a102.41,102.41,0,0,1-5.09-9.37c-1.43-3.12-2.58-6.32-3.75-9.54-2.34-6.42-5.05-12.78-6.25-19.54-.59-3.31-1-6.64-1.44-10-.19-1.53-.34-3.07-.59-4.6-.07-.47-.16-.94-.25-1.4.38.91.83,1.8,1.27,2.67a1.69,1.69,0,0,0,1.73,1.06,1.66,1.66,0,0,0,1.1-.59,1.61,1.61,0,0,0,.38-1.25,49.3,49.3,0,0,1-1-5.83c-.22-1.93-.64-3.79-1-5.69C185.19,266.44,185,265.39,184.83,264.35Z"/><path class="cls-1" d="M182.44,268.77c.86-1.5,1.62-3.05,2.37-4.61a1.16,1.16,0,0,0,0,.19c.15,1,.36,2.1.55,3.14.37,1.9.79,3.76,1,5.69a49.3,49.3,0,0,0,1,5.83,1.61,1.61,0,0,1-.38,1.25,1.66,1.66,0,0,1-1.1.59,1.69,1.69,0,0,1-1.73-1.06c-.44-.87-.89-1.76-1.27-2.67-.19-1-.41-2-.64-3-.29-1.15-.59-2.31-.87-3.46Z"/><path class="cls-1" d="M179.15,253.25c0-.92.06-1.82.17-2.74.94-2,1.89-4.06,2.95-6a1.51,1.51,0,0,1,2.76,1.24c-.34.62-.64,1.24-1,1.86-1.06,2.13-1.89,4.37-2.8,6.55-.8,1.91-1.57,3.82-2.41,5.7,0-.22,0-.44,0-.67.05-2.1.24-4.18.28-6.27Z"/><path class="cls-1" d="M180.58,270.3c-.37-1.23-.68-2.44-1-3.69a24.91,24.91,0,0,1-.64-3.64,31,31,0,0,1-.08-3.12c.84-1.89,1.61-3.79,2.41-5.7.91-2.18,1.74-4.42,2.8-6.55.31-.62.62-1.24,1-1.86a1.51,1.51,0,0,0-2.76-1.24c-1.06,2-2,4-2.95,6,0-.44.1-.87.18-1.31.12-.71.24-1.42.39-2.13a25,25,0,0,1,1.39-4.35,2.59,2.59,0,0,1,4.72,2.13c-.24.62-.48,1.23-.69,1.86a24.36,24.36,0,0,0-.71,5.06c0,1.51.06,3,0,4.53v.26c0,1.65-.06,3.28,0,4.93a25.28,25.28,0,0,0,.2,2.66c-.74,1.56-1.51,3.11-2.37,4.61l-1.09,1.91c.28,1.15.58,2.31.87,3.46.23,1,.45,2,.64,3-.09-.22-.18-.44-.26-.67-.37-1-.71-2-1-3S180.9,271.35,180.58,270.3Z"/><path class="cls-1" d="M179.44,355.16c.43.72.85,1.44,1.29,2.15a23.64,23.64,0,0,0,1.54,2.15.94.94,0,0,1-.22,1.3,1,1,0,0,1-1.31-.22c-.41-.55-.82-1.09-1.25-1.62s-.75-.89-1.14-1.33c-.77-.87-1.54-1.72-2.32-2.57-1.54-1.71-3-3.47-4.55-5.2-1.13-1.29-2.25-2.6-3.33-3.94s-2.05-2.57-3.08-3.87c-2-2.57-4.2-5-6.39-7.46-.9-1-1.79-1.91-2.73-2.82-1.14-1.12-2.29-2.23-3.45-3.32a78.88,78.88,0,0,0-7.45-6.14l-2.36-1.72c-.73-.53-1.49-1-2.23-1.53-1.25-.86-2.53-1.67-3.81-2.48L135,315.6c-.49-.28-1-.61-1.49-.85-1.14-.55-2.27-1.13-3.45-1.59l-2.13-.85c-.63-.25-1.28-.44-1.92-.67l-1.3-.43q1.75-1,3.46-2l.23.07c.67.23,1.32.46,2,.71s1.26.44,1.87.71l2.58,1.13c.19.08.37.19.55.27l1.38.73c.56.28,1.12.57,1.67.89l2.55,1.49c.71.42,1.4.87,2.11,1.32s1.35.83,2,1.27c1.43,1,2.86,1.91,4.24,2.94.75.56,1.54,1.08,2.27,1.67l2.2,1.77c.56.45,1.08.92,1.61,1.39s1.16,1,1.72,1.53c.72.69,1.46,1.37,2.19,2.05s1.22,1.26,1.83,1.88c1.15,1.18,2.26,2.42,3.34,3.67s2.2,2.55,3.2,3.89,2,2.8,3,4.2,1.93,2.72,2.92,4,2,2.7,3,4.09S178.57,353.7,179.44,355.16Z"/><path class="cls-1" d="M154.86,401.26A95.77,95.77,0,0,1,169,415.49a2.39,2.39,0,0,1-1,2,2.33,2.33,0,0,1-2.86-.09c-.17-.16-.34-.31-.49-.48a3.89,3.89,0,0,0-.23-.4,26.74,26.74,0,0,0-4.78-5.37c-.47-.44-1-.89-1.45-1.31a5.67,5.67,0,0,0-.34-2.84,9.44,9.44,0,0,0-2.44-3.32c-1.13-1.22-2.27-2.43-3.43-3.63-.79-1-1.61-2-2.47-2.9C151.37,398.46,153.14,399.82,154.86,401.26Z"/><path class="cls-1" d="M151.19,290.13a1.68,1.68,0,0,0,1.51-1.87c-.21-.89-.41-1.79-.59-2.68l1.08-.84c1.88-1.44,3.67-2.95,5.42-4.54,1.51-1.47,3-3,4.48-4.49s2.69-3,4-4.58,2.52-3.38,3.72-5.11c1.07-1.54,2.12-3.09,3.13-4.68.78-1.32,1.52-2.65,2.19-4s1.37-2.85,2.05-4.29c.4-.84.79-1.68,1.17-2.52-.1.91-.15,1.81-.17,2.74v-.35c0,2.09-.23,4.17-.28,6.27,0,.23,0,.45,0,.67-.2.45-.4.9-.61,1.35a68.77,68.77,0,0,1-3.69,6.59c-1.32,2.17-2.67,4.32-4.16,6.38s-3.09,4-4.75,5.9-3.1,3.55-4.8,5.17c-2,1.95-4.16,3.79-6.32,5.62-.46.39-.91.79-1.36,1.18L151,290.14Z"/><path class="cls-1" d="M153.84,270.59a1.72,1.72,0,0,0,0,.24l-.14.24-.3-.06C153.55,270.87,153.69,270.73,153.84,270.59Z"/><path class="cls-1" d="M152.7,288.27a1.68,1.68,0,0,1-1.51,1.87H151a1.71,1.71,0,0,1-1.59-1.09l-.38-1c1-.82,2-1.62,3.07-2.42C152.29,286.48,152.49,287.38,152.7,288.27Z"/><path class="cls-1" d="M152.22,256.05a1,1,0,0,0-.14-1.43,1.07,1.07,0,0,0-.23-.15l-.17-.05a1.32,1.32,0,0,1,.78-.1,1.53,1.53,0,0,1,.36.1,1.46,1.46,0,0,1,.89,1.59c-.28,1.14-.52,2.29-.78,3.44-.18.83-.3,1.68-.44,2.53-.25,1.58-.43,3.19-.58,4.78-.28,3.31-.44,6.64-.56,10a39.65,39.65,0,0,0,.29,6.31c.14.85.28,1.7.46,2.55-1,.8-2.05,1.6-3.07,2.42-.12-.34-.23-.67-.34-1-.21-.67-.38-1.32-.55-2a21.94,21.94,0,0,1-.63-4.28c0-.82,0-1.65,0-2.45.19-3.63.58-7.23,1.07-10.83.24-1.85.47-3.69.8-5.52.16-.89.29-1.79.49-2.68.07-.35.16-.69.23-1C150.85,257.5,151.54,256.78,152.22,256.05Z"/><path class="cls-1" d="M151.37,254.59a1.11,1.11,0,0,1,.31-.16l.17.05a1.07,1.07,0,0,1,.23.15,1,1,0,0,1,.14,1.43c-.68.72-1.37,1.45-2.08,2.14.2-.88.39-1.75.62-2.62A1.59,1.59,0,0,1,151.37,254.59Z"/><path class="cls-1" d="M123.43,307.61c1.6.5,3.18,1,4.76,1.55q-1.71,1-3.46,2c-.84-.28-1.7-.56-2.55-.82a1.45,1.45,0,0,1-.8-.85,1.59,1.59,0,0,1,0-1.16,1.54,1.54,0,0,1,.85-.8A1.65,1.65,0,0,1,123.43,307.61Z"/><path class="cls-1" d="M122.27,307.58a1.54,1.54,0,0,0-.85.8,1.59,1.59,0,0,0,0,1.16,1.45,1.45,0,0,0,.8.85c.85.26,1.71.53,2.55.82l-.92.52a2.69,2.69,0,0,1-1.87.44,2.54,2.54,0,0,1-1.09-4.58c2.43-1.85,4.93-3.61,7.41-5.38,2.3-1.64,4.69-3.13,7.12-4.55l3.39-2c.44-.25.87-.51,1.3-.79s1.15-.69,1.69-1.09c1.06-.78,2.1-1.54,3.12-2.36s1.82-1.52,2.74-2.27L149,288l.38,1a1.71,1.71,0,0,0,1.59,1.09l2.15,1.91c-1.35,1.18-2.67,2.41-4,3.63-.85.78-1.73,1.53-2.65,2.23-.48.37-1,.75-1.46,1.09s-1.27.83-1.9,1.26c-.92.6-1.91,1.13-2.87,1.68s-2.14,1.18-3.19,1.8c-3,1.77-5.92,3.63-8.89,5.42-1.58-.55-3.16-1-4.76-1.55A1.65,1.65,0,0,0,122.27,307.58Z"/><path class="cls-1" d="M121.24,374.05c1.17.61,2.35,1.23,3.51,1.88s2.45,1.48,3.66,2.26c.93.61,1.87,1.22,2.78,1.87s1.82,1.35,2.74,2c1.7,1.28,3.44,2.53,5.19,3.73s3.61,2.58,5.39,3.89,3.55,2.6,5.28,4,3.59,2.79,5.25,4.33a56.1,56.1,0,0,1,4.9,5.21c.81,1,1.58,1.93,2.36,2.91.61.77,1.18,1.56,1.78,2.34,1.5,1.92,3.06,3.81,4.52,5.76a2.15,2.15,0,0,1,.44,1.28,95.77,95.77,0,0,0-14.17-14.24c-1.72-1.44-3.49-2.8-5.3-4.12.86.94,1.69,1.9,2.47,2.9,1.15,1.2,2.3,2.41,3.43,3.63A9.44,9.44,0,0,1,157.9,407a5.67,5.67,0,0,1,.34,2.84c.49.42,1,.87,1.45,1.31a26.74,26.74,0,0,1,4.78,5.37,3.89,3.89,0,0,1,.23.4c-4-3.94-7.65-8.29-11.41-12.51-.55-.57-1.08-1.13-1.66-1.68-.79-.74-1.59-1.46-2.41-2.17-1.48-1.27-3-2.47-4.54-3.68s-3.11-2.41-4.68-3.62-2.92-2.27-4.47-3.31c-1.83-1.26-3.65-2.55-5.4-3.92-.87-.68-1.72-1.4-2.58-2.11s-1.62-1.27-2.42-1.93c-1.62-1.36-3.21-2.76-4.86-4.09-1.21-1-2.42-1.94-3.68-2.84l1,.56,2.65,1.54a1.66,1.66,0,0,0,1-.91,1.7,1.7,0,0,0-.84-2.22q-3.13-1.65-6.29-3.23c.65.26,1.3.51,2,.74.5.18,1,.34,1.51.56l.29.14C119,372.81,120.11,373.46,121.24,374.05Z"/><path class="cls-1" d="M114.11,370.79q3.16,1.57,6.29,3.23a1.7,1.7,0,0,1,.84,2.22,1.66,1.66,0,0,1-1,.91l-2.65-1.54-1-.56c-.37-.27-.74-.52-1.12-.78a19.43,19.43,0,0,0-2.43-1.21,1.27,1.27,0,0,1-.63-1.67,1.29,1.29,0,0,1,1.67-.63Z"/><path class="cls-1" d="M99.6,328.15c.62.27,1.23.57,1.85.86,1.68.8,3.35,1.59,5,2.43,1.26.64,2.51,1.29,3.76,1.92.5.26,1,.51,1.51.8l6.22,3.52c.65.36,1.27.79,1.9,1.17,1.2.77,2.38,1.52,3.59,2.27.55.35,1.1.68,1.64,1.06l3,2.08c.73.51,1.51,1,2.22,1.55l2.31,1.77c1.54,1.16,3.07,2.34,4.57,3.55l4.82,3.93c3.27,2.67,6.56,5.29,9.81,8a1.68,1.68,0,0,1-.89,3,1.8,1.8,0,0,1-1.25-.38c-4.82-3.38-9.52-6.93-14.17-10.54-3-2.34-6-4.7-9.14-6.91-1.57-1.11-3.13-2.26-4.74-3.32l-5.38-3.53-6.29-3.72c-.84-.5-1.72-.93-2.57-1.39l-3.79-2c-1.31-.71-2.66-1.37-4-2,.07-.23.16-.45.23-.68a1.71,1.71,0,0,0,0-1.16,1.56,1.56,0,0,0-.81-.85Z"/><path class="cls-1" d="M99.8,330.27a1.71,1.71,0,0,1,0,1.16c-.07.23-.16.45-.23.68-.49-.23-1-.47-1.47-.72l-1.28-.63.19-.58a1.45,1.45,0,0,1,.85-.8,1.49,1.49,0,0,1,1.16,0A1.56,1.56,0,0,1,99.8,330.27Z"/><path class="cls-1" d="M91.77,364.33l-.12,0-1-.36c-.37-.14-.74-.26-1.11-.38l.43-.08Z"/><path class="cls-1" d="M91.66,364.29l-1-.36Z"/><path class="cls-1" d="M87.14,343.9c.74-.63,1.45-1.3,2.17-2l.18-.18,1.43-1.44c.47-.47.91-1,1.36-1.47a22.85,22.85,0,0,0,2.38-3.13l0,0a0,0,0,0,0,0,0,13,13,0,0,0,1-2.05c.16-.41.31-.81.48-1.22s.4-1.08.58-1.64l1.28.63c.48.25,1,.49,1.47.72-.16.48-.32,1-.5,1.43a24.33,24.33,0,0,1-1.14,2.63,28.77,28.77,0,0,1-1.8,2.79c-.36.51-.78,1-1.16,1.46s-.9,1-1.34,1.47-.82.83-1.24,1.25c-1,1-2,1.92-3.06,2.86-.69.63-1.44,1.2-2.18,1.75s-1.61,1.16-2.45,1.7-1.66,1-2.51,1.48-1.39.82-2.13,1.18l-2.25,1.15c-1.17.59-2.39,1.12-3.6,1.66l-1.31.57c-1.13-.34-2.27-.66-3.42-1,2.24-1.14,4.48-2.27,6.7-3.45l.14-.07c.81-.46,1.64-.9,2.42-1.37l2.91-1.72A41.34,41.34,0,0,0,87.14,343.9Z"/><path class="cls-1" d="M68.39,356.14a1.11,1.11,0,0,1,0-.84,1.23,1.23,0,0,1,.62-.58l.42-.21c1.14.31,2.29.64,3.42,1-1,.44-2,.87-3.06,1.29A1.11,1.11,0,0,1,68.39,356.14Z"/><path class="cls-1" d="M68.41,355.3a1.1,1.1,0,0,0,1.39,1.48c1-.42,2-.85,3.06-1.29l1.08.31,7,2.07c2,.61,4.06,1.29,6.09,1.94,3.53,1.13,7.07,2.3,10.53,3.66,1.86.72,3.73,1.43,5.57,2.22,1.38.6,2.78,1.17,4.15,1.79.5.22,1,.45,1.48.69,1.77.86,3.54,1.72,5.3,2.61a1.29,1.29,0,0,0-1.67.63,1.27,1.27,0,0,0,.63,1.67,19.43,19.43,0,0,1,2.43,1.21c.38.25.75.5,1.12.78-1.11-.65-2.22-1.3-3.39-1.87l-6.1-3-.88-.42c-1.94-.87-4-1.57-5.93-2.32a29.78,29.78,0,0,0-3.51-1.13q-2-.86-4.06-1.67l-1-.36L90,363.47l-.43.08c-1.27-.42-2.54-.8-3.82-1.15a20.56,20.56,0,0,0-2.77-.57,9.94,9.94,0,0,0-2.23,0L80,361.6c-4.13-1.23-8.26-2.45-12.41-3.63a2.12,2.12,0,0,1-1.28-.79,1.89,1.89,0,0,1-.34-1.42,1.93,1.93,0,0,1,.79-1.28,1.85,1.85,0,0,1,1.42-.34l1.25.36-.42.21A1.23,1.23,0,0,0,68.41,355.3Z"/><path class="cls-1" d="M61,310.14c1.3-.69,2.6-1.38,3.93-2,1.16-.55,2.34-1.06,3.5-1.6,2.35-1.11,4.69-2.24,7-3.44l3.26-1.73c1.76-.92,3.55-1.78,5.34-2.65s3.54-1.83,5.37-2.62c1-.41,1.94-.82,2.92-1.21s1.83-.68,2.75-1,1.8-.7,2.68-1.12,1.59-.77,2.38-1.17c3-1.69,6-3.29,9.09-4.9.83-.48,1.66-1,2.45-1.47s1.88-1.22,2.81-1.86c1.68-1.14,3.32-2.36,5-3.55s3.12-2.31,4.73-3.42,3.31-2.25,4.92-3.47,3.18-2.44,4.73-3.72,3.26-2.73,4.92-4.06c3.08-2.51,6.24-4.94,9.2-7.58.94-.89,1.86-1.81,2.74-2.76a1.1,1.1,0,0,1,1-.34,1.11,1.11,0,0,0-.31.16,1.59,1.59,0,0,0-.61,1c-.23.87-.42,1.74-.62,2.62-1.26,1.26-2.55,2.47-3.87,3.67-2,1.78-4,3.54-5.93,5.36-1.25,1.16-2.47,2.35-3.72,3.52s-2.72,2.58-4.14,3.77-3.12,2.57-4.74,3.77-3.23,2.43-4.82,3.68-3.3,2.59-5,3.84-3.18,2.33-4.83,3.37c-1.81,1.12-3.66,2.17-5.5,3.22s-3.32,2-5,3c-1.1.64-2.19,1.24-3.32,1.81-.82.42-1.68.78-2.52,1.14s-1.92.8-2.86,1.21-1.78.84-2.66,1.27c-1.88,1-3.73,2.1-5.62,3.09s-3.53,1.82-5.28,2.76-3.5,1.91-5.31,2.72-3.91,1.73-5.91,2.47c-1.15.43-2.33.84-3.49,1.25-1.47-.6-2.94-1.18-4.41-1.76a1.69,1.69,0,0,0-1-.06,1.4,1.4,0,0,1,.09-.27A2.25,2.25,0,0,1,61,310.14Z"/><path class="cls-1" d="M61.2,311.37c1.48.58,2.95,1.16,4.41,1.76l-2.56.87a2.23,2.23,0,0,1-2.85-1.28,2.12,2.12,0,0,1,0-1.42A1.69,1.69,0,0,1,61.2,311.37Z"/><path class="cls-1" d="M65.61,313.13c1.12.45,2.23.91,3.34,1.38,3.61,1.51,7.17,3.11,10.76,4.69S87,322.41,90.65,324c3,1.34,6,2.69,8.94,4.1l-.6,1.28a1.49,1.49,0,0,0-1.16,0,1.45,1.45,0,0,0-.85.8l-.19.58c-1.35-.67-2.73-1.33-4.09-2-3.62-1.75-7.28-3.42-10.92-5.09-3.46-1.59-6.94-3.17-10.41-4.74-3.76-1.7-7.56-3.32-11.41-4.82a1.52,1.52,0,0,1-.77-2,1.5,1.5,0,0,1,1-.82,2.12,2.12,0,0,0,0,1.42A2.23,2.23,0,0,0,63.05,314Z"/><path class="cls-3" d="M336.6,449.7l.18-.29h0Z"/><path class="cls-4" d="M335.89,450.83l-.37.59,0,.06Z"/><path class="cls-5" d="M254,595.13c-2.44-2.27-4.9-4.55-7.23-6.94-2.57-2.64-5-5.36-7.48-8.14-2.28-2.61-4.61-5.18-6.84-7.83s-4.55-5.49-6.73-8.32-4.1-5.48-6.1-8.26-4.1-5.86-6-8.93c-3.64-6-7-12.19-10.3-18.39-1.66-3.11-3.25-6.26-4.83-9.42s-3.18-6.35-4.6-9.6-2.87-6.61-4.19-10c-1.22-3.08-2.26-6.21-3.32-9.35a215.16,215.16,0,0,1-5.83-20.73c-.55-2.41-1-4.82-1.53-7.24a7.94,7.94,0,0,0,.15-2q-.12-2.88-.36-5.76a39.08,39.08,0,0,0-1.37-6.81c-.41-1.54-1-3-1.46-4.56-.57-1.78-1.06-3.58-1.6-5.37a43,43,0,0,0-1.64-4.77c-.71-1.68-1.56-3.31-2.32-5a55.12,55.12,0,0,0-2.44-5.12c-.32-.55-.75-1-1.11-1.53-.72-1.44-1.43-2.89-2.25-4.27-4-3.93-7.64-8.27-11.38-12.47-.55-.57-1.09-1.14-1.66-1.68-.79-.74-1.59-1.46-2.41-2.17-1.47-1.27-3-2.47-4.54-3.69s-3.11-2.41-4.67-3.61-2.93-2.27-4.47-3.32c-1.84-1.25-3.65-2.54-5.4-3.92-.88-.69-1.72-1.41-2.59-2.1s-1.62-1.27-2.41-1.94c-1.63-1.36-3.21-2.76-4.87-4.08-1.2-1-2.41-1.94-3.66-2.84-1.12-.66-2.23-1.31-3.4-1.88l-6.1-3-.89-.41c-1.94-.87-4-1.57-5.93-2.32a31.7,31.7,0,0,0-3.5-1.13c-1.35-.57-2.69-1.13-4.06-1.66a72.13,72.13,0,0,0-7-2.29,20.33,20.33,0,0,0-2.77-.57,10.17,10.17,0,0,0-2.23,0L80,361.6c-4.13-1.23-8.26-2.46-12.41-3.63a2.11,2.11,0,0,1-1.28-.79,1.93,1.93,0,0,1,.45-2.7,1.84,1.84,0,0,1,1.42-.34l1.24.35c2.24-1.13,4.48-2.27,6.7-3.44.86-.48,1.73-.94,2.57-1.44l2.91-1.73a40.53,40.53,0,0,0,5.53-4c.74-.63,1.45-1.3,2.17-2l1.61-1.61c.47-.47.91-1,1.36-1.47a22.87,22.87,0,0,0,2.42-3.18,13.47,13.47,0,0,0,1-2.06l.48-1.22c.21-.54.39-1.08.58-1.63l-4.09-2c-3.61-1.75-7.27-3.42-10.92-5.1q-5.2-2.39-10.41-4.74c-3.76-1.7-7.56-3.32-11.41-4.82a1.51,1.51,0,0,1-.76-2,1.43,1.43,0,0,1,.94-.8,2.16,2.16,0,0,1,.1-.3,2.24,2.24,0,0,1,.73-.9c1.29-.69,2.6-1.39,3.93-2,1.16-.54,2.33-1.06,3.5-1.61,2.35-1.11,4.69-2.24,7-3.43h0l3.27-1.74c1.76-.92,3.55-1.78,5.33-2.66s3.54-1.83,5.36-2.61c1-.41,1.95-.82,2.93-1.21s1.84-.68,2.75-1,1.8-.71,2.69-1.12,1.59-.77,2.37-1.18c3-1.68,6.05-3.28,9.09-4.89.83-.48,1.65-1,2.46-1.46s1.88-1.22,2.8-1.85c1.68-1.14,3.32-2.36,5-3.56s3.12-2.3,4.72-3.41,3.32-2.26,4.92-3.47,3.18-2.44,4.72-3.72,3.26-2.72,4.92-4.06c3.09-2.5,6.24-4.93,9.21-7.57.94-.9,1.85-1.82,2.74-2.76a1.07,1.07,0,0,1,1-.32,1.48,1.48,0,0,1,.77-.12,1.41,1.41,0,0,1,.35.11,1.46,1.46,0,0,1,.9,1.6c-.28,1.14-.53,2.28-.78,3.43-.18.84-.3,1.68-.44,2.53-.26,1.58-.43,3.18-.58,4.78-.29,3.31-.45,6.64-.56,10a39,39,0,0,0,.29,6.31c.13.85.29,1.7.46,2.55l1.08-.84c1.87-1.44,3.67-3,5.41-4.54q2.28-2.21,4.48-4.49c1.4-1.46,2.7-3,4-4.58s2.52-3.37,3.72-5.1q1.61-2.31,3.13-4.68c.78-1.32,1.52-2.65,2.2-4s1.38-2.85,2.05-4.28c.4-.85.8-1.71,1.2-2.56,0-.42.08-.85.15-1.27.12-.71.25-1.41.39-2.12a25.58,25.58,0,0,1,1.4-4.35,2.59,2.59,0,0,1,4.72,2.12c-.24.62-.48,1.24-.7,1.86a24.85,24.85,0,0,0-.71,5.06c0,1.51.06,3,0,4.52v-.47c0,.19,0,.38,0,.57,0,1.69-.06,3.39,0,5.08,0,.9.08,1.78.19,2.66l.25-.53c.24-.52.47-1,.69-1.58.18,1.31.45,2.6.71,3.9,1.15,4.44,2.65,8.79,3.37,13.33.68,4.27,1.22,8.55,2.11,12.78.68,2.55,1.48,5,2.38,7.51s1.87,4.83,2.82,7.23c1.06,2.65,2.07,5.32,3.11,8a70,70,0,0,0,3,6.56l.79,1.42a166.41,166.41,0,0,0,11.12,16.66c1.93,2.64,3.87,5.27,5.91,7.82s4.12,4.92,6.29,7.29l0,0,.07.07c1.82,1.94,3.66,3.88,5.53,5.78s3.82,3.64,5.81,5.37c2.54,2.22,5.08,4.45,7.64,6.65s5.1,4.24,7.64,6.39,5,4.4,7.62,6.46c1.34,1.05,2.67,2.13,4.08,3.09s2.56,1.72,3.86,2.55c3,1.8,6,3.55,9,5.29,5.73,3.31,11.4,6.72,17.12,10.06,2.89,1.69,5.84,3.3,8.7,5.05,3.09,1.88,6.15,3.8,9.21,5.71,2.32,1.42,4.63,2.87,7,4.25q4.19,2.45,8.41,4.86c5.19,3,10.4,5.9,15.65,8.75a2.89,2.89,0,0,1,1.45,1.53l0,.07c1.52-1.76,3.1-3.47,4.66-5.19,2.43-2.67,4.81-5.38,7.11-8.17,4.48-5.44,8.82-11,13.62-16.14,2.54-2.73,5.14-5.4,7.75-8.06,2.41-2.47,4.81-5,7.26-7.38,5.34-5.28,10.87-10.36,16.41-15.43,2.67-2.52,5.29-5.1,7.94-7.64,2.91-2.79,6-5.41,9.09-7.95,2.86-2.33,5.73-4.64,8.5-7.07s5.84-5.12,8.79-7.66c2.53-2.17,5.14-4.25,7.76-6.31q5-4,10.12-7.82a2.86,2.86,0,0,1,2.76-.32l.17-.37a2.33,2.33,0,0,1-.61-1.24,58.64,58.64,0,0,1-1-8.82c-.12-2.4-.08-4.79-.12-7.19s-.07-4.76-.19-7.13-.21-4.58-.28-6.86c-.07-2.44-.24-4.87-.4-7.31s-.3-4.58-.39-6.87a63.71,63.71,0,0,1,0-7.66c.2-2.53.46-5,.71-7.57.23-2.35.45-4.71.84-7,.77-4.69,1.79-9.33,2.8-14,.53-2.45,1-4.93,1.49-7.38s1-4.71,1.67-7,1.29-4.7,1.93-7,1.17-4.43,1.79-6.63,1.34-4.66,2-7c.74-2.58,1.45-5.17,2.28-7.73,1.48-4.61,3.35-9.07,5.19-13.54,1-2.31,1.93-4.61,3-6.89.84-1.87,1.76-3.71,2.68-5.55a3,3,0,0,1,3.92-3.87S424.73,44.36,370.22,8.71,229-53.14,121.4-32.17s-194.62,147.81-179.94,260,43.41,237.43,328.86,380.27c-2.82-1.94-5.55-4-8.26-6.08S256.6,597.54,254,595.13ZM153.85,270.84l-.13.23-.31-.06.42-.42Q153.84,270.72,153.85,270.84Z"/></svg>