<svg id="Layer_8" data-name="Layer 8" xmlns="http://www.w3.org/2000/svg" viewBox="0 0 871.69 845.84"><defs><style>.cls-1{fill:#bebebe;}.cls-2{fill:#fff;}.cls-3{fill:#7f7f7f;}.cls-4{fill:#e4dc00;}.cls-5{fill:#ea9a00;}.cls-6{fill:#c1c1c1;}.cls-7{fill:#ffe11a;}</style></defs><title>zero_learning_curve</title><path class="cls-1" d="M216.36,395.79l.07.49c.78,5.47,1.73,10.93,2.89,16.34s2.58,10.74,4.07,16.07a263.1,263.1,0,0,0,10.66,30.18c.46,1.06.91,2.11,1.38,3.16s1,2.11,1.35,3.2A208,208,0,0,0,250,488.78c2.41,3.76,4.77,7.54,7.41,11.15.67.92,1.27,1.88,2,2.79.5.67,1,1.32,1.52,2a50.82,50.82,0,0,1,3.44,4.77c1.44,1.82,2.88,3.64,4.26,5.52l2,2.36a12.46,12.46,0,0,1,1.15,1.73c2.58,2.81,5.23,5.5,8,8.1a2.16,2.16,0,0,1,0,3,1.56,1.56,0,0,1-.47.34c-.28-.26-.56-.54-.84-.81-.93-.92-1.9-1.81-2.8-2.77s-1.64-1.86-2.4-2.83q-1.41-1.87-2.86-3.7c-.93-1.17-1.92-2.3-2.86-3.46-1.26-1.7-2.45-3.44-3.69-5.13-1.41-1.92-2.93-3.77-4.5-5.56a1.5,1.5,0,0,0-1.14-.48,1.79,1.79,0,0,0-1.22.48,1.7,1.7,0,0,0,0,2.36c.85,1,1.67,2,2.49,2.94,1.52,2,3,4,4.4,6,.74,1.06,1.55,2.06,2.37,3.06l-.07-.05c-.61-.58-1.19-1.2-1.82-1.75a61.19,61.19,0,0,1-4.63-4.43,7.22,7.22,0,0,0-1.47-1.35l-1.25-1.3c-.56-.59-1.1-1.19-1.65-1.79-1.1-1.23-2.14-2.52-3.25-3.74-1.45-1.61-2.79-3.32-4.14-5-1.09-1.35-2.18-2.72-3.25-4.08-2.47-3.16-4.75-6.43-6.94-9.79-.69-.91-1.28-1.86-1.88-2.83-.86-1.39-1.74-2.77-2.59-4.17-1.67-2.76-3.28-5.55-4.85-8.37-1.39-2.48-2.83-4.9-4.14-7.43s-2.54-5-3.68-7.54c-2.57-5.83-5-11.71-7.1-17.75q-2.82-8.14-4.87-16.52a220.48,220.48,0,0,1-5.79-37.46c-.2-3-.33-6.11-.42-9.15s-.17-6.26-.07-9.37c.24-6.29.45-12.6,1.17-18.86.93-8,2-16,3.71-23.89a226.05,226.05,0,0,1,6.87-24.77,236.82,236.82,0,0,1,46.67-80.42,209.14,209.14,0,0,1,16.51-16.71c6.07-5.45,12.42-10.53,18.93-15.44a162.31,162.31,0,0,1,18.29-12.31,201.65,201.65,0,0,1,20-10.31,224.5,224.5,0,0,1,43.72-14.3,232,232,0,0,1,25.24-4,226,226,0,0,1,23.22-1.37h2.05a226.85,226.85,0,0,1,49.49,6.11,240.72,240.72,0,0,1,44.1,15.32,211.73,211.73,0,0,1,40.32,24.26,200.81,200.81,0,0,1,18.15,15.48,246.64,246.64,0,0,1,43.91,58.38c3.79,7.18,7.11,14.55,10.22,22a216.53,216.53,0,0,1,8,22.87,243.8,243.8,0,0,1,5.88,24.27c.83,4.63,1.53,9.27,2.05,13.95.25,2.14.48,4.3.68,6.45.17,1.92.27,3.84.52,5.77l-.1-.7c.2,1.51.35,3,.43,4.52s.13,3.28.15,4.93c.05,3,.16,6.08,0,9.12a178.18,178.18,0,0,1-1.82,18.16c-.59,5-1.17,10-2,15,0-.14,0-.29.05-.44-.74,5.28-1.85,10.5-3,15.68-.22,1.42-.47,2.82-.79,4.24-.19.83-.42,1.67-.58,2.5-.11.57-.21,1.12-.32,1.68-.82,3-1.79,6-2.68,9A168.44,168.44,0,0,1,634.91,461a204.25,204.25,0,0,1-18.58,34.93A214,214,0,0,1,602.6,514a180.35,180.35,0,0,1-14.19,15,151.39,151.39,0,0,1-17.56,14.46c-2.15,1.49-4.29,3-6.45,4.41q2.9-3.72,5.65-7.51a6.31,6.31,0,0,0,.88-3.25,6.47,6.47,0,0,0-1.89-4.55,6.64,6.64,0,0,0-4.66-1.88,6,6,0,0,0-4.46,1.88l-.24-.25c1.71-1.68,3.4-3.42,5.12-5.09,2-1.91,3.94-3.86,5.84-5.84,7.08-7.37,13.83-15,20.14-23a272.44,272.44,0,0,0,19.08-28.6c2.77-4.79,5.45-9.65,7.84-14.66,2-4.25,4-8.55,5.83-12.88.66-1.57,1.29-3.13,2-4.7.73-2,1.45-4.08,2.14-6.13.56-1.65,1.23-3.24,1.79-4.89.27-.79.55-1.57.81-2.37.16-.5.34-1,.5-1.5.14-.33.28-.67.42-1,.52-1.82,1-3.65,1.49-5.49,1.69-6.82,3.24-13.69,4.26-20.63.56-4.61.78-9.26.91-13.89.14-5.19.56-10.35.55-15.55,0-2.54,0-5.08.1-7.62,0-1.27-.05-2.53-.11-3.79-.07-1.44-.12-2.88-.23-4.33q-.54-7.8-1.53-15.56c-.31-2.15-.61-4.31-1-6.45-.39-2.37-.88-4.73-1.28-7.1-.36-2.2-.93-4.37-1.47-6.53-.44-1.78-.88-3.57-1.37-5.34a201.44,201.44,0,0,0-8.25-24.09,217.73,217.73,0,0,0-26.69-45.8c-3.08-3.92-6.27-7.75-9.62-11.46s-6.62-6.92-10.07-10.24a260.79,260.79,0,0,0-20.65-17.84,226.13,226.13,0,0,0-48.45-28.25,211.16,211.16,0,0,0-51.5-13.85,219.13,219.13,0,0,0-28.57-1.81,230.68,230.68,0,0,0-28.79,1.73,213.11,213.11,0,0,0-52.15,14.1l-.23.1a253.22,253.22,0,0,0-26.9,13.31,223.08,223.08,0,0,0-23.74,15.56,216.84,216.84,0,0,0-22.05,19.69,241,241,0,0,0-17.29,19.88A204.18,204.18,0,0,0,231.06,284a209.45,209.45,0,0,0-9.26,27,240.35,240.35,0,0,0-5.61,28.18q-.9,6.93-1.34,13.9c-.29,4.78-.37,9.55-.36,14.32,0,5.08.13,10.17.56,15.23C215.41,387,215.81,391.39,216.36,395.79Z"/><path class="cls-2" d="M638.34,354.6c.05,1.26.14,2.52.11,3.79-.08,2.54-.1,5.08-.1,7.62,0,5.2-.4,10.36-.55,15.55-.13,4.63-.35,9.28-.91,13.89-1,6.95-2.57,13.82-4.26,20.63-.45,1.85-1,3.67-1.49,5.49-.13.33-.27.67-.42,1-.16.5-.34,1-.5,1.5-.26.8-.54,1.58-.81,2.37-.56,1.65-1.23,3.24-1.79,4.89-.69,2-1.41,4.08-2.14,6.13-.67,1.56-1.3,3.12-2,4.7-1.86,4.33-3.79,8.63-5.83,12.88-2.39,5-5.07,9.86-7.84,14.66a272.44,272.44,0,0,1-19.08,28.6c-6.31,8-13.06,15.66-20.14,23-1.9,2-3.87,3.93-5.84,5.84-1.73,1.67-3.41,3.41-5.12,5.09l-.76.75c-2,1.91-4,3.72-6.11,5.53-1,.9-2.09,1.78-3.13,2.66l-1.58,1.31c-.37.42-.74.83-1.09,1.26a6.34,6.34,0,0,0-1.63,2.77,6.52,6.52,0,0,0-.22,2.05c-.56.61-1.09,1.22-1.64,1.85a96.09,96.09,0,0,0-7.8,9.92c-2.26,3.42-3.7,7.25-5.28,11-.72,1.7-1.46,3.42-2.3,5.08-1.1,2.14-2.27,4.26-3.42,6.39-2.13,4-4.33,7.89-6.32,11.92-1,2-2,4.11-3.08,6.09s-2.24,4-3.27,6.12q-1.85,3.77-3.46,7.65c-.88,2.15-1.65,4.35-2.44,6.53-1.54,4.31-2.85,8.7-4.23,13.06-.7,2.25-1.39,4.49-2,6.76s-1.12,4.38-1.7,6.57c-1.17,4.47-2.6,8.86-4.1,13.24-.79,2.32-1.67,4.6-2.58,6.88-.78,2-1.62,3.91-2.23,5.93a79.87,79.87,0,0,0-2.11,8.87c-.25,1.33-.44,2.69-.66,4s-.5,2.54-.73,3.82c-.59,3.34-1,6.7-1.28,10.06-2.58,1.33-5.21,2.54-7.86,3.68a114.4,114.4,0,0,1-15.95,4.78c-1.26.26-2.54.39-3.82.57s-2.79.39-4.17.63c-2.65.46-5.31.94-8,1.34a87,87,0,0,1-9.09.68c-3.27.05-6.53,0-9.8-.08s-6.31-.22-9.46-.44-6.56-.38-9.86-.54c-2.38-.11-4.74-.27-7.12-.54-3-.44-5.9-1-8.82-1.65-1.54-.35-3-.81-4.59-1.15s-3.19-.64-4.79-.92-3.11-.43-4.66-.69q-2.57-.46-5.14-1c-3-.68-6.13-1.12-9.11-2-1.66-.5-3.32-.94-5-1.34s-3.09-.84-4.62-1.31-3.12-.78-4.66-1.22a4.16,4.16,0,0,0,1.27-3.07c-.35-3.72-.7-7.45-1-11.18-.28-3.47-.4-7-.54-10.43s-.4-6.78-.72-10.17-.88-7-1.35-10.51c0-.08,0-.16,0-.25-.42-3.15-.82-6.3-1.23-9.45-.47-3.63-1.07-7.24-1.68-10.86a168.25,168.25,0,0,0-4.18-19.55c-1-3.29-2-6.61-3.23-9.81-1.33-3.36-2.81-6.68-4.42-9.93q-1.16-2.36-2.42-4.67c-.78-1.42-1.63-2.81-2.44-4.22-1.64-2.92-3.29-5.81-5.13-8.61s-3.64-5.5-5.65-8.11c-2.14-2.79-4.46-5.4-6.8-8s-4.62-4.91-6.87-7.43-4.25-4.91-6.38-7.37c-1.64-1.88-3.46-3.58-5.28-5.3s-3.9-3.59-5.9-5.33c-1.63-1.42-3.2-2.87-4.75-4.37a1.56,1.56,0,0,0,.47-.34,2.16,2.16,0,0,0,0-3c-2.79-2.6-5.44-5.3-8-8.1a12.46,12.46,0,0,0-1.15-1.73l-2-2.36c-1.38-1.88-2.82-3.69-4.26-5.52a50.82,50.82,0,0,0-3.44-4.77c-.5-.68-1-1.33-1.52-2-.69-.91-1.29-1.87-2-2.79-2.63-3.62-5-7.39-7.41-11.15a208,208,0,0,1-13.18-23.56c-.38-1.09-.9-2.14-1.35-3.2s-.92-2.1-1.38-3.16a263.1,263.1,0,0,1-10.66-30.18c-1.5-5.33-2.89-10.66-4.07-16.07s-2.12-10.87-2.89-16.34l-.07-.49c-.56-4.4-1-8.81-1.32-13.24-.43-5.06-.55-10.15-.56-15.23,0-4.77.07-9.53.36-14.32s.74-9.28,1.34-13.9a240.35,240.35,0,0,1,5.61-28.18,209.45,209.45,0,0,1,9.26-27,204.18,204.18,0,0,1,25.47-43.64,241,241,0,0,1,17.29-19.88,216.84,216.84,0,0,1,22.05-19.69,223.08,223.08,0,0,1,23.74-15.56,253.22,253.22,0,0,1,26.9-13.31l.23-.1a213.11,213.11,0,0,1,52.15-14.1,230.68,230.68,0,0,1,28.79-1.73,219.13,219.13,0,0,1,28.57,1.81,211.16,211.16,0,0,1,51.5,13.85,226.13,226.13,0,0,1,48.45,28.25,260.79,260.79,0,0,1,20.65,17.84c3.45,3.32,6.86,6.68,10.07,10.24s6.54,7.54,9.62,11.46a217.73,217.73,0,0,1,26.69,45.8,201.44,201.44,0,0,1,8.25,24.09c.48,1.77.93,3.56,1.37,5.34.55,2.16,1.11,4.34,1.47,6.53.39,2.37.88,4.73,1.28,7.1.36,2.14.67,4.3,1,6.45q1,7.77,1.53,15.56C638.22,351.72,638.27,353.16,638.34,354.6ZM483.26,373.4a2.59,2.59,0,0,0-4.42-1.83,2.72,2.72,0,0,0-.75,1.83l0,.33-.63,0a9.36,9.36,0,0,1-1-.1,17.84,17.84,0,0,1-3.76-1l-1.33-.59c-.5-.23-1-.44-1.53-.64a8.71,8.71,0,0,0-2.17-.43,4,4,0,0,0-1,0,8.27,8.27,0,0,0-2.4.58,16.59,16.59,0,0,1-2.18.61,3.33,3.33,0,0,1-.47,0A5.28,5.28,0,0,1,461,372c-.45-.21-.88-.43-1.32-.64a20,20,0,0,0-3.15-1.23,11.31,11.31,0,0,0-3.53-.51,8.72,8.72,0,0,0-2.12.38,10.77,10.77,0,0,1-1.54.34,6.79,6.79,0,0,1-1.25,0c-.88-.16-1.71-.52-2.59-.76a14.17,14.17,0,0,0-2.61-.44h-.44a5.47,5.47,0,0,0-2,.36,9.64,9.64,0,0,0-1.22.58,11,11,0,0,0-1,.73c-.26.2-.54.39-.8.6a21.92,21.92,0,0,1-3.22,2.17,4.92,4.92,0,0,1-.84.25h-.09q-.31-.07-.62-.16c-.86-.43-1.74-.8-2.62-1.17-1.93-.8-4.12-1.46-6.2-.94a8.28,8.28,0,0,0-1.47.62c-.42.2-.82.43-1.23.63s-.88.44-1.32.66c-.63.31-1.28.58-1.92.86a22.45,22.45,0,0,1-4.66,1.46c-1.68.2-3.39.31-5.07.44a39.39,39.39,0,0,1-4.54.07l-1.46,0a15.25,15.25,0,0,0-6.15,1.1l-2.26.8a25,25,0,0,1-4.06,1.27,7,7,0,0,1-1.07,0,7.31,7.31,0,0,1-.84-.22,26.21,26.21,0,0,1-2.8-1.83c-.31-.21-.61-.43-.92-.62s-.62-.43-1-.61a8.24,8.24,0,0,0-1.47-.61,3.78,3.78,0,0,0-2.38.08,5,5,0,0,0-1.89,1.34c-.33.31-.63.64-1,1A14.62,14.62,0,0,1,375,379.1a.89.89,0,0,1-.22.13,9.09,9.09,0,0,1-.24-1.34.84.84,0,0,1,0-.16c-.1-.8-.16-1.59-.21-2.39l.39-1.49c.71-2.54,1.52-5.07,2.37-7.57a.84.84,0,0,0-.58-1,.76.76,0,0,0-.22,0,.86.86,0,0,0-.8.61q-1,3-1.93,6.05a1.19,1.19,0,0,0-.71-.22,1.37,1.37,0,0,0-1.37,1.37c.1,1.9.2,3.78.47,5.65h0c-.47,2.87-.72,5.77-.94,8.66-.13,1.82-.17,3.66-.25,5.48s-.07,3.54,0,5.31a52.69,52.69,0,0,0,.54,6.95,43.24,43.24,0,0,0,1.78,6.92c.56,1.69,1.16,3.36,1.73,5s1.25,3.59,1.78,5.41c.26.93.58,1.85.81,2.79s.49,1.93.73,2.89.38,1.83.58,2.74.26,1.66.39,2.49.14,1.38.21,2.05a36.26,36.26,0,0,1,.15,4.22,56.38,56.38,0,0,1-.55,5.76c-.14.87-.29,1.75-.45,2.62s-.4,1.86-.61,2.77c-.39,1.81-.84,3.6-1.25,5.41s-.66,3.45-.93,5.18c-.14.92-.23,1.83-.32,2.76a33.3,33.3,0,0,0,0,5.81c.09,1.11.28,2.24.44,3.35.11.82.24,1.64.37,2.46.33,1.93.66,3.88,1,5.81.61,3.59,1.29,7.16,1.89,10.76.42,2.46.78,4.94,1.1,7.41s.51,4.95.85,7.41c0,.27.08.54.11.81s0,.27.05.4,0,.1,0,.14c.07.55.14,1.09.22,1.65l0,.26a1.51,1.51,0,0,0,0,.22.21.21,0,0,0,0,.08c0,.15,0,.29.05.44a.47.47,0,0,0,0,.05c0,.07,0,.13,0,.2.42,3.09.92,6.17,1.4,9.24.51,3.24,1,6.49,1.5,9.73.2,1.74.38,3.47.51,5.21.14,2,.24,3.91.33,5.88.08,1.66.09,3.33.1,5,0,2,0,4,.08,6,0,1.63.12,3.25.17,4.88.08,1.81.15,3.63.21,5.44.05,2,.1,4,.11,5.94s0,4-.08,6c-.08,3.41-.32,6.83-.55,10.22-.27,3.9-.54,7.79-.81,11.68-.11,1.56-.23,3.12-.34,4.7-.07.86-.13,1.74-.19,2.61s-.13,1.8-.14,2.7l-.07,2.85c0,1,.05,1.94.09,2.91s.13,1.71.2,2.58.19,1.8.29,2.71c.37,3.35,1,6.68,1.26,10,.19,2,.34,4,.47,6,.11,1.68.16,3.37.21,5.07.12,3.51.17,7,.2,10.54s.05,7.27.22,10.91c.19,4.53.72,9,1.32,13.53,0,.11,0,.22,0,.33s0,.1,0,.14c.31,2.33.57,4.64.73,7s.29,4.55.42,6.83a64.49,64.49,0,0,1,.08,6.82c-.07,1.29-.15,2.58-.24,3.86s-.12,2.72-.16,4.07a2.14,2.14,0,0,0,3.66,1.51,2.21,2.21,0,0,0,.62-1.51c.21-2,.49-3.9.68-5.84s.25-3.6.26-5.41c0-1.62-.08-3.23-.15-4.84s-.14-3.35-.23-5-.2-3.55-.38-5.31-.43-3.6-.66-5.41c-.44-3.46-.74-6.94-1-10.42s-.26-6.89-.31-10.34-.09-7-.2-10.44c-.12-3.8-.29-7.59-.62-11.37-.29-3.41-.84-6.77-1.22-10.16-.22-1.88-.39-3.76-.56-5.64-.08-.91-.08-1.82-.11-2.73s0-1.8,0-2.7c0-1.69.13-3.37.23-5.06s.21-3.31.32-5q.36-5.64.71-11.27c.11-1.91.22-3.81.32-5.71.09-1.62.16-3.24.2-4.86,0-1.87.07-3.72.05-5.59s-.07-4-.13-6c-.12-3.65-.32-7.3-.49-10.94-.08-1.77-.1-3.54-.13-5.31,0-1.93-.1-3.87-.16-5.81,0-1.69-.17-3.39-.32-5.07-.07-.9-.11-1.79-.21-2.68l-.39-3.36c-.24-2-.59-4-.93-6.06s-.64-3.87-1-5.81q-1-6.09-1.85-12.21c-.37-3.11-.74-6.23-1.2-9.33-.4-2.85-.9-5.68-1.43-8.51q-.88-4.62-1.75-9.24c-.31-1.64-.61-3.28-.91-4.91-.26-1.39-.47-2.79-.69-4.18a36.47,36.47,0,0,1-.28-4.5c0-.75.07-1.51.11-2.26.05-1.14.2-2.25.34-3.37.12-.84.25-1.68.38-2.52s.34-1.87.51-2.8c.35-1.79.72-3.58,1-5.37s.49-3.47.64-5.21c.12-1.34.22-2.68.24-4a34.16,34.16,0,0,0-.38-5.38c-.24-1.74-.52-3.45-.93-5.16s-.84-3.47-1.39-5.19-1.19-3.71-1.81-5.56-1.21-3.44-1.82-5.14c-.46-1.27-.88-2.53-1.31-3.81-.26-.74-.44-1.52-.66-2.28a31.25,31.25,0,0,1-.82-4s0-.08,0-.12,0,0,0,0a.08.08,0,0,1,0,0,81,81,0,0,1-.32-12q.08-2.77.26-5.54c.11-1.45.24-2.89.4-4.34a2.85,2.85,0,0,0,.29.21,1.39,1.39,0,0,0,.57.19,2.4,2.4,0,0,0,1,0,4.54,4.54,0,0,0,1.39-.62,40,40,0,0,0,3.32-2.91l.1-.07.4-.11h.12a3.19,3.19,0,0,1,.46.14,6.67,6.67,0,0,1,.86.48c.21.13.4.28.6.44l1.22,1c.34.27.67.55,1,.8a10.39,10.39,0,0,0,1.79,1.22c2.27,1.12,4.87.51,7.13-.28l2.95-1a23.29,23.29,0,0,1,3.53-1,22.52,22.52,0,0,1,3.54,0c.73,0,1.46.07,2.21.07,1.55,0,3.08-.12,4.62-.25l2.6-.23a16,16,0,0,0,3.19-.61,27,27,0,0,0,3-1.11c.79-.33,1.58-.66,2.36-1,1-.5,2-1,3-1.5l.38-.12a5,5,0,0,1,.91,0,13.91,13.91,0,0,1,2.37.75c.5.25,1,.49,1.52.75s.88.49,1.35.7a5.8,5.8,0,0,0,1.4.45,5.66,5.66,0,0,0,.85.1,5.46,5.46,0,0,0,1.11-.14,6.44,6.44,0,0,0,1.1-.34,10.18,10.18,0,0,0,1.34-.66,18.81,18.81,0,0,0,2-1.38c.69-.51,1.38-1,2.05-1.57a6.21,6.21,0,0,1,.93-.57l.31-.09a7,7,0,0,1,1.07,0,11.4,11.4,0,0,1,1.7.42c.5.16,1,.35,1.49.52a6.73,6.73,0,0,0,1.46.25,7.87,7.87,0,0,0,1.68,0,16.42,16.42,0,0,0,1.78-.32c.5-.11,1-.28,1.47-.39a7.64,7.64,0,0,1,1.32,0,15.18,15.18,0,0,1,2.49.74c.56.25,1.08.52,1.62.82.32.16.63.34,1,.49a6,6,0,0,0,2.17.59,8.39,8.39,0,0,0,3.32-.55,15.86,15.86,0,0,1,2.18-.7,5.32,5.32,0,0,1,.72,0,6.67,6.67,0,0,1,1,.31c.56.25,1.11.52,1.67.8a19,19,0,0,0,4.72,1.63,16.71,16.71,0,0,0,2.54.32c-.16,1.43-.33,2.86-.51,4.29-.49,3.54-1,7.08-1.58,10.61a95.91,95.91,0,0,1-2.57,10.59c-.44,1.5-.9,3-1.3,4.5l-.82,3.09c-.25.91-.4,1.85-.6,2.76-.37,1.76-.62,3.54-.85,5.32s-.49,3.84-.71,5.77q-.36,3.28-.78,6.55c-1,7.1-2.09,14.19-2.87,21.31-.82,7.31-1.52,14.61-1.93,22-.16,2.8-.32,5.59-.54,8.38-.24,3-.49,6-.71,9-.2,2.73-.25,5.47-.4,8.2s-.4,5.66-.69,8.49c-.23,1.59-.47,3.19-.74,4.77-.33,1.79-.69,3.57-1,5.35-.69,3.42-1.4,6.84-2,10.28-.62,3.76-1.2,7.54-1.56,11.33s-.66,7.54-1,11.29c-.57,7.13-1.35,14.25-1.52,21.42-.08,3.55-.11,7.1,0,10.66s.29,7.38.57,11.07c.22,3,.49,6,.66,9,.11,1.75.21,3.49.31,5.24s.1,3.36.14,5c.1,3.1,0,6.21-.1,9.32-.09,2.88-.39,5.76-.7,8.62-.5,3.42-1,6.8-1.66,10.19-.66,3.65-1.34,7.27-2,10.91s-1.23,7.55-1.68,11.35-.73,7.38-1.06,11.07l-.56,6.49c-.1,1.23-.23,2.48-.32,3.72s-.23,2.68-.27,4-.07,2.7-.11,4c0,.6,0,1.22.05,1.82,0,.85.05,1.69.08,2.54,0,.47,0,.93.09,1.4,0,.64.11,1.3.16,1.94.15,1.89.32,3.78.48,5.66a1.67,1.67,0,0,0,1.64,1.64,1.64,1.64,0,0,0,1.64-1.64c-.21-2.3-.39-4.62-.58-6.94,0-.29-.05-.6-.09-.92s-.05-.61-.05-.92c0-1-.05-2.06-.09-3.1a94.88,94.88,0,0,1,.4-9.81c.22-3,.57-6,.87-9,.34-3.4.7-6.8,1.08-10.2s.9-6.55,1.54-9.8c.7-3.58,1.44-7.15,2.15-10.75.74-3.79,1.47-7.57,2.08-11.39.32-1.94.55-3.91.79-5.88.09-.72.13-1.44.2-2.16s.15-1.65.2-2.48c.16-3.62.31-7.23.27-10.86s-.14-7.24-.33-10.86c-.39-7.36-.75-14.71-.66-22.08.05-3.63.21-7.26.48-10.89s.68-7.1,1-10.66.7-7.32,1-11,.62-7.26,1.1-10.88c.11-.83.23-1.66.34-2.49.57-3.41,1.14-6.82,1.82-10.2q.61-2.95,1.2-5.9c.33-1.66.67-3.34.9-5,.28-2,.56-4,.75-6.06.15-1.69.31-3.39.39-5.09.2-3.7.31-7.42.54-11.13s.48-7.23.66-10.85c.16-3.39.25-6.78.48-10.17.5-7.22,1.29-14.41,2.2-21.59.59-4.16,1.25-8.32,1.88-12.48.7-4.5,1.29-9,1.86-13.53a78,78,0,0,1,1.91-9.9c.54-1.9,1.08-3.8,1.66-5.68.48-1.59,1-3.19,1.42-4.79.26-1,.52-2.06.79-3.08s.37-1.76.55-2.64q.49-2.41.82-4.85c.54-3.75,1-7.5,1.19-11.29.07-1.38.11-2.76.15-4.14Z"/><path class="cls-1" d="M570.93,537.07a6.31,6.31,0,0,1-.88,3.25q-2.75,3.78-5.65,7.51l-2.08,1.37c-1.44.93-2.88,1.86-4.35,2.76l-1.77,1.08-1.59.68c-.49.2-1,.38-1.5.57a6.06,6.06,0,0,1-4.85-.63,6.31,6.31,0,0,1-3.11-5.06c2.15-2.41,4.35-4.78,6.56-7.15,2.76-3,5.47-6,8.2-8.93a6,6,0,0,1,4.46-1.88,6.64,6.64,0,0,1,4.66,1.88A6.47,6.47,0,0,1,570.93,537.07Z"/><path class="cls-1" d="M503.3,651.47c-1.5,3.56-2.92,7.15-4.35,10.75s-3.08,7.38-4.7,11c-.67,1.62-1.3,3.25-1.85,4.91-.61,1.87-1.14,3.77-1.64,5.67s-1,3.62-1.4,5.45-.67,3.52-.93,5.3c-.21,1.59-.38,3.19-.52,4.79a3.36,3.36,0,0,0-2.18.36c-.4.22-.82.43-1.23.63.29-3.36.69-6.72,1.28-10.06.23-1.28.52-2.53.73-3.82s.4-2.69.66-4a79.87,79.87,0,0,1,2.11-8.87c.61-2,1.45-4,2.23-5.93.91-2.28,1.79-4.57,2.58-6.88,1.5-4.38,2.93-8.77,4.1-13.24.58-2.2,1.08-4.4,1.7-6.57s1.34-4.51,2-6.76c1.38-4.36,2.69-8.75,4.23-13.06.79-2.18,1.55-4.38,2.44-6.53q1.61-3.88,3.46-7.65c1-2.08,2.15-4.08,3.27-6.12s2.06-4.05,3.08-6.09c2-4,4.19-8,6.32-11.92,1.15-2.13,2.32-4.25,3.42-6.39.84-1.66,1.58-3.37,2.3-5.08,1.57-3.77,3-7.6,5.28-11a96.09,96.09,0,0,1,7.8-9.92c.55-.62,1.08-1.23,1.64-1.85a6.31,6.31,0,0,0,3.11,5.06,6.06,6.06,0,0,0,4.85.63c.5-.19,1-.37,1.5-.57l1.59-.68L558,552c1.46-.91,2.91-1.83,4.35-2.76l2.08-1.37c-1.56,2-3.15,4-4.77,5.94-3.23,3.88-6.48,7.74-9.65,11.65-.87,1.16-1.75,2.33-2.52,3.56-1,1.64-1.91,3.33-2.77,5-1.69,3.33-3.39,6.7-5.24,9.95-3.65,6.43-7.62,12.68-11.1,19.21-2.13,4-4.54,7.86-6.67,11.87q-1.72,3.21-3.41,6.43c-1.06,2-2,4.12-3.09,6.12-2.23,4.07-4.51,8.08-6.61,12.22C506.64,643.65,505,647.56,503.3,651.47Z"/><path class="cls-1" d="M559.68,532.27l.24.25c-2.73,3-5.44,6-8.2,8.93-2.22,2.37-4.41,4.74-6.56,7.15a6.52,6.52,0,0,1,.22-2.05,6.34,6.34,0,0,1,1.63-2.77c.35-.43.72-.84,1.09-1.26l1.58-1.31c1-.88,2.1-1.77,3.13-2.66,2.06-1.8,4.14-3.62,6.11-5.53Z"/><path class="cls-3" d="M490.11,700.89a3.17,3.17,0,0,1,.33,2.46,3.42,3.42,0,0,1-1.46,1.91l-1.61,1.07c.16-2.32.33-4.63.56-6.95A3.08,3.08,0,0,1,490.11,700.89Z"/><path class="cls-3" d="M485.74,699.74a3.36,3.36,0,0,1,2.18-.36c-.23,2.32-.39,4.63-.56,6.95-1.12.74-2.26,1.45-3.43,2.13a1,1,0,0,1,0-.25c.17-2.61.35-5.22.59-7.83C484.92,700.17,485.33,700,485.74,699.74Z"/><path class="cls-1" d="M487.37,706.33c0,.62-.08,1.26-.12,1.88a1.68,1.68,0,0,1-1.66,1.67,1.77,1.77,0,0,1-1.39-.73,1.54,1.54,0,0,0-.26-.63,0,0,0,0,1,0-.05C485.11,707.78,486.24,707.07,487.37,706.33Z"/><path class="cls-3" d="M484.26,709.55c.39,3.35.68,6.82-.4,10.06a37.39,37.39,0,0,1-2,4.84,17.63,17.63,0,0,1-1.16,1.9c-.49.71-1,1.42-1.54,2.1a23.4,23.4,0,0,1-4.25,4c-.26.2-.52.39-.8.57h-.09a1.71,1.71,0,0,0-1.49.88q-1.36.61-2.79,1.08c-.91.31-1.81.59-2.74.83a23.05,23.05,0,0,1-2.85.56c-2,.27-4,.29-6,.43s-3.74.15-5.6.26-3.84.26-5.78.34-3.64,0-5.45,0-3.79,0-5.69,0-3.93-.05-5.9-.12-3.69-.2-5.54-.35c-2-.16-4-.33-6-.64-1.81-.28-3.63-.59-5.44-.86-1.57-.2-3.16-.42-4.74-.63-.92-.12-1.83-.23-2.76-.29s-2-.13-3-.2c-2-.14-3.91-.35-5.85-.6s-3.63-.45-5.44-.67-3.8-.45-5.71-.63-3.68-.34-5.5-.57q-3.08-.36-6.14-.83c-1.9-.28-3.79-.69-5.67-1.11s-3.56-.78-5.31-1.27c-1-.25-1.89-.54-2.82-.82s-1.63-.59-2.41-.92l-.22-.1-.11,0-1.66-.71q-1-.41-1.9-.85c0-.82,0-1.64,0-2.46a1.13,1.13,0,0,0-.68-1l.14-.27c.43.23.86.45,1.29.66.93.45,1.88.88,2.83,1.31l.32.13,0,0a27.44,27.44,0,0,0,3.16,1.18c1.21.33,2.42.64,3.66.9,2.38.49,4.77.91,7.18,1.28,1.41.17,2.83.31,4.25.44,1.85.17,3.7.35,5.56.47s3.92.24,5.88.39c3.65.27,7.28.8,10.9,1.29h.23c1.93.23,3.87.4,5.81.55s4,.43,6,.73c1.77.27,3.55.48,5.33.78s3.45.6,5.19.84c3.36.36,6.75.63,10.14.78s6.55.13,9.83.14c2,0,4,0,6,0s3.75-.22,5.61-.35,3.78-.2,5.68-.34,3.56-.23,5.34-.36c.58-.09,1.16-.19,1.74-.31s1.31-.33,2-.55c1.25-.39,2.48-.82,3.7-1.29a11.2,11.2,0,0,0,1.29-.69c.4-.25.81-.54,1.19-.82.59-.48,1.18-1,1.73-1.51a20.65,20.65,0,0,0,1.47-1.63c.42-.55.81-1.1,1.17-1.68a16.39,16.39,0,0,0,1-1.78c.44-1.12.79-2.28,1.15-3.44a24.78,24.78,0,0,0,.74-3.3c.15-1.64.27-3.3.35-4.95l.62-.34c.91-.48,1.8-1,2.69-1.52,0,0,0,0,0,0a1.48,1.48,0,0,0,.26.63A2.4,2.4,0,0,1,484.26,709.55Z"/><path class="cls-3" d="M484.5,700.38c-.24,2.61-.42,5.22-.59,7.83a1,1,0,0,0,0,.25h0a1.3,1.3,0,0,0-.16-.2,1.82,1.82,0,0,0-3.11,1.28l0,.78a11.71,11.71,0,0,1-1.1.57l-2.28,1c-1.46.67-3,1.23-4.47,1.82-2.52,1-5.11,1.82-7.72,2.6a39.32,39.32,0,0,1-3.91.79c-1.43.24-2.87.39-4.3.58l-.15,0-.4.05c-3.41.49-6.8,1-10.22,1.4a94.32,94.32,0,0,1-10.09.34c-6.43,0-12.87-.08-19.28-.54-3.29-.24-6.57-.43-9.86-.67A81.29,81.29,0,0,1,396,717c-1.57-.34-3.13-.67-4.69-1.07s-3-.83-4.48-1.26a76.39,76.39,0,0,0-9.53-1.93c-1.57-.24-3.16-.46-4.72-.81s-3.28-.79-4.91-1.2c-1.47-.38-3-.74-4.41-1.27-1.65-.59-3.25-1.3-4.86-2-2.12-.87-4.26-1.66-6.36-2.58-1.34-.54-2.72-.94-4.08-1.4,0-.11,0-.21,0-.32a1.32,1.32,0,0,0-1.3-1.3,1.34,1.34,0,0,0-1.17.73c-1.29-.47-2.59-1-3.89-1.42a1.95,1.95,0,0,1-.73-3.41,3.94,3.94,0,0,0,.93,1.43,4.35,4.35,0,0,0,6.16,0h0c1.54.45,3.12.75,4.66,1.22s3.06,1,4.62,1.31,3.35.84,5,1.34c3,.91,6.07,1.35,9.11,2q2.57.56,5.14,1c1.55.26,3.11.42,4.66.69s3.2.57,4.79.92,3,.8,4.59,1.15c2.93.68,5.87,1.21,8.82,1.65,2.38.26,4.74.43,7.12.54,3.3.15,6.57.31,9.86.54s6.3.36,9.46.44,6.53.13,9.8.08a87,87,0,0,0,9.09-.68c2.66-.4,5.32-.88,8-1.34,1.39-.24,2.79-.44,4.17-.63s2.57-.31,3.82-.57a114.4,114.4,0,0,0,15.95-4.78C479.3,702.92,481.93,701.71,484.5,700.38Z"/><path class="cls-3" d="M483.94,708.51a1.54,1.54,0,0,1,.26.63A1.48,1.48,0,0,1,483.94,708.51Z"/><path class="cls-3" d="M483.74,708.27a1.3,1.3,0,0,1,.16.2c-.88.54-1.78,1-2.69,1.52l-.62.34,0-.78a1.82,1.82,0,0,1,3.11-1.28Z"/><path class="cls-4" d="M480.67,370.81a2.6,2.6,0,0,1,2.59,2.59l-.07,2.61-1.35,0a2.25,2.25,0,0,0-2.24-2.23c-.52,0-1,0-1.55,0l0-.33a2.72,2.72,0,0,1,.75-1.83A2.62,2.62,0,0,1,480.67,370.81Z"/><path class="cls-4" d="M481.84,376l1.35,0c0,1.38-.09,2.76-.15,4.14-.16,3.79-.66,7.55-1.19,11.29q-.33,2.44-.82,4.85c-.17.88-.33,1.77-.55,2.64S480,401,479.7,402c-.42,1.61-.94,3.2-1.42,4.79-.58,1.88-1.12,3.78-1.66,5.68a78,78,0,0,0-1.91,9.9c-.57,4.52-1.16,9-1.86,13.53-.63,4.16-1.29,8.32-1.88,12.48-.91,7.19-1.69,14.37-2.2,21.59-.23,3.39-.32,6.78-.48,10.17-.17,3.62-.43,7.23-.66,10.85s-.34,7.43-.54,11.13c-.09,1.7-.24,3.4-.39,5.09-.2,2-.47,4-.75,6.06-.23,1.68-.57,3.36-.9,5q-.59,2.95-1.2,5.9c-.69,3.39-1.26,6.79-1.82,10.2-.11.83-.23,1.66-.34,2.49-.48,3.62-.81,7.24-1.1,10.88s-.63,7.33-1,11-.74,7.1-1,10.66-.43,7.26-.48,10.89c-.1,7.37.26,14.72.66,22.08.19,3.62.28,7.23.33,10.86s-.11,7.24-.27,10.86c0,.83-.13,1.65-.2,2.48s-.11,1.44-.2,2.16c-.24,2-.47,3.93-.79,5.88-.6,3.82-1.33,7.6-2.08,11.39-.71,3.59-1.45,7.16-2.15,10.75-.64,3.24-1.09,6.52-1.54,9.8s-.74,6.8-1.08,10.2c-.31,3-.66,6-.87,9a94.88,94.88,0,0,0-.4,9.81c0,1,.05,2.08.09,3.1,0,.31,0,.61.05.92l-3.25.25c0-.47-.08-.93-.09-1.4,0-.85-.05-1.69-.08-2.54,0-.6-.07-1.22-.05-1.82,0-1.34.08-2.7.11-4s.19-2.69.27-4,.22-2.49.32-3.72l.56-6.49c.33-3.69.63-7.39,1.06-11.07s1-7.58,1.68-11.35,1.34-7.26,2-10.91c.62-3.39,1.16-6.77,1.66-10.19.31-2.86.61-5.73.7-8.62.09-3.1.2-6.21.1-9.32,0-1.68,0-3.37-.14-5s-.2-3.49-.31-5.24c-.16-3-.44-6-.66-9-.27-3.69-.44-7.38-.57-11.07s-.09-7.11,0-10.66c.16-7.16,1-14.29,1.52-21.42.31-3.76.6-7.53,1-11.29s.94-7.57,1.56-11.33c.56-3.44,1.27-6.86,2-10.28.36-1.78.72-3.56,1-5.35.27-1.58.51-3.18.74-4.77.28-2.83.54-5.65.69-8.49s.21-5.47.4-8.2c.22-3,.47-6,.71-9,.22-2.79.37-5.58.54-8.38.42-7.34,1.11-14.65,1.93-22,.79-7.12,1.87-14.21,2.87-21.31q.41-3.28.78-6.55c.22-1.92.45-3.84.71-5.77s.48-3.56.85-5.32c.2-.92.35-1.86.6-2.76l.82-3.09c.4-1.51.86-3,1.3-4.5a95.91,95.91,0,0,0,2.57-10.59c.6-3.53,1.09-7.07,1.58-10.61.19-1.43.35-2.86.51-4.29.67,0,1.33.05,2,0A2.26,2.26,0,0,0,481.84,376Z"/><path class="cls-5" d="M481.84,376a2.26,2.26,0,0,1-2.24,2.24c-.67,0-1.33,0-2,0,.16-1.47.32-3,.45-4.45.51,0,1,0,1.55,0A2.25,2.25,0,0,1,481.84,376Z"/><path class="cls-6" d="M480.59,710.33c-.08,1.65-.2,3.31-.35,4.95a24.78,24.78,0,0,1-.74,3.3c-.36,1.16-.71,2.32-1.15,3.44a16.39,16.39,0,0,1-1,1.78c-.36.58-.75,1.14-1.17,1.68a20.65,20.65,0,0,1-1.47,1.63c-.55.54-1.14,1-1.73,1.51-.38.28-.79.57-1.19.82a11.2,11.2,0,0,1-1.29.69c-1.22.47-2.46.9-3.7,1.29-.64.22-1.3.39-2,.55s-1.16.22-1.74.31c-1.78.13-3.56.24-5.34.36s-3.79.21-5.68.34-3.75.33-5.61.35-4,0-6,0c-3.28,0-6.55,0-9.83-.14s-6.77-.42-10.14-.78c-1.74-.24-3.46-.55-5.19-.84s-3.56-.5-5.33-.78c-2-.31-4-.59-6-.73s-3.88-.32-5.81-.55h-.23c-3.62-.49-7.25-1-10.9-1.29-2-.15-3.92-.27-5.88-.39s-3.71-.29-5.56-.47c-1.42-.13-2.84-.26-4.25-.44-2.4-.37-4.79-.79-7.18-1.28-1.23-.25-2.45-.57-3.66-.9a27.44,27.44,0,0,1-3.16-1.18l0,0-.32-.13c-1-.43-1.9-.86-2.83-1.31-.43-.21-.86-.43-1.29-.66a18.51,18.51,0,0,1-2.39-1.47,11.33,11.33,0,0,1-1.23-1.17,5.67,5.67,0,0,1-.4-.71,9.38,9.38,0,0,1-.43-1.74c-.24-2-.26-4-.33-6-.08-2.28-.15-4.58-.26-6.86,1.37.46,2.74.86,4.08,1.4,2.1.92,4.24,1.7,6.36,2.58,1.61.71,3.21,1.42,4.86,2,1.44.52,2.94.88,4.41,1.27,1.64.42,3.28.83,4.91,1.2s3.15.57,4.72.81a76.39,76.39,0,0,1,9.53,1.93c1.49.43,3,.86,4.48,1.26s3.11.73,4.69,1.07a81.29,81.29,0,0,0,10.77,1.35c3.29.24,6.57.43,9.86.67,6.41.46,12.84.49,19.28.54a94.32,94.32,0,0,0,10.09-.34c3.42-.36,6.82-.91,10.22-1.4l.4-.05.15,0c1.43-.19,2.87-.34,4.3-.58a39.32,39.32,0,0,0,3.91-.79c2.61-.78,5.2-1.61,7.72-2.6,1.5-.59,3-1.16,4.47-1.82l2.28-1A11.71,11.71,0,0,0,480.59,710.33Z"/><path class="cls-5" d="M382.4,379.36c-.2-.15-.39-.31-.6-.44a6.67,6.67,0,0,0-.86-.48,3.19,3.19,0,0,0-.46-.14h-.12l-.4.11-.1.07a40,40,0,0,1-3.32,2.91,4.54,4.54,0,0,1-1.39.62,2.4,2.4,0,0,1-1,0,1.39,1.39,0,0,1-.57-.19,2.85,2.85,0,0,1-.29-.21l.1-1a.56.56,0,0,1,0-.12v0h0c.16-1.12.33-2.25.55-3.37.12-.61.26-1.22.42-1.83,0,.8.11,1.59.21,2.39l0-.17c0,.11,0,.23.05.34a9.09,9.09,0,0,0,.24,1.34.89.89,0,0,0,.22-.13,14.62,14.62,0,0,0,1.32-1.15c.33-.32.63-.66,1-1a5,5,0,0,1,1.89-1.34,3.78,3.78,0,0,1,2.38-.08,8.24,8.24,0,0,1,1.47.61c.33.19.63.39,1,.61s.61.42.92.62a26.21,26.21,0,0,0,2.8,1.83,7.31,7.31,0,0,0,.84.22,7,7,0,0,0,1.07,0,25,25,0,0,0,4.06-1.27l2.26-.8a15.25,15.25,0,0,1,6.15-1.1l1.46,0a39.39,39.39,0,0,0,4.54-.07c1.68-.13,3.39-.24,5.07-.44a22.45,22.45,0,0,0,4.66-1.46c.64-.28,1.29-.56,1.92-.86.44-.22.88-.43,1.32-.66s.82-.44,1.23-.63a8.28,8.28,0,0,1,1.47-.62c2.09-.52,4.27.14,6.2.94.88.37,1.76.74,2.62,1.17q.31.1.62.16h.09a4.92,4.92,0,0,0,.84-.25,21.92,21.92,0,0,0,3.22-2.17c.26-.21.54-.4.8-.6a11,11,0,0,1,1-.73,9.64,9.64,0,0,1,1.22-.58,5.47,5.47,0,0,1,2-.36h.44a14.17,14.17,0,0,1,2.61.44c.87.24,1.7.6,2.59.76a6.79,6.79,0,0,0,1.25,0,10.77,10.77,0,0,0,1.54-.34,8.72,8.72,0,0,1,2.12-.38,11.31,11.31,0,0,1,3.53.51,20,20,0,0,1,3.15,1.23c.44.22.87.44,1.32.64a5.28,5.28,0,0,0,.56.15,3.33,3.33,0,0,0,.47,0,16.59,16.59,0,0,0,2.18-.61,8.27,8.27,0,0,1,2.4-.58,4,4,0,0,1,1,0,8.71,8.71,0,0,1,2.17.43c.51.21,1,.42,1.53.64l1.33.59a17.84,17.84,0,0,0,3.76,1,9.36,9.36,0,0,0,1,.1l.63,0c-.13,1.49-.28,3-.45,4.45a16.71,16.71,0,0,1-2.54-.32,19,19,0,0,1-4.72-1.63c-.56-.27-1.11-.55-1.67-.8a6.67,6.67,0,0,0-1-.31,5.32,5.32,0,0,0-.72,0,15.86,15.86,0,0,0-2.18.7,8.39,8.39,0,0,1-3.32.55,6,6,0,0,1-2.17-.59c-.33-.15-.64-.33-1-.49-.54-.29-1.06-.57-1.62-.82a15.18,15.18,0,0,0-2.49-.74,7.64,7.64,0,0,0-1.32,0c-.49.11-1,.28-1.47.39a16.42,16.42,0,0,1-1.78.32,7.87,7.87,0,0,1-1.68,0,6.73,6.73,0,0,1-1.46-.25c-.49-.17-1-.36-1.49-.52a11.4,11.4,0,0,0-1.7-.42,7,7,0,0,0-1.07,0l-.31.09a6.21,6.21,0,0,0-.93.57c-.68.54-1.37,1.06-2.05,1.57a18.81,18.81,0,0,1-2,1.38,10.18,10.18,0,0,1-1.34.66,6.44,6.44,0,0,1-1.1.34,5.46,5.46,0,0,1-1.11.14,5.66,5.66,0,0,1-.85-.1,5.8,5.8,0,0,1-1.4-.45c-.47-.21-.91-.47-1.35-.7s-1-.5-1.52-.75a13.91,13.91,0,0,0-2.37-.75,5,5,0,0,0-.91,0l-.38.12c-1,.47-2,1-3,1.5-.78.37-1.57.7-2.36,1a27,27,0,0,1-3,1.11,16,16,0,0,1-3.19.61l-2.6.23c-1.54.13-3.07.23-4.62.25-.74,0-1.47,0-2.21-.07a22.52,22.52,0,0,0-3.54,0,23.29,23.29,0,0,0-3.53,1l-2.95,1c-2.26.8-4.86,1.41-7.13.28a10.39,10.39,0,0,1-1.79-1.22c-.34-.25-.67-.52-1-.8Z"/><path class="cls-3" d="M476.56,741.27c.08,1,.08,2.05.07,3.08,0,.47-.07.94-.1,1.41a12.4,12.4,0,0,1-.17,1.26,10.49,10.49,0,0,1-.22,1.17,13.43,13.43,0,0,1-1.86,4,9.25,9.25,0,0,1-2.77,2.56c-.45-1-.91-2-1.39-2.94a1.77,1.77,0,0,0-2-.81l0-.08.33-.11a9.69,9.69,0,0,0,1.27-.72,6.24,6.24,0,0,0,.6-.6,13.3,13.3,0,0,0,1-1.76,12.89,12.89,0,0,0,.56-2.3c.16-1.63.28-3.27.4-4.89.15-1.91.1-3.86.08-5.77a1.51,1.51,0,0,1,.24-.84l.14-.07a10.24,10.24,0,0,0,1.43-.81,1.68,1.68,0,0,1,1.15.5,1.92,1.92,0,0,1,.5,1.21q.25,1.79.46,3.57C476.39,739.28,476.49,740.27,476.56,741.27Z"/><path class="cls-3" d="M474.39,763.65a8.8,8.8,0,0,1-.25,2.56,10.81,10.81,0,0,1-.55,1.51,4.09,4.09,0,0,1-.49.88,8.64,8.64,0,0,1-1,1.25,11.48,11.48,0,0,1-1,.79,6.77,6.77,0,0,1-1,.62l-.14,0a2,2,0,0,0-.86.49,11.06,11.06,0,0,1-1.74.64,14,14,0,0,1-2.13.36c-.57.05-1.14.09-1.7.11-1.53,0-3.07,0-4.59,0H457.7c-2.12,0-4.25,0-6.37,0a121.19,121.19,0,0,1-12.1-1.1c-2-.25-4-.45-6-.64s-4-.42-6-.62c-2.23-.22-4.46-.46-6.65-.9-1.89-.38-3.78-.78-5.68-1.07-3-.35-6.08-.63-9.14-.84s-6.11-.4-9.14-.69c-4.08-.39-8.18-.56-12.25-.94-2.12-.2-4.23-.39-6.35-.54s-4.06-.16-6.09-.2c-1,0-1.91,0-2.87,0s-2.05,0-3.08-.05l-1.8-.12c-.48,0-1-.12-1.43-.17a21.94,21.94,0,0,1-4.3-.93,1.44,1.44,0,0,0-1.23-.7,1.67,1.67,0,0,0-.33,0,7.59,7.59,0,0,1-.86-.49,8.69,8.69,0,0,1-2.88-2.93,8.32,8.32,0,0,1-1.09-4,17.66,17.66,0,0,1,.39-3.64,51.18,51.18,0,0,1,1.82-6.5,1.53,1.53,0,0,1,.76-.9,13.82,13.82,0,0,0,2,1.27,1.09,1.09,0,0,1-.05.37c-.48,1.46-1,2.93-1.37,4.41a33.87,33.87,0,0,0-.69,3.48,12.38,12.38,0,0,0,0,2.29,6.89,6.89,0,0,0,.35,1.26,7.42,7.42,0,0,0,.6,1,6,6,0,0,0,2.68,2,19,19,0,0,0,4,1l1.55.19c.5.05,1,.05,1.55.08.93.05,1.86.05,2.8.05,2.05,0,4.11,0,6.16,0s4.29.12,6.43.25,4.08.29,6.14.39,4.06.13,6.11.19,4.18.17,6.27.27c4,.2,7.92.19,11.87.37a63.94,63.94,0,0,1,6.48.56c1.93.29,3.84.67,5.77,1,5.83.68,11.7,1.07,17.54,1.75,2,.23,3.93.46,5.9.62s4,.27,6,.29,4.08,0,6.13,0,4.12.09,6.16-.11a10.18,10.18,0,0,0,1.78-.47,11,11,0,0,0,1.59-.92,7,7,0,0,0,.57-.57,7.27,7.27,0,0,0,.36-.63,7.62,7.62,0,0,0,.31-1.11,11,11,0,0,0,0-1.9,39.79,39.79,0,0,0-1.82-6c0-.11-.08-.22-.12-.33a9.73,9.73,0,0,0,1.08-.26,10.15,10.15,0,0,0,2.44-1.09,0,0,0,0,0,0,0c.13.27.25.56.38.84.54,1.2,1.06,2.41,1.51,3.65A14.19,14.19,0,0,1,474.39,763.65Z"/><path class="cls-3" d="M474.06,733h.09a10.24,10.24,0,0,1-1.43.81l-.14.07A1.71,1.71,0,0,1,474.06,733Z"/><path class="cls-3" d="M473.63,777.91a8.82,8.82,0,0,1-.82,4.67,5.61,5.61,0,0,1-3.87,2.92l-.61.11a1.73,1.73,0,0,0-.42.05c-.47.05-1,.1-1.43.11-1.09,0-2.18.05-3.28.05-2.11,0-4.23,0-6.33-.07-4.43-.12-8.88-.32-13.3-.69-2.3-.2-4.62-.4-6.89-.75a63.58,63.58,0,0,1-6.7-1.46c-2.1-.56-4.2-1.08-6.35-1.46s-4.27-.7-6.42-1c-1.39-.17-2.79-.32-4.18-.44s-2.71-.13-4.06-.16c-2.73,0-5.46-.12-8.19-.25-2.38-.11-4.77-.22-7.15-.29-2.05-.07-4.13,0-6.18,0q-3.54.08-7.09.12c-2.17,0-4.35,0-6.52.05s-4.51.1-6.77.16c-1.06,0-2.13.08-3.2.07s-2.3,0-3.45-.11a30.49,30.49,0,0,1-4.45-.64c-.49-.13-1-.26-1.47-.44a8.06,8.06,0,0,1-2.63-1.41,5.13,5.13,0,0,1-1.22-1.55,3.47,3.47,0,0,1-.37-1,4.42,4.42,0,0,1-.13-1.14,9,9,0,0,1,.82-3.1c.21-.46.4-.91.64-1.33a16.65,16.65,0,0,1,1.92-3,12.31,12.31,0,0,1,3-2.36,1.53,1.53,0,0,1,.36-.16,11.57,11.57,0,0,0,1.56.67,0,0,0,0,1,0,0,1.42,1.42,0,0,1-.51,1.93c-.44.27-.9.54-1.32.84a8.82,8.82,0,0,0-1,1,21.5,21.5,0,0,0-1.7,2.91,11.11,11.11,0,0,0-.75,2.35,1.64,1.64,0,0,0,0,.33,4.63,4.63,0,0,0,.19.67,2.2,2.2,0,0,0,.15.27c.13.14.26.26.39.39a8,8,0,0,0,1,.56,17.11,17.11,0,0,0,3.2.86,37.28,37.28,0,0,0,5.94.28c2.17-.08,4.35-.19,6.51-.28,4.12-.21,8.24-.26,12.35-.42,4.45-.17,8.88-.37,13.32-.26,2.4.05,4.79.11,7.2.14,2.24,0,4.49,0,6.73,0s4.38.12,6.56.31,4.25.35,6.36.59c1.34.15,2.7.28,4,.51,1.16.21,2.3.42,3.46.66s2.15.46,3.22.69,2,.36,3,.52c1.74.21,3.48.38,5.23.56,4.26.42,8.52.67,12.79.91q3.33.18,6.65.29c1.1,0,2.22.07,3.32.1a29,29,0,0,0,3.23,0,4.42,4.42,0,0,0,.51-.13,0,0,0,0,0,0,0c.07-.07.14-.12.21-.2l.16-.28a6.59,6.59,0,0,0,.23-.88,14.68,14.68,0,0,0-.05-2.94,25.55,25.55,0,0,0-.5-2.51,2.15,2.15,0,0,1,.59-2.06l.5-.25a3.21,3.21,0,0,0,.5-.27,2.12,2.12,0,0,1,2.41,1.49A19.08,19.08,0,0,1,473.63,777.91Z"/><path class="cls-6" d="M472.58,733.89a1.51,1.51,0,0,0-.24.84c0,1.91.08,3.86-.08,5.77-.12,1.63-.24,3.27-.4,4.89a12.89,12.89,0,0,1-.56,2.3,13.3,13.3,0,0,1-1,1.76,6.24,6.24,0,0,1-.6.6,9.69,9.69,0,0,1-1.27.72l-.33.11a8.35,8.35,0,0,1-1.28.29,32.84,32.84,0,0,1-5.38-.09c-2-.15-3.91-.35-5.88-.52-3.87-.37-7.77-.46-11.64-.66-2-.11-4-.23-6-.26s-4,0-6.06,0-4,.23-6,.26-4,0-6-.13-3.8-.22-5.7-.29-3.94-.09-5.92-.12a117,117,0,0,1-11.89-.68c-3.89-.58-7.74-1.44-11.69-1.44-2.08,0-4.14,0-6.21,0s-4-.07-6-.23c-1.62-.14-3.23-.31-4.84-.52s-3-.54-4.51-.91a32.67,32.67,0,0,1-4.06-1.32,12.62,12.62,0,0,1-2.49-1.39,15.18,15.18,0,0,1-2.16-2.11,7.78,7.78,0,0,1-.81-1.35,11.38,11.38,0,0,1-.47-1.79,23.06,23.06,0,0,1,.13-4.16c.1-1.11.17-2.22.2-3.32,0-1.66.05-3.3.07-4.95q1,.44,1.9.85l1.66.71.11,0,.22.1c.79.33,1.59.66,2.41.92s1.87.57,2.82.82c1.75.49,3.54.86,5.31,1.27s3.77.83,5.67,1.11,4.08.59,6.14.83c1.82.23,3.67.38,5.5.57s3.81.4,5.71.63,3.63.43,5.44.67,3.89.46,5.85.6c1,.07,2,.12,3,.2s1.85.17,2.76.29c1.58.22,3.17.44,4.74.63,1.81.27,3.63.58,5.44.86,2,.32,4,.48,6,.64,1.85.15,3.68.29,5.54.35s3.93.1,5.9.12,3.79,0,5.69,0,3.64.05,5.45,0,3.84-.22,5.78-.34,3.74-.14,5.6-.26,4-.15,6-.43a23.05,23.05,0,0,0,2.85-.56c.93-.24,1.83-.52,2.74-.83S471.67,734.29,472.58,733.89Z"/><path class="cls-3" d="M471.51,754.7a0,0,0,0,1,0,0,10.15,10.15,0,0,1-2.44,1.09,9.73,9.73,0,0,1-1.08.26c-.34-1-.7-2-1.09-2.94a1.71,1.71,0,0,1,.19-1.37,1.77,1.77,0,0,1,3,0C470.6,752.74,471.06,753.71,471.51,754.7Z"/><path class="cls-3" d="M470.07,787.35a42.79,42.79,0,0,1,.12,7.48,15.51,15.51,0,0,1-.9,4.11,8.43,8.43,0,0,1-2,3.18c-1.56,1.42-3.75,1.59-5.76,1.57s-4-.07-6-.07c-1.81,0-3.63,0-5.43,0-4.39,0-8.76-.08-13.14-.14H435.9a2.4,2.4,0,0,0-1.66-1.57,2.46,2.46,0,0,0-3,1.63l-1.12,0c-2.21.07-4.4.19-6.61.19a122.1,122.1,0,0,1-13.4-.84c-2.15-.23-4.29-.5-6.45-.61s-4.37-.1-6.55-.12l-2,0A2.21,2.21,0,0,0,393.2,801l-.1-3.08c1.26,0,2.51,0,3.76,0q3.34,0,6.68,0c2.16,0,4.31.28,6.45.49a115.09,115.09,0,0,0,13,.48c4.58-.09,9.12-.46,13.7-.46l13.08.05c2.2,0,4.4,0,6.6.05q1.61,0,3.21.13a35.17,35.17,0,0,0,3.87.12,5.86,5.86,0,0,0,.59-.15l.14-.08a3.62,3.62,0,0,0,.28-.29,10,10,0,0,0,.63-1.16,17.38,17.38,0,0,0,.82-3.48c.26-2.1.5-4.18.66-6.29a1.82,1.82,0,0,1,1.32-1.68l.42-.05A1.76,1.76,0,0,1,470.07,787.35Z"/><path class="cls-3" d="M470,771.28l.14,0a3.21,3.21,0,0,1-.5.27l-.5.25A2,2,0,0,1,470,771.28Z"/><path class="cls-6" d="M469.92,762.38a11,11,0,0,1,0,1.9,7.62,7.62,0,0,1-.31,1.11,7.27,7.27,0,0,1-.36.63,7,7,0,0,1-.57.57,11,11,0,0,1-1.59.92,10.18,10.18,0,0,1-1.78.47c-2,.2-4.12.11-6.16.11s-4.08,0-6.13,0-4-.12-6-.29-3.93-.39-5.9-.62c-5.84-.68-11.71-1.07-17.54-1.75-1.92-.29-3.83-.67-5.77-1a63.94,63.94,0,0,0-6.48-.56c-4-.19-7.92-.17-11.87-.37-2.09-.1-4.18-.22-6.27-.27s-4.07-.09-6.11-.19-4.08-.26-6.14-.39-4.29-.21-6.43-.25-4.11,0-6.16,0c-.94,0-1.87,0-2.8-.05-.52,0-1,0-1.55-.08l-1.55-.19a19,19,0,0,1-4-1,6,6,0,0,1-2.68-2,7.42,7.42,0,0,1-.6-1,6.89,6.89,0,0,1-.35-1.26,12.38,12.38,0,0,1,0-2.29,33.87,33.87,0,0,1,.69-3.48c.42-1.49.88-2.95,1.37-4.41a1.09,1.09,0,0,0,.05-.37,31.23,31.23,0,0,0,4.81,1.91,35.74,35.74,0,0,0,5.76,1.32c2.18.34,4.37.59,6.57.79,4,.35,8,.31,12,.55.64,0,1.28.12,1.92.2,1.94.32,3.88.71,5.81,1.09a57.83,57.83,0,0,0,6.28.85c4,.37,8,.36,12,.52s8,.72,12,1c2,.15,3.9.19,5.84.16s4,0,5.93.09,4.13.21,6.2.34,4,.21,6,.31c3.81.17,7.61.5,11.41.78a45.06,45.06,0,0,0,5.69.22,18.72,18.72,0,0,0,2.81-.32c0,.11.09.22.12.33A39.79,39.79,0,0,1,469.92,762.38Z"/><path class="cls-6" d="M469.05,776.35a14.68,14.68,0,0,1,.05,2.94,6.59,6.59,0,0,1-.23.88l-.16.28c-.07.08-.14.13-.21.2a0,0,0,0,1,0,0,4.42,4.42,0,0,1-.51.13,29,29,0,0,1-3.23,0c-1.1,0-2.22-.05-3.32-.1q-3.33-.11-6.65-.29c-4.27-.24-8.53-.49-12.79-.91-1.75-.17-3.49-.35-5.23-.56-1-.16-2-.32-3-.52s-2.15-.47-3.22-.69-2.3-.45-3.46-.66c-1.33-.23-2.69-.36-4-.51-2.11-.24-4.24-.42-6.36-.59s-4.37-.32-6.56-.31-4.49.05-6.73,0c-2.4,0-4.79-.09-7.2-.14-4.45-.11-8.88.09-13.32.26-4.12.15-8.24.21-12.35.42-2.16.1-4.34.21-6.51.28a37.28,37.28,0,0,1-5.94-.28,17.11,17.11,0,0,1-3.2-.86,8,8,0,0,1-1-.56c-.13-.13-.26-.25-.39-.39a2.2,2.2,0,0,1-.15-.27,4.63,4.63,0,0,1-.19-.67,1.64,1.64,0,0,1,0-.33,11.11,11.11,0,0,1,.75-2.35,21.5,21.5,0,0,1,1.7-2.91,8.82,8.82,0,0,1,1-1c.43-.31.88-.57,1.32-.84a1.42,1.42,0,0,0,.51-1.93,0,0,0,0,0,0,0,21.94,21.94,0,0,0,4.3.93c.48.05,1,.15,1.43.17l1.8.12c1,.07,2.06,0,3.08.05s1.91,0,2.87,0c2,0,4.06.07,6.09.2s4.23.34,6.35.54c4.07.38,8.17.55,12.25.94,3,.28,6.08.48,9.14.69s6.09.49,9.14.84c1.9.29,3.79.69,5.68,1.07,2.2.44,4.42.68,6.65.9,2,.21,4,.44,6,.62s4,.39,6,.64a121.19,121.19,0,0,0,12.1,1.1c2.12,0,4.25,0,6.37,0H459c1.52,0,3.06,0,4.59,0,.57,0,1.14-.05,1.7-.11a14,14,0,0,0,2.13-.36,11.06,11.06,0,0,0,1.74-.64,2.15,2.15,0,0,0-.59,2.06A25.55,25.55,0,0,1,469.05,776.35Z"/><path class="cls-3" d="M468.33,785.61l-.42.05A1.73,1.73,0,0,1,468.33,785.61Z"/><path class="cls-3" d="M468.1,750.88l0,.08a1.77,1.77,0,0,0-1,.81,1.71,1.71,0,0,0-.19,1.37c.39,1,.75,1.94,1.09,2.94a18.72,18.72,0,0,1-2.81.32,45.06,45.06,0,0,1-5.69-.22c-3.8-.27-7.6-.6-11.41-.78-2-.1-4-.17-6-.31s-4.14-.26-6.2-.34-4-.1-5.93-.09-3.89,0-5.84-.16c-4-.31-8-.85-12-1s-8-.15-12-.52a57.83,57.83,0,0,1-6.28-.85c-1.93-.38-3.87-.78-5.81-1.09-.64-.08-1.28-.15-1.92-.2-4-.24-8-.2-12-.55-2.21-.2-4.39-.45-6.57-.79a35.74,35.74,0,0,1-5.76-1.32,31.23,31.23,0,0,1-4.81-1.91,1.43,1.43,0,0,0-1-1.34,1.45,1.45,0,0,0-.37-.05,1.29,1.29,0,0,0-.58.13,9.47,9.47,0,0,1-.8-.69,10.67,10.67,0,0,1-3.13-4.6,10.21,10.21,0,0,1-.46-3.4c0-.48.07-1,.11-1.44.19-1.91.38-3.81.47-5.72.07-1.69.11-3.37.13-5.07.72.4,1.45.76,2.2,1.1,0,1.65,0,3.29-.07,4.95,0,1.1-.1,2.21-.2,3.32a23.06,23.06,0,0,0-.13,4.16,11.38,11.38,0,0,0,.47,1.79,7.78,7.78,0,0,0,.81,1.35,15.18,15.18,0,0,0,2.16,2.11,12.62,12.62,0,0,0,2.49,1.39,32.67,32.67,0,0,0,4.06,1.32c1.5.37,3,.66,4.51.91s3.22.38,4.84.52c2,.16,4,.21,6,.23s4.14,0,6.21,0c3.94,0,7.8.86,11.69,1.44a117,117,0,0,0,11.89.68c2,0,4,0,5.92.12s3.8.22,5.7.29,4,.15,6,.13,4-.22,6-.26,4-.05,6.06,0,4,.15,6,.26c3.88.2,7.78.28,11.64.66,2,.17,3.92.37,5.88.52a32.84,32.84,0,0,0,5.38.09A8.35,8.35,0,0,0,468.1,750.88Z"/><path class="cls-6" d="M466.48,785.78c.48,0,1-.05,1.43-.11a1.82,1.82,0,0,0-1.32,1.68c-.15,2.11-.39,4.19-.66,6.29a17.38,17.38,0,0,1-.82,3.48,10,10,0,0,1-.63,1.16,3.62,3.62,0,0,1-.28.29l-.14.08a5.86,5.86,0,0,1-.59.15,35.17,35.17,0,0,1-3.87-.12q-1.61-.1-3.21-.13c-2.2-.05-4.4,0-6.6-.05l-13.08-.05c-4.58,0-9.12.37-13.7.46a115.09,115.09,0,0,1-13-.48c-2.14-.21-4.29-.46-6.45-.49s-4.46,0-6.68,0c-1.25,0-2.5,0-3.76,0-1,0-2,.07-3,.12-2.14.12-4.28.31-6.42.38a78.93,78.93,0,0,1-11.58-.5c-.9-.14-1.8-.29-2.71-.47s-1.86-.46-2.79-.7a57.84,57.84,0,0,1-5.46-1.92,28.59,28.59,0,0,1-5.66-3.06,7.72,7.72,0,0,1-.74-.72,6.5,6.5,0,0,1-.49-.84,7.07,7.07,0,0,1-.29-1.15,10.28,10.28,0,0,1,0-2c.38-2.25,1.06-4.45,1.64-6.64a1.61,1.61,0,0,0-1.11-2h0c.49.17,1,.31,1.47.44a30.49,30.49,0,0,0,4.45.64c1.15.12,2.3.1,3.45.11s2.14,0,3.2-.07c2.26-.07,4.51-.12,6.77-.16s4.35,0,6.52-.05q3.56,0,7.09-.12c2.05,0,4.13-.07,6.18,0,2.38.08,4.77.19,7.15.29,2.73.13,5.46.21,8.19.25,1.35,0,2.72,0,4.06.16s2.8.26,4.18.44c2.15.31,4.28.63,6.42,1s4.25.91,6.35,1.46a63.58,63.58,0,0,0,6.7,1.46c2.27.35,4.59.56,6.89.75,4.42.37,8.87.57,13.3.69,2.11.05,4.23.08,6.33.07C464.3,785.83,465.39,785.82,466.48,785.78Z"/><path class="cls-4" d="M450.32,707.49a1.64,1.64,0,0,1-1.64,1.64,1.67,1.67,0,0,1-1.64-1.64c-.16-1.88-.33-3.77-.48-5.66-.05-.64-.12-1.3-.16-1.94l3.25-.25c0,.32.07.62.09.92C449.93,702.87,450.11,705.18,450.32,707.49Z"/><path class="cls-3" d="M395.58,812.56h0s0,.08,0,.12a26.62,26.62,0,0,0,1.55,5.85,17.32,17.32,0,0,0,1.86,3.2,15.91,15.91,0,0,0,2.23,2.23,13.45,13.45,0,0,0,2.23,1.32,15,15,0,0,0,2.93.78,19.32,19.32,0,0,0,4.13-.07,27.35,27.35,0,0,0,12.2-5,14.37,14.37,0,0,0,1.9-1.92,29.42,29.42,0,0,0,3.15-5.76c1.31-3.17,2.45-6.41,3.49-9.67,0,0,0,0,0-.07,1.55,0,3.09-.07,4.63-.05a2.51,2.51,0,0,1,0,1.42c-.37,1.44-.79,2.86-1.21,4.29-.32,1.06-.68,2.12-1.08,3.15a52.39,52.39,0,0,1-3,6.73,18.41,18.41,0,0,1-1.55,2.4,18.1,18.1,0,0,1-1.76,2.12,20.76,20.76,0,0,1-3.91,2.91,32.2,32.2,0,0,1-9.95,4c-3.45.7-7.13,1-10.52-.23a15.24,15.24,0,0,1-4.78-2.7,16.53,16.53,0,0,1-3.15-3.49,23.53,23.53,0,0,1-3.54-9.85,46.15,46.15,0,0,1-.49-5.74c0-1.77,0-3.54.07-5.3a2.19,2.19,0,0,1,.23-.92c1.28-.05,2.57-.08,3.84-.08a1.94,1.94,0,0,1,.24,1A63.92,63.92,0,0,0,395.58,812.56Z"/><path class="cls-3" d="M435.9,803.51c-1.54,0-3.08,0-4.63.05a2.46,2.46,0,0,1,3-1.63A2.4,2.4,0,0,1,435.9,803.51Z"/><path class="cls-6" d="M431.27,803.57s0,0,0,.07c-1,3.25-2.18,6.5-3.49,9.67a29.42,29.42,0,0,1-3.15,5.76,14.37,14.37,0,0,1-1.9,1.92,27.35,27.35,0,0,1-12.2,5,19.32,19.32,0,0,1-4.13.07,15,15,0,0,1-2.93-.78,13.45,13.45,0,0,1-2.23-1.32,15.91,15.91,0,0,1-2.23-2.23,17.32,17.32,0,0,1-1.86-3.2,26.62,26.62,0,0,1-1.55-5.85s0-.08,0-.12h0a63.92,63.92,0,0,1-.23-9.37,1.94,1.94,0,0,0-.24-1l2,0c2.18,0,4.37,0,6.55.12s4.3.38,6.45.61a122.1,122.1,0,0,0,13.4.84c2.21,0,4.4-.12,6.61-.19Z"/><path class="cls-3" d="M398.19,729.48h0Z"/><path class="cls-3" d="M395.11,802.19c-1.28,0-2.57,0-3.84.08A2.12,2.12,0,0,1,393.2,801,2.21,2.21,0,0,1,395.11,802.19Z"/><path class="cls-4" d="M394,686.69c.08,1.61.15,3.22.15,4.84,0,1.8-.09,3.6-.26,5.41s-.47,3.89-.68,5.84a2.21,2.21,0,0,1-.62,1.51,2.14,2.14,0,0,1-3.66-1.51c0-1.35.07-2.72.16-4.07s.17-2.57.24-3.86a64.49,64.49,0,0,0-.08-6.82c-.12-2.27-.25-4.55-.42-6.83s-.43-4.65-.73-7c0,0,0-.1,0-.14s0-.22,0-.33c-.6-4.49-1.14-9-1.32-13.53-.16-3.64-.2-7.27-.22-10.91s-.08-7-.2-10.54c0-1.69-.1-3.39-.21-5.07-.13-2-.28-4-.47-6-.31-3.36-.88-6.7-1.26-10-.11-.91-.22-1.8-.29-2.71s-.17-1.71-.2-2.58-.11-1.94-.09-2.91l.07-2.85c0-.9.1-1.79.14-2.7s.12-1.75.19-2.61c.11-1.57.23-3.13.34-4.7.27-3.89.54-7.78.81-11.68.23-3.4.47-6.82.55-10.22,0-2,.08-4,.08-6s-.05-4-.11-5.94c-.05-1.81-.13-3.63-.21-5.44-.05-1.63-.15-3.25-.17-4.88,0-2-.05-4-.08-6,0-1.66,0-3.33-.1-5-.09-2-.19-3.92-.33-5.88-.13-1.74-.32-3.47-.51-5.21-.47-3.24-1-6.49-1.5-9.73-.48-3.07-1-6.15-1.4-9.24,0-.07,0-.13,0-.2a.47.47,0,0,1,0-.05c0-.14,0-.28-.05-.44a.21.21,0,0,1,0-.08,1.51,1.51,0,0,1,0-.22l0-.26c-.08-.56-.15-1.1-.22-1.65,0,0,0-.09,0-.14s0-.27-.05-.4-.08-.54-.11-.81c-.34-2.46-.57-4.94-.85-7.41s-.69-4.95-1.1-7.41c-.6-3.59-1.28-7.16-1.89-10.76-.34-1.93-.67-3.88-1-5.81-.13-.82-.26-1.64-.37-2.46-.15-1.11-.35-2.24-.44-3.35a33.3,33.3,0,0,1,0-5.81c.09-.93.17-1.85.32-2.76.27-1.73.55-3.46.93-5.18s.85-3.59,1.25-5.41c.21-.92.45-1.85.61-2.77s.31-1.75.45-2.62a56.38,56.38,0,0,0,.55-5.76,36.26,36.26,0,0,0-.15-4.22c-.07-.68-.14-1.37-.21-2.05s-.22-1.67-.39-2.49-.35-1.83-.58-2.74-.49-1.93-.73-2.89-.55-1.86-.81-2.79c-.54-1.81-1.17-3.6-1.78-5.41s-1.17-3.35-1.73-5a43.24,43.24,0,0,1-1.78-6.92,52.69,52.69,0,0,1-.54-6.95c0-1.77,0-3.54,0-5.31s.12-3.66.25-5.48c.22-2.89.47-5.79.94-8.66l.13.81a4.11,4.11,0,0,0,.46,1.33,2.66,2.66,0,0,0,.7.82c-.16,1.44-.29,2.88-.4,4.34q-.18,2.77-.26,5.54a81,81,0,0,0,.32,12,.08.08,0,0,0,0,0s0,0,0,0,0,.08,0,.12a31.25,31.25,0,0,0,.82,4c.22.76.39,1.54.66,2.28.43,1.28.85,2.54,1.31,3.81.61,1.7,1.25,3.42,1.82,5.14s1.23,3.7,1.81,5.56,1,3.45,1.39,5.19.69,3.42.93,5.16a34.16,34.16,0,0,1,.38,5.38c0,1.34-.12,2.68-.24,4-.15,1.74-.33,3.48-.64,5.21s-.7,3.58-1,5.37c-.17.93-.37,1.87-.51,2.8s-.26,1.68-.38,2.52c-.14,1.12-.28,2.24-.34,3.37,0,.75-.11,1.51-.11,2.26a36.47,36.47,0,0,0,.28,4.5c.22,1.4.43,2.8.69,4.18.29,1.64.6,3.28.91,4.91q.87,4.62,1.75,9.24c.54,2.83,1,5.66,1.43,8.51.46,3.1.83,6.21,1.2,9.33q.85,6.11,1.85,12.21c.31,1.94.63,3.88,1,5.81s.69,4,.93,6.06l.39,3.36c.1.88.14,1.78.21,2.68.14,1.68.27,3.37.32,5.07.07,1.94.12,3.88.16,5.81,0,1.77.05,3.54.13,5.31.17,3.65.37,7.3.49,10.94.07,2,.11,4,.13,6s0,3.72-.05,5.59c0,1.62-.11,3.24-.2,4.86-.1,1.9-.21,3.8-.32,5.71q-.34,5.64-.71,11.27c-.11,1.66-.22,3.32-.32,5s-.21,3.36-.23,5.06c0,.9-.05,1.8,0,2.7s0,1.82.11,2.73c.16,1.88.34,3.76.56,5.64.38,3.39.93,6.75,1.22,10.16.33,3.78.5,7.57.62,11.37.11,3.47.16,7,.2,10.44s.09,6.9.31,10.34.52,7,1,10.42c.23,1.8.46,3.59.66,5.41s.29,3.54.38,5.31S393.94,685,394,686.69Z"/><path class="cls-3" d="M393.1,797.94l.1,3.08a2.12,2.12,0,0,0-1.93,1.25l-.64,0c-2.21.11-4.42.28-6.64.35a66.62,66.62,0,0,1-14-1,35.86,35.86,0,0,1-6.2-1.85,64.91,64.91,0,0,1-6.67-3c-.52-.27-1-.59-1.56-.88s-.81-.5-1.2-.78a11.62,11.62,0,0,1-1.67-1.33,7.07,7.07,0,0,1-1.9-3.58,10.35,10.35,0,0,1-.17-1.93,14.24,14.24,0,0,1,.16-1.66l3.19.44a10.28,10.28,0,0,0,0,2,7.07,7.07,0,0,0,.29,1.15,6.5,6.5,0,0,0,.49.84,7.72,7.72,0,0,0,.74.72,28.59,28.59,0,0,0,5.66,3.06,57.84,57.84,0,0,0,5.46,1.92c.93.24,1.85.51,2.79.7s1.81.33,2.71.47a78.93,78.93,0,0,0,11.58.5c2.14-.08,4.28-.26,6.42-.38C391.08,798,392.08,798,393.1,797.94Z"/><path class="cls-4" d="M376.54,365.26a.84.84,0,0,1,.58,1c-.85,2.5-1.66,5-2.37,7.57l-.39,1.49c0-.76-.08-1.53-.12-2.29a1.4,1.4,0,0,0-.64-1.15q.92-3,1.93-6.05a.86.86,0,0,1,.8-.61A.76.76,0,0,1,376.54,365.26Z"/><path class="cls-5" d="M374.57,377.72a.84.84,0,0,0,0,.16c0-.11,0-.23-.05-.34Z"/><path class="cls-5" d="M374.24,373c0,.76.08,1.53.12,2.29-.15.61-.29,1.22-.42,1.83-.22,1.12-.38,2.25-.55,3.37h0v0a.56.56,0,0,0,0,.12l-.1,1a2.66,2.66,0,0,1-.7-.82,4.11,4.11,0,0,1-.46-1.33l-.13-.81h0c.1-.66.21-1.31.34-2,.32-1.59.76-3.17,1.23-4.73l0-.1A1.4,1.4,0,0,1,374.24,373Z"/><path class="cls-5" d="M373.59,371.89l0,.1c-.47,1.56-.92,3.13-1.23,4.73-.13.66-.24,1.31-.34,2-.27-1.87-.37-3.75-.47-5.65a1.37,1.37,0,0,1,1.37-1.37A1.19,1.19,0,0,1,373.59,371.89Z"/><path class="cls-3" d="M358.43,764.06a11.57,11.57,0,0,1-1.56-.67,1.67,1.67,0,0,1,.33,0A1.44,1.44,0,0,1,358.43,764.06Z"/><path class="cls-3" d="M356,744.89a1.43,1.43,0,0,1,1,1.34,13.82,13.82,0,0,1-2-1.27,1.29,1.29,0,0,1,.58-.13A1.45,1.45,0,0,1,356,744.89Z"/><path class="cls-3" d="M354.49,778.47a1.61,1.61,0,0,1,1.11,2c-.58,2.2-1.26,4.39-1.64,6.64l-3.19-.44a2,2,0,0,1,0-.25c.4-2.3,1.12-4.54,1.73-6.8a1.61,1.61,0,0,1,1.55-1.17A1.64,1.64,0,0,1,354.49,778.47Z"/><path class="cls-3" d="M353.56,722.7c0,.82,0,1.64,0,2.46-.74-.34-1.47-.7-2.2-1.1,0-.45,0-.91,0-1.35a1.1,1.1,0,0,1,1.53-1A1.13,1.13,0,0,1,353.56,722.7Z"/><path class="cls-3" d="M353,721.4l-.14.27a1.1,1.1,0,0,0-1.53,1c0,.45,0,.91,0,1.35-.34-.17-.68-.37-1-.57a11.53,11.53,0,0,1-3-2.39,6.68,6.68,0,0,1-1-1.44,7.81,7.81,0,0,1-.6-2,19.27,19.27,0,0,1-.24-3.07c0-1.78.07-3.56.07-5.34,0-2-.08-4.1-.16-6.14a1.12,1.12,0,0,1,.13-.57c.6.23,1.2.45,1.81.66l.67.23c.11,2.28.19,4.58.26,6.86.07,2,.09,4,.33,6A9.38,9.38,0,0,0,349,718a5.67,5.67,0,0,0,.4.71,11.33,11.33,0,0,0,1.23,1.17A18.51,18.51,0,0,0,353,721.4Z"/><path class="cls-1" d="M349.25,696.08a4.16,4.16,0,0,1-1.27,3.07l-.08,0c-1.77-.52-3.49-1.2-5.24-1.8a1.76,1.76,0,0,0-.52-.09,1.93,1.93,0,0,0-1.26.49,5.67,5.67,0,0,1-.34-1.65c-.28-3.63-.56-7.25-.76-10.89-.2-3.34-.19-6.7-.19-10s0-6.53-.21-9.79c-.16-3.1-.45-6.17-.83-9.24-.63-4.52-1.45-9-2.36-13.49-.63-3.15-1.46-6.26-2.23-9.37-.8-3.29-1.62-6.57-2.47-9.84a152.65,152.65,0,0,0-6.23-19.12c-1.16-2.68-2.37-5.34-3.66-8-1.39-2.82-2.93-5.56-4.36-8.36A108.24,108.24,0,0,0,308,572.53c-.11-.15-.23-.29-.35-.45-2-2.52-4.2-4.91-6.38-7.31-1.07-1.19-2.17-2.36-3.21-3.58-1.32-1.52-2.57-3.09-3.8-4.69-1.93-2.52-3.52-5.31-5.29-8s-3.49-5.1-5.36-7.55c-1.17-1.44-2.44-2.77-3.7-4.14s-2.61-2.89-3.92-4.36-2.42-2.73-3.59-4.13-2.36-3-3.52-4.49c-.86-1.09-1.78-2.15-2.66-3.23a16.23,16.23,0,0,0,2.13,1.64c2.75,2.66,5.55,5.3,8.36,7.92a2.17,2.17,0,0,0,2.57.34c1.55,1.5,3.12,2.95,4.75,4.37,2,1.74,4,3.51,5.9,5.33s3.64,3.42,5.28,5.3c2.13,2.46,4.22,4.95,6.38,7.37s4.6,4.93,6.87,7.43,4.66,5.21,6.8,8c2,2.61,3.83,5.36,5.65,8.11s3.49,5.69,5.13,8.61c.81,1.41,1.66,2.8,2.44,4.22s1.65,3.1,2.42,4.67c1.62,3.24,3.09,6.56,4.42,9.93,1.28,3.2,2.26,6.52,3.23,9.81a168.25,168.25,0,0,1,4.18,19.55c.61,3.62,1.21,7.23,1.68,10.86.42,3.15.82,6.3,1.23,9.45,0,.09,0,.17,0,.25.47,3.51,1,7,1.35,10.51s.58,6.77.72,10.17.25,7,.54,10.43C348.55,688.64,348.9,692.36,349.25,696.08Z"/><path class="cls-3" d="M348,703.13c0,.11,0,.21,0,.32l-.67-.23c-.61-.21-1.21-.43-1.81-.66a1.34,1.34,0,0,1,1.17-.73A1.32,1.32,0,0,1,348,703.13Z"/><path class="cls-3" d="M348,699.15h0a4.35,4.35,0,0,1-6.16,0,3.94,3.94,0,0,1-.93-1.43,1.93,1.93,0,0,1,1.26-.49,1.76,1.76,0,0,1,.52.09c1.75.6,3.47,1.28,5.24,1.8Z"/><path class="cls-1" d="M278.38,529.75c.28.27.56.55.84.81a2.17,2.17,0,0,1-2.57-.34c-2.81-2.62-5.6-5.25-8.36-7.92a16.23,16.23,0,0,1-2.13-1.64c-.82-1-1.63-2-2.37-3.06-1.43-2-2.88-4-4.4-6-.82-1-1.64-2-2.49-2.94a1.7,1.7,0,0,1,0-2.36,1.79,1.79,0,0,1,1.22-.48,1.5,1.5,0,0,1,1.14.48c1.57,1.79,3.09,3.64,4.5,5.56,1.25,1.69,2.44,3.43,3.69,5.13.94,1.16,1.93,2.29,2.86,3.46s1.92,2.46,2.86,3.7c.76,1,1.55,1.92,2.4,2.83S277.45,528.83,278.38,529.75Z"/><path class="cls-7" d="M98,176.83a3.93,3.93,0,0,0-1.15,2.77A3.8,3.8,0,0,0,98,182.37c1.1.94,2.19,1.89,3.29,2.82,1.34,1.14,2.75,2.21,4.15,3.28q3.92,3,8,5.83a115.09,115.09,0,0,0,16.29,9.54,56.17,56.17,0,0,0,9,3.44c1.92.53,3.87,1,5.8,1.44a55,55,0,0,0,7.62,1.43,3.62,3.62,0,0,0,1.85-.5,3.68,3.68,0,0,0,1.32-5,3.5,3.5,0,0,0-2.19-1.69,47.25,47.25,0,0,1-5.64-1.25l-3.19-.87c-1.41-.38-2.82-.75-4.23-1.16s-2.56-.88-3.82-1.39a105.78,105.78,0,0,1-14.13-7.67c-4.56-2.88-8.93-6-13.21-9.3-1.83-1.43-3.57-3-5.34-4.46a4.13,4.13,0,0,0-2.77-1.15A3.93,3.93,0,0,0,98,176.83Zm10.29,4,.45.34-.45-.34Zm28.15,17.52.48.21-.48-.21Z"/><path class="cls-7" d="M208,67.54a3.76,3.76,0,0,0-1.33,5.08c2.91,5.29,5.84,10.57,8.84,15.81l6.9,12.1c.73,1.27,1.52,2.5,2.28,3.75l4.39,7.22q3,4.85,5.93,9.68c1.94,3.16,3.89,6.33,6,9.4a3.78,3.78,0,0,0,2.16,1.66,3.61,3.61,0,0,0,4.07-5.3c-2.18-3.33-4.25-6.74-6.31-10.15s-4-6.65-6.06-10-4.22-6.8-6.2-10.29l-7.39-13c-2.76-4.86-5.46-9.74-8.15-14.64A3.75,3.75,0,0,0,208,67.54Z"/><path class="cls-7" d="M370.31,16a4.06,4.06,0,0,0-1.22,3q.86,10.39,1.79,20.77c.17,1.94.31,3.89.58,5.82q.52,3.83,1.05,7.65c1.19,8.61,2.73,17.17,4.28,25.73.36,2,.73,4,1.14,6a3.9,3.9,0,0,0,7.13.93,4.17,4.17,0,0,0,.39-3c-1.59-8.85-2.93-17.76-4.35-26.65q-.49-3.79-1-7.59c-.25-1.91-.52-3.82-.68-5.74q-1-12-2-23.91a4.39,4.39,0,0,0-1.22-3,4.18,4.18,0,0,0-5.91,0ZM381.19,56.8l0,.33,0-.33Z"/><path class="cls-7" d="M580.69,29.8A4.82,4.82,0,0,0,578,31.9c-2.8,4-5.37,8.23-8,12.38-1.1,1.74-2.18,3.49-3.27,5.23s-2.12,3.29-3.08,5l-4.31,7.65c-.77,1.36-1.51,2.69-2.18,4.1-3,6.29-6,12.59-8.89,18.91a5.05,5.05,0,0,0-.47,3.64,4.72,4.72,0,0,0,5.81,3.3,4.56,4.56,0,0,0,2.82-2.17q4.31-9.34,8.74-18.63c1.92-4.07,4.27-7.93,6.46-11.85.84-1.51,1.78-3,2.69-4.45l3.6-5.83c2.63-4.23,5.2-8.51,8-12.65a4.58,4.58,0,0,0-5.16-6.72Z"/><path class="cls-7" d="M726.46,116.29a4.25,4.25,0,0,0-1.88,1.1l-4,3.11.85-.66q-9.62,7.4-19.25,14.77-6.61,5.06-13.22,10.12c-4.86,3.75-9.75,7.42-14.8,10.9-2.48,1.71-5,3.35-7.61,4.86-1.23.72-2.5,1.36-3.74,2.06s-2.5,1.43-3.81,2c-.39.15-.78.27-1.18.38l-.12-.13a3.75,3.75,0,0,0-5.25,0,7,7,0,0,0-1,1.31,3.72,3.72,0,0,0,1.34,5.08c1.25.63,2.56,1.47,4,1.41a14.71,14.71,0,0,0,4.07-.72c2.92-1,5.56-2.69,8.28-4.08a88.83,88.83,0,0,0,7.76-4.61q4.15-2.69,8.16-5.58c4.05-2.91,8-6,12-9l5.86-4.41,21.85-16.45,5-3.76.86-.67a4.26,4.26,0,0,0-4.15-7.12Z"/><path class="cls-7" d="M765.84,219.42c-5.3,2.56-10.74,4.84-16.12,7.21q-6.69,2.93-13.39,5.83a140.7,140.7,0,0,1-15.68,5.65c-3,.83-6.14,1.42-9.23,2.05s-6.19,1.28-9.3,1.91a5.86,5.86,0,0,0-3.59,2.76,6,6,0,0,0,2.15,8.21,6.28,6.28,0,0,0,4.62.61c5.16-1,10.32-2.07,15.47-3.22a101.77,101.77,0,0,0,15.55-5.1c5-2,10-4.22,15-6.39,6.87-3,13.82-5.88,20.56-9.14a5.84,5.84,0,0,0,2.76-3.58,6,6,0,0,0-4.19-7.38,5.61,5.61,0,0,0-1.5-.21,7.12,7.12,0,0,0-3.12.81Z"/></svg>