<svg id="convenience" xmlns="http://www.w3.org/2000/svg" viewBox="0 0 150 150"><defs><style>.cls-1{fill:#5674b8;}.cls-2{fill:#bfbebe;}.cls-3{fill:#fffeff;}.cls-4{fill:#fff;}</style></defs><title>convenience</title><path class="cls-1" d="M29.49,71.91c.5,0,1,0,1.48,0s1,0,1.56-.09,1.05-.13,1.58-.17,1,0,1.52-.06c1.09,0,2.17-.08,3.25-.14s2.18,0,3.27-.11c.55-.06,1.1-.09,1.66-.1a13,13,0,0,1,1.61,0,6.68,6.68,0,0,1,1.05.28,3,3,0,0,1,.41.23l0,.13a5.24,5.24,0,0,1-.06.83c-.14,1-.3,2-.42,3.08s-.17,2.18-.22,3.27-.12,2.22-.19,3.32-.1,2.18-.14,3.27c-.09,1.92-.1,3.82-.07,5.74,0,.94.06,1.89.16,2.82s.24,2,.38,2.95.27,2.23.41,3.35.32,2.32.49,3.47.31,2.17.53,3.25.48,2.25.74,3.37.52,2.18.76,3.29.49,2.22.74,3.32.45,2.19.7,3.29.51,2.16.78,3.23a48.74,48.74,0,0,0,1.45,4.8c.3.81.61,1.61.9,2.41.14.4.24.81.37,1.22s.2.71.27,1.06c0,.17,0,.33,0,.49H52.62c-.5,0-1,0-1.51.09s-1,.11-1.56.13c-1.05,0-2.1,0-3.16,0a24.75,24.75,0,0,0-3.5.42l-1.34.22a7.33,7.33,0,0,0-1.28.34c-.89.34-1.76.72-2.66,1.05a11.51,11.51,0,0,1-1.36.44c-.41.11-.82.18-1.24.25-.85.16-1.71.33-2.57.47A15.23,15.23,0,0,1,29,137.1a8.41,8.41,0,0,1-1.73-.52c-.27-.12-.53-.24-.79-.39s-.42-.25-.63-.4a7.24,7.24,0,0,1-.93-1l-.33-.41a.69.69,0,0,0-.16-.2s0,0,0,0l-.1-.13a15.94,15.94,0,0,1-1.22-1.87c-.43-.78-.81-1.57-1.16-2.38-.13-.29-.25-.6-.38-.9h0c-.4-1-.71-2-1.07-3-.21-.55-.41-1.1-.59-1.66s-.29-1-.43-1.52l-.86-3.19c-.28-1-.62-2.06-.91-3.09s-.56-2.12-.82-3.19-.44-2.13-.6-3.21-.29-2.12-.45-3.18-.33-2-.47-2.95a.92.92,0,0,0,0-.24,2.4,2.4,0,0,0,0-.28,2.44,2.44,0,0,0-.06-.41c0-.3-.08-.61-.12-.91-.17-1-.32-2.09-.5-3.13-.35-2.13-.78-4.25-1.13-6.38,0-.38-.09-.74-.11-1.12a12.4,12.4,0,0,1,0-1.28c0-.91,0-1.81.1-2.71s.14-1.67.17-2.53,0-1.67.12-2.5c.09-.6.19-1.19.3-1.77.06-.31.1-.62.16-.93a9,9,0,0,1,.23-.94c.18-.6.38-1.2.56-1.79s.34-1.09.54-1.62a11.19,11.19,0,0,1,1.1-1.91,6.42,6.42,0,0,1,.72-.73,5.29,5.29,0,0,1,.81-.47,7,7,0,0,1,1.33-.39c.45-.06.91-.08,1.37-.11s1-.13,1.54-.14,1,0,1.54,0l.81,0a.85.85,0,0,0,.43.24c.38.07.76.12,1.15.17s.51,0,.75,0l.44.14a1,1,0,0,0,1-.21Z"/><path class="cls-2" d="M15.16,115.31c-.27-1.07-.56-2.16-.74-3.25s-.33-2.28-.5-3.42-.35-2.28-.54-3.41c0-.27-.08-.52-.11-.79s0-.37-.08-.55v0c0-.07,0-.12,0-.19a.84.84,0,0,1,0-.23c-.3-2.08-.65-4.15-1-6.23-.19-1.11-.4-2.2-.6-3.31a16.53,16.53,0,0,1-.33-3.12v-.3c0-1.09.06-2.18.13-3.27,0-.53.09-1.06.12-1.58s0-1.06.06-1.6,0-1,.08-1.56.17-1.2.27-1.78.2-1.12.3-1.68a13.16,13.16,0,0,1,.39-1.44c.16-.49.32-1,.48-1.45s.31-1,.5-1.48a10.66,10.66,0,0,1,.74-1.46,9.39,9.39,0,0,1,1-1.44,6,6,0,0,1,1.35-1.12,7.5,7.5,0,0,1,3.37-1c.51,0,1-.08,1.53-.13a12.57,12.57,0,0,1,1.57-.08l1.53,0a6.52,6.52,0,0,1,1.85.18c.31.08.62.18.93.27h.24l.8,0c.48,0,1,0,1.43,0s1,0,1.5,0,1-.07,1.53-.12,1-.11,1.47-.14l1.46,0q1.56,0,3.12-.13c1.05-.07,2.12,0,3.17-.11.52-.06,1.05-.1,1.57-.11a12.77,12.77,0,0,1,1.6,0,6.75,6.75,0,0,1,1.75.37,6.36,6.36,0,0,1,.88.42,2.09,2.09,0,0,1,.58.45,2,2,0,0,1,.43.8,3.69,3.69,0,0,1,.06,1.6c-.08.58-.17,1.14-.24,1.72-.17,1.26-.29,2.51-.35,3.79s-.13,2.65-.21,4c-.08,1.09-.11,2.17-.16,3.26s-.09,2.2-.1,3.31,0,2.25,0,3.37c0,.56,0,1.14.1,1.69s.11,1.09.18,1.62c.22,1.62.42,3.22.62,4.84.16,1.2.33,2.38.51,3.58s.35,2.35.61,3.51c.48,2.25,1,4.48,1.53,6.71.24,1.1.5,2.18.74,3.27s.44,2.19.69,3.29c.51,2.17,1.06,4.34,1.77,6.46.37,1.07.79,2.13,1.16,3.19.18.49.32,1,.45,1.51l.2.81a5.15,5.15,0,0,1,.09,1.16v.42a1.8,1.8,0,0,1,0,.69,1.36,1.36,0,0,1-.6.72,2.1,2.1,0,0,1-.73.19c-.19,0-.38,0-.55,0H54a28.66,28.66,0,0,0-2.92.1c-.53.06-1.05.11-1.58.13s-1.05,0-1.57,0a28.41,28.41,0,0,0-3.07.11l-1.53.27c-.52.09-1.05.17-1.57.27a7.71,7.71,0,0,0-1.45.49c-.5.19-1,.4-1.48.6s-1,.4-1.55.56a13,13,0,0,1-1.45.32c-1.09.2-2.16.45-3.26.59a13.94,13.94,0,0,1-3.26-.08,10,10,0,0,1-1.81-.33c-.23-.07-.47-.17-.7-.25s-.62-.24-.91-.39a7,7,0,0,1-1.54-1A8.45,8.45,0,0,1,23.18,136c-.09-.1-.17-.21-.24-.31a1,1,0,0,1-.16-.2h0l-.1-.13c-.08-.09-.14-.19-.22-.29s-.31-.42-.45-.63a16.19,16.19,0,0,1-.85-1.4c-.53-1-1-2-1.38-3,0,0,0,0,0,0s0,0,0-.07l0-.09c-.28-.66-.54-1.33-.78-2-.17-.49-.32-1-.51-1.47s-.41-1.1-.59-1.66-.29-1-.43-1.52-.3-1.07-.44-1.62c-.28-1-.55-2.09-.88-3.12S15.43,116.39,15.16,115.31Zm.35-40c-.2.53-.37,1.07-.54,1.62s-.39,1.2-.56,1.79a9,9,0,0,0-.23.94c-.06.31-.1.62-.16.93-.11.59-.21,1.17-.3,1.77-.09.83-.1,1.67-.12,2.5s-.11,1.68-.17,2.53-.08,1.81-.1,2.71a12.4,12.4,0,0,0,0,1.28c0,.38.07.74.11,1.12.35,2.13.78,4.25,1.13,6.38.18,1,.33,2.09.5,3.13,0,.3.09.61.12.91a2.44,2.44,0,0,1,.06.41,2.4,2.4,0,0,1,0,.28.92.92,0,0,1,0,.24c.13,1,.31,2,.47,2.95s.31,2.12.45,3.18.34,2.15.6,3.21.52,2.14.82,3.19.63,2,.91,3.09l.86,3.19c.14.51.27,1,.43,1.52s.38,1.11.59,1.66c.37,1,.68,2,1.07,3h0c.12.3.24.61.38.9.35.81.73,1.61,1.16,2.38A15.94,15.94,0,0,0,24.29,134l.1.13s0,0,0,0a.69.69,0,0,1,.16.2l.33.41a7.24,7.24,0,0,0,.93,1c.21.14.41.28.63.4s.52.27.79.39a8.41,8.41,0,0,0,1.73.52,15.23,15.23,0,0,0,3.48.12c.86-.13,1.72-.31,2.57-.47.42-.08.83-.14,1.24-.25a11.51,11.51,0,0,0,1.36-.44c.9-.33,1.77-.71,2.66-1.05a7.33,7.33,0,0,1,1.28-.34l1.34-.22a24.75,24.75,0,0,1,3.5-.42c1.05,0,2.1,0,3.16,0,.52,0,1-.09,1.56-.13s1-.08,1.51-.09H54.5c0-.16,0-.32,0-.49-.07-.35-.17-.71-.27-1.06s-.22-.82-.37-1.22c-.29-.81-.6-1.61-.9-2.41a48.74,48.74,0,0,1-1.45-4.8c-.27-1.07-.54-2.15-.78-3.23s-.44-2.19-.7-3.29-.5-2.22-.74-3.32-.51-2.19-.76-3.29-.52-2.24-.74-3.37-.38-2.16-.53-3.25-.33-2.3-.49-3.47-.28-2.24-.41-3.35-.28-2-.38-2.95-.14-1.88-.16-2.82c0-1.92,0-3.82.07-5.74,0-1.09.08-2.17.14-3.27s.14-2.22.19-3.32.1-2.18.22-3.27.28-2,.42-3.08a5.24,5.24,0,0,0,.06-.83l0-.13a3,3,0,0,0-.41-.23,6.68,6.68,0,0,0-1.05-.28,13,13,0,0,0-1.61,0c-.56,0-1.11,0-1.66.1-1.09.11-2.18.06-3.27.11s-2.16.12-3.25.14c-.51,0-1,0-1.52.06s-1.05.11-1.58.17-1,.09-1.56.09-1,0-1.48,0h-1a1,1,0,0,1-1,.21L27.07,72c-.24,0-.5,0-.75,0s-.78-.1-1.15-.17a.85.85,0,0,1-.43-.24l-.81,0c-.52,0-1,0-1.54,0s-1,.1-1.54.14-.92.06-1.37.11a7,7,0,0,0-1.33.39,5.29,5.29,0,0,0-.81.47,6.42,6.42,0,0,0-.72.73A11.19,11.19,0,0,0,15.51,75.32Z"/><path class="cls-3" d="M42.51,123.66l.41-.11a11.66,11.66,0,0,1,1.76,0,6.35,6.35,0,0,1,.93.23,4.2,4.2,0,0,1,.38.22,2.08,2.08,0,0,1,.28.27c.08.12.16.24.22.37s.09.31.12.47a2.84,2.84,0,0,1,0,.53,9.81,9.81,0,0,1-.5,1.68,5.75,5.75,0,0,1-.41.72c-.11.12-.21.22-.33.33a3.17,3.17,0,0,1-.47.27,4.8,4.8,0,0,1-.66.16,6.64,6.64,0,0,1-1.24,0,8.65,8.65,0,0,1-1.3-.37,3.66,3.66,0,0,1-.5-.29,4.1,4.1,0,0,1-.31-.31,4,4,0,0,1-.39-.66c0-.14-.09-.28-.12-.42a2.82,2.82,0,0,1,0-.43,4.29,4.29,0,0,1,.17-.62,10.43,10.43,0,0,1,.54-1c.18-.25.37-.51.55-.76a1,1,0,0,0,.43-.13Z"/><path class="cls-2" d="M44.71,130.9c-.32,0-.64.09-1,.11a6.65,6.65,0,0,1-2.51-.42,3.9,3.9,0,0,1-.91-.4,3.62,3.62,0,0,1-.89-.71,5.71,5.71,0,0,1-.54-.71,5.4,5.4,0,0,1-.42-.89,3.7,3.7,0,0,1-.23-1.2v-.18a4.32,4.32,0,0,1,.2-1.13,7.54,7.54,0,0,1,.34-.82q.2-.38.43-.76a13.3,13.3,0,0,1,1.17-1.58,1,1,0,0,1,.74-.31h.14a3.68,3.68,0,0,1,.64-.29,4.3,4.3,0,0,1,1.06-.2c.42,0,.84,0,1.27,0s.58.06.86.1a3.93,3.93,0,0,1,.8.17,4.21,4.21,0,0,1,1.07.47,3.69,3.69,0,0,1,.75.62,3.73,3.73,0,0,1,.91,1.81,4.82,4.82,0,0,1,.08,1,6.84,6.84,0,0,1-.09.69,7.57,7.57,0,0,1-.39,1.38,6.06,6.06,0,0,1-.53,1.2,4.5,4.5,0,0,1-1.43,1.5,3.81,3.81,0,0,1-1,.44A5.53,5.53,0,0,1,44.71,130.9Zm-1.73-2a6.64,6.64,0,0,0,1.24,0,4.8,4.8,0,0,0,.66-.16,3.17,3.17,0,0,0,.47-.27c.12-.11.22-.21.33-.33a5.75,5.75,0,0,0,.41-.72,9.81,9.81,0,0,0,.5-1.68,2.84,2.84,0,0,0,0-.53c0-.16-.08-.31-.12-.47s-.14-.24-.22-.37a2.08,2.08,0,0,0-.28-.27,4.2,4.2,0,0,0-.38-.22,6.35,6.35,0,0,0-.93-.23,11.66,11.66,0,0,0-1.76,0l-.41.11-.43.23a1,1,0,0,1-.43.13c-.19.25-.38.51-.55.76a10.43,10.43,0,0,0-.54,1,4.29,4.29,0,0,0-.17.62,2.82,2.82,0,0,0,0,.43c0,.14.08.28.12.42a4,4,0,0,0,.39.66,4.1,4.1,0,0,0,.31.31,3.66,3.66,0,0,0,.5.29A8.65,8.65,0,0,0,43,128.87Z"/><path class="cls-2" d="M133.59,78.72a1.58,1.58,0,0,1-.16-.22,1.54,1.54,0,0,1-.11-1.34,1.77,1.77,0,0,1,.11-.25l.09,0a1.14,1.14,0,0,1,.49.64,1.09,1.09,0,0,1-.11.81A1,1,0,0,1,133.59,78.72Z"/><path class="cls-2" d="M132.44,97a1.57,1.57,0,0,1,.14-.37,3,3,0,0,1,.31-.42l.35-.38a1.21,1.21,0,0,1,.14.19,1.06,1.06,0,0,1-.38,1.45l-.51.29a.77.77,0,0,0-.06-.14A1.46,1.46,0,0,1,132.44,97Z"/><path class="cls-2" d="M129.74,115.4a1.11,1.11,0,0,1,.1.82,1,1,0,0,1-.49.63l-1.31.61-.3.13a5.23,5.23,0,0,1,.2-.92,3.3,3.3,0,0,1,.43-.94c.21-.29.44-.55.68-.82,0,0,0,0,0,0A1.14,1.14,0,0,1,129.74,115.4Z"/><path class="cls-2" d="M111.2,96.88l1.89.34c.39.06.78.11,1.16.14a49.28,49.28,0,0,0,6.77.31l3.33-.14c1.06,0,2.12-.14,3.17-.28A10.53,10.53,0,0,0,129,97c.24-.08.5-.14.73-.24l.53-.21c.58-.27,1.14-.55,1.69-.88a1.09,1.09,0,0,1,1.31.19l-.35.38a3,3,0,0,0-.31.42,1.57,1.57,0,0,0-.14.37,1.46,1.46,0,0,0,0,.62.77.77,0,0,1,.06.14,14.93,14.93,0,0,1-1.58.76c-.35.14-.7.28-1.05.39s-.69.19-1,.28-.74.13-1.11.19l-1.13.13c-.66.07-1.34.13-2,.16-1.13,0-2.26.08-3.39.14a31.29,31.29,0,0,1-3.22,0c-1.15-.07-2.29-.14-3.43-.25-1.31-.12-2.6-.34-3.9-.59a1,1,0,0,1-.63-.49,1,1,0,0,1-.14-.53,1.28,1.28,0,0,1,0-.29,1.07,1.07,0,0,1,1.31-.74Z"/><path class="cls-2" d="M113.84,81c-1.23-.12-2.45-.25-3.67-.43a1,1,0,0,1-.63-.49,1,1,0,0,1-.14-.54,1.12,1.12,0,0,1,0-.28,1.08,1.08,0,0,1,.49-.63,1.11,1.11,0,0,1,.82-.11l.79.11,3.22.35c1.07.11,2.16.22,3.25.25s2.2.09,3.3,0,2.07-.16,3.1-.28a35.23,35.23,0,0,0,4-.79c.74-.19,1.48-.38,2.23-.59s1.4-.53,2.09-.81a.94.94,0,0,1,.73.06,1.77,1.77,0,0,0-.11.25,1.54,1.54,0,0,0,.11,1.34,1.58,1.58,0,0,0,.16.22,1.74,1.74,0,0,1-.32.17,21.59,21.59,0,0,1-2.32.88c-.73.21-1.48.41-2.23.59a37.21,37.21,0,0,1-4.8.86c-1.12.11-2.25.21-3.39.23s-2.18,0-3.28-.08S115,81.16,113.84,81Z"/><path class="cls-2" d="M110.68,116.06c1.23.11,2.47.2,3.71.28s2.22.16,3.32.19,2.25,0,3.38,0,2.14-.1,3.21-.2h.13a7.86,7.86,0,0,0,1-.19l.68-.18.56-.21,1.57-.71a1.09,1.09,0,0,1,.76-.11c-.23.27-.47.53-.68.82a3.3,3.3,0,0,0-.43.94,5.23,5.23,0,0,0-.2.92,7.81,7.81,0,0,1-1.11.41,11.19,11.19,0,0,1-1.34.31c-.52.07-1,.14-1.57.18a53.41,53.41,0,0,1-6.79.13c-2.45-.12-4.9-.32-7.33-.52a1.12,1.12,0,0,1-.75-.31,1.06,1.06,0,0,1,.75-1.81Z"/><path class="cls-2" d="M99.1,13.4a1.05,1.05,0,0,0-1.79-.68l-.5-.3a8.2,8.2,0,0,1,.8-.59,8.06,8.06,0,0,1,1.87-1,5,5,0,0,1,1.33-.28,6.62,6.62,0,0,1,1.14.06,5.21,5.21,0,0,1,1.15.24c.33.11.66.25,1,.4a9.83,9.83,0,0,1,1.58.92c.54.38,1.09.75,1.61,1.16a7.32,7.32,0,0,1,1.23,1.19,9.38,9.38,0,0,1,.72,1c.32.51.6,1,.91,1.55a19.57,19.57,0,0,1,1,1.83,18.38,18.38,0,0,1,.79,1.95,32.71,32.71,0,0,1,1,3.71,17.72,17.72,0,0,1,.4,2c.09.68.16,1.36.2,2a35.64,35.64,0,0,1,.07,3.92c0,.63-.1,1.27-.18,1.89s-.19,1.4-.33,2.08a31,31,0,0,1-.91,3.59c-.39,1.21-.93,2.36-1.43,3.52-.38.92-.72,1.85-1.14,2.75s-.93,1.73-1.4,2.58-.9,1.66-1.3,2.51-.72,1.45-1.05,2.18l0,.07,0,.11a11.74,11.74,0,0,0-.69,2.46,4.64,4.64,0,0,0,0,.55l.5.11a10.61,10.61,0,0,0,2.14,0c.43-.08.88-.18,1.31-.27a15,15,0,0,1,1.72-.27c.92-.09,1.85-.12,2.76-.23a13.14,13.14,0,0,1,2.17-.23,19.26,19.26,0,0,1,2.1.18,17.45,17.45,0,0,1,2.13.38c.66.17,1.33.25,2,.38s1.22.23,1.82.35,1.07.24,1.6.41l1.67.51a9.74,9.74,0,0,1,1.91.75,13.87,13.87,0,0,1,1.52,1c.49.37,1,.71,1.46,1.05a13,13,0,0,1,2.81,2.28,12.89,12.89,0,0,1,1.93,3.53,8.5,8.5,0,0,1,.48,1.73,17.48,17.48,0,0,1,.19,2,10.11,10.11,0,0,1-.33,3.73,15.25,15.25,0,0,1-.81,1.86c-.22.44-.47.89-.69,1.34a2.36,2.36,0,0,1,.34.32,8.32,8.32,0,0,1,.6.8,14,14,0,0,1,.83,1.48,13.39,13.39,0,0,1,.73,1.81,16.42,16.42,0,0,1,.45,1.94c.12.69.23,1.37.31,2.07a13.48,13.48,0,0,1,.09,1.89,10.68,10.68,0,0,1-.24,2.06,12.25,12.25,0,0,1-.61,1.76c-.49,1.15-1,2.28-1.61,3.39-.13.25-.25.52-.41.76a6.51,6.51,0,0,1-.56.8,4.4,4.4,0,0,1-.48.54,2.61,2.61,0,0,1,.5.66,8.86,8.86,0,0,1,.4.88q.27.71.47,1.46a11.08,11.08,0,0,1,.45,3.41c0,.71-.12,1.41-.21,2.1s-.19,1.21-.33,1.81a11.56,11.56,0,0,1-.56,1.68,17.24,17.24,0,0,1-.85,1.91,20.5,20.5,0,0,1-2.28,3.17c-.39.47-.8.92-1.2,1.37s-.63.68-.93,1l-.49-.44a1.11,1.11,0,0,0-.1-.82,1.14,1.14,0,0,0-.64-.49s0,0,0,0l.51-.56c.38-.42.76-.84,1.13-1.27s.69-.84,1-1.26a14.46,14.46,0,0,0,1-1.37,12.06,12.06,0,0,0,.69-1.36s0,0,0,0,0,0,0,0a14.7,14.7,0,0,0,.68-1.88,19.36,19.36,0,0,0,.38-2,13.8,13.8,0,0,0,.1-2.87,15.08,15.08,0,0,0-.82-3,5.34,5.34,0,0,0-.3-.55,1,1,0,0,0-.11-.11c-.13-.1-.27-.19-.4-.3a1.45,1.45,0,0,1-.3-.33,1.38,1.38,0,0,1-.11-.22l.51-.29a1.06,1.06,0,0,0,.38-1.45,1.21,1.21,0,0,0-.14-.19,6.81,6.81,0,0,0,.54-.59,14.13,14.13,0,0,0,1.07-1.92c.37-.72.71-1.43,1-2.17.14-.35.3-.71.41-1.07a8.92,8.92,0,0,0,.31-1.22,13.73,13.73,0,0,0,0-3.09,17,17,0,0,0-.93-4,12.92,12.92,0,0,0-1.26-2.3,4.27,4.27,0,0,0-.39-.39,3.87,3.87,0,0,1-.39-.35,1,1,0,0,0,.31-.32,1.09,1.09,0,0,0,.11-.81,1.14,1.14,0,0,0-.49-.64l-.09,0c.06-.16.12-.31.19-.45.34-.71.73-1.4,1.05-2.12a8.09,8.09,0,0,0,.45-1.53,13.21,13.21,0,0,0,0-1.87c0-.6-.07-1.2-.13-1.79a6,6,0,0,0-.22-1c-.09-.3-.2-.6-.32-.9a12.36,12.36,0,0,0-1.28-2.38,9,9,0,0,0-1.2-1.15c-.75-.55-1.55-1-2.29-1.61-.42-.31-.83-.63-1.27-.92a10.94,10.94,0,0,0-1.12-.61c-.78-.3-1.57-.5-2.36-.74s-1.54-.42-2.32-.59L121.33,59c-.42-.07-.84-.12-1.26-.2s-.78-.19-1.17-.28a10,10,0,0,0-1-.18c-.58-.08-1.16-.14-1.75-.18a7.46,7.46,0,0,0-1.57.08c-.41.06-.81.12-1.22.17l-1.09.09c-.63.07-1.27.09-1.91.17-.43.07-.85.16-1.28.25a11.79,11.79,0,0,1-1.66.25,9.15,9.15,0,0,1-2.75-.18,2.09,2.09,0,0,1-1.44-1,2.62,2.62,0,0,1-.24-1.38,10.92,10.92,0,0,1,.32-1.89,18.46,18.46,0,0,1,1.38-3.36c.54-1.12,1.06-2.23,1.67-3.31.31-.58.64-1.14,1-1.72s.53-1.05.78-1.6.52-1.32.8-2l.76-1.77a29.06,29.06,0,0,0,1.68-6.48c.07-.61.13-1.23.18-1.85a19.51,19.51,0,0,0,0-2c0-1.28-.1-2.56-.25-3.83-.2-1.12-.48-2.24-.74-3.35a22.71,22.71,0,0,0-1-3c-.16-.35-.31-.7-.5-1s-.48-.84-.72-1.25A23,23,0,0,0,106.95,16a7.33,7.33,0,0,0-1.16-1.11c-.45-.34-.92-.68-1.38-1-.24-.16-.49-.32-.74-.45l-.66-.32-.11-.06-.52-.19a5.6,5.6,0,0,0-.62-.13l-.35,0a4.9,4.9,0,0,0-.7,0,4.67,4.67,0,0,0-.76.23A8.18,8.18,0,0,0,99.1,13.4Z"/><path class="cls-2" d="M98.21,14a8.58,8.58,0,0,0-1.26,1.35c0-.63,0-1.26.06-1.91a1.05,1.05,0,0,1,2.1-.07l-.18.11C98.68,13.68,98.44,13.84,98.21,14Z"/><path class="cls-2" d="M93,28.92c.47-.12.92-.27,1.37-.43a7.8,7.8,0,0,0,.79-.43,3.84,3.84,0,0,0,.35-.38,5.26,5.26,0,0,0,.52-.86,7.58,7.58,0,0,0,.32-1.22c.1-1,.14-1.91.21-2.87s.13-2,.18-2.94.06-2,.12-3c0-.47,0-.93.08-1.4A8.58,8.58,0,0,1,98.21,14c.23-.18.48-.34.72-.51l.18-.11a.14.14,0,0,1,0,.07c0,1.35-.12,2.7-.17,4.05s-.08,2.57-.17,3.85c-.07,1-.16,2.09-.22,3.15a8.73,8.73,0,0,1-.7,3.4,6.88,6.88,0,0,1-.43.72,5.48,5.48,0,0,1-.6.74A4.35,4.35,0,0,1,96,30a5.9,5.9,0,0,1-.7.35,10.83,10.83,0,0,1-1.75.59c-.59.16-1.17.31-1.75.49a1.07,1.07,0,0,1-1.31-.74.27.27,0,0,1,0-.13c.13-.33.28-.65.4-1a1.18,1.18,0,0,1,.35-.18C91.85,29.22,92.42,29.07,93,28.92Z"/><path class="cls-4" d="M94.37,28.49c-.45.17-.91.31-1.37.43s-1.15.3-1.73.49a1.18,1.18,0,0,0-.35.18c.12-.29.24-.56.35-.85.43-1.07.79-2.18,1.14-3.28s.71-2.33,1.07-3.49.69-2.1,1.1-3.12a12.21,12.21,0,0,1,.86-1.47c.28-.42.56-.82.86-1.21s.41-.53.63-.79c0,.47-.06.93-.08,1.4-.07,1-.09,2-.12,3s-.11,2-.18,2.94-.11,1.92-.21,2.87A7.58,7.58,0,0,1,96,26.81a5.26,5.26,0,0,1-.52.86,3.84,3.84,0,0,1-.35.38A7.8,7.8,0,0,1,94.37,28.49Z"/><path class="cls-2" d="M90.5,30.42a1,1,0,0,1,.42-.84c-.12.33-.27.65-.4,1A.33.33,0,0,1,90.5,30.42Z"/><path class="cls-4" d="M65.44,130.11c-.4.09-.8.19-1.2.31l-.18.06c-.14-.85-.3-1.71-.48-2.56-.23-1.1-.43-2.18-.69-3.27-.13-.54-.28-1.07-.45-1.6s-.39-1.06-.59-1.6c-.41-1-.83-2-1.24-3.08s-.78-2.06-1.1-3.11-.56-2.09-.88-3.12c-.16-.54-.32-1.07-.47-1.62s-.27-1.1-.4-1.64c-.24-1.07-.51-2.14-.76-3.21-.32-1.37-.6-2.76-.88-4.14s-.59-2.79-.79-4.2c-.13-1-.27-2-.35-3s-.2-2.23-.29-3.33-.11-2.26-.14-3.39l-.07-1.67c0-.52,0-1.05,0-1.57.07-2.29.11-4.6.39-6.88.17-1.14.39-2.27.59-3.41.16-.86.29-1.74.45-2.6l.51-.08a6.16,6.16,0,0,0,2.09-.94,9.94,9.94,0,0,0,2.71-2.77l2.14-3a28.89,28.89,0,0,0,1.89-3.32,16.85,16.85,0,0,1,1.2-2c.25-.31.52-.62.8-.91s.69-.69,1-1c.72-.69,1.43-1.4,2.2-2,1-.71,2-1.35,3-2.07a37.43,37.43,0,0,0,3.08-2.38c.42-.39.84-.79,1.27-1.17s1-.86,1.42-1.32a36,36,0,0,0,2.65-3c.79-1,1.6-1.91,2.36-2.89.42-.54.85-1.09,1.23-1.66s.71-1.14,1-1.73c.6-1.11,1.15-2.24,1.66-3.38.27-.59.5-1.17.75-1.75l.84-1.79c.24-.54.49-1.09.72-1.64a.27.27,0,0,0,0,.13,1.07,1.07,0,0,0,1.31.74c.58-.18,1.16-.33,1.75-.49a10.83,10.83,0,0,0,1.75-.59A5.9,5.9,0,0,0,96,30a4.35,4.35,0,0,0,.8-.63,5.48,5.48,0,0,0,.6-.74,6.88,6.88,0,0,0,.43-.72,8.73,8.73,0,0,0,.7-3.4c.07-1.05.16-2.1.22-3.15.09-1.28.12-2.57.17-3.85s.16-2.7.17-4.05a.14.14,0,0,0,0-.07,8.18,8.18,0,0,1,.82-.42,4.67,4.67,0,0,1,.76-.23,4.9,4.9,0,0,1,.7,0l.35,0a5.6,5.6,0,0,1,.62.13l.52.19.11.06.66.32c.25.13.5.3.74.45.47.31.93.64,1.38,1A7.33,7.33,0,0,1,106.95,16a23,23,0,0,1,1.34,2.18c.24.41.5.82.72,1.25s.34.69.5,1a22.71,22.71,0,0,1,1,3c.27,1.11.54,2.23.74,3.35.16,1.27.22,2.55.25,3.83a19.51,19.51,0,0,1,0,2c0,.62-.11,1.24-.18,1.85A29.06,29.06,0,0,1,109.62,41l-.76,1.77c-.28.65-.53,1.32-.8,2s-.49,1.07-.78,1.6-.64,1.14-1,1.72c-.61,1.09-1.13,2.19-1.67,3.31a18.46,18.46,0,0,0-1.38,3.36,10.92,10.92,0,0,0-.32,1.89,2.62,2.62,0,0,0,.24,1.38,2.09,2.09,0,0,0,1.44,1,9.15,9.15,0,0,0,2.75.18,11.79,11.79,0,0,0,1.66-.25c.43-.1.85-.19,1.28-.25.63-.08,1.27-.1,1.91-.17l1.09-.09c.41,0,.81-.11,1.22-.17a7.46,7.46,0,0,1,1.57-.08c.59,0,1.17.1,1.75.18a10,10,0,0,1,1,.18c.4.09.78.2,1.17.28s.84.13,1.26.2l1.32.25c.78.17,1.55.34,2.32.59s1.58.44,2.36.74a10.94,10.94,0,0,1,1.12.61c.44.29.85.61,1.27.92.74.56,1.54,1.05,2.29,1.61a9,9,0,0,1,1.2,1.15,12.36,12.36,0,0,1,1.28,2.38c.12.3.23.6.32.9a6,6,0,0,1,.22,1c.07.6.1,1.2.13,1.79a13.21,13.21,0,0,1,0,1.87,8.09,8.09,0,0,1-.45,1.53c-.32.72-.71,1.41-1.05,2.12-.07.14-.13.3-.19.45a.94.94,0,0,0-.73-.06c-.7.28-1.37.6-2.09.81s-1.48.4-2.23.59a35.23,35.23,0,0,1-4,.79c-1,.12-2.06.22-3.1.28s-2.2,0-3.3,0-2.17-.14-3.25-.25l-3.22-.35-.79-.11a1.11,1.11,0,0,0-.82.11,1.08,1.08,0,0,0-.49.63,1.12,1.12,0,0,0,0,.28,1,1,0,0,0,.14.54,1,1,0,0,0,.63.49c1.22.18,2.44.31,3.67.43s2.28.25,3.42.33,2.19.09,3.28.08,2.27-.12,3.39-.23a37.21,37.21,0,0,0,4.8-.86c.74-.18,1.5-.38,2.23-.59a21.59,21.59,0,0,0,2.32-.88,1.74,1.74,0,0,0,.32-.17,3.87,3.87,0,0,0,.39.35,4.27,4.27,0,0,1,.39.39,12.92,12.92,0,0,1,1.26,2.3,17,17,0,0,1,.93,4,13.73,13.73,0,0,1,0,3.09,8.92,8.92,0,0,1-.31,1.22c-.11.37-.27.72-.41,1.07-.31.74-.65,1.45-1,2.17a14.13,14.13,0,0,1-1.07,1.92,6.81,6.81,0,0,1-.54.59,1.09,1.09,0,0,0-1.31-.19c-.55.32-1.12.61-1.69.88l-.53.21c-.23.1-.49.17-.73.24a10.53,10.53,0,0,1-1.45.3c-1.05.13-2.1.23-3.17.28l-3.33.14a49.28,49.28,0,0,1-6.77-.31c-.39,0-.78-.09-1.16-.14l-1.89-.34a1.07,1.07,0,0,0-1.31.74,1.28,1.28,0,0,0,0,.29,1,1,0,0,0,.14.53,1,1,0,0,0,.63.49c1.3.24,2.59.47,3.9.59,1.14.11,2.28.19,3.43.25a31.29,31.29,0,0,0,3.22,0c1.13-.07,2.26-.1,3.39-.14.66,0,1.34-.09,2-.16l1.13-.13c.37-.06.75-.1,1.11-.19s.7-.17,1-.28.7-.24,1.05-.39a14.93,14.93,0,0,0,1.58-.76,1.38,1.38,0,0,0,.11.22,1.45,1.45,0,0,0,.3.33c.13.11.27.2.4.3a1,1,0,0,1,.11.11,5.34,5.34,0,0,1,.3.55,15.08,15.08,0,0,1,.82,3,13.8,13.8,0,0,1-.1,2.87,19.36,19.36,0,0,1-.38,2,14.7,14.7,0,0,1-.68,1.88s0,0,0,0,0,0,0,0a12.06,12.06,0,0,1-.69,1.36,14.46,14.46,0,0,1-1,1.37c-.33.42-.66.85-1,1.26s-.75.85-1.13,1.27l-.51.56a1.09,1.09,0,0,0-.76.11l-1.57.71-.56.21-.68.18a7.86,7.86,0,0,1-1,.19h-.13c-1.07.1-2.14.17-3.21.2s-2.25.06-3.38,0-2.22-.11-3.32-.19-2.48-.17-3.71-.28l-1.07-.08a1.06,1.06,0,0,0-.75,1.81,1.12,1.12,0,0,0,.75.31c2.44.2,4.89.4,7.33.52a53.41,53.41,0,0,0,6.79-.13c.53,0,1.05-.11,1.57-.18a11.19,11.19,0,0,0,1.34-.31,7.81,7.81,0,0,0,1.11-.41c-.17,1.15-.34,2.3-.59,3.45a19,19,0,0,1-1,3.1,15,15,0,0,1-1.43,2.66,8.4,8.4,0,0,1-.83.83l-.92.75a11.76,11.76,0,0,1-1.77,1.1l-2.06,1c-.69.33-1.35.7-2,1.06s-1.25.63-1.91.92a16.76,16.76,0,0,1-1.63.59,12.86,12.86,0,0,1-1.73.33,64.63,64.63,0,0,1-7.32.44l-3.7,0c-1.27,0-2.54-.13-3.8-.22a17.48,17.48,0,0,0-2.53,0c-.78,0-1.55.13-2.33.2s-1.65.12-2.48.12c-.41,0-.82,0-1.24,0a8.45,8.45,0,0,1-1.05-.1c-.61-.09-1.22-.19-1.82-.3l-1.87-.34a32.85,32.85,0,0,1-3.72-1c-.6-.2-1.19-.4-1.77-.63s-1.13-.45-1.71-.66a19.22,19.22,0,0,0-3.62-.89c-.89-.14-1.77-.21-2.67-.27a18.81,18.81,0,0,0-2.37,0A16.38,16.38,0,0,0,65.44,130.11Z"/><path class="cls-2" d="M63,130.89a3.23,3.23,0,0,1,.82-.32l.29-.09c0,.21.08.41.11.62a1.17,1.17,0,0,1-.11.82,1,1,0,0,1-.63.49,1.06,1.06,0,0,1-.82-.1l-.07-.06A1.07,1.07,0,0,1,63,130.89Z"/><path class="cls-2" d="M64,132.71a1.07,1.07,0,0,1-1.45-.38.15.15,0,0,1,0-.09l.07.06a1.06,1.06,0,0,0,.82.1,1,1,0,0,0,.63-.49,1.17,1.17,0,0,0,.11-.82c0-.21-.07-.41-.11-.62l.18-.06c.4-.12.8-.22,1.2-.31a16.38,16.38,0,0,1,2.44-.37,18.81,18.81,0,0,1,2.37,0c.9.06,1.78.12,2.67.27a19.22,19.22,0,0,1,3.62.89c.58.21,1.14.44,1.71.66s1.17.43,1.77.63a32.85,32.85,0,0,0,3.72,1l1.87.34c.6.11,1.21.21,1.82.3a8.45,8.45,0,0,0,1.05.1c.42,0,.83,0,1.24,0,.83,0,1.65-.06,2.48-.12s1.55-.16,2.33-.2a17.48,17.48,0,0,1,2.53,0c1.26.09,2.53.21,3.8.22l3.7,0a64.63,64.63,0,0,0,7.32-.44,12.86,12.86,0,0,0,1.73-.33,16.76,16.76,0,0,0,1.63-.59c.65-.29,1.28-.58,1.91-.92s1.34-.73,2-1.06l2.06-1a11.76,11.76,0,0,0,1.77-1.1l.92-.75a8.4,8.4,0,0,0,.83-.83,15,15,0,0,0,1.43-2.66,19,19,0,0,0,1-3.1c.24-1.14.42-2.29.59-3.45l.3-.13,1.31-.61a1,1,0,0,0,.49-.63l.49.44-.09.1-.2.34a8.62,8.62,0,0,0-.34,1.71c-.09.64-.21,1.3-.32,1.94s-.25,1.24-.41,1.86-.4,1.2-.62,1.79-.55,1.3-.86,1.94a9.85,9.85,0,0,1-.94,1.57,6,6,0,0,1-.73.85c-.21.2-.44.39-.66.58a19.88,19.88,0,0,1-1.65,1.27,12.19,12.19,0,0,1-1.53.85l-1.64.8c-1.12.54-2.18,1.2-3.31,1.72a15.69,15.69,0,0,1-3.74,1.32c-1.33.22-2.66.34-4,.45s-2.45.17-3.68.18-2.51,0-3.77,0c-.62,0-1.25,0-1.87,0s-1.3-.08-1.94-.13-1.28-.1-1.94-.13a17.88,17.88,0,0,0-1.88,0c-1.24.11-2.48.23-3.74.29-.61,0-1.23,0-1.84,0a19.29,19.29,0,0,1-2.12-.22c-.63-.1-1.27-.22-1.91-.34s-1.23-.21-1.85-.34a33.15,33.15,0,0,1-3.69-1c-1.16-.4-2.28-.9-3.45-1.3a19.29,19.29,0,0,0-3.52-.8,20.72,20.72,0,0,0-4.83-.08c-.54.09-1.09.18-1.62.31s-1.05.3-1.58.45Z"/><path class="cls-2" d="M55.95,71.43c.07-.31.13-.62.21-.93a1,1,0,0,0-.47-1.16h.08a4.51,4.51,0,0,0,.64-.16,9.85,9.85,0,0,0,1.33-.76A9.17,9.17,0,0,0,59.08,67c.37-.49.72-1,1.06-1.5l1.14-1.63a26.84,26.84,0,0,0,2.06-3.48,17.19,17.19,0,0,1,.94-1.65,14.48,14.48,0,0,1,1.17-1.54c.38-.42.8-.82,1.21-1.21s1-1,1.47-1.41a13.9,13.9,0,0,1,1.6-1.31l1.61-1.07c.49-.33,1-.69,1.43-1l1.35-1c.8-.65,1.54-1.35,2.3-2a31.48,31.48,0,0,0,2.37-2.34c.76-.86,1.48-1.76,2.2-2.65s1.28-1.56,1.92-2.36a22.56,22.56,0,0,0,1.69-2.63c.49-.9,1-1.79,1.38-2.71s.85-2,1.31-3,.89-1.92,1.31-2.88c0,0,0,0,0,0s0,0,0,0c.43-1,.84-2.06,1.21-3.11S90.61,24.18,91,23s.71-2.36,1.12-3.52c.2-.58.43-1.14.68-1.71a10.73,10.73,0,0,1,.9-1.54c.39-.56.79-1.12,1.22-1.65s.8-1,1.22-1.5a6.07,6.07,0,0,1,.73-.68l.5.3a1.06,1.06,0,0,0-.31.74c0,.64,0,1.27-.06,1.91-.22.25-.42.52-.63.79s-.59.79-.86,1.21a12.21,12.21,0,0,0-.86,1.47c-.41,1-.78,2.07-1.1,3.12s-.69,2.34-1.07,3.49-.71,2.2-1.14,3.28c-.11.29-.23.56-.35.85a1,1,0,0,0-.42.84.33.33,0,0,0,0,.14c-.23.55-.48,1.1-.72,1.64L89,34c-.25.58-.49,1.16-.75,1.75-.51,1.14-1.06,2.27-1.66,3.38q-.48.88-1,1.73c-.38.58-.81,1.12-1.23,1.66-.76,1-1.57,1.93-2.36,2.89a36,36,0,0,1-2.65,3c-.45.45-.93.89-1.42,1.32s-.85.79-1.27,1.17A37.43,37.43,0,0,1,73.5,53.3c-1,.72-2,1.36-3,2.07-.78.62-1.48,1.33-2.2,2-.35.33-.71.66-1,1s-.54.6-.8.91a16.85,16.85,0,0,0-1.2,2A28.89,28.89,0,0,1,63.4,64.6l-2.14,3a9.94,9.94,0,0,1-2.71,2.77,6.16,6.16,0,0,1-2.09.94Z"/><path class="cls-2" d="M55.42,69.21a.8.8,0,0,1,.28.13c-.39,0-.78,0-1.16,0A1.05,1.05,0,0,1,55.42,69.21Z"/><path class="cls-2" d="M54.32,71.49a13.33,13.33,0,0,0,1.63-.06c-.17.86-.3,1.74-.45,2.6-.2,1.14-.42,2.27-.59,3.41-.28,2.28-.32,4.59-.39,6.88,0,.52,0,1.05,0,1.57l.07,1.67c0,1.13.06,2.26.14,3.39s.18,2.23.29,3.33.22,2,.35,3c.2,1.41.51,2.8.79,4.2s.55,2.77.88,4.14c.25,1.07.52,2.14.76,3.21.13.54.25,1.1.4,1.64s.31,1.07.47,1.62c.31,1,.55,2.09.88,3.12s.7,2.08,1.1,3.11.83,2,1.24,3.08c.2.53.41,1.05.59,1.6s.32,1.05.45,1.6c.25,1.09.45,2.17.69,3.27.18.85.33,1.71.48,2.56l-.29.09a3.23,3.23,0,0,0-.82.32,1.07,1.07,0,0,0-.41,1.36.92.92,0,0,1-.42-.59c-.27-1.58-.58-3.16-.9-4.73-.17-.82-.34-1.63-.55-2.43a18.89,18.89,0,0,0-.73-2.15c-.41-1-.83-2-1.24-3.08s-.81-2.06-1.13-3.1-.6-2.19-.91-3.28c-.16-.53-.32-1.07-.48-1.62s-.25-1-.38-1.52c-.24-1.07-.51-2.14-.76-3.2s-.5-2.23-.72-3.35-.43-2.13-.64-3.18-.41-2.34-.55-3.51q-.42-3.32-.61-6.67c-.08-1.12-.07-2.24-.11-3.36,0-.4,0-.8,0-1.21q0-1,0-2a58.15,58.15,0,0,1,.49-6.8c.17-1.09.39-2.16.58-3.25.1-.63.2-1.27.32-1.91A1,1,0,0,0,54.32,71.49Z"/><path class="cls-2" d="M55.95,71.43a13.33,13.33,0,0,1-1.63.06,1,1,0,0,1-.51-.14c.09-.47.19-.94.3-1.41a1,1,0,0,1,.42-.58c.39,0,.78,0,1.16,0a1,1,0,0,1,.47,1.16C56.08,70.81,56,71.12,55.95,71.43Z"/><path class="cls-2" d="M54.53,69.36a1,1,0,0,0-.42.58c-.11.47-.21.94-.3,1.41a1,1,0,0,1-.55-.92,1.07,1.07,0,0,1,1.06-1.06Z"/></svg>