<svg id="convenience" xmlns="http://www.w3.org/2000/svg" viewBox="0 0 150 150"><defs><style>.cls-1{fill:#a09f9f;}.cls-2{fill:#5c5c5c;}</style></defs><title>convenience</title><path class="cls-1" d="M72.42,11.92a15,15,0,0,1,3.47-.2H76a13.48,13.48,0,0,1,6.58,2.32,14,14,0,0,1,2.57,2.28,13.73,13.73,0,0,1,1.94,2.9,14.06,14.06,0,0,1,1.15,3.4,14.33,14.33,0,0,1,.22,3.64h0a14.44,14.44,0,0,1-.77,3.55,14.25,14.25,0,0,1-1.54,3l0,.06h0a14.05,14.05,0,0,1-2.3,2.57,13.35,13.35,0,0,1-6.28,3.05h-.06a13.38,13.38,0,0,1-7-.54h0a14.08,14.08,0,0,1-3.11-1.6h0a14,14,0,0,1-2.57-2.29,14.35,14.35,0,0,1-1.88-2.83l0-.07a14.93,14.93,0,0,1-1.13-3.38s0,0,0,0v0a14.63,14.63,0,0,1-.2-3.56,14.57,14.57,0,0,1,.76-3.51,14.71,14.71,0,0,1,1.56-3.06A14.11,14.11,0,0,1,66,15a13.13,13.13,0,0,1,1.1-.87,14.86,14.86,0,0,1,1.76-1.05,14.3,14.3,0,0,1,3.43-1.16h.1Z"/><path class="cls-1" d="M59.52,106.12a.53.53,0,0,0,.43,0,.63.63,0,0,0,.31-.27,5.63,5.63,0,0,0,.46-.83c.11-.26.21-.52.31-.79.21-.57.41-1.16.58-1.75s.28-1.12.43-1.68.33-1.15.49-1.72c.32-1.13.53-2.28.77-3.42.13-.6.26-1.19.38-1.79s.21-1.13.33-1.69a34.44,34.44,0,0,1,1.16-4.15s0,0,0,0c.18-.47.36-.94.55-1.4s.45-1,.7-1.46a.58.58,0,0,0-.09-.64.49.49,0,0,0,0-.27c-.06-.59-.17-1.18-.25-1.77s-.15-1.2-.23-1.8-.17-1.17-.25-1.76-.14-1.13-.22-1.7c-.17-1.22-.39-2.42-.56-3.63s-.3-2.39-.43-3.59c-.06-.56-.12-1.12-.17-1.68s-.08-1.17-.1-1.75-.06-1.3-.08-2,0-1.12,0-1.68-.06-1.12-.11-1.68-.11-1.12-.18-1.68-.14-1.08-.2-1.62-.15-1.25-.25-1.87a.59.59,0,0,0-.18-.38.45.45,0,0,0-.23-.11.29.29,0,0,0-.07-.16l-1.56-1.86c-.48-.56-1-1.1-1.48-1.64s-.67-.84-1-1.25l-1.14-1.39q-1.12-1.43-2.34-2.79c-.39-.45-.81-.88-1.24-1.3L52.78,44c-.22-.22-.44-.43-.67-.63s-.44-.38-.66-.56-.48-.36-.71-.55-.45-.4-.67-.6-.38-.38-.58-.56l-.67-.61c-.43-.4-.83-.82-1.25-1.23L46.28,38,45,36.77l-1.26-1.26c-.41-.39-.8-.8-1.21-1.19-.22-.21-.44-.41-.67-.59l-.69-.54-1.43-1.08c-.23-.17-.46-.35-.67-.54s-.39-.39-.58-.59c0,0,0,0,0,0l0-.06,0,0c-.31-.38-.59-.77-.93-1.13s-.66-.69-1-1a9.52,9.52,0,0,1-.84-1.32,10.33,10.33,0,0,1-.45-1.21c-.13-.42-.24-.83-.33-1.25,0-.25-.08-.51-.1-.76a4.93,4.93,0,0,1,0-.77A7.68,7.68,0,0,1,35.05,22a4.71,4.71,0,0,1,.21-.52,4.25,4.25,0,0,1,.27-.46,7.45,7.45,0,0,1,.91-1,4.59,4.59,0,0,1,.51-.35l.37-.14a3.39,3.39,0,0,1,.43-.11c.48-.09,1-.12,1.44-.18l.72-.05c.23,0,.46,0,.69,0a5,5,0,0,1,.83.19,8.43,8.43,0,0,1,1.06.48,9.27,9.27,0,0,1,1,.62c.23.17.46.34.67.53l.64.57,1.33,1.21c.44.4.9.77,1.34,1.16L48.75,25c.44.38.9.76,1.32,1.17s.83.82,1.26,1.21l1.35,1.22c.43.38.88.73,1.28,1.14s.8.88,1.22,1.31.89.81,1.32,1.23l.64.64.63.57a16.15,16.15,0,0,0,1.35,1.13c.47.33.94.66,1.4,1a16.26,16.26,0,0,1,1.39,1.09l1.3,1.21c.44.39.88.77,1.32,1.17s.85.77,1.24,1.19.77.84,1.2,1.22c.22.19.43.38.66.56l.21.15h0a.53.53,0,0,0,.27.3l.28.1.53.41.31.26a2.55,2.55,0,0,1,.31-.24l.39.13.76.23a5.53,5.53,0,0,0,.81.16c.28,0,.55.12.83.15a5.69,5.69,0,0,0,1,0c.58,0,1.16-.09,1.74-.14,1.18-.12,2.35-.25,3.52-.41l3.33-.46.76-.12c.29,0,.58-.1.87-.17a3.94,3.94,0,0,0,.63-.22,8.25,8.25,0,0,0,.89-.45.51.51,0,0,0,.24-.38c.31-.2.6-.41.9-.63.47-.34.93-.71,1.39-1.08s.92-.82,1.36-1.26.78-.85,1.15-1.3.76-1,1.13-1.45c.7-.94,1.44-1.84,2.16-2.77s1.45-1.86,2.14-2.82,1.43-2,2.18-2.92c.37-.47.75-.93,1.11-1.41L100,24.29c.37-.48.76-.95,1.16-1.41s.8-.88,1.21-1.32a16.68,16.68,0,0,0,1.06-1.3c.36-.49.71-1,1.09-1.46s.74-.9,1.12-1.35a11.17,11.17,0,0,1,1.17-1.31l.28-.25a14.7,14.7,0,0,1,2.11-1.5,5.2,5.2,0,0,1,.55-.21,4.87,4.87,0,0,1,.52-.12,8.19,8.19,0,0,1,1.56-.17,2.29,2.29,0,0,1,.44.09,9.19,9.19,0,0,1,1.32.69,2.29,2.29,0,0,1,.23.21,7.8,7.8,0,0,1,.5.77l.36.68,0,.05h0c.09.21.18.42.25.63s.14.49.2.74,0,.33.08.49a5.43,5.43,0,0,1,0,.9,6.41,6.41,0,0,1-.28,1.3,14.7,14.7,0,0,1-1,2c-.34.59-.71,1.17-1.08,1.73s-.68.92-1,1.36l-1.12,1.28c-.4.47-.79.94-1.2,1.4s-.8.9-1.19,1.37c-.77.93-1.47,1.91-2.2,2.87l-2.19,2.86c-.73.93-1.49,1.83-2.22,2.76s-1.41,1.95-2.11,2.93c-.55.76-1.11,1.53-1.69,2.27L97,44.43c-.29.36-.56.75-.83,1.13a.35.35,0,0,1-.05.08l0,0-.92,1.42c-.31.44-.62.88-1,1.31s-.74.9-1.1,1.35-.71,1-1,1.44a9,9,0,0,0-.76,1.44c-.15.34-.28.7-.41,1s-.14.41-.2.61,0,.11,0,.16a.55.55,0,0,0-.34.54c0,1.24,0,2.48.11,3.73s.08,2.35.12,3.52.13,2.39.15,3.59c0,.58,0,1.15,0,1.73s0,1.23,0,1.85,0,1.13,0,1.69-.09,1.19-.12,1.78,0,1.21-.06,1.82,0,1.15,0,1.73c0,.85-.09,1.69-.1,2.54,0,.38,0,.76,0,1.14a.66.66,0,0,0,0,.14c0,.2,0,.41.06.61s0,.21,0,.32,0,.26.09.39.11.25.17.38h0a.47.47,0,0,0,0,.2c.1.31.21.62.34.92s.27.6.42.9c.25.52.52,1,.78,1.55l.83,1.71c.28.56.59,1.11.91,1.64s.63,1.05,1,1.57.65.94,1,1.42.68,1,1,1.57.58,1.07.88,1.6a31,31,0,0,0,2,3.08c.37.5.73,1,1.06,1.52s.66,1.06,1,1.6.61,1,.91,1.53.54,1,.82,1.52.66,1.24,1,1.87c.16.32.3.63.44,1a6.94,6.94,0,0,1,.31,1c0,.21.06.42.07.64s0,.43,0,.65c-.06.57-.14,1.13-.21,1.7,0,.29-.07.59-.11.88s-.1.63-.17.94c-.12.57-.28,1.14-.43,1.7s-.31,1.22-.45,1.83a29.56,29.56,0,0,0-.53,3.5c-.13,1.2-.3,2.39-.48,3.59s-.33,2.4-.57,3.59c-.11.6-.25,1.2-.34,1.8s-.14,1.18-.22,1.77-.14,1.07-.24,1.6a5.19,5.19,0,0,1-.17.76c-.07.27-.16.54-.25.81-.15.43-.31.85-.5,1.26-.12.26-.24.5-.38.75s-.24.4-.37.59a6,6,0,0,1-.38.5,6.14,6.14,0,0,1-.43.45,3.22,3.22,0,0,1-.39.25A3.82,3.82,0,0,1,98,138a4.48,4.48,0,0,1-1,.07,4,4,0,0,1-.68-.16A12.08,12.08,0,0,1,94,136.73a4.3,4.3,0,0,1-.61-.52l0-.06-.3-.4c-.12-.18-.23-.37-.34-.56a5.4,5.4,0,0,1-.25-.67c-.06-.21-.11-.44-.15-.65-.19-1.21-.25-2.42-.32-3.63s-.17-2.4-.23-3.59c0-.6,0-1.2-.07-1.79s0-1.24,0-1.86,0-1.12,0-1.69.05-1.22.07-1.83,0-1.11,0-1.67.06-1.11.1-1.67.11-1.14.21-1.71.21-1.18.28-1.78a7.63,7.63,0,0,0,0-1.85,8.22,8.22,0,0,0-.52-1.8,11.13,11.13,0,0,0-.84-1.65c-.32-.54-.66-1.06-1-1.57s-.72-1-1.1-1.42-.71-.93-1.08-1.38c-.24-.27-.48-.55-.73-.81l-.58-.6c-.44-.45-.88-.91-1.33-1.35-.2-.2-.4-.4-.59-.61L84,99c-.41-.43-.84-.84-1.28-1.23l-1-.86c-.31-.28-.61-.59-.93-.87a6.12,6.12,0,0,0-.49-.4l0,0-.07,0-.2-.13-.18-.13-.71-.47a.56.56,0,0,0-.42,0,.59.59,0,0,0-.32.28.45.45,0,0,0-.06.28.4.4,0,0,0,0,.15.52.52,0,0,0,.21.27,23.81,23.81,0,0,0-1.06,2.43c-.3.87-.54,1.76-.83,2.63-.19.51-.4,1-.59,1.53s-.42,1.15-.62,1.73c-.38,1.11-.71,2.24-1.1,3.35-.07.22-.16.44-.23.66l-.05.14A23.41,23.41,0,0,1,72.92,111c-.24.48-.51.94-.78,1.41s-.53.9-.82,1.33c-.13.18-.26.35-.4.51a4.83,4.83,0,0,1-.38.4,11.29,11.29,0,0,1-1.93,1.27c-.39.18-.78.34-1.18.48a11.57,11.57,0,0,1-1.43.38c-.43.09-.87.16-1.3.23s-1,.22-1.55.36-.92.28-1.38.44l-.69.23c-.22.06-.43.11-.65.15l-.83.12c-.3,0-.6,0-.9.06-.59,0-1.18,0-1.76,0s-1.17,0-1.76,0l-1.79.12c-1.21.08-2.42.16-3.63.17q-.84,0-1.68,0c-.59,0-1.17-.06-1.76-.09s-1.12,0-1.68-.08c-.38,0-.76-.08-1.13-.12s-.82-.08-1.22-.14-.78-.12-1.17-.19l-.62-.12a5.44,5.44,0,0,1-.54-.15l-.62-.25c-.24-.1-.48-.23-.71-.34a12.74,12.74,0,0,1-1.46-.78,4.36,4.36,0,0,1-.68-.61,4.77,4.77,0,0,1-.6-.93,4.29,4.29,0,0,1-.19-.54,4,4,0,0,1,0-.69,9.42,9.42,0,0,1,.32-1.51,8,8,0,0,1,.73-1.39l.36-.47a3.88,3.88,0,0,1,.39-.42,5,5,0,0,1,.46-.34,5.64,5.64,0,0,1,.53-.31c.22-.11.44-.2.66-.3a6.75,6.75,0,0,1,.76-.25c.47-.14,1-.26,1.43-.36h.1L43,108c.58-.08,1.15-.14,1.73-.18a15.92,15.92,0,0,1,1.69-.07l1.74.06c.6,0,1.2,0,1.79,0l1.66-.07c1.14-.06,2.27-.22,3.4-.34.64-.06,1.28-.14,1.92-.25.35-.07.71-.14,1.06-.23l.46-.13c.23-.08.44-.18.65-.27a.63.63,0,0,0,.32-.28.43.43,0,0,0,.05-.16S59.51,106.11,59.52,106.12Z"/><path class="cls-2" d="M90.85,82a.55.55,0,0,1,.37-.49.56.56,0,0,1,.7.35v0a.73.73,0,0,1-.06.21.61.61,0,0,1-.32.27.58.58,0,0,1-.43,0,.57.57,0,0,1-.27-.32Z"/><path class="cls-2" d="M90.47,55l.18-.55a.58.58,0,0,1,.18,0,.56.56,0,0,1,.59.52c0,.18,0,.36,0,.55a.52.52,0,0,1-.11.1.56.56,0,0,1-.77-.15A.59.59,0,0,1,90.47,55Z"/><path class="cls-2" d="M90.55,76.43c0-.58,0-1.15,0-1.73s0-1.21.06-1.82.08-1.18.12-1.78,0-1.13,0-1.69,0-1.24,0-1.85,0-1.15,0-1.73c0-1.2-.1-2.39-.15-3.59s-.07-2.35-.12-3.52-.07-2.49-.11-3.73a.55.55,0,0,1,.34-.54l-.18.55a.59.59,0,0,0,.08.43.56.56,0,0,0,.77.15.52.52,0,0,0,.11-.1l.06,2.23c0,.86.08,1.72.1,2.57,0,.59,0,1.18.06,1.77s0,1.14.07,1.71.06,1.16.07,1.74l0,1.86c0,.57,0,1.15.05,1.72s0,1.21,0,1.81-.08,1.18-.12,1.77-.06,1.14-.06,1.71,0,1.21,0,1.81,0,1.15-.07,1.73,0,1.09,0,1.63A9.26,9.26,0,0,0,91.68,81a3.14,3.14,0,0,0,.22.58.41.41,0,0,1,0,.22v0a.56.56,0,0,0-.7-.35.55.55,0,0,0-.37.49c-.06-.13-.12-.24-.17-.38s-.06-.26-.09-.39,0-.22,0-.32-.05-.41-.06-.61a.66.66,0,0,1,0-.14c0-.38,0-.76,0-1.14C90.46,78.12,90.53,77.28,90.55,76.43Z"/><path class="cls-2" d="M83.71,41.11c.44-.25.86-.53,1.27-.81.8-.56,1.57-1.16,2.31-1.79.43-.39.85-.8,1.24-1.23s.8-.9,1.16-1.38.7-.93,1-1.38L91.9,33c.74-.92,1.46-1.86,2.17-2.8s1.37-1.93,2.09-2.86,1.52-1.9,2.24-2.87,1.48-1.92,2.3-2.82c.38-.42.8-.84,1.16-1.28s.72-.92,1.07-1.39.73-1,1.12-1.45.73-.87,1.09-1.3c.2-.23.39-.46.61-.67a9.35,9.35,0,0,1,.73-.67c.48-.39,1-.76,1.48-1.11a5.88,5.88,0,0,1,.77-.44,4,4,0,0,1,.81-.3c.31-.07.63-.13.95-.18a8.08,8.08,0,0,1,.86-.11,3,3,0,0,1,1,.07,3.85,3.85,0,0,1,.57.2c.27.13.53.27.79.41s.26.15.38.24a2.49,2.49,0,0,1,.71.66c.15.23.3.47.44.71s.32.59.46.89a6.32,6.32,0,0,1,.32.82c.09.33.17.67.23,1a4.88,4.88,0,0,1,.11,1,5.13,5.13,0,0,1-.11,1.1,4,4,0,0,1-.16.66,8.89,8.89,0,0,1-.49,1.2c-.26.52-.55,1-.85,1.53a20.84,20.84,0,0,1-2.07,2.95l-1.14,1.31-1.17,1.37c-.4.46-.81.91-1.2,1.38s-.78,1-1.16,1.49l-2.1,2.76-1.16,1.51c-.34.44-.7.88-1.06,1.32l-1.13,1.41c-.38.49-.74,1-1.09,1.48-.68,1-1.36,1.91-2,2.85-.36.48-.73,1-1.11,1.43s-.74.92-1.08,1.39l-.17.25-.92,1.41c-.32.48-.66,1-1,1.42s-.65.8-1,1.2-.61.78-.89,1.18a11.8,11.8,0,0,0-.76,1.29c-.22.47-.4,1-.58,1.44s-.23.73-.35,1.1a.7.7,0,0,1-.13.24c0-.19,0-.37,0-.55a.56.56,0,0,0-.59-.52.58.58,0,0,0-.18,0c0-.05,0-.11,0-.16s.12-.41.2-.61.26-.7.41-1a9,9,0,0,1,.76-1.44c.32-.49.66-1,1-1.44s.74-.89,1.1-1.35.64-.87,1-1.31l.92-1.42,0,0a.35.35,0,0,0,.05-.08c.27-.38.54-.77.83-1.13l.91-1.13c.58-.74,1.14-1.51,1.69-2.27.7-1,1.37-2,2.11-2.93s1.49-1.83,2.22-2.76l2.19-2.86c.73-1,1.43-1.94,2.2-2.87.39-.47.8-.92,1.19-1.37s.8-.93,1.2-1.4l1.12-1.28c.37-.44.72-.89,1-1.36s.74-1.14,1.08-1.73a14.7,14.7,0,0,0,1-2,6.41,6.41,0,0,0,.28-1.3,5.43,5.43,0,0,0,0-.9c0-.16,0-.33-.08-.49s-.12-.5-.2-.74-.16-.42-.25-.63h0l0-.05-.36-.68a7.8,7.8,0,0,0-.5-.77,2.29,2.29,0,0,0-.23-.21,9.19,9.19,0,0,0-1.32-.69,2.29,2.29,0,0,0-.44-.09,8.19,8.19,0,0,0-1.56.17,4.87,4.87,0,0,0-.52.12,5.2,5.2,0,0,0-.55.21,14.7,14.7,0,0,0-2.11,1.5l-.28.25a11.17,11.17,0,0,0-1.17,1.31c-.38.45-.76.89-1.12,1.35s-.73,1-1.09,1.46a16.68,16.68,0,0,1-1.06,1.3c-.41.44-.82.87-1.21,1.32s-.79.93-1.16,1.41l-1.12,1.47c-.36.48-.74.94-1.11,1.41-.75,1-1.48,1.93-2.18,2.92S94.13,32,93.41,32.91,92,34.74,91.25,35.68c-.37.49-.74,1-1.13,1.45s-.75.89-1.15,1.3-.89.86-1.36,1.26-.92.74-1.39,1.08c-.3.22-.59.43-.9.63a.58.58,0,0,0-.08-.39.56.56,0,0,0-.77-.15l-.38.21a5.58,5.58,0,0,1-.94.34C83.34,41.32,83.53,41.21,83.71,41.11Z"/><path class="cls-2" d="M83.26,41.8a5.89,5.89,0,0,0-1.61.35l.72-.33.78-.41a5.58,5.58,0,0,0,.94-.34l.38-.21a.56.56,0,0,1,.77.15.58.58,0,0,1,.08.39l-.57.38-.3.18A4.56,4.56,0,0,0,83.26,41.8Z"/><path class="cls-2" d="M79.3,96.22l-.66-.44-.06,0c0-.1.09-.19.13-.29a.55.55,0,0,1,.74-.25.56.56,0,0,1,.24.75c-.06.14-.13.27-.19.41l-.1-.07Z"/><path class="cls-2" d="M79.14,94.79l.71.47.18.13.2.13.07,0,0,0a6.12,6.12,0,0,1,.49.4c.32.28.62.59.93.87l1,.86c.44.39.87.8,1.28,1.23l.6.66c.19.21.39.41.59.61.45.44.89.9,1.33,1.35l.58.6c.25.26.49.54.73.81.37.45.71.93,1.08,1.38s.75.93,1.1,1.42.71,1,1,1.57a11.13,11.13,0,0,1,.84,1.65,8.22,8.22,0,0,1,.52,1.8,7.63,7.63,0,0,1,0,1.85c-.07.6-.18,1.19-.28,1.78s-.16,1.14-.21,1.71-.09,1.12-.1,1.67,0,1.11,0,1.67-.06,1.22-.07,1.83,0,1.13,0,1.69,0,1.24,0,1.86,0,1.19.07,1.79c.06,1.19.15,2.39.23,3.59s.13,2.42.32,3.63c0,.21.09.44.15.65a5.4,5.4,0,0,0,.25.67c.11.19.22.38.34.56l.3.4,0,.06a4.3,4.3,0,0,0,.61.52,12.08,12.08,0,0,0,2.38,1.13,4,4,0,0,0,.68.16,4.48,4.48,0,0,0,1-.07,3.82,3.82,0,0,0,.83-.26,3.22,3.22,0,0,0,.39-.25,6.14,6.14,0,0,0,.43-.45,6,6,0,0,0,.38-.5c.13-.19.26-.39.37-.59s.26-.49.38-.75c.19-.41.35-.83.5-1.26.09-.27.18-.54.25-.81a5.19,5.19,0,0,0,.17-.76c.1-.53.17-1.06.24-1.6s.13-1.18.22-1.77.23-1.2.34-1.8c.24-1.19.38-2.39.57-3.59s.35-2.39.48-3.59a29.56,29.56,0,0,1,.53-3.5c.14-.61.3-1.22.45-1.83s.31-1.13.43-1.7c.07-.31.12-.62.17-.94s.07-.59.11-.88c.07-.57.15-1.13.21-1.7,0-.22,0-.43,0-.65s0-.43-.07-.64a6.94,6.94,0,0,0-.31-1c-.14-.33-.28-.64-.44-1-.31-.63-.63-1.25-1-1.87s-.54-1-.82-1.52-.61-1-.91-1.53-.64-1.08-1-1.6-.69-1-1.06-1.52A31,31,0,0,1,98,95c-.3-.53-.58-1.07-.88-1.6s-.64-1.06-1-1.57-.66-.94-1-1.42-.66-1-1-1.57-.63-1.08-.91-1.64l-.83-1.71c-.26-.52-.53-1-.78-1.55q-.22-.45-.42-.9c-.13-.3-.24-.61-.34-.92a.47.47,0,0,1,0-.2.57.57,0,0,0,.27.32.58.58,0,0,0,.43,0,.61.61,0,0,0,.32-.27.73.73,0,0,0,.06-.21c.06.21.14.43.22.63s.11.28.17.41.25.54.38.81c.47.92.92,1.84,1.37,2.76l.23.45c.27.54.58,1.07.89,1.59s.61,1,.94,1.5.71,1,1.06,1.54.66,1.06,1,1.6.58,1.06.88,1.59.62,1,.95,1.56.7,1,1.07,1.52.69,1,1,1.46.62,1,.93,1.54.64,1,.94,1.59.53,1,.81,1.51.57,1.09.85,1.64a11.94,11.94,0,0,1,.75,1.72,6.85,6.85,0,0,1,.22,1,9.28,9.28,0,0,1,0,.86c0,.34,0,.69-.09,1s-.08.56-.11.83c-.09.61-.14,1.22-.25,1.82-.05.28-.12.55-.18.82s-.16.6-.23.91c-.16.59-.31,1.19-.46,1.78a26.8,26.8,0,0,0-.58,3.55c-.13,1.19-.28,2.39-.47,3.57-.09.61-.19,1.22-.28,1.84s-.16,1.17-.27,1.75-.24,1.2-.35,1.8-.16,1.18-.23,1.76-.16,1.24-.26,1.86a11.28,11.28,0,0,1-.5,1.81c-.1.28-.2.56-.31.83s-.21.53-.33.79a11.14,11.14,0,0,1-1,1.65,4.7,4.7,0,0,1-.61.65,3,3,0,0,1-.43.35,3.44,3.44,0,0,1-.78.35,6.19,6.19,0,0,1-1,.21,3.62,3.62,0,0,1-1.09,0,6,6,0,0,1-1.23-.37c-.28-.11-.56-.23-.83-.36a8.43,8.43,0,0,1-.8-.39,7,7,0,0,1-.81-.52,3.64,3.64,0,0,1-.63-.61l-.25-.32a5.79,5.79,0,0,1-.49-.79,5.67,5.67,0,0,1-.56-1.85c-.18-1.09-.24-2.2-.31-3.3,0-.12,0-.24,0-.36-.07-1.21-.16-2.42-.22-3.63,0-.58,0-1.16-.07-1.74s0-1.24,0-1.86,0-1.18,0-1.77,0-1.18.06-1.76,0-1.22,0-1.83.08-1.31.14-2,.14-1.17.24-1.76.19-1.11.25-1.68c0-.26,0-.52,0-.79a4,4,0,0,0-.07-.69,9.42,9.42,0,0,0-.64-1.85,19,19,0,0,0-1.78-2.84c-.36-.47-.73-.93-1.1-1.39-.18-.22-.35-.46-.53-.68l-.47-.57c-.22-.25-.46-.49-.69-.74s-.51-.53-.77-.8c-.52-.53-1-1-1.56-1.58-.19-.22-.39-.44-.59-.65s-.43-.42-.64-.63c-.41-.38-.84-.75-1.26-1.13s-.83-.77-1.26-1.15a3.26,3.26,0,0,0-.36-.29h0l-.08-.06,0,0c.06-.14.13-.27.19-.41a.56.56,0,0,0-.24-.75.55.55,0,0,0-.74.25c0,.1-.09.19-.13.29a.52.52,0,0,1-.21-.27.4.4,0,0,1,0-.15A.45.45,0,0,1,78.4,95a.59.59,0,0,1,.32-.28A.56.56,0,0,1,79.14,94.79Z"/><path class="cls-2" d="M70.24,42.69l-.51-.43c-.26-.21-.52-.4-.79-.6l.91.34.7.22c.22.06.44.14.67.18l.72.13c.23,0,.47.09.71.12a13.73,13.73,0,0,0,1.81-.1l1.84-.19c.58-.06,1.15-.12,1.73-.2l1.71-.23c.58-.08,1.15-.17,1.73-.24s1-.15,1.55-.24l.13,0-.78.41-.72.33a5.89,5.89,0,0,1,1.61-.35,4.56,4.56,0,0,1,1.19.16l.3-.18.57-.38a.51.51,0,0,1-.24.38,8.25,8.25,0,0,1-.89.45,3.94,3.94,0,0,1-.63.22c-.29.07-.58.12-.87.17l-.76.12-3.33.46c-1.17.16-2.34.29-3.52.41-.58,0-1.16.12-1.74.14a5.69,5.69,0,0,1-1,0c-.28,0-.55-.1-.83-.15a5.53,5.53,0,0,1-.81-.16l-.76-.23-.39-.13,0,0Z"/><path class="cls-2" d="M69.54,43.05a2.55,2.55,0,0,0-.31.24L68.92,43l-.53-.41C68.77,42.77,69.16,42.92,69.54,43.05Z"/><path class="cls-2" d="M67.84,42.22l.44.32.11.08-.28-.1A.53.53,0,0,1,67.84,42.22Z"/><path class="cls-2" d="M67.87,41.78a.53.53,0,0,1,.32-.27.54.54,0,0,1,.43,0l.32.12c.27.2.53.39.79.6l.51.43-.65.32,0,0c-.38-.13-.77-.28-1.15-.43l-.11-.08-.44-.32h0a.4.4,0,0,1,0-.15A.71.71,0,0,1,67.87,41.78Z"/><path class="cls-2" d="M66.34,84.53a.57.57,0,0,1-.47.32.53.53,0,0,1-.43-.19.56.56,0,0,1,.75-.24A.83.83,0,0,1,66.34,84.53Z"/><path class="cls-2" d="M62.25,56.3h0a.59.59,0,0,0,0-.13v0a.55.55,0,0,1,.14-.37.57.57,0,0,1,.39-.18.34.34,0,0,1,.17,0,.46.46,0,0,1,0,.26.56.56,0,0,1-.23.35A.59.59,0,0,1,62.25,56.3Z"/><path class="cls-2" d="M62.22,56.29h0a.59.59,0,0,0,.43-.08.56.56,0,0,0,.23-.35.46.46,0,0,0,0-.26.45.45,0,0,1,.23.11.59.59,0,0,1,.18.38c.1.62.17,1.24.25,1.87s.14,1.08.2,1.62.13,1.12.18,1.68.08,1.12.11,1.68,0,1.12,0,1.68.05,1.3.08,2,.06,1.17.1,1.75.11,1.12.17,1.68c.13,1.2.27,2.39.43,3.59s.39,2.41.56,3.63c.08.57.14,1.14.22,1.7s.17,1.17.25,1.76.15,1.2.23,1.8.19,1.18.25,1.77a.49.49,0,0,1,0,.27.83.83,0,0,0-.15-.11.56.56,0,0,0-.75.24.59.59,0,0,1-.15-.34c-.07-.56-.17-1.11-.24-1.67s-.13-1.09-.21-1.63c-.15-1.1-.31-2.2-.45-3.31s-.37-2.31-.53-3.47-.32-2.38-.45-3.57-.26-2.43-.32-3.65S63,64.59,63,63.38s-.14-2.38-.28-3.56c-.08-.59-.15-1.18-.22-1.77S62.32,56.88,62.22,56.29Z"/><path class="cls-2" d="M61.62,27.81a14.93,14.93,0,0,0,1.13,3.38l0,.07a14.35,14.35,0,0,0,1.88,2.83,14,14,0,0,0,2.57,2.29h0A14.08,14.08,0,0,0,70.36,38h0a13.38,13.38,0,0,0,7,.54h.06a13.35,13.35,0,0,0,6.28-3.05,14.05,14.05,0,0,0,2.3-2.57h0l0-.06a14.25,14.25,0,0,0,1.54-3,14.44,14.44,0,0,0,.77-3.55h0a14.33,14.33,0,0,0-.22-3.64,14.06,14.06,0,0,0-1.15-3.4,13.73,13.73,0,0,0-1.94-2.9,14,14,0,0,0-2.57-2.28A13.48,13.48,0,0,0,76,11.73h-.08a15,15,0,0,0-3.47.2h-.1a14.3,14.3,0,0,0-3.43,1.16,14.86,14.86,0,0,0-1.76,1.05A13.13,13.13,0,0,0,66,15a14.11,14.11,0,0,0-2.3,2.58,14.71,14.71,0,0,0-1.56,3.06,14.57,14.57,0,0,0-.76,3.51,14.63,14.63,0,0,0,.2,3.56v0S61.62,27.79,61.62,27.81Zm-1-1.74a14.37,14.37,0,0,1,1.59-7.45,14.51,14.51,0,0,1,2.22-3.16,15.87,15.87,0,0,1,1.77-1.61l0,0,.51-.38.62-.41,0,0a14.37,14.37,0,0,1,13-1.1,14.64,14.64,0,0,1,5.83,4.34,14.38,14.38,0,1,1-25.56,10C60.58,26.18,60.57,26.13,60.57,26.07Z"/><path class="cls-2" d="M60.12,103.54c.14-.4.28-.81.4-1.22s.21-.82.31-1.23c.23-.89.5-1.77.74-2.65.31-1.13.5-2.29.74-3.43.13-.6.25-1.19.37-1.79s.22-1.15.35-1.72c.26-1.14.58-2.27.95-3.37q.29-.85.63-1.68l.4-.93c.13-.29.28-.58.43-.86a.53.53,0,0,0,.43.19.57.57,0,0,0,.47-.32.58.58,0,0,1,.09.64c-.25.48-.49,1-.7,1.46s-.37.93-.55,1.4c0,0,0,0,0,0A34.44,34.44,0,0,0,64,92.21c-.12.56-.22,1.12-.33,1.69s-.25,1.19-.38,1.79c-.24,1.14-.45,2.29-.77,3.42-.16.57-.33,1.14-.49,1.72s-.27,1.12-.43,1.68-.37,1.18-.58,1.75c-.1.27-.2.53-.31.79a5.63,5.63,0,0,1-.46.83.63.63,0,0,1-.31.27.53.53,0,0,1-.43,0s0,0,0,0a.5.5,0,0,0,0-.27.53.53,0,0,0-.25-.3.44.44,0,0,1,.05-.15,6.09,6.09,0,0,0,.53-1C59.91,104.12,60,103.83,60.12,103.54Z"/><path class="cls-2" d="M59.47,105.82a.5.5,0,0,1,0,.27.51.51,0,0,1-.25-.29s0-.1,0-.15a.57.57,0,0,1,0-.13A.53.53,0,0,1,59.47,105.82Z"/><path class="cls-2" d="M60.43,118.18c.22,0,.43-.09.65-.15l.69-.23c.46-.16.91-.32,1.38-.44s1-.27,1.55-.36.87-.14,1.3-.23a11.57,11.57,0,0,0,1.43-.38c.4-.14.79-.3,1.18-.48a11.29,11.29,0,0,0,1.93-1.27,4.83,4.83,0,0,0,.38-.4c.14-.16.27-.33.4-.51.29-.43.56-.88.82-1.33s.54-.93.78-1.41a23.41,23.41,0,0,0,1.18-2.78l.05-.14c.07-.22.16-.44.23-.66.39-1.11.72-2.24,1.1-3.35.2-.58.41-1.16.62-1.73s.4-1,.59-1.53c.29-.87.53-1.76.83-2.63a23.81,23.81,0,0,1,1.06-2.43l.06,0,.66.44.1.07.1.07c-.3.64-.6,1.29-.86,2-.29.84-.52,1.69-.8,2.52s-.66,1.76-1,2.64a0,0,0,0,0,0,0s0,0,0,.08c-.68,1.94-1.26,3.93-2,5.85-.2.52-.41,1-.65,1.54s-.53,1-.82,1.55-.57,1-.88,1.47c-.18.29-.38.57-.59.85a4.69,4.69,0,0,1-.58.6,6.73,6.73,0,0,1-.79.62c-.23.17-.47.32-.72.47a10.4,10.4,0,0,1-1.61.78c-.28.11-.57.21-.86.3a8.29,8.29,0,0,1-.86.21c-.57.12-1.15.22-1.72.31l-.26,0a14.5,14.5,0,0,0-1.6.43c-.58.19-1.15.4-1.74.56a9.94,9.94,0,0,1-1.88.29,16.83,16.83,0,0,1-1.74,0c-1.18,0-2.36,0-3.54.11s-2.43.17-3.65.2-2.29,0-3.44,0L45,119.63c-.6,0-1.19-.1-1.79-.16s-1.22-.14-1.83-.24l-.87-.16c-.29,0-.56-.13-.85-.21s-.35-.13-.52-.19l-.35-.16-.78-.37a7.59,7.59,0,0,1-2.16-1.36,4.88,4.88,0,0,1-.61-.75l-.24-.39a3.83,3.83,0,0,1-.43-1.14,3,3,0,0,1,0-.42,5.68,5.68,0,0,1,.21-1.69,4.45,4.45,0,0,1,.29-.94c.13-.28.27-.55.42-.82a6.85,6.85,0,0,1,.51-.77,4.62,4.62,0,0,1,.53-.64,6.13,6.13,0,0,1,.79-.64,6.6,6.6,0,0,1,.87-.47,8,8,0,0,1,.8-.34c.28-.11.56-.18.84-.26a17.8,17.8,0,0,1,1.76-.38l1.8-.26c.59-.07,1.18-.12,1.77-.17s1.12,0,1.68,0,1.15.06,1.73.06,1.13,0,1.7,0l1.72-.08c.57,0,1.14-.11,1.72-.18l1.65-.17q.81-.09,1.62-.24l.85-.19a6.4,6.4,0,0,0,1-.36.54.54,0,0,1,.43,0h0a.57.57,0,0,0,0,.13s0,.11,0,.15a.51.51,0,0,0,.25.29.43.43,0,0,1-.05.16.63.63,0,0,1-.32.28c-.21.09-.42.19-.65.27l-.46.13c-.35.09-.71.16-1.06.23-.64.11-1.28.19-1.92.25-1.13.12-2.26.28-3.4.34l-1.66.07c-.59,0-1.19,0-1.79,0l-1.74-.06a15.92,15.92,0,0,0-1.69.07c-.58,0-1.15.1-1.73.18l-1.62.24h-.1c-.48.1-1,.22-1.43.36a6.75,6.75,0,0,0-.76.25c-.22.1-.44.19-.66.3a5.64,5.64,0,0,0-.53.31,5,5,0,0,0-.46.34,3.88,3.88,0,0,0-.39.42l-.36.47a8,8,0,0,0-.73,1.39,9.42,9.42,0,0,0-.32,1.51,4,4,0,0,0,0,.69,4.29,4.29,0,0,0,.19.54,4.77,4.77,0,0,0,.6.93,4.36,4.36,0,0,0,.68.61,12.74,12.74,0,0,0,1.46.78c.23.11.47.24.71.34l.62.25a5.44,5.44,0,0,0,.54.15l.62.12c.39.07.78.14,1.17.19s.81.1,1.22.14.75.09,1.13.12c.56,0,1.12.06,1.68.08s1.17.07,1.76.09,1.12,0,1.68,0c1.21,0,2.42-.09,3.63-.17l1.79-.12c.59,0,1.17,0,1.76,0s1.17,0,1.76,0c.3,0,.6,0,.9-.06Z"/><path class="cls-2" d="M61.91,56.06l-1.55-1.84,0,0s0,0,0-.05c-.39-.45-.8-.89-1.2-1.33s-.78-.94-1.17-1.41L56.76,50c-.37-.46-.74-.92-1.12-1.37l-1-1.22,0,0-.06-.07q-.51-.57-1-1.11L52.19,45a16.61,16.61,0,0,0-1.32-1.2l-.71-.56-.65-.56L48.84,42l-.64-.58c-.44-.41-.87-.84-1.3-1.27s-.85-.82-1.28-1.23l-1.25-1.25c-.82-.83-1.66-1.65-2.49-2.47-.21-.2-.42-.4-.64-.58l-.67-.52-1.4-1.07a8.2,8.2,0,0,1-1.33-1.16c-.38-.44-.73-.89-1.1-1.33-.14-.14-.27-.29-.4-.43s-.42-.42-.61-.64a6.51,6.51,0,0,1-.6-.81A7,7,0,0,1,34.32,27a13.71,13.71,0,0,1-.47-1.63,7.83,7.83,0,0,1-.19-1.26,5.23,5.23,0,0,1,0-.56A8.54,8.54,0,0,1,34,21.77a4.92,4.92,0,0,1,.86-1.69l.57-.65a3.54,3.54,0,0,1,.69-.6,3.39,3.39,0,0,1,.9-.43,7.43,7.43,0,0,1,1-.21c.26,0,.53-.06.8-.09s.57-.07.86-.08a8.42,8.42,0,0,1,.87,0,3.92,3.92,0,0,1,.91.13c.17.05.33.09.49.15A10.19,10.19,0,0,1,45,20.18c.88.77,1.74,1.58,2.62,2.35s1.77,1.54,2.65,2.31c.45.38.86.8,1.28,1.21s.87.8,1.3,1.2.85.73,1.27,1.11c.23.2.45.41.67.63l.59.63c.21.23.41.45.63.67s.44.42.66.62c.45.39.85.82,1.28,1.23s.86.79,1.31,1.17.94.7,1.41,1,.94.67,1.4,1a16.91,16.91,0,0,1,1.26,1.13c.87.81,1.79,1.58,2.65,2.4.42.39.8.82,1.2,1.24a10,10,0,0,0,1.24,1.1l.54.41-.32-.12a.54.54,0,0,0-.43,0,.53.53,0,0,0-.32.27.71.71,0,0,0-.06.28.4.4,0,0,0,0,.15l-.21-.15c-.23-.18-.44-.37-.66-.56-.43-.38-.81-.8-1.2-1.22s-.82-.81-1.24-1.19-.88-.78-1.32-1.17l-1.3-1.21a16.26,16.26,0,0,0-1.39-1.09c-.46-.34-.93-.67-1.4-1a16.15,16.15,0,0,1-1.35-1.13l-.63-.57-.64-.64c-.43-.42-.9-.8-1.32-1.23s-.81-.88-1.22-1.31-.85-.76-1.28-1.14l-1.35-1.22c-.43-.39-.84-.81-1.26-1.21s-.88-.79-1.32-1.17l-1.28-1.12c-.44-.39-.9-.76-1.34-1.16L44.8,21.51l-.64-.57c-.21-.19-.44-.36-.67-.53a9.27,9.27,0,0,0-1-.62,8.43,8.43,0,0,0-1.06-.48,5,5,0,0,0-.83-.19c-.23,0-.46,0-.69,0l-.72.05c-.48.06-1,.09-1.44.18a3.39,3.39,0,0,0-.43.11l-.37.14a4.59,4.59,0,0,0-.51.35,7.45,7.45,0,0,0-.91,1,4.25,4.25,0,0,0-.27.46,4.71,4.71,0,0,0-.21.52,7.68,7.68,0,0,0-.27,1.43,4.93,4.93,0,0,0,0,.77c0,.25.06.51.1.76.09.42.2.83.33,1.25a10.33,10.33,0,0,0,.45,1.21,9.52,9.52,0,0,0,.84,1.32c.33.36.67.7,1,1s.62.75.93,1.13l0,0,0,.06s0,0,0,0c.19.2.38.4.58.59s.44.37.67.54l1.43,1.08.69.54c.23.18.45.38.67.59.41.39.8.8,1.21,1.19L45,36.77,46.28,38l1.29,1.24c.42.41.82.83,1.25,1.23l.67.61c.2.18.39.37.58.56s.44.41.67.6.47.36.71.55.45.36.66.56.45.41.67.63l1.27,1.21c.43.42.85.85,1.24,1.3q1.22,1.36,2.34,2.79l1.14,1.39c.35.41.67.84,1,1.25s1,1.08,1.48,1.64l1.56,1.86a.29.29,0,0,1,.07.16.34.34,0,0,0-.17,0,.57.57,0,0,0-.39.18.55.55,0,0,0-.14.37v0a.59.59,0,0,1,0,.13A.56.56,0,0,1,61.91,56.06Z"/></svg>