<svg id="organization" xmlns="http://www.w3.org/2000/svg" viewBox="0 0 150 150"><defs><style>.cls-1{fill:#f2f2f3;}.cls-2{fill:#d2d2d1;}.cls-3{fill:#7f8080;}.cls-4{fill:#414141;}</style></defs><title>organization</title><path class="cls-1" d="M136.52,62.19c.06.15.12.3.17.45a9.83,9.83,0,0,0-1.44.24,11.16,11.16,0,0,1-1.28.26c-1.15.14-2.3.19-3.45.24s-2.58.13-3.87.16c-.66,0-1.33,0-2,.05s-1.31.08-2,.13l-4,.24c-1.31.07-2.61.06-3.92.06s-2.64,0-4,.06c-2.65,0-5.31,0-8,0s-5.2-.1-7.8-.09c-1.34,0-2.68,0-4,0s-2.68,0-4,0-2.57,0-3.85-.09L81,63.81c-.65,0-1.31,0-2,0-1.32,0-2.63,0-4,0l-3.94.2-4.11.26c-1.26.08-2.52.08-3.78.13l-2.12.1c-.63,0-1.27,0-1.91,0-1.27,0-2.54.05-3.81.06h-4c-1.31,0-2.62,0-3.92,0s-2.65,0-4,0l-2,0-1.93.09c-1.28.08-2.57.1-3.86.14l-2,.05c-.63,0-1.26,0-1.88,0-1.33,0-2.66,0-4-.07l-2.05-.07c-.65,0-1.31,0-2,0-.87,0-1.73,0-2.6,0s-1.8,0-2.7-.06-1.78,0-2.67,0c-.46,0-.92,0-1.38.07l-1,.1a9.58,9.58,0,0,0-1.07.19l.09-.25c.11-.33.2-.68.28-1,.19-.71.37-1.42.57-2.13.4-1.39.76-2.79,1.25-4.16.17-.47.33-.95.52-1.42q.45-1,.87-2.1c.14-.33.28-.67.4-1s.25-.73.37-1.09c.47-1.43,1.1-2.81,1.6-4.23s1-2.85,1.44-4.29c.23-.72.45-1.46.67-2.19s.42-1.47.64-2.21.48-1.49.73-2.24.49-1.43.73-2.15c.48-1.45.95-2.89,1.42-4.34.18-.58.35-1.16.54-1.74s.39-1.19.6-1.78c.38-1.09.76-2.18,1.2-3.24.35-.79.73-1.55,1.15-2.3.58,0,1.16,0,1.74,0a11.6,11.6,0,0,0,1.32-.16l1.06-.18c.42-.05.84-.08,1.27-.1l1.38-.11c.46,0,.92-.08,1.38-.1s.91,0,1.36-.08l1.45-.11,1.43-.08,1.38-.1c.48,0,1-.06,1.44-.08,1-.05,2-.19,3-.28s2-.16,3-.19c2-.06,3.93,0,5.9,0s4,0,6,0,4.05,0,6.08.08,3.88,0,5.82,0,3.92,0,5.88,0c1,0,1.94-.1,2.92-.16s2-.11,3-.15c2-.08,4-.09,6-.14s3.95-.19,5.92-.09,3.91.17,5.87.2c1,0,2,0,3,0s2,.09,3,.14c1.88.1,3.77.11,5.65.12,1.12,0,2.24,0,3.36.06s2.19.09,3.29.21c.23.38.46.76.71,1.13a12,12,0,0,1,.77,1.3,12.83,12.83,0,0,0,.76,1.29,9.92,9.92,0,0,1,.61,1.22c.28.68.56,1.36.81,2s.51,1.44.74,2.17.46,1.51.66,2.28.39,1.49.62,2.22.51,1.44.78,2.16.51,1.45.77,2.17.5,1.46.71,2.2.36,1.47.58,2.19.4,1.34.59,2a16.29,16.29,0,0,0,.79,2c.33.78.65,1.55,1,2.32l.06.15h0c.26.64.5,1.28.73,1.93s.45,1.41.69,2.11.55,1.41.84,2.11.57,1.41.86,2.11c.16.39.34.78.51,1.18s.24.57.35.87.25.77.38,1.15C136,60.89,136.25,61.54,136.52,62.19ZM120.08,51.31a1.53,1.53,0,1,0,0-3.05c-1.14,0-2.28-.1-3.42-.14s-2.47,0-3.71,0c-2.51-.05-5,0-7.54-.07-1.27,0-2.54-.07-3.81-.05s-2.49.06-3.73.13-2.55.06-3.82,0c-.64,0-1.27-.07-1.9-.08s-1.29,0-1.94,0c-1.28,0-2.56,0-3.84,0s-2.58.08-3.87.12c-2.6.09-5.19.21-7.78.25s-5.24,0-7.86,0-5.11-.16-7.67-.19-5.37,0-8.06,0l-7.76,0c-2.53,0-5.06,0-7.59.09-1.23.06-2.47.08-3.71.14l-3.75.21c-.82.05-1.64.12-2.47.25a1.45,1.45,0,0,0-.91.7,1.59,1.59,0,0,0-.21.77,1.34,1.34,0,0,0,.06.4,1.51,1.51,0,0,0,.7.92l.36.15a1.63,1.63,0,0,0,.82,0l.21,0c1.24-.11,2.49-.18,3.74-.24s2.46-.12,3.69-.16,2.58-.11,3.86-.13,2.47,0,3.71,0l7.87,0h7.82c1.34,0,2.67,0,4,.06s2.51.1,3.77.12c2.63,0,5.25,0,7.88,0s5.16-.13,7.74-.21,5.11-.19,7.67-.2c1.29,0,2.59,0,3.89,0s2.62.13,3.93.12,2.44-.13,3.67-.16,2.52,0,3.79,0,2.5.06,3.75.07h3.83c1.25,0,2.49,0,3.74,0,.63,0,1.25,0,1.88,0l1.76.09Zm-1.26-10.45a1.5,1.5,0,0,0-.45-1.08,1.42,1.42,0,0,0-1.08-.45,9.29,9.29,0,0,1-1.75,0c-.59,0-1.19-.05-1.79-.05H110c-2.55,0-5.09-.23-7.64-.41-1.29-.08-2.59-.13-3.88-.15s-2.66-.07-4-.11c-2.53-.08-5.07-.2-7.6-.19-1.3,0-2.61,0-3.9.1s-2.6.22-3.9.3-2.6.08-3.91.12-2.6.07-3.9.09-2.54.06-3.81.1-2.59.16-3.88.19c-2.51.07-5,0-7.54,0-1.28,0-2.57,0-3.85-.07s-2.52-.1-3.78-.1-2.47,0-3.69.07-2.54.16-3.82.22c-.91.05-1.83.05-2.75,0H35.46c-1.94,0-3.88,0-5.81-.06a1.53,1.53,0,1,0,0,3.05c2.56,0,5.11.06,7.67.06,1.25,0,2.49,0,3.74,0s2.52-.15,3.78-.22,2.48-.07,3.72-.07,2.51.07,3.77.11c2.54.07,5.08.1,7.62.11,1.26,0,2.52,0,3.78,0s2.53-.14,3.79-.18c2.6-.1,5.21-.11,7.81-.2,1.27,0,2.54,0,3.81-.12s2.6-.21,3.9-.3c2.55-.15,5.12-.11,7.67,0s5.26.2,7.89.23,5.17.25,7.75.43c1.83.12,3.66.14,5.5.14.93,0,1.87,0,2.81,0a16.5,16.5,0,0,0,2.63,0l.41-.05a1.56,1.56,0,0,0,.67-.39A1.53,1.53,0,0,0,118.82,40.86ZM115,30.92a1.54,1.54,0,0,0-.55-2.09l-.36-.15a1.63,1.63,0,0,0-.82,0h0a29.59,29.59,0,0,1-3.26.1h-3.67c-1.22,0-2.44.08-3.66.08H98.84c-2.5,0-5,.19-7.51.19S86.16,29,83.58,29c-1.28,0-2.55,0-3.83,0l-3.69.06c-2.52,0-5,0-7.57-.08s-5.07,0-7.6.09c-1.26.07-2.52.11-3.79.17s-2.62.14-3.94.22-2.42.05-3.63.05-2.51,0-3.77.08c-.62,0-1.25.06-1.88.06l-1.72,0c-1.18,0-2.36,0-3.54,0-.76,0-1.51-.07-2.27-.09s-1.75,0-2.63,0a1.53,1.53,0,1,0,0,3c1.26,0,2.52,0,3.78,0s2.34.1,3.51.09l1.69,0,1.78,0c.61,0,1.22-.06,1.83-.08l1.9,0c1.27,0,2.54,0,3.81,0s2.5-.14,3.75-.21l4-.18c1.21,0,2.43-.13,3.64-.16s2.5-.07,3.75,0,2.55.11,3.83.13h3.8c1.24,0,2.48,0,3.73-.06L82.35,32c1.3,0,2.6,0,3.9,0,2.49,0,5,.13,7.46,0C95,32,96.32,32,97.63,32s2.5,0,3.74,0,2.51,0,3.77-.06,2.5,0,3.76,0a32.52,32.52,0,0,0,5.22-.21A1.43,1.43,0,0,0,115,30.92Z"/><path class="cls-2" d="M137.86,118.16a17,17,0,0,1,0,2.14c-.14.75-.32,1.5-.52,2.24-.11.42-.22.84-.36,1.26s-.24.69-.38,1a13.07,13.07,0,0,1-1.43,2.49c-.11.14-.23.27-.35.41l-.27.25h-.08l-.2,0a.8.8,0,0,0-.32.19l0,0-.3.22-.2.14a3.65,3.65,0,0,1-.61.34,5.9,5.9,0,0,1-.72.2l-.33.06c-1,.11-2.05.06-3.08.07s-2.34.09-3.52.11c-.56,0-1.11,0-1.67,0l-1.79.11c-1.21.09-2.42.13-3.64.14-.58,0-1.16,0-1.74,0l-1.73.11-1.76.06c-.57,0-1.14,0-1.71.09l-1.81.12-1.79.09c-1.15,0-2.3.1-3.45.22-.56.05-1.13.1-1.7.12l-1.7,0c-1.19,0-2.37,0-3.56,0q-3.59,0-7.15-.16c-1.15,0-2.3,0-3.45,0h-14c-1.17,0-2.34,0-3.5,0s-2.51.09-3.76.11-2.26,0-3.39,0-2.45-.12-3.67-.14-2.3,0-3.45,0c-2.33,0-4.67-.1-7-.11s-4.79,0-7.18,0l-3.54,0c-1.18,0-2.36.09-3.54.19-2,.17-4,.43-6.06.46-1,0-2.09,0-3.13,0s-2-.14-3-.26l-1.42-.21h0l-.32-.12-.78-.35a9.37,9.37,0,0,1-.85-.4c-.27-.15-.54-.33-.8-.51l-.72-.51a9.07,9.07,0,0,1-1.39-1.38c-.25-.33-.5-.68-.73-1-.13-.19-.26-.39-.38-.59a5.77,5.77,0,0,1-.27-.56,11.94,11.94,0,0,1-.54-1.79c-.14-.61-.24-1.22-.33-1.84a35.71,35.71,0,0,1-.31-4.39c0-1.51,0-3,0-4.53s0-3,0-4.53.07-3.12.07-4.69c0-3.1,0-6.2,0-9.31,0-.77,0-1.54,0-2.32s.07-1.57.13-2.36.15-1.47.19-2.2.09-1.56.1-2.35c0-1.58,0-3.17-.1-4.75-.05-.8-.11-1.59-.17-2.39s-.08-1.48-.13-2.21-.1-1.53-.17-2.3-.16-1.54-.19-2.31c-.07-1.34-.06-2.67,0-4a14.05,14.05,0,0,1,1.43-.32c.77-.09,1.55-.13,2.34-.17.63,0,1.26,0,1.9,0,1.32,0,2.65.09,4,.08s2.66,0,4,0,2.52.09,3.77.11c.71,0,1.42,0,2.12,0s1.25,0,1.87,0l4-.11,2-.08c.64,0,1.28-.07,1.92-.09,1.3,0,2.61,0,3.92,0s2.66,0,4,.07,2.63,0,3.95,0,2.54,0,3.82,0,2.63,0,3.94-.08l2-.09c.63,0,1.26,0,1.89-.06,1.3,0,2.59-.13,3.88-.21s2.75-.15,4.12-.23,2.72-.13,4.07-.15,2.6,0,3.9,0c.66,0,1.32,0,2,.07l1.82,0c1.32,0,2.64.06,4,.06s2.66,0,4,0,2.63,0,3.94,0l3.88.06q4,.06,8.07.08c1.3,0,2.6,0,3.9,0s2.64,0,4,0,2.69-.1,4-.17l2-.12c.66,0,1.31-.11,2-.14,1.08,0,2.16,0,3.23-.09l3.26-.14c.53,0,1.06-.06,1.58-.1s.92-.06,1.37-.11a14.17,14.17,0,0,0,1.45-.25l.56-.14c.21,0,.43-.08.64-.11l.26,0c.1,1.36.09,2.72.06,4.09,0,.78,0,1.56,0,2.35s0,1.48,0,2.21.05,1.55,0,2.32,0,1.55-.08,2.32c-.1,1.56-.21,3.13-.29,4.69s-.13,3.09-.11,4.63c0,.4,0,.79.05,1.18s.08.79.13,1.19c.08.75.14,1.51.2,2.26s.13,1.57.18,2.35.09,1.55.13,2.33.11,1.45.16,2.18.08,1.56.07,2.34,0,1.52,0,2.28,0,1.61,0,2.41c0,1.54,0,3.07-.06,4.6,0,1,0,2,0,3a14.4,14.4,0,0,0,.17,1.61c.08.48.17,1,.24,1.44C137.81,116.65,137.84,117.41,137.86,118.16Zm-33.71-15.24a2.15,2.15,0,0,0-2.14-2.13c-1,0-1.9-.06-2.84-.11s-2,0-3-.1l-1.2-.06a.46.46,0,0,0,0-.2c-.06-.69-.16-1.37-.2-2.06l-.12-2.32a1.27,1.27,0,0,0-.36-.87,1.22,1.22,0,0,0-.86-.36,1.25,1.25,0,0,0-1.23,1.17s0,0,0,.06c0,.77.07,1.54.12,2.32s.14,1.37.2,2.06a.17.17,0,0,0,0,.07c-1.12-.08-2.25-.15-3.38-.2-2.3-.07-4.59.2-6.89.32-1.11,0-2.22,0-3.33,0s-2.27.09-3.4.1-2.36,0-3.54,0c-.58,0-1.15.08-1.73.1s-1.1,0-1.65,0c-1.14,0-2.26-.12-3.4-.17s-2.34,0-3.51,0-2.13,0-3.19,0l-1.17,0a1,1,0,0,0-.1-.33,5,5,0,0,1-.16-.67,17.56,17.56,0,0,1,0-3.16,1.2,1.2,0,0,0-.36-.86,1.22,1.22,0,0,0-1.73,0,1.25,1.25,0,0,0-.35.86c-.05.64-.08,1.28-.08,1.92v.56c0,.43.08.86.14,1.29l.06.33c-.34,0-.68,0-1,0l-1.39.06c-1.09,0-2.17,0-3.25.08l-.57.08a2.09,2.09,0,0,0-.94.55,2.12,2.12,0,0,0,0,3,2.06,2.06,0,0,0,1.51.62c1.16-.12,2.32,0,3.47-.08.55,0,1.09-.06,1.64-.06s1.16,0,1.74,0c1.12,0,2.24.08,3.37.09s2.26,0,3.39,0,2.35,0,3.53.07,2.31.13,3.47.14c.56,0,1.1,0,1.66-.08s1.16,0,1.74,0c1.15,0,2.3,0,3.44,0s2.31-.08,3.46-.08h1.68c.57,0,1.13-.06,1.69-.1a50.24,50.24,0,0,1,6.94-.17l3.28.22c1,.06,2,.08,3,.13s1.92,0,2.88.09,1.7.09,2.55.09A2.16,2.16,0,0,0,104.15,102.92Z"/><path class="cls-3" d="M139.33,118.33a11.7,11.7,0,0,1-.08,2.29c-.12.69-.28,1.38-.46,2.06a19.2,19.2,0,0,1-.67,2.2,16.18,16.18,0,0,1-1.05,2.18,10.44,10.44,0,0,1-.58.89,5.58,5.58,0,0,1-.81.94c-.3.27-.63.52-1,.77a8.61,8.61,0,0,1-1,.68.77.77,0,0,1-.66,0l.34-.14a3.48,3.48,0,0,0,.76-.41c.28-.19.55-.4.82-.6a.73.73,0,0,0,.21-.52.76.76,0,0,0-.21-.52.69.69,0,0,0-.44-.2l.27-.25c.12-.14.24-.27.35-.41a13.07,13.07,0,0,0,1.43-2.49c.14-.34.27-.68.38-1s.25-.84.36-1.26c.2-.74.38-1.49.52-2.24a17,17,0,0,0,0-2.14c0-.75-.05-1.51-.13-2.25-.07-.49-.16-1-.24-1.44a14.4,14.4,0,0,1-.17-1.61c-.06-1,0-2,0-3,0-1.53.06-3.06.06-4.6,0-.8,0-1.6,0-2.41s0-1.52,0-2.28,0-1.56-.07-2.34-.12-1.46-.16-2.18-.07-1.55-.13-2.33-.12-1.56-.18-2.35-.12-1.51-.2-2.26c0-.4-.1-.79-.13-1.19s-.05-.78-.05-1.18c0-1.54,0-3.09.11-4.63s.19-3.13.29-4.69c0-.77.06-1.55.08-2.32s0-1.54,0-2.32,0-1.47,0-2.21,0-1.57,0-2.35c0-1.37,0-2.73-.06-4.09l.12,0a.74.74,0,0,0,.51-.21.76.76,0,0,0,.2-.36.57.57,0,0,0,.28-.08.72.72,0,0,0,.25-.24,1,1,0,0,1,.05.25,33.58,33.58,0,0,1,.12,4.37c0,.76,0,1.53,0,2.29s0,1.51,0,2.27.06,1.58.06,2.37,0,1.54-.07,2.31-.11,1.59-.15,2.38-.1,1.55-.14,2.32-.08,1.55-.1,2.32,0,1.56,0,2.34a18.91,18.91,0,0,0,.14,2.26c.09.79.16,1.58.22,2.37s.12,1.46.17,2.19.1,1.54.14,2.31c.08,1.56.26,3.12.26,4.68,0,.76,0,1.51,0,2.27s0,1.55,0,2.32c0,1.55,0,3.1-.05,4.65a34.45,34.45,0,0,0,.11,4.43c0,.34.12.69.18,1s.13.83.18,1.25.05.72.06,1.08S139.32,118,139.33,118.33Z"/><path class="cls-3" d="M137.86,61.63h0c.08.2.17.41.25.62l0,.12,0,0a.78.78,0,0,1,0,.77.65.65,0,0,0-.17-.27.69.69,0,0,0-.51-.21l-.18,0a.65.65,0,0,0-.38-.11l-.24,0c-.05-.15-.11-.3-.17-.45-.27-.65-.54-1.3-.77-2-.13-.38-.25-.77-.38-1.15s-.23-.58-.35-.87-.35-.79-.51-1.18c-.29-.7-.57-1.41-.86-2.11s-.6-1.39-.84-2.11-.45-1.41-.69-2.11-.47-1.29-.73-1.93h0l-.06-.15c-.33-.77-.65-1.54-1-2.32a16.29,16.29,0,0,1-.79-2c-.19-.67-.39-1.34-.59-2s-.38-1.46-.58-2.19-.45-1.47-.71-2.2-.5-1.45-.77-2.17-.56-1.43-.78-2.16-.42-1.48-.62-2.22-.43-1.52-.66-2.28-.47-1.45-.74-2.17-.53-1.36-.81-2a9.92,9.92,0,0,0-.61-1.22,12.83,12.83,0,0,1-.76-1.29,12,12,0,0,0-.77-1.3c-.25-.37-.48-.75-.71-1.13h.07a.7.7,0,0,0,.52-.22.74.74,0,0,0,.21-.51.76.76,0,0,0-.21-.52s0-.05-.08-.06a.72.72,0,0,1,.62.36l.68,1.08c.2.31.41.62.61.94s.34.65.51,1,.4.62.58.95a7.7,7.7,0,0,1,.53,1c.17.38.33.77.49,1.17.29.7.56,1.41.82,2.13s.46,1.42.67,2.14.44,1.51.64,2.27.41,1.5.67,2.23.55,1.46.81,2.2.52,1.47.77,2.2.44,1.4.63,2.11c.09.37.17.73.28,1.09s.22.77.33,1.15c.22.73.42,1.48.7,2.19L131.8,46l.41,1c.17.41.35.81.53,1.22.29.69.54,1.39.79,2.1s.45,1.4.69,2.1.55,1.41.84,2.11.54,1.34.82,2c.38.87.77,1.74,1.07,2.66S137.53,60.82,137.86,61.63Z"/><path class="cls-3" d="M138,62.91a.65.65,0,0,1,.17.27.72.72,0,0,1-.25.24.57.57,0,0,1-.28.08.88.88,0,0,0,0-.16.74.74,0,0,0-.22-.52l-.13-.1.18,0A.69.69,0,0,1,138,62.91Z"/><path class="cls-3" d="M137.66,63.34a.88.88,0,0,1,0,.16.69.69,0,0,1-.72-.35.61.61,0,0,1,0-.12l.1-.12a.64.64,0,0,1,.34-.19l.13.1A.74.74,0,0,1,137.66,63.34Z"/><path class="cls-3" d="M136.92,63.15a.69.69,0,0,0,.72.35.76.76,0,0,1-.2.36.74.74,0,0,1-.51.21l-.12,0-.06-.66a.67.67,0,0,1,.12-.4A.61.61,0,0,0,136.92,63.15Z"/><path class="cls-3" d="M136.93,62.61a.65.65,0,0,1,.38.11.64.64,0,0,0-.34.19l-.1.12c-.07-.12-.12-.26-.18-.39Z"/><path class="cls-3" d="M136.75,63.43l.06.66-.26,0c-.21,0-.43.06-.64.11l-.56.14a14.17,14.17,0,0,1-1.45.25c-.45,0-.91.08-1.37.11s-1.05.08-1.58.1l-3.26.14c-1.07,0-2.15,0-3.23.09-.66,0-1.31.09-2,.14l-2,.12c-1.35.07-2.69.16-4,.17s-2.64,0-4,0-2.6,0-3.9,0q-4,0-8.07-.08l-3.88-.06c-1.31,0-2.63,0-3.94,0s-2.67,0-4,0-2.64,0-4-.06l-1.82,0c-.66,0-1.32-.06-2-.07-1.3,0-2.6,0-3.9,0s-2.71.08-4.07.15-2.75.14-4.12.23-2.58.18-3.88.21c-.63,0-1.26,0-1.89.06l-2,.09c-1.31,0-2.63,0-3.94.08s-2.55,0-3.82,0-2.64,0-3.95,0-2.66-.07-4-.07-2.62,0-3.92,0c-.64,0-1.28.06-1.92.09l-2,.08-4,.11c-.62,0-1.24,0-1.87,0s-1.41,0-2.12,0c-1.25,0-2.51-.1-3.77-.11s-2.67,0-4,0-2.66,0-4-.08c-.64,0-1.27,0-1.9,0-.79,0-1.57.08-2.34.17a14.05,14.05,0,0,0-1.43.32l0-.87h0c.08-.24.17-.47.26-.71a9.58,9.58,0,0,1,1.07-.19l1-.1c.46,0,.92-.06,1.38-.07.89,0,1.78,0,2.67,0s1.8,0,2.7.06,1.73,0,2.6,0c.65,0,1.31,0,2,0l2.05.07c1.33.05,2.66.07,4,.07.62,0,1.25,0,1.88,0l2-.05c1.29,0,2.58-.06,3.86-.14l1.93-.09,2,0c1.32,0,2.64,0,4,0s2.61,0,3.92,0h4c1.27,0,2.54,0,3.81-.06.64,0,1.28,0,1.91,0l2.12-.1c1.26-.05,2.52-.05,3.78-.13L71.16,64l3.94-.2c1.32-.05,2.63-.05,4,0,.66,0,1.32,0,2,0l2.1.07c1.28,0,2.57.07,3.85.09s2.69,0,4,0,2.68,0,4,0c2.6,0,5.2,0,7.8.09s5.32,0,8,0c1.32,0,2.64-.06,4-.06s2.61,0,3.92-.06l4-.24c.65,0,1.3-.1,2-.13s1.33,0,2-.05c1.29,0,2.58-.1,3.87-.16s2.3-.1,3.45-.24a11.16,11.16,0,0,0,1.28-.26,9.83,9.83,0,0,1,1.44-.24c.06.13.11.27.18.39A.67.67,0,0,0,136.75,63.43Z"/><path class="cls-3" d="M134.35,128.11l.16-.13h0a.69.69,0,0,1,.44.2.76.76,0,0,1,.21.52.73.73,0,0,1-.21.52c-.27.2-.54.41-.82.6a3.48,3.48,0,0,1-.76.41l-.34.14a.64.64,0,0,1-.34-.29.71.71,0,0,1-.1-.37.74.74,0,0,1,.36-.64,9.49,9.49,0,0,0,1.25-.85l0,0Z"/><path class="cls-3" d="M134.44,128h.07l-.16.13-.1.08,0,0a9.49,9.49,0,0,1-1.25.85.74.74,0,0,0-.36.64.71.71,0,0,0,.1.37.64.64,0,0,0,.34.29l-.34.11a9,9,0,0,1-1.79.22l-1.63,0c-.56,0-1.12,0-1.67,0s-1.17.06-1.75.07l-1.76,0c-.6,0-1.19,0-1.79.09-1.21.09-2.43.16-3.65.18l-1.74,0c-.55,0-1.11.05-1.66.09s-1.17.07-1.75.09l-1.78.06-3.59.23-1.67.06c-.58,0-1.16.07-1.73.11s-1.11.13-1.66.16-1.15,0-1.73.05l-1.73.06H97.85c-2.39,0-4.77-.06-7.15-.15-1.19,0-2.39-.07-3.58-.07s-2.29,0-3.44,0h-7c-2.36,0-4.72,0-7.08,0-1.21,0-2.41.08-3.62.11s-2.37,0-3.56,0-2.4-.1-3.6-.14-2.33,0-3.49,0c-2.36,0-4.72-.08-7.08-.11-1.19,0-2.38,0-3.57,0H37.6c-1.15,0-2.29,0-3.44.13-2.37.19-4.74.53-7.12.53-1.22,0-2.43,0-3.65-.06-.95-.05-1.89-.17-2.84-.31a.71.71,0,0,0,.42-.47.73.73,0,0,0-.51-.9c-.22-.07-.44-.13-.66-.21h0l1.42.21c1,.12,2,.23,3,.26s2.09,0,3.13,0c2,0,4-.29,6.06-.46,1.18-.1,2.36-.17,3.54-.19l3.54,0c2.39,0,4.79,0,7.18,0s4.67.1,7,.11c1.15,0,2.3,0,3.45,0s2.44.1,3.67.14,2.26,0,3.39,0,2.51-.08,3.76-.11,2.33,0,3.5,0h14c1.15,0,2.3,0,3.45,0q3.57.14,7.15.16c1.19,0,2.37,0,3.56,0l1.7,0c.57,0,1.14-.07,1.7-.12,1.15-.12,2.3-.18,3.45-.22l1.79-.09,1.81-.12c.57,0,1.14-.08,1.71-.09l1.76-.06,1.73-.11c.58,0,1.16,0,1.74,0,1.22,0,2.43-.05,3.64-.14l1.79-.11c.56,0,1.11,0,1.67,0,1.18,0,2.35-.09,3.52-.11s2.06,0,3.08-.07l.33-.06a5.9,5.9,0,0,0,.72-.2,3.65,3.65,0,0,0,.61-.34l.2-.14.3-.22,0,0a.8.8,0,0,1,.32-.19Z"/><path class="cls-3" d="M121,18.66a.76.76,0,0,1,.21.52.74.74,0,0,1-.21.51.7.7,0,0,1-.52.22h-.07l-.13-.2a.65.65,0,0,1-.1-.36.74.74,0,0,1,.36-.64.71.71,0,0,1,.37-.1h0S121,18.64,121,18.66Z"/><path class="cls-3" d="M120.94,18.6a.71.71,0,0,0-.37.1.74.74,0,0,0-.36.64.65.65,0,0,0,.1.36l.13.2c-1.1-.12-2.19-.15-3.29-.21s-2.24-.06-3.36-.06c-1.88,0-3.77,0-5.65-.12-1-.05-2-.12-3-.14s-2,0-3,0c-2,0-3.91-.11-5.87-.2s-4,.05-5.92.09-4,.06-6,.14c-1,0-2,.09-3,.15s-1.95.14-2.92.16c-2,.06-3.92,0-5.88,0s-3.88,0-5.82,0-4.05-.08-6.08-.08-4,0-6,0-3.94-.05-5.9,0c-1,0-2,.09-3,.19s-2,.23-3,.28c-.48,0-1,0-1.44.08l-1.38.1-1.43.08L37,20.48c-.45,0-.91.05-1.36.08s-.92.06-1.38.1l-1.38.11c-.43,0-.85.05-1.27.1l-1.06.18a11.6,11.6,0,0,1-1.32.16c-.58,0-1.16,0-1.74,0,.12-.24.26-.47.39-.71a.77.77,0,0,0,0-.75,15.58,15.58,0,0,0,1.81,0c.68-.11,1.36-.25,2.05-.32s1.44-.1,2.16-.16,1.38-.12,2.07-.16,1.42-.09,2.13-.14L41,18.75c1-.07,1.94-.11,2.91-.2s1.9-.2,2.84-.27,2-.11,3-.12c2,0,4,0,6,0s4,0,6,0,4,.07,6,.09,3.89,0,5.83,0h3c1,0,2,0,3-.08l2.9-.17c1-.06,1.92-.09,2.87-.12l3-.07c1,0,2.06,0,3.09-.06s2-.08,3.07-.09,1.93,0,2.89.08c2,.09,3.94.13,5.91.16,1,0,2,0,3,.07s2,.11,2.93.14c1.89.07,3.78.07,5.67.07.94,0,1.88,0,2.83.1s1.85.07,2.78.18A.81.81,0,0,1,120.94,18.6Z"/><path class="cls-4" d="M121.61,49.79a1.54,1.54,0,0,1-1.53,1.52l-1.2,0-1.76-.09c-.63,0-1.25,0-1.88,0-1.25,0-2.49,0-3.74,0h-3.83c-1.25,0-2.5,0-3.75-.07s-2.53,0-3.79,0-2.45.15-3.67.16-2.62-.07-3.93-.12-2.6,0-3.89,0c-2.56,0-5.11.13-7.67.2s-5.16.21-7.74.21-5.25,0-7.88,0c-1.26,0-2.51-.08-3.77-.12s-2.67-.06-4-.06H49.75l-7.87,0c-1.24,0-2.47,0-3.71,0s-2.57.1-3.86.13-2.46.1-3.69.16-2.5.13-3.74.24l-.21,0a1.63,1.63,0,0,1-.82,0l-.36-.15a1.51,1.51,0,0,1-.7-.92,1.34,1.34,0,0,1-.06-.4,1.59,1.59,0,0,1,.21-.77,1.45,1.45,0,0,1,.91-.7c.83-.13,1.65-.2,2.47-.25l3.75-.21c1.24-.06,2.48-.08,3.71-.14,2.53-.11,5.06-.09,7.59-.09l7.76,0c2.69,0,5.38,0,8.06,0s5.11.18,7.67.19,5.24,0,7.86,0,5.18-.16,7.78-.25c1.29,0,2.58-.1,3.87-.12s2.56,0,3.84,0c.65,0,1.29,0,1.94,0s1.26,0,1.9.08c1.27,0,2.54.06,3.82,0s2.48-.12,3.73-.13,2.54,0,3.81.05c2.51.07,5,0,7.54.07,1.24,0,2.47,0,3.71,0s2.28.13,3.42.14A1.55,1.55,0,0,1,121.61,49.79Z"/><path class="cls-4" d="M118.37,39.78a1.5,1.5,0,0,1,.45,1.08,1.53,1.53,0,0,1-.45,1.08,1.56,1.56,0,0,1-.67.39l-.41.05a16.5,16.5,0,0,1-2.63,0c-.94,0-1.88,0-2.81,0-1.84,0-3.67,0-5.5-.14-2.58-.18-5.16-.39-7.75-.43s-5.26-.15-7.89-.23-5.12-.12-7.67,0c-1.3.09-2.6.22-3.9.3S76.6,42,75.33,42c-2.6.09-5.21.1-7.81.2-1.26,0-2.52.15-3.79.18s-2.52,0-3.78,0c-2.54,0-5.08,0-7.62-.11-1.26,0-2.51-.1-3.77-.11s-2.48,0-3.72.07-2.52.16-3.78.22-2.49,0-3.74,0c-2.56,0-5.11,0-7.67-.06a1.53,1.53,0,1,1,0-3.05c1.93,0,3.87.06,5.81.06h2.73c.92,0,1.84,0,2.75,0,1.28-.06,2.54-.15,3.82-.22s2.46-.07,3.69-.07,2.52.07,3.78.1,2.57.06,3.85.07c2.51,0,5,.08,7.54,0,1.29,0,2.58-.14,3.88-.19s2.54-.09,3.81-.1,2.6,0,3.9-.09,2.61-.05,3.91-.12,2.59-.21,3.9-.3,2.6-.09,3.9-.1c2.53,0,5.07.11,7.6.19,1.33,0,2.66.09,4,.11s2.59.07,3.88.15c2.55.18,5.09.39,7.64.41h3.72c.6,0,1.2,0,1.79.05a9.29,9.29,0,0,0,1.75,0A1.42,1.42,0,0,1,118.37,39.78Z"/><path class="cls-4" d="M115.18,29.75a1.5,1.5,0,0,1-.15,1.17,1.43,1.43,0,0,1-.91.7,32.52,32.52,0,0,1-5.22.21c-1.26,0-2.51,0-3.76,0s-2.51.06-3.77.06-2.49,0-3.74,0-2.62.08-3.92.14c-2.49.09-5,0-7.46,0-1.3,0-2.6,0-3.9,0l-3.86.05c-1.25,0-2.49.06-3.73.06H71c-1.28,0-2.55-.09-3.83-.13s-2.5,0-3.75,0-2.43.12-3.64.16l-4,.18c-1.25.07-2.5.19-3.75.21s-2.54,0-3.81,0l-1.9,0c-.61,0-1.22.07-1.83.08l-1.78,0-1.69,0c-1.17,0-2.34,0-3.51-.09s-2.52-.06-3.78,0a1.53,1.53,0,1,1,0-3c.88,0,1.75,0,2.63,0s1.51.06,2.27.09c1.18.06,2.36,0,3.54,0l1.72,0c.63,0,1.26,0,1.88-.06,1.26-.06,2.51-.08,3.77-.08s2.42,0,3.63-.05,2.63-.16,3.94-.22,2.53-.1,3.79-.17c2.53-.13,5.06-.21,7.6-.09s5.05.11,7.57.08L79.75,29c1.28,0,2.55-.06,3.83,0,2.58,0,5.17.1,7.75.11s5-.17,7.51-.19h3.86c1.22,0,2.44-.06,3.66-.08H110a29.59,29.59,0,0,0,3.26-.1h0a1.63,1.63,0,0,1,.82,0l.36.15A1.51,1.51,0,0,1,115.18,29.75Z"/><path class="cls-3" d="M102,100.79a2.14,2.14,0,1,1,0,4.27c-.85,0-1.7,0-2.55-.09s-1.92,0-2.88-.09-2-.07-3-.13l-3.28-.22a50.24,50.24,0,0,0-6.94.17c-.56,0-1.12.09-1.69.1H80c-1.15,0-2.3,0-3.46.08s-2.29,0-3.44,0c-.58,0-1.16,0-1.74,0s-1.1.08-1.66.08c-1.16,0-2.31-.08-3.47-.14s-2.35-.08-3.53-.07-2.26.06-3.39,0-2.25-.07-3.37-.09c-.58,0-1.16-.05-1.74,0s-1.09,0-1.64.06c-1.15,0-2.31,0-3.47.08a2.06,2.06,0,0,1-1.51-.62,2.12,2.12,0,0,1,0-3,2.09,2.09,0,0,1,.94-.55l.57-.08c1.08-.11,2.16,0,3.25-.08l1.39-.06c.34,0,.68,0,1,0,0,.06,0,.12,0,.18a4.33,4.33,0,0,0,.27.71,1.19,1.19,0,0,0,.73.57,1.23,1.23,0,0,0,.94-.13,1.21,1.21,0,0,0,.56-.73c0-.11,0-.21.05-.32a.78.78,0,0,0,0-.22l1.17,0c1.06,0,2.13,0,3.19,0s2.35,0,3.51,0,2.26.14,3.4.17c.55,0,1.1,0,1.65,0s1.15-.08,1.73-.1c1.18,0,2.36,0,3.54,0s2.26-.09,3.4-.1,2.22,0,3.33,0c2.3-.12,4.59-.39,6.89-.32,1.13,0,2.26.12,3.38.2a1.22,1.22,0,0,0,.35.8,1.23,1.23,0,0,0,1.72,0,1.27,1.27,0,0,0,.34-.67l1.2.06c1,.06,2,0,3,.1S101.06,100.78,102,100.79Z"/><path class="cls-3" d="M95,100.32a.46.46,0,0,1,0,.2c-.72,0-1.44-.06-2.16-.11l-.25,0a.17.17,0,0,1,0-.07c-.06-.69-.16-1.37-.2-2.06s-.08-1.55-.12-2.32c0,0,0,0,0-.06a1.25,1.25,0,0,1,1.23-1.17,1.22,1.22,0,0,1,.86.36,1.27,1.27,0,0,1,.36.87l.12,2.32C94.81,99,94.91,99.63,95,100.32Z"/><path class="cls-3" d="M95,100.52a1.27,1.27,0,0,1-.34.67,1.23,1.23,0,0,1-1.72,0,1.22,1.22,0,0,1-.35-.8l.25,0C93.51,100.46,94.23,100.49,95,100.52Z"/><path class="cls-3" d="M57.35,100.55a.78.78,0,0,1,0,.22c0,.11,0,.21-.05.32a1.21,1.21,0,0,1-.56.73,1.23,1.23,0,0,1-.94.13,1.19,1.19,0,0,1-.73-.57,4.33,4.33,0,0,1-.27-.71c0-.06,0-.12,0-.18h.6Z"/><path class="cls-3" d="M57.25,100.22a1,1,0,0,1,.1.33l-2,0h-.6l-.06-.33c-.06-.43-.12-.86-.14-1.29v-.56c0-.64,0-1.28.08-1.92a1.25,1.25,0,0,1,.35-.86,1.22,1.22,0,0,1,1.73,0,1.2,1.2,0,0,1,.36.86,17.56,17.56,0,0,0,0,3.16A5,5,0,0,0,57.25,100.22Z"/><path class="cls-3" d="M27.89,19.75a.77.77,0,0,1,0,.75c-.13.24-.27.47-.39.71l-.85,0a.75.75,0,0,1-.61-.35c.19-.36.38-.72.59-1.07l0-.05C27.07,19.73,27.48,19.75,27.89,19.75Z"/><path class="cls-3" d="M27.63,19.5a.78.78,0,0,1,.26.25c-.41,0-.82,0-1.22,0A.73.73,0,0,1,27.63,19.5Z"/><path class="cls-3" d="M26.65,21.18l.85,0c-.42.75-.8,1.51-1.15,2.3-.44,1.06-.82,2.15-1.2,3.24-.21.59-.42,1.18-.6,1.78s-.36,1.16-.54,1.74c-.47,1.45-.94,2.89-1.42,4.34-.24.72-.48,1.44-.73,2.15s-.51,1.49-.73,2.24-.41,1.48-.64,2.21-.44,1.47-.67,2.19c-.46,1.44-.95,2.87-1.44,4.29s-1.13,2.8-1.6,4.23c-.12.36-.24.73-.37,1.09s-.26.68-.4,1q-.42,1-.87,2.1c-.19.47-.35,1-.52,1.42-.49,1.37-.85,2.77-1.25,4.16-.2.71-.38,1.42-.57,2.13-.08.34-.17.69-.28,1l-.09.25-.54.14a.75.75,0,0,0-.45-.16.74.74,0,0,0-.71.57v0a.69.69,0,0,1,0-.2c.12-.39.29-.77.41-1.17s.23-.84.33-1.27c.18-.71.39-1.41.58-2.12s.39-1.41.6-2.11.43-1.34.67-2c.12-.35.25-.71.39-1s.28-.65.42-1l.25-.63c.14-.34.29-.68.42-1s.26-.7.38-1.05c.25-.74.51-1.48.79-2.2s.57-1.43.84-2.15.48-1.36.71-2,.47-1.41.7-2.12.45-1.45.67-2.17.46-1.52.68-2.29.44-1.46.68-2.18c.5-1.43,1-2.87,1.45-4.31.24-.75.49-1.49.73-2.23s.43-1.41.65-2.11.49-1.45.74-2.17.49-1.37.75-2.06.59-1.47.94-2.18c.16-.32.32-.64.5-1A.75.75,0,0,0,26.65,21.18Z"/><path class="cls-3" d="M26.67,19.71l0,.05c-.21.35-.4.71-.59,1.07a.64.64,0,0,1-.12-.38.74.74,0,0,1,.73-.74Z"/><path class="cls-3" d="M20.46,130.62a.73.73,0,0,1,.51.9.71.71,0,0,1-.42.47l-1.11-.17a.72.72,0,0,1-.44-.34.79.79,0,0,1-.1-.37.63.63,0,0,1,0-.19.7.7,0,0,1,.87-.51C20,130.49,20.24,130.55,20.46,130.62Z"/><path class="cls-3" d="M19.44,131.82l1.11.17a.72.72,0,0,1-.48,0q-.34-.09-.69-.21c-.24-.08-.48-.19-.71-.29l-1.08-.48a11.52,11.52,0,0,1-2.07-1.32,8.52,8.52,0,0,1-1.64-1.59c-.26-.32-.5-.65-.74-1a10.77,10.77,0,0,1-.58-.91A10.13,10.13,0,0,1,11.7,124c-.09-.35-.16-.71-.23-1.07s-.13-.73-.18-1.1a32.57,32.57,0,0,1-.37-4.62c0-1.54,0-3.09,0-4.63s0-3,0-4.52c0-.74,0-1.49,0-2.24s0-1.56,0-2.34V94.15c0-1.58,0-3.17.15-4.75.06-.77.15-1.54.2-2.32s.08-1.56.1-2.35,0-1.51,0-2.27,0-1.54-.08-2.31-.11-1.62-.17-2.43-.09-1.56-.14-2.34-.09-1.51-.16-2.27-.17-1.59-.21-2.39,0-1.53,0-2.3,0-1.74.06-2.61a.77.77,0,0,1,0-.15.74.74,0,0,0,.47.65h0a.74.74,0,0,0,.86.39l.08,0c0,1.33,0,2.66,0,4,0,.77.12,1.55.19,2.31s.13,1.53.17,2.3.08,1.47.13,2.21.12,1.59.17,2.39c.1,1.58.11,3.17.1,4.75,0,.79,0,1.57-.1,2.35s-.13,1.47-.19,2.2-.11,1.57-.13,2.36,0,1.55,0,2.32c0,3.11,0,6.21,0,9.31,0,1.57-.06,3.12-.07,4.69s0,3,0,4.53,0,3,0,4.53a35.71,35.71,0,0,0,.31,4.39c.09.62.19,1.23.33,1.84a11.94,11.94,0,0,0,.54,1.79,5.77,5.77,0,0,0,.27.56c.12.2.25.4.38.59.23.35.48.7.73,1a9.07,9.07,0,0,0,1.39,1.38l.72.51c.26.18.53.36.8.51a9.37,9.37,0,0,0,.85.4l.78.35.32.12a.7.7,0,0,0-.87.51.63.63,0,0,0,0,.19.79.79,0,0,0,.1.37A.72.72,0,0,0,19.44,131.82Z"/><path class="cls-3" d="M12.43,65.1c-.09.24-.18.47-.26.71a.67.67,0,0,0-.28-.57Z"/><path class="cls-3" d="M12.17,65.81h0a.76.76,0,0,1-.9.52l-.07,0h0a.49.49,0,0,1,0-.11.68.68,0,0,1,0-.19.75.75,0,0,1,.54-.71l.22-.06A.67.67,0,0,1,12.17,65.81Z"/><path class="cls-3" d="M12.17,65.82l0,.87-.08,0a.74.74,0,0,1-.86-.39l.07,0A.76.76,0,0,0,12.17,65.82Z"/><path class="cls-3" d="M11.89,65.24l-.22.06a.75.75,0,0,0-.54.71.68.68,0,0,0,0,.19.49.49,0,0,0,0,.11.74.74,0,0,1-.47-.65h0a.74.74,0,0,1,.71-.57A.75.75,0,0,1,11.89,65.24Z"/></svg>