<svg id="organization" xmlns="http://www.w3.org/2000/svg" viewBox="0 0 150 150"><defs><style>.cls-1{fill:#36ba95;}.cls-2{fill:#4590cd;}.cls-3{fill:#76c043;}.cls-4{fill:#c4b930;}.cls-5{fill:#9b9a9a;}.cls-6{fill:#d8d8d8;}.cls-7{fill:#7f8080;}</style></defs><title>organization</title><path class="cls-1" d="M56.34,78.83c0-.14,0-.28,0-.42a3.1,3.1,0,0,0-.16-.9,1.28,1.28,0,0,0-.37-.56h2c-.12.23-.23.47-.33.71a3.61,3.61,0,0,0-.17.46,3.3,3.3,0,0,0-.13.71Z"/><path class="cls-2" d="M74.79,75.13a2.84,2.84,0,0,0-.15-.77,1.34,1.34,0,0,0-.58-.72.77.77,0,0,0-.33-.12h2.78l-.11.21c-.12.23-.23.47-.33.71s-.12.3-.18.46a.78.78,0,0,0,0,.22H74.79Z"/><path class="cls-2" d="M58.13,75.12H38.56l.42-1.6H60.56a1.83,1.83,0,0,0-.87.37,2,2,0,0,0-.44.44,7.74,7.74,0,0,0-.44.67c-.05.09-.11.18-.16.28A.94.94,0,0,0,58.13,75.12Z"/><path class="cls-2" d="M94.29,73.52a.92.92,0,0,0,.74-.38,1,1,0,0,0,.63-.27,1,1,0,0,0,.26-.65.09.09,0,0,0,0,0,2.88,2.88,0,0,1,.18-.59c.26-.56.54-1.1.82-1.64a12.3,12.3,0,0,1,.75-1.26s0,0,0-.05a.05.05,0,0,1,0,0l0,0c.21,0,.41,0,.62,0l.76,0,1.3,0h1.34c.47,0,.94,0,1.4-.06a12.71,12.71,0,0,1,1.38,0c.47,0,.94.06,1.41.07.91,0,1.83,0,2.75,0l.86,0h.3c0,.66,0,1.33.06,2,0,.34,0,.69,0,1a4.93,4.93,0,0,0,0,1.33.93.93,0,0,0,1.13.64.66.66,0,0,0,.24-.11c.18.65.35,1.3.52,2H93.47c0-.22,0-.43,0-.65q0-.61,0-1.23Z"/><path class="cls-1" d="M37.82,78.83a.59.59,0,0,0-.23,0c.16-.64.33-1.28.5-1.92h3.26a.55.55,0,0,0-.14.09,2,2,0,0,0-.44.44,7.74,7.74,0,0,0-.44.67c-.13.22-.26.45-.38.68Z"/><path class="cls-1" d="M74.88,78c0-.34,0-.68,0-1h1.73a.91.91,0,0,0,.9-.85,1,1,0,0,0,.09-.38.09.09,0,0,0,0,0,2.88,2.88,0,0,1,.18-.59c.26-.56.54-1.1.82-1.64a14.43,14.43,0,0,1,.75-1.26l0-.05a.05.05,0,0,1,0,0l0,0c.21,0,.41,0,.62,0l.76,0,1.3,0h1.35c.46,0,.93,0,1.39-.06a12.71,12.71,0,0,1,1.38,0c.47,0,.94.06,1.41.07.91,0,1.83,0,2.75,0l.86,0h.3c.05.66.05,1.33.06,2,0,.34,0,.69,0,1a4.93,4.93,0,0,0,0,1.33.92.92,0,0,0,1.09.64.87.87,0,0,0,.52.17h18.59a.86.86,0,0,0,.47-.14l.5,1.88H111.5a.86.86,0,0,0-.47-.14H74.84a1.34,1.34,0,0,0,0-.2Q74.88,78.3,74.88,78Z"/><path class="cls-3" d="M37.54,82.2a3.2,3.2,0,0,0-1.12,1.51c-.1.22-.19.45-.27.68.34-1.33.69-2.66,1-4a.92.92,0,0,0,.63.26H39a1,1,0,0,0-.07.15,3.61,3.61,0,0,0-.17.46,1.69,1.69,0,0,0-.08.39A5.24,5.24,0,0,0,37.54,82.2Z"/><path class="cls-3" d="M83.52,82.4H56.36a.22.22,0,0,0,0-.08c0-.18,0-.36,0-.54s0-.44,0-.66,0-.31,0-.46h1a.91.91,0,0,0,.9-.84.9.9,0,0,0,.4-.23,1,1,0,0,0,.26-.65.09.09,0,0,0,0,0,2.88,2.88,0,0,1,.18-.59c.26-.56.54-1.1.82-1.64a14.43,14.43,0,0,1,.75-1.26s0,0,.05-.05a.05.05,0,0,1,0,0l0,0c.21,0,.41,0,.62,0l.76,0,1.3,0h1.35c.46,0,.93,0,1.39-.06a12.71,12.71,0,0,1,1.38,0c.47,0,.94.06,1.41.07.92,0,1.83,0,2.75,0l.86,0H73c0,.66,0,1.33.06,2,0,.34,0,.69,0,1a4.93,4.93,0,0,0,0,1.33.87.87,0,0,0,.54.59.89.89,0,0,0,.76.43h36.19a.86.86,0,0,0,.47.14H113a1,1,0,0,0,.36-.07l1.56,5.93v.11h-1a.88.88,0,0,0,.16-.8,8.91,8.91,0,0,0-.68-1.66,9.43,9.43,0,0,0-.55-.9.71.71,0,0,0,0-.21.91.91,0,0,0-.91-.91.85.85,0,0,0-.42.11Z"/><path class="cls-4" d="M38.48,83.77A3.26,3.26,0,0,1,39,83.5l.56-.2a1,1,0,0,0,.55-.42,0,0,0,0,0,0,0l.14-.11a1,1,0,0,0,.26-.65.09.09,0,0,0,0,0,2.88,2.88,0,0,1,.18-.59c.26-.56.54-1.1.82-1.64a14.43,14.43,0,0,1,.75-1.26l0,0,0,0,.05,0c.21,0,.41,0,.62,0l.76,0,1.3,0h1.35c.46,0,.93,0,1.39-.06a12.71,12.71,0,0,1,1.38,0c.47,0,.94.06,1.41.07.92,0,1.83,0,2.75,0l.86,0h.3c0,.66,0,1.33.06,2,0,.34,0,.69,0,1a4.93,4.93,0,0,0,0,1.33.9.9,0,0,0,.44.55.92.92,0,0,0,.91.89H111.2a11.51,11.51,0,0,1,.84,1.44q.15.39.27.78a.92.92,0,0,0,.18.32H37.36a8.62,8.62,0,0,1,.28-1.14c.12-.37.26-.74.4-1.1a5.83,5.83,0,0,1,.37-.7Z"/><path class="cls-5" d="M75.64,67.25H96.55a1.68,1.68,0,0,0-.34.36,7.74,7.74,0,0,0-.44.67c-.25.42-.48.86-.7,1.29l-.33.66c-.12.23-.23.47-.33.71s-.12.3-.18.46a1.36,1.36,0,0,0-.06.29h-.79a2.44,2.44,0,0,0-.12-.55,1.34,1.34,0,0,0-.58-.72,1.54,1.54,0,0,0-.79-.16l-1.28-.05c-.44,0-.88,0-1.32,0h-1.4c-.48,0-1,0-1.42-.07-.94,0-1.87,0-2.81.06s-1.77,0-2.66,0l-.67,0h-.74a2.7,2.7,0,0,0-.8.15,1.87,1.87,0,0,0-.48.27,2,2,0,0,0-.44.44,7.74,7.74,0,0,0-.44.67l-.06.11a1,1,0,0,0-.57-.2H39.46l1-4a.64.64,0,0,0-.06-.47Z"/><path class="cls-5" d="M111.38,67.25h3.49v14q-1.53-5.84-3.07-11.66c0-.37,0-.72,0-1.08a3.47,3.47,0,0,0-.16-.9A1.07,1.07,0,0,0,111.38,67.25Z"/><path class="cls-5" d="M35.82,80.22v-13h3.39a.42.42,0,0,0,0,.1l-1.32,5.07c-.26,1-.52,2-.77,3a.92.92,0,0,0-.29.67.86.86,0,0,0,.05.27C36.49,77.62,36.16,78.92,35.82,80.22Z"/><path class="cls-6" d="M116.61,128.85v1.07H33.52V89.4h83.09ZM99.3,116.92a3,3,0,0,0-3-3H94.66c0-.44.08-.87.13-1.31a1.48,1.48,0,0,0-.45-1.09,1.55,1.55,0,0,0-1.09-.45,1.52,1.52,0,0,0-1.09.45l-.24.31a1.64,1.64,0,0,0-.22.78c0,.44-.09.87-.12,1.31H59.73l.15-1.31a1.5,1.5,0,0,0-.45-1.09,1.55,1.55,0,0,0-2.18,0l-.24.31a1.52,1.52,0,0,0-.21.78L56.65,114H53.07a3,3,0,1,0,0,5.93H96.33A3,3,0,0,0,99.3,116.92Z"/><path class="cls-6" d="M33.51,33.54V58.48a1.15,1.15,0,0,0,1.14,1.14h81.18A1.15,1.15,0,0,0,117,58.48V31.79a1.15,1.15,0,0,0-1.14-1.14H34.65a1.15,1.15,0,0,0-1.14,1.14v.39a1.09,1.09,0,0,0,.23.68A1.09,1.09,0,0,0,33.51,33.54Zm3.74,101h-8V26H120.8V134.49H37.25Zm-5-2h85.73a1.32,1.32,0,0,0,1.31-1.31V88.09a1.33,1.33,0,0,0-1.31-1.32h-.77V66.1A1.15,1.15,0,0,0,116,65H34.67a1.15,1.15,0,0,0-1.14,1.14V86.77H32.2a1.33,1.33,0,0,0-1.31,1.32v43.14A1.32,1.32,0,0,0,32.2,132.54Z"/><path class="cls-6" d="M114.69,32.93V57.34H35.79V33.54a1.18,1.18,0,0,0-.18-.61h79.08ZM99.16,47.68a3,3,0,0,0-3-3H93.91c0-.23.07-.46.11-.69s0-.29,0-.44a1.59,1.59,0,0,0-.22-.83,1.65,1.65,0,0,0-2.27-.6,1.64,1.64,0,0,0-.76,1c-.08.52-.17,1-.25,1.57H59.65l.06-.84a1.64,1.64,0,0,0-.49-1.17,1.65,1.65,0,0,0-2.82,1.17l-.06.84H54.1a3,3,0,1,0,0,5.93H96.19A3,3,0,0,0,99.16,47.68Z"/><path class="cls-5" d="M38.38,15.51H112l7,7H31.61l6.06-6.07a1.62,1.62,0,0,0,.47-1Z"/><path class="cls-7" d="M124.07,23.56a1.66,1.66,0,0,1-.48,1.16,1.73,1.73,0,0,1-2.15.22,1.44,1.44,0,0,1-.27-.22l-2.2-2.2h3.54A1.71,1.71,0,0,1,124.07,23.56Z"/><path class="cls-7" d="M122.51,22.52H119l-7-7h1.45a1.72,1.72,0,0,0,1.71-1.68l8.48,8.46a1.63,1.63,0,0,1,.48,1.27A1.71,1.71,0,0,0,122.51,22.52Z"/><path class="cls-7" d="M116.6,87.86v0a1.07,1.07,0,0,1-.59.17,1.12,1.12,0,0,1-.89-.45c-.08-.28-.15-.55-.22-.83h1.41C116.41,87.13,116.5,87.5,116.6,87.86Z"/><path class="cls-7" d="M116.31,86.77h.85v.14a1.14,1.14,0,0,1-.56,1v0C116.5,87.5,116.41,87.13,116.31,86.77Z"/><path class="cls-7" d="M114.87,81.28l1.44,5.49H114.9l0-.11V81.28Z"/><path class="cls-7" d="M116,88.05a1.07,1.07,0,0,0,.59-.17.7.7,0,0,1-.48.82.55.55,0,0,1-.18,0,.68.68,0,0,1-.66-.5c0-.21-.11-.41-.16-.62A1.12,1.12,0,0,0,116,88.05Z"/><path class="cls-7" d="M115.12,87.6a1.06,1.06,0,0,1-.25-.69v-.14h0C115,87.05,115,87.32,115.12,87.6Z"/><path class="cls-7" d="M114.87,86.66l0,.11h0Z"/><path class="cls-7" d="M113.86,79.89a1,1,0,0,1-.55.84c-.15-.59-.31-1.17-.46-1.76h.1A.92.92,0,0,1,113.86,79.89Z"/><path class="cls-7" d="M113.44,87.09a.89.89,0,0,1-1-.32h1.42A.91.91,0,0,1,113.44,87.09Z"/><path class="cls-7" d="M112.84,83.41c-.08-.14-.17-.28-.26-.42s0,0,0,0a.93.93,0,0,0-.84-.57h-.19a.85.85,0,0,1,.42-.11.91.91,0,0,1,.91.91A.71.71,0,0,1,112.84,83.41Z"/><path class="cls-7" d="M111.73,84.23a1,1,0,0,0,.53-.17.92.92,0,0,0,.58-.65,9.43,9.43,0,0,1,.55.9,8.91,8.91,0,0,1,.68,1.66.88.88,0,0,1-.16.8h-1.42a.92.92,0,0,1-.18-.32q-.12-.39-.27-.78a11.51,11.51,0,0,0-.84-1.44Z"/><path class="cls-7" d="M112.84,83.41a.92.92,0,0,1-.58.65.92.92,0,0,0,.38-.74.88.88,0,0,0-.06-.33C112.67,83.13,112.76,83.27,112.84,83.41Z"/><path class="cls-7" d="M112.79,76.32a.92.92,0,0,1-.44.77c-.15-.56-.29-1.13-.44-1.69A.92.92,0,0,1,112.79,76.32Z"/><path class="cls-7" d="M111.84,71.25c0-.45,0-.9,0-1.35a2.62,2.62,0,0,0,0-.28q1.55,5.82,3.07,11.66v5.38l-1.56-5.93a1,1,0,0,0,.55-.84A.92.92,0,0,0,113,79h-.1l-.5-1.88a.91.91,0,0,0-.44-1.69c-.17-.65-.34-1.3-.52-2a.93.93,0,0,0,.4-1c0-.18,0-.36,0-.54S111.84,71.47,111.84,71.25Z"/><path class="cls-7" d="M112,84.11a.91.91,0,0,1-.91-.91.84.84,0,0,1,.15-.49.35.35,0,0,1,.1-.08.86.86,0,0,1,.7-.09.94.94,0,0,1,.55.41l0,0s0,0,0,0a.88.88,0,0,1,.06.33.92.92,0,0,1-.38.74A.94.94,0,0,1,112,84.11Z"/><path class="cls-7" d="M111.84,15.4a1.74,1.74,0,0,1,0-2.42,1.73,1.73,0,0,1,2.42,0l.85.85a1.72,1.72,0,0,1-1.71,1.68H112Z"/><path class="cls-7" d="M112,15.51H38.38l-.24,0A1.68,1.68,0,0,0,37.67,14a1.62,1.62,0,0,0-1-.47,1.71,1.71,0,0,1,1.68-1.48h75a1.72,1.72,0,0,1,1.71,1.72v0l-.85-.85a1.73,1.73,0,0,0-2.42,0,1.74,1.74,0,0,0,0,2.42Z"/><path class="cls-7" d="M111.76,68.54c0,.36,0,.71,0,1.08-.2-.79-.41-1.58-.62-2.37h.2a1.07,1.07,0,0,1,.22.39A3.47,3.47,0,0,1,111.76,68.54Z"/><path class="cls-7" d="M111.73,82.4a.93.93,0,0,1,.84.57l0,0a.94.94,0,0,0-.55-.41.86.86,0,0,0-.7.09.35.35,0,0,0-.1.08.85.85,0,0,1,.34-.31Z"/><path class="cls-7" d="M111.18,67.25c0-.09-.05-.17-.07-.26a1,1,0,0,1,.27.26Z"/><path class="cls-7" d="M111.05,83.2a.91.91,0,0,0,.91.91.94.94,0,0,0,.3,0,1,1,0,0,1-.53.17h-.53l-.23-.35a.8.8,0,0,1-.13-.44.93.93,0,0,1,.36-.73A.84.84,0,0,0,111.05,83.2Z"/><path class="cls-7" d="M111,80.66a.93.93,0,0,0,.92-.91.91.91,0,0,0-.45-.78h1.35c.15.59.31,1.17.46,1.76a1,1,0,0,1-.36.07H111a.86.86,0,0,1-.47-.14Z"/><path class="cls-7" d="M111,79h.48a.91.91,0,0,1,.45.78.93.93,0,0,1-.92.91h-.48a.92.92,0,0,1-.44-.77A.93.93,0,0,1,111,79Z"/><path class="cls-7" d="M110.94,66.34a.68.68,0,0,0-.66-.5V65H116a1.15,1.15,0,0,1,1.15,1.14V86.77h-.85l-1.44-5.49v-14h-3.49a1,1,0,0,0-.27-.26Z"/><path class="cls-7" d="M111.39,73.45l-1.62-6.2h1.41c.21.79.42,1.58.62,2.37a2.62,2.62,0,0,1,0,.28c0,.45,0,.9,0,1.35q0,.33,0,.66c0,.18,0,.36,0,.54A.93.93,0,0,1,111.39,73.45Z"/><path class="cls-7" d="M109.69,75.41a.91.91,0,1,1-.83.91A.92.92,0,0,1,109.69,75.41Z"/><path class="cls-7" d="M111.18,67.25h-1.42c0-.17-.08-.34-.13-.51l.6,0a1.54,1.54,0,0,1,.79.16l.09.07C111.13,67.08,111.16,67.16,111.18,67.25Z"/><path class="cls-7" d="M109.77,77.23h-.08a.91.91,0,0,0,0-1.81h2.22c.15.56.29,1.13.44,1.69a.86.86,0,0,1-.47.14Z"/><path class="cls-7" d="M109.62,66.7a1.1,1.1,0,0,1,0-.18.68.68,0,0,1,.5-.66.55.55,0,0,1,.18,0,.68.68,0,0,1,.66.5l.17.65-.09-.07a1.54,1.54,0,0,0-.79-.16l-.6,0Z"/><path class="cls-7" d="M109.76,67.25H96.55l.1-.08a1.87,1.87,0,0,1,.48-.27,2.7,2.7,0,0,1,.8-.15h.74l.67,0c.89,0,1.78,0,2.66,0s1.87-.11,2.81-.06c.47,0,.94.06,1.42.07h1.4c.44,0,.88,0,1.32,0l.68,0C109.68,66.91,109.72,67.08,109.76,67.25Z"/><path class="cls-7" d="M95.21,72.61a.93.93,0,0,0-.92-.92h-.12a1.36,1.36,0,0,1,.06-.29c.06-.16.11-.31.18-.46s.21-.48.33-.71l.33-.66c.22-.43.45-.87.7-1.29a7.74,7.74,0,0,1,.44-.67,1.68,1.68,0,0,1,.34-.36h13.22l1.62,6.2a.66.66,0,0,1-.24.11.93.93,0,0,1-1.13-.64,4.93,4.93,0,0,1,0-1.33c0-.34,0-.69,0-1,0-.66,0-1.33-.06-2h-.3l-.86,0c-.92,0-1.84,0-2.75,0-.47,0-.94,0-1.41-.07a12.71,12.71,0,0,0-1.38,0c-.46,0-.93.06-1.4.06H100.5l-1.3,0-.76,0c-.21,0-.41,0-.62,0l0,0a.05.05,0,0,0,0,0s0,0,0,.05a12.3,12.3,0,0,0-.75,1.26c-.28.54-.56,1.08-.82,1.64a2.88,2.88,0,0,0-.18.59.09.09,0,0,1,0,0,1,1,0,0,1-.26.65,1,1,0,0,1-.63.27A.89.89,0,0,0,95.21,72.61Z"/><path class="cls-7" d="M91.58,114h3.08c-.08.84-.14,1.68-.18,2.51a1.54,1.54,0,0,1-3.08.06v-.06C91.43,115.63,91.5,114.79,91.58,114Z"/><path class="cls-7" d="M94.36,72.87a.94.94,0,0,1-.26-.6v0a.28.28,0,0,1,0-.09c0-.15,0-.3.06-.44h.12a.93.93,0,0,1,.92.92.89.89,0,0,1-.18.53h0A1,1,0,0,1,94.36,72.87Z"/><path class="cls-7" d="M94.29,73.52h-.82V73.4c0-.46,0-.91,0-1.36,0-.11,0-.23,0-.35h.79c0,.14,0,.29-.06.44a.28.28,0,0,0,0,.09v0a.94.94,0,0,0,.26.6,1,1,0,0,0,.65.27h0A.92.92,0,0,1,94.29,73.52Z"/><path class="cls-7" d="M93.45,76a.92.92,0,0,1-.64,1.11h0a.91.91,0,0,1,.52-1.66h.18C93.47,75.59,93.45,75.77,93.45,76Z"/><path class="cls-7" d="M92.87,73.52a.92.92,0,0,1,0-1.83h.51c0,.12,0,.24,0,.35,0,.45,0,.9,0,1.36v.12Z"/><path class="cls-7" d="M92.81,77.06A.92.92,0,0,0,93.45,76c0-.18,0-.36,0-.54h16.22a.91.91,0,0,0,0,1.81H93.29a.87.87,0,0,1-.52-.17Z"/><path class="cls-7" d="M90.48,47.68a1.66,1.66,0,0,1-.23-.84l.06-.44c.08-.57.17-1.13.26-1.69h3.34c-.15.86-.28,1.71-.41,2.57a1.55,1.55,0,0,1-.76,1,1.61,1.61,0,0,1-1.27.17A1.67,1.67,0,0,1,90.48,47.68Z"/><path class="cls-7" d="M92.16,111.55a1.52,1.52,0,0,1,1.09-.45,1.55,1.55,0,0,1,1.09.45,1.48,1.48,0,0,1,.45,1.09c-.05.44-.09.87-.13,1.31H91.58c0-.44.08-.87.12-1.31a1.64,1.64,0,0,1,.22-.78Z"/><path class="cls-7" d="M90.82,43.14a1.64,1.64,0,0,1,.76-1,1.65,1.65,0,0,1,2.27.6,1.59,1.59,0,0,1,.22.83c0,.15,0,.29,0,.44s-.08.46-.11.69H90.57C90.65,44.19,90.74,43.66,90.82,43.14Z"/><path class="cls-7" d="M91.06,50.64h-37a3,3,0,1,1,0-5.93h2.24c0,.38-.05.75-.08,1.13v.08A1.6,1.6,0,0,0,56.75,47a1.64,1.64,0,0,0,2.34,0,1.69,1.69,0,0,0,.48-1.17c0-.38,0-.75.08-1.13H90.57c-.09.56-.18,1.12-.26,1.69l-.06.44a1.66,1.66,0,0,0,1.22,1.6,1.61,1.61,0,0,0,1.27-.17,1.55,1.55,0,0,0,.76-1c.13-.86.26-1.71.41-2.57h2.28a3,3,0,1,1,0,5.93Z"/><path class="cls-7" d="M77.72,72.61a.93.93,0,0,1-.92.91h-.29l.22-.45c.2-.39.41-.79.64-1.18A.93.93,0,0,1,77.72,72.61Z"/><path class="cls-7" d="M75.85,75.12a.78.78,0,0,1,0-.22c.06-.16.11-.31.18-.46s.21-.48.33-.71l.11-.21h.29a.91.91,0,0,0,.57-1.63l.06-.11a7.74,7.74,0,0,1,.44-.67,2,2,0,0,1,.44-.44,1.87,1.87,0,0,1,.48-.27,2.7,2.7,0,0,1,.8-.15h.74l.67,0c.89,0,1.78,0,2.66,0s1.87-.11,2.81-.06c.47,0,.94.06,1.42.07h1.4c.44,0,.88,0,1.32,0l1.28.05a1.54,1.54,0,0,1,.79.16,1.34,1.34,0,0,1,.58.72,2.44,2.44,0,0,1,.12.55h-.51a.92.92,0,0,0,0,1.83h.6q0,.62,0,1.23c0,.22,0,.43,0,.65h-.18a.91.91,0,0,0-.52,1.66.92.92,0,0,1-1.09-.64,4.93,4.93,0,0,1,0-1.33c0-.34,0-.69,0-1,0-.66,0-1.33-.06-2h-.3l-.86,0c-.92,0-1.84,0-2.75,0-.47,0-.94,0-1.41-.07a12.71,12.71,0,0,0-1.38,0c-.46,0-.93.06-1.39.06H82.16l-1.3,0-.76,0c-.21,0-.41,0-.62,0l0,0a.05.05,0,0,0,0,0l0,.05a14.43,14.43,0,0,0-.75,1.26c-.28.54-.56,1.08-.82,1.64a2.88,2.88,0,0,0-.18.59.09.09,0,0,1,0,0,1,1,0,0,1-.09.38.13.13,0,0,0,0-.06.92.92,0,0,0-.91-.92Z"/><path class="cls-7" d="M75.85,75.12h.74a.92.92,0,0,1,.91.92.13.13,0,0,1,0,.06.65.65,0,0,1-.17.27.93.93,0,0,1-.65.27,1,1,0,0,1-.65-.27.94.94,0,0,1-.26-.6v0a.28.28,0,0,1,0-.09A4.17,4.17,0,0,1,75.85,75.12Z"/><path class="cls-7" d="M74.85,76.62c0-.46,0-.91,0-1.36,0,0,0-.09,0-.13h1.06a4.17,4.17,0,0,0-.08.51.28.28,0,0,0,0,.09v0a.94.94,0,0,0,.26.6,1,1,0,0,0,.65.27.93.93,0,0,0,.65-.27.65.65,0,0,0,.17-.27.91.91,0,0,1-.9.85H74.86C74.86,76.84,74.85,76.73,74.85,76.62Z"/><path class="cls-7" d="M73.45,79.75a.92.92,0,0,1,.91-.92h.48c0,.11,0,.23,0,.34a.92.92,0,0,1-.64,1.11.85.85,0,0,1-.59,0A.81.81,0,0,1,73.45,79.75Z"/><path class="cls-7" d="M74.8,75.26c0,.45,0,.9,0,1.36,0,.11,0,.22,0,.33a.91.91,0,0,1-.07-1.82S74.8,75.22,74.8,75.26Z"/><path class="cls-7" d="M74.36,80.66a.89.89,0,0,1-.76-.43.85.85,0,0,0,.59,0,.92.92,0,0,0,.64-1.11c0-.11,0-.23,0-.34H111a.86.86,0,0,1,.47.14H111a.93.93,0,0,0-.91.92.92.92,0,0,0,.44.77H74.36Z"/><path class="cls-7" d="M67.85,73.35c.47,0,.94.06,1.42.07h1.4c.44,0,.88,0,1.32,0l1.28,0a3.57,3.57,0,0,1,.46,0H60.56a3.05,3.05,0,0,1,.41,0h.74l.67,0c.89,0,1.78,0,2.66,0S66.91,73.3,67.85,73.35Z"/><path class="cls-7" d="M58.65,75.29a.91.91,0,0,1,.4.75.93.93,0,0,1-.92.91h-.35l.33-.66C58.28,76,58.46,75.62,58.65,75.29Z"/><path class="cls-7" d="M58.2,115.38h.15a1.53,1.53,0,0,1,1.19.57c0,.27,0,.55-.06.82a1.6,1.6,0,0,1-.45,1.09,1.54,1.54,0,0,1-1.09.45,1.32,1.32,0,0,1-.64-.16,1.49,1.49,0,0,1-.64-1.23A1.55,1.55,0,0,1,58.2,115.38Z"/><path class="cls-7" d="M58.2,118.46a1.44,1.44,0,0,1-.9-.31,1.32,1.32,0,0,0,.64.16,1.54,1.54,0,0,0,1.09-.45,1.6,1.6,0,0,0,.45-1.09c0-.27,0-.55.06-.82a1.47,1.47,0,0,1,.36,1,1.56,1.56,0,0,1-1.55,1.54Z"/><path class="cls-7" d="M57.45,77.66c.1-.24.21-.48.33-.71h.35a.93.93,0,0,0,.92-.91.91.91,0,0,0-.4-.75h0c.05-.1.11-.19.16-.28a7.74,7.74,0,0,1,.44-.67,2,2,0,0,1,.44-.44,1.83,1.83,0,0,1,.87-.37H73.73a.77.77,0,0,1,.33.12,1.34,1.34,0,0,1,.58.72,2.84,2.84,0,0,1,.15.77A.91.91,0,0,0,74.86,77c0,.34,0,.68,0,1s0,.44,0,.66a1.34,1.34,0,0,1,0,.2h-.48a.92.92,0,0,0-.91.92.81.81,0,0,0,.15.48.87.87,0,0,1-.54-.59,4.93,4.93,0,0,1,0-1.33c0-.34,0-.69,0-1,0-.66,0-1.33-.06-2h-.3l-.86,0c-.92,0-1.83,0-2.75,0-.47,0-.94,0-1.41-.07a12.71,12.71,0,0,0-1.38,0c-.46,0-.93.06-1.39.06H63.54l-1.3,0-.76,0c-.21,0-.41,0-.62,0l0,0a.05.05,0,0,0,0,0s0,0-.05.05A14.43,14.43,0,0,0,60,76.66c-.28.54-.56,1.08-.82,1.64a2.88,2.88,0,0,0-.18.59.09.09,0,0,1,0,0,1,1,0,0,1-.26.65.9.9,0,0,1-.4.23.17.17,0,0,0,0-.07.92.92,0,0,0-.91-.92h-.25a3.3,3.3,0,0,1,.13-.71A3.61,3.61,0,0,1,57.45,77.66Z"/><path class="cls-7" d="M57.41,79.59a.9.9,0,0,1-.27-.6v0a.28.28,0,0,1,0-.09v0h.25a.92.92,0,0,1,.91.92.17.17,0,0,1,0,.07.73.73,0,0,1-.25,0A.91.91,0,0,1,57.41,79.59Z"/><path class="cls-7" d="M57.4,80.66h-1c0-.3,0-.59,0-.89s0-.63,0-.94h.81v0a.28.28,0,0,0,0,.09v0a.92.92,0,0,0,.91.87.73.73,0,0,0,.25,0A.91.91,0,0,1,57.4,80.66Z"/><path class="cls-7" d="M89.91,119.88H53.07a3,3,0,1,1,0-5.93h3.58c-.1.94-.2,1.88-.25,2.82v.06a1.49,1.49,0,0,0,.9,1.32,1.44,1.44,0,0,0,.9.31h.15a1.56,1.56,0,0,0,1.55-1.54,1.47,1.47,0,0,0-.36-1c.05-.67.12-1.34.19-2H91.58c-.08.84-.15,1.68-.18,2.51v.06a1.54,1.54,0,0,0,3.08-.06c0-.83.1-1.67.18-2.51h1.67a3,3,0,1,1,0,5.93Z"/><path class="cls-7" d="M57.25,111.55a1.55,1.55,0,0,1,2.18,0,1.5,1.5,0,0,1,.45,1.09L59.73,114H56.65l.15-1.31a1.52,1.52,0,0,1,.21-.78Z"/><path class="cls-7" d="M59.65,44.71H56.34l.06-.84a1.66,1.66,0,0,1,3.31,0Z"/><path class="cls-7" d="M58.2,115.38a1.55,1.55,0,0,0-1.54,1.54,1.49,1.49,0,0,0,.64,1.23,1.49,1.49,0,0,1-.9-1.32v-.06c.05-.94.15-1.88.25-2.82h3.08c-.07.66-.14,1.33-.19,2a1.53,1.53,0,0,0-1.19-.57H58.2Z"/><path class="cls-7" d="M56.75,47a1.6,1.6,0,0,1-.49-1.09v-.08c0-.38.05-.75.08-1.13h3.31c0,.38,0,.75-.08,1.13A1.69,1.69,0,0,1,59.09,47a1.64,1.64,0,0,1-2.34,0Z"/><path class="cls-7" d="M56.36,82.4a.9.9,0,0,1-.65,1,.92.92,0,0,1-.69-.09v0a.92.92,0,0,1,.91-.92Z"/><path class="cls-7" d="M56.06,78.83h.28c0,.31,0,.62,0,.94s0,.59,0,.89h-.33a.92.92,0,0,1,0-1.83Z"/><path class="cls-7" d="M55.93,84.23a.92.92,0,0,1-.91-.89.92.92,0,0,0,.69.09.9.9,0,0,0,.65-1h55.18a.85.85,0,0,0-.34.31.93.93,0,0,0-.36.73.8.8,0,0,0,.13.44l.23.35H55.93Z"/><path class="cls-7" d="M60.56,73.52H39l.48-1.83H76.8a1,1,0,0,1,.57.2c-.23.39-.44.79-.64,1.18l-.22.45H73.73a3.57,3.57,0,0,0-.46,0l-1.28,0c-.44,0-.88,0-1.32,0h-1.4c-.48,0-1,0-1.42-.07-.94,0-1.87,0-2.81.06s-1.77,0-2.66,0l-.67,0H61A3.05,3.05,0,0,0,60.56,73.52Z"/><path class="cls-7" d="M43.9,76.58c.89,0,1.78,0,2.66,0s1.87-.11,2.81-.06c.47,0,.94.06,1.42.07h1.4c.44,0,.88,0,1.32,0l1.28,0a1.54,1.54,0,0,1,.79.16,1.16,1.16,0,0,1,.21.16H41.35a2.16,2.16,0,0,1,.34-.18,2.7,2.7,0,0,1,.8-.15h.74Z"/><path class="cls-7" d="M37.85,72.42l1.32-5.07a.42.42,0,0,1,0-.1h1.22a.64.64,0,0,1,.06.47l-1,4h-.7a.93.93,0,0,0-.89.74Z"/><path class="cls-7" d="M40.43,67.25H39.21a.67.67,0,0,1,.8-.37A.62.62,0,0,1,40.43,67.25Z"/><path class="cls-7" d="M38.93,82.74a.9.9,0,0,1-.27-.6v0a.28.28,0,0,1,0-.09c0-.11,0-.23,0-.34s.21-.08.31-.12a.92.92,0,0,1,.71.09,1,1,0,0,1,.42.55.91.91,0,0,1-.08.67.93.93,0,0,1-.51.16A.91.91,0,0,1,38.93,82.74Z"/><path class="cls-7" d="M39.63,79.44l.32-.61h.41a.92.92,0,1,1,0,1.83H39c.08-.19.17-.38.26-.56Z"/><path class="cls-7" d="M39,80.66h1.32a.92.92,0,1,0,0-1.83H40c.12-.23.25-.46.38-.68a7.74,7.74,0,0,1,.44-.67,2,2,0,0,1,.44-.44.55.55,0,0,1,.14-.09H55.79a1.28,1.28,0,0,1,.37.56,3.1,3.1,0,0,1,.16.9c0,.14,0,.28,0,.42h-.28a.92.92,0,0,0,0,1.83h.33c0,.15,0,.31,0,.46s0,.44,0,.66,0,.36,0,.54a.22.22,0,0,1,0,.08h-.43a.92.92,0,0,0-.91.92v0a.9.9,0,0,1-.44-.55,4.93,4.93,0,0,1,0-1.33c0-.34,0-.69,0-1,0-.66,0-1.33-.06-2h-.3l-.86,0c-.92,0-1.83,0-2.75,0-.47,0-.94,0-1.41-.07a12.71,12.71,0,0,0-1.38,0c-.46,0-.93.06-1.39.06H45.06l-1.3,0-.76,0c-.21,0-.41,0-.62,0l-.05,0,0,0,0,0a14.43,14.43,0,0,0-.75,1.26c-.28.54-.56,1.08-.82,1.64a2.88,2.88,0,0,0-.18.59.09.09,0,0,1,0,0,1,1,0,0,1-.26.65l-.14.11a.91.91,0,0,0,.08-.67,1,1,0,0,0-.42-.55.92.92,0,0,0-.71-.09c-.1,0-.21.07-.31.12a1.69,1.69,0,0,1,.08-.39,3.61,3.61,0,0,1,.17-.46A1,1,0,0,1,39,80.66Z"/><path class="cls-7" d="M38.76,73.52a.93.93,0,0,1-.91-.91,1.1,1.1,0,0,1,0-.18.93.93,0,0,1,.89-.74h.7L39,73.52Z"/><path class="cls-7" d="M38.09,77c.16-.61.31-1.22.47-1.83H58.13a.94.94,0,0,1,.52.16h0c-.19.33-.37.67-.54,1l-.33.66h-2a1.16,1.16,0,0,0-.21-.16,1.54,1.54,0,0,0-.79-.16l-1.28,0c-.44,0-.88,0-1.32,0h-1.4c-.48,0-.95,0-1.42-.07-.94,0-1.87,0-2.81.06s-1.77,0-2.66,0l-.67,0h-.74a2.7,2.7,0,0,0-.8.15,2.16,2.16,0,0,0-.34.18Z"/><path class="cls-7" d="M37.67,14a1.68,1.68,0,0,1,.47,1.45,1.71,1.71,0,0,1-1.47-1.68,1,1,0,0,1,0-.24A1.62,1.62,0,0,1,37.67,14Z"/><path class="cls-7" d="M38.56,75.12h-.85a1,1,0,0,0-.63.25c.25-1,.51-2,.77-3h0a1.1,1.1,0,0,0,0,.18.93.93,0,0,0,.91.91H39Z"/><path class="cls-7" d="M37.19,80.4c.13-.51.26-1,.4-1.53a.59.59,0,0,1,.23,0H40l-.32.61-.33.66c-.09.18-.18.37-.26.56H37.82A.92.92,0,0,1,37.19,80.4Z"/><path class="cls-7" d="M37.71,77a.92.92,0,0,1-.87-.64l.24-.94a1,1,0,0,1,.63-.25h.85c-.16.61-.31,1.22-.47,1.83Z"/><path class="cls-7" d="M35.82,85.65c.11-.41.21-.83.32-1.24v0c.08-.23.17-.46.27-.68a3.2,3.2,0,0,1,1.12-1.51,5.24,5.24,0,0,1,1.18-.54c0,.11,0,.23,0,.34a.28.28,0,0,0,0,.09v0a.92.92,0,0,0,.91.87.93.93,0,0,0,.51-.16,0,0,0,0,1,0,0,1,1,0,0,1-.55.42l-.56.2a3.26,3.26,0,0,0-.48.27l-.07.06a5.83,5.83,0,0,0-.37.7c-.14.36-.28.73-.4,1.1a8.62,8.62,0,0,0-.28,1.14H35.82V85.65Z"/><path class="cls-7" d="M35.82,85.34V80.22c.34-1.3.67-2.6,1-3.91a.92.92,0,0,0,.87.64h.38c-.17.64-.34,1.28-.5,1.92a.92.92,0,0,0-.69.88.88.88,0,0,0,.29.65c-.35,1.33-.7,2.66-1,4v0c-.09.23-.17.47-.25.71A1.87,1.87,0,0,0,35.82,85.34Z"/><path class="cls-7" d="M37.59,78.87c-.14.51-.27,1-.4,1.53a.88.88,0,0,1-.29-.65A.92.92,0,0,1,37.59,78.87Z"/><path class="cls-7" d="M37.08,75.37l-.24.94a.86.86,0,0,1-.05-.27A.92.92,0,0,1,37.08,75.37Z"/><path class="cls-7" d="M35.71,87.2a1.24,1.24,0,0,0,.11-.43h1.54l0,.15a.88.88,0,0,1-.41.55.93.93,0,0,1-.71.09A.87.87,0,0,1,35.71,87.2Z"/><path class="cls-7" d="M35.82,85.65v-.31a1.87,1.87,0,0,1,.07-.22c.08-.24.16-.48.25-.71C36,84.82,35.93,85.24,35.82,85.65Z"/><path class="cls-7" d="M35.71,87.2a.87.87,0,0,0,.5.36.93.93,0,0,0,.71-.09.88.88,0,0,0,.41-.55l0-.15h75.13a.89.89,0,0,0,1,.32.91.91,0,0,0,.47-.32h1v.14a1.06,1.06,0,0,0,.25.69c0,.21.11.41.16.62a.68.68,0,0,0,.66.5v.68H34.67V87.86A1.16,1.16,0,0,0,35.71,87.2Z"/><path class="cls-7" d="M35.82,85.65v1.12h-.26a.17.17,0,0,1,0-.07v0Z"/><path class="cls-7" d="M35.82,85.34v.31l-.27,1a1.94,1.94,0,0,1,0-.24A9.77,9.77,0,0,1,35.82,85.34Z"/><path class="cls-7" d="M34.11,86.77h-.58V66.1A1.15,1.15,0,0,1,34.67,65h75.61v.88a.55.55,0,0,0-.18,0,.68.68,0,0,0-.5.66,1.1,1.1,0,0,0,0,.18v0l-.68,0c-.44,0-.88,0-1.32,0h-1.4c-.48,0-1,0-1.42-.07-.94,0-1.87,0-2.81.06s-1.77,0-2.66,0l-.67,0h-.74a2.7,2.7,0,0,0-.8.15,1.87,1.87,0,0,0-.48.27l-.1.08H40.43a.62.62,0,0,0-.42-.37.67.67,0,0,0-.8.37H35.82v13Z"/><path class="cls-7" d="M35.79,57.34h78.9V32.93H35.61a1.18,1.18,0,0,1,.18.61Zm42,2.28H34.65a1.15,1.15,0,0,1-1.14-1.14V33.54a1.09,1.09,0,0,1,.23-.68,1.09,1.09,0,0,1-.23-.68v-.39a1.15,1.15,0,0,1,1.14-1.14h81.18A1.15,1.15,0,0,1,117,31.79V58.48a1.15,1.15,0,0,1-1.14,1.14Z"/><path class="cls-7" d="M35.82,86.77a1.24,1.24,0,0,1-.11.43l0-.06a.68.68,0,0,1-.11-.37Z"/><path class="cls-7" d="M34.11,86.77l1.71-6.55v5.12a9.77,9.77,0,0,0-.25,1.1,1.94,1.94,0,0,0,0,.24v0a.19.19,0,0,0,0,.07Z"/><path class="cls-7" d="M35.55,86.7a.17.17,0,0,0,0,.07h0A.19.19,0,0,1,35.55,86.7Z"/><path class="cls-7" d="M34.11,86.77h1.42l-.15.57a.68.68,0,0,1-.84.48.7.7,0,0,1-.5-.67,1,1,0,0,1,0-.17A1.6,1.6,0,0,0,34.11,86.77Z"/><path class="cls-7" d="M34.54,87.82a.68.68,0,0,0,.84-.48l.15-.57h0a.68.68,0,0,0,.11.37l0,.06a1.14,1.14,0,0,1-2.18-.43h.58a1.6,1.6,0,0,1,0,.21,1,1,0,0,0,0,.17A.7.7,0,0,0,34.54,87.82Z"/><path class="cls-7" d="M74.44,132.54H32.2a1.32,1.32,0,0,1-1.31-1.31V88.09a1.33,1.33,0,0,1,1.31-1.32h1.33a1.16,1.16,0,0,0,1.14,1.09V89.4H33.52v40.52h83.09V89.4h-.67v-.68a.55.55,0,0,0,.18,0,.7.7,0,0,0,.48-.82,1.14,1.14,0,0,0,.56-1v-.14h.77a1.33,1.33,0,0,1,1.31,1.32v43.14a1.32,1.32,0,0,1-1.31,1.31H74.44Z"/><path class="cls-7" d="M30.16,24.24a.81.81,0,0,1-.8.79h-.25l1-1A.59.59,0,0,1,30.16,24.24Z"/><path class="cls-7" d="M30.16,24.24a.59.59,0,0,0,0-.23c.5-.5,1-1,1.49-1.49H119l2.2,2.2a1.44,1.44,0,0,0,.27.22l-.64,1H29.26V134.49h-.91V25.7a1.45,1.45,0,0,0,.35-.26l.41-.41h.25A.81.81,0,0,0,30.16,24.24Z"/><path class="cls-7" d="M28.7,25.44a1.45,1.45,0,0,1-.35.26V25h.76Z"/><path class="cls-7" d="M28.35,135.41H75.62a.8.8,0,0,1,0,1.59H27.55a.8.8,0,0,1-.8-.8V25.77a1.71,1.71,0,0,0,1.6-.07V135.41Z"/><path class="cls-7" d="M27.55,23.44h1.81a.8.8,0,0,1,.76.57l-1,1h-.76v.67a1.71,1.71,0,0,1-1.6.07V24.24A.8.8,0,0,1,27.55,23.44Z"/><path class="cls-7" d="M29.36,23.44H27.55a.8.8,0,0,0-.8.8v1.53a1.58,1.58,0,0,1-.48-.33,1.65,1.65,0,0,1-.43-.77v-.43a1.73,1.73,0,0,1,1.71-1.72h4.06c-.49.5-1,1-1.49,1.49A.8.8,0,0,0,29.36,23.44Z"/><path class="cls-7" d="M26.75,65.51V136.2a.8.8,0,0,0,.8.8H75.62a.8.8,0,0,0,0-1.59H28.35v-.92H120.8V26l.64-1a1.73,1.73,0,0,0,2.15-.22,1.66,1.66,0,0,0,.48-1.16,1.57,1.57,0,0,1,.15.68v112a1.73,1.73,0,0,1-1.71,1.72h-95a1.73,1.73,0,0,1-1.71-1.72V24.67a1.65,1.65,0,0,0,.43.77,1.58,1.58,0,0,0,.48.33Z"/><path class="cls-7" d="M26.27,23l9-9a1.69,1.69,0,0,1,1.45-.47,1,1,0,0,0,0,.24,1.71,1.71,0,0,0,1.47,1.68,1.62,1.62,0,0,1-.47,1l-6.06,6.07H27.55a1.73,1.73,0,0,0-1.71,1.72v.43a1.61,1.61,0,0,1-.06-.44A1.7,1.7,0,0,1,26.27,23Z"/></svg>