<svg id="search" xmlns="http://www.w3.org/2000/svg" viewBox="0 0 150 150"><defs><style>.cls-1{fill:#7f8080;}.cls-2{fill:#5c4320;}.cls-3{fill:#9c6e29;}.cls-4{fill:#bfbebe;}.cls-5{fill:#fff;}.cls-6{fill:none;stroke:#939393;stroke-miterlimit:10;}</style></defs><title>search</title><path class="cls-1" d="M138.64,126a1.8,1.8,0,0,1,0,2.53q-6.85,6.82-13.7,13.64l-.08.07v0l-1,1a1.81,1.81,0,0,1-2.53,0l-5.36-5.38.19-.19a1.8,1.8,0,0,0,1.27.53,1.71,1.71,0,0,0,1.27-.53l1-1.2,3,3q6.12-6.12,12.27-12.21l-2.52-2.53.06,0a1.72,1.72,0,0,0,.52-1.27,1.79,1.79,0,0,0-1.79-1.79l-.48.06a1.81,1.81,0,0,0-.79.46l-.05,0L120.64,113,91.3,83.53l-2,2a1.81,1.81,0,0,1-1.65.47,44.19,44.19,0,0,0,4.56-6.5,1.59,1.59,0,0,1,.34.26L106.76,94Z"/><path class="cls-2" d="M132.32,124.74l2.52,2.53q-6.13,6.1-12.27,12.21l-3-3c.54-.66,1.1-1.31,1.7-1.92q1.36-1.4,2.74-2.77c.89-.88,1.88-1.65,2.82-2.48.46-.4.9-.81,1.37-1.2s1-.75,1.43-1.13.86-.73,1.28-1.12S131.85,125.11,132.32,124.74Z"/><path class="cls-1" d="M132.9,123.42a1.72,1.72,0,0,1-.52,1.27l-.06,0-2.53-2.54.05,0a1.81,1.81,0,0,1,.79-.46l.48-.06a1.79,1.79,0,0,1,1.79,1.79Z"/><path class="cls-1" d="M129.79,122.2l2.53,2.54c-.46.37-.92.75-1.36,1.16s-.84.76-1.28,1.12-1,.75-1.43,1.13-.92.8-1.37,1.2c-.94.83-1.93,1.6-2.82,2.48s-1.83,1.84-2.74,2.77c-.6.62-1.16,1.26-1.7,1.92L117.1,134c.49-.59,1-1.17,1.52-1.73.85-.91,1.74-1.8,2.63-2.67s1.86-1.69,2.82-2.52c.47-.4.92-.82,1.38-1.21s.95-.75,1.41-1.12,1-.82,1.46-1.26S129.29,122.6,129.79,122.2Z"/><path class="cls-3" d="M120.64,113l9.15,9.19c-.5.41-1,.82-1.47,1.26s-1,.85-1.46,1.26-1,.73-1.41,1.12-.92.82-1.38,1.21c-1,.83-1.92,1.63-2.82,2.52s-1.78,1.76-2.63,2.67c-.53.56-1,1.14-1.52,1.73l-24.48-24.6L79,95.74l1.63-1.62a1.8,1.8,0,0,0,.42-1.85,43.33,43.33,0,0,0,6.17-5.81l.42-.49a1.81,1.81,0,0,0,1.65-.47l2-2Z"/><path class="cls-1" d="M117.1,134l2.52,2.53-1,1.2a1.71,1.71,0,0,1-1.27.53,1.79,1.79,0,0,1-1.79-1.79,1.76,1.76,0,0,1,.24-.9l.28-.36C116.45,134.77,116.77,134.37,117.1,134Z"/><path class="cls-1" d="M92.61,109.38,117.1,134c-.33.4-.65.8-1,1.2l-.28.36a1.76,1.76,0,0,0-.24.9,1.8,1.8,0,0,0,.52,1.26l-.19.19-9.15-9.19L76,97.73l0,0L75.23,97a1.72,1.72,0,0,1-.42-.68,41.78,41.78,0,0,0,4.27-2.59q1-.7,2-1.46a1.8,1.8,0,0,1-.42,1.85L79,95.74Z"/><path class="cls-4" d="M95.59,43.43a43.86,43.86,0,0,1,1.58,22.93,43,43,0,0,1-4.94,13.11,1.81,1.81,0,0,0-2.2.26L86.79,83a1.81,1.81,0,0,0,0,2.53,1.78,1.78,0,0,0,.88.47l-.42.49a43.33,43.33,0,0,1-6.17,5.81,1.74,1.74,0,0,0-.42-.68,1.81,1.81,0,0,0-2.53,0l-2.9,2.88a1.8,1.8,0,0,0-.42,1.85A44.53,44.53,0,0,1,69,98.9,43.58,43.58,0,0,1,11,62a40.28,40.28,0,0,1-.2-4,46.77,46.77,0,0,1,.51-6.74,41.08,41.08,0,0,1,2.78-10,44.85,44.85,0,0,1,2.49-5.12A42.79,42.79,0,0,1,19,32.37l0,0,0,0a3.15,3.15,0,0,1,.39-.52q.85-1.12,1.75-2.2l.16-.21a42,42,0,0,1,3.47-3.6l.34-.31,0,0,.18-.16.09-.07A43.51,43.51,0,0,1,61.75,14.83a43.66,43.66,0,0,1,33.84,28.6ZM91.78,62.85a41.82,41.82,0,0,0,0-10.14,41.11,41.11,0,0,0-2.6-9.53,41.31,41.31,0,0,0-4.92-8.42,41.72,41.72,0,0,0-6.82-6.82A41.5,41.5,0,0,0,69,23a41.18,41.18,0,0,0-9.57-2.61,41.7,41.7,0,0,0-10.13,0A41.21,41.21,0,0,0,39.8,23a41.62,41.62,0,0,0-8.39,4.9q-1,.76-1.87,1.56l-1,.89a42,42,0,0,0-4,4.37l-.38.51h0l0,0a2.84,2.84,0,0,1-.32.44,41.56,41.56,0,0,0-4.18,7.42,41,41,0,0,0-2.6,9.55,41.64,41.64,0,0,0,0,10.13,41.07,41.07,0,0,0,2.61,9.54,41.18,41.18,0,0,0,4.9,8.38,41.72,41.72,0,0,0,6.84,6.85,41.49,41.49,0,0,0,8.35,4.88,41.08,41.08,0,0,0,9.6,2.62,41.74,41.74,0,0,0,10.13,0,41.13,41.13,0,0,0,9.56-2.62,41.49,41.49,0,0,0,8.37-4.9,41.67,41.67,0,0,0,6.84-6.84,41.4,41.4,0,0,0,4.88-8.34A41.12,41.12,0,0,0,91.78,62.85Z"/><path class="cls-5" d="M91.77,52.71a41.82,41.82,0,0,1,0,10.14,41.12,41.12,0,0,1-2.62,9.59,41.4,41.4,0,0,1-4.88,8.34,41.67,41.67,0,0,1-6.84,6.84,41.49,41.49,0,0,1-8.37,4.9,41.13,41.13,0,0,1-9.56,2.62,41.74,41.74,0,0,1-10.13,0,41.08,41.08,0,0,1-9.6-2.62,41.49,41.49,0,0,1-8.35-4.88,41.72,41.72,0,0,1-6.84-6.85,41.18,41.18,0,0,1-4.9-8.38,41.07,41.07,0,0,1-2.61-9.54,41.64,41.64,0,0,1,0-10.13,41,41,0,0,1,2.6-9.55,41.56,41.56,0,0,1,4.18-7.42,2.84,2.84,0,0,0,.32-.44l0,0h0l.38-.51a42,42,0,0,1,4-4.37l1-.89q.91-.81,1.87-1.56A41.62,41.62,0,0,1,39.8,23a41.21,41.21,0,0,1,9.54-2.61,41.7,41.7,0,0,1,10.13,0A41.18,41.18,0,0,1,69,23a41.5,41.5,0,0,1,8.39,4.9,41.72,41.72,0,0,1,6.82,6.82,41.31,41.31,0,0,1,4.92,8.42A41.11,41.11,0,0,1,91.77,52.71Z"/><path class="cls-4" d="M90,79.73a1.81,1.81,0,0,1,2.2-.26A44.19,44.19,0,0,1,87.67,86a1.78,1.78,0,0,1-.88-.47,1.81,1.81,0,0,1,0-2.53Z"/><path class="cls-4" d="M80.66,91.58a1.74,1.74,0,0,1,.42.68q-1,.76-2,1.46a41.78,41.78,0,0,1-4.27,2.59,1.8,1.8,0,0,1,.42-1.85l2.9-2.88A1.81,1.81,0,0,1,80.66,91.58Z"/><path class="cls-6" d="M92.23,79.47a43,43,0,0,0,4.94-13.11A43.61,43.61,0,0,0,61.75,14.83,43.4,43.4,0,0,0,25.51,25.19l-.09.07-.18.16,0,0-.34.31a42,42,0,0,0-3.47,3.6l-.16.21q-.91,1.07-1.75,2.2a3.15,3.15,0,0,0-.39.52l0,0,0,0a42.79,42.79,0,0,0-2.41,3.7,44.85,44.85,0,0,0-2.49,5.12,41.08,41.08,0,0,0-2.78,10,46.77,46.77,0,0,0-.51,6.74,40.28,40.28,0,0,0,.2,4,43.34,43.34,0,0,0,8,21.26A43.79,43.79,0,0,0,36.1,97.34,43,43,0,0,0,47,100.75,43.79,43.79,0,0,0,69,98.9a44.53,44.53,0,0,0,5.86-2.58,41.78,41.78,0,0,0,4.27-2.59q1-.7,2-1.46a43.33,43.33,0,0,0,6.17-5.81l.42-.49A44.19,44.19,0,0,0,92.23,79.47Z"/><path class="cls-6" d="M17.07,52.73a41,41,0,0,1,2.6-9.55,41.56,41.56,0,0,1,4.18-7.42,2.84,2.84,0,0,0,.32-.44l0,0h0l.38-.51a42,42,0,0,1,4-4.37l1-.89q.91-.81,1.87-1.56A41.62,41.62,0,0,1,39.8,23a41.21,41.21,0,0,1,9.54-2.61,41.7,41.7,0,0,1,10.13,0A41.18,41.18,0,0,1,69,23a41.5,41.5,0,0,1,8.39,4.9,41.72,41.72,0,0,1,6.82,6.82,41.31,41.31,0,0,1,4.92,8.42,41.11,41.11,0,0,1,2.6,9.53,41.82,41.82,0,0,1,0,10.14,41.12,41.12,0,0,1-2.62,9.59,41.4,41.4,0,0,1-4.88,8.34,41.67,41.67,0,0,1-6.84,6.84,41.49,41.49,0,0,1-8.37,4.9,41.13,41.13,0,0,1-9.56,2.62,41.74,41.74,0,0,1-10.13,0,41.08,41.08,0,0,1-9.6-2.62,41.49,41.49,0,0,1-8.35-4.88,41.72,41.72,0,0,1-6.84-6.85,41.18,41.18,0,0,1-4.9-8.38,41.07,41.07,0,0,1-2.61-9.54A41.64,41.64,0,0,1,17.07,52.73Z"/></svg>