<svg id="security" xmlns="http://www.w3.org/2000/svg" viewBox="0 0 150 150"><defs><style>.cls-1{fill:#fff;}.cls-2{fill:#bfbebe;}.cls-3{fill:#fbc331;}.cls-4{fill:#ccbb3f;}.cls-5{fill:#d3d3d3;}.cls-6{fill:#7f8080;}</style></defs><title>icons</title><g id="Layer_5" data-name="Layer 5"><path class="cls-1" d="M95,39.43c.93.85,1.85,1.74,2.83,2.56.33.28.65.56,1,.86-.73,0-1.45,0-2.18,0a30.24,30.24,0,0,0-3.69.28L91,43.26c-.6.05-1.21.1-1.81.11a26.07,26.07,0,0,1-3.75-.12c-.62-.08-1.26-.16-1.87-.28l-1.17-.26a10.6,10.6,0,0,1-1.11-.28,2.73,2.73,0,0,1-.43-.26,10.06,10.06,0,0,1-1.3-1.31,10.84,10.84,0,0,1-1-1.78,15.81,15.81,0,0,1-.75-3.18c-.14-1.23-.22-2.46-.24-3.7s0-2.55,0-3.83,0-2.66,0-4c0-.71,0-1.41,0-2.12l.78.77c.92.9,1.86,1.77,2.79,2.67s1.8,1.84,2.72,2.75l2.75,2.74c1,.94,1.92,1.85,2.87,2.79.45.46.9.91,1.37,1.36s1,.91,1.45,1.38C93.19,37.61,94,38.57,95,39.43Z"/><path class="cls-1" d="M73.92,20c0,1.67,0,3.33,0,5v2.31c0,1.32,0,2.65,0,4v.17a33.34,33.34,0,0,0,.15,3.6,28.4,28.4,0,0,0,.7,4.19,12.17,12.17,0,0,0,.81,2,10.27,10.27,0,0,0,1.21,1.91A10.44,10.44,0,0,0,78,44.54a12.65,12.65,0,0,0,1,.8,5.05,5.05,0,0,0,1.68.73,29.62,29.62,0,0,0,3.62.69c.74.1,1.48.19,2.23.23s1.28,0,1.92,0c1.25,0,2.5-.1,3.75-.22s2.52-.29,3.79-.35c.53,0,1.06,0,1.59,0l1.59,0h.67v81.77H23V20h.81a2,2,0,0,0,.59-.1A1.86,1.86,0,0,0,25,20H73.92Zm7.76,36.14a1.83,1.83,0,0,0-.53-1.29,1.75,1.75,0,0,0-1.29-.53c-.59,0-1.18.08-1.78.1s-1.2.1-1.8.11c-1.33,0-2.65,0-4,0s-2.54-.06-3.81-.07-2.75,0-4.12,0-2.71-.13-4.07-.2-2.69-.08-4-.08c-2.66,0-5.31.06-8,.13l-3.74.06-1.95,0c-.5,0-1,0-1.48.08a9,9,0,0,0-1.62.27,4,4,0,0,0-1.47.86,1.76,1.76,0,0,0-.54,1.29,1.83,1.83,0,0,0,1.83,1.83l.48-.06a1.86,1.86,0,0,0,.74-.41,5.59,5.59,0,0,1,.56-.12C42,58,42.94,58,43.84,58l1.77,0,4.18-.09q4-.09,8-.09c2.63,0,5.26.28,7.9.31l4.22,0,3.85.09c1,0,2.08,0,3.12,0s2-.11,3-.19a1.92,1.92,0,0,0,1.29-.53A1.86,1.86,0,0,0,81.68,56.17Zm-.35,14.16A1.83,1.83,0,0,0,80.8,69a1.92,1.92,0,0,0-1.29-.53,15,15,0,0,0-1.77-.06l-1.87.08c-1.3,0-2.59.11-3.89.11-2.69,0-5.39,0-8.08,0s-5.33,0-8-.11c-1.34,0-2.67,0-4-.06s-2.74-.07-4.11-.12-2.73,0-4.09,0c-1.6,0-3.19-.08-4.78-.23a1.74,1.74,0,0,0-1.29.54,1.81,1.81,0,0,0,0,2.58,1.93,1.93,0,0,0,1.29.54c1.47.13,3,.2,4.43.22s2.68,0,4,0,2.69.1,4,.12,2.66,0,4,0,2.54.11,3.81.12h4.19l7.79,0c1.46,0,2.92-.07,4.38-.11l2-.08a15,15,0,0,1,1.9,0,1.76,1.76,0,0,0,1.29-.54A1.83,1.83,0,0,0,81.33,70.33Zm-1.21,12A1.83,1.83,0,0,0,79.59,81l-.37-.28a1.77,1.77,0,0,0-.92-.25,37.6,37.6,0,0,0-3.83-.11l-4.09-.08c-1.28,0-2.56-.06-3.85,0s-2.62.09-3.93.18c-2.71.17-5.42.25-8.14.39s-5.45.47-8.18.51c-.58,0-1.15,0-1.72,0-1.06,0-2.12-.07-3.17-.19-.71-.11-1.42-.24-2.12-.36a1.92,1.92,0,0,0-1.41.18A1.8,1.8,0,0,0,37,82.06a2,2,0,0,0-.07.48,1.88,1.88,0,0,0,.25.93,1.77,1.77,0,0,0,1.09.84,35.88,35.88,0,0,0,5.45.66c.7,0,1.4.06,2.09,0,1.41,0,2.8-.08,4.21-.2s2.69-.21,4-.29,2.62-.12,3.93-.18,2.7-.12,4.05-.21,2.63-.17,4-.2c2.66,0,5.32.08,8,.1,1.43,0,2.88,0,4.31.12a1.75,1.75,0,0,0,1.29-.53A1.84,1.84,0,0,0,80.12,82.33Zm-2.53,31.42a1.83,1.83,0,0,0-1-3.53l-.74.16c-.44,0-.88.07-1.32.08s-1.11,0-1.66,0c-1.19,0-2.39-.08-3.58-.14s-2.27-.11-3.4-.19-2.21-.2-3.31-.33c-1.28-.19-2.57-.43-3.86-.54S56,109,54.66,109s-2.63,0-3.94,0-2.67.11-4,.18c-3.22.17-6.45.13-9.68.2a1.83,1.83,0,0,0,0,3.65c2.85-.06,5.7,0,8.55-.14,1.36,0,2.72-.14,4.08-.2s2.59-.07,3.89-.09a49.35,49.35,0,0,1,5.95.35c1.31.19,2.63.4,4,.54s2.62.26,3.94.32l4.07.2,2,.06c.63,0,1.27,0,1.9,0A13.54,13.54,0,0,0,77.59,113.75ZM77.91,98a1.83,1.83,0,0,0,0-3.66c-1.29,0-2.57,0-3.86,0-.62,0-1.24-.08-1.86-.15a17.16,17.16,0,0,0-1.89-.14c-1.34,0-2.66-.09-4-.18s-2.61-.1-3.91-.06-2.64.17-4,.27-2.59.18-3.88.22c-2.73.09-5.45.06-8.18.13s-5.62,0-8.42.19a2,2,0,0,0-1.3.54,1.83,1.83,0,0,0,0,2.58,1.77,1.77,0,0,0,1.3.53c2.76-.19,5.54-.11,8.3-.18s5.47,0,8.21-.14c1.29,0,2.59-.12,3.88-.21s2.63-.24,3.95-.27,2.65,0,4,0,2.6.16,3.91.18a17.32,17.32,0,0,1,1.9.13c.64.08,1.29.13,1.94.16C75.32,98.09,76.62,98,77.91,98Z"/><path class="cls-2" d="M75.29,16.38c.42.2.82.41,1.23.63a1.79,1.79,0,0,0-1,.44,1.85,1.85,0,0,0-1.53,1.79c0,.26,0,.53,0,.79H25a1.86,1.86,0,0,1-.58-.1,2,2,0,0,1-.59.1H23V128.28H99.85V46.51a1.84,1.84,0,0,0,1.79-1.82.57.57,0,0,0,0-.13,1.8,1.8,0,0,0,1.5-1.77l.07.1.3.44V130.1a1.84,1.84,0,0,1-1.83,1.83H21.19a1.84,1.84,0,0,1-1.82-1.83V18.2a1.84,1.84,0,0,1,1.82-1.82h2.64a2,2,0,0,1,.59.09,1.85,1.85,0,0,1,.58-.09H75.29Z"/><path class="cls-2" d="M103.13,42.79q-.39-.6-.81-1.17C102.61,42,102.87,42.39,103.13,42.79Z"/><path class="cls-2" d="M101.63,44.56a1.8,1.8,0,0,1-1.61-.5l-.17-.17v-1A1.84,1.84,0,0,1,101.63,44.56Z"/><path class="cls-2" d="M103.13,42.79a1.8,1.8,0,0,1-1.5,1.77,1.84,1.84,0,0,0-1.78-1.7V38.94l0,0c.19.22.39.44.59.65s.47.53.71.8.77.78,1.13,1.2S102.87,42.39,103.13,42.79Z"/><path class="cls-2" d="M101.64,44.69a1.84,1.84,0,0,1-1.79,1.82V43.89l.17.17a1.8,1.8,0,0,0,1.61.5A.57.57,0,0,1,101.64,44.69Z"/><path class="cls-2" d="M99.85,38.92l0,0,0,0Z"/><path class="cls-2" d="M99.81,42.86h0v1c-.35-.36-.71-.71-1.08-1C99.11,42.87,99.46,42.87,99.81,42.86Z"/><path class="cls-2" d="M80.8,69a1.83,1.83,0,0,1,0,2.58,1.76,1.76,0,0,1-1.29.54,15,15,0,0,0-1.9,0l-2,.08c-1.46,0-2.92.1-4.38.11l-7.79,0H59.24c-1.27,0-2.54-.08-3.81-.12s-2.66,0-4,0-2.69-.09-4-.12-2.69,0-4,0-3-.09-4.43-.22a1.93,1.93,0,0,1-1.29-.54,1.81,1.81,0,0,1,0-2.58,1.74,1.74,0,0,1,1.29-.54c1.59.15,3.18.21,4.78.23,1.36,0,2.73,0,4.09,0s2.74.1,4.11.12,2.66,0,4,.06c2.65.11,5.32.13,8,.11s5.39,0,8.08,0c1.3,0,2.59-.07,3.89-.11l1.87-.08a15,15,0,0,1,1.77.06A1.92,1.92,0,0,1,80.8,69Z"/><path class="cls-2" d="M79.22,80.76l.37.28a1.85,1.85,0,0,1,0,2.59,1.75,1.75,0,0,1-1.29.53C76.87,84,75.42,84.06,74,84c-2.66,0-5.32-.15-8-.1-1.32,0-2.64.12-4,.2s-2.7.15-4.05.21-2.62.1-3.93.18-2.69.18-4,.29-2.8.18-4.21.2c-.69,0-1.39,0-2.09,0a35.88,35.88,0,0,1-5.45-.66,1.77,1.77,0,0,1-1.09-.84,1.88,1.88,0,0,1-.25-.93,2,2,0,0,1,.07-.48A1.8,1.8,0,0,1,37.86,81a1.92,1.92,0,0,1,1.41-.18c.7.12,1.41.25,2.12.36,1,.12,2.11.16,3.17.19.57,0,1.14,0,1.72,0,2.73,0,5.45-.36,8.18-.51s5.43-.22,8.14-.39q2-.13,3.93-.18c1.29,0,2.57,0,3.85,0l4.09.08a37.6,37.6,0,0,1,3.83.11A1.77,1.77,0,0,1,79.22,80.76Z"/><path class="cls-2" d="M79.11,18.55c.45.39.83.84,1.25,1.26l.22.22H80.5l-.31-.3-1.43-1.41Z"/><path class="cls-2" d="M78.86,111.5a1.84,1.84,0,0,1-1.27,2.25,13.54,13.54,0,0,1-2.21.33c-.63,0-1.27,0-1.9,0l-2-.06-4.07-.2c-1.32-.06-2.63-.18-3.94-.32s-2.64-.35-4-.54a49.35,49.35,0,0,0-5.95-.35c-1.3,0-2.6,0-3.89.09s-2.72.15-4.08.2c-2.85.11-5.7.08-8.55.14a1.83,1.83,0,0,1,0-3.65c3.23-.07,6.46,0,9.68-.2,1.33-.07,2.66-.14,4-.18s2.63-.09,3.94,0,2.73.13,4.09.24,2.58.35,3.86.54c1.1.13,2.2.25,3.31.33s2.27.13,3.4.19,2.39.11,3.58.14c.55,0,1.11,0,1.66,0s.88,0,1.32-.08l.74-.16A1.85,1.85,0,0,1,78.86,111.5Z"/><path class="cls-2" d="M77.57,20H80.5c.85.83,1.7,1.65,2.56,2.46s1.77,1.79,2.67,2.68l2.76,2.74c.93.93,1.88,1.84,2.82,2.76s1.89,1.88,2.87,2.8S96,35.33,96.9,36.22c.47.46,1,.89,1.44,1.34s.93.87,1.41,1.29l.1.09v3.92h0c-.35,0-.7,0-1,0-.31-.3-.63-.58-1-.86-1-.82-1.9-1.71-2.83-2.56s-1.79-1.82-2.7-2.72c-.47-.47-1-.92-1.45-1.38s-.92-.9-1.37-1.36c-.95-.94-1.92-1.85-2.87-2.79l-2.75-2.74c-.92-.91-1.79-1.86-2.72-2.75S79.25,23.92,78.33,23l-.78-.77c0-.58,0-1.17,0-1.75C77.56,20.34,77.57,20.19,77.57,20Z"/><path class="cls-2" d="M79.74,96.21A1.84,1.84,0,0,1,77.91,98c-1.29,0-2.59,0-3.88,0-.65,0-1.3-.08-1.94-.16a17.32,17.32,0,0,0-1.9-.13c-1.31,0-2.61-.11-3.91-.18s-2.65-.09-4,0-2.63.17-3.95.27-2.59.17-3.88.21c-2.74.1-5.47.07-8.21.14s-5.54,0-8.3.18a1.77,1.77,0,0,1-1.3-.53,1.83,1.83,0,0,1,0-2.58,2,2,0,0,1,1.3-.54c2.8-.19,5.61-.12,8.42-.19s5.45,0,8.18-.13c1.29,0,2.59-.13,3.88-.22s2.63-.23,4-.27,2.61,0,3.91.06,2.66.16,4,.18a17.16,17.16,0,0,1,1.89.14c.62.07,1.24.14,1.86.15,1.29,0,2.57,0,3.86,0A1.85,1.85,0,0,1,79.74,96.21Z"/><path class="cls-2" d="M77.55,22.25c-.72-.72-1.45-1.43-2.18-2.13A.28.28,0,0,1,75.3,20h2.27c0,.16,0,.31,0,.47C77.55,21.08,77.55,21.67,77.55,22.25Z"/><path class="cls-2" d="M77,17.24l.36.21-.36-.2-.1-.06Z"/><path class="cls-2" d="M77.59,19.24a1.83,1.83,0,0,0-1.82-1.82,1.53,1.53,0,0,0-.3,0,1.79,1.79,0,0,1,1-.44h0l.32.18.1.06.36.2c.28.15.55.31.82.48l.62.38h0l1.43,1.41.31.3H77.57C77.58,19.77,77.58,19.5,77.59,19.24Z"/><path class="cls-2" d="M75.77,17.42a1.83,1.83,0,0,1,1.82,1.82c0,.26,0,.53,0,.79H75.3a1.68,1.68,0,0,1-.46-1.19,1.85,1.85,0,0,1,.53-1.31l.1-.08A1.53,1.53,0,0,1,75.77,17.42Z"/><path class="cls-2" d="M75.37,20.12c.73.7,1.46,1.41,2.18,2.13,0,.71,0,1.41,0,2.12,0,1.34,0,2.67,0,4s0,2.55,0,3.83.1,2.47.24,3.7a15.81,15.81,0,0,0,.75,3.18,10.84,10.84,0,0,0,1,1.78,10.06,10.06,0,0,0,1.3,1.31,2.73,2.73,0,0,0,.43.26,10.6,10.6,0,0,0,1.11.28l1.17.26c.61.12,1.25.2,1.87.28a26.07,26.07,0,0,0,3.75.12c.6,0,1.21-.06,1.81-.11l1.92-.17a30.24,30.24,0,0,1,3.69-.28c.73,0,1.45,0,2.18,0,.37.33.73.68,1.08,1v2.62h-.67l-1.59,0c-.53,0-1.06-.05-1.59,0-1.27.06-2.53.23-3.79.35s-2.5.22-3.75.22c-.64,0-1.28,0-1.92,0s-1.49-.13-2.23-.23a29.62,29.62,0,0,1-3.62-.69A5.05,5.05,0,0,1,79,45.34a12.65,12.65,0,0,1-1-.8,10.44,10.44,0,0,1-1.24-1.33,10.27,10.27,0,0,1-1.21-1.91,12.17,12.17,0,0,1-.81-2,28.4,28.4,0,0,1-.7-4.19,33.34,33.34,0,0,1-.15-3.6v-.17c0-1.33,0-2.66,0-4V25c0-1.67,0-3.33,0-5H75.3A.28.28,0,0,0,75.37,20.12Z"/><path class="cls-2" d="M74.84,18.84A1.68,1.68,0,0,0,75.3,20H73.92c0-.26,0-.53,0-.79a1.85,1.85,0,0,1,1.53-1.79l-.1.08A1.85,1.85,0,0,0,74.84,18.84Z"/><path class="cls-2" d="M40.57,58.24a1.86,1.86,0,0,1-.74.41l-.48.06a1.83,1.83,0,0,1-1.83-1.83,1.76,1.76,0,0,1,.54-1.29,4,4,0,0,1,1.47-.86,9,9,0,0,1,1.62-.27c.49,0,1-.06,1.48-.08l1.95,0,3.74-.06c2.65-.07,5.3-.12,8-.13,1.34,0,2.69,0,4,.08s2.72.15,4.07.2,2.75,0,4.12,0,2.54,0,3.81.07,2.64.06,4,0c.6,0,1.2-.08,1.8-.11s1.19-.06,1.78-.1a1.75,1.75,0,0,1,1.29.53,1.83,1.83,0,0,1,.53,1.29,1.86,1.86,0,0,1-.53,1.3,1.92,1.92,0,0,1-1.29.53c-1,.08-2,.11-3,.19s-2.08.06-3.12,0l-3.85-.09-4.22,0c-2.64,0-5.27-.3-7.9-.31s-5.34,0-8,.09L45.61,58l-1.77,0c-.9,0-1.81,0-2.71.12A5.59,5.59,0,0,0,40.57,58.24Z"/></g><g id="_Group_" data-name="&lt;Group&gt;"><path class="cls-3" d="M139.5,92.64a8.09,8.09,0,0,1,.08,1q0,.64,0,1.29c0,.84-.05,1.68,0,2.53s.06,1.7.16,2.55.26,1.77.39,2.65c.06.44.11.89.15,1.33s.06,1,.09,1.43c0,.9.11,1.8.19,2.7s.16,1.84.2,2.76.06,1.94.08,2.9a68.6,68.6,0,0,1-.28,10.24c-.14,1-.28,2-.48,3-.1.53-.22,1.07-.34,1.6s-.21,1.15-.29,1.73a1.85,1.85,0,0,1,0,.23,1,1,0,0,0,.11.41c-.82.42-1.62.88-2.42,1.35-.39.22-.78.44-1.16.67l-1.15.72c-.77.48-1.54,1-2.32,1.44s-1.6.92-2.39,1.39l-.79.45c0-.87,0-1.74,0-2.61s0-1.63,0-2.45-.09-1.89-.14-2.84-.07-1.88-.13-2.82-.1-1.77-.08-2.65.06-2,.1-3c.08-1.86.15-3.72.18-5.58,0-1,0-2,0-3v-.5c0-.74,0-1.47,0-2.2,0-1-.11-2-.25-3l-.42-2.89c-.06-.48-.15-1-.23-1.44a12.34,12.34,0,0,0-.44-1.69,17.14,17.14,0,0,0-.74-1.78l.56-.24c.83-.36,1.64-.74,2.44-1.16s1.69-.91,2.57-1.31,1.65-.72,2.43-1.18,1.27-.79,1.91-1.18c.29-.18.59-.35.86-.55s.53-.38.78-.59a9.1,9.1,0,0,0,.69-.7s0,0,0,0C139.39,92,139.45,92.31,139.5,92.64Z"/><path class="cls-3" d="M82,134.41c0,.84.09,1.68.16,2.52l-1.09-.52c-.39-.2-.79-.39-1.17-.62l-1.15-.7c-.41-.25-.8-.5-1.22-.73l-1.14-.6c-.42-.22-.84-.44-1.26-.64s-.92-.38-1.39-.55-.89-.32-1.34-.48-.83-.33-1.26-.48l-1-.32a.17.17,0,0,0,0-.07q0-1.44-.09-2.88c-.06-.9-.07-1.8-.11-2.71s0-1.83,0-2.75,0-1.94,0-2.9c0-1.83,0-3.65,0-5.48s0-3.87,0-5.8c0-.89.05-1.79.08-2.68s0-1.94.09-2.91.14-1.91.18-2.86-.06-1.85-.1-2.77a30,30,0,0,1,.38-5c0-.27.07-.54.12-.8s.17-.75.27-1.13c0-.09,0-.19.07-.28l.44.13c.23.06.46.12.68.2l.57.22c.29.13.57.26.86.41s.58.33.87.5l1.85,1.09c.59.34,1.19.67,1.76,1s1.09.77,1.62,1.17c.32.25.65.5,1,.77s.69.63,1.06.92a.75.75,0,0,0-.2.37l-.18,1c0,.3-.11.59-.14.89-.06.45-.13.9-.16,1.36s-.07,1-.08,1.52c0,.28,0,.56,0,.84v.66c0,.9.05,1.79.06,2.69l0,2.87c0,.47,0,.93,0,1.4s.08,1,.13,1.57c.08.94.15,1.88.21,2.83s.12,1.83.18,2.74.11,1.94.15,2.91c.08,1.92.14,3.83.13,5.75,0,.93,0,1.86,0,2.79,0,.5,0,1,0,1.5s0,.85.07,1.27C82,132.55,82,133.48,82,134.41Z"/><path class="cls-3" d="M84.77,137,84,137c-.08-.87-.13-1.74-.16-2.61s-.07-1.89-.13-2.83c0-.44-.06-.87-.06-1.31s0-1,0-1.49c0-.94,0-1.87,0-2.8,0-1.92-.06-3.83-.14-5.75q-.06-1.44-.15-2.88c-.06-.9-.13-1.81-.18-2.72s-.13-1.91-.21-2.87c0-.5-.09-1-.13-1.51s0-1,0-1.47c0-.94,0-1.89,0-2.84s-.05-1.78-.06-2.66c0-.7,0-1.4,0-2.09,0-.36,0-.73.08-1.08l.12-1c.09-.51.18-1,.28-1.53a1.07,1.07,0,0,0,0-.25l.15,0,.73.08c.45,0,.9.06,1.35.07,1,0,1.91,0,2.87,0s1.91,0,2.87-.05c2,0,3.9-.15,5.85-.17s3.85,0,5.78,0c1,0,1.89,0,2.84,0s1.82,0,2.72.08c.48,0,1,0,1.43.1l1.42.15c1,.09,2,.16,2.93.23,1.37.1,2.73.2,4.1.36l2.89.44c.56.08,1.13.15,1.7.21s.91.06,1.36.11l.42.08a3.53,3.53,0,0,0,.55.1h.17a1.14,1.14,0,0,0,.09.26c.14.3.28.59.41.89a17.13,17.13,0,0,1,1,4.18l.36,2.45c.09.9.17,1.81.19,2.72s0,2,0,3c0,1.85,0,3.71-.1,5.56,0,1-.07,2-.11,3s-.09,1.82-.09,2.73.06,1.93.11,2.9.08,1.88.13,2.83c.07,1.33.13,2.65.14,4v1.14c0,1,0,2,0,2.93a.67.67,0,0,0,.06.28l-.62.3a4.89,4.89,0,0,1-.76.16l-.77.15c-.47.08-.94.2-1.41.28a2.83,2.83,0,0,1-.41,0c-.21,0-.42,0-.62-.05l-1.3-.13-2.77-.29c-1-.09-1.89-.14-2.84-.2l-2.68-.2c-1.85-.12-3.69-.35-5.54-.53-.94-.09-1.87-.21-2.81-.29s-1.86-.13-2.79-.16l-3-.13c-.89,0-1.79-.07-2.68-.07H90.9c-1.33,0-2.67,0-4,0C86.19,136.87,85.48,136.9,84.77,137Z"/><path class="cls-4" d="M132.48,94l-1.26.59-1.13-2.26a.81.81,0,0,0,.41-.74c-.06-.87-.14-1.75-.15-2.63v-.13c1.16.13,2.32.24,3.49.39,1,.14,2,.31,2.92.51a13.16,13.16,0,0,1,1.4.39l.24.08a.65.65,0,0,0-.34.21,8.63,8.63,0,0,1-.86.85c-.75.52-1.53,1-2.3,1.46-.38.24-.77.47-1.16.68S132.91,93.82,132.48,94Z"/><path class="cls-4" d="M78,90a.87.87,0,0,0,1,.64v0l9.62.13a.8.8,0,0,0,.42-.13.62.62,0,0,0,.24-.21h0a.79.79,0,0,0,.2-.53c0-.23,0-.46,0-.68s0-.7,0-1,0-.76-.06-1.15c.92,0,1.84,0,2.77,0,1.83,0,3.67.1,5.5.13s3.78,0,5.67,0,3.76,0,5.64.06l2.81.08,2.78.09c1.38.07,2.77.15,4.15.28-.1,1-.22,2-.34,3v.06a.89.89,0,0,0,.26.56.88.88,0,0,0,.63.26l10.24,1,.17,0a.89.89,0,0,0,.47-.14l1.13,2.26q-.6.29-1.2.6-1.22.66-2.46,1.26l-.89.39c-.18.07-.36.15-.55.21a5.87,5.87,0,0,1-.81.26h0l-.6-.12c-.33,0-.67-.08-1-.1-.57,0-1.13-.09-1.69-.17-.84-.11-1.68-.24-2.52-.37s-1.91-.26-2.88-.35c-1.84-.17-3.7-.24-5.55-.44-1-.1-1.93-.18-2.91-.24s-2,0-2.93-.08c-1.86,0-3.72,0-5.57,0s-3.86,0-5.79.09l-2.8.09-2.86,0c-.87,0-1.73,0-2.6,0a17.49,17.49,0,0,1-2-.13,5.09,5.09,0,0,1-.56-.14l-.18-.11c-.32-.26-.61-.55-.93-.81s-.81-.65-1.22-1A23,23,0,0,0,78.41,92c-.81-.48-1.63-.93-2.44-1.42l-1.16-.68c-.42-.24-.85-.45-1.29-.65a11.73,11.73,0,0,0-1.92-.65l.07-.18a.88.88,0,0,0,.51,0l1.08-.23.79-.13c.51-.06,1-.12,1.53-.15l1.84-.12.25,0C77.75,88.51,77.85,89.24,78,90Z"/><path class="cls-5" d="M87.15,85.17l.08.1a0,0,0,0,1,0,0s0,0,0,.06,0,0,0,.06a.29.29,0,0,1,0,.09,0,0,0,0,1,0,0,.06.06,0,0,1,0,0,1.47,1.47,0,0,1,0,.21V86c0,.1,0,.2,0,.3v.46a.67.67,0,0,1,0,.24h.24c0,.79.08,1.57.1,2.35,0,.16,0,.33,0,.49a.85.85,0,0,0,.17.49.86.86,0,0,0,.71.39L79,90.62v0l.13,0a.84.84,0,0,0,.41-.28,1.27,1.27,0,0,0,.11-.13.88.88,0,0,0,.09-.67.06.06,0,0,0,0,0c-.06-.35-.13-.68-.18-1,0,0,0-.09,0-.14a.86.86,0,0,1-.07-.1.91.91,0,0,1-.14-.61,2.17,2.17,0,0,1,0-.26v-.28a1.66,1.66,0,0,1,0-.22,1.62,1.62,0,0,1,0-.22,0,0,0,0,0,0,0v-.11c0-.18,0-.37,0-.55a.28.28,0,0,1,0-.09H79.1l0-.17a.94.94,0,0,0,.12-.18c0-.23,0-.45,0-.68v0a.5.5,0,0,1,.08-.27c0-.26,0-.51-.06-.77,0-.45-.12-.91-.19-1.36-.11-.86-.17-1.73-.2-2.6s-.06-1.81,0-2.72.11-1.84.19-2.76.16-1.86.23-2.79c0-.17,0-.33,0-.5.06-.33.11-.65.17-1s.14-.71.2-1.06c.11-.73.19-1.47.29-2.2s.29-1.46.49-2.18.44-1.34.69-2,.53-1.41.77-2.12.44-1.31.7-2A13,13,0,0,1,83.44,57c.33-.49.68-1,1-1.45A28.63,28.63,0,0,1,86.77,53a30,30,0,0,1,2.59-2.19c.32-.26.65-.51,1-.75s.85-.6,1.28-.88.86-.55,1.31-.8a10.7,10.7,0,0,1,1.23-.59c.51-.21,1-.42,1.56-.58s1.2-.35,1.81-.53,1.2-.35,1.82-.49,1.11-.25,1.67-.34c.76-.06,1.52-.07,2.29-.06s1.61.09,2.41.12,1.59,0,2.38.05c.41,0,.81,0,1.22,0s.62.06.94.1h.08l.13,0,1.54.21c.5.07,1,.15,1.48.26a14,14,0,0,1,1.44.43,13.26,13.26,0,0,1,1.45.75c.49.29,1,.61,1.46.93l1.43,1c.48.33,1,.65,1.41,1a9.16,9.16,0,0,1,1,.88c.32.34.63.69.94,1a17.16,17.16,0,0,1,1.1,1.79c.34.62.66,1.24,1,1.88s.61,1.6.91,2.39.6,1.7.91,2.55.63,1.79.88,2.7.43,1.71.65,2.56c.15.58.31,1.15.44,1.73s.21,1,.29,1.55a48.39,48.39,0,0,1,.21,5.38c0,.9,0,1.79,0,2.69s-.1,1.82-.14,2.73c0,1.07-.06,2.15-.08,3.22,0,.52,0,1-.06,1.57s-.08.88-.13,1.32a.13.13,0,0,0,0,.06.25.25,0,0,0,0,.12h0V87l0,.58c0,.35,0,.7-.06,1h0l.21,0a1.77,1.77,0,0,0,0,.23c0,.91.08,1.81.15,2.71a.58.58,0,0,0,0,.19v0a.87.87,0,0,0,.22.41.85.85,0,0,0,.45.23l-10.24-1a.85.85,0,0,0,.62-.26l.14-.18s0,0,0,0a.88.88,0,0,0,.11-.42l.18-1.47a.41.41,0,0,1,0-.19c0-.13,0-.26,0-.39a1.85,1.85,0,0,1,0-.23l0-.31s0-.06,0-.1a.34.34,0,0,1,0-.14v0c.05-.5.12-1,.19-1.49v0a1.1,1.1,0,0,0,0-.18c0-.13,0-.25,0-.37a2,2,0,0,0,0-.24c0-.13,0-.25,0-.38l0-.15a.72.72,0,0,0-.09-.2c0-.46,0-.92.07-1.39.05-.88.15-1.76.19-2.65.08-1.84.08-3.69,0-5.54s-.13-3.66-.29-5.49c-.08-1-.26-2-.44-3a27,27,0,0,0-.62-2.66,17.41,17.41,0,0,0-1-2.67,15.44,15.44,0,0,0-1.29-2.36c-.3-.41-.61-.81-.93-1.19s-.66-.69-1-1a10.67,10.67,0,0,0-1-.91A8.49,8.49,0,0,0,113,55c-.77-.43-1.58-.81-2.38-1.18A9.51,9.51,0,0,0,107.7,53a8.1,8.1,0,0,0-1.3-.07c-.48,0-1,0-1.42.06a18.29,18.29,0,0,0-2.76.47c-.88.24-1.74.49-2.59.8A22.74,22.74,0,0,0,97,55.46a14.36,14.36,0,0,0-2.35,1.68,22,22,0,0,0-1.94,1.8c-.64.67-1.25,1.37-1.83,2.08a17.38,17.38,0,0,0-1.66,2.34,8.95,8.95,0,0,0-1.4,4c-.07.44-.13.9-.2,1.34s-.14.92-.2,1.38-.1,1-.13,1.45c-.06.89-.14,1.77-.18,2.66s0,1.84-.06,2.77,0,1.77,0,2.66v.12c0,1.79,0,3.57,0,5.36Z"/><path class="cls-6" d="M130.5,91.6a.81.81,0,0,1-.41.74.89.89,0,0,1-.47.14l-.17,0a.85.85,0,0,1-.45-.23.87.87,0,0,1-.22-.41v0a.58.58,0,0,1,0-.19c-.07-.9-.15-1.8-.15-2.71a1.77,1.77,0,0,1,0-.23l1.2.12.55.06V89C130.36,89.85,130.44,90.73,130.5,91.6Z"/><path class="cls-6" d="M77.67,87.77c.54,0,1.07-.11,1.61-.18a.91.91,0,0,0,.14.61.86.86,0,0,0,.07.1s0,.09,0,.14c0,.34.12.67.18,1a.06.06,0,0,1,0,0,.88.88,0,0,1-.09.67,1.27,1.27,0,0,1-.11.13.84.84,0,0,1-.41.28l-.13,0A.87.87,0,0,1,78,90C77.85,89.24,77.75,88.51,77.67,87.77Z"/><path class="cls-6" d="M89.4,88.15c0,.34,0,.69,0,1a.86.86,0,0,0-.7-.36.9.9,0,0,0-.89.88.84.84,0,0,0,.24.58l-.22.07a.85.85,0,0,1-.17-.49c0-.16,0-.33,0-.49,0-.78-.07-1.56-.1-2.35l1.75,0C89.37,87.39,89.38,87.76,89.4,88.15Z"/><path class="cls-6" d="M122.48,140.53l-1.41-.15-2.76-.28c-.91-.08-1.83-.12-2.75-.19l-2.79-.2c-.92-.06-1.83-.17-2.75-.27l-2.72-.27c-1-.1-1.9-.22-2.85-.28s-1.9-.11-2.85-.14-1.87-.08-2.8-.13-1.92-.05-2.88-.05H90.29l-2.84,0-1.34,0c-.46,0-.93,0-1.4.07s-.93.11-1.4.15h-.17l0-.58a.87.87,0,0,0,.88-.88l0-.39.81-.07c.71,0,1.42-.08,2.13-.1,1.33,0,2.67,0,4,0h5.68c.89,0,1.79,0,2.68.07l3,.13c.93,0,1.86.09,2.79.16s1.87.2,2.81.29c1.85.18,3.69.41,5.54.53l2.68.2c1,.06,1.89.11,2.84.2l2.77.29,1.3.13c.2,0,.41.05.62.05a2.83,2.83,0,0,0,.41,0c.47-.08.94-.2,1.41-.28l.77-.15a4.89,4.89,0,0,0,.76-.16l.62-.3a.86.86,0,0,0,.82.6.72.72,0,0,0,.33-.07l.34.67c-.33.19-.67.36-1,.52a5.24,5.24,0,0,1-.64.29,3.41,3.41,0,0,1-.46.1l-.55.1-1.3.25a6.68,6.68,0,0,1-1.41.22A10.16,10.16,0,0,1,122.48,140.53Z"/><path class="cls-6" d="M129.29,137.66a.85.85,0,0,1-.56.81.72.72,0,0,1-.33.07.86.86,0,0,1-.82-.6c.57-.28,1.13-.59,1.69-.91C129.27,137.24,129.28,137.45,129.29,137.66Z"/><path class="cls-6" d="M89,90.62a.8.8,0,0,1-.42.13.86.86,0,0,1-.71-.39l.22-.07a.87.87,0,0,0,.65.3.75.75,0,0,0,.26,0Z"/><path class="cls-6" d="M85.59,95.7c.87,0,1.73,0,2.6,0l2.86,0,2.8-.09c1.93-.08,3.85-.09,5.79-.09s3.71,0,5.57,0c1,0,2,0,2.93.08s1.94.14,2.91.24c1.85.2,3.71.27,5.55.44,1,.09,1.92.2,2.88.35s1.68.26,2.52.37c.56.08,1.12.13,1.69.17.34,0,.68.05,1,.1l.6.12h0a5.87,5.87,0,0,0,.81-.26c.19-.06.37-.14.55-.21l.89-.39q1.24-.6,2.46-1.26.6-.32,1.2-.6l1.26-.59c.43-.19.85-.37,1.26-.6s.78-.44,1.16-.68c.77-.48,1.55-.94,2.3-1.46a8.63,8.63,0,0,0,.86-.85.65.65,0,0,1,.34-.21l.73.23c.07.4.14.8.2,1.2,0,0,0,0,0,0a9.1,9.1,0,0,1-.69.7c-.25.21-.51.4-.78.59s-.57.37-.86.55c-.64.39-1.27.8-1.91,1.18s-1.62.8-2.43,1.18-1.73.85-2.57,1.31-1.61.8-2.44,1.16l-.56.24-.06-.13a.85.85,0,0,0-.53-.4.86.86,0,0,0-1.08.61.6.6,0,0,0,0,.22.64.64,0,0,0,0,.2h-.17a3.53,3.53,0,0,1-.55-.1l-.42-.08c-.45,0-.91-.07-1.36-.11s-1.14-.13-1.7-.21l-2.89-.44c-1.37-.16-2.73-.26-4.1-.36-1-.07-2-.14-2.93-.23l-1.42-.15c-.47,0-.95-.07-1.43-.1-.9,0-1.81-.06-2.72-.08s-1.89,0-2.84,0c-1.93,0-3.85,0-5.78,0s-3.9.12-5.85.17c-1,0-1.92,0-2.87.05s-1.92,0-2.87,0c-.45,0-.9,0-1.35-.07l-.73-.08-.15,0a.85.85,0,0,0-.12-.43.89.89,0,0,0-.52-.41.94.94,0,0,0-.89.25c-.37-.29-.71-.61-1.06-.92s-.65-.52-1-.77c-.53-.4-1.07-.8-1.62-1.17s-1.17-.7-1.76-1l-1.85-1.09c-.29-.17-.58-.35-.87-.5s-.57-.28-.86-.41l-.57-.22c-.22-.08-.45-.14-.68-.2l-.44-.13c.16-.57.35-1.13.55-1.68a11.73,11.73,0,0,1,1.92.65c.44.2.87.41,1.29.65l1.16.68c.81.49,1.63.94,2.44,1.42a23,23,0,0,1,2.24,1.56c.41.32.82.64,1.22,1s.61.55.93.81l.18.11a5.09,5.09,0,0,0,.56.14A17.49,17.49,0,0,0,85.59,95.7Z"/><path class="cls-6" d="M129.07,139.14l-.34-.67a.85.85,0,0,0,.56-.81c0-.21,0-.42,0-.63l.79-.45c.79-.47,1.59-.92,2.39-1.39s1.55-1,2.32-1.44l1.15-.72c.38-.23.77-.45,1.16-.67.8-.47,1.6-.93,2.42-1.35,0,0,0,0,0,0a.88.88,0,0,0,.52.4.85.85,0,0,0,.68-.09l.11-.07a.88.88,0,0,1-.32,1.18c-.64.33-1.26.67-1.87,1s-1.5.86-2.22,1.31l-2.4,1.5c-.74.47-1.51.89-2.27,1.33s-1.58.94-2.4,1.37Z"/><path class="cls-6" d="M68.54,131.63a.87.87,0,0,0,1.64-.34l1,.32c.43.15.84.32,1.26.48s.89.33,1.34.48.94.34,1.39.55.84.42,1.26.64l1.14.6c.42.23.81.48,1.22.73l1.15.7c.38.23.78.42,1.17.62l1.09.52c0,.16,0,.32,0,.48a1,1,0,0,0,.25.63.91.91,0,0,0,.63.25l0,.58a2.67,2.67,0,0,1-1-.1c-.24-.09-.48-.18-.72-.29-.39-.17-.78-.36-1.16-.55s-.79-.39-1.17-.61l-1.15-.71c-.41-.24-.8-.5-1.22-.73s-.76-.39-1.14-.59-.82-.44-1.23-.63c-.8-.33-1.61-.6-2.41-.9-.41-.15-.81-.32-1.22-.46s-1-.35-1.55-.51a.91.91,0,0,1-.65-.85.62.62,0,0,1,0-.23Z"/><path class="cls-6" d="M88.09,90.29a.84.84,0,0,1-.24-.58.9.9,0,0,1,.89-.88.86.86,0,0,1,.7.36c0,.22,0,.45,0,.68a.79.79,0,0,1-.2.53h0a.7.7,0,0,1-.24.13.75.75,0,0,1-.26,0A.87.87,0,0,1,88.09,90.29Z"/><path class="cls-6" d="M142.64,116.53c0,1,0,1.9,0,2.85s-.08,2-.15,3-.2,1.94-.34,2.91-.28,1.86-.47,2.79c-.09.44-.2.87-.29,1.31s-.17,1-.24,1.5a.76.76,0,0,1-.3.45v0a.85.85,0,0,0-.52-.41,1,1,0,0,0-.69.09l-.11.06a1,1,0,0,1-.11-.41,1.85,1.85,0,0,0,0-.23c.08-.58.17-1.16.29-1.73s.24-1.07.34-1.6c.2-1,.34-2,.48-3a68.6,68.6,0,0,0,.28-10.24c0-1,0-1.93-.08-2.9s-.11-1.84-.2-2.76-.15-1.8-.19-2.7c0-.48,0-1-.09-1.43s-.09-.89-.15-1.33c-.13-.88-.28-1.76-.39-2.65s-.14-1.7-.16-2.55,0-1.69,0-2.53q0-.64,0-1.29a8.09,8.09,0,0,0-.08-1c-.05-.33-.11-.67-.17-1a.87.87,0,0,0,.08-1.1l.21.08a.85.85,0,0,0,.68-.08.89.89,0,0,0,.4-.53.85.85,0,0,0-.09-.68.78.78,0,0,0-.3-.3l.05,0a.81.81,0,0,1,.4.52c.09.51.18,1,.26,1.52s.17.93.23,1.41.09.83.1,1.26,0,.88,0,1.32c0,.89,0,1.77,0,2.66s.08,1.64.18,2.46c.2,1.3.44,2.6.53,3.92,0,.71.08,1.43.11,2.14s.1,1.23.15,1.84c.09.92.17,1.84.2,2.76s.06,1.94.08,2.9S142.64,115.61,142.64,116.53Z"/><path class="cls-6" d="M140.82,131.27v0l-.11.07a.85.85,0,0,1-.68.09.88.88,0,0,1-.52-.4s0,0,0,0l.11-.06a1,1,0,0,1,.69-.09A.85.85,0,0,1,140.82,131.27Z"/><path class="cls-6" d="M140.61,89.33a.85.85,0,0,1,.09.68.89.89,0,0,1-.4.53.85.85,0,0,1-.68.08l-.21-.08-.1-.12a.8.8,0,0,0-.21-.15c0-.08,0-.15,0-.23a2.11,2.11,0,0,1,0-.25.89.89,0,0,1,.11-.43.93.93,0,0,1,.53-.4.87.87,0,0,1,.63.07A.78.78,0,0,1,140.61,89.33Z"/><path class="cls-6" d="M140.09,88.92l.22.11a.87.87,0,0,0-.63-.07.93.93,0,0,0-.53.4.89.89,0,0,0-.11.43,2.11,2.11,0,0,0,0,.25c0,.08,0,.15,0,.23a.9.9,0,0,0-.7-.06l-.24-.08a13.16,13.16,0,0,0-1.4-.39c-1-.2-1.94-.37-2.92-.51-1.17-.15-2.33-.26-3.49-.39,0-.59.05-1.17.11-1.75l1.43.15c1,.1,1.93.21,2.88.36s1.82.29,2.71.5c.44.09.86.24,1.29.37S139.66,88.75,140.09,88.92Z"/><path class="cls-6" d="M139.41,90.54a.87.87,0,0,1-.08,1.1c-.06-.4-.13-.8-.2-1.2Z"/><path class="cls-6" d="M139.31,90.42l.1.12-.28-.1,0-.17A.8.8,0,0,1,139.31,90.42Z"/><path class="cls-6" d="M139.1,90.27l0,.17-.73-.23A.9.9,0,0,1,139.1,90.27Z"/><path class="cls-6" d="M130.71,74c0,.91,0,1.82,0,2.72s0,1.79-.09,2.68-.09,1.8-.11,2.7c0,.28,0,.57,0,.86a.57.57,0,0,0-.22-.11.89.89,0,0,0-.68.09.84.84,0,0,0-.41.53c-.17.87-.27,1.76-.37,2.64,0,.26-.06.51-.08.77l-.23,0a.25.25,0,0,1,0-.12.13.13,0,0,1,0-.06c0-.44.09-.88.13-1.32s0-1,.06-1.57c0-1.07,0-2.15.08-3.22,0-.91.11-1.82.14-2.73s0-1.79,0-2.69a48.39,48.39,0,0,0-.21-5.38c-.08-.52-.17-1-.29-1.55s-.29-1.15-.44-1.73c-.22-.85-.41-1.71-.65-2.56s-.55-1.81-.88-2.7-.59-1.7-.91-2.55-.59-1.6-.91-2.39-.61-1.26-1-1.88a17.16,17.16,0,0,0-1.1-1.79c-.31-.36-.62-.71-.94-1a9.16,9.16,0,0,0-1-.88c-.46-.35-.93-.67-1.41-1l-1.43-1c-.48-.32-1-.64-1.46-.93a13.26,13.26,0,0,0-1.45-.75,14,14,0,0,0-1.44-.43c-.49-.11-1-.19-1.48-.26l-1.54-.21-.13,0h-.08c-.32,0-.63-.08-.94-.1s-.81,0-1.22,0c-.79,0-1.58,0-2.38-.05s-1.61-.11-2.41-.12-1.53,0-2.29.06c-.56.09-1.12.22-1.67.34s-1.22.31-1.82.49-1.21.34-1.81.53-1,.37-1.56.58a10.7,10.7,0,0,0-1.23.59c-.45.25-.88.52-1.31.8s-.86.57-1.28.88-.66.49-1,.75A30,30,0,0,0,86.77,53a28.63,28.63,0,0,0-2.29,2.51c-.36.47-.71,1-1,1.45a13,13,0,0,0-.89,1.58c-.26.64-.47,1.3-.7,2s-.5,1.42-.77,2.12-.5,1.32-.69,2-.36,1.44-.49,2.18-.18,1.47-.29,2.2c-.06.35-.14.7-.2,1.06s-.11.64-.17,1c0,.17,0,.33,0,.5-.07.93-.14,1.86-.23,2.79s-.13,1.84-.19,2.76,0,1.82,0,2.72.09,1.74.2,2.6c.07.45.15.91.19,1.36,0,.26,0,.51.06.77a.5.5,0,0,0-.08.27v0c0,.23,0,.45,0,.68a.94.94,0,0,1-.12.18s0-.07,0-.1q-.14-1.3-.21-2.61a.89.89,0,0,0-.88-.88.92.92,0,0,0-.73.38c0-.33-.08-.67-.11-1Q77,80.37,77,79.27c0-.35,0-.7,0-1v-.38c0-.48,0-1,.07-1.45.06-.89.12-1.79.2-2.68s.14-1.86.24-2.79c.06-.5.15-1,.25-1.5s.16-.89.23-1.34c.08-.6.13-1.21.23-1.81a18.73,18.73,0,0,1,.66-2.68c.3-.92.65-1.81,1-2.7l.42-1.21c.15-.45.28-.91.46-1.35A12.62,12.62,0,0,1,81.38,57c.24-.43.51-.84.78-1.24a25.63,25.63,0,0,1,3.7-4.28c.65-.6,1.35-1.17,2-1.72s1.57-1.23,2.4-1.78a18.18,18.18,0,0,1,2.32-1.38,22,22,0,0,1,2.62-1c.86-.27,1.72-.52,2.58-.76.43-.12.86-.21,1.29-.31s.88-.21,1.32-.28a30,30,0,0,1,5.53,0c.89,0,1.79,0,2.68,0a24.89,24.89,0,0,1,2.6.27l.14,0h0c.63.09,1.26.17,1.89.27.29.05.59.12.87.19s.58.14.86.24a12.88,12.88,0,0,1,1.89.86c.52.28,1,.61,1.52.94.79.53,1.56,1.09,2.35,1.63.42.29.83.59,1.23.91a10.78,10.78,0,0,1,1,1,11.67,11.67,0,0,1,1,1.13c.28.38.53.77.77,1.17s.44.77.65,1.16.42.79.6,1.19c.39.89.72,1.81,1.07,2.73s.59,1.7.91,2.54.64,1.77.91,2.68.45,1.72.66,2.58.48,1.74.65,2.62a26.53,26.53,0,0,1,.37,2.94C130.7,72.18,130.7,73.11,130.71,74Z"/><path class="cls-6" d="M130.55,85.81v.06a1.77,1.77,0,0,0,0,.2,2,2,0,0,0,0,.24,1,1,0,0,0,0,.25l0,.1c0,.12,0,.24,0,.37a.13.13,0,0,1,0,.06l-.23,0c.06-.37.09-.74.13-1.12s.07-.78.09-1.17v.31c0,.12,0,.24,0,.36v0a.74.74,0,0,0,.09.33S130.54,85.81,130.55,85.81Z"/><path class="cls-6" d="M130.54,83v.37l0,.1a1,1,0,0,0,0,.24v-.08c0-.22,0-.44,0-.66Z"/><path class="cls-6" d="M130.49,83c0,.22,0,.44,0,.66v.08c0,.11,0,.23,0,.33s0,.33,0,.49v.22c0,.39-.06.78-.09,1.17s-.07.75-.13,1.12L129.16,87l-.43,0c0-.26.05-.51.08-.77.1-.88.2-1.77.37-2.64a.84.84,0,0,1,.41-.53.89.89,0,0,1,.68-.09A.57.57,0,0,1,130.49,83Z"/><path class="cls-6" d="M130.46,87.09c-.06.58-.1,1.16-.11,1.75l-.55-.06-1.2-.12c0-.23,0-.46,0-.68s0-.3,0-.45a.88.88,0,0,0,1.14.22.8.8,0,0,0,.43-.69Z"/><path class="cls-6" d="M130.23,87.06a.8.8,0,0,1-.43.69.88.88,0,0,1-1.14-.22c0-.21,0-.42.07-.62l.43,0Z"/><path class="cls-6" d="M129.24,134.42c0,.87,0,1.74,0,2.61-.56.32-1.12.63-1.69.91a.67.67,0,0,1-.06-.28c0-1,0-1.95,0-2.93v-1.14c0-1.34-.07-2.66-.14-4,0-.95-.07-1.89-.13-2.83s-.1-1.93-.11-2.9,0-1.82.09-2.73.08-2,.11-3c.06-1.85.1-3.71.1-5.56,0-1,0-2,0-3s-.1-1.82-.19-2.72l-.36-2.45a17.13,17.13,0,0,0-1-4.18c-.13-.3-.27-.59-.41-.89a1.14,1.14,0,0,1-.09-.26,3.59,3.59,0,0,0,.79-.17c.3-.1.6-.21.89-.33a17.14,17.14,0,0,1,.74,1.78,12.34,12.34,0,0,1,.44,1.69c.08.48.17,1,.23,1.44l.42,2.89c.14,1,.21,2,.25,3,0,.73,0,1.46,0,2.2v.5c0,1,0,2,0,3,0,1.86-.1,3.72-.18,5.58,0,1-.08,2-.1,3s0,1.77.08,2.65.08,1.88.13,2.82.11,1.89.14,2.84S129.24,133.61,129.24,134.42Z"/><path class="cls-6" d="M128.73,86.91c0,.2,0,.41-.07.62a.86.86,0,0,1-.07-.1.78.78,0,0,1-.11-.42.32.32,0,0,1,0-.13Z"/><path class="cls-6" d="M128.59,87.43a.86.86,0,0,0,.07.1c0,.15,0,.3,0,.45s0,.45,0,.68l-.21,0h0c0-.34.05-.69.06-1l0-.58A.78.78,0,0,0,128.59,87.43Z"/><path class="cls-6" d="M128.48,86.88h0a.32.32,0,0,0,0,.13Z"/><path class="cls-6" d="M127,98.45l.06.13c-.29.12-.59.23-.89.33a3.59,3.59,0,0,1-.79.17.64.64,0,0,1,0-.2.6.6,0,0,1,0-.22.86.86,0,0,1,1.08-.61A.85.85,0,0,1,127,98.45Z"/><path class="cls-6" d="M120.83,75.12c0,1.85,0,3.7,0,5.54,0,.89-.14,1.77-.19,2.65,0,.47,0,.93-.07,1.39a.88.88,0,0,0-1.4-.2,1,1,0,0,0-.26.63c0,.25,0,.51-.06.76h-.08c0-1,0-2,.14-3.06s.16-2.11.19-3.17c0-1.83,0-3.65,0-5.47s-.14-3.63-.36-5.43a26.24,26.24,0,0,0-1.42-5.81c-.28-.64-.59-1.28-.92-1.91a11.12,11.12,0,0,0-1-1.6c-.16-.2-.32-.4-.49-.59s-.43-.44-.65-.66A14.56,14.56,0,0,0,113,57.11a5.81,5.81,0,0,0-.78-.51c-.3-.17-.6-.32-.9-.48-.56-.29-1.14-.57-1.72-.83l-.09,0a9.45,9.45,0,0,0-1.81-.47,14,14,0,0,0-3.1,0c-.41.06-.82.12-1.23.2s-.9.21-1.34.33a24.46,24.46,0,0,0-2.54.86c-.5.22-1,.43-1.49.69a11.08,11.08,0,0,0-1.48,1A22.85,22.85,0,0,0,94,60.15c-.78.82-1.51,1.67-2.21,2.56-.34.45-.66.92-1,1.4a15.22,15.22,0,0,0-.73,1.39,7.73,7.73,0,0,0-.36,1.09c-.09.44-.16.87-.22,1.31-.12.83-.25,1.66-.37,2.5-.07.68-.11,1.36-.15,2s-.09,1.34-.12,2c0,.91,0,1.83-.06,2.74s0,1.8,0,2.71,0,1.81,0,2.72l0,.09v0a.93.93,0,0,0-.44-.12.9.9,0,0,0-.88.86v0c0,.59,0,1.17.07,1.76h-.29l-.08-.1-.1-.07c0-1.79,0-3.57,0-5.36v-.12c0-.89,0-1.78,0-2.66s0-1.85.06-2.77.12-1.77.18-2.66c0-.48.07-1,.13-1.45s.14-.92.2-1.38.13-.9.2-1.34a8.95,8.95,0,0,1,1.4-4A17.38,17.38,0,0,1,90.89,61c.58-.71,1.19-1.41,1.83-2.08a22,22,0,0,1,1.94-1.8A14.36,14.36,0,0,1,97,55.46a22.74,22.74,0,0,1,2.62-1.17c.85-.31,1.71-.56,2.59-.8A18.29,18.29,0,0,1,105,53c.47,0,.94-.06,1.42-.06a8.1,8.1,0,0,1,1.3.07,9.51,9.51,0,0,1,2.91.78c.8.37,1.61.75,2.38,1.18a8.49,8.49,0,0,1,1.23.82,10.67,10.67,0,0,1,1,.91c.33.33.68.66,1,1s.63.78.93,1.19a15.44,15.44,0,0,1,1.29,2.36,17.41,17.41,0,0,1,1,2.67,27,27,0,0,1,.62,2.66c.18,1,.36,2,.44,3C120.7,71.46,120.79,73.29,120.83,75.12Z"/><path class="cls-6" d="M120.53,84.7a.72.72,0,0,1,.09.2l0,.15c0,.13,0,.25,0,.38a2,2,0,0,1,0,.24Z"/><path class="cls-6" d="M120.53,84.7l0,1c0,.12,0,.24,0,.37-.54-.06-1.09-.11-1.64-.15,0-.25,0-.51.06-.76a1,1,0,0,1,.26-.63.88.88,0,0,1,1.4.2Z"/><path class="cls-6" d="M120.45,86a1.1,1.1,0,0,1,0,.18v0a.89.89,0,0,1-.82.57.91.91,0,0,1-.82-.55c0-.13,0-.27,0-.4C119.36,85.93,119.91,86,120.45,86Z"/><path class="cls-6" d="M120.43,86.27c-.07.49-.14,1-.19,1.49v0h-.1c-.49,0-1-.09-1.48-.12,0-.45.09-.91.13-1.36a.91.91,0,0,0,.82.55A.89.89,0,0,0,120.43,86.27Z"/><path class="cls-6" d="M120.27,89.14l-.18,1.47A.88.88,0,0,1,120,91s0,0,0,0l-.14.18a.85.85,0,0,1-.62.26.88.88,0,0,1-.63-.26.89.89,0,0,1-.26-.56v-.06c.12-1,.24-2,.34-3,.49,0,1,.07,1.48.12h.1a.34.34,0,0,0,0,.14s0,.07,0,.1l0,.31a1.85,1.85,0,0,0,0,.23c0,.13,0,.26,0,.39A.41.41,0,0,0,120.27,89.14Z"/><path class="cls-6" d="M118.81,85.89c0,.13,0,.27,0,.4a.61.61,0,0,1-.06-.33v-.08Z"/><path class="cls-6" d="M118.79,86.29c0,.45-.09.91-.13,1.36-1.38-.13-2.77-.21-4.15-.28l-2.78-.09-2.81-.08c-1.88,0-3.76-.06-5.64-.06s-3.78,0-5.67,0-3.67-.1-5.5-.13c-.93,0-1.85,0-2.77,0,0-.11,0-.23,0-.34,0-.45,0-.91,0-1.37h0a.51.51,0,0,0,.3,0l.16-.07h.36c1.84,0,3.69,0,5.54.08,3.69.11,7.39,0,11.09.09,1.92,0,3.85.09,5.77.15s3.74.14,5.61.29l.6,0V86A.61.61,0,0,0,118.79,86.29Z"/><path class="cls-6" d="M89.33,86.66c0,.11,0,.23,0,.34l-1.75,0c0-.12,0-.25,0-.37s0-.38,0-.57a.71.71,0,0,0,.39.1.9.9,0,0,0,.88-.89v0h.32a.34.34,0,0,0,.14.05C89.3,85.75,89.31,86.21,89.33,86.66Z"/><path class="cls-6" d="M89.14,85.24h-.32c0-.35,0-.72,0-1.08l.09.1a1.76,1.76,0,0,0-.06.39v0A.68.68,0,0,0,89.14,85.24Z"/><path class="cls-6" d="M89.24,90.41a.62.62,0,0,1-.24.21v-.08A.7.7,0,0,0,89.24,90.41Z"/><path class="cls-6" d="M88.82,85.25v0a.9.9,0,0,1-.88.89.71.71,0,0,1-.39-.1l0-.82Z"/><path class="cls-6" d="M88.81,84.17c0,.36,0,.73,0,1.08l-1.3,0c0-.59,0-1.17-.07-1.76v0a.9.9,0,0,1,.88-.86.93.93,0,0,1,.44.12,2.17,2.17,0,0,0,0,.25c0,.08,0,.17,0,.26s0,.22,0,.33a2,2,0,0,0,0,.42A.38.38,0,0,0,88.81,84.17Z"/><path class="cls-6" d="M88.77,82.74a1,1,0,0,0,0,.24l0,.27c0-.09,0-.18,0-.26A2.17,2.17,0,0,1,88.77,82.74Z"/><path class="cls-6" d="M87.57,86.66c0,.12,0,.25,0,.37h-.24a.67.67,0,0,0,0-.24v-.46c0-.1,0-.2,0-.3v-.1a.73.73,0,0,0,.23.16C87.56,86.28,87.56,86.47,87.57,86.66Z"/><path class="cls-6" d="M87.52,85.27l0,.82a.73.73,0,0,1-.23-.16V85.8a1.47,1.47,0,0,0,0-.21.06.06,0,0,0,0,0,0,0,0,0,0,0,0,.14.14,0,0,0,0-.09l0-.06s0,0,0-.06a0,0,0,0,0,0,0Z"/><path class="cls-6" d="M87.3,85.42a.14.14,0,0,1,0,.09.29.29,0,0,0,0-.09s0,0,0-.06Z"/><path class="cls-6" d="M84,137.41a.87.87,0,0,1-.88.88.91.91,0,0,1-.63-.25,1,1,0,0,1-.25-.63c0-.16,0-.32,0-.48h0a3.54,3.54,0,0,0,.55.18,5.84,5.84,0,0,0,1-.08l.17,0Z"/><path class="cls-6" d="M84,137l-.17,0a5.84,5.84,0,0,1-1,.08,3.54,3.54,0,0,1-.55-.18h0c-.07-.84-.13-1.68-.16-2.52s-.06-1.86-.12-2.79c0-.42-.06-.85-.07-1.27s0-1,0-1.5c0-.93,0-1.86,0-2.79,0-1.92,0-3.83-.13-5.75q-.06-1.45-.15-2.91c-.06-.91-.13-1.83-.18-2.74s-.13-1.89-.21-2.83c0-.53-.09-1-.13-1.57s0-.93,0-1.4L81,106c0-.9,0-1.79-.06-2.69v-.66c0-.28,0-.56,0-.84,0-.51,0-1,.08-1.52s.1-.91.16-1.36c0-.3.09-.59.14-.89l.18-1a.75.75,0,0,1,.2-.37l.19.14a1.08,1.08,0,0,0,.3.16,3,3,0,0,0,1,.29,1.07,1.07,0,0,1,0,.25c-.1.51-.19,1-.28,1.53l-.12,1c0,.35,0,.72-.08,1.08,0,.69,0,1.39,0,2.09,0,.88,0,1.77.06,2.66s0,1.9,0,2.84c0,.49,0,1,0,1.47s.08,1,.13,1.51c.08,1,.15,1.91.21,2.87s.12,1.82.18,2.72.11,1.92.15,2.88c.08,1.92.15,3.83.14,5.75,0,.93,0,1.86,0,2.8,0,.5,0,1,0,1.49s0,.87.06,1.31c.06.94.1,1.88.13,2.83S83.88,136.15,84,137Z"/><path class="cls-6" d="M83.14,96.87a.85.85,0,0,1,.12.43,3,3,0,0,1-1-.29,1.08,1.08,0,0,1-.3-.16l-.19-.14a.94.94,0,0,1,.89-.25A.89.89,0,0,1,83.14,96.87Z"/><path class="cls-6" d="M79.29,87.05v.28a2.17,2.17,0,0,0,0,.26c-.54.07-1.07.13-1.61.18v0c0-.32-.12-.65-.19-1s-.09-.5-.13-.75h.13l.63-.06a.59.59,0,0,0,.27.05.87.87,0,0,0,.44-.13l.24,0h0c0,.25.09.5.14.74,0,.08,0,.17,0,.25A1.66,1.66,0,0,0,79.29,87.05Z"/><path class="cls-6" d="M79.25,86.61a1.62,1.62,0,0,0,0,.22c0-.08,0-.17,0-.25A0,0,0,0,1,79.25,86.61Z"/><path class="cls-6" d="M79.24,86.47v.11c0-.24-.1-.49-.14-.74h.11a.28.28,0,0,0,0,.09C79.23,86.1,79.23,86.29,79.24,86.47Z"/><path class="cls-6" d="M79.07,85.67l0,.17h0l-.24,0A.64.64,0,0,0,79.07,85.67Z"/><path class="cls-6" d="M79.05,85.57s0,.07,0,.1a.64.64,0,0,1-.25.21l-.71.08a.89.89,0,0,1-.61-.83c0-.46,0-.91-.09-1.37l-.18-1.3a.92.92,0,0,1,.73-.38.89.89,0,0,1,.88.88Q78.91,84.27,79.05,85.57Z"/><path class="cls-6" d="M78.11,86l.71-.08a.87.87,0,0,1-.44.13A.59.59,0,0,1,78.11,86Z"/><path class="cls-6" d="M78.11,86l-.63.06h-.13c0-.18,0-.36-.07-.54-.1-.84-.16-1.68-.2-2.53v0a.81.81,0,0,1,.15-.46l.18,1.3c0,.46.07.91.09,1.37A.89.89,0,0,0,78.11,86Z"/><path class="cls-6" d="M77.67,87.75v0l-.25,0-1.84.12c-.51,0-1,.09-1.53.15l-.79.13-1.08.23a.88.88,0,0,1-.51,0s0-.07,0-.11a.86.86,0,0,0-.57-1.06.81.81,0,0,1,.58-.51,20.36,20.36,0,0,1,2.18-.4c.56-.07,1.12-.14,1.68-.18L77.35,86c0,.25.08.5.13.75S77.62,87.43,77.67,87.75Z"/><path class="cls-6" d="M71.62,87.61a.86.86,0,0,1,.09.68s0,.07,0,.11l-.16-.07a.9.9,0,0,1-.41-.53.78.78,0,0,1,0-.22.84.84,0,0,1,.07-.35A.86.86,0,0,1,71.62,87.61Z"/><path class="cls-6" d="M71.67,88.4l-.07.18-1.07-.28a1,1,0,0,0-.74.12c.07-.2.14-.4.22-.6a.91.91,0,0,1,.4-.52.86.86,0,0,1,.68-.09l0,0a.84.84,0,0,0-.07.35.78.78,0,0,0,0,.22.9.9,0,0,0,.41.53Z"/><path class="cls-6" d="M70.53,88.3l1.07.28c-.2.55-.39,1.11-.55,1.68l-1-.26a.87.87,0,0,1-.6-.58c.1-.34.21-.67.33-1A1,1,0,0,1,70.53,88.3Z"/><path class="cls-6" d="M71.05,90.26c0,.09,0,.19-.07.28-.1.38-.19.75-.27,1.13s-.09.53-.12.8a30,30,0,0,0-.38,5c0,.92.13,1.85.1,2.77s-.13,1.9-.18,2.86-.07,1.94-.09,2.91S70,107.81,70,108.7c0,1.93,0,3.87,0,5.8s0,3.65,0,5.48c0,1,0,1.93,0,2.9s0,1.84,0,2.75.05,1.81.11,2.71.09,1.92.09,2.88a.17.17,0,0,1,0,.07l-.59-.2a.88.88,0,0,0-1,.54.81.81,0,0,1-.11-.41c0-.84,0-1.67-.07-2.51s-.07-1.5-.1-2.25-.07-1.59-.07-2.39,0-1.5,0-2.25c0-1.85,0-3.7,0-5.54s0-3.49,0-5.24v-.43c0-1.89.07-3.79.12-5.68,0-.93.06-1.87.13-2.8a24.17,24.17,0,0,0,.11-2.82c0-1-.14-1.9-.1-2.85s.11-1.78.22-2.66.24-2.06.45-3.07c.1-.45.22-.88.35-1.31a.87.87,0,0,0,.6.58Z"/><path class="cls-6" d="M69.59,131.09l.59.2a1.17,1.17,0,1,1-.59-.2Z"/><path class="cls-6" d="M69.79,88.42c-.12.33-.23.66-.33,1a.87.87,0,0,1,0-.28.91.91,0,0,1,0-.23A1,1,0,0,1,69.79,88.42Z"/></g></svg>