<svg id="Layer_14" data-name="Layer 14" xmlns="http://www.w3.org/2000/svg" viewBox="0 0 685.66 585.02"><defs><style>.cls-1{fill:#7f7f7f;}.cls-2{fill:#efae65;}.cls-3{fill:#a3805a;}.cls-4{fill:#bebebe;}.cls-5{fill:#fff;}</style></defs><title>all_included</title><g id="_Group_" data-name="&lt;Group&gt;"><path class="cls-1" d="M772.94,259.17a6.09,6.09,0,0,1,.13,1.25,3.63,3.63,0,0,1-.39,1.39,14,14,0,0,1-2.79,3.8c-.56.6-1.13,1.19-1.72,1.77-1.14,1.14-2.32,2.26-3.49,3.37-2.42,2.29-4.94,4.46-7.53,6.55s-5.23,4.1-7.82,6.18-5.08,4.28-7.54,6.48c-5.1,4.55-10.11,9.17-15.25,13.66-2.4,2.09-4.85,4.14-7.29,6.18s-5.08,4.14-7.53,6.3c-1.39,1.22-2.75,2.47-4.06,3.77-1.11,1.1-2.17,2.25-3.21,3.41-2.28,2.54-4.54,5.08-6.91,7.52-2.21,2.29-4.59,4.44-6.94,6.58s-5,4.37-7.65,6.36c-.29.22-.59.44-.9.65q-.68-.1-1.36-.16c-1-.1-2-.15-3-.15a24.32,24.32,0,0,0-2.51.12,25.93,25.93,0,0,0,2.63-1.56c1.2-.81,2.38-1.64,3.53-2.52q3.5-2.77,6.8-5.79c2.21-2,4.43-4,6.51-6.18,2.29-2.33,4.48-4.76,6.66-7.19a75,75,0,0,1,6.45-6.52c2.49-2.17,5.05-4.23,7.59-6.34q4.08-3.39,8.13-6.81c5.06-4.3,9.95-8.81,14.91-13.22q3.82-3.39,7.73-6.66c2.45-2.05,5-4,7.48-6s5.11-4.16,7.51-6.43a94.43,94.43,0,0,0,7.42-7.43,8.35,8.35,0,0,0,.8-1.3l0-.1-.11-.1a13,13,0,0,0-1.77-.91c-2.62-1-5.35-1.7-8-2.47-3.11-.89-6.18-1.83-9.2-2.95s-6.16-2.27-9.31-3.21c-6.41-1.9-12.86-3.66-19.25-5.66-3.07-1-6-2.26-9.11-3.11-1.52-.42-3-.84-4.58-1.22-1.7-.42-3.4-.87-5.12-1.21-3.23-.64-6.47-1.21-9.73-1.65-3.51-.49-7-1-10.54-1.48-3.24-.46-6.48-1-9.7-1.53-1.81-.3-3.61-.63-5.41-1-.69-.12-1.36-.27-2.05-.41s-1.68-.32-2.52-.53c-1.52-.38-3.07-.72-4.58-1.14l-5-1.44c-1.68-.51-3.38-1-5.08-1.47s-3.39-.9-5.1-1.32c-3.22-.79-6.46-1.47-9.69-2.17s-6.28-1.39-9.42-2.11q-10.16-2.32-20.35-4.43c-3.3-.68-6.59-1.41-9.89-2.13s-6.52-1.37-9.78-2.12-6.46-1.63-9.69-2.45c-1.45-.37-2.9-.72-4.37-1-.8-.17-1.61-.37-2.42-.5l-2.29-.36c-1.19-.11-2.38-.23-3.56-.25-1.41,0-2.81,0-4.22,0s-2.8.13-4.2.23c-1.09.08-2.18.21-3.27.33a31.91,31.91,0,0,0-5.38,1.27,13,13,0,0,0-2,1.18,43.3,43.3,0,0,0-3.2,3.1c-1,1.06-2.11,2.11-3.16,3.14-2.28,2.21-4.72,4.24-7.17,6.25L524.8,229c-1.16,1-2.32,1.92-3.43,2.93-2.53,2.3-5,4.61-7.41,7.06s-4.76,5.09-7.17,7.61c-4.56,4.75-9.33,9.3-13.87,14.07-2.3,2.42-4.59,4.83-6.79,7.33-1.22,1.4-2.44,2.8-3.64,4.22-1,1.16-1.92,2.35-2.87,3.54-1,1.34-2,2.67-2.85,4.07a39.88,39.88,0,0,0-2.6,4.76c-.35.76-.69,1.52-1,2.28-.57,1.27-1.13,2.56-1.7,3.84l-1.14-.5a2.12,2.12,0,0,0,.08-1,2.43,2.43,0,0,0-.37-.85c.71-1.65,1.44-3.29,2.17-4.95.42-.94.89-1.87,1.38-2.78a33.81,33.81,0,0,1,1.8-3l1.56-2.2c1-1.44,2.11-2.8,3.19-4.18.92-1.17,1.89-2.31,2.85-3.44,1.17-1.37,2.33-2.74,3.53-4.08q3.48-3.89,7.08-7.69c4.51-4.78,9.14-9.45,13.52-14.35,2.2-2.47,4.41-4.94,6.74-7.28,1.25-1.25,2.52-2.48,3.81-3.69s2.67-2.42,4-3.61c2.46-2.16,5-4.23,7.48-6.37a95.39,95.39,0,0,0,6.87-6.67l1.91-2.05c.62-.65,1.21-1.35,1.88-1.94a12.57,12.57,0,0,1,2.57-1.88,18.66,18.66,0,0,1,3.23-1.25c1.1-.29,2.2-.52,3.32-.75,1-.21,2-.28,2.95-.41.67-.09,1.34-.15,2-.21,1.79-.15,3.56-.26,5.35-.35.52,0,1,0,1.54,0,1,0,2.05,0,3.08.11s1.89.14,2.83.27,1.72.19,2.56.36c1.74.35,3.47.7,5.18,1.1,1.46.33,2.92.7,4.37,1.06,3.22.82,6.44,1.63,9.69,2.31s6.58,1.37,9.85,2.08c6.53,1.41,13.08,2.71,19.59,4.17,6.88,1.54,13.74,3.12,20.62,4.67,1.65.37,3.3.77,5,1.16,1.43.32,2.87.67,4.28,1.08,3.16.92,6.32,1.9,9.48,2.84,1.77.53,3.54,1,5.32,1.48s3.46.83,5.19,1.21c3.1.69,6.24,1.22,9.37,1.74,3.37.57,6.74,1.14,10.12,1.64s6.91,1,10.36,1.53c3.13.49,6.27,1.1,9.35,1.89,3.32.85,6.62,1.71,9.85,2.86,3,1.08,6,2.2,9.1,3.14,3.25,1,6.5,1.93,9.75,2.89s6.24,1.8,9.33,2.84,6.11,2.27,9.2,3.32,6.31,2,9.48,2.94a45.68,45.68,0,0,1,4.44,1.51,15.81,15.81,0,0,1,3.27,1.66,4,4,0,0,1,1,1A3.24,3.24,0,0,1,772.94,259.17Z" transform="translate(-108.87 -130.41)"/><path class="cls-2" d="M769.4,260.2l0,.1a8.35,8.35,0,0,1-.8,1.3,94.43,94.43,0,0,1-7.42,7.43c-2.4,2.27-4.95,4.35-7.51,6.43s-5,3.91-7.48,6q-3.92,3.27-7.73,6.66c-5,4.41-9.85,8.92-14.91,13.22q-4,3.43-8.13,6.81c-2.54,2.11-5.1,4.17-7.59,6.34a75,75,0,0,0-6.45,6.52c-2.18,2.43-4.37,4.86-6.66,7.19-2.08,2.15-4.3,4.17-6.51,6.18s-4.47,3.94-6.8,5.79c-1.16.87-2.33,1.71-3.53,2.52a25.93,25.93,0,0,1-2.63,1.56l-.59.05c-1.62.17-3.23.36-4.83.68l-.56-.16c-.81-.22-1.61-.46-2.4-.72-1.66-.56-3.3-1.17-4.95-1.78-3.14-1.19-6.32-2.29-9.52-3.36s-6.16-2-9.23-3q-5-1.64-10-3.4c-3.26-1.16-6.51-2.27-9.81-3.3s-6.45-1.87-9.68-2.8c-6.41-1.84-12.85-3.57-19.31-5.27-3.3-.87-6.61-1.76-9.9-2.68s-6.63-1.87-10-2.7c-3.09-.78-6.22-1.44-9.35-2s-6.52-1.24-9.79-1.79c-4.68-.79-9.35-1.47-14.07-1.92-2-.19-4-.35-6-.55-1.14-.11-2.29-.19-3.42-.33l-2.65-.36c-1.57-.27-3.13-.53-4.69-.86-1.81-.39-3.63-.81-5.44-1.24-3.21-.78-6.4-1.61-9.62-2.4s-6.4-1.63-9.59-2.51-6.43-1.68-9.63-2.56c-2-.55-3.93-1.14-5.9-1.73s-3.93-1.12-5.9-1.7L476,295a36.65,36.65,0,0,0-4.88-1.33l-.89-.12,1.23-2.87c.56-1.29,1.12-2.57,1.7-3.84.36-.76.7-1.52,1-2.28a39.88,39.88,0,0,1,2.6-4.76c.86-1.4,1.88-2.73,2.85-4.07,1-1.19,1.89-2.39,2.87-3.54,1.2-1.43,2.42-2.82,3.64-4.22,2.2-2.51,4.49-4.91,6.79-7.33,4.54-4.77,9.31-9.32,13.87-14.07,2.41-2.53,4.75-5.1,7.17-7.61s4.88-4.76,7.41-7.06c1.11-1,2.28-2,3.43-2.93l4.33-3.55c2.45-2,4.89-4,7.17-6.25,1.06-1,2.12-2.08,3.16-3.14a43.3,43.3,0,0,1,3.2-3.1,13,13,0,0,1,2-1.18,31.91,31.91,0,0,1,5.38-1.27c1.09-.13,2.18-.26,3.27-.33,1.4-.1,2.8-.18,4.2-.23s2.81,0,4.22,0c1.19,0,2.38.14,3.56.25l2.29.36c.81.13,1.62.32,2.42.5,1.47.3,2.93.66,4.37,1,3.23.82,6.45,1.7,9.69,2.45s6.52,1.41,9.78,2.12,6.59,1.45,9.89,2.13q10.19,2.12,20.35,4.43,4.7,1.07,9.42,2.11c3.23.7,6.47,1.38,9.69,2.17,1.71.42,3.4.84,5.1,1.32s3.39,1,5.08,1.47l5,1.44c1.51.42,3.06.77,4.58,1.14.83.21,1.68.35,2.52.53s1.36.29,2.05.41c1.8.33,3.6.66,5.41,1,3.22.54,6.46,1.07,9.7,1.53,3.51.52,7,1,10.54,1.48,3.26.44,6.5,1,9.73,1.65,1.72.33,3.42.79,5.12,1.21,1.53.38,3.06.8,4.58,1.22,3.09.85,6,2.15,9.11,3.11,6.39,2,12.84,3.76,19.25,5.66,3.15.94,6.23,2.06,9.31,3.21s6.09,2.06,9.2,2.95c2.7.78,5.42,1.48,8,2.47a13,13,0,0,1,1.77.91Z" transform="translate(-108.87 -130.41)"/><path class="cls-1" d="M674.2,344.68c.35-.16.68-.31,1-.49a24.32,24.32,0,0,1,2.51-.12c1,0,2,.05,3,.15q.68.06,1.36.16c-.94.67-1.89,1.32-2.85,2a25.18,25.18,0,0,1-3.78,2.07,14.77,14.77,0,0,1-2.21.83l-1.34.15-.11,0a12.93,12.93,0,0,1-3.07-.58c-1.56-.42-3.11-.86-4.63-1.38l-.05,0,.7-.39a15.73,15.73,0,0,1,4-1.91c.33-.08.67-.15,1-.21.65.18,1.31.36,2,.48h.32a14.14,14.14,0,0,0,2-.66Z" transform="translate(-108.87 -130.41)"/><path class="cls-1" d="M674.61,344.25l.59-.05c-.32.17-.66.32-1,.49l-.15.06a14.14,14.14,0,0,1-2,.66h-.32c-.66-.12-1.32-.29-2-.48C671.38,344.6,673,344.42,674.61,344.25Z" transform="translate(-108.87 -130.41)"/><path class="cls-1" d="M671.9,349.4l1.34-.15a5.44,5.44,0,0,1-.6.12,5.52,5.52,0,0,1-.84.05Z" transform="translate(-108.87 -130.41)"/><path class="cls-1" d="M669.78,344.93c-.33.05-.67.13-1,.21a15.73,15.73,0,0,0-4,1.91l-.7.39c-3.33-1.14-6.65-2.31-10-3.38-3-1-6-1.83-9.07-2.68-3.24-.92-6.5-1.8-9.72-2.8s-6.72-2.09-10.09-3.09-6.66-1.75-10-2.57L606,330.6c-6.59-1.62-13.21-3.09-19.78-4.74s-13.17-3.43-19.86-4.7c-6.53-1.24-13.08-2.38-19.64-3.35-2.84-.35-5.69-.66-8.55-.92-1.77-.15-3.55-.32-5.32-.51s-3.59-.45-5.37-.69c-.73-.1-1.46-.26-2.18-.39s-1.29-.22-1.92-.36c-1.64-.36-3.27-.71-4.9-1.11-3-.71-5.92-1.48-8.88-2.21-6.62-1.64-13.2-3.41-19.81-5.09-3.21-.81-6.38-1.78-9.57-2.67-1.54-.43-3.08-.86-4.61-1.32l-2.56-.79a35.8,35.8,0,0,0-4.07-1.19,32.63,32.63,0,0,0-6.73.27l-.84.15a3.61,3.61,0,0,1-2.59-.33,3.57,3.57,0,0,1-.67-.52c1.34-.84,2.68-1.67,4-2.54,1.11-.72,2.19-1.48,3.25-2.27.65-.49,1.27-1,1.91-1.5a5,5,0,0,0,.44-.39h0s0,0,0,0c.4-.35.79-.73,1.16-1.12a7.57,7.57,0,0,0,.69-.86,3.15,3.15,0,0,0,.37-.58l.26-.62,1.14.5-1.23,2.87.89.12A36.65,36.65,0,0,1,476,295l2.48.77c2,.57,3.94,1.12,5.9,1.7s3.92,1.18,5.9,1.73c3.21.87,6.43,1.68,9.63,2.56s6.38,1.72,9.59,2.51,6.41,1.62,9.62,2.4c1.81.43,3.63.85,5.44,1.24,1.56.33,3.12.59,4.69.86l2.65.36c1.13.14,2.28.23,3.42.33,2,.21,4,.36,6,.55,4.72.45,9.4,1.13,14.07,1.92,3.27.55,6.53,1.17,9.79,1.79s6.26,1.25,9.35,2c3.34.83,6.65,1.78,10,2.7s6.6,1.8,9.9,2.68c6.46,1.7,12.89,3.43,19.31,5.27,3.23.93,6.48,1.78,9.68,2.8s6.54,2.15,9.81,3.3,6.62,2.31,10,3.4c3.08,1,6.17,2,9.23,3s6.38,2.17,9.52,3.36c1.64.62,3.28,1.22,4.95,1.78.79.26,1.59.51,2.4.72Z" transform="translate(-108.87 -130.41)"/><path class="cls-1" d="M470.35,289.21a2.12,2.12,0,0,1-.08,1l-.26.62a3.15,3.15,0,0,1-.37.58,7.57,7.57,0,0,1-.69.86c-.37.39-.76.78-1.16,1.12q1.09-2.53,2.18-5A2.43,2.43,0,0,1,470.35,289.21Z" transform="translate(-108.87 -130.41)"/><path class="cls-1" d="M469.9,288.26l-.26-.33-.44-.35a4,4,0,0,0-1-.46,11.31,11.31,0,0,0-2.82-.53c-1.32-.13-2.65-.25-4-.4-2.44-.39-4.82-1-7.22-1.57-2.62-.58-5.28-1-7.94-1.41s-5.28-.78-7.92-1.2-5.28-.89-7.93-1.35-5.14-.85-7.71-1.34c-2.83-.52-5.63-1.14-8.42-1.83-2.58-.63-5.15-1.31-7.7-2.06s-5-1.6-7.39-2.57c-1.32-.52-2.62-1-3.94-1.52s-2.57-.87-3.87-1.3c-2.55-.81-5.12-1.53-7.7-2.22-1.37-.37-2.78-.62-4.17-.9-.65-.13-1.31-.19-2-.29s-1.57-.16-2.35-.23c-1.27-.12-2.57-.1-3.84-.14-1.44,0-2.88-.11-4.32-.25a.51.51,0,0,1-.18,0l-.1,0c.06.16.14.3.19.47-.06-.17-.13-.31-.19-.47l-1.74.6a1.48,1.48,0,0,0-.11,1c.16,1,1.3,1.25,2.12,1.44a14.57,14.57,0,0,0,1.56.23l.53.06,1,.42a1.06,1.06,0,0,0,1.3-.23h.11c.89.06,1.77.1,2.65.16s1.79.16,2.7.27l1.75.29c.7.11,1.39.3,2.08.45,1.43.31,2.83.73,4.23,1.12,1.22.35,2.42.73,3.64,1.12s2.48.77,3.7,1.21c2.68,1,5.29,2,7.93,3.07,2.42,1,4.91,1.73,7.42,2.45s5.12,1.46,7.7,2.12q4.15,1,8.33,1.91c5.22,1.08,10.42,2.18,15.67,3.09,4.63.79,9.32,1.17,14,1.55,2.24.18,4.46.31,6.71.42,2.06.11,4.16.13,6.21.38a8.26,8.26,0,0,1,1.46.38.34.34,0,0,1,.11.05l-.06.11a12.48,12.48,0,0,1-1.54,1.48,43.83,43.83,0,0,1-4.69,3c.92-.16,1.84-.29,2.76-.4s1.78-.24,2.67-.29c.29,0,.58,0,.86,0,0,0,0,0,.05,0q1.09-2.53,2.18-5Z" transform="translate(-108.87 -130.41)"/><path class="cls-1" d="M467.74,293.45a5,5,0,0,1-.44.39c-.64.51-1.26,1-1.91,1.5-1.06.79-2.14,1.54-3.25,2.27-1.33.86-2.67,1.7-4,2.54a3.33,3.33,0,0,1-.68-3.74l1.67-.93c.78-.43,1.56-.86,2.32-1.31.92-.16,1.84-.29,2.76-.4s1.78-.24,2.67-.29C467.17,293.46,467.46,293.46,467.74,293.45Z" transform="translate(-108.87 -130.41)"/><path class="cls-1" d="M459.61,294.54c.62-.14,1.22-.27,1.84-.37-.77.44-1.54.87-2.32,1.31l-1.67.93A3.19,3.19,0,0,1,459.61,294.54Z" transform="translate(-108.87 -130.41)"/><g id="_Group_2" data-name="&lt;Group&gt;"><path class="cls-1" d="M421,527.16a2.63,2.63,0,0,1,1,.91,27,27,0,0,1,1.83,3c.24.46.48.94.69,1.41-2.29-1.21-4.58-2.44-6.85-3.68a2.34,2.34,0,0,1,1.1-1.54,2.31,2.31,0,0,1,1.19-.32,2.43,2.43,0,0,1,.63.09A1.9,1.9,0,0,1,421,527.16Z" transform="translate(-108.87 -130.41)"/><path class="cls-1" d="M428.58,511.29l2.54-1.86c1.21-1,2.42-1.91,3.61-2.87s2.48-2.06,3.76-3c2.61-2,5.27-4,8-5.85l8.07-5.32,4.61-3.12c1.19-.81,2.32-1.7,3.47-2.56,1.84-1.49,3.67-3,5.48-4.5s3.62-3.1,5.45-4.61q5.48-4.5,11.07-8.84,5.26-4.1,10.4-8.34c3.24-2.67,6.45-5.37,9.7-8,1.63-1.32,3.32-2.56,5-3.83,1.43-1.1,2.92-2.16,4.4-3.21,3.41-2.42,6.84-4.85,10.2-7.33l.18-.14q3.61-2.8,7.16-5.7,1.94-1.6,3.91-3.19c.57-.45,1.16-.9,1.75-1.35s1.32-1,2-1.52c1.24-.89,2.48-1.78,3.75-2.63s2.82-1.87,4.24-2.79c2.62-1.7,5.28-3.34,7.94-5,3.51-2.18,6.94-4.44,10.36-6.75,3.21-2.17,6.37-4.38,9.6-6.5,3.71-2.45,7.46-4.83,11.24-7.18,3.33-2.07,6.7-4.11,10-6.19,3.64-2.27,7.27-4.55,10.94-6.78s7.21-4.31,10.83-6.45c7-4.15,13.81-8.54,20.62-13,3.46-2.25,6.9-4.46,10.39-6.64s6.87-4.3,10.38-6.31l4.4-2.48.05,0c1.52.52,3.08,1,4.63,1.38a12.93,12.93,0,0,0,3.07.58,15.43,15.43,0,0,0-2.71.63c-1.79.85-3.47,1.93-5.17,2.95q-10.3,6.2-20.37,12.76c-3.37,2.21-6.75,4.45-10.15,6.61-3.69,2.35-7.41,4.63-11.16,6.87-3.55,2.12-7.16,4.15-10.72,6.24s-7.06,4.24-10.58,6.38c-7,4.25-14.06,8.35-20.94,12.76q-5.56,3.56-11,7.25-4.91,3.3-9.92,6.43c-3.51,2.18-7,4.32-10.52,6.54-1.57,1-3.14,2-4.67,3.09-.86.62-1.74,1.2-2.58,1.84l-2.45,1.86c-2.59,2.07-5.15,4.19-7.72,6.27s-5.22,4.07-7.86,6c-2.46,1.84-5,3.56-7.51,5.38-1.33,1-2.68,1.92-4,2.93l-3.65,2.82c-4.19,3.4-8.33,6.86-12.49,10.29-4,3.25-8,6.34-12.09,9.46-1.89,1.49-3.78,3-5.65,4.49-1.64,1.34-3.26,2.69-4.89,4-1.36,1.13-2.7,2.3-4.09,3.41-1.73,1.38-3.43,2.78-5.22,4.09-1.63,1.19-3.26,2.35-4.95,3.46-3.46,2.26-7,4.44-10.41,6.68-1.84,1.19-3.66,2.4-5.45,3.65-1.51,1-3,2.18-4.42,3.29-2.11,1.63-4.2,3.28-6.38,4.82-.66.48-1.32,1-2,1.41l-1.86,1.19c-1.13.72-2.31,1.39-3.48,2.06s-2.21,1.22-3.3,1.86-2.43,1.46-3.63,2.24l-1.38.9,5.63,2.78-1,2a1.9,1.9,0,0,0-.43-.17,2.43,2.43,0,0,0-.63-.09,2.31,2.31,0,0,0-1.19.32,2.34,2.34,0,0,0-1.1,1.54c-1.09-.58-2.18-1.19-3.26-1.79a3.29,3.29,0,0,0-.11-.53,3.88,3.88,0,0,0-1.59-1.85,8.53,8.53,0,0,0-2.34-1.12c-.24-.09-.48-.17-.72-.24,1.73-1.18,3.46-2.36,5.21-3.51s3.71-2.42,5.65-3.51c.87-.5,1.76-1,2.61-1.48s1.85-1,2.72-1.63S427.7,511.93,428.58,511.29Z" transform="translate(-108.87 -130.41)"/><path class="cls-2" d="M276.46,584.88c1.54.38,3.1.73,4.65,1.09,3,.68,6,1.35,9,2.16,3.25.89,6.47,1.84,9.67,2.92,1.81.62,3.61,1.31,5.4,2s3.88,1.36,5.81,2.05q5.51,2,10.92,4.23a13,13,0,0,0,2.29.77,9.39,9.39,0,0,0,1.35.15,8.21,8.21,0,0,0,1.7-.23,13,13,0,0,0,3-1.1,30.47,30.47,0,0,0,3.17-1.77,43.52,43.52,0,0,0,3.57-2.53c.84-.65,1.71-1.27,2.53-1.94,2.41-2,4.81-4,7.19-6s5-4.21,7.45-6.39,5.16-4.64,7.71-7,5-4.71,7.45-7.08q3.4-3.26,6.88-6.43c2.41-2.2,4.92-4.3,7.42-6.39s4.9-4.09,7.4-6.08c3.26-2.61,6.58-5.15,9.86-7.72s6.52-5.22,9.83-7.78l.09-.08,1.59-1.23a6.63,6.63,0,0,0,1.62-1.67,2.75,2.75,0,0,0,.41-1.84c1.08.6,2.17,1.21,3.26,1.79a2.27,2.27,0,0,0,.26,1.68c.5.82,1,1.65,1.41,2.51.26.49.46,1,.69,1.5.77,1.9,1.52,3.81,2.25,5.73a55.87,55.87,0,0,1,1.79,6.17c1,4,1.83,8.08,2.46,12.16.13,1.18.25,2.35.33,3.54s.14,2.62.19,3.93c.1,2.36.06,4.75.05,7.13,0,5.29-.1,10.58-.28,15.86-.14,3.86-.55,7.68-1,11.5a.14.14,0,0,0,0,.06h0c-.66,4.85-1.36,9.7-2.21,14.52-.44,2.54-.9,5.08-1.33,7.61s-.84,5.18-1.22,7.78c-.24,1.57-.37,3.15-.54,4.73-.12,1.07-.21,2.14-.29,3.21-.23,2.8-.41,5.58-.59,8.38-.15,2.42-.32,4.83-.49,7.24-.1,1.38-.25,2.76-.38,4.15-.11,1.17-.24,2.32-.37,3.49-.27,2.4-.57,4.81-.81,7.21-.28,2.86-.55,5.72-.79,8.59-.21,2.46-.42,4.91-.68,7.36s-.57,5.12-.85,7.68c-.36,3.15-.6,6.31-.94,9.46-.12.73-.21,1.47-.38,2.19-.13.55-.26,1.11-.38,1.66a19.94,19.94,0,0,1-1,2.9,13.49,13.49,0,0,1-.92,1.75c-2-.91-4-2-6-3a62.17,62.17,0,0,0-6.92-2.72c-2.31-.77-4.62-1.49-6.93-2.25-2.08-.68-4.13-1.45-6.17-2.28-3.48-1.58-6.9-3.29-10.37-4.9-3.68-1.72-7.41-3.32-11.14-4.89l-6.54-2.82c-2.54-1.09-5.08-2.21-7.65-3.23q-7-2.77-14.08-5.32c-2.43-.89-4.86-1.77-7.3-2.6S323.56,674.8,321,674s-4.83-1.53-7.22-2.36S309,670,306.58,669.1s-5-1.74-7.55-2.55c-2.29-.73-4.6-1.39-6.88-2.15-4.83-1.58-9.62-3.25-14.41-5-2.39-.86-4.77-1.72-7.13-2.65s-5-1.93-7.48-2.78-5-1.51-7.59-2.14c-2.35-.59-4.72-1.1-7.05-1.77s-4.94-1.43-7.41-2.14-4.7-1.26-7.07-1.81c-5-1.19-10.08-2.48-15.17-3.46-2.59-.51-5.21-.91-7.83-1.18s-5.17-.44-7.76-.71a23.27,23.27,0,0,1-5.06-1.16,8.41,8.41,0,0,1-.8-.45,3.48,3.48,0,0,1-.35-.35l-.16-.27a8.28,8.28,0,0,1-.36-1.35,22.85,22.85,0,0,1,.17-4.46c.33-2.24.9-4.44,1.29-6.67q.63-3.64,1.24-7.29c.42-2.54.78-5.08,1.09-7.62.14-1.21.28-2.42.41-3.64.06-.55.13-1.1.17-1.65s.14-1.37.15-2.06.08-1.61,0-2.42,0-1.8-.11-2.71c-.13-1.86-.31-3.71-.52-5.56-.39-3.5-1-7-1.53-10.44-.12-.94-.26-1.89-.35-2.83-.11-1.19-.26-2.39-.31-3.59s-.15-2.35-.12-3.52.06-2.13.11-3.2c2.6.65,5.21,1.31,7.82,1.91,6.33,1.49,12.67,2.9,19,4.51,1.59.4,3.16.83,4.75,1.24s2.9.78,4.37,1.07c1.73.35,3.44.68,5.17,1s3.37.51,5.05.75c6.09.86,12.21,1.44,18.33,2.17h.13c1.48.21,3,.42,4.43.66s2.93.54,4.38.85C273.27,584,274.87,584.49,276.46,584.88Z" transform="translate(-108.87 -130.41)"/><path class="cls-2" d="M715.57,360.61c1.9.64,3.82,1.23,5.77,1.75s4.14,1.06,6.2,1.6c2.24.58,4.44,1.24,6.66,1.87,2.45.69,4.9,1.33,7.39,1.91,2.3.55,4.59,1.13,6.85,1.83,2.07.63,4.1,1.37,6.11,2.15,5.64,2.52,11,5.57,16.6,8.16,1.48.68,3,1.35,4.48,1.92s3,1.08,4.52,1.57c2.9.92,5.82,1.79,8.65,2.89a15.72,15.72,0,0,1,1.54.76,1.18,1.18,0,0,1-.14.18,37.07,37.07,0,0,1-4.47,4.16c-1.63,1.23-3.28,2.45-4.95,3.64s-3.33,2.38-5,3.59-3,2.22-4.49,3.35q-2.74,2.06-5.51,4.06c-1.52,1.1-3.11,2.14-4.69,3.15s-3.37,2.16-5.09,3.19c-3.65,2.19-7.3,4.38-10.89,6.7-7,4.51-13.84,9.19-20.71,13.88-6.71,4.58-13.26,9.38-19.87,14.12-5.86,4.21-11.62,8.56-17.33,13-3,2.3-6,4.6-8.9,7-.36.3-.72.6-1.08.92-.19-2.66-.38-5.32-.55-8a1.88,1.88,0,0,0-3.76,0q.15,4.41.37,8.79c0,.8.08,1.6.12,2.4-1.22,1-2.46,2-3.7,3-1.57,1.18-3.12,2.34-4.71,3.48-1.86,1.32-3.74,2.6-5.62,3.89-3.2,2.19-6.41,4.34-9.6,6.55-6.92,4.79-13.75,9.75-20.79,14.39-3.41,2.26-6.88,4.43-10.38,6.57-1.72,1-3.44,2.05-5.13,3.15-1.89,1.23-3.77,2.46-5.64,3.73-3.36,2.28-6.71,4.57-10.06,6.84s-7,4.61-10.47,6.88-7.2,4.7-10.82,7c-3.22,2.07-6.51,4-9.77,6.06-6.94,4.29-13.79,8.73-20.49,13.39-5,3.5-9.69,7.46-14.5,11.25l-.4.31q-2.4,1.83-4.91,3.51A34,34,0,0,1,521.2,574a15.1,15.1,0,0,1-3,.8,16.89,16.89,0,0,1-2.86-.05,27.11,27.11,0,0,1-5.14-1.72c-1.75-.75-3.48-1.56-5.19-2.36-1.88-.87-3.78-1.73-5.67-2.58-3.48-1.58-7-3-10.57-4.44l-.26-.11-.1,0c-1.76-.77-3.5-1.57-5.24-2.4s-3.67-1.72-5.5-2.6-3.59-1.83-5.35-2.8-3.44-2-5.16-3c-3.54-2.07-7.15-4-10.59-6.26-1.58-1-3.13-2.08-4.75-3s-3.5-2-5.21-3.11c-1.18-.76-2.35-1.49-3.5-2.3s-2.42-1.72-3.62-2.59-2.25-1.7-3.43-2.45c-.85-.56-1.72-1.11-2.58-1.66-.45-.3-.91-.64-1.39-.9L427.86,528c-1.27-.69-2.6-1.27-3.91-1.91l-1.94-1-5.63-2.78,1.38-.9c1.2-.78,2.41-1.51,3.63-2.24s2.21-1.23,3.3-1.86,2.34-1.34,3.48-2.06l1.86-1.19c.69-.44,1.35-.94,2-1.41,2.18-1.53,4.28-3.19,6.38-4.82,1.46-1.11,2.9-2.25,4.42-3.29,1.79-1.25,3.62-2.46,5.45-3.65,3.46-2.25,7-4.43,10.41-6.68,1.68-1.1,3.32-2.27,4.95-3.46,1.78-1.32,3.49-2.71,5.22-4.09,1.39-1.11,2.73-2.28,4.09-3.41,1.63-1.35,3.25-2.7,4.89-4,1.87-1.51,3.76-3,5.65-4.49,4.06-3.12,8.14-6.21,12.09-9.46,4.17-3.43,8.3-6.89,12.49-10.29l3.65-2.82c1.31-1,2.66-2,4-2.93,2.48-1.81,5-3.54,7.51-5.38,2.65-2,5.29-4,7.86-6s5.13-4.2,7.72-6.27l2.45-1.86c.84-.64,1.72-1.22,2.58-1.84,1.52-1.07,3.1-2.08,4.67-3.09,3.49-2.22,7-4.36,10.52-6.54q5-3.11,9.92-6.43,5.48-3.68,11-7.25c6.88-4.42,14-8.51,20.94-12.76,3.52-2.14,7-4.3,10.58-6.38s7.17-4.13,10.72-6.24c3.75-2.24,7.46-4.51,11.16-6.87,3.4-2.16,6.78-4.4,10.15-6.61q10.06-6.58,20.37-12.76c1.71-1,3.38-2.09,5.17-2.95a15.43,15.43,0,0,1,2.71-.63,5.52,5.52,0,0,0,.84-.05,5.44,5.44,0,0,0,.6-.12l1.7-.17c.76-.06,1.5-.08,2.26-.09a31.2,31.2,0,0,1,4,.23c.85.15,1.71.29,2.55.49,1.18.27,2.34.57,3.51.9,1.88.53,3.71,1.2,5.54,1.85,3.76,1.36,7.47,2.86,11.25,4.18,2,.69,4,1.36,5.92,2S713.7,360,715.57,360.61Z" transform="translate(-108.87 -130.41)"/><path class="cls-1" d="M677.19,349c-.76,0-1.5,0-2.26.09l-1.7.17a14.77,14.77,0,0,0,2.21-.83,25.18,25.18,0,0,0,3.78-2.07c1-.64,1.91-1.29,2.85-2a34.21,34.21,0,0,1,4.9,1c2,.55,4,1.14,6,1.86s3.89,1.44,5.81,2.18c1.75.67,3.48,1.36,5.24,2s3.8,1.32,5.7,2,3.81,1.37,5.72,2c1,.33,2,.71,3,1s2,.64,3,.9c4,1,8,1.9,12,2.94,2.09.55,4.19,1.09,6.3,1.59,1.89.45,3.8.79,5.68,1.27s4,1.06,6,1.73a53.72,53.72,0,0,1,5.93,2.35c3.75,1.81,7.28,4,10.87,6.11,1.59.92,3.19,1.85,4.81,2.7s3.3,1.66,5,2.41l.14.05c2.71,1,5.46,2,8.21,2.92,1.54.56,3.08,1.12,4.59,1.77.31.14.62.29.92.45a7.69,7.69,0,0,1,.92.52l.8.6a3,3,0,0,1,.79,1.19c0,.27.08.55.11.83s-.08.55-.12.83-.28.67-.43,1a26,26,0,0,1-5.52,5.68c-.69.58-1.45,1.11-2.16,1.66-.46.36-.93.71-1.4,1-2.63,1.9-5.3,3.76-7.89,5.7l-5.11,3.82c-1.48,1.11-3,2.22-4.51,3.25q-2.83,1.91-5.71,3.75c-1.57,1-3.16,1.93-4.76,2.88-3.68,2.18-7.31,4.42-10.9,6.75s-6.8,4.61-10.17,7q-10.16,7.06-20,14.48c-6.28,4.7-12.6,9.36-18.82,14.15l-.42.31c-2.49,1.94-5,3.9-7.48,5.84s-4.76,3.69-7.07,5.62L677.73,474c-.17-2-.32-4-.48-6,.36-.31.72-.62,1.08-.92,2.89-2.43,5.91-4.73,8.9-7,5.71-4.42,11.47-8.77,17.33-13,6.61-4.74,13.16-9.55,19.87-14.12,6.87-4.69,13.75-9.36,20.71-13.88,3.59-2.31,7.24-4.5,10.89-6.7,1.72-1,3.4-2.09,5.09-3.19s3.16-2.05,4.69-3.15q2.77-2,5.51-4.06c1.5-1.12,3-2.26,4.49-3.35s3.32-2.39,5-3.59,3.32-2.41,4.95-3.64a37.07,37.07,0,0,0,4.47-4.16,1.18,1.18,0,0,0,.14-.18,15.72,15.72,0,0,0-1.54-.76c-2.83-1.1-5.75-2-8.65-2.89-1.52-.49-3-1-4.52-1.57s-3-1.24-4.48-1.92c-5.59-2.59-11-5.65-16.6-8.16-2-.78-4-1.52-6.11-2.15-2.26-.69-4.55-1.27-6.85-1.83-2.48-.58-4.94-1.22-7.39-1.91-2.22-.63-4.43-1.29-6.66-1.87-2.06-.54-4.14-1-6.2-1.6s-3.87-1.11-5.77-1.75-3.73-1.3-5.59-1.94-4-1.35-5.92-2c-3.78-1.32-7.49-2.82-11.25-4.18-1.83-.65-3.66-1.32-5.54-1.85-1.17-.32-2.33-.63-3.51-.9-.84-.19-1.7-.33-2.55-.49A31.2,31.2,0,0,0,677.19,349Z" transform="translate(-108.87 -130.41)"/><path class="cls-1" d="M673.82,477.08c-.17-2-.29-4-.39-5.93l.37-.3c1.16-1,2.3-1.94,3.46-2.9.15,2,.3,4,.48,6q-1.46,1.2-2.95,2.36Z" transform="translate(-108.87 -130.41)"/><path class="cls-2" d="M673.8,470.85l-.37.3c0-.8-.08-1.6-.12-2.4q-.23-4.39-.37-8.79a1.88,1.88,0,0,1,3.76,0c.17,2.66.36,5.32.55,8C676.1,468.91,675,469.88,673.8,470.85Z" transform="translate(-108.87 -130.41)"/><path class="cls-1" d="M422,528.06a2.63,2.63,0,0,0-1-.91l1-2,1.94,1c1.31.64,2.63,1.22,3.91,1.91l4.23,2.29c.49.26.94.59,1.39.9.86.55,1.73,1.1,2.58,1.66,1.19.76,2.3,1.62,3.43,2.45s2.41,1.73,3.62,2.59,2.32,1.54,3.5,2.3c1.71,1.09,3.47,2.07,5.21,3.11s3.17,2,4.75,3c3.44,2.22,7.05,4.19,10.59,6.26,1.72,1,3.41,2.07,5.16,3s3.53,1.92,5.35,2.8,3.67,1.73,5.5,2.6,3.48,1.63,5.24,2.4l.1,0,.26.11c3.54,1.43,7.09,2.86,10.57,4.44,1.89.85,3.79,1.71,5.67,2.58,1.72.81,3.44,1.62,5.19,2.36a27.11,27.11,0,0,0,5.14,1.72,16.89,16.89,0,0,0,2.86.05,15.1,15.1,0,0,0,3-.8,34,34,0,0,0,5.24-2.83q2.51-1.68,4.91-3.51l.4-.31c4.82-3.79,9.48-7.75,14.5-11.25,6.7-4.67,13.54-9.1,20.49-13.39,3.26-2,6.55-4,9.77-6.06q5.43-3.48,10.82-7c3.51-2.27,7-4.55,10.47-6.88s6.71-4.56,10.06-6.84c1.87-1.26,3.75-2.49,5.64-3.73,1.68-1.1,3.41-2.12,5.13-3.15,3.5-2.14,7-4.31,10.38-6.57,7-4.64,13.87-9.6,20.79-14.39,3.19-2.21,6.4-4.36,9.6-6.55,1.88-1.29,3.76-2.57,5.62-3.89,1.59-1.13,3.14-2.3,4.71-3.48,1.24-1,2.48-2,3.7-3,.1,2,.22,4,.39,5.93-2.39,1.85-4.82,3.61-7.29,5.33-3.21,2.21-6.46,4.33-9.7,6.5q-5.62,3.76-11.17,7.6c-3.17,2.2-6.35,4.41-9.56,6.54-3.48,2.33-7,4.65-10.54,6.84l-5.68,3.43c-1.58,1-3.17,1.89-4.72,2.89-3.55,2.29-7,4.67-10.54,7-6.91,4.67-13.92,9.18-20.92,13.71q-5.41,3.52-10.91,6.9c-3.32,2-6.65,4-9.92,6.14-6.68,4.3-13.37,8.62-19.69,13.42q-2.11,1.64-4.19,3.3a105.11,105.11,0,0,1-9.69,7.11,40.68,40.68,0,0,1-4.91,2.66,17.6,17.6,0,0,1-6.09,1.84,15.71,15.71,0,0,1-3-.11,16.09,16.09,0,0,1-3.67-.94c-1.85-.71-3.68-1.47-5.48-2.3-3.54-1.65-7.11-3.26-10.7-4.79-1.61-.65-3.21-1.3-4.84-1.89s-3.51-1.22-5.24-1.92c-3.61-1.48-7.19-3-10.77-4.59-3.16-1.39-6.19-3.08-9.23-4.73-3.36-1.81-6.77-3.55-10.11-5.43-1.67-.94-3.29-2-5-3-1.81-1.08-3.67-2.09-5.5-3.13a111.38,111.38,0,0,1-10.35-7c-1.63-1.18-3.36-2.22-5-3.33-.81-.53-1.7-1-2.54-1.46s-1.4-.81-2.12-1.19l-.23-.12s0,0,0,0c-.22-.48-.45-1-.69-1.41A27,27,0,0,0,422,528.06Z" transform="translate(-108.87 -130.41)"/><path class="cls-2" d="M490.61,568.31c1.63.59,3.23,1.24,4.84,1.89,3.6,1.53,7.16,3.14,10.7,4.79,1.79.83,3.63,1.59,5.48,2.3a16.09,16.09,0,0,0,3.67.94,15.71,15.71,0,0,0,3,.11,17.6,17.6,0,0,0,6.09-1.84,40.68,40.68,0,0,0,4.91-2.66,105.11,105.11,0,0,0,9.69-7.11q2.09-1.67,4.19-3.3c6.32-4.81,13-9.13,19.69-13.42,3.27-2.11,6.61-4.1,9.92-6.14q5.51-3.39,10.91-6.9c7-4.54,14-9,20.92-13.71,3.5-2.36,7-4.74,10.54-7,1.54-1,3.14-1.94,4.72-2.89l5.68-3.43c3.57-2.18,7.06-4.5,10.54-6.84,3.21-2.14,6.38-4.34,9.56-6.54q5.56-3.86,11.17-7.6c3.24-2.17,6.49-4.29,9.7-6.5,2.47-1.73,4.9-3.49,7.29-5.33a2.65,2.65,0,0,0,0,.29q.42,4.45.94,8.9c.33,2.86.64,5.72.76,8.6s.26,5.54.36,8.3,0,5.6,0,8.41-.05,5.57-.17,8.36q-.1,2.28-.23,4.57c-.08,1.19-.22,2.38-.37,3.55-.4,2.58-.86,5.15-1.41,7.71-.27,1.21-.54,2.43-.86,3.63-.19.72-.4,1.44-.63,2.15s-.42,1.21-.66,1.8c-.38.86-.78,1.72-1.23,2.54a23.54,23.54,0,0,1-1.51,2.35,14.58,14.58,0,0,1-1.3,1.41c-.51.49-1.07.93-1.62,1.36-2.11,1.59-4.32,3-6.54,4.41q-3.61,2.27-7.28,4.47c-4.87,2.95-9.88,5.62-14.82,8.43-2.53,1.44-5,2.89-7.54,4.35-2.33,1.36-4.71,2.66-7.07,4-5.19,2.84-10.33,5.75-15.38,8.84s-9.6,6.33-14.38,9.52c-4.56,3-9.18,5.92-13.78,8.88-4.95,3.16-9.86,6.37-14.84,9.5-2.42,1.51-4.85,3-7.24,4.55l-4.22,2.73c-1.27.83-2.53,1.73-3.78,2.58-4.61,3.13-9.08,6.46-13.57,9.75q-3.77,2.77-7.57,5.52c-2.28,1.65-4.61,3.24-6.91,4.84q-7.24,5-14.28,10.32c-2.17,1.63-4.31,3.29-6.5,4.89-2.44,1.8-4.9,3.59-7.39,5.32-4.85,3.39-9.68,6.84-14.58,10.14-4.73,3.2-9.61,6.19-14.47,9.18-2.41,1.49-4.82,2.94-7.27,4.33-1.24.7-2.46,1.4-3.7,2.07l-3.84,2.07c-2.57,1.39-5.12,2.81-7.59,4.34s-4.77,3-7.17,4.52c-1.61,1-3.2,2-4.84,3s-3.52,2.05-5.33,3L421.14,708c-.93.48-1.9.9-2.84,1.34l-1.06.5c.11-.3.22-.62.31-.92a26.39,26.39,0,0,0,.79-3.15,64.94,64.94,0,0,0,.92-7.94c.19-2.62.44-5.25.71-7.86s.52-5,.76-7.52.41-5.13.62-7.7c.42-5.17,1-10.33,1.62-15.5.5-4.56.76-9.15,1.06-13.71.16-2.53.36-5,.56-7.56.18-2.22.45-4.43.7-6.64.38-2.49.77-5,1.22-7.47s.91-5.08,1.37-7.61c.91-5,1.66-10,2.38-15.09,1.48-10.43,1.52-21,1.59-31.55,0-2.36,0-4.74-.17-7.11a81.61,81.61,0,0,0-1-8.26c-.42-2.51-.94-5-1.46-7.49-.24-1.16-.45-2.33-.77-3.48-.18-.66-.37-1.33-.54-2s-.42-1.3-.63-1.94a55.85,55.85,0,0,0-2.13-5.45c-.22-.48-.43-1-.66-1.41l.23.12c.71.38,1.41.79,2.12,1.19s1.73.93,2.54,1.46c1.68,1.1,3.41,2.15,5,3.33a111.38,111.38,0,0,0,10.35,7c1.83,1,3.68,2.05,5.5,3.13,1.66,1,3.28,2,5,3,3.34,1.88,6.75,3.62,10.11,5.43,3,1.65,6.07,3.34,9.23,4.73,3.57,1.57,7.16,3.11,10.77,4.59C487.1,567.09,488.86,567.69,490.61,568.31Z" transform="translate(-108.87 -130.41)"/><path class="cls-1" d="M675.88,511.59c.05-2.81.1-5.6,0-8.41s-.25-5.54-.36-8.3-.42-5.73-.76-8.6-.66-5.93-.94-8.9a2.65,2.65,0,0,1,0-.29l1-.75q1.49-1.17,2.95-2.36l.19,2.38c.25,2.89.63,5.78,1,8.66s.64,5.63.79,8.46.21,5.6.29,8.41c.05,1.43.08,2.84.06,4.27s-.06,2.86-.11,4.29c-.09,2.84-.18,5.68-.32,8.51s-.31,5.68-.73,8.5-.91,5.53-1.56,8.25c-.32,1.38-.63,2.76-1,4.13-.21.71-.4,1.44-.65,2.15s-.52,1.48-.82,2.2a22.89,22.89,0,0,1-4.41,7.22,27.35,27.35,0,0,1-3,2.68c-1.12.93-2.3,1.78-3.48,2.65-2.19,1.62-4.45,3.16-6.71,4.7-2.45,1.67-4.92,3.29-7.43,4.88s-4.82,2.94-7.24,4.38-4.87,3-7.3,4.45-4.72,2.89-7.12,4.28l-7.86,4.52q-7.42,4.31-14.57,9c-2.39,1.56-4.73,3.2-7.07,4.81s-4.85,3.21-7.29,4.77c-4.68,3-9.41,6-14.11,8.92q-7.42,4.68-14.91,9.24c-1.14.68-2.28,1.37-3.41,2.08s-2.49,1.52-3.7,2.32c-2.55,1.67-5.09,3.36-7.59,5.1-4.7,3.26-9.31,6.63-14,9.9s-9.69,6.55-14.52,9.86-9.71,6.84-14.5,10.33c-2.22,1.62-4.46,3.24-6.74,4.78L490.51,670l-7.9,5.3c-2.38,1.6-4.81,3.1-7.25,4.6s-5,3-7.43,4.46-4.9,2.89-7.38,4.32-4.91,2.73-7.4,4-5.21,2.7-7.75,4.15-4.88,2.87-7.27,4.37l-3.42,2.13c-1.19.73-2.36,1.5-3.59,2.19L426.85,708c-.56.32-1.16.59-1.74.9l-2.42,1.25c-1,.51-2,1-3,1.41a1.08,1.08,0,0,1-.52,1.12c-.78.42-1.56.86-2.36,1.25a13,13,0,0,1-1.75.72,7.21,7.21,0,0,1-1.31.3,5.21,5.21,0,0,0,1.81-1.68,15.45,15.45,0,0,0,1.66-3.46l1.06-.5c.94-.44,1.91-.86,2.84-1.34l2.87-1.49c1.81-.93,3.57-2,5.33-3s3.23-2,4.84-3c2.4-1.49,4.76-3,7.17-4.52s5-2.95,7.59-4.34l3.84-2.07c1.24-.67,2.46-1.37,3.7-2.07,2.45-1.39,4.86-2.84,7.27-4.33,4.86-3,9.74-6,14.47-9.18,4.9-3.3,9.73-6.75,14.58-10.14,2.48-1.74,4.95-3.52,7.39-5.32,2.19-1.6,4.33-3.26,6.5-4.89q7-5.3,14.28-10.32c2.3-1.6,4.63-3.19,6.91-4.84q3.79-2.75,7.57-5.52c4.49-3.29,9-6.62,13.57-9.75,1.25-.85,2.51-1.75,3.78-2.58l4.22-2.73c2.39-1.56,4.82-3,7.24-4.55,5-3.13,9.89-6.34,14.84-9.5,4.6-3,9.22-5.85,13.78-8.88,4.78-3.2,9.48-6.51,14.38-9.52s10.18-6,15.38-8.84c2.36-1.3,4.74-2.59,7.07-4,2.51-1.46,5-2.92,7.54-4.35,4.94-2.82,9.95-5.49,14.82-8.43q3.66-2.2,7.28-4.47c2.22-1.4,4.44-2.82,6.54-4.41.55-.43,1.11-.87,1.62-1.36a14.58,14.58,0,0,0,1.3-1.41,23.54,23.54,0,0,0,1.51-2.35c.45-.82.85-1.67,1.23-2.54.24-.59.46-1.2.66-1.8s.43-1.43.63-2.15c.32-1.2.59-2.42.86-3.63.55-2.56,1-5.13,1.41-7.71.15-1.18.29-2.36.37-3.55q.13-2.28.23-4.57C675.83,517.16,675.84,514.37,675.88,511.59Z" transform="translate(-108.87 -130.41)"/><path class="cls-1" d="M411.83,714a1.42,1.42,0,0,1,.13-1,2.23,2.23,0,0,1,.72-.89,2.41,2.41,0,0,1,.32-.22c.48-.28,1-.54,1.45-.78l1.38-.64,1.4-.65a15.45,15.45,0,0,1-1.66,3.46,5.21,5.21,0,0,1-1.81,1.68,2.59,2.59,0,0,1-1-.09A1.35,1.35,0,0,1,411.83,714Z" transform="translate(-108.87 -130.41)"/><path class="cls-1" d="M430.72,554.23a81.61,81.61,0,0,1,1,8.26c.15,2.36.18,4.74.17,7.11-.06,10.53-.11,21.12-1.59,31.55-.71,5-1.47,10.08-2.38,15.09-.46,2.54-.92,5.06-1.37,7.61s-.84,5-1.22,7.47c-.25,2.21-.52,4.42-.7,6.64-.21,2.52-.4,5-.56,7.56-.3,4.57-.56,9.16-1.06,13.71-.58,5.16-1.2,10.32-1.62,15.5-.21,2.57-.38,5.14-.62,7.7s-.51,5-.76,7.52-.52,5.24-.71,7.86a64.94,64.94,0,0,1-.92,7.94,26.39,26.39,0,0,1-.79,3.15c-.1.3-.21.62-.31.92l-1.4.65-1.38.64c-.49.24-1,.5-1.45.78a2.41,2.41,0,0,0-.32.22l-.9-1.62h0a13.49,13.49,0,0,0,.92-1.75,19.94,19.94,0,0,0,1-2.9c.12-.55.25-1.11.38-1.66.17-.72.26-1.46.38-2.19.33-3.15.58-6.31.94-9.46.28-2.56.59-5.11.85-7.68s.48-4.9.68-7.36c.24-2.86.51-5.72.79-8.59.24-2.41.54-4.82.81-7.21.13-1.17.26-2.32.37-3.49.13-1.38.28-2.76.38-4.15.16-2.41.33-4.82.49-7.24.18-2.8.37-5.58.59-8.38.09-1.07.17-2.14.29-3.21.17-1.58.3-3.16.54-4.73.38-2.59.77-5.18,1.22-7.78s.89-5.08,1.33-7.61c.85-4.83,1.56-9.68,2.21-14.52h0a.14.14,0,0,1,0-.06c.41-3.82.82-7.65,1-11.5.18-5.28.25-10.57.28-15.86,0-2.38,0-4.76-.05-7.13-.05-1.31-.11-2.62-.19-3.93s-.21-2.36-.33-3.54c-.64-4.08-1.47-8.14-2.46-12.16a55.87,55.87,0,0,0-1.79-6.17c-.72-1.92-1.48-3.83-2.25-5.73-.23-.51-.43-1-.69-1.5-.45-.85-.92-1.68-1.41-2.51a2.27,2.27,0,0,1-.26-1.68c2.27,1.24,4.56,2.47,6.85,3.68,0,0,0,0,0,0,.23.46.44.94.66,1.41a55.85,55.85,0,0,1,2.13,5.45c.21.65.44,1.3.63,1.94s.36,1.33.54,2c.31,1.14.53,2.32.77,3.48C429.78,549.23,430.29,551.72,430.72,554.23Z" transform="translate(-108.87 -130.41)"/><path class="cls-1" d="M410.13,526.64a23.29,23.29,0,0,0-2.43-.72,1.58,1.58,0,0,1,.67-1.78l1.3-.9c.25.06.49.15.72.24a8.53,8.53,0,0,1,2.34,1.12,3.88,3.88,0,0,1,1.59,1.85,3.29,3.29,0,0,1,.11.53l-1.88-1a2.23,2.23,0,0,1-.63-.51Z" transform="translate(-108.87 -130.41)"/><path class="cls-2" d="M410.13,526.64l-.21.14a1.54,1.54,0,0,1-2.09-.55,1.07,1.07,0,0,1-.13-.31A23.29,23.29,0,0,1,410.13,526.64Z" transform="translate(-108.87 -130.41)"/><path class="cls-2" d="M208.51,470c1,.45,2,.83,3,1.25.65.27,1.29.53,2,.77q2.61,1,5.23,1.86c6.07,2.08,12.16,4.14,18.2,6.3s12.08,4,18.16,5.83c6.34,2,12.65,4,18.93,6.11s12.62,4.33,19,6.37c6.07,2,12.2,3.74,18.36,5.38q10.51,2.83,21,5.69l7.27,1.94,6.94,1.86c1.14.3,2.29.66,3.44.92,6.45,1.44,12.95,2.63,19.44,3.9s12.89,2.54,19.31,3.94c3.36.75,6.73,1.46,10.11,2.12,1.47.29,2.94.55,4.42.81s3,.51,4.45.85a1.07,1.07,0,0,0,.13.31,1.54,1.54,0,0,0,2.09.55l.21-.14.22.08a6.86,6.86,0,0,1,1,.59.08.08,0,0,1,0,0,13,13,0,0,1-1.67,1.49l-.1.08-.09.06c-2.34,1.73-4.67,3.51-7,5.29-2.55,2-5.11,3.88-7.68,5.81-5.19,3.89-10.33,7.86-15.33,12-2.65,2.2-5.27,4.43-7.83,6.73s-4.88,4.51-7.3,6.79c-2.27,2.15-4.54,4.27-6.85,6.37s-4.83,4.4-7.32,6.5c-4.44,3.76-8.92,7.48-13.46,11.13a49.62,49.62,0,0,1-9,5.79,12.08,12.08,0,0,1-2.05.59,2.34,2.34,0,0,1-.39,0,9.22,9.22,0,0,1-1.61-.49c-2.95-1.32-5.93-2.55-8.93-3.74s-6.08-2.25-9.11-3.38-5.93-2.26-9-3.19-6.25-1.86-9.42-2.62-6.4-1.51-9.59-2.28c-1.58-.38-3.13-.78-4.71-1.17s-2.93-.62-4.4-.89c-1.83-.35-3.68-.55-5.53-.8-1.5-.19-3-.35-4.52-.51-3.3-.33-6.6-.67-9.89-1-2.31-.25-4.61-.55-6.91-.85-1.51-.24-3-.46-4.54-.75-1.71-.32-3.39-.7-5.09-1.08-3.06-.7-6.1-1.52-9.16-2.26-6.32-1.52-12.71-2.74-19-4.17l-6.44-1.45c-1.07-.25-2.14-.49-3.22-.71-3-.66-6.1-1.26-9.13-2-3.27-.82-6.54-1.68-9.82-2.49-3-.73-6-1.46-9-2.3-3.19-.92-6.34-1.94-9.55-2.81-1.65-.44-3.29-.89-5-1.27-1.51-.37-3-.69-4.54-1.07-1.73-.44-3.44-.9-5.16-1.4-.77-.23-1.54-.48-2.31-.73l-2.3-.77c-2.95-1-5.94-1.79-8.94-2.58-2.65-.68-5.33-1.23-8-1.84a57.45,57.45,0,0,1-8-2.21l-.23-.11a15.71,15.71,0,0,1,1.13-1.67,17.78,17.78,0,0,1,1.36-1.5c.64-.62,1.3-1.2,2-1.78l3.24-2.86c2.47-2.17,5-4.25,7.56-6.34,4.94-4,10-7.92,15-11.84,5.16-4,10.26-8.2,15.3-12.39,2.53-2.09,5-4.22,7.54-6.33s4.85-4,7.26-6c3-2.52,6-5.11,9-7.68,2.74-2.38,5.59-4.64,8.47-6.87,3.77-2.85,7.66-5.54,11.62-8.13l1.78-1.14.78-.5Z" transform="translate(-108.87 -130.41)"/><path class="cls-1" d="M262.85,582.2h-.13l-.51-.08Z" transform="translate(-108.87 -130.41)"/><path class="cls-3" d="M214.89,461.31a3.39,3.39,0,0,0,.5.19,2.66,2.66,0,0,0,2-.27,65.25,65.25,0,0,0,6.67-4.46c2.25-1.54,4.51-3,6.8-4.52,4.46-2.87,8.82-5.92,13.14-9s8.63-6.55,13-9.74c2.14-1.56,4.34-3,6.5-4.58,2.31-1.65,4.62-3.34,6.92-5,4.37-3.16,8.79-6.25,13.19-9.36s8.8-6.36,13.19-9.56c4.57-3.33,9.21-6.54,13.85-9.78q6.63-4.63,13.36-9.08c4.58-3,9.21-6,13.83-8.93s9.16-6.06,13.65-9.23,8.66-6.19,13-9.22,9-6.13,13.62-9c9.48-5.87,19.21-11.37,28.74-17.21,4.62-2.83,9.19-5.73,13.76-8.65s9.43-5.87,14.15-8.79,9.17-6,13.76-9c3.15-2.05,6.38-4,9.58-6a3.57,3.57,0,0,0,.67.52,3.61,3.61,0,0,0,2.59.33l.84-.15a32.63,32.63,0,0,1,6.73-.27,35.8,35.8,0,0,1,4.07,1.19l2.56.79c1.53.45,3.07.89,4.61,1.32,3.19.89,6.36,1.86,9.57,2.67,6.61,1.67,13.19,3.44,19.81,5.09,3,.73,5.92,1.5,8.88,2.21,1.63.4,3.26.76,4.9,1.11.64.14,1.27.25,1.92.36s1.45.29,2.18.39c1.78.24,3.57.51,5.37.69s3.55.36,5.32.51c2.86.26,5.71.57,8.55.92,6.57,1,13.11,2.11,19.64,3.35,6.68,1.26,13.25,3,19.86,4.7S599.41,329,606,330.6l9.16,2.32c3.34.82,6.7,1.6,10,2.57s6.73,2,10.09,3.09,6.48,1.88,9.72,2.8c3,.85,6.07,1.73,9.07,2.68,3.36,1.07,6.68,2.24,10,3.38l-4.4,2.48c-3.51,2-6.94,4.17-10.38,6.31s-6.93,4.4-10.39,6.64c-6.8,4.43-13.63,8.82-20.62,13-3.62,2.14-7.25,4.27-10.83,6.45s-7.3,4.51-10.94,6.78c-3.34,2.07-6.71,4.11-10,6.19-3.78,2.35-7.53,4.73-11.24,7.18-3.23,2.12-6.39,4.33-9.6,6.5-3.41,2.31-6.85,4.57-10.36,6.75-2.66,1.64-5.31,3.28-7.94,5q-2.14,1.38-4.24,2.79c-1.26.85-2.51,1.75-3.75,2.63-.68.49-1.34,1-2,1.52s-1.18.9-1.75,1.35q-2,1.59-3.91,3.19-3.55,2.9-7.16,5.7l-.18.14c-3.37,2.48-6.79,4.91-10.2,7.33-1.48,1-3,2.11-4.4,3.21-1.66,1.27-3.35,2.52-5,3.83-3.25,2.65-6.46,5.35-9.7,8q-5.13,4.24-10.4,8.34-5.59,4.36-11.07,8.84c-1.84,1.51-3.64,3.08-5.45,4.61s-3.64,3-5.48,4.5c-1.14.86-2.28,1.75-3.47,2.56l-4.61,3.12-8.07,5.32c-2.76,1.84-5.42,3.82-8,5.85-1.27,1-2.52,2-3.76,3s-2.4,1.92-3.61,2.87l-2.54,1.86c-.87.64-1.81,1.21-2.72,1.81s-1.81,1.09-2.72,1.63-1.74,1-2.61,1.48c-1.93,1.09-3.78,2.31-5.65,3.51s-3.48,2.33-5.21,3.51c-1.12-.37-2.3-.62-3.46-.9-3.1-.75-6.24-1.3-9.34-2-3.26-.79-6.51-1.61-9.76-2.44s-6.4-1.57-9.61-2.32c-6.25-1.47-12.54-2.84-18.79-4.3-2.85-.67-5.71-1.34-8.53-2.12l-12.38-3.43q-8.65-2.38-17.26-4.89c-3.25-1-6.5-1.89-9.74-2.87-3.41-1-6.8-2.12-10.2-3.21-6.17-2-12.26-4.18-18.35-6.35s-12.06-4.3-18.15-6.25c-6.4-2.05-12.82-4-19.21-6.12-2.95-1-5.85-2-8.77-3.11s-6-2.16-9.07-3.22l-8.19-2.84c-1.35-.48-2.69-1-4-1.47-1.1-.4-2.18-.86-3.27-1.32l-.5-.22c1.21-.78,2.42-1.56,3.62-2.35Z" transform="translate(-108.87 -130.41)"/><path class="cls-1" d="M214,457.44a1.86,1.86,0,0,1-.36.68A2.73,2.73,0,0,1,214,457.44Z" transform="translate(-108.87 -130.41)"/><path class="cls-1" d="M215.21,459.46a1.48,1.48,0,0,1-.32,1.85,2.56,2.56,0,0,1-1.06-1,2.53,2.53,0,0,1-.33-1.51,1.31,1.31,0,0,1,.41-.06A1.57,1.57,0,0,1,215.21,459.46Z" transform="translate(-108.87 -130.41)"/><path class="cls-1" d="M214.89,461.31a1.48,1.48,0,0,0,.32-1.85,1.57,1.57,0,0,0-1.31-.73,1.31,1.31,0,0,0-.41.06,2.41,2.41,0,0,1,.15-.67,1.86,1.86,0,0,0,.36-.68,2.65,2.65,0,0,1,.77-.7c1-.59,1.92-1.16,2.87-1.77s1.8-1.2,2.7-1.81c2.17-1.49,4.4-2.92,6.63-4.32s4.35-2.67,6.49-4.08,4.5-3,6.72-4.51,4.3-3.06,6.4-4.67,4.31-3.35,6.51-5,4.34-3.1,6.52-4.65c4.59-3.29,9.15-6.64,13.76-9.89,2.2-1.54,4.44-3.06,6.66-4.58s4.51-3.16,6.76-4.76,4.46-3.21,6.68-4.83,4.56-3.24,6.85-4.85l13.42-9.42c2.05-1.44,4.08-2.88,6.14-4.3,2.42-1.65,4.84-3.28,7.25-4.94,4.49-3.07,9-6.09,13.5-9.21,2.17-1.51,4.33-3,6.47-4.59s4.38-3.24,6.6-4.85c4.49-3.23,9-6.44,13.64-9.45s9.48-5.81,14.34-8.51c2.33-1.31,4.68-2.57,7-3.88s4.82-2.72,7.24-4.09c4.86-2.76,9.65-5.63,14.43-8.55,4.48-2.74,8.88-5.63,13.36-8.38,4.77-2.94,9.6-5.79,14.31-8.81,2.31-1.48,4.59-3,6.93-4.43s4.81-2.9,7.24-4.3q2.62-1.51,5.27-2.95a3.33,3.33,0,0,0,.68,3.74c-3.2,2-6.43,3.92-9.58,6-4.59,3-9.1,6.09-13.76,9s-9.46,5.81-14.15,8.79-9.14,5.82-13.76,8.65c-9.52,5.84-19.25,11.34-28.74,17.21-4.63,2.87-9.15,5.91-13.62,9s-8.68,6.16-13,9.22-9,6.25-13.65,9.23-9.25,5.91-13.83,8.93-8.94,6-13.36,9.08c-4.64,3.24-9.29,6.46-13.85,9.78-4.38,3.2-8.75,6.43-13.19,9.56s-8.81,6.2-13.19,9.36c-2.3,1.67-4.61,3.36-6.92,5-2.16,1.53-4.36,3-6.5,4.58-4.37,3.19-8.6,6.6-13,9.74s-8.68,6.12-13.14,9c-2.29,1.48-4.56,3-6.8,4.52a65.25,65.25,0,0,1-6.67,4.46,2.66,2.66,0,0,1-2,.27A3.39,3.39,0,0,1,214.89,461.31Z" transform="translate(-108.87 -130.41)"/><path class="cls-1" d="M214.68,461.47c-1.2.8-2.41,1.58-3.62,2.35l.5.22c1.09.45,2.17.92,3.27,1.32,1.34.5,2.68,1,4,1.47l8.19,2.84c3,1.06,6.06,2.11,9.07,3.22s5.82,2.15,8.77,3.11c6.39,2.07,12.81,4.07,19.21,6.12,6.09,2,12.12,4.1,18.15,6.25s12.18,4.38,18.35,6.35c3.4,1.09,6.79,2.16,10.2,3.21,3.24,1,6.49,1.92,9.74,2.87q8.6,2.53,17.26,4.89l12.38,3.43c2.82.78,5.68,1.45,8.53,2.12,6.25,1.46,12.54,2.83,18.79,4.3,3.21.76,6.43,1.5,9.61,2.32s6.5,1.65,9.76,2.44c3.1.75,6.24,1.3,9.34,2,1.16.28,2.33.53,3.46.9l-1.3.9a1.58,1.58,0,0,0-.67,1.78c-1.47-.35-3-.58-4.45-.85s-2.95-.52-4.42-.81c-3.38-.66-6.75-1.37-10.11-2.12-6.41-1.4-12.86-2.7-19.31-3.94s-13-2.46-19.44-3.9c-1.16-.26-2.3-.62-3.44-.92l-6.94-1.86-7.27-1.94q-10.5-2.87-21-5.69c-6.16-1.64-12.29-3.42-18.36-5.38-6.35-2-12.65-4.23-19-6.37S261.4,488,255.06,486c-6.08-1.88-12.18-3.67-18.16-5.83s-12.13-4.21-18.2-6.3q-2.62-.91-5.23-1.86c-.67-.24-1.31-.5-2-.77-1-.42-2-.8-3-1.25l-4.1-2-.78.5L202,466a19.1,19.1,0,0,0,6.12-3.8c1.71-1.07,3.4-2.15,5.09-3.26a1.13,1.13,0,0,1,.3-.15,2.53,2.53,0,0,0,.33,1.51,2.56,2.56,0,0,0,1.06,1Z" transform="translate(-108.87 -130.41)"/><path class="cls-1" d="M365.24,266.27a.94.94,0,0,0-.24.36c-.85.28-1.7.58-2.55.87s-1.79.72-2.68,1.1c-2.15,1-4.29,2.07-6.35,3.26s-4.08,2.44-6,3.79c-4.06,2.79-8.1,5.57-12.22,8.26-2.34,1.53-4.71,3-7.07,4.56s-4.94,3-7.31,4.68c-4.65,3.22-9.16,6.65-13.88,9.79s-9.7,6.1-14.41,9.37c-4.87,3.37-9.68,6.85-14.57,10.18-4.61,3.14-9.33,6.12-14,9.11-2.48,1.58-4.94,3.2-7.32,4.91s-4.71,3.47-7,5.22c-4.57,3.42-9.27,6.66-14,9.89-2.3,1.58-4.58,3.22-6.85,4.85s-4.48,3.23-6.68,4.89-4.22,3.43-6.35,5.14-4.6,3.56-6.93,5.3c-4.72,3.52-9.7,6.66-14.69,9.77-4.75,3-9.5,5.91-14.1,9.07-4.92,3.39-9.79,6.85-14.66,10.29q-6.8,4.81-13.39,9.85l-.09.06q-3.81,3-7.42,6.16c-2.05,1.8-4,3.68-6.1,5.45s-4.24,3.7-6.44,5.46-4.37,3.44-6.55,5.18c-1.07.86-2.14,1.74-3.2,2.62l-1.38,1.14.26.08c.89.23,1.77.46,2.67.67q2.8.63,5.64,1c2.81.36,5.6.72,8.39,1.31,2.48.52,4.94,1.26,7.4,1.91,5.56,1.45,11.12,2.87,16.78,3.9,2.85.52,5.72,1,8.59,1.37,2.59.39,5.15.92,7.73,1.36,2.83.49,5.67.93,8.51,1.39s5.54,1,8.33,1.43,5.63.73,8.41,1.3c3.1.62,6.12,1.43,9.17,2.24a2.08,2.08,0,0,1,1.44,2.53s0,0,0,0a2.73,2.73,0,0,0-.36.68,2.2,2.2,0,0,1-2.16.72c-4.29-.82-8.59-1.58-12.89-2.3-2.72-.45-5.45-.82-8.16-1.35s-5.64-1-8.47-1.5-5.49-1-8.21-1.47-5.42-.86-8.14-1.27c-5.63-.85-11.18-2-16.72-3.28-2.73-.64-5.46-1.31-8.2-2-1.37-.35-2.75-.7-4.14-1s-2.67-.48-4-.68l-1.61-.19a84.73,84.73,0,0,1-8.7-1.35c-1.32-.29-2.63-.57-3.93-.94a6.71,6.71,0,0,1-3-1.51,3.45,3.45,0,0,1-1-2.32,4.3,4.3,0,0,1,.78-2.33,19.86,19.86,0,0,1,3.27-3.33c1-.92,2-1.84,3.08-2.74q3.13-2.75,6.26-5.48t6.49-5.41c2.13-1.72,4.16-3.55,6.21-5.35s4.3-3.71,6.52-5.49,4.64-3.66,7-5.48,4.87-3.7,7.3-5.55c2.17-1.63,4.31-3.28,6.48-4.9,4.76-3.53,9.54-7.05,14.49-10.3,4.81-3.15,9.74-6.09,14.54-9.24,2.61-1.72,5.18-3.47,7.72-5.29,2.11-1.5,4.16-3.08,6.21-4.65,3.1-2.46,6.14-5,9.35-7.36,4.64-3.37,9.31-6.68,14.06-9.88,2.47-1.66,4.92-3.34,7.36-5,2.26-1.58,4.46-3.25,6.66-4.89s4.55-3.42,6.89-5,4.88-3.24,7.36-4.81c5-3.1,9.84-6.32,14.68-9.61s9.29-6.58,14-9.73,9.54-5.92,14.17-9.1c2.52-1.73,5-3.5,7.48-5.28,2.22-1.6,4.48-3.19,6.84-4.6,4.88-2.93,9.79-5.82,14.61-8.84s9.75-6.44,14.78-9.37c2.48-1.46,5.1-2.68,7.7-3.9,1.9-.9,3.87-1.64,5.84-2.34a5.41,5.41,0,0,1,4.2,3.61l-.17-.05a1.39,1.39,0,0,0-1.31.35Z" transform="translate(-108.87 -130.41)"/><path class="cls-1" d="M196.65,569.17l1.61.4c0,1.07-.08,2.13-.11,3.2s.08,2.35.12,3.52.21,2.4.31,3.59c.09.94.23,1.89.35,2.83.54,3.47,1.14,6.94,1.53,10.44.21,1.85.39,3.7.52,5.56.06.91.09,1.8.11,2.71s0,1.61,0,2.42-.1,1.37-.15,2.06-.11,1.1-.17,1.65c-.13,1.22-.27,2.43-.41,3.64-.31,2.55-.67,5.09-1.09,7.62s-.82,4.86-1.24,7.29c-.39,2.24-1,4.44-1.29,6.67a22.85,22.85,0,0,0-.17,4.46,8.28,8.28,0,0,0,.36,1.35l.16.27a3.48,3.48,0,0,0,.35.35,8.41,8.41,0,0,0,.8.45,23.27,23.27,0,0,0,5.06,1.16c2.59.27,5.18.44,7.76.71s5.24.67,7.83,1.18c5.1,1,10.13,2.27,15.17,3.46,2.38.55,4.73,1.13,7.07,1.81s4.94,1.45,7.41,2.14,4.7,1.18,7.05,1.77c2.56.63,5.1,1.3,7.59,2.14s5,1.8,7.48,2.78,4.74,1.78,7.13,2.65c4.78,1.72,9.58,3.39,14.41,5,2.28.76,4.59,1.41,6.88,2.15,2.53.81,5,1.65,7.55,2.55s4.78,1.72,7.19,2.54,4.81,1.6,7.22,2.36,5.1,1.63,7.63,2.48,4.87,1.72,7.3,2.6q7.06,2.56,14.08,5.32c2.57,1,5.11,2.14,7.65,3.23l6.54,2.82c3.74,1.58,7.46,3.17,11.14,4.89,3.47,1.61,6.89,3.33,10.37,4.9,2,.83,4.08,1.6,6.17,2.28,2.31.76,4.62,1.48,6.93,2.25a62.17,62.17,0,0,1,6.92,2.72c2,.94,4,2.06,6,3h0l.9,1.62a2.23,2.23,0,0,0-.72.89,1.42,1.42,0,0,0-.13,1,1.35,1.35,0,0,0,.9.91,2.59,2.59,0,0,0,1,.09c-.17.09-.36.17-.55.25a4,4,0,0,1-2.55,0,26.58,26.58,0,0,1-2.53-1c-2.18-.94-4.31-2-6.48-3-3.51-1.4-7.12-2.52-10.69-3.71-1.77-.59-3.53-1.2-5.26-1.91-1.16-.49-2.32-1-3.47-1.5-.94-.43-1.87-.89-2.8-1.34-2.14-1-4.25-2.09-6.39-3.1-2.44-1.14-4.89-2.26-7.38-3.33q-6.66-2.88-13.34-5.72c-3.88-1.62-7.79-3.19-11.74-4.64s-8.17-3.07-12.31-4.47c-2.36-.8-4.74-1.6-7.13-2.35s-4.88-1.52-7.3-2.35c-5-1.74-9.93-3.62-15-5.26-2.51-.83-5-1.63-7.55-2.43s-4.83-1.64-7.24-2.51q-7.18-2.56-14.27-5.33c-2.18-.85-4.33-1.8-6.53-2.58-1.21-.42-2.4-.86-3.62-1.23s-2.53-.75-3.8-1.08c-2.63-.69-5.26-1.36-7.88-2.06-2.29-.63-4.55-1.36-6.81-2-1.29-.39-2.57-.78-3.87-1.13s-2.57-.68-3.86-1c-2.35-.59-4.71-1.17-7.05-1.77-2.49-.63-5-1.3-7.53-1.83-1.24-.26-2.49-.52-3.75-.75s-2.25-.38-3.38-.54c-2.56-.3-5.12-.52-7.68-.83a34.68,34.68,0,0,1-5.57-1c-1.6-.46-3.38-1.18-4.32-2.65a7.58,7.58,0,0,1-1.09-3.67,28.17,28.17,0,0,1,.14-3.56,34.92,34.92,0,0,1,.52-3.67c.25-1.22.5-2.43.73-3.65s.4-2.39.62-3.59c.41-2.35.86-4.71,1.25-7.08s.79-5.05,1.14-7.58c.21-1.5.42-3,.5-4.51,0-.89.09-1.76.09-2.65s0-1.87-.08-2.81c-.14-3.27-.51-6.53-.92-9.78,0-.06,0-.12,0-.18s0-.1,0-.14c-.45-3.2-.89-6.39-1.14-9.61-.13-1.7-.18-3.4-.25-5.11,0-.73,0-1.48.06-2.21l.06-2Z" transform="translate(-108.87 -130.41)"/><path class="cls-1" d="M263.17,577.46c1.85.25,3.7.45,5.53.8,1.47.27,2.95.53,4.4.89s3.13.79,4.71,1.17c3.19.77,6.39,1.49,9.59,2.28s6.3,1.66,9.42,2.62,6,2.07,9,3.19,6.09,2.21,9.11,3.38,6,2.42,8.93,3.74a9.22,9.22,0,0,0,1.61.49,2.34,2.34,0,0,0,.39,0,12.08,12.08,0,0,0,2.05-.59,49.62,49.62,0,0,0,9-5.79c4.54-3.65,9-7.38,13.46-11.13,2.49-2.11,4.9-4.31,7.32-6.5s4.58-4.22,6.85-6.37c2.42-2.28,4.82-4.57,7.3-6.79s5.18-4.52,7.83-6.73c5-4.15,10.14-8.12,15.33-12,2.57-1.93,5.13-3.86,7.68-5.81,2.31-1.78,4.63-3.56,7-5.29l.09-.06.1-.08a13,13,0,0,0,1.67-1.49.08.08,0,0,0,0,0,6.86,6.86,0,0,0-1-.59l-.22-.08,1.79-1.22a2.23,2.23,0,0,0,.63.51l1.88,1a2.75,2.75,0,0,1-.41,1.84,6.63,6.63,0,0,1-1.62,1.67l-1.59,1.23-.3.23.22-.15c-3.3,2.56-6.53,5.19-9.83,7.78s-6.6,5.11-9.86,7.72q-3.74,3-7.4,6.08c-2.49,2.09-5,4.19-7.42,6.39s-4.61,4.25-6.88,6.43c-2.47,2.38-4.94,4.76-7.45,7.08s-5.12,4.7-7.71,7-5,4.29-7.45,6.39-4.78,4-7.19,6c-.82.67-1.68,1.3-2.53,1.94a43.52,43.52,0,0,1-3.57,2.53,30.47,30.47,0,0,1-3.17,1.77,13,13,0,0,1-3,1.1,8.21,8.21,0,0,1-1.7.23,9.39,9.39,0,0,1-1.35-.15,13,13,0,0,1-2.29-.77Q316.55,597,311,595.05c-1.93-.69-3.88-1.35-5.81-2.05s-3.59-1.34-5.4-2c-3.2-1.08-6.41-2-9.67-2.92-3-.81-6-1.48-9-2.16-1.56-.36-3.11-.71-4.65-1.09s-3.2-.83-4.81-1.17c-1.46-.31-2.92-.63-4.38-.85s-2.95-.45-4.43-.66l-.64-.09.51.08c-6.11-.73-12.24-1.31-18.33-2.17-1.68-.24-3.37-.46-5.05-.75s-3.44-.63-5.17-1c-1.47-.29-2.93-.69-4.37-1.07s-3.16-.84-4.75-1.24c-6.3-1.61-12.63-3-19-4.51-2.61-.6-5.22-1.26-7.82-1.91,0-.6,0-1.2.06-1.8a1.25,1.25,0,0,0-1-1.21l.26-1.19,6.44,1.45c6.34,1.43,12.73,2.65,19,4.17,3.06.73,6.1,1.56,9.16,2.26,1.7.38,3.38.76,5.09,1.08,1.5.28,3,.51,4.54.75,2.3.3,4.6.6,6.91.85,3.29.37,6.59.7,9.89,1C260.15,577.11,261.67,577.26,263.17,577.46Z" transform="translate(-108.87 -130.41)"/><path class="cls-1" d="M195.85,567.76a1.25,1.25,0,0,1,1.23-1.23l.24,0a1.25,1.25,0,0,1,1,1.21c0,.6-.05,1.2-.06,1.8l-1.61-.4-.84-.21C195.82,568.56,195.84,568.16,195.85,567.76Z" transform="translate(-108.87 -130.41)"/><path class="cls-1" d="M151.94,553.76c1.66.39,3.3.83,5,1.27,3.21.86,6.36,1.89,9.55,2.81,3,.84,6,1.57,9,2.3,3.27.81,6.54,1.67,9.82,2.49,3,.76,6.08,1.36,9.13,2,1.08.23,2.15.46,3.22.71l-.26,1.19-.24,0a1.25,1.25,0,0,0-1.23,1.23c0,.4,0,.8,0,1.2-2.72-.65-5.46-1.24-8.19-1.92-3.3-.82-6.59-1.74-9.88-2.63-3.07-.82-6.14-1.58-9.21-2.42s-6.18-1.81-9.27-2.74-6.46-1.9-9.73-2.68c-3.11-.75-6.22-1.5-9.25-2.49l-1.35-.44,1-3.08c.77.26,1.54.51,2.31.73,1.72.51,3.43,1,5.16,1.4C148.91,553.06,150.43,553.39,151.94,553.76Z" transform="translate(-108.87 -130.41)"/><path class="cls-1" d="M137.63,549.78l2.3.77-1,3.08c-2.65-.86-5.29-1.72-8-2.45-3.14-.86-6.31-1.57-9.48-2.27a79.32,79.32,0,0,1-9.2-2.38,10,10,0,0,1-2-.9,2.73,2.73,0,0,1-1-.94,2.61,2.61,0,0,1-.41-1.22,4.4,4.4,0,0,1,.26-1.34,4.23,4.23,0,0,1,.44-.92q.26-.44.55-.87a19.35,19.35,0,0,1,3.1-3.54c2.3-2.05,4.61-4.1,7-6.09q7.39-6.17,15-12.13c2.54-2,5.12-4,7.66-6s5-4.11,7.56-6.19c5.13-4.21,10.15-8.54,15.25-12.81,2.41-2,4.86-4,7.26-6s5-4.36,7.57-6.48,5.12-4.07,7.74-6c2.46-1.83,5-3.5,7.59-5.17,1.77-1.16,3.56-2.27,5.36-3.37l-.14-.08,1-.4,1.64,2.55-1.78,1.14c-4,2.59-7.85,5.28-11.62,8.13-2.87,2.22-5.72,4.49-8.47,6.87-3,2.57-6,5.16-9,7.68-2.41,2-4.85,4-7.26,6s-5,4.23-7.54,6.33c-5,4.19-10.14,8.34-15.3,12.39-5,3.92-10,7.82-15,11.84-2.55,2.08-5.09,4.17-7.56,6.34l-3.24,2.86c-.67.58-1.33,1.17-2,1.78a17.78,17.78,0,0,0-1.36,1.5,15.71,15.71,0,0,0-1.13,1.67l.23.11a57.45,57.45,0,0,0,8,2.21c2.67.6,5.36,1.16,8,1.84C131.69,548,134.69,548.8,137.63,549.78Z" transform="translate(-108.87 -130.41)"/><path class="cls-2" d="M364.9,267.57c.16,1,1.3,1.25,2.12,1.44a14.57,14.57,0,0,0,1.56.23l.53.06,1,.42a1.06,1.06,0,0,0,1.3-.23h.11c.89.06,1.77.1,2.65.16s1.79.16,2.7.27l1.75.29c.7.11,1.39.3,2.08.45,1.43.31,2.83.73,4.23,1.12,1.22.35,2.42.73,3.64,1.12s2.48.77,3.7,1.21c2.68,1,5.29,2,7.93,3.07,2.42,1,4.91,1.73,7.42,2.45s5.12,1.46,7.7,2.12q4.15,1,8.33,1.91c5.22,1.08,10.42,2.18,15.67,3.09,4.63.79,9.32,1.17,14,1.56,2.24.18,4.46.31,6.71.42,2.06.11,4.16.13,6.21.38a8.26,8.26,0,0,1,1.46.38.34.34,0,0,1,.11.05l-.06.11a12.47,12.47,0,0,1-1.54,1.48,43.83,43.83,0,0,1-4.69,3c-.62.1-1.22.23-1.84.37a3.19,3.19,0,0,0-2.16,1.87q-2.64,1.44-5.27,2.95-3.64,2.09-7.24,4.3c-2.34,1.43-4.62,2.95-6.93,4.43-4.71,3-9.54,5.87-14.31,8.81-4.48,2.75-8.88,5.64-13.36,8.38-4.77,2.93-9.57,5.79-14.43,8.55-2.42,1.37-4.82,2.74-7.24,4.09s-4.67,2.57-7,3.88c-4.86,2.7-9.69,5.48-14.34,8.51s-9.15,6.22-13.64,9.45c-2.21,1.61-4.4,3.24-6.6,4.85s-4.3,3.08-6.47,4.59c-4.47,3.12-9,6.14-13.5,9.21-2.41,1.65-4.83,3.28-7.25,4.94-2.06,1.41-4.09,2.86-6.14,4.3l-13.42,9.42c-2.29,1.61-4.59,3.21-6.85,4.85s-4.45,3.24-6.68,4.83-4.49,3.21-6.76,4.76-4.46,3-6.66,4.58c-4.61,3.25-9.17,6.6-13.76,9.89-2.18,1.56-4.36,3.08-6.52,4.65s-4.35,3.3-6.51,5-4.23,3.15-6.4,4.67-4.47,3-6.72,4.51-4.32,2.73-6.49,4.08-4.46,2.83-6.63,4.32c-.9.62-1.78,1.23-2.7,1.81s-1.92,1.18-2.87,1.77a2.65,2.65,0,0,0-.77.7s0,0,0,0a2.08,2.08,0,0,0-1.44-2.53c-3-.81-6.07-1.62-9.17-2.24-2.79-.56-5.6-.89-8.41-1.3s-5.55-1-8.33-1.43-5.68-.91-8.51-1.39c-2.58-.44-5.14-1-7.73-1.36-2.86-.42-5.73-.85-8.59-1.37-5.66-1-11.22-2.45-16.78-3.9-2.46-.65-4.91-1.39-7.4-1.91-2.79-.58-5.58-1-8.39-1.31q-2.83-.42-5.64-1c-.9-.21-1.78-.44-2.67-.67l-.26-.08,1.38-1.14c1.06-.89,2.13-1.76,3.2-2.62,2.18-1.74,4.38-3.44,6.55-5.18s4.3-3.64,6.44-5.46,4-3.65,6.1-5.45q3.61-3.19,7.42-6.16l.09-.06q6.59-5.05,13.39-9.85c4.87-3.44,9.74-6.9,14.66-10.29,4.6-3.16,9.35-6.11,14.1-9.07,5-3.11,10-6.25,14.69-9.77,2.33-1.74,4.67-3.48,6.93-5.3s4.22-3.43,6.35-5.14,4.44-3.28,6.68-4.89,4.55-3.27,6.85-4.85c4.71-3.23,9.41-6.47,14-9.89,2.33-1.75,4.68-3.51,7-5.22s4.84-3.34,7.32-4.91c4.72-3,9.44-6,14-9.11,4.89-3.34,9.7-6.81,14.57-10.18,4.71-3.27,9.63-6.21,14.41-9.37s9.22-6.58,13.88-9.79c2.38-1.64,4.88-3.12,7.31-4.68s4.73-3,7.07-4.56c4.13-2.69,8.16-5.48,12.22-8.26,2-1.35,4-2.6,6-3.79s4.2-2.22,6.35-3.26c.89-.38,1.78-.78,2.68-1.1s1.7-.59,2.55-.87A1.48,1.48,0,0,0,364.9,267.57Z" transform="translate(-108.87 -130.41)"/></g><path class="cls-1" d="M366.84,266h-.12l0,0Z" transform="translate(-108.87 -130.41)"/><path class="cls-1" d="M366.19,265.88a1.34,1.34,0,0,0-1,.39.94.94,0,0,0-.24.36l1.74-.6,0,0-.17,0A1.34,1.34,0,0,0,366.19,265.88Z" transform="translate(-108.87 -130.41)"/></g><path class="cls-4" d="M441,143.1l-6.16-.94c-2.83-.43-5.68-.68-8.53-.87h-.15c-6.27-.35-12.57-.12-18.86.05.86-1.55,1.76-3.09,2.66-4.64,2.85-.08,5.7-.15,8.55-.16,3.81,0,7.62.14,11.41.47,2.08.18,4.13.41,6.19.72l5.35.8c1.11.17,2.21.43,3.32.66s2.43.5,3.64.84c1.48.42,2.93.83,4.36,1.33s2.7,1,4,1.51c.61.24,1.24.51,1.83.8.74.36,1.5.68,2.22,1.06a6.5,6.5,0,0,1,2.49,1.81,3.51,3.51,0,0,1,.63,1.52,3.64,3.64,0,0,1,0,1.23,14,14,0,0,1-2.32,4.47l0,.09-.2.29c-.74,1.17-1.5,2.33-2.21,3.51l-2.54,4.26c-1.48,2.49-2.89,5-4.32,7.54s-2.76,5.11-4.15,7.66c-.34.62-.66,1.28-1,1.92-.82,1.7-1.63,3.39-2.45,5.08L443,187.76c-.39.8-.67,1.67-1,2.49-1.11,2.8-2.22,5.58-3.34,8.38l-4.09,13c-.42,1.34-.75,2.7-1.12,4.06-.81,3-1.6,5.94-2.41,8.9-1.43,5.29-2.65,10.64-3.92,16-.44,1.8-.79,3.62-1.15,5.46q-1,5.19-2,10.4c-.4,2-.61,4.08-.88,6.12-.46,3.24-.9,6.49-1.36,9.74-.07.58-.11,1.16-.15,1.74-.15,1.76-.29,3.52-.43,5.27-.23,2.72-.45,5.41-.68,8.13L420,298.14c-.11,3-.06,6-.05,9,0,5.38.18,10.73.47,16.11.24,4.77.57,9.55,1,14.31-1.43.45-2.87.91-4.3,1.39a2.33,2.33,0,0,0-.65.36c-.64-5.05-1-10.15-1.27-15.24s-.48-10.43-.51-15.65c0-1.92,0-3.84,0-5.76,0-.74,0-1.49,0-2.24q.18-5.08.34-10.16c0-1.16,0-2.33.15-3.48l.21-2.72q.45-5.54.89-11.06c.15-1.86.42-3.7.68-5.57.48-3.51,1-7,1.44-10.55.28-2,.74-4,1.13-6q.92-4.7,1.84-9.4c.12-.64.28-1.27.44-1.9.43-1.77.85-3.54,1.28-5.31l1.32-5.52c.19-.76.35-1.54.56-2.29q1.12-4.21,2.28-8.41l1.41-5.18c.18-.64.33-1.28.52-1.9q1.45-4.55,2.88-9.08c.69-2.18,1.31-4.38,2.16-6.49q1.88-4.74,3.78-9.46c.27-.67.6-1.3.91-1.94l2.52-5.19c.53-1.09,1.05-2.18,1.59-3.27s1.14-2.11,1.72-3.16c1.3-2.36,2.58-4.74,3.93-7.07,1.46-2.54,2.94-5.08,4.47-7.59.69-1.15,1.39-2.3,2.12-3.43l3.06-4.61.33-.53.18-.28a34.81,34.81,0,0,0-4.59-2.1c-1.38-.53-2.77-1-4.17-1.52s-2.76-.84-4.16-1.13l-3.45-.72C442,143.3,441.48,143.17,441,143.1Z" transform="translate(-108.87 -130.41)"/><path class="cls-4" d="M407.27,141.33h-.11a2.32,2.32,0,0,1-2.44-2.12,2.36,2.36,0,0,1,1.52-2.32,2,2,0,0,1,.6-.12l3.1-.09C409,138.24,408.13,139.78,407.27,141.33Z" transform="translate(-108.87 -130.41)"/><path class="cls-4" d="M404.72,139.22a2.32,2.32,0,0,0,2.44,2.12h.11c-.43.76-.84,1.52-1.24,2.28-1.62,3.12-3.28,6.21-4.87,9.35s-3.12,6.28-4.5,9.5-2.48,6.21-3.54,9.38c-1.84,5.6-3.38,11.27-4.8,17s-2.75,11.27-4,16.95c-1.24,5.86-2.33,11.75-3.16,17.68-.77,5.6-1.3,11.23-1.65,16.86q-.82,14.1-.3,28.21c.15,3.75.47,7.49.76,11.23q.39,4.79.75,9.59c.06.69.17,1.37.27,2,.26,1.94.53,3.87.79,5.8.32,2.39.57,4.79,1,7.16l1.68,8.94c.46,2,.94,4,1.4,6.07.41,1.78.89,3.56,1.34,5.33q1.49,5.87,3.14,11.67a2.8,2.8,0,0,1,.09,1.16,3.09,3.09,0,0,0-1.55-.4c-1.16,0-2.33-.11-3.5-.12-1.56-4.81-2.83-9.71-4.14-14.61-.66-2.56-1.22-5.15-1.83-7.71-.32-1.36-.54-2.75-.8-4.12l-1.08-5.68c-.44-2.35-.71-4.72-1-7.08l-.8-5.87c-.09-.72-.24-1.45-.29-2.18q-.7-8.94-1.41-17.9c-.07-1-.08-2-.12-3s-.06-2-.09-3c-.05-2-.1-4-.12-6,0-4.14,0-8.28.19-12.4a244.75,244.75,0,0,1,2-24.61c1.12-8,2.68-16,4.5-23.84s3.66-15.67,6-23.37c1.17-3.89,2.42-7.76,3.88-11.56s3.07-7.35,4.84-10.92,3.64-7.11,5.51-10.64c1-1.88,2-3.75,3-5.59s2-3.42,3-5.12a2.75,2.75,0,0,1,1.49-1.35,2.63,2.63,0,0,1,3.26,3.61c-.48.85-1,1.68-1.46,2.52l-3.1.09a2,2,0,0,0-.6.12A2.36,2.36,0,0,0,404.72,139.22Z" transform="translate(-108.87 -130.41)"/><path class="cls-4" d="M431.14,339.12c-3.71,1.14-7.43,2.28-11.11,3.56v0a2.53,2.53,0,0,0,1.72-2.58c-.1-.82-.19-1.66-.26-2.5,4.45-1.39,8.93-2.63,13.43-3.82,1.1-.29,2.21-.52,3.33-.75,2-.43,4.07-.9,6.14-1.16a28.85,28.85,0,0,1,2.92-.25,8.12,8.12,0,0,1,2.31.24,2.88,2.88,0,0,1,2.09,1.67,3.29,3.29,0,0,1-.32,2.54,9,9,0,0,1-.92,1.35l-.7.9-.55.71-1,1.32-4.95,6.51c-1.56,2.07-3.07,4.19-4.58,6.29-1.11,1.74-2.25,3.49-3.38,5.22l0,0,0,.06c-.16.26-.29.53-.44.8-.39.69-.77,1.38-1.17,2.07-.66,1.17-1.32,2.36-2,3.54-.48.85-.87,1.76-1.29,2.63l-2,4.09c-.38.75-.68,1.55-1,2.32q-.92,2.16-1.82,4.32c-.37.85-.67,1.74-1,2.61-.4,1.09-.8,2.18-1.19,3.27l-1.23,3.82c-.27.84-.49,1.73-.83,2.55a9.57,9.57,0,0,1-.88,1.58,3.77,3.77,0,0,1-1,1,4.1,4.1,0,0,1-.9.51l-1,.22a8.87,8.87,0,0,1-1.42-.14,6.78,6.78,0,0,1-2.28-1.13c-2.19-1.39-4.26-3-6.35-4.51-1.42-1.06-2.82-2.13-4.21-3.23-1.55-1.21-3.08-2.43-4.64-3.63s-3.4-2.69-5.14-4c-2.07-1.51-4.11-3.1-6.22-4.56s-4.34-3.06-6.55-4.56-4.52-3-6.74-4.61c-2.51-1.78-5.06-3.52-7.5-5.38a50.08,50.08,0,0,1-8.61-7.81,16.31,16.31,0,0,1-1.65-2.34,11.68,11.68,0,0,1-1.13-2.51,8.09,8.09,0,0,1-.26-1.44,3.75,3.75,0,0,1,.31-1.74,5.4,5.4,0,0,1,.81-1.16,4.62,4.62,0,0,1,1.55-1.05l.3-.1a16.63,16.63,0,0,1,3.31-.63c.62-.08,1.26-.12,1.89-.19l3.55-.37,7.52-.82,4.72-.52c1.68-.18,3.37-.33,5.05-.38.53,0,1.07,0,1.61,0,.09.33.21.67.32,1a2.48,2.48,0,0,0,3.15,1.51,2.38,2.38,0,0,0,1.59-2,1.8,1.8,0,0,1,.27.2,2.54,2.54,0,0,1,.3,3.58,2.47,2.47,0,0,1-1.77.9c-1.4-.07-2.81-.15-4.21-.13s-2.72.12-4.07.25-2.46.25-3.69.4q-3.11.38-6.22.79c-1.83.24-3.65.49-5.47.76-1.61.25-3.23.46-4.82.72a18,18,0,0,0,2.12,2.86,70.61,70.61,0,0,0,10.25,8.47c1.79,1.27,3.56,2.57,5.38,3.8q6.09,4.22,12.16,8.48c1,.69,1.94,1.43,2.9,2.16s2.18,1.58,3.25,2.41c1.95,1.52,3.9,3,5.84,4.58q3.49,2.79,7,5.53c2.1,1.63,4.24,3.25,6.45,4.74l.19.12c.19-.64.36-1.28.55-1.91.25-.79.49-1.58.75-2.36.33-1.1.7-2.18,1.09-3.26.51-1.42,1-2.83,1.55-4.25.32-.9.76-1.78,1.13-2.67.58-1.34,1.16-2.68,1.73-4,.36-.83.81-1.63,1.2-2.43.71-1.43,1.43-2.85,2.13-4.28.34-.67.73-1.31,1.11-2,.89-1.54,1.77-3.06,2.65-4.6.58-1,1.27-2,1.91-2.93.84-1.23,1.66-2.49,2.5-3.72.27-.4.58-.78.87-1.16l1.67-2.19c1.46-1.93,3-3.81,4.54-5.66l2.8-3.25c.52-.6,1.07-1.19,1.6-1.78-1.38.12-2.74.36-4.08.6l-2.71.6c-.79.17-1.59.32-2.38.53C435,338,433.08,338.53,431.14,339.12Z" transform="translate(-108.87 -130.41)"/><path class="cls-5" d="M444.77,172.37c-.58,1.05-1.2,2.08-1.72,3.16s-1.06,2.17-1.59,3.27L438.93,184c-.31.64-.64,1.27-.91,1.94q-1.9,4.73-3.78,9.46c-.86,2.11-1.48,4.31-2.16,6.49q-1.44,4.53-2.88,9.08c-.19.62-.34,1.27-.52,1.9L427.27,218q-1.14,4.2-2.28,8.41c-.22.75-.38,1.53-.56,2.29l-1.32,5.52c-.43,1.77-.85,3.54-1.28,5.31-.16.63-.32,1.26-.44,1.9q-.92,4.69-1.84,9.4c-.39,2-.85,4-1.13,6-.48,3.51-1,7-1.44,10.55-.26,1.87-.52,3.7-.68,5.57q-.43,5.53-.89,11.06l-.21,2.72c-.1,1.15-.11,2.32-.15,3.48q-.16,5.09-.34,10.16c0,.75,0,1.5,0,2.24,0,1.92,0,3.84,0,5.76,0,5.22.24,10.43.51,15.65s.63,10.19,1.27,15.24a2.27,2.27,0,0,0-.7,2.47,2.24,2.24,0,0,0,2.82,1.35l1.37-.47c3.68-1.28,7.4-2.42,11.11-3.56,1.93-.59,3.89-1.1,5.86-1.64.79-.21,1.59-.36,2.38-.53l2.71-.6c1.35-.24,2.71-.48,4.08-.6-.54.59-1.08,1.18-1.6,1.78l-2.8,3.25c-1.56,1.84-3.08,3.73-4.54,5.66l-1.67,2.19c-.29.38-.6.75-.87,1.16-.84,1.23-1.66,2.49-2.5,3.72-.64,1-1.33,1.92-1.91,2.93-.88,1.54-1.76,3.06-2.65,4.6-.38.65-.77,1.29-1.11,2-.7,1.43-1.42,2.85-2.13,4.28-.39.8-.84,1.6-1.2,2.43-.57,1.34-1.15,2.67-1.73,4-.37.89-.81,1.76-1.13,2.67-.52,1.42-1,2.83-1.55,4.25-.4,1.08-.76,2.16-1.09,3.26-.25.78-.5,1.57-.75,2.36-.19.63-.36,1.27-.55,1.91l-.19-.12c-2.21-1.49-4.35-3.11-6.45-4.74q-3.53-2.74-7-5.53c-1.94-1.54-3.9-3.06-5.84-4.58-1.06-.84-2.16-1.62-3.25-2.41s-1.91-1.47-2.9-2.16q-6.06-4.27-12.16-8.48c-1.81-1.24-3.59-2.54-5.38-3.8A70.61,70.61,0,0,1,363,347.87a18,18,0,0,1-2.12-2.86c1.59-.25,3.21-.47,4.82-.72,1.82-.27,3.64-.52,5.47-.76q3.1-.41,6.22-.79c1.22-.14,2.44-.28,3.69-.4s2.7-.22,4.07-.25,2.82.06,4.21.13a2.47,2.47,0,0,0,1.77-.9,2.54,2.54,0,0,0-.3-3.58,1.8,1.8,0,0,0-.27-.2,2.8,2.8,0,0,0-.09-1.16q-1.66-5.81-3.14-11.67c-.46-1.77-.93-3.55-1.34-5.33-.46-2-.94-4-1.4-6.07l-1.68-8.94c-.45-2.37-.7-4.78-1-7.16-.26-1.94-.53-3.87-.79-5.8-.09-.68-.21-1.36-.27-2q-.37-4.8-.75-9.59c-.29-3.74-.61-7.48-.76-11.23q-.52-14.11.3-28.21c.35-5.63.88-11.26,1.65-16.86.83-5.93,1.92-11.82,3.16-17.68,1.2-5.68,2.56-11.33,4-16.95s3-11.4,4.8-17c1.06-3.17,2.22-6.3,3.54-9.38s2.91-6.38,4.5-9.5,3.25-6.23,4.87-9.35c.41-.76.81-1.52,1.24-2.28,6.28-.17,12.58-.4,18.86-.05h.15c2.85.18,5.7.44,8.53.87l6.16.94c.51.07,1,.19,1.51.3l3.45.72c1.4.3,2.78.75,4.16,1.13s2.79,1,4.17,1.52a34.81,34.81,0,0,1,4.59,2.1l-.18.28-.33.53-3.06,4.61c-.73,1.13-1.43,2.28-2.12,3.43-1.53,2.51-3,5-4.47,7.59C447.35,167.64,446.07,170,444.77,172.37Z" transform="translate(-108.87 -130.41)"/><path class="cls-4" d="M420,342.66a2.67,2.67,0,0,1-.64.13,2.52,2.52,0,0,1-1.81-.6,2.58,2.58,0,0,1-.9-1.76c-.05-.37-.1-.73-.14-1.11a2.33,2.33,0,0,1,.65-.36c1.42-.48,2.86-.94,4.3-1.39.08.83.17,1.67.26,2.5A2.53,2.53,0,0,1,420,342.66Z" transform="translate(-108.87 -130.41)"/><path class="cls-4" d="M419.38,342.79a2.67,2.67,0,0,0,.64-.13v0l-1.37.47a2.24,2.24,0,0,1-2.82-1.35,2.27,2.27,0,0,1,.7-2.47c0,.37.09.74.14,1.11a2.58,2.58,0,0,0,.9,1.76A2.52,2.52,0,0,0,419.38,342.79Z" transform="translate(-108.87 -130.41)"/><path class="cls-4" d="M385.45,337c1.17,0,2.34.07,3.5.12a3.09,3.09,0,0,1,1.55.4,2.38,2.38,0,0,1-1.59,2,2.48,2.48,0,0,1-3.15-1.51C385.67,337.69,385.55,337.36,385.45,337Z" transform="translate(-108.87 -130.41)"/><path class="cls-5" d="M317.45,399.51c-.15,1.33-.22,2.68-.31,4-.11,1.64-.22,3.29-.32,4.94-.2,3.14-.41,6.26-.66,9.4-.46,6-1.24,12-2,17.92-.29,2.16-.56,4.33-.83,6.49-.2,1.61-.34,3.22-.51,4.83-.25,2.39-.48,4.77-.63,7.16a68,68,0,0,0-.09,7.43,53,53,0,0,0,.67,5.86c-1.49.06-3,0-4.44-.08l-5.2-.21c-3.2-.13-6.38-.13-9.58-.13-1.64,0-3.3.11-4.93.17-1.43.06-2.84.16-4.26.26-3.24.23-6.49.51-9.74.78-5.13.42-10.27.84-15.36,1.61-2.41.36-4.81.79-7.18,1.35-.8.18-1.58.38-2.37.59l.37-.48c1-1.36,2.06-2.69,3.11-4,1.92-2.44,3.86-4.86,5.81-7.28q5.87-7.12,11.76-14.22a3.35,3.35,0,0,0,1-2.15,3.13,3.13,0,0,0-3-3.24h-.11a2.4,2.4,0,0,0,.48-.87,2.44,2.44,0,0,0-1.6-3c-1-.33-1.87-.71-2.78-1.11-5.44-2.62-10.8-5.43-16.37-7.72l-2.91-1.21c-.5-.21-1-.45-1.53-.61l-4.93-1.65c-1.07-.37-2.14-.74-3.23-1l-6-1.6c-1-.27-2.05-.49-3.1-.71l-5.77-1.21c-1.34-.28-2.71-.43-4.06-.63l-3.11-.45c-.5-.07-1-.18-1.53-.22-3-.25-6-.52-9-.65-1.64-.08-3.28-.2-4.91-.22l-5.33-.06c-3,0-5.95,0-8.91.15-1.67.06-3.34.15-5,.24-.69,0-1.38.06-2.08.08s-1.52.07-2.26.05c.21-.58.43-1.14.64-1.7.27-.73.53-1.47.82-2.2.53-1.39,1-2.79,1.6-4.18,1.07-2.72,2.14-5.42,3.24-8.12s2.17-5.45,3.35-8.15q2-4.61,4-9.23c.84-1.77,1.67-3.54,2.51-5.3,1.55-.62,3.12-1.22,4.68-1.83a61.49,61.49,0,0,1,13.77-3.41,44.68,44.68,0,0,1,10.45.49,104.15,104.15,0,0,1,12.19,3c2.07.64,4.18,1.24,6.24,2l4.15,1.48c.78.28,1.59.53,2.35.85l6.28,2.62,4.69,2.23c1.33.62,2.63,1.31,3.93,2s2.68,1.38,4,2.13,3,1.6,4.38,2.49l2.65,1.64c.64.39,1.29.76,1.91,1.18,1.4,1,2.83,1.87,4.19,2.88,2.67,2,5.32,4,7.92,6,1.09.91,2.18,1.81,3.22,2.77,1.44,1.38,2.85,2.8,4.2,4.28l0,0a2.89,2.89,0,0,0,.35,3.4,2.81,2.81,0,0,0,3.91.09c2.33-2,4.75-3.92,7.15-5.84,2.85-2.27,5.72-4.55,8.66-6.7,1.09-.77,2.21-1.53,3.29-2.32l-.27.21A13.75,13.75,0,0,1,317.45,399.51Z" transform="translate(-108.87 -130.41)"/><path class="cls-4" d="M297.17,407.77a3.34,3.34,0,0,1-5.09,4.29,2.5,2.5,0,0,1,.45-.51C294.05,410.24,295.61,409,297.17,407.77Z" transform="translate(-108.87 -130.41)"/><path class="cls-4" d="M317.14,403.52c.09-1.34.16-2.69.31-4a13.75,13.75,0,0,0-2.27,1.38l.27-.21c-1.08.79-2.2,1.55-3.29,2.32-2.94,2.14-5.81,4.43-8.66,6.7-2.4,1.92-4.82,3.84-7.15,5.84a2.81,2.81,0,0,1-3.91-.09,2.89,2.89,0,0,1-.35-3.4,3.34,3.34,0,0,0,5.09-4.29l3.05-2.37,3.61-2.77,2.63-2c1.56-1.2,3.18-2.32,4.79-3.45.59-.43,1.17-.86,1.77-1.28a15.7,15.7,0,0,1,1.34-.86l.27-.14a7.91,7.91,0,0,1,3.75-.92,5.65,5.65,0,0,1,3.62,1.28,3.88,3.88,0,0,1,1,3.54c-.16,1.12-.18,2.24-.25,3.37s-.14,2-.18,3c-.25,4.3-.5,8.59-.81,12.9-.44,6-1.21,12-2,17.92-.43,3.29-.84,6.58-1.18,9.89l-.54,5.36c-.21,2.14-.31,4.31-.34,6.45,0,2,0,3.95.18,5.91.14,1.17.36,2.33.53,3.5a5.38,5.38,0,0,1-.59,4.13,4,4,0,0,1-1.7,1.39,7.92,7.92,0,0,1-2.12.53,18.63,18.63,0,0,1-2.48.14c-2,0-3.93-.08-5.9-.17-3-.13-6-.26-9-.27-1.5,0-3,0-4.51,0s-3.27.07-4.9.18c-6.39.43-12.77.94-19.14,1.49-3.46.35-6.92.66-10.33,1.3-2,.39-4.05.8-6.08,1.26-1.6.36-3.17.85-4.74,1.31a7.45,7.45,0,0,1-2.37.47,3.88,3.88,0,0,1-1.78-.43,2.65,2.65,0,0,1-1.31-1.23,4.3,4.3,0,0,1-.48-1.83,5,5,0,0,1,.2-1.33,12.54,12.54,0,0,1,1.4-2.91c.89-1.33,1.81-2.61,2.77-3.89,1.74-2.35,3.58-4.62,5.41-6.89,5.14-6.4,10.37-12.71,15.63-19l0,0a2.43,2.43,0,0,0,2.11-.81h.11a3.13,3.13,0,0,1,3,3.24,3.35,3.35,0,0,1-1,2.15Q264.85,453,259,460.11c-1.94,2.43-3.89,4.85-5.81,7.28-1,1.33-2.09,2.66-3.11,4l-.37.48c.79-.2,1.57-.4,2.37-.59,2.37-.56,4.76-1,7.18-1.35,5.09-.77,10.23-1.19,15.36-1.61,3.25-.27,6.5-.55,9.74-.78,1.42-.1,2.83-.21,4.26-.26,1.64-.06,3.29-.17,4.93-.17,3.2,0,6.38,0,9.58.13l5.2.21c1.47.07,3,.14,4.44.08a53,53,0,0,1-.67-5.86,68,68,0,0,1,.09-7.43c.15-2.4.38-4.77.63-7.16.17-1.61.3-3.23.51-4.83.28-2.16.55-4.33.83-6.49.76-6,1.54-11.93,2-17.92.24-3.13.45-6.26.66-9.4C316.92,406.81,317,405.16,317.14,403.52Z" transform="translate(-108.87 -130.41)"/><path class="cls-4" d="M287.86,407.74c-1-1-2.13-1.86-3.22-2.77-2.6-2.06-5.25-4.06-7.92-6-1.36-1-2.79-1.92-4.19-2.88-.62-.42-1.27-.79-1.91-1.18L268,393.22c-1.42-.89-2.92-1.67-4.38-2.49s-2.66-1.44-4-2.13-2.6-1.37-3.93-2L251,384.37l-6.28-2.62c-.77-.31-1.58-.56-2.35-.85l-4.15-1.48c-2.06-.73-4.17-1.33-6.24-2a104.15,104.15,0,0,0-12.19-3,44.68,44.68,0,0,0-10.45-.49,61.49,61.49,0,0,0-13.77,3.41c-1.56.61-3.13,1.2-4.68,1.83,1-2.16,2-4.31,3.1-6.46a6,6,0,0,0,.33-.83,55.52,55.52,0,0,1,17.24-3.74c7.61-.21,15.13,1.59,22.37,3.76,1.73.52,3.48,1,5.18,1.55l5.5,1.91c1.25.43,2.48.89,3.7,1.39,1.83.73,3.68,1.41,5.46,2.23l5.34,2.45c1.36.63,2.69,1.33,4,2s2.66,1.35,4,2.08,2.92,1.53,4.34,2.39c3,1.78,5.93,3.53,8.74,5.55,5.89,4.22,12,8.44,16.73,13.94a3.31,3.31,0,0,1,.28.36c-1.57,1.23-3.12,2.47-4.64,3.78a2.5,2.5,0,0,0-.45.51l0,0C290.71,410.54,289.3,409.12,287.86,407.74Z" transform="translate(-108.87 -130.41)"/><path class="cls-4" d="M268.6,440.5a2.43,2.43,0,0,1-2.11.81A3,3,0,0,1,268.6,440.5Z" transform="translate(-108.87 -130.41)"/><path class="cls-4" d="M194.29,371.89a6,6,0,0,1-.33.83c-1.05,2.15-2.08,4.29-3.1,6.46-.42.15-.83.32-1.25.49a3.06,3.06,0,0,1-2.13.23,2.82,2.82,0,0,1-1.88-3.5,2.77,2.77,0,0,1,.18-.45,2.68,2.68,0,0,1,1-1.14l.16-.07C189.38,373.76,191.83,372.79,194.29,371.89Z" transform="translate(-108.87 -130.41)"/><path class="cls-4" d="M192.9,368.32a3.25,3.25,0,0,1,1.45,2,3,3,0,0,1-.06,1.55c-2.46.89-4.91,1.86-7.33,2.83l-.16.07a2.68,2.68,0,0,0-1,1.14l-.35-.17q1.52-3.2,3.07-6.39a2.73,2.73,0,0,1,1.18-1.12,3.39,3.39,0,0,1,.85-.32A3.2,3.2,0,0,1,192.9,368.32Z" transform="translate(-108.87 -130.41)"/><path class="cls-4" d="M183.16,380.59l2.28-4.82.35.17a2.77,2.77,0,0,0-.18.45,2.82,2.82,0,0,0,1.88,3.5,3.06,3.06,0,0,0,2.13-.23c.42-.16.83-.33,1.25-.49-.84,1.76-1.67,3.53-2.51,5.3q-2,4.62-4,9.23c-1.18,2.69-2.25,5.42-3.35,8.15s-2.17,5.41-3.24,8.12c-.55,1.39-1.07,2.79-1.6,4.18-.28.73-.55,1.47-.82,2.2-.21.57-.44,1.13-.64,1.7.74,0,1.51,0,2.26-.05s1.39,0,2.08-.08c1.67-.09,3.34-.17,5-.24,3-.11,5.94-.19,8.91-.15l5.33.06c1.63,0,3.27.14,4.91.22,3,.13,6,.4,9,.65.51,0,1,.15,1.53.22l3.11.45c1.35.19,2.72.34,4.06.63l5.77,1.21c1,.22,2.08.44,3.1.71l6,1.6c1.09.3,2.16.67,3.23,1l4.93,1.65c.52.16,1,.41,1.53.61l2.91,1.21c5.58,2.29,10.94,5.1,16.37,7.72.91.39,1.82.77,2.78,1.11a2.44,2.44,0,0,1,1.6,3,2.4,2.4,0,0,1-.48.87,3,3,0,0,0-2.11.81,1.8,1.8,0,0,1-.41-.08,58.73,58.73,0,0,1-9.22-3.83c-2.73-1.3-5.49-2.57-8.23-3.83l-3.81-1.53c-.9-.36-1.81-.77-2.74-1.08l-4.67-1.53c-.88-.29-1.77-.62-2.67-.86l-5-1.31c-.93-.23-1.86-.52-2.81-.71L219.17,425l-5.92-.82c-1.7-.24-3.41-.34-5.12-.47s-3.44-.25-5.18-.31-3.59-.17-5.4-.18-3.76,0-5.65,0c-1.55,0-3.09.07-4.63.11-2.95.08-5.9.27-8.84.47l-2.42.13-1.35,0a11.38,11.38,0,0,1-2.84-.29,4.84,4.84,0,0,1-3-2.16,5.16,5.16,0,0,1-.58-3.21,16.36,16.36,0,0,1,1.06-3.72c1-2.85,2-5.66,3.13-8.47,2.18-5.64,4.44-11.26,6.85-16.8C180.59,386.39,181.8,383.45,183.16,380.59Z" transform="translate(-108.87 -130.41)"/><path class="cls-4" d="M628.91,317.73a57.38,57.38,0,0,0-13.7.18,72.5,72.5,0,0,0-7.17,1.34c-1.52.36-3.05.73-4.56,1.18l-6.57,2c-3.12.95-6.17,2.11-9.24,3.22l-4.95,2c-1.64.68-3.22,1.52-4.82,2.29-.66.31-1.29.72-1.93,1.09s-1.45.78-2.12,1.23c-.85.55-1.73,1.07-2.55,1.68-.53.38-1.06.77-1.59,1.16a42.58,42.58,0,0,0-5.46,5.1,2.35,2.35,0,0,1-1,4,2.29,2.29,0,0,1-1.14,0,4.38,4.38,0,0,1-.66-.25,10,10,0,0,1-1-.49,7.07,7.07,0,0,1-1-.76,3.22,3.22,0,0,1-.78-1.41c0-.34-.09-.68-.14-1a7.76,7.76,0,0,1,.22-1.45c.07-.21.14-.42.23-.62.21-.53.45-1,.7-1.54A14.19,14.19,0,0,1,562,333.5a39.5,39.5,0,0,1,6.16-5c.52-.38,1.09-.71,1.65-1.06.4-.26.81-.55,1.23-.78l3.52-2c.44-.24.92-.44,1.38-.66l2.37-1.11c.82-.38,1.64-.73,2.48-1.06l3.1-1.25c.68-.29,1.36-.59,2.05-.84l4.54-1.62c1.11-.39,2.21-.83,3.35-1.17l5.51-1.66c1.87-.56,3.71-1.1,5.6-1.57a82.6,82.6,0,0,1,13-2.19,54.62,54.62,0,0,1,13.14.39,30.35,30.35,0,0,1,6.35,1.66c.71.29,1.42.59,2.1.93l0-.12c.18-.87.38-1.73.57-2.59.46-2,.9-4,1.38-5.92,1.46-6,2.93-12,4.56-17.88.78-2.85,1.49-5.71,2.36-8.53.46-1.52.88-3.06,1.39-4.58.62-1.87,1.24-3.73,1.89-5.59l.06-.17c.46.28.91.6,1.36.92s.75.62,1.13.94a11.92,11.92,0,0,1,1.56,1.68,2.29,2.29,0,0,0,.78.61c-.76,2.3-1.49,4.59-2.19,6.9-.84,2.78-1.56,5.57-2.33,8.36q-2.26,8.31-4.27,16.67c-.7,2.93-1.46,5.86-2.05,8.81q-.43,2.15-.8,4.3a4.9,4.9,0,0,1-1.19,2.87,3.28,3.28,0,0,1-3.2.87,4.94,4.94,0,0,1-1.27-.56c-.37-.26-.76-.52-1.14-.76a21.82,21.82,0,0,0-2.32-1.29A32.51,32.51,0,0,0,628.91,317.73Z" transform="translate(-108.87 -130.41)"/><path class="cls-4" d="M621.73,266.5a158.13,158.13,0,0,0-37.41,9.72,95.43,95.43,0,0,0-20.24,11.07,79.61,79.61,0,0,0-13.84,13.09,68.84,68.84,0,0,0-5.82,9.05l-1.88,3.48c-1,1.85-1.85,3.77-2.67,5.71-.22.53-.42,1.07-.65,1.6a3.87,3.87,0,0,1-1.63,4.85,3.13,3.13,0,0,1-.34.17,24.84,24.84,0,0,0-3.77-4.09,26.75,26.75,0,0,0-2.5-1.78,2.94,2.94,0,0,1,.18-.71c.39-1,.8-1.9,1.26-2.83l1.83-3.8c1.37-2.87,2.91-5.67,4.52-8.41a65,65,0,0,1,10.92-13.85c2.17-2.07,4.45-4,6.81-5.89a83.41,83.41,0,0,1,6.84-5,97.59,97.59,0,0,1,15.41-8A155.27,155.27,0,0,1,595.13,265c5.49-1.59,11.06-2.85,16.68-3.9A126.14,126.14,0,0,1,629,258.95a71.6,71.6,0,0,1,17.16,1,34.7,34.7,0,0,1,4.55,1.17,21.88,21.88,0,0,1,3.8,1.63l.11.07a29.94,29.94,0,0,1,3.58,2.56,18.8,18.8,0,0,1,1.57,1.35c.37.39.71.8,1,1.23a3.67,3.67,0,0,1,1,2.39,3.42,3.42,0,0,1-3.43,3.42,3.64,3.64,0,0,1-1.67-.43l.83-2.44a2.92,2.92,0,0,0-1.41-3.34,2.8,2.8,0,0,0-.68-.29,3,3,0,0,0-2.23.28,3,3,0,0,0-1.34,1.64,15.9,15.9,0,0,0-2-1.11,39.4,39.4,0,0,0-7.8-1.87,86.34,86.34,0,0,0-20,.25l-.14,0h0Z" transform="translate(-108.87 -130.41)"/><path class="cls-4" d="M653.19,267.54a3,3,0,0,1,2.23-.28,2.8,2.8,0,0,1,.68.29,2.92,2.92,0,0,1,1.41,3.34l-.83,2.44a2.29,2.29,0,0,1-.78-.61,11.92,11.92,0,0,0-1.56-1.68c-.38-.32-.74-.64-1.13-.94s-.9-.64-1.36-.92A3,3,0,0,1,653.19,267.54Z" transform="translate(-108.87 -130.41)"/><path class="cls-5" d="M621.73,266.5l.19,0h0l.14,0a86.34,86.34,0,0,1,20-.25,39.4,39.4,0,0,1,7.8,1.87,15.9,15.9,0,0,1,2,1.11l-.06.17c-.65,1.86-1.27,3.72-1.89,5.59-.51,1.51-.94,3.05-1.39,4.58-.87,2.82-1.58,5.68-2.36,8.53C644.5,294,643,300,641.58,305.94c-.48,2-.93,4-1.38,5.92-.19.86-.39,1.73-.57,2.59l0,.12c-.68-.34-1.39-.64-2.1-.93a30.35,30.35,0,0,0-6.35-1.66A54.62,54.62,0,0,0,618,311.6a82.6,82.6,0,0,0-13,2.19c-1.89.47-3.74,1-5.6,1.57L593.87,317c-1.14.34-2.24.77-3.35,1.17L586,319.8c-.69.24-1.37.55-2.05.84l-3.1,1.25c-.84.34-1.65.68-2.48,1.06L576,324.07c-.46.22-.93.42-1.38.66l-3.52,2c-.42.23-.83.52-1.23.78-.56.35-1.12.68-1.65,1.06a39.5,39.5,0,0,0-6.16,5,14.19,14.19,0,0,0-2.43,3.19c-.26.5-.49,1-.7,1.54-.08.2-.15.41-.23.62a7.76,7.76,0,0,0-.22,1.45c0,.34.09.68.14,1a3.22,3.22,0,0,0,.78,1.41,7.07,7.07,0,0,0,1,.76,10,10,0,0,0,1,.49,4.38,4.38,0,0,0,.66.25l-.16.71a2.87,2.87,0,0,0-.82-.12,3.19,3.19,0,0,0-2.25.91,3.22,3.22,0,0,0-1,2.31,3.12,3.12,0,0,0,.91,2.25c2.42,2,5,3.92,7.52,5.82,2.26,1.69,4.51,3.42,6.75,5.14,1,.82,2,1.63,3,2.47.5.43,1,.87,1.5,1.33l-1,.23c-1.08.26-2.16.52-3.23.83-2.61.74-5.21,1.52-7.8,2.3-1.13.34-2.22.78-3.33,1.17-1.83.63-3.62,1.29-5.43,2a69,69,0,0,0-9.35,4.71,44.62,44.62,0,0,0-4.5,3.18c-.46.37-.9.76-1.32,1.17-.59-1.21-1.09-2.47-1.64-3.7q-1-2.36-2.06-4.7c-1.18-2.72-2.44-5.41-3.74-8.09q-1.21-2.45-2.41-4.93c-.92-1.88-2-3.69-3-5.51-1.18-2.13-2.43-4.2-3.73-6.27a140.67,140.67,0,0,0-13.34-17.65l-5-5.69c-2.48-2.82-5-5.55-7.32-8.52-.45-.63-.88-1.27-1.28-1.93l2.47.63q1.55.4,3.08.83c2.1.58,4.18,1.2,6.26,1.82,4,1.2,8,2.71,11.89,4.19,1.4.58,2.77,1.19,4.12,1.87a17.68,17.68,0,0,1,7.35,6.32,2.77,2.77,0,0,0,2,.86,2.85,2.85,0,0,0,2-.81,2.88,2.88,0,0,0,.87-2,3.15,3.15,0,0,0-.81-2l-.08-.1a3.13,3.13,0,0,0,.34-.17,3.87,3.87,0,0,0,1.63-4.85c.22-.53.42-1.07.65-1.6.82-1.93,1.68-3.86,2.67-5.71l1.88-3.48a68.84,68.84,0,0,1,5.82-9.05,79.61,79.61,0,0,1,13.84-13.09,95.43,95.43,0,0,1,20.24-11.07A158.13,158.13,0,0,1,621.73,266.5Z" transform="translate(-108.87 -130.41)"/><path class="cls-4" d="M563.76,346.1Q565,347,566.2,348l2.86,2.25c2.62,2.06,5.21,4.18,7.8,6.29,1.32,1.06,2.64,2.16,3.86,3.33a17.17,17.17,0,0,1,3.83,4.5,4.47,4.47,0,0,1,.48,2.1,3,3,0,0,1-.88,2.08,4.75,4.75,0,0,1-2.65,1.45c-.75.16-1.49.35-2.25.55-3,.77-6.07,1.64-9.07,2.58-3.31,1-6.63,2.08-9.86,3.36a61.9,61.9,0,0,0-13.08,7,24.14,24.14,0,0,0-2.17,1.86,14.24,14.24,0,0,1-2.12,1.84,3.71,3.71,0,0,1-1.64.4,3.63,3.63,0,0,1-1.64-.43,6,6,0,0,1-2-2.39c-.92-1.65-1.69-3.39-2.51-5.1q-2-4.19-4.05-8.37c-1.39-2.88-2.87-5.72-4.32-8.58a140.16,140.16,0,0,0-11.93-19.25c-3-4-6.31-7.77-9.64-11.51l-3.42-3.84c-2.13-2.4-4.34-4.73-6.32-7.26A31.17,31.17,0,0,1,491.6,315c-.94-2-1.54-4.82.27-6.55a4.75,4.75,0,0,1,3.49-1.42,13.24,13.24,0,0,1,2.84.43c1.22.31,2.41.69,3.61,1q4.73,1.41,9.46,2.89c2.92.9,5.78,1.93,8.64,3,2.44.93,4.9,1.85,7.28,3,1,.46,1.93,1,2.86,1.5l.92.56a5.87,5.87,0,0,0,.19,2.14,6.55,6.55,0,0,0,1.83,2.9,3.81,3.81,0,0,0,4.26.83l.08.1a3.15,3.15,0,0,1,.81,2,2.88,2.88,0,0,1-.87,2,2.85,2.85,0,0,1-2,.81,2.77,2.77,0,0,1-2-.86,17.68,17.68,0,0,0-7.35-6.32c-1.35-.68-2.73-1.29-4.12-1.87-3.94-1.48-7.86-3-11.89-4.19-2.08-.62-4.16-1.24-6.26-1.82q-1.53-.43-3.08-.83l-2.47-.63c.4.66.84,1.3,1.28,1.93,2.27,3,4.84,5.71,7.32,8.52l5,5.69A140.67,140.67,0,0,1,525,347.44c1.3,2.07,2.55,4.14,3.73,6.27,1,1.83,2.06,3.64,3,5.51q1.2,2.47,2.41,4.93c1.31,2.68,2.56,5.37,3.74,8.09q1,2.34,2.06,4.7c.54,1.23,1,2.49,1.64,3.7.42-.4.86-.8,1.32-1.17a44.62,44.62,0,0,1,4.5-3.18,69,69,0,0,1,9.35-4.71c1.8-.75,3.59-1.41,5.43-2,1.11-.39,2.2-.83,3.33-1.17,2.59-.79,5.19-1.57,7.8-2.3,1.07-.3,2.15-.57,3.23-.83l1-.23c-.49-.46-1-.9-1.5-1.33-1-.84-2-1.65-3-2.47-2.25-1.72-4.49-3.45-6.75-5.14-2.54-1.9-5.1-3.78-7.52-5.82a3.12,3.12,0,0,1-.91-2.25,3.22,3.22,0,0,1,1-2.31,3.19,3.19,0,0,1,2.25-.91,2.87,2.87,0,0,1,.82.12,3.78,3.78,0,0,1,1.48.85l1.05.85Z" transform="translate(-108.87 -130.41)"/><path class="cls-4" d="M537.26,325.24a3.81,3.81,0,0,1-4.26-.83,6.55,6.55,0,0,1-1.83-2.9,5.87,5.87,0,0,1-.19-2.14,26.75,26.75,0,0,1,2.5,1.78A24.84,24.84,0,0,1,537.26,325.24Z" transform="translate(-108.87 -130.41)"/></svg>