<svg id="Layer_12" data-name="Layer 12" xmlns="http://www.w3.org/2000/svg" viewBox="0 0 549.09 629.86"><defs><style>.cls-1{fill:#7f7f7f;}.cls-2{fill:#fff;}.cls-3{fill:#5c832f;}.cls-4{fill:#ffe11a;}.cls-5{fill:#6edaf4;}.cls-6{fill:#e2e2e2;}.cls-7{fill:#f7e828;stroke:#000;stroke-miterlimit:10;stroke-width:0.25px;}</style></defs><title>automatic_ocr</title><path class="cls-1" d="M413.19,92.27q-45,0-90,.13-23,0-46,.07-11.54,0-23.09.16c-3.7,0-7.4.15-11.1.21s-7.37.07-11.05.15a2.84,2.84,0,0,0-2,.82,2.8,2.8,0,0,0-.72,2.72l.38,1.23q.18,13.44.2,26.87c0,9.07.05,18.14,0,27.2q-.1,28.54-.34,57.07Q229,266,228.75,323.08c-.08,18.18-.18,36.36-.12,54.54q.05,13.94.17,27.88.13,14.38.27,28.77a2.91,2.91,0,0,0,.6,1.74q-.08,66,.08,131.94.08,36,.33,72c.07,11.34.19,22.67.26,34,0,5.13.07,10.26.06,15.39s0,10-.12,15l0-.17a13.76,13.76,0,0,0-.05,1.54v3.63l0,8.47a1.75,1.75,0,0,0,1.73,1.73c4.76,0,9.53,0,14.29,0l14.79.13q14.78.14,29.56.25,29,.21,58.08.3t58.32.19q28.54.12,57.08.14,89.94.09,179.88.08a2.85,2.85,0,0,0,2.82-2.82q0-15.49,0-31c0-8.91.12-17.83.14-26.74,0-18.45.18-36.9.23-55.35q.15-59,.12-118,0-29.84-.06-59.68-.09-30-.18-60.11c-.05-19.76,0-39.53-.05-59.29s0-39.64,0-59.45c0-13.07-.07-26.14-.12-39.21q-.07-18.65-.16-37.3c-.07-12.47-.16-24.93-.2-37.4q-.06-19.24,0-38.48a2.52,2.52,0,0,0-2.49-2.5c-4.89,0-9.78.06-14.66,0s-9.53-.12-14.29-.15c-9.37-.05-18.75-.17-28.12-.27-19.43-.21-38.85-.27-58.28-.37q-44.75-.25-89.51-.22Zm46.2,7q46.41,0,92.83-.33c7.58,0,15.16-.07,22.75-.12s15.45-.16,23.17-.25c7.53-.09,15.05-.12,22.58-.18,3.66,0,7.32-.13,11-.13h9.76c0,8.88,0,17.76,0,26.64q0,14.37-.11,28.74-.16,28.18-.28,56.38-.12,29.72-.11,59.44t-.07,59.7q0,29.69-.09,59.38t-.18,59.67c0,20.11,0,40.21,0,60.32q0,29.47,0,58.95,0,19.2.07,38.39c0,12.29.12,24.58.18,36.87.06,11.74.07,23.49.17,35.23,0,6.26,0,12.52,0,18.77q0,9.13,0,18.25-28.7,0-57.4,0-29,0-58,0c-38.78.05-77.57,0-116.35.19-29.39.12-58.8.16-88.19.31q-22.38.12-44.77.29c-7.32.06-14.65.14-22,.19-3.54,0-7.08.09-10.62.09H233.68q0-2.76,0-5.52v-3.63a25.45,25.45,0,0,0-.06-2.8l0,.22c-.08-3.64-.08-7.29-.1-10.93q0-6.78,0-13.56.11-13.56.21-27.14c.17-19.42.24-38.83.34-58.25s.12-38.8.14-58.21q0-29.38.06-58.77,0-20.75,0-41.49a2.91,2.91,0,0,0,.6-1.73c.2-20.11.43-40.21.45-60.32,0-19.54-.07-39.09-.15-58.62-.16-38.21-.5-76.41-.8-114.62q-.21-26.06-.28-52.12-.06-25,.23-50c3.64.05,7.28.07,10.91.15,4.88.1,9.76.18,14.64.21q14.5.11,29,.15c19,.06,38,0,57,.06q45.15.09,90.29.1Z" transform="translate(-160.89 -91.36)"/><path class="cls-1" d="M649.65,367.74c.07,40.13.09,80.26-.25,120.4q-.25,30-.76,60c-.16,9.45-.49,18.89-.75,28.34-.13,4.81-.25,9.63-.39,14.44-.14,4.54-.31,9.09-.41,13.63-.45,19.11-.5,38.23-.51,57.33q0,14.2,0,28.4c0,9.19-.08,18.39,0,27.58a2.61,2.61,0,0,1-2.57,2.57c-7.13.08-14.25,0-21.38,0H600.1q-22.77,0-45.54,0-23.28,0-46.56.22-11.77.09-23.54.34c-3.67.08-7.35.22-11,.21h-35q-45.47,0-90.91-.14-28.67-.13-57.31-.16l-29.64,0c-9.55,0-19.1.15-28.64-.09a3.09,3.09,0,0,1-2.15-.88,2.94,2.94,0,0,1-.88-2.15c.17-2,.08-4.13.1-6.17l.06-6.14c0-3.86.12-7.72.17-11.58q.15-10.37.32-20.74c.26-14.85.33-29.71.39-44.57q.09-19.93.23-39.86a2.83,2.83,0,0,1-1-2.15q-.23-14.24-.44-28.45c-.27-19.92-.56-39.82-.68-59.73s-.14-39.64-.14-59.47q0-57.1.16-114.23c.08-19.36.16-38.73.34-58.09.18-18.68.34-37.36.38-56q.06-28.62-.13-57.25c-.1-18.81-.15-37.62-.37-56.42,0,0,0-.08,0-.13a3.72,3.72,0,0,1,0-2,3.81,3.81,0,0,1,3.69-2.81c7.41.1,14.82.08,22.22.1s14.63,0,21.94,0c15.53,0,31.06-.13,46.59-.23,14.69-.09,29.39-.12,44.08-.17s29.66-.14,44.49-.22q15.92-.09,31.83-.1,13.39,0,26.79.09,29.82.21,59.65.63,28.72.38,57.47.7l28.77.31,14.77.14c2.26,0,4.52,0,6.77,0h3.52a8.53,8.53,0,0,0,2.14-.13l1-.12a2.62,2.62,0,0,1,2,.82,2.77,2.77,0,0,1,.82,2q.29,18.07.58,36.14c.2,12.48.59,25,.86,37.42.57,25.92.78,51.85.94,77.78.13,20.08.16,40.15.27,60.23S649.62,347.61,649.65,367.74Zm-8.26,347.49c0-11.24,0-22.47-.06-33.7,0-12.79,0-25.58-.05-38.37,0-12.52-.15-25.06-.44-37.58-.14-6-.37-12-.53-18.05s-.32-11.85-.5-17.77c-.59-19.63-.83-39.27-1.08-58.91q-.37-29.79-.44-59.58-.16-60.4.1-120.81.16-30.25.29-60.49t.43-60.37q.16-14.82.4-29.65c.15-9.62.45-19.22.69-28.84.42-17.59.65-35.19.92-52.79h-8.23l-11.57.1-21.58.23q-22.38.22-44.74.5c-30.36.36-60.72.84-91.08,1q-10.92.06-21.83,0c-31.6,0-63.21-.3-94.8-.38-19.36,0-38.72-.21-58.08-.29q-14.76-.08-29.54,0c-8,0-16,0-24.07.08-.08,7.92-.12,15.84-.16,23.76-.22,38.08-.43,76.15-.17,114.23.12,18.92.33,37.84.43,56.76s.19,37.6.23,56.4q.14,58.36.07,116.73c0,39.72-.62,79.43-1.25,119.15a2.89,2.89,0,0,1-1,2.14q0,8.8.1,17.6c.12,18.84.18,37.69.36,56.53.08,9,.27,18,.4,27q.12,7.23.22,14.47c0,2.45.06,4.89.08,7.34,0,1,0,2,0,3.05,1.17,0,2.34-.05,3.51,0h5.93l11.6,0,25.08,0c15.75,0,31.48,0,47.22-.09q47.26-.12,94.52-.18l29.27,0c9.22,0,18.45-.06,27.68.11,9.43.18,18.87.36,28.31.44q13.82.12,27.64.16,28.16.12,56.31.11l26.29,0C626,715.22,633.68,715.16,641.39,715.23Z" transform="translate(-160.89 -91.36)"/><path class="cls-2" d="M641.33,681.53c0,11.23.09,22.46.06,33.7-7.71-.07-15.43,0-23.15,0l-26.29,0q-28.15,0-56.31-.11-13.81-.06-27.64-.16c-9.44-.08-18.88-.26-28.31-.44-9.23-.17-18.46-.11-27.68-.11l-29.27,0q-47.26,0-94.52.18c-15.74,0-31.47.11-47.22.09l-25.08,0-11.6,0h-5.93c-1.17,0-2.34,0-3.51,0,0-1,0-2,0-3.05,0-2.45,0-4.89-.08-7.34q-.09-7.23-.22-14.47c-.13-9-.32-18-.4-27-.18-18.84-.24-37.69-.36-56.53q0-8.79-.1-17.6a2.89,2.89,0,0,0,1-2.14c.63-39.72,1.21-79.43,1.25-119.15q0-58.36-.07-116.73-.06-28.2-.23-56.4c-.1-18.92-.31-37.84-.43-56.76-.26-38.08-.05-76.15.17-114.23,0-7.92.08-15.84.16-23.76,8-.07,16.05,0,24.07-.08q14.78,0,29.54,0c19.36.08,38.72.25,58.08.29,31.59.08,63.2.38,94.8.38q10.92,0,21.83,0c30.36-.16,60.72-.64,91.08-1q22.37-.29,44.74-.5l21.58-.23,11.57-.1h8.23c-.27,17.6-.5,35.2-.92,52.79-.24,9.62-.54,19.22-.69,28.84q-.25,14.82-.4,29.65-.33,30.19-.43,60.37t-.29,60.49q-.31,60.41-.1,120.81.07,29.79.44,59.58c.25,19.64.49,39.28,1.08,58.91q.27,8.88.5,17.77c.16,6,.39,12,.53,18.05.29,12.52.39,25.06.44,37.58C641.34,655.95,641.32,668.74,641.33,681.53Z" transform="translate(-160.89 -91.36)"/><path class="cls-1" d="M451.78,715.73a2.13,2.13,0,0,0-1,.56,2.16,2.16,0,0,0-.34,2.63,2.32,2.32,0,0,0,1.29,1,5.59,5.59,0,0,0,1.88.11,2.2,2.2,0,0,0,0-4.41l-.91,0a2.73,2.73,0,0,0-1,.14Z" transform="translate(-160.89 -91.36)"/><path class="cls-1" d="M489.18,110a136.32,136.32,0,0,0-16.9,1.73,242.93,242.93,0,0,0-33.09,7.59,279.31,279.31,0,0,0-31.38,11.32,194.48,194.48,0,0,0-29.35,15.75q-1.66,1.09-3.31,2.19c-2.91-.11-5.83-.11-8.75,0,1-1.36,1.89-2.76,2.78-4.17a20.27,20.27,0,0,0,2.66-6.21,12.27,12.27,0,0,0-1.65-9.85,10.59,10.59,0,0,0-2-2.35,13.15,13.15,0,0,0-2.56-1.67,23.24,23.24,0,0,0-3.52-1.46,24.76,24.76,0,0,0-3.76-.84c-1.21-.2-2.42-.35-3.64-.47a63.91,63.91,0,0,0-8.61-.09c-2.77.11-5.52.4-8.27.72s-5.58.75-8.36,1.25a86.68,86.68,0,0,0-16.07,4.41,40.71,40.71,0,0,0-6.8,3.35,34.13,34.13,0,0,0-6.2,5,30.37,30.37,0,0,0-4.25,5.45,21,21,0,0,0-1.52,3.13,35,35,0,0,0-1.36,4.1,27.44,27.44,0,0,0-.67,3.6c-.17,1.28-.29,2.56-.35,3.85,0,1,0,2,0,3-.92.18-1.84.37-2.74.58l-4.83,1.11q-1.24.28-2.49.53a18.14,18.14,0,0,0-2.18.58,13.82,13.82,0,0,0-2.3,1.16,2,2,0,0,0,0,3.5,20.63,20.63,0,0,0,2.59,1.42,15.72,15.72,0,0,0,3,.83c2.31.44,4.68.54,7,.77,1.23.13,2.47.18,3.71.26a38.52,38.52,0,0,0,4.12,9.11,37.45,37.45,0,0,0,3.86,5.13,19.78,19.78,0,0,0,1.62,1.6l-1.83-.25a44.14,44.14,0,0,0-16.35,1,43,43,0,0,0-7.07,2.61,46.91,46.91,0,0,0-7.16,4.1,58,58,0,0,0-11.53,10.57,62.76,62.76,0,0,0-4.44,6,55.59,55.59,0,0,0-3.93,7.32,32.9,32.9,0,0,0-2.45,7,24.92,24.92,0,0,0-.49,3.76,11.94,11.94,0,0,0,.63,4.07,15.13,15.13,0,0,0,3.45,5.89,19.26,19.26,0,0,0,2.64,2.2,20.61,20.61,0,0,0,3.48,2c4.6,2.16,9.79,2.66,14.81,2.48a57.07,57.07,0,0,0,16.1-3.27A110.84,110.84,0,0,0,304.59,235c2.32-1.19,4.61-2.46,6.88-3.76,2.47-1.41,4.93-2.85,7.37-4.33l.28-.17a10,10,0,0,0-.51.88,2.19,2.19,0,0,0,2.48,3.22l.26-.06a29.42,29.42,0,0,0,2.54,3.06A40,40,0,0,0,329,238.4a53,53,0,0,0,6.78,4.26,90.81,90.81,0,0,0,14.32,6.09A144.24,144.24,0,0,0,366,253c1.26.26,2.52.54,3.8.74l3.19.5,7.8,1.24c1.23.2,2.46.33,3.71.45l.77.08-.37.72c-.8,1.55-1.57,3.13-2.25,4.74l-1.5.08-16.29.94c-7.54.44-15.09.67-22.64,1q-10.12.39-20.25.64l-5.49.15c-6.27,0-12.54.05-18.8.2h-.1a2.91,2.91,0,0,0-2.06,5,3,3,0,0,0,2.06.85c1.57.08,3.15.18,4.73.2l3.35,0c2.15,0,4.29.07,6.44.09l12.75.06c3.11,0,6.21,0,9.32,0l8.25,0h1.09c.82,0,1.63,0,2.45,0l13.37-.48,5.9-.21c.83,0,1.66-.14,2.5-.21l13-1.22a1.54,1.54,0,0,0,.61.43,3.21,3.21,0,0,0,1,.31,1.6,1.6,0,0,0,.9-.15,3.42,3.42,0,0,0,1.05-.92l2.92-.28c.54-.05,1.08-.15,1.61-.24l2.55-.42,15.71-2.6,3.83-.63c.28,0,.56-.12.84-.18l2.71-.6,8.89-2,15.9-1.38,2.57-.22q3.64.32,7.29.53,1.66.67,3.34,1.31a228.21,228.21,0,0,0,38.23,10.91l-.81.65c-1.79,1.43-3.55,2.88-5.33,4.31l-6.29,5.05c-2.34,1.88-4.61,3.86-6.82,5.88q-2.85,2.6-5.43,5.46c-1.83,2-3.5,4.2-5.12,6.4-1.47,2-2.69,4.12-4,6.2a28.51,28.51,0,0,0-1.84,3.22c-.24.53-.45,1.07-.67,1.61a6,6,0,0,0-.38,2.26,5.07,5.07,0,0,0,.38,1.66,9.16,9.16,0,0,0,.79,1.58,13.54,13.54,0,0,0,1.07,1.43,11.1,11.1,0,0,0,1.18,1.21,19.42,19.42,0,0,0,2.75,2c1.13.73,2.33,1.34,3.52,2a58.78,58.78,0,0,0,7,3c1.4.52,2.8,1,4.22,1.5l6.25,2c1.32.43,2.64.89,4,1.29l10.16,3c3.09.92,6.21,1.76,9.32,2.63,3.66,1,7.33,2,11,3a2.35,2.35,0,0,0,1.25-4.54c-4-1.06-7.91-2.24-11.85-3.37-3.15-.9-6.32-1.79-9.46-2.72-3.61-1.07-7.23-2.12-10.82-3.25l-7.54-2.39c-3.06-1-6.11-2-9.07-3.22-1.25-.55-2.47-1.16-3.68-1.79a27.8,27.8,0,0,1-3.62-2.18,15.21,15.21,0,0,1-1.73-1.71,10.34,10.34,0,0,1-.73-1.18q0-.14-.08-.28v-.17a13.32,13.32,0,0,1,.65-2.06c.42-.88.9-1.72,1.39-2.56.62-1.07,1.21-2.14,1.84-3.2a58.08,58.08,0,0,1,3.88-5.7l-.3.38a70.9,70.9,0,0,1,5-5.86c1.93-2,4-3.86,6.1-5.7.94-.82,1.87-1.66,2.84-2.44l2.44-1.93,6.32-5c2.36-1.87,4.75-3.69,7.09-5.59l0,0q11.19,2,22.52,2.91c5.7.49,11.41.75,17.13,1,2.05.08,4.09.14,6.14.15l15.6.1q7.1,0,14.2,0c2.73,0,5.48,0,8.21-.12,2.92-.08,5.82-.27,8.73-.42a52.36,52.36,0,0,0,7.36-.77,30.52,30.52,0,0,0,3.09-.81,8.18,8.18,0,0,0,1.18-.46,4.87,4.87,0,0,0,1.38-.88,3.43,3.43,0,0,0,.47-.54,6,6,0,0,0,.53-1.11,5.16,5.16,0,0,0,.2-1.32,4.21,4.21,0,0,0-.17-1.25L602,269c-.25-.45-.52-.89-.8-1.32s-.42-.73-.62-1.09c-.8-1.41-1.58-2.82-2.44-4.2l-1.9-3c-.32-.52-.62-1.07-1-1.56L591.76,253c-.84-1.14-1.63-2.34-2.53-3.44l-3.47-4.25-.93-1.14q0-.3,0-.61c.2-2.86.24-5.73.24-8.6,0-5.66-.44-11.3-.93-16.93-.16-1.8-.36-3.59-.56-5.38q-.84-7.38-1.67-14.76c-.12-1-.25-2.09-.39-3.13a11.51,11.51,0,0,0-.69-7.34q-.24-.6-.52-1.17c-.25-1.78-.5-3.56-.74-5.33-.58-4.31-1.37-8.58-2.32-12.82q.85-.71,1.72-1.39c1.67-1.29,3.37-2.52,5.13-3.68.93-.62,1.88-1.2,2.84-1.79.76-.46,1.53-1,2.32-1.38l4.73-2.55c2.93-1.58,5.93-3.05,8.87-4.62a1.62,1.62,0,0,0-1.24-3c-4.06,1.48-8,3.27-12,5-1.82.77-3.61,1.59-5.41,2.38-1.29.57-2.58,1.12-3.85,1.71l-5.1,2.4-.16-.36a33.19,33.19,0,0,0-4.35-6.79,44.74,44.74,0,0,0-4.26-4.68l.23-.07a9.51,9.51,0,0,0,3.39-1.76,4.22,4.22,0,0,0,1.07-1.36,4.82,4.82,0,0,0,.37-1.39l.07-.39a2.37,2.37,0,0,0-.23-1.72,2.29,2.29,0,0,0-1.33-1c-.76-.25-1.52-.46-2.28-.67a29.71,29.71,0,0,0-3.26-.61l-2.77-.44c-1.47-.23-3-.43-4.41-.71-1.82-.35-3.63-.67-5.45-1-1.11-.2-2.21-.46-3.31-.73s-2.24-.56-3.34-.89a31.62,31.62,0,0,0-4.19-1.72,2.83,2.83,0,0,0-2.18,5.18,15.69,15.69,0,0,0,3.87,1.6c1.72.78,3.45,1.55,5.16,2.35l3.94,1.82c1.18.54,2.35,1.1,3.5,1.69.7.36,1.37.76,2,1.18l-2.86,1c-1.54.54-3.07,1.09-4.62,1.6l-5.85,1.92-7.87,2.59c-1,.34-2,.65-3.06,1l-5.33,1.88-1.13-.25q-2.8-.6-5.61-1.1c1-1.11,1.91-2.22,2.8-3.39.76-1,1.47-2,2.16-3.06a34.3,34.3,0,0,0,1.9-3,11.3,11.3,0,0,0,.59-1.45,7.49,7.49,0,0,0,.26-1.5l0-.43a2.83,2.83,0,0,0-.2-.89,8.46,8.46,0,0,0-.52-1.18l-.06-.15a1.92,1.92,0,0,0-.81-1.05,1.89,1.89,0,0,0-1.36-.18l-1.65.28a9.67,9.67,0,0,0-2.05.76c-.72.31-1.41.71-2.1,1.07l-2.27,1.17a59.58,59.58,0,0,0-8.35,5.3,65.07,65.07,0,0,0-5.94,5.12l-2-.22c1.13-1.71,2.24-3.43,3.34-5.15a88.56,88.56,0,0,0,7.54-14,26.57,26.57,0,0,0,2-7.05,19.25,19.25,0,0,0-.38-7.32,12.52,12.52,0,0,0-1.29-2.89,16.07,16.07,0,0,0-2-2.62,14.1,14.1,0,0,0-2.41-2.08,15,15,0,0,0-3.49-1.67,29.36,29.36,0,0,0-7-1.53,38,38,0,0,0-4.3-.21c-1.44,0-2.88,0-4.31.08Zm-1.37,3.78c1.79-.09,3.57-.12,5.36-.14a41.22,41.22,0,0,1,5.56.27,29.55,29.55,0,0,1,5.93,1.54,14.06,14.06,0,0,1,2.19,1.23,11.77,11.77,0,0,1,3.52,4.44,13.29,13.29,0,0,1,.69,2.65,22.59,22.59,0,0,1-.08,4.74,29.13,29.13,0,0,1-1.91,6.3q-1.12,2.59-2.38,5.11c-1,1.94-2.07,3.81-3.19,5.66s-2.32,3.68-3.49,5.51c-.53.82-1,1.65-1.58,2.46l-.4.6q-2.33-.22-4.66-.41c-1.14-.09-2.28-.14-3.42-.19q1.3-.71,2.57-1.45c1.5-.88,3-1.68,4.49-2.64a12.16,12.16,0,0,0,2-1.71,8.36,8.36,0,0,0,1.26-2.12,1.89,1.89,0,0,0,0-1.85,1.83,1.83,0,0,0-1.59-.91c-.64-.08-1.27-.16-1.93-.17a8.52,8.52,0,0,0-1.72.25c-.84.16-1.66.43-2.49.63-1.17.29-2.33.59-3.5.89-1.65.42-3.29.89-4.92,1.36s-3.4.93-5.08,1.45l-6.38,2-5.85,1.82c-1.23.38-2.44.84-3.65,1.26l-2.27.78c-.75,0-1.49,0-2.24,0l-7.37.25c-1.49.05-3,.13-4.47.14l-7.27.09-2,0c-.22,0-.45,0-.68,0l-2-.12-4.64-.28-2.21-.31c-.83-.11-1.68-.18-2.5-.35l-3.17-.67c-.8-.17-1.6-.39-2.39-.61s-1.7-.47-2.54-.71-1.41-.45-2.13-.66a12.22,12.22,0,0,0-3.32-.5,17.58,17.58,0,0,0-3.55.46,26.2,26.2,0,0,0-3.51,1c-2.07.72-4.1,1.55-6.1,2.43a12.66,12.66,0,0,0-2.66-1.46,39.28,39.28,0,0,0-6.85-1.82A70.43,70.43,0,0,0,381.2,149q4.34-2.78,8.81-5.35a200.57,200.57,0,0,1,21.29-10.43,291.84,291.84,0,0,1,32.12-11.16,241.38,241.38,0,0,1,33.6-7.19l-.15,0,.36,0,.14,0h-.1c3.5-.46,7-.83,10.54-1Zm-140.36,11c1.75-.07,3.51-.11,5.26-.08a47,47,0,0,1,5,.4c1,.14,1.93.32,2.88.54a19.74,19.74,0,0,1,3,1,16,16,0,0,1,2.62,1.45,10.79,10.79,0,0,1,1.32,1.31,14.68,14.68,0,0,1,1.35,2.25,11.85,11.85,0,0,1,.65,2.28,15.72,15.72,0,0,1,0,3.1c-.08.5-.18,1-.3,1.5a12.72,12.72,0,0,1-.69,2,38.67,38.67,0,0,1-2.64,4.68c-.74,1.14-1.49,2.27-2.29,3.37-5.55.24-11.09.76-16.59,1.45-2.73.34-5.45.7-8.17,1.11l-8,1.21c-3.2.49-6.39,1-9.58,1.54-3.85.66-7.71,1.27-11.54,2l-7,1.31c-1.69.32-3.4.6-5.08.95l-2.55.53a42.33,42.33,0,0,1,.34-4.81c.17-1.21.4-2.41.69-3.6a29.54,29.54,0,0,1,1.32-4c.37-.85.78-1.68,1.23-2.5a21.81,21.81,0,0,1,1.51-2.28,33.82,33.82,0,0,1,5.63-5.62,39.27,39.27,0,0,1,3.61-2.37,34.72,34.72,0,0,1,3.84-1.88A98.43,98.43,0,0,1,337,125.85l-.47.06c3.64-.49,7.29-.9,11-1.05Zm21.36,6.65,0,.09,0-.09Zm-62.74,4.29-.18.14.18-.14Zm219.26,8.92q0,.09,0,.17h0l0-.16Zm-.26.07.19-.05,0,.05.06.16s0,.07,0,.1a9,9,0,0,1-.38,1.24,32.2,32.2,0,0,1-1.77,3c-.76,1.18-1.54,2.33-2.39,3.45-1.08,1.36-2.19,2.7-3.32,4-2.48-.41-5-.79-7.47-1.15l-2.56-.35q1-.87,2.1-1.7c1-.77,2-1.51,3.1-2.21,1.3-.86,2.66-1.64,4-2.4s2.63-1.43,4-2.1c1.19-.59,2.36-1.22,3.57-1.77a8.07,8.07,0,0,1,.86-.28Zm.28.11h0Zm36.06.13.72.09c1.19.14,2.38.23,3.57.35-.62.25-1.25.48-1.88.71l-.63.24q-.87-.71-1.77-1.38Zm-36.06.05a2.13,2.13,0,0,1-.05.38l.05-.38Zm-48.87,7.57c3.14-1,6.29-2,9.45-2.91,1.32-.4,2.64-.8,4-1.17l3.29-.94.74-.22-1.05.64c-1,.61-2.06,1.25-3.1,1.87-2,1.2-4.1,2.3-6.17,3.42l-3.89-.15-4.37-.17,1.14-.36ZM534,159.89c1.55-.53,3.14-1,4.71-1.47l9.73-3c3.38-1.05,6.75-2.1,10.11-3.22q1.19-.4,2.36-.83,1.71,1.41,3.31,3a43.32,43.32,0,0,1,4,4.46,26.78,26.78,0,0,1,2.76,4.46l-.52.24c-.46.21-.93.41-1.37.65l-10.16,5.27-1.13-.56a126.38,126.38,0,0,0-24.29-8.75l.52-.18ZM370.3,152c-1.7,1.24-3.36,2.53-5,3.9s-3.48,3-5.07,4.61a16.37,16.37,0,0,0-3.68,5.55c-.61,1.6-1.07,3.72.3,5.09a4.88,4.88,0,0,0,1.17.79,6.21,6.21,0,0,0,1.36.48A7.73,7.73,0,0,0,363,172c2.8-.65,5.56-1.53,8.32-2.34,1.84-.54,3.62-1.25,5.42-1.89.59-.21,1.19-.39,1.77-.63l3-1.27c1.67-.7,3.34-1.38,5-2.12l5.58-2.51,2.62-1.18-1.6,1.68-2.67,2.85c-1,1.07-2,2.14-3.05,3.16l-5.68,5.5c-.83.8-1.64,1.63-2.52,2.38l-5.73,5a53.43,53.43,0,0,0-4.78-2.43c-2.3-1-4.68-1.93-7.06-2.77-2.69-.94-5.4-1.8-8.15-2.53-2.24-.6-4.51-1.12-6.79-1.59l.47-.55c1-1.12,2-2.21,3-3.32,3.27-3.64,6.54-7.28,9.77-11,1.27-1.44,2.53-2.88,3.74-4.36Q367,152,370.3,152Zm6.08.16c2.83.14,5.64.39,8.45.76,1.83.27,3.63.62,5.43,1a31,31,0,0,1,4.55,1.3c-2.59,1.2-5.17,2.45-7.75,3.67-1.52.72-3,1.45-4.57,2.13l-5.24,2.3-3.14,1.18-2.35.88c-.3.11-.61.25-.92.34-3.45,1.1-6.88,2.31-10.41,3.13l.48-.06a2.91,2.91,0,0,1-.75.06,4.52,4.52,0,0,1-.52-.15l-.09,0v-.07a9.73,9.73,0,0,1,.43-1.49,15,15,0,0,1,1.55-2.65,33.24,33.24,0,0,1,3.73-3.76c1.67-1.48,3.37-2.93,5.12-4.31,1.95-1.48,4-2.88,6-4.24Zm-23.8.75c2.73-.29,5.47-.5,8.21-.65-.91,1.08-1.83,2.15-2.75,3.22-.71.83-1.41,1.66-2.13,2.48l-4.69,5.29c-2.24,2.53-4.5,5-6.7,7.61h0c-2.07-.4-4.15-.76-6.22-1.12-5.27-.9-10.6-1.42-15.92-1.93-1.73-.16-3.45-.27-5.18-.39l-8-.55-8.93-.6-4.53-.3q-.13-.76-.25-1.53-.13-1-.21-2c1.31-.29,2.62-.6,3.93-.85l7.2-1.39q5.07-1,10.17-1.87c3.58-.63,7.15-1.31,10.75-1.87l14.5-2.24c3.58-.47,7.17-.93,10.77-1.31Zm157.26.41-.11.08.11-.08Zm-97,.89c1.48.32,2.9.82,4.35,1.23,1,.27,1.93.5,2.9.75.77.2,1.55.34,2.34.49,1,.19,1.92.39,2.9.51l3.55.44c.65.08,1.29.17,1.95.2l6.73.32c.5,0,1,0,1.5,0l4.18-.1c1.43,0,2.85-.05,4.27-.11l-.39.16L439.78,161l-7,2.8c-.92.37-1.85.71-2.74,1.13L417.11,171l-4.66,2.2c-.82.39-1.62.86-2.42,1.28L396,182l-4.44,2.36c-.7.38-1.37.8-2.05,1.21l-5.55,3.29q-1.17-1.22-2.43-2.35a49.59,49.59,0,0,0-4.28-3.42l5-4.41c.86-.76,1.67-1.59,2.49-2.4l5.62-5.56c1-1,2-2.12,3-3.21l2.48-2.75c1.11-1.23,2.26-2.43,3.28-3.74a20.73,20.73,0,0,0,1.76-2.52,3.27,3.27,0,0,0,.4-1.26c1.46-.59,2.93-1.14,4.42-1.66a29.92,29.92,0,0,1,5-1.3,12.57,12.57,0,0,1,2.18-.05Zm57.76,2.92,3.91-.09c.82,0,1.65,0,2.47.07l-10.84,6.34c-.95.55-1.86,1.18-2.79,1.77q-1.66,1.07-3.32,2.16-3.59,2.35-7.08,4.83t-7.11,5.27l-2.25.56c-2.77.71-5.49,1.59-8.18,2.54A82.48,82.48,0,0,0,421,187.11a51.58,51.58,0,0,0-12.13,9.35,41.66,41.66,0,0,0-4.49,5.92q-.25.4-.49.82l-.5,0c-1.25.08-2.48.26-3.72.44s-2.61.43-3.91.67l-1.94.34a53.06,53.06,0,0,0-2.9-6.3,42.8,42.8,0,0,0-4-6.06l5.76-3.42c2.34-1.39,4.79-2.61,7.2-3.89l13.5-7.18c2.53-1.35,5.16-2.52,7.75-3.75l11.39-5.4,11-4.41c2.84-1.14,5.66-2.35,8.55-3.36l10.26-3.58,8.25-.19Zm-3.5,9.29c.85-.53,1.72-1,2.59-1.52l5.21-3,7.55-4.34.46-.26,7.07.23c1.59.05,3.16.14,4.74.27l.85.07-3.23,4.84q-3.46,5.19-6.89,10.38l-.38.58h-.25a160.83,160.83,0,0,0-16.69.5,147.27,147.27,0,0,0-15.49,1.9c4.7-3.38,9.54-6.57,14.45-9.65Zm25,2.06L499,158.18l1.07.1c-1.39,1.6-2.7,3.27-4,5q-2.89,3.84-5.42,7.92-.68,1.08-1.33,2.18l-.72.31c1.14-1.73,2.3-3.44,3.45-5.16Zm10.75-8.9.89-.92q2.57.29,5.14.63l-.51-.07q3.12.42,6.22.91l-4.17,4.78-11.45,4.59-5.68,2.28c1.26-1.93,2.6-3.81,4-5.64l-.21.27c1.82-2.36,3.71-4.65,5.76-6.82Zm15,1.52.34-.39,2.62.47-.26.09-4.15,1.46,1.44-1.63Zm-5.31,6.19c.73-.29,1.48-.52,2.22-.78l6.95-2.38,5.12-1.76q1.75.38,3.49.79a132.15,132.15,0,0,1,20.47,6.57q2,.86,4,1.8l-.54.29-4.58,2.57-12.18,6.83-9.32,5.21c-3.92,2.19-7.82,4.39-11.77,6.53-2.9,1.57-5.8,3.14-8.74,4.64s-5.83,2.79-8.81,4.06a73.21,73.21,0,0,1-7.34,2.68,48.48,48.48,0,0,1-5,1.2,12.55,12.55,0,0,1,0-1.53q.09-.39.19-.76c1.61-.42,3.22-.85,4.82-1.29q3.83-1,7.6-2.27c2.62-.87,5.25-1.75,7.82-2.76,1.1-.43,2.17-.91,3.23-1.41s2.07-1.12,3.07-1.72a30.3,30.3,0,0,0,2.67-1.77,10.29,10.29,0,0,0,2.38-2.34,7.59,7.59,0,0,0,1.23-5.58,5.21,5.21,0,0,0-1.13-2.47,12,12,0,0,0-2.64-2.21,21.43,21.43,0,0,0-6.45-2.62c-1.44-.39-2.89-.72-4.34-1l5.2-6q1-1.19,2.07-2.38l.29-.12Zm-227.05-2.52,4-1c1-.26,2.09-.5,3.13-.73q.09.72.2,1.45t.22,1.32l-.55,0c-2.5-.17-5-.33-7.49-.63l-.6-.1,1.1-.26Zm293.46-1.43q-1.16.88-2.29,1.79l-.17-.64,2.46-1.16Zm-8.1,3.81c.44-.23.88-.44,1.33-.65.19.68.38,1.36.55,2-1.48,1.4-2.88,2.89-4.24,4.41q-.47.54-.93,1.09c-.78-.48-1.58-.95-2.38-1.4s-1.59-.89-2.39-1.32l8.05-4.17Zm-211,1.64.07,0-.07,0Zm-.22.25,0,.16q0-.08,0-.16Zm146.57.75-3.64,4.25-1,1.16-.36-.06q-3.2-.49-6.43-.82l11.43-4.54Zm-209.44.48,8.35.58,11.51.81,4.38.31c1.82.13,3.63.34,5.44.52q3.4.34,6.79.78h0c2.73.37,5.45.84,8.17,1.32l-5.78,6.77c-.45.52-.86,1.07-1.28,1.6q-1.09,1.38-2.16,2.77c-1.72,2.25-3.39,4.53-5,6.88l-.09.14-.8-.32q-2.59-1-5.21-2a1,1,0,0,0-.89-.6l-1.17-.11-1-.33c-2.54-.84-5.1-1.59-7.69-2.22q-1.19-.29-2.39-.53-.72-.47-1.41-1a26.67,26.67,0,0,1-2.18-1.92,23.57,23.57,0,0,1-1.89-2.17c-.85-1.13-1.64-2.29-2.38-3.5a31.17,31.17,0,0,1-1.88-3.73,40.81,40.81,0,0,1-1.45-4.09Zm276.73,1.28c.5,2.12.9,4.26,1.28,6.41q.14.77.27,1.54c-1.15-1-2.36-1.89-3.55-2.8q-.83-.63-1.69-1.22,1.75-2.05,3.69-3.93Zm-240,1.76.26,0-.26,0ZM494.22,207c2.69-.87,5.3-2,7.89-3.11,5.06-2.18,9.92-4.73,14.76-7.34,7.43-4,14.79-8.15,22.16-12.27l11.74-6.56,5-2.8c.92-.52,1.87-1,2.8-1.46h0l1.85,1c1.61.85,3.2,1.74,4.75,2.69q-.5.73-1,1.48a45.88,45.88,0,0,0-3.46,6.95,44,44,0,0,0-2.26,7.32,34.2,34.2,0,0,0-.71,7.93,33.47,33.47,0,0,0,1,7.21c.2.82.44,1.63.71,2.43l-1.36.61a95.67,95.67,0,0,1-12.42,4,120.1,120.1,0,0,1-13.63,2.64c-4.49.58-9,1-13.53,1.14a79.28,79.28,0,0,1-13-.58A46.77,46.77,0,0,1,495,215.52a22,22,0,0,1-4.19-2.38,19.41,19.41,0,0,1-2.66-2.58,12.4,12.4,0,0,1-1.07-1.74,53.13,53.13,0,0,0,7.11-1.8Zm-196-32.56.06.15-.06-.15Zm38.76,8.23,1.51-1.76,5.07-5.9c2.3.44,4.6.92,6.88,1.46,2.81.66,5.57,1.49,8.31,2.38,2.52.81,5,1.7,7.48,2.72,1.36.59,2.7,1.22,4,1.91l-1.93,1.67c-.66.57-1.34,1.11-2,1.65l-5.93,4.64-7.15,5.6-6.26,4.63-9-4.15-6-2.76c-1-.45-2-.88-3-1.29q2.35-3.46,4.91-6.77l0,0c1-1.36,2.09-2.75,3.21-4.05Zm148.58-4.21h.65l-1,1.53c-1.57,2.52-3.11,5.06-4.74,7.55,1.54-3.11,3.23-6.14,5-9.09Zm81.88.07q1.17.79,2.31,1.65a34.21,34.21,0,0,1,5.68,5.25q.36.5.68,1l1.29,8.72-.08.22c-.19.42-.38.84-.59,1.26a12.78,12.78,0,0,1-1.12,1.76,39.5,39.5,0,0,1-6.32,6.15,54,54,0,0,1-7.51,4.74l-.23-.72a29.76,29.76,0,0,1-.93-4.28,35.71,35.71,0,0,1,0-8.49,42.77,42.77,0,0,1,2.93-10.13,44.48,44.48,0,0,1,3.93-7.14Zm-85,10c1.26-1.86,2.46-3.76,3.67-5.66.92-1.44,1.85-2.88,2.78-4.31,3.11.14,6.21.38,9.31.71L495.27,183l-1.66,2.11c-1.24,1.57-2.38,3.23-3.5,4.88a70.25,70.25,0,0,0-4.15,6.88c-.61,1.16-1.13,2.38-1.66,3.57-.12.28-.25.57-.36.85l-2,.5-7.54,1.85,0-.06a3.4,3.4,0,0,1-.11-.36V203a17.64,17.64,0,0,1,.64-2.13q.47-1.42,1-2.82l.5-1.25q3.13-4,6-8.28ZM470.12,179c2.46-.18,4.92-.34,7.38-.44l-11.57,5.16c-.69.3-1.35.66-2,1L457.52,188l-12.84,6.46c-.66.33-1.3.7-1.95,1.07l-6.34,3.6-7.12,4L427,204.42c-.27.15-.54.29-.8.46l-11.34,7.39-2.26,1.47-.68.45a172.82,172.82,0,0,1,16.23-17.67c4.71-4.53,9.63-8.85,14.7-13l2.07-.57a124.78,124.78,0,0,1,14.56-2.91c3.52-.46,7.07-.78,10.62-1Zm31.52.67.11,0h-.11ZM499,183l2.31-2.94.29-.37.16,0c1.72.25,3.43.54,5.13.91a38.5,38.5,0,0,1,5.21,1.36,17.18,17.18,0,0,1,3,1.69,7.2,7.2,0,0,1,.62.63l.11.19a6.35,6.35,0,0,1,.2.77,10,10,0,0,1,0,1.19,7,7,0,0,1-.24.94,8.31,8.31,0,0,1-.51.83,13.75,13.75,0,0,1-1.68,1.61c-1.08.81-2.21,1.54-3.36,2.25a32.35,32.35,0,0,1-4.23,2.12,140.19,140.19,0,0,1-15.29,5.2l-3,.84c.36-.82.73-1.62,1.14-2.42.61-1.19,1.29-2.34,2-3.48,1.49-2.51,3.18-4.88,4.89-7.23L499,183Zm-86.92,35.18c.55-.41,1.1-.84,1.67-1.22l1.67-1.11,6.63-4.41,5.4-3.6c.74-.49,1.52-.91,2.29-1.36l13.53-7.8c.82-.48,1.63-1,2.48-1.43l4.26-2.16,13.18-6.69,3.7-1.87c.57-.29,1.16-.54,1.75-.8l12.38-5.53q-1.2,2.09-2.33,4.23-1.52,2.91-2.87,5.9c-.86,1.92-1.62,3.88-2.44,5.81l.15-.37c-.41,1-.81,1.9-1.19,2.86q-2.9,3.59-6,7c-7.1,1.74-14.23,3.37-21.35,5-6.6,1.54-13.21,3-19.8,4.6l-13.42,3.17.33-.24Zm-56.95-17c.77-.58,1.53-1.19,2.29-1.79l6-4.76,5.89-4.68c.69-.55,1.36-1.09,2-1.66l2.76-2.43c.88.59,1.73,1.2,2.57,1.83a49.52,49.52,0,0,1,3.77,3.28L376,193.6c-2.21,1.32-4.44,2.61-6.62,4L356.16,206l-4.6-2.12,3.61-2.7ZM435.47,186A225.39,225.39,0,0,0,416,204.89q-.91,1-1.81,2,0-.12,0-.25a4.6,4.6,0,0,0-.41-1.3,4.74,4.74,0,0,0-.74-1,3.4,3.4,0,0,0-1.11-.68,6.22,6.22,0,0,0-1.32-.42,8,8,0,0,0-.86-.14l.47-.63q1.43-1.78,3-3.42a35.13,35.13,0,0,1,3.34-3,70.17,70.17,0,0,1,14.84-8.52q2-.84,4.13-1.6Zm-138.39,3.58a44.59,44.59,0,0,1,5.84.43c2.11.3,4.2.67,6.28,1.14,2.39.54,4.73,1.24,7.07,2,2.9.91,5.75,1.95,8.57,3.06-.64,1-1.27,2.06-1.86,3.11a54,54,0,0,0-3.35,7.28,29.83,29.83,0,0,0-1.76,7,28.62,28.62,0,0,0,0,7.69q.05.34.11.69c-3.11,1.92-6.29,3.74-9.47,5.54a131.66,131.66,0,0,1-12.59,6.33c-3,1.22-6,2.31-9,3.29a59.82,59.82,0,0,1-9.59,2.27,43.42,43.42,0,0,1-10.22.05,26.81,26.81,0,0,1-5.68-1.5,22.85,22.85,0,0,1-4-2.3,16.35,16.35,0,0,1-1.92-1.86,14.52,14.52,0,0,1-1.29-2.24,14.79,14.79,0,0,1-.71-2.48,14.47,14.47,0,0,1,.08-2.49,30.28,30.28,0,0,1,.72-3.31,29.51,29.51,0,0,1,1.15-3.17,65,65,0,0,1,3-6,52.58,52.58,0,0,1,4.08-6.08,62.08,62.08,0,0,1,4.21-4.79,57,57,0,0,1,5.59-5,49.67,49.67,0,0,1,9.8-5.76,43.67,43.67,0,0,1,4.48-1.57,33.64,33.64,0,0,1,4.61-.95,52.49,52.49,0,0,1,5.87-.36Zm-5.35.29-.33,0,.33,0ZM372.42,201c2.45-1.55,5-3,7.47-4.46l3.72-2.21.73.9a49.93,49.93,0,0,1,5.79,9.93l.11.27-3.13.64c-3.61.75-7.23,1.43-10.82,2.25l-10.08,2.29-1-.49L361,208.2,372.42,201Zm-48.11-.18c.71-1.34,1.5-2.65,2.32-3.93l3.13,1.29q6.77,3.09,13.51,6.22l-7.52,5.55c-1.2.88-2.41,1.73-3.63,2.59-3.86,2.68-7.74,5.34-11.7,7.87l-.69.44a30.19,30.19,0,0,1,.05-7.2,33.05,33.05,0,0,1,.86-4.12,38.46,38.46,0,0,1,1.53-4.26l-.09.23c.68-1.59,1.4-3.15,2.21-4.68Zm5.62-2.57.29.12-.29-.12ZM567.2,210.75a51.61,51.61,0,0,0,5.93-4.3,36.35,36.35,0,0,0,5-5.06q.73,6.25,1.45,12.51c.47,4.07.79,8.17,1.05,12.26.23,3.59.3,7.18.26,10.78q0,1.17-.05,2.35c-2.12-2.58-4.28-5.13-6.33-7.77-2.16-2.83-4.24-5.73-6.19-8.71a66.14,66.14,0,0,1-5.2-9.78q2.08-1.06,4.07-2.28Zm-96.13-7.39a4.75,4.75,0,0,0,.19,1.06l-1.44.35,1.25-1.41Zm11.56.9.57-.14c0,.06,0,.12,0,.18a15.25,15.25,0,0,0,0,1.7,21.76,21.76,0,0,1-4,0,16.65,16.65,0,0,1-1.92-.41l5.4-1.31Zm86.52.38,0,0,0,0Zm-159.35,1.87a4.73,4.73,0,0,1,.73.19l.19.1,0,0,.11.19a3.45,3.45,0,0,1,.12.43,2.05,2.05,0,0,1-.07.61l.06-.43-.12.33c-.28.57-.58,1.12-.83,1.71s-.45,1-.68,1.53c-.34.76-.66,1.53-1,2.29l-.75,1.59q-.75,1-1.49,2.06l-.9,1.3a25.79,25.79,0,0,1,.08-5,24.43,24.43,0,0,1,1.4-5.18q.42-.92.91-1.81a16.81,16.81,0,0,1,2.25,0Zm-77,11.15c1.82-1.27,3.64-2.55,5.43-3.88l5.76-4.3,3.95-2.95,2.49,1.16,1.72.8-1.47.93-11.54,7.3-4.06,2.57c-.35.13-.69.28-1,.42-1.93.77-3.86,1.55-5.8,2.3-1.65.64-3.26,1.4-4.88,2.1,3.19-2.08,6.33-4.24,9.45-6.43Zm77.35-11.11.31.13-.31-.13Zm.52.08.09.2h0l-.08-.2Zm61.92.06a5.3,5.3,0,0,0,.64.57,11.77,11.77,0,0,0,5.71,2,21.82,21.82,0,0,0,4.74,0,13.14,13.14,0,0,0,.53,1.31,12.27,12.27,0,0,0,1.8,2.7,17.37,17.37,0,0,0,3,2.79,24,24,0,0,0,6.05,3.26,44.6,44.6,0,0,0,7.82,2.2,66.3,66.3,0,0,0,7.65.92,81.66,81.66,0,0,0,8.69.16A141.38,141.38,0,0,0,536.09,221a113.7,113.7,0,0,0,16.46-3.81,71.84,71.84,0,0,0,7.43-2.71l.92-.41q.34.77.69,1.53a70.16,70.16,0,0,0,3.59,6.83c1.41,2.35,3,4.59,4.61,6.8,1.07,1.49,2.15,3,3.28,4.42,1.37,1.75,2.78,3.46,4.19,5.17,1.15,1.39,2.29,2.79,3.43,4.19-.11,1.58-.25,3.15-.45,4.72A52.35,52.35,0,0,1,577.27,260a30.16,30.16,0,0,1-2.94,5.32,15.93,15.93,0,0,1-2.25,2.29,17.44,17.44,0,0,1-2.6,1.53,12.7,12.7,0,0,1-2.33.65,20.06,20.06,0,0,1-3.92-.09,29.43,29.43,0,0,1-6.19-2,62.8,62.8,0,0,1-5.67-2.89q-3.19-1.8-6.28-3.76t-5.84-3.87c-3.88-2.66-7.79-5.27-11.52-8.13-1.41-1.12-2.75-2.3-4.09-3.5a36.23,36.23,0,0,1-3.68-3.81c-.51-.69-1-1.41-1.44-2.14l.37-.09c4.84-1.11,9.69-2.14,14.5-3.35l5.12-1.29c1.23-.31,2.44-.7,3.65-1s2.48-.76,3.72-1.18c.85-.29,1.68-.58,2.51-.92s1.42-.62,2.13-.95a5.55,5.55,0,0,0,1-.57,6.44,6.44,0,0,0,1.21-1.12,2,2,0,0,0,.3-2.35,7.87,7.87,0,0,0-.85-1.25,5.51,5.51,0,0,0-1.14-.9,7.44,7.44,0,0,0-1.39-.56,10.29,10.29,0,0,0-1.54-.34c-1.18-.21-2.36-.39-3.55-.51a45.76,45.76,0,0,0-4.74-.16,67.84,67.84,0,0,0-7.81.56,72.61,72.61,0,0,0-7.82,1.35,29.41,29.41,0,0,0-6.54,2.32,14.45,14.45,0,0,0-2.84,1.84,7.06,7.06,0,0,0-2.14,3.12,12.64,12.64,0,0,0-.61,3.25,7,7,0,0,0,.08,1.54c-2.81.65-5.63,1.3-8.43,2l-13.34,3.42c-1.36.35-2.71.71-4.06,1.08a83.54,83.54,0,0,0-10.47.75c-2.72.34-5.43.73-8.13,1.19-2.95.5-5.88,1.09-8.8,1.7-2.73.57-5.46,1.14-8.18,1.75l-12.43,2.83q-1.76-.88-3.49-1.8a100.81,100.81,0,0,1-9.18-5.53c2.22-2.12,4.52-4.15,6.77-6.21,1-.88,1.92-1.79,2.91-2.64l5.68-4.85c1.19-1,2.36-2.05,3.57-3l5.07-4.17,4.36-3.58c2-1.67,4-3.45,6-5.21,2.12-1.91,4.15-3.91,6.14-6l.61-.63,5.9-1.44Zm-70.44.08a25.06,25.06,0,0,0-.89,2.79,27.92,27.92,0,0,0-.6,3.59,24.25,24.25,0,0,0,.29,7.2q.05.31.12.61l-.49.12-3.25.79a66.19,66.19,0,0,0-1.17-9,50.27,50.27,0,0,0-1.23-4.89c2.23-.41,4.44-.85,6.68-1.16l.53-.06Zm8.61.07h0Zm0,.05h0l0,.08,0-.09Zm.12.19a2.12,2.12,0,0,1,0,.3l0-.3Zm-34.62,4.79c3-.69,6-1.29,9-1.92l6.11-1.27a60.68,60.68,0,0,1,2.3,10.07q.24,1.95.37,3.91l-8.68,2.13-3.58.88a4.24,4.24,0,0,0,.39-1.58,7.54,7.54,0,0,0-.49-3,7.87,7.87,0,0,0-1.63-2.47,13.87,13.87,0,0,0-2.45-1.95c-1.06-.73-2.17-1.41-3.27-2.07s-2-1.13-3-1.63l4.91-1.13Zm42.17,7.67c14.88-3.6,29.8-7.09,44.71-10.58l-.3.31c-1.85,1.88-3.78,3.68-5.73,5.45-1.52,1.37-3,2.74-4.61,4.05l-5.24,4.38c-1.36,1.13-2.73,2.24-4.07,3.39q-4.73,4.08-9.49,8.15c-1.21,1-2.35,2.14-3.53,3.22l-5.06,4.63c-.33.3-.65.61-1,.92q-1.51-1.06-3-2.18a60.91,60.91,0,0,1-10.19-10c-.77-1-1.5-2.08-2.17-3.17a36.67,36.67,0,0,1-2.25-4.38l-.13-.33.59-1.08q5.7-1.41,11.41-2.79Zm-65.75-6.07,4.32-2.73,2.78,1.29,0,0c-2.18.54-4.34,1.14-6.51,1.71l-1.81.47,1.18-.75Zm-12.18,7.88,6.44-2.19c.29-.1.59-.17.89-.25l3.16-.84,8-2.12c1-.27,2-.56,3.07-.8l3-.69c1.91.89,3.82,1.79,5.69,2.77,1.06.56,2.07,1.19,3.07,1.84.84.54,1.69,1.07,2.5,1.66a10.24,10.24,0,0,1,1.32,1.29,4.41,4.41,0,0,1,.25.43,7.75,7.75,0,0,1,.27,1,4.31,4.31,0,0,1,0,.5v0l-.1.16a13.48,13.48,0,0,1-1.36,1.28,27.61,27.61,0,0,1-4.27,2.36l-.77.3-.51.12a2.45,2.45,0,0,0-1,.63A1.89,1.89,0,0,0,372,232c.61-.18,1.21-.36,1.81-.57s1-.43,1.56-.66l.24-.1.5-.14,2.71-.77c2.08-.59,4.17-1.15,6.25-1.72q4.58-1.26,9.18-2.45,0,1.65,0,3.31-1.27,1.31-2.49,2.67c-.85.95-1.69,1.9-2.56,2.83a23.31,23.31,0,0,0-2.42,3.18,4.25,4.25,0,0,0-.72,3,6.08,6.08,0,0,0,1.25,2.6,15.9,15.9,0,0,0,3.32,3.16l-2.31,4.1c-.68,1.2-1.33,2.42-2,3.65l-3.84-.4-11.92-1.91c-1.11-.18-2.2-.41-3.3-.64q-3.9-.79-7.75-1.76c-2.54-.64-5.06-1.41-7.56-2.2-2.69-.85-5.35-1.8-8-2.87l.24.1c-2.51-1.06-5-2.23-7.37-3.5a50.07,50.07,0,0,1-6.72-4.21,38.77,38.77,0,0,1-6.64-6.37c.47-.11.93-.23,1.4-.36a14.15,14.15,0,0,0,1.71-.69q.87-.38,1.72-.8c2.48-1.21,4.82-2.72,7.16-4.16q2.25-1.38,4.47-2.78l.62-.21Zm37.7,2.22a2.42,2.42,0,0,1,0,.24l0-.24Zm-54.52.38-.36.15h0l.36-.15Zm54.41.12a2.07,2.07,0,0,1-.14.34l.14-.34Zm20.76.31-1.43,1.3q0-.47,0-.94l1.44-.36Zm-69,1.12,0,0h0Zm215.67,1.66c.83.13,1.66.25,2.47.45l-.15.06a59,59,0,0,1-5.91,2c-1.75.51-3.51,1-5.28,1.49l-6.73,1.72c-1.68.43-3.39.79-5.09,1.18L517,235.89a10.62,10.62,0,0,1,0-1.2,9.21,9.21,0,0,1,.37-1.39l.17-.29a9.23,9.23,0,0,1,.81-.78q.75-.54,1.54-1a13.05,13.05,0,0,1,1.79-.91,38.16,38.16,0,0,1,5.35-1.69c2-.48,4-.83,6-1.11a52.08,52.08,0,0,1,12.52-.32Zm.24,0,.13,0-.13,0ZM404,228c4.09,7.42,10.71,13.24,17.66,18q-1.07,1.1-2.1,2.24c-.93,1-1.8,2.14-2.64,3.27l-.6-.13c-2.82-.62-5.62-1.36-8.41-2.16l-1.23-.36a23.74,23.74,0,0,1-2.32-2.5,18.22,18.22,0,0,1-1.86-3.15,20.65,20.65,0,0,1-1.09-4.13,20.92,20.92,0,0,1-.07-4.27,25,25,0,0,1,.88-3.7q.89-1.56,1.77-3.13Zm-4.59.88.36-.35q-.5,1.3-.92,2.63-.17.56-.31,1.12l-1.85,3.29q.36-2.22.55-4.46,1.07-1.13,2.18-2.23Zm175,2.52.09.12-.09-.12Zm-163.32,0,.14.19-.14-.19Zm-18.39,4.84.92-1.08q-.55,3.61-1.41,7.16a15.73,15.73,0,0,1-1.84-1.84,5,5,0,0,1-.32-.53h0l0-.06a17.67,17.67,0,0,1,1.28-2.05c.44-.54.9-1.06,1.35-1.58Zm5.28,2.18a19,19,0,0,0,1.65,6.78q.35.75.77,1.47l-.35-.14a55.22,55.22,0,0,1-5.27-2.5V244l3.18-5.55Zm-8,1.05v0Zm.13.55.12.29a2.77,2.77,0,0,1-.12-.29Zm111.85,3.46c1.39-.35,2.79-.73,4.19-1.06l7.23-1.66c.23.49.5,1,.76,1.42a27.48,27.48,0,0,0,2.45,3.5,24.81,24.81,0,0,0,1.81,2l-.59.12c-1.05.2-2.1.45-3.15.65s-2.3.46-3.45.7l-5.33,1.09-.12,0q-.2-.27-.42-.54a14.28,14.28,0,0,0-2.47-2.36,13.45,13.45,0,0,0-2.94-1.61,26,26,0,0,0-3-1l5-1.27Zm-80.67-2.18.26.2-.26-.2ZM423,247a107.32,107.32,0,0,0,10.23,5.94l-3.78.85c-3.61-.53-7.21-1.13-10.78-1.85l.06-.08-.05.06.09-.11,0-.06,0,0A59.88,59.88,0,0,1,423,247ZM568.52,274.3a13.26,13.26,0,0,0,3.17-1.11,14.75,14.75,0,0,0,2.87-1.8,16.69,16.69,0,0,0,2.46-2.3,21.76,21.76,0,0,0,2.33-3.35,30.74,30.74,0,0,0,1.55-3.18c.48-1.11.91-2.23,1.3-3.37a51,51,0,0,0,1.79-7.94q.28-1.74.49-3.5l2.9,3.57,3.18,4.36c.92,1.26,1.91,2.5,2.74,3.81,1.09,1.73,2.18,3.46,3.28,5.18.54.85,1,1.74,1.52,2.61l.66,1.13c.4.67.85,1.29,1.19,2l.08.32a4,4,0,0,1,0,.63,3.36,3.36,0,0,1-.13.51l-.15.24a2.93,2.93,0,0,1-.26.25,8.34,8.34,0,0,1-1,.53,27.93,27.93,0,0,1-5.21,1.3c-2.53.32-5.08.41-7.63.57-2.73.18-5.47.27-8.2.33s-5.48.07-8.21.08c-1.47,0-2.94,0-4.41,0l-13.24-.12L539.5,275c-2.07,0-4.16-.16-6.23-.25q-4.46-.19-8.92-.48c-5.7-.37-11.37-1-17-1.72l.33,0q-4.76-.65-9.48-1.47c1-.91,1.93-1.84,2.88-2.77a26,26,0,0,0,4.59-5.68,18.78,18.78,0,0,0,1.27-3,15.58,15.58,0,0,0,.67-3.3,7.1,7.1,0,0,0-.11-2.33l.27-.06c.94-.21,1.87-.43,2.81-.65,1.5-.21,3-.44,4.49-.7,1.27-.23,2.52-.51,3.77-.82,1-.25,1.95-.6,2.91-.94l.07.06c2.05,1.82,4.29,3.44,6.51,5.05,1.84,1.34,3.74,2.6,5.62,3.88s3.46,2.38,5.22,3.51a113.37,113.37,0,0,0,14.41,8.25c1.18.54,2.39,1,3.61,1.46a27.63,27.63,0,0,0,3.7,1.13,21.44,21.44,0,0,0,3.6.43l.78,0a20,20,0,0,0,3.3-.32Zm-175-26.11c1.84,1,3.79,1.79,5.72,2.6a70.18,70.18,0,0,0,7.28,2.53,24.72,24.72,0,0,0,3.2,2q.57.29,1.16.56h-.08c-1.45-.06-2.88-.13-4.33-.21-2.41-.13-4.84-.25-7.26-.41s-5.14-.31-7.7-.57l-.41,0q1.32-3.16,2.42-6.41Zm91.67.63a52.07,52.07,0,0,1,7.55.2,28,28,0,0,1,6,1.51,12.53,12.53,0,0,1,1.56.89l-3.58.73-2.57.29c-2.73.3-5.46.6-8.2.84-7.66.67-15.3,1.35-23,2l-8.66.72-.77,0q2-.43,4-.9c4.88-1.14,9.73-2.45,14.56-3.75L480,249.2c1.73-.18,3.47-.32,5.21-.38Zm-102.64,4.9.09,0-.09,0Zm108.84,3.69q4.47-.84,8.9-1.82l2.83-.63,0,.17a9.9,9.9,0,0,1,0,1.86,17.56,17.56,0,0,1-.81,2.9,16.48,16.48,0,0,1-1.73,2.93c-1.35,1.67-2.87,3.18-4.37,4.72-.92.94-1.89,1.82-2.88,2.67q-7.55-1.47-15-3.44-10.12-2.69-20-6.31h1.86a167.87,167.87,0,0,0,31.16-3Zm-102.91,3q.94-1.94,1.81-3.91l2.33.23c1.09.11,2.2.13,3.29.2l3.95.24c3.84.22,7.68.24,11.52.42-.78.17-1.55.34-2.34.46l-7.09,1.12L390.38,261l-1.52.11-.73.05.35-.73Zm188.74-.29-.09.22.09-.22Zm-76.34,2.32-.12.16.12-.16Zm99.18,8.7q0,.09,0,.17l0-.17Zm-.23.88,0,.07,0-.07Zm-.36.34-.22.17.22-.17Zm-141,41.12.16.38a4.06,4.06,0,0,1-.16-.38ZM418.8,251.78l0,.05.05-.07v0Zm58.42-136.94-.21,0,.25,0Z" transform="translate(-160.89 -91.36)"/><path class="cls-1" d="M481,510l-5.2.14c-3.14.09-6.29.23-9.43.38s-6.21.3-9.33.38-6.48.1-9.72.11-6.69,0-10,.08c-3.11,0-6.21.14-9.32.24-1.59.05-3.18.11-4.78.15s-3.45.06-5.18.07-3.4,0-5.09,0l-4.67,0q-4.83,0-9.67,0c-6.46.08-12.92.3-19.37.62q-4.68.23-9.32.8c-1.54.18-3.08.38-4.62.55s-3.21.3-4.83.41c-3.19.22-6.39.23-9.59.18s-6.47-.15-9.71-.25-6.19-.08-9.29-.09q-5,0-10-.07c-2.74,0-5.48-.11-8.22-.21-2.54-.09-5.07-.29-7.61-.34-5.63-.14-11.25.32-16.87.73a.85.85,0,1,0,0,1.7c3.55-.26,7.09-.53,10.65-.66,1.5-.05,3-.1,4.51-.09s3.11.07,4.67.15c3.13.16,6.25.3,9.39.37s6.45.11,9.67.12,6.55,0,9.82,0,6.36.16,9.54.24,6.33.16,9.49.05,6.36-.32,9.53-.7c1.57-.19,3.14-.41,4.72-.58s3.11-.31,4.68-.41c3.14-.2,6.3-.3,9.45-.42s6.38-.23,9.56-.28,6.46-.11,9.7-.08c6.53,0,13.07.21,19.6,0,3.32-.1,6.64-.23,10-.3s6.57-.11,9.85-.12,6.29,0,9.43-.05,6.33-.12,9.49-.28c6.48-.32,13-.6,19.46-.71,1.68,0,3.37,0,5.05,0s3.21.14,4.82.23,3.21.16,4.82.23,2.93.1,4.39.16c3.23.12,6.46.27,9.68.38l9.87.35c6.27.21,12.55.27,18.83.29,3.17,0,6.34,0,9.52-.17s6.6-.27,9.89-.38c2.61-.08,5.22-.16,7.83-.18s5.28,0,7.91.11,5.18.13,7.77.17c1.36,0,2.73,0,4.1.12s2.91.22,4.37.33a.85.85,0,1,0,0-1.7c-1.7-.13-3.39-.27-5.09-.38s-3.22-.14-4.84-.18c-3.1-.08-6.2-.2-9.29-.29s-6.18,0-9.28,0q-4.92.13-9.82.36c-3.09.14-6.18.3-9.27.32s-6.38,0-9.57,0-6.46-.09-9.7-.16-6.24-.21-9.36-.32q-5.07-.18-10.14-.4c-3.2-.14-6.39-.23-9.59-.36-1.62-.07-3.24-.17-4.86-.25s-3.18-.14-4.77-.18l-1.42,0c-1,0-2.09,0-3.13,0Z" transform="translate(-160.89 -91.36)"/><path class="cls-1" d="M434.94,541.75c-6.52.15-13,.17-19.56.27q-4.45.07-8.9.25c-3.3.13-6.59.23-9.89.28s-6.62.07-9.93.1-6.41.09-9.61.17c-6.42.14-12.84.23-19.26.52-3.12.14-6.25.42-9.38.53s-6.25.08-9.37.07-6.4,0-9.59-.07l-5.16-.09c-1.54,0-3.09-.07-4.63-.16-2.4-.14-4.79-.33-7.19-.53-1.29-.11-2.57-.19-3.87-.23-1.14,0-2.29,0-3.43,0s-2.48.09-3.71.15-2.39.2-3.58.34-2.54.36-3.8.57c-1.46.25-2.91.59-4.35.93a.85.85,0,0,0-.59,1,.86.86,0,0,0,1,.59c1.35-.32,2.7-.64,4.07-.88.59-.11,1.19-.23,1.79-.31l1.85-.25h0c.71-.08,1.43-.18,2.15-.23q1.34-.11,2.68-.17c1.46-.07,2.93-.12,4.39-.12s3.2.06,4.79.2,3.15.28,4.73.39,3.32.21,5,.27,3.26.09,4.89.13c3.2.06,6.4.08,9.6.1s6.3,0,9.45,0c1.5,0,3,0,4.51-.13l4.88-.3c3.17-.18,6.33-.33,9.5-.41l9.84-.21c3.22-.07,6.44-.15,9.66-.19s6.59-.07,9.89-.1,6.52-.1,9.79-.2c3-.09,5.94-.19,8.91-.23q4.93-.07,9.87-.09c3.14,0,6.27,0,9.41-.05s6.41-.12,9.61-.16c1.55,0,3.1,0,4.65,0,1.77,0,3.55.1,5.32.17,3.07.12,6.13.3,9.2.41s6.36.15,9.54.24,6.64.22,10,.36,6.37.22,9.55.3c6.3.15,12.62.18,18.93.29,3.14.05,6.28.09,9.41.34,3.34.27,6.67.61,10,.92,3,.29,6,.49,9.06.67q4.84.29,9.68.47,4.66.18,9.3.55c3.16.25,6.31.53,9.48.69,3.59.18,7.19.28,10.79.28,1.77,0,3.55,0,5.32,0,2.06,0,4.12-.12,6.18-.23a.87.87,0,0,0,.85-.85.86.86,0,0,0-.85-.85c-1.76.1-3.52.19-5.29.22-1.57,0-3.13,0-4.7,0q-4.69,0-9.38-.14c-3.1-.11-6.2-.31-9.29-.57s-6.23-.47-9.35-.68c-6.32-.42-12.66-.81-19-1.36-3.29-.29-6.58-.62-9.87-.92-1.57-.14-3.13-.27-4.7-.36s-3.18-.14-4.77-.17c-6.3-.13-12.59-.15-18.89-.25q-5-.08-9.92-.24c-3.23-.1-6.45-.26-9.68-.37s-6.24-.13-9.36-.21-6.24-.22-9.36-.36c-3.3-.14-6.61-.28-9.92-.28-3.12,0-6.23.09-9.35.16Z" transform="translate(-160.89 -91.36)"/><path class="cls-1" d="M417.16,572H402c-6.51,0-13,0-19.52.22s-13.23.79-19.84,1.3c-3.23.25-6.46.46-9.68.75s-6.44.66-9.66.95-6.63.54-10,.77-6.38.45-9.58.56c-1.61.06-3.23.12-4.84.12l-5.1,0-10.36,0c-4,0-8.09.07-12.13.12a.85.85,0,1,0,0,1.7q10.64-.13,21.29-.15h2.29c2.41,0,4.82,0,7.23-.08q2.64-.09,5.28-.23c1.68-.09,3.35-.21,5-.33,3.16-.22,6.31-.43,9.46-.71l5-.47c1.6-.15,3.2-.34,4.79-.48l5.09-.44c1.67-.13,3.35-.25,5-.37,3.29-.25,6.57-.52,9.86-.77s6.51-.43,9.77-.57c1.58-.07,3.17-.11,4.76-.13s3.19-.06,4.79-.07c6.63-.05,13.25-.06,19.88-.06,3.29,0,6.57,0,9.85,0s6.37.21,9.55.33c1.79.07,3.58.13,5.37.16,2,0,4,.05,6,.11a.85.85,0,0,0,0-1.7c-1.75,0-3.49-.05-5.24-.09l-5-.13c-3.29-.11-6.57-.28-9.86-.36-.82,0-1.64,0-2.46,0Z" transform="translate(-160.89 -91.36)"/><path class="cls-1" d="M440,601.34c-1.85.14-3.7.3-5.54.41-1.59.1-3.18.14-4.77.16q-4.89,0-9.77.14c-3.37.07-6.74.19-10.11.3l-4.88.13c-1.64,0-3.28,0-4.92,0-6.49,0-13-.35-19.46-.54-3.32-.1-6.64-.18-10-.2s-6.7.08-10.05.2c-3.1.1-6.2.34-9.3.54-3.32.22-6.63.46-10,.62s-6.88.32-10.32.48c-3.27.15-6.54.43-9.8.7-3,.25-6,.57-9.06.9l-10.71,1.18-11.86,1.27a.93.93,0,0,0-.6.25.85.85,0,0,0,0,1.2.83.83,0,0,0,.6.25q11.14-1.18,22.27-2.42c3-.33,6-.65,8.94-.9,3.28-.28,6.56-.57,9.85-.72,3.48-.16,7-.31,10.45-.48,3.25-.16,6.49-.39,9.73-.6,1.47-.1,2.94-.2,4.41-.29q2.6-.16,5.19-.28c1.75-.08,3.5-.11,5.25-.15,1.47,0,2.94-.06,4.41-.05,6.63,0,13.24.3,19.86.52q5,.16,10,.23c3.2,0,6.38,0,9.57-.13s6.57-.23,9.87-.3,6.64-.12,10-.15c1.63,0,3.25,0,4.88-.14,1.95-.12,3.88-.29,5.82-.43a.88.88,0,0,0,.6-.25.85.85,0,0,0-.56-1.45Z" transform="translate(-160.89 -91.36)"/><path class="cls-1" d="M340.2,632.12c-1.49,0-3,.13-4.47.22s-3.13.2-4.69.34c-3.24.3-6.48.63-9.72.88s-6.39.33-9.6.48c-1.56.07-3.13.16-4.7.27s-3.06.22-4.59.39c-2.06.23-4.11.5-6.16.82s-4.2.69-6.3,1a.84.84,0,0,0-.51.39.88.88,0,0,0-.09.66.86.86,0,0,0,.39.51.91.91,0,0,0,.66.09c2.65-.44,5.29-.88,7.94-1.29l2.38-.32c.8-.11,1.6-.18,2.4-.27s1.63-.14,2.44-.21,1.59-.11,2.39-.16c3.17-.21,6.35-.32,9.52-.45s6.18-.43,9.27-.72c1.5-.14,3-.29,4.51-.41l2.74-.21c.86-.07,1.73-.11,2.6-.16,1.45-.09,2.89-.14,4.34-.2,1.62-.05,3.24-.12,4.86-.13h2.88c.75,0,1.5,0,2.25,0,1.58,0,3.15.09,4.73.14,3.29.1,6.58.28,9.87.45q4.52.23,9,.56c3.32.25,6.63.49,10,.69,1.58.09,3.16.14,4.74.2s2.95.09,4.43.11q5.05.08,10.1.08c3,0,6-.05,9-.05s6.29,0,9.43,0q2.52,0,5,0c1.55,0,3.09-.09,4.64-.15l4.77-.2a.85.85,0,1,0,0-1.7c-3.27.13-6.54.32-9.82.36s-6.68,0-10,0c-2.89,0-5.79,0-8.68,0-3.29,0-6.57,0-9.86,0s-6.7-.09-10.05-.21q-4.59-.16-9.18-.51c-3.34-.25-6.67-.49-10-.7s-6.41-.35-9.62-.49-6.35-.25-9.53-.3l-2.11,0c-2.54,0-5.09.08-7.63.16Zm-41.85,4.79-.16,0,.16,0Z" transform="translate(-160.89 -91.36)"/><path class="cls-1" d="M341,661.25c-3.18,0-6.36.11-9.53.2s-6.38.28-9.56.43-6.07.27-9.11.46q-5.16.31-10.3.68c-4.07.29-8.14.68-12.21,1.09a.9.9,0,0,0-.6.25.85.85,0,0,0,0,1.2.82.82,0,0,0,.6.25l5.82-.57c1.74-.17,3.49-.29,5.23-.44,1.59-.13,3.19-.23,4.79-.34l4.14-.27c3.37-.2,6.73-.39,10.11-.54s6.5-.31,9.76-.45,6.27-.18,9.41-.23c1.44,0,2.88,0,4.32,0,.86,0,1.73,0,2.59,0l2.77.09c.74,0,1.48.07,2.23.12l2.05.13c.79.06,1.57.1,2.35.18l2.75.27c1.65.16,3.3.37,4.95.56l4.68.54c1.63.19,3.25.36,4.88.53s3.11.27,4.67.38c3.18.22,6.37.29,9.55.38s6.29.23,9.43.5,6.4.49,9.61.59,6.52,0,9.77-.1,6.26-.12,9.39-.16c4,0,7.91,0,11.86-.22a.85.85,0,0,0,0-1.7c-3.4.2-6.81.2-10.22.21q-4.54,0-9.08.12l-4.86.11c-1.65,0-3.31.09-5,.07-3.2,0-6.39-.21-9.58-.47-1.53-.12-3.06-.27-4.59-.36s-3.34-.18-5-.25c-3.22-.12-6.45-.18-9.67-.35-6.27-.32-12.5-1.18-18.75-1.87l-2.36-.26c-.87-.08-1.73-.18-2.6-.25l-2.75-.21c-.74-.05-1.48-.09-2.22-.12l-2.07-.1c-.79,0-1.57-.07-2.36-.07l-3.88,0Z" transform="translate(-160.89 -91.36)"/><g id="_Group_" data-name="&lt;Group&gt;"><path class="cls-1" d="M457.44,669.49v-5c0-1.56-.05-3.12-.09-4.68-.09-3.38-.14-6.77-.2-10.15-.12-6.94-.12-13.89-.13-20.84q0-14.76-.15-29.53c0-4.92-.11-9.84-.22-14.77-.06-2.49-.12-5-.16-7.47,0-1.26,0-2.53-.07-3.8a14.39,14.39,0,0,0-.06-1.74c-.07-.57-.14-1.15-.22-1.72a2.08,2.08,0,0,1,.63-1.52,2.18,2.18,0,0,1,1.5-.62h0l14.81.08c9.77.06,19.53.11,29.29.24s19.66.39,29.5.45l14.64.09h4.54v2.55h-4.84l-14.64.09c-4.93,0-9.86.12-14.79.21s-9.8.18-14.7.24-9.76.12-14.64.15l-4.21,0c-7.69,0-15.37.08-23.06.14,0,.15,0,.3,0,.45,0,.87,0,1.75-.05,2.63,0,1.76-.06,3.53-.1,5.3-.07,3.51-.15,7-.21,10.53l-.06,3.61c-.08,5.75-.1,11.51-.13,17.26-.07,9.83,0,19.67-.1,29.5q-.06,7.27-.2,14.56c-.05,2.37-.15,4.74-.18,7.11v5.71h33.51l-1.11,1.7H458.29A.86.86,0,0,1,457.44,669.49Z" transform="translate(-160.89 -91.36)"/><path class="cls-1" d="M591,630a1.7,1.7,0,0,1-.82,1.45,1.58,1.58,0,0,1-1.16.19c0-.66,0-1.32,0-2,0-1.13,0-2.25,0-3.38.62.94,1.19,1.91,1.75,2.89A1.64,1.64,0,0,1,591,630Z" transform="translate(-160.89 -91.36)"/><path class="cls-1" d="M561.49,568.54l29.24-.06a1.45,1.45,0,0,1,1.25.09,1.52,1.52,0,0,1,.73,1.27c.18,3.33.18,6.66.23,10s.08,6.56.11,9.85c0,6.56.15,13.12.23,19.69.05,5.06.17,10.11.18,15.17,0,1.82,0,3.65,0,5.47H591a1.64,1.64,0,0,0-.22-.83c-.56-1-1.13-1.95-1.75-2.89.05-9,.21-17.93.32-26.89.06-4.95.09-9.9.15-14.85,0-2.49.05-5,.09-7.47,0-2,0-3.91.13-5.86l-13.6,0-14.93-.05-10.12,0v-2.55Z" transform="translate(-160.89 -91.36)"/><path class="cls-3" d="M514.35,644.71l.25-.18-.14.11a17.37,17.37,0,0,1,2.79-1.63,15.33,15.33,0,0,1,2.74-.79,3.51,3.51,0,0,1,2.07.23,14.22,14.22,0,0,1,2.08,1.26,23.39,23.39,0,0,1,3,3q1.37,1.7,2.69,3.4c.41.56.81,1.12,1.18,1.7s.71,1.19,1.07,1.77.76,1.21,1.18,1.79a2.79,2.79,0,0,0,2.09,1.42,3.54,3.54,0,0,0,2.47-1.28,17.71,17.71,0,0,0,1.78-2.17c.27-.35.52-.72.78-1.08.42-.57.83-1.14,1.23-1.72l2.75-3.9c1.31-1.87,2.58-3.77,3.9-5.63.73-1,1.45-2.09,2.21-3.1l2.28-3,1.93-2.43c.6-.75,1.25-1.47,1.87-2.2.32-.37.65-.72,1-1.07s.55-.6.84-.89.7-.71,1.07-1l1.18-1h0l0,0a26.9,26.9,0,0,1,3-2.08c.64-.37,1.28-.74,1.94-1.08s1.07-.51,1.61-.75l1-.37c.34-.12.69-.2,1-.3a11.58,11.58,0,0,1,1.83-.35,16.48,16.48,0,0,1,2-.11,20.16,20.16,0,0,1,2.19.16,19.88,19.88,0,0,1,2.5.63c.84.24,1.66.54,2.47.86.41.19.82.39,1.23.61a7.39,7.39,0,0,1,1.11.74,14.9,14.9,0,0,1,2,2c.55.74,1.07,1.51,1.59,2.27s1.17,1.62,1.76,2.43a1.78,1.78,0,0,0,1,.76l.13,0c0,2.47,0,5,.06,7.42,0,3.39,0,6.77,0,10.16,0,6.1.12,12.2.14,18.3-4.22,0-8.43.11-12.65.14q-7.46.08-14.9.18c-4.92.06-9.84.15-14.75.23s-10,.15-15,.23-10,.18-15,.23-9.94.08-14.91.1h-6.9c1.74-2.63,3.5-5.24,5.25-7.86.55-.82,1.12-1.61,1.71-2.41.94-1.26,1.86-2.53,2.81-3.79l2.47-3c.72-.87,1.49-1.69,2.25-2.53.3-.32.6-.63.91-.94s.84-.88,1.29-1.27l1.48-1.31C513.62,645.26,514,645,514.35,644.71Z" transform="translate(-160.89 -91.36)"/><path class="cls-3" d="M589,629.66c0,.66,0,1.32,0,2l-.13,0a1.78,1.78,0,0,1-1-.76c-.59-.81-1.2-1.61-1.76-2.43s-1-1.53-1.59-2.27a14.9,14.9,0,0,0-2-2,7.39,7.39,0,0,0-1.11-.74c-.41-.22-.82-.42-1.23-.61-.81-.32-1.63-.62-2.47-.86a19.88,19.88,0,0,0-2.5-.63,20.16,20.16,0,0,0-2.19-.16,16.48,16.48,0,0,0-2,.11,11.58,11.58,0,0,0-1.83.35c-.35.1-.7.18-1,.3l-1,.37c-.54.24-1.08.48-1.61.75s-1.3.71-1.94,1.08a26.9,26.9,0,0,0-3,2.08l0,0h0l-1.18,1c-.37.33-.71.7-1.07,1s-.57.58-.84.89-.66.7-1,1.07c-.62.73-1.27,1.45-1.87,2.2l-1.93,2.43-2.28,3c-.76,1-1.48,2.07-2.21,3.1-1.32,1.86-2.59,3.76-3.9,5.63l-2.75,3.9c-.4.58-.81,1.15-1.23,1.72-.26.36-.51.73-.78,1.08a17.71,17.71,0,0,1-1.78,2.17,3.54,3.54,0,0,1-2.47,1.28,2.79,2.79,0,0,1-2.09-1.42c-.42-.58-.8-1.18-1.18-1.79s-.7-1.19-1.07-1.77-.77-1.14-1.18-1.7q-1.32-1.71-2.69-3.4a23.39,23.39,0,0,0-3-3,14.22,14.22,0,0,0-2.08-1.26,3.51,3.51,0,0,0-2.07-.23,15.33,15.33,0,0,0-2.74.79,17.37,17.37,0,0,0-2.79,1.63l.14-.11-.25.18c-.36.28-.73.55-1.07.84l-1.48,1.31c-.45.39-.86.85-1.29,1.27s-.61.62-.91.94c-.76.84-1.53,1.66-2.25,2.53l-2.47,3c-1,1.26-1.87,2.53-2.81,3.79-.59.8-1.16,1.59-1.71,2.41-1.75,2.62-3.51,5.23-5.25,7.86h-2.46c.55-.84,1.11-1.69,1.67-2.52l2.95-4.4c.52-.78,1.05-1.56,1.57-2.35.18-.27.35-.54.54-.8l3.26-4.45c.83-1.14,1.73-2.23,2.62-3.32.36-.45.71-.91,1.09-1.35l1.82-2.08a40.15,40.15,0,0,1,3-3c.54-.5,1.11-1,1.68-1.45a15.59,15.59,0,0,1,4.06-2.45,12.67,12.67,0,0,1,2.05-.69,7.07,7.07,0,0,1,3.2-.1,8.06,8.06,0,0,1,2.22.94q.51.3,1,.63c.37.27.71.54,1.06.84a13.33,13.33,0,0,1,1.45,1.46c1,1.19,2,2.45,2.88,3.73a39,39,0,0,1,2.38,3.58c.71,1.24,1.33,2.53,2.12,3.73l.21.23h.06l.05,0h0a.77.77,0,0,0,.19-.08l-.19.08c.18-.1.35-.22.52-.33a14,14,0,0,0,1.69-1.85l.15-.19c1.31-1.73,2.58-3.49,3.83-5.26s2.48-3.52,3.71-5.29c.91-1.32,1.83-2.62,2.75-3.93s1.8-2.46,2.71-3.69c1.76-2.37,3.66-4.64,5.64-6.84.45-.51.95-1,1.43-1.45.27-.28.58-.53.88-.8s.39-.35.59-.52c.64-.5,1.27-1,2-1.46.3-.21.61-.45.93-.64l1.1-.66a24.68,24.68,0,0,1,4.09-1.94,17,17,0,0,1,4-.9,19.69,19.69,0,0,1,2.66-.17h.09a21.14,21.14,0,0,1,4.26.47A19.48,19.48,0,0,1,583,620.7a15.61,15.61,0,0,1,1.91,1.08,10.59,10.59,0,0,1,2,1.7c.45.51.86,1,1.26,1.59s.57.8.83,1.21C589,627.41,589,628.53,589,629.66Z" transform="translate(-160.89 -91.36)"/><path class="cls-1" d="M547.87,670.92c-5-.09-10-.14-15-.22s-10-.2-15-.24q-10.62-.11-21.25-.12H494c.38-.57.75-1.14,1.13-1.7H502q7.45,0,14.91-.1c5,0,10-.15,15-.23s10-.14,15-.23,9.83-.17,14.75-.23,9.93-.13,14.9-.18c4.22,0,8.43-.1,12.65-.14,0-6.1-.11-12.2-.14-18.3,0-3.39,0-6.77,0-10.16,0-2.47-.05-4.95-.06-7.42a1.58,1.58,0,0,0,1.16-.19A1.7,1.7,0,0,0,591,630h2.45c0,3,0,6,0,9,0,5.12,0,10.24-.07,15.36s-.11,10.05-.11,15.07a2,2,0,0,1-2,2c-4.6,0-9.19-.11-13.78-.15Q562.66,671.18,547.87,670.92Z" transform="translate(-160.89 -91.36)"/><path class="cls-1" d="M495.11,668.64c-.38.56-.75,1.13-1.13,1.7h-2.44l1.11-1.7Z" transform="translate(-160.89 -91.36)"/><path class="cls-3" d="M514.6,644.53l-.14.11-.11.07Z" transform="translate(-160.89 -91.36)"/><path class="cls-4" d="M483.25,571.84v.24l-.24,0a1,1,0,0,0-.64,1.14q.15.58.27,1.17a16.34,16.34,0,0,1,.14,2.1c0,.56,0,1.12-.09,1.67s-.2.9-.28,1.36-.2,1-.32,1.47a20.53,20.53,0,0,1-1,3,18.08,18.08,0,0,1-1.95,3.28,14.29,14.29,0,0,1-5.66,4.41,19.37,19.37,0,0,1-4.15,1.15l-.8,0q-.68.06-1.35.06c-.73,0-1.46,0-2.18-.11l-1.28-.13a7.4,7.4,0,0,0-.77-.1l-.58,0a2.07,2.07,0,0,0-1.5.21A2,2,0,0,0,460,594a1.88,1.88,0,0,0-.07.53h-.15l.06-3.61c.06-3.51.14-7,.21-10.53,0-1.77.08-3.54.1-5.3,0-.88,0-1.76.05-2.63,0-.15,0-.3,0-.45C467.88,571.92,475.56,571.89,483.25,571.84Z" transform="translate(-160.89 -91.36)"/><path class="cls-4" d="M465,592.82c.72.06,1.45.1,2.18.11q.67,0,1.35-.06l.8,0a19.37,19.37,0,0,0,4.15-1.15,14.29,14.29,0,0,0,5.66-4.41,18.08,18.08,0,0,0,1.95-3.28,20.53,20.53,0,0,0,1-3c.12-.49.23-1,.32-1.47s.19-.9.28-1.36.09-1.11.09-1.67a16.34,16.34,0,0,0-.14-2.1q-.12-.59-.27-1.17a1,1,0,0,1,.64-1.14l.24,0a.94.94,0,0,1,.9.68,28.12,28.12,0,0,1,.74,3.85c.08.58.09,1.16.14,1.74a10.16,10.16,0,0,1,0,1.56,16.69,16.69,0,0,1-.59,3.2,18.51,18.51,0,0,1-1.43,3.41,19.81,19.81,0,0,1-1.74,2.71l-.23.3a18.28,18.28,0,0,1-1.58,1.81c-.59.57-1.21,1.09-1.85,1.6a18.17,18.17,0,0,1-4.17,2.59,19.31,19.31,0,0,1-2.63,1,17.94,17.94,0,0,1-2,.48,20.42,20.42,0,0,1-2.45.28H465.3c-.43,0-.86-.08-1.28-.14s-.8-.11-1.19-.19a3.46,3.46,0,0,1-.65-.18l-.48-.2-.33-.12a2.15,2.15,0,0,1-1.2-.91,2,2,0,0,1-.27-1A1.88,1.88,0,0,1,460,594a2,2,0,0,1,.92-1.19,2.07,2.07,0,0,1,1.5-.21l.58,0a7.4,7.4,0,0,1,.77.1Z" transform="translate(-160.89 -91.36)"/></g><path class="cls-4" d="M466.06,606.26c-.07.22-.16.44-.24.66a2.72,2.72,0,0,0-.11.73,5.9,5.9,0,0,0,.18,1.45c.15.75.34,1.48.56,2.21s.53,1.73.81,2.59a1,1,0,0,0,1.87-.52q-.36-1-.7-2a22.58,22.58,0,0,1-1-3.4,3.11,3.11,0,0,1,0-.5v0a.84.84,0,0,0,.32-1.64,5.21,5.21,0,0,0-.92-.14h-.06a.87.87,0,0,0-.75.62Z" transform="translate(-160.89 -91.36)"/><path class="cls-4" d="M478.45,600.76a.77.77,0,0,0,0,1.07q3,3.08,6.05,6.13a.76.76,0,0,0,1.07-1.07q-3-3.06-6.05-6.13a.75.75,0,0,0-.53-.22.76.76,0,0,0-.54.22Z" transform="translate(-160.89 -91.36)"/><path class="cls-4" d="M489.11,591.68a.63.63,0,0,0,.23.86l3.64,1.88,1.29.66c.34.18.67.38,1,.57s.72.39,1.07.6l1.34.82c.8.49,1.59,1,2.38,1.5a.63.63,0,0,0,.85-.23.63.63,0,0,0-.22-.86q-1.15-.74-2.32-1.46l-1.37-.84c-.36-.22-.73-.41-1.09-.62s-.65-.38-1-.55l-1.22-.63L490,591.46a.7.7,0,0,0-.32-.08.61.61,0,0,0-.53.3Z" transform="translate(-160.89 -91.36)"/><path class="cls-4" d="M494.22,579.86a.63.63,0,0,0,.63.63c.82.06,1.64.11,2.46.18l1.61.15,2,.18c.28,0,.57,0,.85.08l5.67.74-.16,0,2.11.3a.7.7,0,0,0,.48-.07.62.62,0,0,0,.22-.85.59.59,0,0,0-.37-.29c-2.39-.36-4.8-.66-7.21-1-1-.12-1.91-.21-2.87-.3l-2.09-.2c-.89-.08-1.79-.14-2.68-.2h0a.63.63,0,0,0-.59.63Z" transform="translate(-160.89 -91.36)"/><path class="cls-5" d="M529.31,598.09a5.26,5.26,0,0,1-1.19,0h0a13.88,13.88,0,0,1-1.44-.39l-.94-.3c-.7-.21-1.39-.41-2.06-.67a11.56,11.56,0,0,0-1.89-.61c-.38-.09-.76-.17-1.14-.23l-.5-.09a7.32,7.32,0,0,1-1.39-.38l-.12,0a5.82,5.82,0,0,1-1-.54,0,0,0,0,1,0,0h0a6.77,6.77,0,0,0-1.17-.81,9.27,9.27,0,0,1-1-.56l-.07-.07a.41.41,0,0,1-.05-.09.22.22,0,0,1,0-.1.09.09,0,0,0,0,0s0,0,0,0v0a1.09,1.09,0,0,1,.05-.17c.12-.23.26-.43.4-.65a6.62,6.62,0,0,1,.45-.63,11,11,0,0,1,2-1.91,6.41,6.41,0,0,1,1.06-.65l.43-.13.4,0a.54.54,0,0,0,.39-.9,4.35,4.35,0,0,1,.48-.48,8.24,8.24,0,0,1,1.39-.78h0c.22-.09.43-.16.65-.23a6.85,6.85,0,0,1,.76-.16,9.57,9.57,0,0,1,2.14,0c.4.06.81.11,1.2.19s1,.19,1.51.3c1,.21,1.95.43,2.93.66s1.78.45,2.68.66l1.31.28a16.61,16.61,0,0,1,2.41.59h0l.05,0a4.08,4.08,0,0,1,.61.36,5.32,5.32,0,0,1,.48.47h0a5,5,0,0,1,.48.88,6.18,6.18,0,0,1,.4,1.31,3,3,0,0,1,0,.67,3.17,3.17,0,0,1-.12.41,3.48,3.48,0,0,1-.22.36,4,4,0,0,1-.34.38,4.55,4.55,0,0,1-.4.35,12.68,12.68,0,0,1-2.47,1.49,6.82,6.82,0,0,1-1.6.46l-.51.07a3,3,0,0,0-.51.16l-.64.28-1,.46h0l0,0-.73.3A8.22,8.22,0,0,1,529.31,598.09Z" transform="translate(-160.89 -91.36)"/><path class="cls-5" d="M517.23,589a7.93,7.93,0,0,1,.83-.6A4.4,4.4,0,0,1,519,588l.07,0a.44.44,0,0,1,.06-.16,5.72,5.72,0,0,1,.37-.58c.11-.14.21-.28.33-.41a4.38,4.38,0,0,1,.83-.66,7.65,7.65,0,0,1,1.09-.59,6.29,6.29,0,0,1,1-.36,7.64,7.64,0,0,1,1.72-.21l.45,0c.52,0,1,.11,1.53.2,1.09.19,2.17.45,3.24.73l1.76.47c.49.13,1,.28,1.46.43l1.65.48,1.5.37c.43.1.88.19,1.31.32a4.49,4.49,0,0,1,1.71.84,3.15,3.15,0,0,1,.7.8,7.49,7.49,0,0,1,.38.81,7.31,7.31,0,0,1,.33,1,3.77,3.77,0,0,1,.14,1,2.49,2.49,0,0,1-.22,1,3.1,3.1,0,0,1-.48.7,7.37,7.37,0,0,1-1.47,1.19,12.08,12.08,0,0,1-1.93,1.06,6.85,6.85,0,0,1-1.77.49h-.09a1.82,1.82,0,0,0-.46.11c-.45.2-.88.43-1.33.63l-.68.31c-.26.11-.51.23-.78.33a8,8,0,0,1-1.07.38,8.43,8.43,0,0,1-1,.2,4.91,4.91,0,0,1-1.75-.06c-.58-.14-1.15-.33-1.72-.5l-1.49-.43c-.47-.14-.93-.32-1.4-.48a12,12,0,0,0-1.48-.43c-.27,0-.53-.11-.8-.15s-.57-.08-.84-.14a7.84,7.84,0,0,1-2.12-.68,5.13,5.13,0,0,1-.81-.49,7.71,7.71,0,0,0-.75-.52l-.58-.29a5.94,5.94,0,0,1-.57-.27,1.8,1.8,0,0,1-.6-.53,1.48,1.48,0,0,1-.27-.74,1.5,1.5,0,0,1,.09-.56,3.7,3.7,0,0,1,.18-.4c.16-.27.33-.54.51-.79a11.24,11.24,0,0,1,1.33-1.58A10.53,10.53,0,0,1,517.23,589Zm.41,5.79a5.82,5.82,0,0,0,1,.54l.12,0a7.32,7.32,0,0,0,1.39.38l.5.09c.38.06.76.14,1.14.23a11.56,11.56,0,0,1,1.89.61c.67.26,1.36.46,2.06.67l.94.3a13.88,13.88,0,0,0,1.44.39h0a5.26,5.26,0,0,0,1.19,0,8.22,8.22,0,0,0,1.95-.56l.73-.3,0,0h0l1-.46.64-.28a3,3,0,0,1,.51-.16l.51-.07a6.82,6.82,0,0,0,1.6-.46,12.68,12.68,0,0,0,2.47-1.49,4.55,4.55,0,0,0,.4-.35,4,4,0,0,0,.34-.38,3.48,3.48,0,0,0,.22-.36,3.17,3.17,0,0,0,.12-.41,3,3,0,0,0,0-.67,6.18,6.18,0,0,0-.4-1.31,5,5,0,0,0-.48-.88h0a5.32,5.32,0,0,0-.48-.47,4.08,4.08,0,0,0-.61-.36l-.05,0h0a16.61,16.61,0,0,0-2.41-.59l-1.31-.28c-.9-.21-1.79-.45-2.68-.66s-2-.45-2.93-.66c-.5-.11-1-.21-1.51-.3s-.8-.13-1.2-.19a9.57,9.57,0,0,0-2.14,0,6.85,6.85,0,0,0-.76.16c-.22.07-.43.14-.65.23h0a8.24,8.24,0,0,0-1.39.78,4.35,4.35,0,0,0-.48.48.54.54,0,0,1-.39.9l-.4,0-.43.13a6.41,6.41,0,0,0-1.06.65,11,11,0,0,0-2,1.91,6.62,6.62,0,0,0-.45.63c-.14.22-.28.42-.4.65a1.09,1.09,0,0,0-.05.17v0s0,0,0,0a.09.09,0,0,1,0,0,.22.22,0,0,0,0,.1.41.41,0,0,0,.05.09l.07.07a9.27,9.27,0,0,0,1,.56,6.77,6.77,0,0,1,1.17.81h0A0,0,0,0,0,517.64,594.83Z" transform="translate(-160.89 -91.36)"/><path class="cls-5" d="M583.83,585.88l0,0Z" transform="translate(-160.89 -91.36)"/><path class="cls-5" d="M554.79,582.62a.34.34,0,0,0-.47-.12,4.73,4.73,0,0,0-.56.39.29.29,0,0,0,0-.09.19.19,0,0,1,0-.08l.13-.18c.58-.7,1.24-1.31,1.8-2a12.34,12.34,0,0,0,.85-1.16c.27-.45.55-.9.86-1.32a4.27,4.27,0,0,1,.47-.48l.37-.22a3.53,3.53,0,0,1,.64-.16,23.81,23.81,0,0,1,2.67-.07c.81,0,1.62,0,2.43,0h.63l.27,0,.43,0a9,9,0,0,0,1.16-.18c.83-.17,1.66-.34,2.5-.47a16.45,16.45,0,0,1,1.85-.14,12.43,12.43,0,0,1,1.93.12c.84.13,1.68.32,2.51.49.62.12,1.26.22,1.89.33s1.43.23,2.14.37c.35.06.7.11,1.06.14l1.24.12a6.17,6.17,0,0,1,.85.2,2.28,2.28,0,0,1,.3.17,1,1,0,0,1,.18.18,2.54,2.54,0,0,1,.16.28c.25.67.5,1.34.71,2a17.86,17.86,0,0,1,.65,2.69s0,0,0,0a0,0,0,0,1,0,0h0a4.88,4.88,0,0,1,0,1.08,4,4,0,0,1-.19.68,5.45,5.45,0,0,1-.39.66l0,0,0,0h0c-.27.33-.58.63-.88.93-.09.09-.19.16-.28.24l-.41.35c-.34.26-.68.53-1,.76l-.71.47c-.24.16-.5.3-.75.44a9.3,9.3,0,0,1-.9.43,8.35,8.35,0,0,1-2,.56h0a6.44,6.44,0,0,1-1.52,0h0a5,5,0,0,1-1.12-.3c-.21-.09-.42-.2-.63-.3a2.38,2.38,0,0,0-.63-.18,5.32,5.32,0,0,0-.89,0l-1.34.1-1.48.11c-.43,0-.86,0-1.29,0a13.32,13.32,0,0,1-2-.14c-.53-.08-1.06-.19-1.58-.32a12.65,12.65,0,0,1-1.7-.59c-.33-.15-.66-.3-1-.47l-1.15-.59a10.1,10.1,0,0,0-2.2-.91,15.59,15.59,0,0,0-1.94-.25h0a5.43,5.43,0,0,1-1.06-.24,4.31,4.31,0,0,1-.47-.26,3.05,3.05,0,0,1-.43-.45,3.5,3.5,0,0,1-.31-.53,3.13,3.13,0,0,1-.16-.52,3,3,0,0,1,0-.42l0-.12v0l.09-.13a2.61,2.61,0,0,1,.24-.23h0a3.19,3.19,0,0,1,.38-.26A.35.35,0,0,0,554.79,582.62Z" transform="translate(-160.89 -91.36)"/><path class="cls-5" d="M554.37,585.33a3.05,3.05,0,0,0,.43.45,4.31,4.31,0,0,0,.47.26,5.43,5.43,0,0,0,1.06.24h0a15.59,15.59,0,0,1,1.94.25,10.1,10.1,0,0,1,2.2.91l1.15.59c.32.17.65.32,1,.47a12.65,12.65,0,0,0,1.7.59c.52.13,1,.24,1.58.32a13.32,13.32,0,0,0,2,.14c.43,0,.86,0,1.29,0l1.48-.11,1.34-.1a5.32,5.32,0,0,1,.89,0,2.38,2.38,0,0,1,.63.18c.21.1.42.21.63.3a5,5,0,0,0,1.12.3h0a6.44,6.44,0,0,0,1.52,0h0a8.35,8.35,0,0,0,2-.56,9.3,9.3,0,0,0,.9-.43c.25-.14.51-.28.75-.44l.71-.47c.35-.23.69-.5,1-.76l.41-.35c.09-.08.19-.15.28-.24.3-.3.61-.6.88-.93h0l0,0,0,0a5.45,5.45,0,0,0,.39-.66,4,4,0,0,0,.19-.68,4.88,4.88,0,0,0,0-1.08h0a0,0,0,0,0,0,0s0,0,0,0a17.86,17.86,0,0,0-.65-2.69c-.21-.68-.46-1.35-.71-2a2.54,2.54,0,0,0-.16-.28,1,1,0,0,0-.18-.18,2.28,2.28,0,0,0-.3-.17,6.17,6.17,0,0,0-.85-.2l-1.24-.12c-.36,0-.71-.08-1.06-.14-.71-.14-1.43-.26-2.14-.37s-1.27-.21-1.89-.33c-.83-.17-1.67-.36-2.51-.49a12.43,12.43,0,0,0-1.93-.12,16.45,16.45,0,0,0-1.85.14c-.84.13-1.67.3-2.5.47a9,9,0,0,1-1.16.18l-.43,0-.27,0h-.63c-.81,0-1.62,0-2.43,0a23.81,23.81,0,0,0-2.67.07,3.53,3.53,0,0,0-.64.16l-.37.22a4.27,4.27,0,0,0-.47.48c-.31.42-.59.87-.86,1.32a12.34,12.34,0,0,1-.85,1.16c-.56.71-1.22,1.32-1.8,2l-.13.18a.19.19,0,0,0,0,.08.29.29,0,0,1,0,.09,4.73,4.73,0,0,1,.56-.39.34.34,0,0,1,.47.12.35.35,0,0,1-.13.47,3.19,3.19,0,0,0-.38.26h0a2.61,2.61,0,0,0-.24.23l-.09.13v0l0,.12a3,3,0,0,0,0,.42,3.13,3.13,0,0,0,.16.52A3.5,3.5,0,0,0,554.37,585.33ZM554,586a3.83,3.83,0,0,1-.61-1,3.18,3.18,0,0,1-.18-.6,1.94,1.94,0,0,1,0-.59,1,1,0,0,1,.07-.34.58.58,0,0,1-.62-.41,1.35,1.35,0,0,1-.07-.49,1.07,1.07,0,0,1,.17-.51,7.79,7.79,0,0,1,.51-.63c.2-.23.42-.45.63-.66s.41-.43.61-.66.4-.44.59-.68.19-.26.28-.4l.34-.58a11.61,11.61,0,0,1,.86-1.33,4.38,4.38,0,0,1,.58-.56,2.56,2.56,0,0,1,.68-.39,4.45,4.45,0,0,1,1.35-.28l.65,0h.7c.78,0,1.56,0,2.34,0h1.36c.36,0,.73,0,1.1-.07l1.33-.23c.55-.11,1.1-.2,1.66-.29a15.62,15.62,0,0,1,2.56-.23,11.81,11.81,0,0,1,1.18.06,17.74,17.74,0,0,1,1.76.25l.88.17c1,.2,2,.36,3,.53.52.09,1,.18,1.56.29l.83.17.6.09.61.07a5.52,5.52,0,0,1,1.34.29,2.83,2.83,0,0,1,.4.17,1.48,1.48,0,0,1,.27.16,1.72,1.72,0,0,1,.51.53,4.5,4.5,0,0,1,.4.93c.17.46.35.92.5,1.38s.33,1.1.47,1.66a11.07,11.07,0,0,1,.31,1.72,4.61,4.61,0,0,1,0,1.05,3.49,3.49,0,0,1-.23.84,3.54,3.54,0,0,1-.49.87,5.64,5.64,0,0,1-.59.69l-.29.26a2.27,2.27,0,0,1-.28.26l-.7.58-.65.48-.58.39c-.24.15-.47.32-.72.46A10.41,10.41,0,0,1,577,590.9a6.9,6.9,0,0,1-1.2.06,5.47,5.47,0,0,1-1-.12,6.08,6.08,0,0,1-.92-.28c-.23-.1-.45-.22-.68-.34h0l0,0-.28-.08a6.88,6.88,0,0,0-1.36,0l-1.29.12a18.17,18.17,0,0,1-4,0,13.14,13.14,0,0,1-3.32-.83c-.28-.11-.56-.23-.83-.36l-.7-.34-.93-.5c-.46-.25-.91-.49-1.38-.7a5.66,5.66,0,0,0-.82-.28c-.25-.06-.5-.11-.76-.15-.51-.05-1-.08-1.51-.16A3.17,3.17,0,0,1,554,586Z" transform="translate(-160.89 -91.36)"/><path class="cls-1" d="M710,383.35q0,22.22,0,44.44c0,7.62-.13,15.24-.16,22.86,0,3.42,0,6.83,0,10.25,0,.82,0,1.65,0,2.47a18.92,18.92,0,0,1,0,2.13c0,.37-.07.68-.13,1v6.15a3.57,3.57,0,0,1-3.55,3.54q-15.31,0-30.64,0-17.5,0-35,0-33.75-.09-67.52-.25c-17.33-.09-34.66-.22-52-.3l-51.28-.22q-51.65-.22-103.3-.61-50.88-.4-101.76-.4c-33.08,0-66.15-.21-99.23-.18l-.09,0a1.73,1.73,0,0,1-2.17-1.65c-.08-15.29,0-30.59,0-45.88V425.3a2.47,2.47,0,0,1-.72-1.71q-.31-32.26-.58-64.54c-.17-21.48-.25-43-.58-64.45-.07-.45-.14-.9-.22-1.35a3.95,3.95,0,0,1,3.78-5h0q16.8.09,33.62.15c11.32.06,22.64.13,34,.14q33.51,0,67,.07c69,.08,138-.19,207-.3q51.27-.07,102.53.26,25.07.17,50.13.41,12.36.12,24.73.24l11.84.12c3.48,0,7,.15,10.46-.06A2.94,2.94,0,0,1,709,292.2c.23,7.35.27,14.71.36,22.06s.26,14.93.33,22.4C709.87,352.22,710,367.78,710,383.35ZM703.15,295c-1.58,0-3.16,0-4.74,0-2.42,0-4.84,0-7.26.07-5.09.06-10.18.09-15.27.14-10.53.09-21.07.22-31.61.32q-32.43.3-64.83.42-28.65.15-57.28.14c-49.67,0-99.33-.26-149-.31q-102.37-.1-204.75.32c-.31,21-.4,41.94-.56,62.92q-.24,32.26-.58,64.54a2.47,2.47,0,0,1-.72,1.71v2.42c0,14.43.08,28.85,0,43.28,21.31,0,42.62-.07,63.93-.12l66.12-.12c16.74,0,33.47-.06,50.2-.18q13-.07,26-.2c8.66-.07,17.34-.1,26-.16q51.44-.37,102.86-.54c34.59-.15,69.17-.42,103.76-.53,17.25-.06,34.5-.13,51.75-.11q22.73,0,45.45.06v-2.56a6.44,6.44,0,0,1-.14-1.47c0-1.74,0-3.47,0-5.21q0-5.06,0-10.11c0-7.67-.13-15.34-.15-23q-.08-21.71-.05-43.39,0-11.64.09-23.27c.05-8.15.07-16.29.18-24.43.09-7.43.23-14.85.32-22.27C702.94,307.26,703,301.14,703.15,295Z" transform="translate(-160.89 -91.36)"/><path class="cls-6" d="M698.41,295c1.58,0,3.16,0,4.74,0-.16,6.13-.21,12.25-.28,18.37-.09,7.42-.23,14.84-.32,22.27-.11,8.14-.13,16.28-.18,24.43q-.06,11.63-.09,23.27,0,21.69.05,43.39c0,7.67.13,15.34.15,23q0,5.06,0,10.11c0,1.74,0,3.47,0,5.21a6.44,6.44,0,0,0,.14,1.47v2.56q-22.72,0-45.45-.06c-17.25,0-34.5,0-51.75.11-34.59.11-69.17.38-103.76.53q-51.43.22-102.86.54c-8.66.06-17.34.09-26,.16s-17.32.15-26,.2c-16.73.12-33.46.14-50.2.18l-66.12.12c-21.31.05-42.62.14-63.93.12.07-14.43,0-28.85,0-43.28V425.3a2.47,2.47,0,0,0,.72-1.71q.31-32.26.58-64.54c.16-21,.25-41.95.56-62.92q102.38-.58,204.75-.32c49.67.05,99.33.31,149,.31q28.63,0,57.28-.14,32.42-.17,64.83-.42c10.54-.1,21.08-.23,31.61-.32,5.09-.05,10.18-.08,15.27-.14C693.57,295.07,696,295,698.41,295Z" transform="translate(-160.89 -91.36)"/><rect class="cls-7" x="203.98" y="324.5" width="87.91" height="31.5"/><rect class="cls-7" x="317.53" y="324.5" width="87.91" height="31.5"/><rect class="cls-7" x="431.07" y="324.5" width="87.91" height="31.5"/></svg>