<?xml version="1.0" encoding="UTF-8"?>
<svg fill="#272C31" width="100pt" height="100pt" version="1.1" viewBox="0 0 100 100" xmlns="http://www.w3.org/2000/svg">
 <g>
  <path d="m40 72.309l-1.5391-1.6914-9.0781 9.0742-3.2305-3.0742-1.5352 1.6914 4.7656 4.6133z"/>
  <path d="m32.309 90.922c8 0 14.461-6.4609 14.461-14.461s-6.4609-14.461-14.461-14.461-14.461 6.4609-14.461 14.461c-0.15625 8 6.4609 14.461 14.461 14.461zm0-26.77c6.7695 0 12.152 5.5391 12.152 12.152 0 6.7695-5.5391 12.152-12.152 12.152-6.7695 0-12.152-5.5391-12.152-12.152-0.15625-6.6133 5.3828-12.152 12.152-12.152z"/>
  <path d="m83.23 13.848c-0.92188 0-2.4609 0.15234-3.5391 0.46094-2.1523-7.2305-8.9219-12.309-16.461-12.309-7.3828 0-13.848 4.6172-16.152 11.539-1.0781-0.30859-2.1523-0.46094-3.3828-0.46094-4.4609 0-8 2.1523-9.8477 6h-1.3828c-12.77 0-23.078 10.309-23.078 23.078v12.77l-2.4648-0.003906c-4 0-7.3828 3.2305-7.3828 7.3828v28.922c0 4 3.2305 7.3828 7.3828 7.3828h50.77c4 0 7.3828-3.2305 7.3828-7.3828l0.003906-29.227c0-4-3.2305-7.3828-7.3828-7.3828h-2.3125v-6.4609c1.8477 1.6914 4.7695 3.5391 8.7695 3.5391 6.4609 0 9.5391-3.6914 10.77-5.5391 2.4609 1.3828 5.3828 2.1523 8.3086 2.1523 9.5391 0 17.23-7.6914 17.23-17.23s-7.8438-17.23-17.23-17.23zm-71.691 28c0-11.383 9.3828-20.77 20.77-20.77 11.383 0 20.77 9.3828 20.77 20.77v12.617h-6.4609v-12.617c0-4-1.6914-7.6914-4.6172-10.461-2.9219-2.7695-6.7695-4.1523-10.77-3.8477-7.5391 0.46094-13.383 6.9219-13.383 14.77v12.309h-6.3086zm51.078 20.152v5.0781h-4.9219v2.3086h4.9219v6.9219h-4.9219v2.3086h4.9219v6.9219h-4.9219v2.3086h4.9219v2.9219c0 2.7695-2.3086 5.0781-5.0781 5.0781h-50.77c-2.7695 0-5.0781-2.3086-5.0781-5.0781v-2.9219h4.9219v-2.3086h-4.6133v-6.9219h4.9219v-2.3086h-4.9219v-6.9219h4.9219v-2.3086h-4.9219v-5.0781c0-2.7695 2.3086-5.0781 5.0781-5.0781h50.77c2.6133 0 4.7695 2.3086 4.7695 5.0781zm-42.309-7.3828v-12.309c0-6.6172 4.9219-12 11.23-12.461 3.3828-0.15234 6.6172 0.92188 9.0781 3.2305 2.4609 2.3086 3.8477 5.5391 3.8477 8.7695v12.77zm62.922-8.7695c-2.9219 0-5.6914-0.76953-8.1523-2.4609l-1.2305-0.76953-0.46094 1.3828c-0.15234 0.15234-2.1523 5.3828-9.2305 5.3828-4.9219 0-7.8477-3.3828-8.7695-4.6172v-2.9219c0-11.383-8.3086-20.922-19.23-22.77 1.5391-2.6172 4-4 7.5391-4 0.92188 0 1.8477 0.15234 2.7695 0.46094-0.30859 1.0781-0.46094 2.3086-0.46094 3.5391h2.3086c0-1.3828 0.15234-2.6172 0.46094-3.8477 1.6914-6.4609 7.6914-11.078 14.461-11.078 6.9219 0 13.078 4.9219 14.461 11.691l0.30859 1.0781 1.0781-0.30859c0.76953-0.15234 2.9219-0.61719 4.1523-0.61719 8.1523 0 14.922 6.6172 14.922 14.922-0.003906 8.3164-6.7734 14.934-14.926 14.934z"/>
 </g>
</svg>
