<svg id="Layer_10" data-name="Layer 10" xmlns="http://www.w3.org/2000/svg" viewBox="0 0 491.56 648.45"><defs><style>.cls-1{fill:#7f7f7f;}.cls-2{fill:#fff;}.cls-3,.cls-4{fill:#f2c611;}.cls-3{stroke:#f2c611;stroke-miterlimit:10;stroke-width:15px;}</style></defs><title>duplicate_detection</title><g id="file"><path class="cls-1" d="M568.59,133.14a46.06,46.06,0,0,0-7.19-7.08,42.07,42.07,0,0,0-6.25-4.06l-2.52-1.28c-1.56-.79-3.16-1.49-4.75-2.19-3.63-1.5-7.24-3-10.92-4.33-1.79-.67-3.59-1.32-5.38-2s-3.65-1.5-5.5-2.18-3.65-1.36-5.54-1.86-3.88-1-5.86-1.37c-3.84-.73-7.7-1.39-11.56-2-2.46-.33-4.92-.6-7.38-.87-2.64-.26-5.28-.64-7.91-.91q-4.18-.42-8.38-.72c-2.64-.19-5.3-.25-7.95-.35s-5-.15-7.52-.34c-2.81-.23-5.62-.44-8.43-.68-5.32-.44-10.63-.67-15.95-.84-5.5-.19-11-.21-16.51-.23s-11.17,0-16.75,0c-3.19,0-6.36.06-9.55.14-2.52.05-5,.1-7.56.28-6,.4-12,.88-18,1.32-5.48.39-11,.52-16.46.67-5.73.15-11.45.34-17.18.52-2.41.08-4.82.18-7.24.18h-.76c-2.67,0-5.32-.2-8-.37s-5.2-.28-7.81-.34a48.34,48.34,0,0,0-7,.4c-1.9.3-3.8.63-5.69,1-1.17.23-2.34.47-3.5.74-.43-1.64-.83-3.3-1.2-5a3.08,3.08,0,0,0-3-2.25,3.28,3.28,0,0,0-.6.06l-.44-2a19.22,19.22,0,0,1,2.08-.5c.93-.18,1.86-.38,2.8-.53,2.25-.38,4.53-.74,6.8-1.07a61.27,61.27,0,0,1,7-.68c4.12-.09,8.25.21,12.36.5,2,.15,4,.25,6,.28s4.19,0,6.28-.1c5.59-.15,11.17-.37,16.76-.52,5.82-.14,11.64-.3,17.47-.59,5.48-.26,11-.77,16.44-1.1,5.08-.31,10.15-.43,15.24-.43h1.56c11.61,0,23.24.18,34.84.49,5.71.15,11.39.57,17.07,1,2.77.23,5.54.54,8.3.81s5.24.4,7.86.54,5.45.25,8.16.5,5.64.54,8.45.88c3,.37,6,.88,9,1.31,2.76.39,5.53.76,8.26,1.3s5.62,1.13,8.44,1.74c2.52.54,5.05,1.12,7.52,1.89a73.26,73.26,0,0,1,8.33,3.21c2.25,1,4.51,2,6.8,3l.5.21.08,0h0c4.65,2,9.29,3.92,13.83,6.11,1.2.57,2.41,1.08,3.56,1.71l3.48,1.88a47,47,0,0,1,6.65,4.43,45.47,45.47,0,0,1,7,6.56c1.88,2.22,3.67,4.52,5.38,6.86a75.88,75.88,0,0,1,4.28,6.42c1.31,2.22,2.39,4.55,3.53,6.86,1,2.09,2,4.21,2.88,6.35,1.16,2.72,2.33,5.44,3.31,8.24s1.78,5.55,2.53,8.38c.72,2.66,1.3,5.34,1.86,8,.59,2.85,1,5.73,1.28,8.63.31,2.73.38,5.49.47,8.24s.14,5.74.24,8.61c.19,5.47.35,10.94.76,16.4.87,11.57,2.27,23.11,2.67,34.71.4,11.18.62,22.38,1.28,33.55.35,5.82.64,11.63.74,17.46.09,5.58.09,11.16,0,16.73s-.13,11.41-.33,17.1-.4,11.59-.48,17.39c-.06,5.4,0,10.82,0,16.22v17.42q0,16.85-.89,33.67c-.31,5.94-.62,11.89-.86,17.85-.2,5.32-.28,10.63-.47,15.95-.2,5.81-.49,11.6-.73,17.39-.21,5.48-.3,10.94-.54,16.42s-.52,11-.83,16.5-.54,11.15-1.23,16.69c-.74,6-1.78,11.85-2.9,17.75q-.77,4.08-1.64,8.12c-.53,2.56-1.16,5.14-1.94,7.63a89.43,89.43,0,0,1-6.37,15.95c-1.3,2.42-2.61,4.84-4.11,7.14s-3.25,4.74-5,7-3.6,4.56-5.54,6.73c-1.78,2-3.53,4.07-5.45,5.93-1,1-2,2-3.12,2.93s-2.37,2-3.64,2.92a50.07,50.07,0,0,1-6.13,4,40.5,40.5,0,0,1-9,3.6,77.31,77.31,0,0,1-8.63,1.69c-2.73.35-5.45.64-8.19.84-5.54.42-11.1,1-16.66,1.11-5.79.16-11.57.29-17.37.58-5.2.26-10.38.84-15.54,1.51l-.15,0-.18,0-.44.05-.25,0c-2.58.35-5.16.69-7.76.93-2.93.28-5.87.5-8.8.73-2.66.2-5.34.39-8,.43s-5.42,0-8.12-.06c-5.62-.16-11.21-.45-16.8-1-5.16-.54-10.32-1.2-15.5-1.49a154,154,0,0,0-16.52.49c-5.33.28-10.67.33-16,.52-11,.39-21.89,1.52-32.86,1.16-2.51-.08-5-.38-7.52-.54-2.75-.16-5.49-.26-8.24-.35-5.55-.18-11.11-.4-16.65-.78-2.87-.2-5.76-.37-8.63-.52-2.67-.13-5.34-.25-8-.49-3-.29-5.94-.62-8.9-1l-7.59-1.08-2.62-.3c-2.73-.31-5.5-.48-8.25-.72-2.59-.23-5.19-.55-7.78-.84a145.75,145.75,0,0,1-16.35-2.43,34.92,34.92,0,0,1-6.89-2.14c-1.17-.54-2.32-1.1-3.46-1.7-2.29-1.2-4.5-2.61-6.68-4a34.82,34.82,0,0,1-4.77-3.4,28.54,28.54,0,0,1-3.11-3.3,32.93,32.93,0,0,1-4.5-7.44c-1.16-2.57-2.08-5.26-3-7.91s-1.74-5.09-2.43-7.7-1.16-5.1-1.62-7.67-.86-5.2-1.11-7.82c-1-10.83-1.4-21.73-1.5-32.61-.05-5.29-.2-10.57-.34-15.84-.15-5.59-.29-11.17-.65-16.75s-.84-11.44-1.25-17.15c-.37-5.48-.63-11-.88-16.46s-.6-10.82-.74-16.22c-.16-5.71-.25-11.42-.33-17.13-.14-11.26-.3-22.52-.28-33.78,0-10.94,0-21.9.58-32.83.63-11.64,1.23-23.26,1.57-34.91.34-11.12.19-22.26.24-33.38,0-5.52.06-11-.05-16.51-.11-5.69-.37-11.37-.45-17.07-.2-11-.19-22,.69-33,0-.25,0-.5.06-.76l1.76.14c0,.13,0,.26,0,.39a3.92,3.92,0,0,0,1.91,3.31l0,.57c-.28,5.48-.25,11-.1,16.47s.38,11.1.78,16.63c.42,5.73.87,11.45,1.2,17.17.31,5.45.49,10.91.74,16.36.5,11.22.84,22.46.59,33.69q-.19,8.8-.54,17.59c-.2,5.59-.52,11.18-.74,16.76-.45,11.2-.42,22.41-.55,33.6s-.33,22.42-.44,33.62c-.13,11,.11,22.07.42,33.11s1.31,22.19,1.86,33.31c.53,10.93.49,21.89.84,32.83q.25,8.12.72,16.22c.29,5.08.68,10.18,1.31,15.21.71,4.6,1.49,9.18,2.53,13.72a98.3,98.3,0,0,0,4.07,13.78,26.18,26.18,0,0,0,1.65,3.31c.64,1.07,1.32,2.1,2.05,3.11a23.9,23.9,0,0,0,3.17,3.21c2.12,1.57,4.35,3,6.59,4.36,1.06.65,2.13,1.31,3.22,1.9s1.91,1,2.88,1.42c4.09,1.62,8.5,2.25,12.85,2.87,3.24.4,6.5.72,9.75,1,3.63.39,7.25.72,10.91.94,2.76.18,5.5.4,8.25.73s5.47.74,8.21,1,5.57.54,8.36.68,5.4.21,8.1.29c5.71.15,11.39.37,17.09.38h4c4.07,0,8.15,0,12.22.15,2.71.13,5.42.25,8.12.28,2.53,0,5.08-.11,7.61-.25,5.62-.29,11.22-.73,16.84-1.07,5.28-.33,10.57-.54,15.86-.77,5.72-.25,11.41-.69,17.13-1,5.25-.3,10.52-.05,15.78.16,2.53.1,5.05.29,7.59.39,2.78.1,5.58.16,8.36.15,5.68,0,11.36,0,17-.43,5.49-.39,11-.87,16.44-1.51,5.64-.64,11.25-1.47,16.91-1.86s11.16-.4,16.74-.4c2.85,0,5.69,0,8.53-.05s5.52-.16,8.26-.26l8.49-.31c2.48-.09,4.95-.34,7.41-.62,1.1-.18,2.18-.37,3.26-.59a37.63,37.63,0,0,0,6.39-1.91,37.07,37.07,0,0,0,6-3.31l2.48-1.74,2.3-1.85c.87-.71,1.65-1.55,2.46-2.3,1.39-1.3,2.68-2.71,4-4.11,2.77-3,5.43-6.17,8-9.41a98.31,98.31,0,0,0,5.5-8.46,92.34,92.34,0,0,0,4.24-8.6c.57-1.47,1.12-2.95,1.64-4.43.55-1.64,1-3.3,1.55-5,1-3.22,1.62-6.57,2.29-9.87,1.26-6.22,2.29-12.49,3.17-18.79.16-1.52.37-3,.47-4.58.43-5.88.68-11.78.92-17.67.21-5.47.44-10.94.58-16.41s.23-10.94.44-16.41.45-10.91.58-16.36c.13-5.93.25-11.86.45-17.8.19-5.54.5-11.07.73-16.6.49-11.56.6-23.11.58-34.67,0-11.16-.16-22.33,0-33.49.08-5.43.37-10.83.53-16.25q.26-8.84.37-17.68.11-8.65.16-17.29c0-5.32-.2-10.63-.37-15.95-.15-5.58-.3-11.17-.35-16.75-.06-5.78-.1-11.56-.28-17.34-.18-6.07-.48-12.12-.88-18.17-.37-5.38-.82-10.77-1-16.16-.18-5.71-.33-11.41-.38-17.12,0-2.95,0-5.89-.1-8.84-.06-1.44,0-2.9-.18-4.32-.11-1.27-.24-2.54-.35-3.82-.39-2.44-.81-4.86-1.27-7.29s-1.06-4.6-1.65-6.88c-.64-2.51-1.42-5-2.24-7.41-.73-2.19-1.64-4.32-2.53-6.45s-1.74-4-2.67-6c-1-2.19-2-4.43-3.2-6.54-.6-1.08-1.21-2.15-1.88-3.2s-1.45-2.2-2.22-3.29c-1.17-1.66-2.39-3.29-3.63-4.91,0,0,0,0-.05-.05A.33.33,0,0,0,568.59,133.14Z" transform="translate(-199.46 -90.52)"/><path class="cls-2" d="M593.52,287.78c.16,5.32.39,10.63.37,15.95q-.06,8.65-.16,17.29-.11,8.84-.37,17.68c-.16,5.42-.45,10.82-.53,16.25-.14,11.16,0,22.33,0,33.49,0,11.56-.09,23.11-.58,34.67-.23,5.53-.54,11.06-.73,16.6-.2,5.93-.33,11.86-.45,17.8-.13,5.45-.37,10.91-.58,16.36s-.3,10.93-.44,16.41-.37,10.94-.58,16.41c-.24,5.89-.49,11.79-.92,17.67-.1,1.54-.3,3.06-.47,4.58-.88,6.3-1.91,12.57-3.17,18.79-.67,3.3-1.32,6.65-2.29,9.87-.5,1.66-1,3.33-1.55,5-.52,1.49-1.07,3-1.64,4.43a92.34,92.34,0,0,1-4.24,8.6,98.31,98.31,0,0,1-5.5,8.46c-2.56,3.24-5.21,6.36-8,9.41-1.27,1.4-2.57,2.81-4,4.11-.81.76-1.59,1.6-2.46,2.3l-2.3,1.85-2.48,1.74a37.07,37.07,0,0,1-6,3.31,37.63,37.63,0,0,1-6.39,1.91c-1.08.23-2.17.42-3.26.59-2.46.28-4.92.53-7.41.62l-8.49.31c-2.75.1-5.5.23-8.26.26s-5.68.05-8.53.05c-5.58,0-11.17,0-16.74.4s-11.27,1.22-16.91,1.86c-5.45.64-10.94,1.12-16.44,1.51-5.67.42-11.35.4-17,.43-2.78,0-5.58-.05-8.36-.15-2.54-.1-5.06-.29-7.59-.39-5.26-.21-10.53-.47-15.78-.16-5.72.33-11.41.77-17.13,1-5.29.23-10.58.44-15.86.77-5.62.34-11.22.78-16.84,1.07-2.53.14-5.08.26-7.61.25-2.71,0-5.42-.15-8.12-.28-4.07-.19-8.15-.18-12.22-.15h-4c-5.71,0-11.39-.23-17.09-.38-2.7-.08-5.4-.14-8.1-.29s-5.58-.39-8.36-.68-5.47-.69-8.21-1-5.49-.55-8.25-.73c-3.65-.23-7.28-.55-10.91-.94-3.25-.33-6.51-.64-9.75-1-4.35-.62-8.75-1.25-12.85-2.87-1-.45-1.93-.92-2.88-1.42s-2.17-1.25-3.22-1.9c-2.24-1.39-4.47-2.78-6.59-4.36a23.9,23.9,0,0,1-3.17-3.21c-.73-1-1.41-2-2.05-3.11a26.18,26.18,0,0,1-1.65-3.31,98.3,98.3,0,0,1-4.07-13.78c-1-4.53-1.83-9.12-2.53-13.72-.63-5-1-10.14-1.31-15.21q-.47-8.1-.72-16.22c-.35-10.94-.31-21.9-.84-32.83-.55-11.12-1.56-22.19-1.86-33.31s-.54-22.07-.42-33.11c.11-11.2.3-22.41.44-33.62s.1-22.41.55-33.6c.23-5.58.54-11.17.74-16.76q.34-8.8.54-17.59c.25-11.23-.09-22.47-.59-33.69-.25-5.45-.43-10.91-.74-16.36-.33-5.72-.78-11.44-1.2-17.17-.4-5.53-.62-11.08-.78-16.63s-.18-11,.1-16.47l0-.57a3.49,3.49,0,0,0,1.93.53c8.12-.15,16.25-.29,24.35-.81,3.63-.23,7.25-.6,10.88-.82s7.27-.24,10.91-.26,7.29,0,10.93,0c1.7,0,3.4,0,5.1-.18a35.11,35.11,0,0,0,6.45-1.13,40.72,40.72,0,0,0,4.86-1.78,56.46,56.46,0,0,0,5.86-2.77c5.33-3,9.16-7.9,11.94-13.22a44.23,44.23,0,0,0,3.89-11A106.39,106.39,0,0,0,304.32,188c.4-3.83.86-7.66,1.21-11.49s.54-7.39.68-11.1.24-7.61.2-11.41c0-1.94-.19-3.89-.31-5.83s-.21-3.67-.33-5.5a95.27,95.27,0,0,0-1.1-11.36c-.67-3.74-1.52-7.43-2.43-11.12-.81-3.22-2-6.36-2.92-9.55q-.93-3.14-1.73-6.28c1.16-.28,2.33-.52,3.5-.74,1.89-.37,3.79-.69,5.69-1a48.34,48.34,0,0,1,7-.4c2.61.06,5.21.16,7.81.34s5.3.34,8,.37h.76c2.42,0,4.84-.1,7.24-.18,5.73-.18,11.45-.37,17.18-.52,5.49-.15,11-.28,16.46-.67,6-.44,12-.92,18-1.32,2.52-.18,5-.23,7.56-.28,3.19-.08,6.36-.11,9.55-.14q8.37-.06,16.75,0c5.5,0,11,0,16.51.23,5.32.18,10.63.4,15.95.84,2.81.24,5.62.45,8.43.68,2.51.19,5,.25,7.52.34s5.3.16,7.95.35q4.19.3,8.38.72c2.63.26,5.26.64,7.91.91,2.46.26,4.92.54,7.38.87,3.87.6,7.72,1.26,11.56,2,2,.38,3.92.86,5.86,1.37s3.72,1.18,5.54,1.86,3.68,1.45,5.5,2.18,3.59,1.36,5.38,2c3.68,1.36,7.29,2.83,10.92,4.33,1.59.71,3.19,1.4,4.75,2.19l2.52,1.28a42.07,42.07,0,0,1,6.25,4.06,46.06,46.06,0,0,1,7.19,7.08.33.33,0,0,1,.06.08s0,0,.05.05c1.23,1.62,2.46,3.25,3.63,4.91.77,1.08,1.5,2.18,2.22,3.29s1.27,2.12,1.88,3.2c1.2,2.1,2.18,4.35,3.2,6.54.93,2,1.79,4,2.67,6s1.8,4.26,2.53,6.45c.82,2.44,1.6,4.9,2.24,7.41.59,2.28,1.2,4.57,1.65,6.88s.88,4.85,1.27,7.29c.11,1.27.24,2.54.35,3.82.14,1.42.11,2.88.18,4.32.11,2.95.08,5.89.1,8.84.05,5.71.2,11.41.38,17.12.19,5.39.64,10.78,1,16.16.4,6.06.71,12.1.88,18.17.18,5.78.21,11.56.28,17.34C593.22,276.61,593.37,282.2,593.52,287.78Zm-49-115.47a3.39,3.39,0,0,0,2.34-4.13,3.3,3.3,0,0,0-1.55-2,3.54,3.54,0,0,0-2.58-.34c-1.25.21-2.49.4-3.75.58-2.56.33-5.09.67-7.63,1-2.92.37-5.83.79-8.75,1.06-1.85.18-3.72.3-5.55.39a33.28,33.28,0,0,1-5.49-.2,31.69,31.69,0,0,1-6.62-1.83,14,14,0,0,1-1.9-1c-.13-.11-.24-.24-.35-.35a2.5,2.5,0,0,1-.14-.25c0-.1-.06-.2-.1-.31a31,31,0,0,1,1.08-3,66.14,66.14,0,0,1,6.86-13.17,40.6,40.6,0,0,1,6.12-6.18,24,24,0,0,1,3.1-1.94c.09.45.19.92.26,1.37.23,1.25.45,2.48.67,3.73a4.07,4.07,0,0,0,1.91,2.48,4.16,4.16,0,0,0,5.71-1.49,4.45,4.45,0,0,0,.42-3.21c-.35-1.91-.69-3.83-1.06-5.73-.05-.34-.1-.69-.16-1-.06-.15-.11-.3-.18-.47a3.88,3.88,0,0,0-.74-1.47,6.5,6.5,0,0,0-1.08-1.26,5.54,5.54,0,0,0-2.32-1.35,9.26,9.26,0,0,0-2.09-.24,8.91,8.91,0,0,0-1.79.19,16.18,16.18,0,0,0-3.84,1.41,27.85,27.85,0,0,0-5.55,4A41,41,0,0,0,504.6,143a41.42,41.42,0,0,0-4.21,6.49c-1.1,2.05-2,4.17-2.91,6.3l-.15.35c-.59,1.39-1.2,2.77-1.74,4.17-.3.79-.58,1.6-.83,2.41a7.37,7.37,0,0,0-.13,3.27,8.66,8.66,0,0,0,.83,2.63,11.05,11.05,0,0,0,1.54,2.27,9.85,9.85,0,0,0,2,1.62,12.44,12.44,0,0,0,1.94,1,30.82,30.82,0,0,0,10.6,2.73,53.42,53.42,0,0,0,11.07-.47c3.09-.31,6.16-.86,9.23-1.32l4.85-.74C539.32,173.33,541.94,172.89,544.54,172.31ZM488,163.44a8.46,8.46,0,0,0,.42-3.31,7.76,7.76,0,0,0-1.21-3.59,8.17,8.17,0,0,0-2.62-2.51,14,14,0,0,0-2.32-1.12,27.22,27.22,0,0,0-3.69-1.28,38.85,38.85,0,0,0-7.7-1c-1-.06-2-.09-3-.08.4-.47.79-.93,1.17-1.41,2.51-3.14,5-6.62,5.62-10.69a13.86,13.86,0,0,0,.2-2.59,9,9,0,0,0-.91-3.53,9.12,9.12,0,0,0-1.57-2.41A10.6,10.6,0,0,0,470,128a12.31,12.31,0,0,0-6.41-1.49h-.1a17.53,17.53,0,0,0-3.25.43,14.1,14.1,0,0,0-3,1c-.59.25-1.15.52-1.7.82a16.54,16.54,0,0,0-2.48,1.79,17.46,17.46,0,0,0-3.67,4.42,18,18,0,0,0-1.42,3,21.36,21.36,0,0,0-.92,2.8,10.34,10.34,0,0,0-.3,3.35,17.06,17.06,0,0,0,.63,3.17,4.56,4.56,0,0,0,3.39,3.22c-.2,3.11-.39,6.22-.38,9.35a58,58,0,0,0,.94,10.23c-.4,0-.79-.06-1.2-.11a3.26,3.26,0,0,0-3.15,2.41,3.32,3.32,0,0,0,.33,2.52,3.21,3.21,0,0,0,2,1.5c1.4.23,2.8.39,4.21.48a2.26,2.26,0,0,0,.64.54,2.79,2.79,0,0,0,2.1.28,2.59,2.59,0,0,0,1.15-.65c1.64,0,3.26,0,4.89,0a36.47,36.47,0,0,0,14.31-3A23.68,23.68,0,0,0,486.84,166,12.2,12.2,0,0,0,488,163.44ZM441.12,179a15.64,15.64,0,0,0-.19-4.19c-.09-.53-.19-1.07-.29-1.6-.19-1.08-.43-2.17-.67-3.24-.4-1.86-.82-3.72-1.31-5.55s-1-4-1.56-5.94c-.67-2.25-1.35-4.5-2-6.75-.58-1.9-1.25-3.78-1.94-5.66a66.76,66.76,0,0,0-3.82-8.7,20,20,0,0,0-2.38-3.6,14.71,14.71,0,0,0-1.16-1.18,6.38,6.38,0,0,0-2.14-1.31A4.63,4.63,0,0,0,422,131a5.73,5.73,0,0,0-2.81.77,10.3,10.3,0,0,0-3,3.45,38.91,38.91,0,0,0-2.3,4.43c-.42.86-.83,1.71-1.21,2.58-.91,2.09-1.85,4.17-2.72,6.28-1.6,3.88-3.22,7.73-4.66,11.68-2.24,6.18-4.46,12.37-6.6,18.59A3.67,3.67,0,0,0,404,182.9a3.77,3.77,0,0,0,1.69-2.19c.64-1.88,1.28-3.74,1.94-5.6l.18-.08c2.88-1.36,5.81-2.63,8.73-3.92,4-1.5,8.07-3,12.2-4.22a2.8,2.8,0,0,0,1.86-1.78c.52,2,1,3.89,1.49,5.86.26,1.08.53,2.18.78,3.27.34,1.4.72,2.8,1,4.22,0,.19,0,.37.05.55a3.74,3.74,0,0,0,1.06,2.53,3.57,3.57,0,0,0,5.08,0A3.79,3.79,0,0,0,441.12,179Z" transform="translate(-199.46 -90.52)"/><path class="cls-1" d="M497.48,155.77c.91-2.13,1.81-4.24,2.91-6.3A41.42,41.42,0,0,1,504.6,143a41,41,0,0,1,5.16-5.49,27.85,27.85,0,0,1,5.55-4,16.18,16.18,0,0,1,3.84-1.41,8.91,8.91,0,0,1,1.79-.19,9.26,9.26,0,0,1,2.09.24,5.54,5.54,0,0,1,2.32,1.35,6.5,6.5,0,0,1,1.08,1.26,3.88,3.88,0,0,1,.74,1.47c.06.16.11.31.18.47.06.34.11.69.16,1,.37,1.9.71,3.82,1.06,5.73a4.45,4.45,0,0,1-.42,3.21,4.16,4.16,0,0,1-5.71,1.49,4.07,4.07,0,0,1-1.91-2.48c-.21-1.25-.44-2.48-.67-3.73-.08-.45-.18-.92-.26-1.37a24,24,0,0,0-3.1,1.94,40.6,40.6,0,0,0-6.12,6.18,66.14,66.14,0,0,0-6.86,13.17,31,31,0,0,0-1.08,3c0,.11.06.21.1.31a2.5,2.5,0,0,0,.14.25c.11.11.23.24.35.35a14,14,0,0,0,1.9,1,31.69,31.69,0,0,0,6.62,1.83,33.28,33.28,0,0,0,5.49.2c1.84-.09,3.7-.21,5.55-.39,2.92-.26,5.83-.69,8.75-1.06,2.54-.3,5.08-.64,7.63-1,1.26-.18,2.51-.37,3.75-.58a3.54,3.54,0,0,1,2.58.34,3.3,3.3,0,0,1,1.55,2,3.39,3.39,0,0,1-2.34,4.13c-2.59.58-5.21,1-7.85,1.42l-4.85.74c-3.07.47-6.15,1-9.23,1.32a53.42,53.42,0,0,1-11.07.47,30.82,30.82,0,0,1-10.6-2.73,12.44,12.44,0,0,1-1.94-1,9.85,9.85,0,0,1-2-1.62,11.05,11.05,0,0,1-1.54-2.27,8.66,8.66,0,0,1-.83-2.63,7.37,7.37,0,0,1,.13-3.27c.25-.81.53-1.61.83-2.41.54-1.4,1.15-2.78,1.74-4.17Zm5,9.7,0-.3h0A2.73,2.73,0,0,0,502.49,165.47Zm0-.33a.74.74,0,0,1,0-.16.77.77,0,0,0,0,.16Z" transform="translate(-199.46 -90.52)"/><path class="cls-1" d="M488.38,160.13a8.46,8.46,0,0,1-.42,3.31,12.2,12.2,0,0,1-1.12,2.52,23.68,23.68,0,0,1-10.26,8.12,36.47,36.47,0,0,1-14.31,3c-1.62,0-3.25,0-4.89,0a2.89,2.89,0,0,0,.76-2.7c-.3-1.4-.55-2.81-.77-4.22,2.7-.09,5.4-.18,8.09-.49a35.32,35.32,0,0,0,7.36-1.91,27.67,27.67,0,0,0,4.9-2.8,22.94,22.94,0,0,0,2.32-2.24,11.49,11.49,0,0,0,.59-1c.1-.3.18-.59.25-.91a0,0,0,0,1,0,0c-.4-.23-.82-.43-1.25-.62a26.39,26.39,0,0,0-5.13-1.31,52.66,52.66,0,0,0-9.86-.2c-1.88.14-3.75.24-5.63.47a15.92,15.92,0,0,0-1.88.37l-.35.13c0-1.62.05-3.24.14-4.86s.19-3.35.29-5a52.17,52.17,0,0,0,3.87-4.46,38.69,38.69,0,0,0,4.08-6.51,12.83,12.83,0,0,0,.44-1.55c0-.25,0-.52,0-.77a1.15,1.15,0,0,1-.1-.16l-.14-.08q-.42-.13-.83-.23c-.54,0-1.06,0-1.59,0a16.8,16.8,0,0,0-2.07.59,17.23,17.23,0,0,0-1.61.93,16.85,16.85,0,0,0-1.34,1.35.28.28,0,0,0,0-.1,3.21,3.21,0,0,0-5.48-2.27,3.38,3.38,0,0,0-.94,2.27q-.34,5.14-.65,10.26c0,.49-.06,1-.09,1.49a4.56,4.56,0,0,1-3.39-3.22,17.06,17.06,0,0,1-.63-3.17,10.34,10.34,0,0,1,.3-3.35A21.36,21.36,0,0,1,448,138a18,18,0,0,1,1.42-3,17.46,17.46,0,0,1,3.67-4.42,16.54,16.54,0,0,1,2.48-1.79c.55-.3,1.11-.57,1.7-.82a14.1,14.1,0,0,1,3-1,17.53,17.53,0,0,1,3.25-.43h.1A12.31,12.31,0,0,1,470,128a10.6,10.6,0,0,1,2.38,1.91A9.12,9.12,0,0,1,474,132.3a9,9,0,0,1,.91,3.53,13.86,13.86,0,0,1-.2,2.59c-.6,4.07-3.11,7.56-5.62,10.69-.38.48-.77.94-1.17,1.41,1,0,2,0,3,.08a38.85,38.85,0,0,1,7.7,1,27.22,27.22,0,0,1,3.69,1.28,14,14,0,0,1,2.32,1.12,8.17,8.17,0,0,1,2.62,2.51A7.76,7.76,0,0,1,488.38,160.13Z" transform="translate(-199.46 -90.52)"/><path class="cls-2" d="M480.86,160.77a0,0,0,0,0,0,0c-.08.31-.15.6-.25.91a11.49,11.49,0,0,1-.59,1,22.94,22.94,0,0,1-2.32,2.24,27.67,27.67,0,0,1-4.9,2.8,35.32,35.32,0,0,1-7.36,1.91c-2.68.31-5.39.4-8.09.49,0-.19-.06-.38-.09-.57a73.14,73.14,0,0,1-.52-10l.35-.13a15.92,15.92,0,0,1,1.88-.37c1.88-.23,3.75-.33,5.63-.47a52.66,52.66,0,0,1,9.86.2,26.39,26.39,0,0,1,5.13,1.31C480,160.34,480.45,160.55,480.86,160.77Z" transform="translate(-199.46 -90.52)"/><path class="cls-2" d="M465.5,136.28a1.15,1.15,0,0,0,.1.16c0,.25,0,.52,0,.77a12.83,12.83,0,0,1-.44,1.55,38.69,38.69,0,0,1-4.08,6.51,52.17,52.17,0,0,1-3.87,4.46c.24-3.63.5-7.24.74-10.86a16.85,16.85,0,0,1,1.34-1.35,17.23,17.23,0,0,1,1.61-.93,16.8,16.8,0,0,1,2.07-.59c.53,0,1,0,1.59,0q.42.09.83.23Z" transform="translate(-199.46 -90.52)"/><path class="cls-1" d="M458.14,174.35a2.89,2.89,0,0,1-.76,2.7c-1.3,0-2.59-.06-3.89-.16a3.49,3.49,0,0,1-.6-1.08,33.24,33.24,0,0,1-1.44-5.15c0-.19-.06-.37-.1-.55a41.28,41.28,0,0,0,4.5.09l1.52-.05C457.58,171.54,457.83,173,458.14,174.35Z" transform="translate(-199.46 -90.52)"/><path class="cls-1" d="M454.74,135.56a3.22,3.22,0,0,1,3.21,3.21.28.28,0,0,1,0,.1l-.1.11a17.68,17.68,0,0,0-1.41,2.46,18.49,18.49,0,0,0-.59,2c.11.47.23.94.35,1.41a4.62,4.62,0,0,1-3.19,5.62,4.56,4.56,0,0,1-2.22,0c0-.49.05-1,.09-1.49q.32-5.12.65-10.26a3.38,3.38,0,0,1,.94-2.27A3.21,3.21,0,0,1,454.74,135.56Z" transform="translate(-199.46 -90.52)"/><path class="cls-1" d="M457.83,139l.1-.11c-.24,3.61-.5,7.23-.74,10.86-.58.6-1.2,1.17-1.84,1.73l-.54.37a5.52,5.52,0,0,0-2.18,1.26,4,4,0,0,0,3.87,6.62l.26-.1a73.14,73.14,0,0,0,.52,10c0,.19.06.38.09.57l-1.52.05a41.28,41.28,0,0,1-4.5-.09,58,58,0,0,1-.94-10.23c0-3.12.18-6.23.38-9.35a4.56,4.56,0,0,0,2.22,0,4.62,4.62,0,0,0,3.19-5.62c-.13-.47-.24-.94-.35-1.41a18.49,18.49,0,0,1,.59-2A17.68,17.68,0,0,1,457.83,139Z" transform="translate(-199.46 -90.52)"/><path class="cls-1" d="M457.19,149.73c-.1,1.66-.2,3.34-.29,5s-.14,3.24-.14,4.86l-.26.1a4,4,0,0,1-3.87-6.62,5.52,5.52,0,0,1,2.18-1.26l.54-.37C456,150.9,456.61,150.33,457.19,149.73Z" transform="translate(-199.46 -90.52)"/><path class="cls-1" d="M457.38,177a2.59,2.59,0,0,1-1.15.65,2.79,2.79,0,0,1-2.1-.28,2.26,2.26,0,0,1-.64-.54C454.79,177,456.08,177,457.38,177Z" transform="translate(-199.46 -90.52)"/><path class="cls-1" d="M452.88,175.8a3.49,3.49,0,0,0,.6,1.08c-1.41-.09-2.81-.25-4.21-.48a3.21,3.21,0,0,1-2-1.5,3.32,3.32,0,0,1-.33-2.52,3.26,3.26,0,0,1,3.15-2.41c.4.05.79.09,1.2.11,0,.19.06.37.1.55A33.24,33.24,0,0,0,452.88,175.8Z" transform="translate(-199.46 -90.52)"/><path class="cls-1" d="M440.93,174.83a15.64,15.64,0,0,1,.19,4.19,3.79,3.79,0,0,1-1,2.53,3.57,3.57,0,0,1-5.08,0,3.74,3.74,0,0,1-1.06-2.53c0-.19,0-.37-.05-.55-.26-1.42-.64-2.82-1-4.22-.25-1.1-.52-2.19-.78-3.27-.48-2-1-3.9-1.49-5.86a2.66,2.66,0,0,0,.06-1.6,2.53,2.53,0,0,0-.83-1.3,145.36,145.36,0,0,0-5.53-16.94,40,40,0,0,0-2.36-4.77c-.44.76-.86,1.55-1.26,2.34s-1,1.84-1.41,2.78L416.86,151c-1.49,3.5-3,7-4.29,10.54-.77,2.12-1.55,4.23-2.32,6.35-1.74.76-3.48,1.54-5.19,2.34a2.66,2.66,0,0,0-1.27,1.65,2.75,2.75,0,0,0,3.88,3.21c-.65,1.86-1.3,3.73-1.94,5.6A3.77,3.77,0,0,1,404,182.9a3.67,3.67,0,0,1-5.39-4.14c2.14-6.22,4.36-12.41,6.6-18.59,1.44-3.94,3.06-7.8,4.66-11.68.87-2.12,1.81-4.19,2.72-6.28.38-.87.79-1.73,1.21-2.58a38.91,38.91,0,0,1,2.3-4.43,10.3,10.3,0,0,1,3-3.45A5.73,5.73,0,0,1,422,131a4.63,4.63,0,0,1,1.7.31,6.38,6.38,0,0,1,2.14,1.31,14.71,14.71,0,0,1,1.16,1.18,20,20,0,0,1,2.38,3.6,66.76,66.76,0,0,1,3.82,8.7c.69,1.88,1.36,3.75,1.94,5.66.67,2.25,1.35,4.5,2,6.75.59,2,1,4,1.56,5.94s.91,3.69,1.31,5.55c.24,1.07.48,2.15.67,3.24C440.74,173.76,440.84,174.3,440.93,174.83Z" transform="translate(-199.46 -90.52)"/><path class="cls-1" d="M430.7,163.52a2.66,2.66,0,0,1-.06,1.6c-.08-.33-.16-.67-.25-1-.16-.63-.34-1.27-.52-1.9A2.53,2.53,0,0,1,430.7,163.52Z" transform="translate(-199.46 -90.52)"/><path class="cls-1" d="M430.39,164.12c.09.33.18.67.25,1a2.8,2.8,0,0,1-1.86,1.78c-4.13,1.21-8.16,2.72-12.2,4.22-2.92,1.28-5.84,2.56-8.73,3.92l-.18.08c.5-1.49,1-3,1.57-4.45.34-.92.67-1.84,1-2.76.54-.25,1.07-.48,1.61-.72,1.54-.67,3.07-1.32,4.65-1.9,3.58-1.32,7.15-2.63,10.82-3.68a2.35,2.35,0,0,1,.72-.1,2.75,2.75,0,0,1,1.83.72C430,162.85,430.23,163.49,430.39,164.12Z" transform="translate(-199.46 -90.52)"/><path class="cls-2" d="M429.87,162.22a2.75,2.75,0,0,0-1.83-.72,2.35,2.35,0,0,0-.72.1c-3.67,1-7.24,2.36-10.82,3.68-1.57.58-3.11,1.23-4.65,1.9-.54.24-1.07.47-1.61.72.77-2.12,1.55-4.23,2.32-6.35,1.3-3.56,2.81-7,4.29-10.54l2.46-5.38c.43-.94.94-1.86,1.41-2.78s.82-1.59,1.26-2.34a40,40,0,0,1,2.36,4.77A145.36,145.36,0,0,1,429.87,162.22Z" transform="translate(-199.46 -90.52)"/><path class="cls-1" d="M410.25,167.9c-.34.92-.67,1.84-1,2.76-.54,1.49-1.07,3-1.57,4.45a2.74,2.74,0,0,1-2,.2,2.77,2.77,0,0,1-1.93-3.41,2.66,2.66,0,0,1,1.27-1.65C406.77,169.44,408.51,168.66,410.25,167.9Z" transform="translate(-199.46 -90.52)"/><path class="cls-1" d="M306.41,154c0,3.8-.06,7.61-.2,11.41s-.35,7.41-.68,11.1-.81,7.66-1.21,11.49a106.39,106.39,0,0,1-1.46,11.31,44.23,44.23,0,0,1-3.89,11c-2.78,5.33-6.61,10.26-11.94,13.22a56.46,56.46,0,0,1-5.86,2.77,40.72,40.72,0,0,1-4.86,1.78,35.11,35.11,0,0,1-6.45,1.13c-1.7.15-3.4.18-5.1.18-3.64,0-7.28,0-10.93,0s-7.27.06-10.91.26-7.25.59-10.88.82c-8.1.52-16.22.65-24.35.81a3.49,3.49,0,0,1-1.93-.53c.1-2,.26-4,.5-6,.05-.3.1-.59.16-.89a3.85,3.85,0,0,1,1.26-.24c7.22-.13,14.43-.31,21.64-.64,3.58-.16,7.15-.47,10.72-.74s7.27-.48,10.91-.59,7.13-.19,10.69-.21c3.4,0,6.83,0,10.21-.31A55.92,55.92,0,0,0,282.4,218a26.62,26.62,0,0,0,4.36-2.48,25.77,25.77,0,0,0,3.82-3.87A34.07,34.07,0,0,0,293,208c.71-1.27,1.35-2.56,2-3.88s1-2.85,1.41-4.31a49,49,0,0,0,1.07-4.81c.29-2.23.53-4.46.77-6.69.28-2.53.59-5.06.87-7.59q1.19-11.26,1.31-22.6c0-3.83-.16-7.62-.42-11.44-.23-3.53-.45-7.07-.86-10.58a99,99,0,0,0-4.36-16.68c-.54-1.55-1.06-3.09-1.55-4.65s-.83-3-1.21-4.51a35.66,35.66,0,0,1-.71-3.6c.72-.38,1.44-.73,2.17-1.06a34.44,34.44,0,0,1,4.13-1.22q.79,3.16,1.73,6.28c.94,3.19,2.12,6.32,2.92,9.55.91,3.69,1.76,7.38,2.43,11.12a95.27,95.27,0,0,1,1.1,11.36c.11,1.84.23,3.67.33,5.5S306.38,152.09,306.41,154Z" transform="translate(-199.46 -90.52)"/><path class="cls-2" d="M300,146.68c.25,3.82.45,7.61.42,11.44q-.11,11.34-1.31,22.6c-.28,2.53-.59,5.06-.87,7.59-.24,2.23-.48,4.46-.77,6.69a49,49,0,0,1-1.07,4.81c-.4,1.46-.89,2.88-1.41,4.31s-1.25,2.61-2,3.88a34.07,34.07,0,0,1-2.43,3.7,25.77,25.77,0,0,1-3.82,3.87A26.62,26.62,0,0,1,282.4,218a55.92,55.92,0,0,1-10.54,3.1c-3.39.35-6.81.29-10.21.31-3.56,0-7.13.11-10.69.21s-7.27.31-10.91.59-7.14.58-10.72.74c-7.2.33-14.42.52-21.64.64a3.85,3.85,0,0,0-1.26.24,29.16,29.16,0,0,1,1.16-4.47c.57-1.59,1.25-3.14,1.9-4.7h0l.06-.11c2-4.67,4.07-9.28,6.22-13.88q1.55-3.33,3.25-6.57c1.27-2.39,2.66-4.72,4-7.05,2.62-4.4,5.4-8.69,8.3-12.9q4.53-6.59,9-13.24c5-7.48,10-15.05,15.42-22.22,4.84-6.18,9.95-12.15,15.23-18q3.89-4.29,7.91-8.48l1-1.08a5.59,5.59,0,0,0,.77.28,4.88,4.88,0,0,0,3.93-.52,47.92,47.92,0,0,1,6.65-4.29,35.66,35.66,0,0,0,.71,3.6c.38,1.51.76,3,1.21,4.51s1,3.1,1.55,4.65a99,99,0,0,1,4.36,16.68C299.52,139.61,299.74,143.15,300,146.68Z" transform="translate(-199.46 -90.52)"/><path class="cls-1" d="M296.39,99.42c.37,1.66.77,3.33,1.2,5a34.44,34.44,0,0,0-4.13,1.22c-.73.33-1.45.68-2.17,1.06,0-.18-.06-.34-.09-.52-.31-2-.59-3.93-.84-5.91a2.92,2.92,0,0,1,.89-2.18,3,3,0,0,1,1.57-.83,3.28,3.28,0,0,1,.6-.06A3.08,3.08,0,0,1,296.39,99.42Z" transform="translate(-199.46 -90.52)"/><path class="cls-1" d="M209.55,214.59l-.06.11h0c-.65,1.56-1.34,3.11-1.9,4.7a29.16,29.16,0,0,0-1.16,4.47,3.83,3.83,0,0,0-2.56,3.22l-1.76-.14a42.55,42.55,0,0,1,1.06-7,62.76,62.76,0,0,1,2.23-6.73c1.81-4.9,3.89-9.71,6.07-14.46,1-2.23,2-4.45,3.15-6.64s2.46-4.63,3.74-6.93c2.52-4.45,5.09-8.87,7.9-13.14,2.91-4.42,5.74-8.88,8.49-13.41,2.83-4.69,5.72-9.32,8.6-14s5.62-9.08,8.78-13.4c3.38-4.63,7-9,10.83-13.31q5.25-5.89,10.73-11.59c2-2.07,4-4.08,6.15-6,2.43-2.13,5.05-4,7.62-6a3.82,3.82,0,0,1,3-.39,4,4,0,0,1,1.93,1.22l.44,2a3,3,0,0,0-1.57.83,2.92,2.92,0,0,0-.89,2.18c.25,2,.53,3.94.84,5.91,0,.18.05.34.09.52a47.92,47.92,0,0,0-6.65,4.29,4.88,4.88,0,0,1-3.93.52,5.59,5.59,0,0,1-.77-.28l-1,1.08q-4,4.18-7.91,8.48c-5.28,5.82-10.39,11.79-15.23,18-5.45,7.17-10.38,14.74-15.42,22.22q-4.46,6.63-9,13.24c-2.9,4.21-5.68,8.5-8.3,12.9-1.39,2.33-2.77,4.66-4,7.05q-1.7,3.25-3.25,6.57C213.62,205.31,211.53,209.92,209.55,214.59Z" transform="translate(-199.46 -90.52)"/><path class="cls-1" d="M206.43,223.88c-.06.3-.11.59-.16.89-.24,2-.4,4-.5,6a3.92,3.92,0,0,1-1.91-3.31c0-.13,0-.26,0-.39A3.83,3.83,0,0,1,206.43,223.88Z" transform="translate(-199.46 -90.52)"/></g><g id="file-2" data-name="file"><path class="cls-1" d="M625.11,222.45l.08,0h.05c4.62,2,9.28,3.9,13.8,6.1,1.18.57,2.41,1.08,3.56,1.71l3.48,1.88a54,54,0,0,1,13.65,11c1.88,2.22,3.67,4.52,5.38,6.86a72.83,72.83,0,0,1,4.27,6.42c1.31,2.23,2.41,4.55,3.53,6.86,1,2.09,2,4.22,2.9,6.35,1.16,2.72,2.33,5.44,3.3,8.24s1.78,5.55,2.54,8.38c.72,2.66,1.3,5.34,1.85,8,.59,2.85,1,5.73,1.3,8.63.31,2.73.38,5.49.47,8.24s.14,5.76.24,8.63c.18,5.47.35,10.93.76,16.39.87,11.57,2.25,23.11,2.67,34.71.4,11.18.6,22.38,1.28,33.55.34,5.82.64,11.64.73,17.46.1,5.58.1,11.16.05,16.74s-.13,11.4-.34,17.09-.39,11.59-.47,17.39c-.06,5.42,0,10.82,0,16.23,0,5.79,0,11.6,0,17.41q0,16.85-.89,33.67c-.3,5.94-.6,11.89-.84,17.85-.21,5.32-.29,10.63-.48,16-.2,5.79-.49,11.59-.72,17.38-.23,5.48-.31,11-.54,16.42s-.53,11-.83,16.5-.54,11.16-1.23,16.69c-.74,6-1.79,11.85-2.9,17.76-.52,2.71-1.07,5.42-1.64,8.11s-1.17,5.14-1.94,7.63a90.39,90.39,0,0,1-6.37,15.95c-1.3,2.42-2.61,4.85-4.12,7.14s-3.24,4.75-5,7-3.61,4.56-5.54,6.73c-1.78,2-3.53,4.07-5.47,5.93-1,1-2,2-3.11,2.93s-2.37,2-3.64,2.93a54.32,54.32,0,0,1-6.13,4,40.46,40.46,0,0,1-9,3.59,77.88,77.88,0,0,1-8.63,1.69c-2.73.37-5.45.64-8.19.84-5.55.43-11.1,1-16.66,1.12-5.79.16-11.59.28-17.37.57-5.25.26-10.48.86-15.69,1.54l-.62.09c-2.67.35-5.34.71-8,1q-4.38.42-8.79.73c-2.66.2-5.34.39-8,.44s-5.42,0-8.12-.08c-5.62-.16-11.21-.45-16.8-1-5.16-.53-10.32-1.2-15.5-1.47a151,151,0,0,0-16.54.48c-5.32.28-10.66.33-16,.53-11,.38-21.89,1.51-32.87,1.15-2.51-.08-5-.38-7.51-.54-2.75-.16-5.49-.26-8.25-.35-5.54-.16-11.1-.4-16.64-.78-2.87-.19-5.76-.37-8.64-.5-2.66-.14-5.33-.26-8-.5-3-.29-5.93-.6-8.89-1l-7.61-1.08-2.61-.3c-2.75-.31-5.5-.48-8.25-.72s-5.2-.55-7.78-.84a142.91,142.91,0,0,1-16.35-2.43,34.66,34.66,0,0,1-6.89-2.14c-1.17-.54-2.33-1.1-3.48-1.7-2.28-1.2-4.5-2.61-6.68-4a35.29,35.29,0,0,1-4.77-3.4,29.66,29.66,0,0,1-3.11-3.3,33.87,33.87,0,0,1-4.5-7.44c-1.16-2.57-2.07-5.26-3-7.91s-1.75-5.09-2.44-7.7-1.15-5.09-1.62-7.67-.86-5.2-1.1-7.82c-1-10.83-1.41-21.73-1.5-32.61-.05-5.28-.2-10.57-.35-15.84-.14-5.58-.29-11.17-.65-16.74-.37-5.73-.83-11.45-1.23-17.17-.38-5.48-.63-11-.88-16.46s-.6-10.81-.76-16.22c-.15-5.71-.24-11.41-.31-17.13-.14-11.26-.31-22.52-.28-33.78,0-10.94,0-21.9.57-32.83.63-11.63,1.23-23.26,1.59-34.91.33-11.12.19-22.26.23-33.38,0-5.5.08-11,0-16.51-.11-5.69-.37-11.37-.47-17.07-.19-11-.18-22,.71-33,0-.25,0-.52.06-.77l1.76.14c0,.13,0,.26,0,.39a3.91,3.91,0,0,0,1.9,3.31l0,.57c-.28,5.49-.24,11-.09,16.47s.38,11.1.78,16.63c.42,5.73.87,11.45,1.2,17.18.3,5.44.48,10.91.73,16.35.52,11.22.86,22.47.6,33.69q-.21,8.8-.54,17.59c-.21,5.59-.52,11.18-.74,16.76-.45,11.2-.42,22.41-.55,33.6s-.33,22.42-.45,33.63c-.11,11,.13,22.07.43,33.1s1.31,22.2,1.85,33.31c.54,10.93.5,21.89.84,32.83q.26,8.12.72,16.22c.29,5.08.69,10.18,1.32,15.21.71,4.6,1.49,9.19,2.52,13.73a102.17,102.17,0,0,0,4.07,13.77,29.15,29.15,0,0,0,1.65,3.33c.65,1.07,1.34,2.09,2.07,3.1a23.9,23.9,0,0,0,3.17,3.21c2.1,1.57,4.33,3,6.57,4.36,1.07.67,2.13,1.31,3.24,1.9.94.5,1.91,1,2.88,1.42,4.09,1.64,8.5,2.27,12.85,2.87,3.24.4,6.5.72,9.75,1.06,3.63.38,7.25.71,10.89.93,2.76.18,5.52.4,8.26.73s5.47.74,8.2,1,5.57.53,8.36.67,5.42.23,8.11.29c5.69.15,11.39.37,17.08.38,1.35,0,2.68,0,4,0,4.08,0,8.15,0,12.23.15,2.71.13,5.4.25,8.12.28,2.52,0,5.08-.11,7.59-.25,5.62-.29,11.22-.73,16.84-1.07,5.29-.33,10.58-.54,15.87-.77,5.72-.25,11.41-.69,17.12-1,5.26-.3,10.53-.05,15.79.16,2.53.1,5.05.29,7.58.39,2.8.11,5.58.16,8.38.15,5.68,0,11.36,0,17-.42,5.48-.4,11-.88,16.44-1.51,5.64-.65,11.25-1.49,16.91-1.88s11.16-.4,16.73-.4c2.85,0,5.69,0,8.54,0s5.5-.18,8.26-.28l8.48-.3c2.48-.1,4.95-.35,7.42-.63,1.1-.18,2.18-.35,3.26-.59a38.77,38.77,0,0,0,6.39-1.9,38.12,38.12,0,0,0,6-3.33c.83-.58,1.65-1.16,2.48-1.73l2.3-1.86c.86-.71,1.65-1.55,2.46-2.3,1.39-1.3,2.68-2.71,4-4.11,2.77-3,5.43-6.17,8-9.41a93.72,93.72,0,0,0,5.52-8.46,92.34,92.34,0,0,0,4.24-8.6c.57-1.47,1.12-2.95,1.62-4.43.55-1.64,1.06-3.3,1.55-5,1-3.22,1.64-6.56,2.3-9.87,1.25-6.22,2.28-12.49,3.16-18.78.18-1.54.38-3.06.48-4.58.42-5.89.68-11.79.91-17.68.23-5.47.44-10.94.58-16.41s.23-10.94.45-16.41.45-10.91.57-16.36c.14-5.93.26-11.86.47-17.8.19-5.54.5-11.07.73-16.6.48-11.56.6-23.11.58-34.67,0-11.16-.16-22.33,0-33.49.06-5.42.37-10.83.52-16.25q.26-8.84.38-17.68.09-8.65.16-17.29c0-5.32-.21-10.63-.37-15.95-.15-5.58-.3-11.16-.37-16.75-.05-5.78-.09-11.56-.26-17.34q-.26-9.09-.89-18.17c-.35-5.38-.82-10.77-1-16.16-.19-5.71-.33-11.41-.38-17.12,0-2.95,0-5.89-.1-8.84-.06-1.44,0-2.9-.18-4.32-.13-1.27-.24-2.54-.37-3.82-.38-2.44-.79-4.86-1.27-7.29s-1.06-4.6-1.64-6.88c-.64-2.49-1.42-4.95-2.25-7.41-.72-2.18-1.64-4.32-2.52-6.45s-1.75-4-2.67-6c-1-2.19-2-4.42-3.2-6.54-.62-1.08-1.21-2.15-1.89-3.2s-1.44-2.2-2.2-3.29c-1.17-1.66-2.39-3.29-3.64-4.9a46.49,46.49,0,0,0-7.29-7.22,43.22,43.22,0,0,0-6.26-4.06l-2.52-1.28c-1.55-.79-3.15-1.49-4.75-2.19-3.61-1.5-7.24-3-10.91-4.33-1.8-.67-3.6-1.32-5.38-2s-3.67-1.49-5.52-2.18-3.65-1.36-5.53-1.86-3.89-1-5.86-1.37c-3.85-.73-7.71-1.39-11.57-2q-3.68-.47-7.38-.86c-2.63-.28-5.26-.65-7.9-.92-2.8-.28-5.58-.52-8.38-.72-2.64-.19-5.3-.25-7.95-.35s-5-.15-7.53-.34q-4.21-.32-8.43-.68c-5.3-.43-10.62-.67-15.93-.84-5.5-.19-11-.21-16.52-.23s-11.16,0-16.75,0c-3.17,0-6.36.05-9.53.13-2.52.05-5,.1-7.56.28-6,.4-12,.88-18,1.32-5.47.39-11,.52-16.45.67-5.73.15-11.46.35-17.18.53-2.42.08-4.84.18-7.24.18H418c-2.67,0-5.32-.19-8-.37s-5.2-.28-7.81-.34a48.51,48.51,0,0,0-7,.4c-1.9.3-3.79.63-5.68,1-1.18.23-2.36.47-3.51.74-.43-1.65-.82-3.3-1.18-5a3.08,3.08,0,0,0-3-2.25,3.28,3.28,0,0,0-.6.06l-.45-2c.69-.2,1.39-.37,2.09-.5.92-.18,1.85-.38,2.78-.53,2.27-.38,4.53-.74,6.81-1.06a55.76,55.76,0,0,1,7-.68c4.11-.1,8.25.2,12.34.49,2,.15,4,.25,6,.28s4.21,0,6.3-.1c5.58-.15,11.17-.37,16.75-.52,5.83-.14,11.65-.29,17.47-.58,5.49-.28,11-.78,16.45-1.11,5.08-.3,10.15-.42,15.24-.42h1.55c11.63,0,23.24.18,34.85.49,5.71.15,11.39.57,17.07,1,2.77.23,5.53.54,8.3.81,2.62.25,5.24.4,7.86.54s5.45.25,8.16.5,5.63.54,8.45.89c3,.35,6,.88,9,1.3,2.77.39,5.53.77,8.27,1.3s5.62,1.13,8.43,1.74c2.52.54,5.06,1.12,7.52,1.9a70.05,70.05,0,0,1,8.33,3.2C620.22,220.31,622.65,221.4,625.11,222.45Z" transform="translate(-199.46 -90.52)"/><path class="cls-2" d="M682,402.74c.15,5.32.39,10.63.37,15.95q-.06,8.65-.16,17.29-.11,8.84-.38,17.68c-.15,5.42-.45,10.83-.52,16.25-.14,11.16,0,22.33,0,33.49,0,11.56-.1,23.11-.58,34.67-.23,5.53-.54,11.06-.73,16.6-.2,5.93-.33,11.86-.47,17.8-.11,5.45-.37,10.91-.57,16.36s-.31,10.94-.45,16.41-.35,10.94-.58,16.41c-.23,5.89-.49,11.79-.91,17.68-.1,1.52-.3,3-.48,4.58-.88,6.28-1.91,12.56-3.16,18.78-.67,3.31-1.32,6.65-2.3,9.87-.49,1.66-1,3.33-1.55,5-.5,1.49-1.06,3-1.62,4.43a92.34,92.34,0,0,1-4.24,8.6,93.72,93.72,0,0,1-5.52,8.46c-2.54,3.24-5.2,6.36-8,9.41-1.27,1.4-2.57,2.81-4,4.11-.81.76-1.6,1.6-2.46,2.3l-2.3,1.86c-.83.57-1.65,1.15-2.48,1.73a38.12,38.12,0,0,1-6,3.33,38.77,38.77,0,0,1-6.39,1.9c-1.08.24-2.17.42-3.26.59-2.47.28-4.94.53-7.42.63l-8.48.3c-2.76.1-5.5.23-8.26.28s-5.69.05-8.54,0c-5.57,0-11.16,0-16.73.4s-11.27,1.22-16.91,1.88c-5.47.63-11,1.11-16.44,1.51-5.67.4-11.35.39-17,.42-2.8,0-5.58,0-8.38-.15-2.53-.1-5.05-.29-7.58-.39-5.26-.21-10.53-.47-15.79-.16-5.71.33-11.4.77-17.12,1-5.29.23-10.58.44-15.87.77-5.62.34-11.22.78-16.84,1.07-2.52.14-5.08.26-7.59.25-2.72,0-5.42-.15-8.12-.28-4.08-.19-8.15-.16-12.23-.15-1.34,0-2.67,0-4,0-5.69,0-11.39-.23-17.08-.38-2.7-.06-5.4-.14-8.11-.29s-5.58-.39-8.36-.67-5.47-.71-8.2-1-5.5-.55-8.26-.73c-3.64-.23-7.27-.55-10.89-.93-3.25-.34-6.51-.65-9.75-1.06-4.35-.6-8.75-1.23-12.85-2.87-1-.45-1.94-.92-2.88-1.42-1.11-.59-2.17-1.23-3.24-1.9-2.24-1.37-4.47-2.78-6.57-4.36a23.9,23.9,0,0,1-3.17-3.21c-.73-1-1.41-2-2.07-3.1a29.15,29.15,0,0,1-1.65-3.33,102.17,102.17,0,0,1-4.07-13.77c-1-4.53-1.81-9.13-2.52-13.73-.63-5-1-10.14-1.32-15.21q-.45-8.1-.72-16.22c-.34-10.94-.3-21.9-.84-32.83-.54-11.11-1.56-22.19-1.85-33.31s-.54-22.07-.43-33.1c.13-11.21.31-22.42.45-33.63s.1-22.41.55-33.6c.23-5.58.53-11.17.74-16.76q.34-8.8.54-17.59c.25-11.22-.09-22.47-.6-33.69-.25-5.44-.43-10.91-.73-16.35-.33-5.73-.78-11.45-1.2-17.18-.4-5.53-.62-11.07-.78-16.63s-.19-11,.09-16.47l0-.57a3.54,3.54,0,0,0,1.94.53c8.11-.15,16.25-.28,24.35-.79,3.63-.24,7.24-.62,10.88-.82s7.27-.25,10.91-.28l10.93,0c1.69,0,3.4,0,5.09-.16a36.17,36.17,0,0,0,6.46-1.15,42.31,42.31,0,0,0,4.86-1.76,59.07,59.07,0,0,0,5.84-2.78c5.34-3,9.17-7.9,12-13.22a43.53,43.53,0,0,0,3.88-11A106.41,106.41,0,0,0,392.77,303c.4-3.83.86-7.65,1.2-11.49.34-3.69.54-7.39.69-11.1s.24-7.59.19-11.4c0-2-.19-3.9-.3-5.84s-.23-3.67-.33-5.5a98,98,0,0,0-1.1-11.36c-.67-3.74-1.54-7.43-2.44-11.11-.79-3.24-2-6.37-2.91-9.56q-.93-3.14-1.74-6.28c1.16-.28,2.33-.52,3.51-.74,1.89-.37,3.78-.69,5.68-1a48.51,48.51,0,0,1,7-.4c2.61.06,5.2.16,7.81.34s5.3.34,8,.37h.76c2.41,0,4.82-.1,7.24-.18,5.72-.18,11.45-.38,17.18-.53,5.49-.15,11-.28,16.45-.67,6-.44,12-.92,18-1.32,2.52-.18,5-.23,7.56-.28,3.17-.08,6.36-.11,9.53-.13,5.59-.05,11.17-.05,16.75,0s11,0,16.52.23c5.32.18,10.63.42,15.93.84q4.21.36,8.43.68c2.51.19,5,.25,7.53.34s5.3.16,7.95.35c2.8.2,5.58.44,8.38.72,2.63.26,5.26.64,7.9.92q3.7.38,7.38.86c3.87.6,7.72,1.26,11.57,2,2,.38,3.92.86,5.86,1.37s3.7,1.18,5.53,1.86,3.68,1.45,5.52,2.18,3.58,1.36,5.38,2c3.67,1.36,7.29,2.83,10.91,4.33,1.6.71,3.2,1.4,4.75,2.19l2.52,1.28a43.22,43.22,0,0,1,6.26,4.06,46.49,46.49,0,0,1,7.29,7.22c1.25,1.61,2.47,3.24,3.64,4.9.77,1.08,1.49,2.18,2.2,3.29s1.27,2.12,1.89,3.2c1.18,2.12,2.17,4.35,3.2,6.54.92,2,1.79,4,2.67,6s1.8,4.27,2.52,6.45c.83,2.46,1.61,4.91,2.25,7.41.58,2.28,1.2,4.57,1.64,6.88s.89,4.85,1.27,7.29c.13,1.27.24,2.54.37,3.82.14,1.42.11,2.88.18,4.32.11,2.95.08,5.89.1,8.84.05,5.71.19,11.41.38,17.12.18,5.39.64,10.78,1,16.16q.62,9.09.89,18.17c.18,5.78.21,11.56.26,17.34C681.67,391.58,681.82,397.16,682,402.74ZM633,287.27a3.39,3.39,0,0,0,2.36-4.13,3.35,3.35,0,0,0-1.55-2,3.54,3.54,0,0,0-2.58-.34c-1.12.19-2.25.37-3.38.53q-4,.55-8,1c-2.91.35-5.82.78-8.75,1-1.85.18-3.7.3-5.55.39a34.55,34.55,0,0,1-5.48-.19,32.51,32.51,0,0,1-6.62-1.84,14.11,14.11,0,0,1-1.91-1c-.11-.11-.24-.23-.35-.35a2.34,2.34,0,0,0-.14-.24c0-.11-.06-.21-.09-.33a28,28,0,0,1,1.08-3c1.94-4.56,3.93-9.14,6.85-13.17a41.27,41.27,0,0,1,6.13-6.18,24,24,0,0,1,3.1-1.94l.26,1.39c.21,1.23.44,2.48.67,3.72a4,4,0,0,0,1.91,2.48,4.14,4.14,0,0,0,5.69-1.49,4.38,4.38,0,0,0,.42-3.21c-.34-1.91-.68-3.83-1-5.73-.05-.34-.11-.69-.16-1-.06-.15-.11-.3-.18-.47a4.1,4.1,0,0,0-.76-1.47,6.44,6.44,0,0,0-1.07-1.26,5.68,5.68,0,0,0-2.32-1.35,10,10,0,0,0-2.09-.24,8.93,8.93,0,0,0-1.8.19,16.08,16.08,0,0,0-3.83,1.41,27.91,27.91,0,0,0-5.55,4A40.2,40.2,0,0,0,593,258a41.42,41.42,0,0,0-4.21,6.49c-1,2-1.93,4-2.77,6a2.69,2.69,0,0,0-.13.28l-.15.35c-.59,1.39-1.2,2.77-1.74,4.17-.3.79-.58,1.6-.83,2.41a7.37,7.37,0,0,0-.14,3.27,8.81,8.81,0,0,0,.84,2.63,11.49,11.49,0,0,0,1.54,2.28,9.46,9.46,0,0,0,2,1.61,11,11,0,0,0,1.94,1,35.57,35.57,0,0,0,4.82,1.76,34.64,34.64,0,0,0,5.78,1,52.41,52.41,0,0,0,11.06-.47c3.1-.31,6.17-.86,9.23-1.32l4.86-.73C627.76,288.29,630.4,287.85,633,287.27Zm-56.58-8.85a8.8,8.8,0,0,0,.43-3.33,7.91,7.91,0,0,0-1.21-3.59A8.17,8.17,0,0,0,573,269a15.26,15.26,0,0,0-2.33-1.12,27.67,27.67,0,0,0-3.68-1.28,39.8,39.8,0,0,0-7.71-1q-1.47-.09-2.95-.08l1.17-1.41c2.51-3.14,5-6.62,5.62-10.69a15,15,0,0,0,.19-2.59,9.23,9.23,0,0,0-.89-3.53,9.12,9.12,0,0,0-1.57-2.41,10.54,10.54,0,0,0-2.38-1.9,12.25,12.25,0,0,0-6.42-1.5H552a17.53,17.53,0,0,0-3.25.43,15,15,0,0,0-3,1c-.58.25-1.13.52-1.69.82a17.11,17.11,0,0,0-6.15,6.21,18.53,18.53,0,0,0-1.42,3,19.68,19.68,0,0,0-.93,2.8,11.09,11.09,0,0,0-.3,3.35,17.06,17.06,0,0,0,.63,3.17,4.6,4.6,0,0,0,3.4,3.22c-.2,3.11-.39,6.22-.38,9.35a57,57,0,0,0,.94,10.24l-1.2-.11a3.26,3.26,0,0,0-2.82,4.91,3.17,3.17,0,0,0,1.94,1.5c1.4.23,2.8.39,4.21.48a2.55,2.55,0,0,0,.65.54,2.76,2.76,0,0,0,2.09.28,2.59,2.59,0,0,0,1.15-.65c1.64,0,3.27,0,4.9,0a36.24,36.24,0,0,0,14.31-3,23.73,23.73,0,0,0,10.26-8.12A11.69,11.69,0,0,0,576.4,278.42ZM529.57,294a15.52,15.52,0,0,0-.19-4.18c-.09-.54-.19-1.08-.29-1.61-.2-1.08-.44-2.17-.67-3.24-.4-1.85-.82-3.72-1.31-5.55s-1-4-1.57-5.94c-.67-2.25-1.34-4.5-2-6.75-.57-1.9-1.25-3.78-1.93-5.64a63.78,63.78,0,0,0-3.83-8.7,19.19,19.19,0,0,0-2.38-3.6,12.86,12.86,0,0,0-1.15-1.2,6.4,6.4,0,0,0-2.15-1.3,4.28,4.28,0,0,0-1.69-.31,5.72,5.72,0,0,0-2.81.76,10,10,0,0,0-3,3.45,37,37,0,0,0-2.3,4.43c-.42.86-.83,1.71-1.21,2.58-.91,2.09-1.85,4.17-2.73,6.28-1.6,3.88-3.22,7.73-4.65,11.69-2.25,6.18-4.47,12.36-6.61,18.58a3.68,3.68,0,0,0,5.4,4.16,3.94,3.94,0,0,0,1.69-2.2c.64-1.86,1.27-3.74,1.93-5.6a1.18,1.18,0,0,0,.19-.08c2.88-1.36,5.81-2.63,8.73-3.9,4-1.51,8.07-3,12.2-4.23a2.8,2.8,0,0,0,1.86-1.78c.52,1.94,1,3.89,1.47,5.86.28,1.08.53,2.18.79,3.27.34,1.4.72,2.81,1,4.22,0,.19,0,.37.05.55a3.82,3.82,0,0,0,1,2.54,3.6,3.6,0,0,0,5.08,0A3.83,3.83,0,0,0,529.57,294Z" transform="translate(-199.46 -90.52)"/><path class="cls-1" d="M590.9,280.12a.74.74,0,0,0,0-.18.67.67,0,0,1,0,.16S590.9,280.11,590.9,280.12Zm44.43,3a3.39,3.39,0,0,1-2.36,4.13c-2.58.58-5.21,1-7.83,1.44l-4.86.73c-3.06.47-6.13,1-9.23,1.32a52.41,52.41,0,0,1-11.06.47,34.64,34.64,0,0,1-5.78-1,35.57,35.57,0,0,1-4.82-1.76,11,11,0,0,1-1.94-1,9.46,9.46,0,0,1-2-1.61,11.49,11.49,0,0,1-1.54-2.28,8.81,8.81,0,0,1-.84-2.63,7.37,7.37,0,0,1,.14-3.27c.25-.81.53-1.61.83-2.41.54-1.4,1.15-2.78,1.74-4.17l.15-.35a2.69,2.69,0,0,1,.13-.28c.84-2,1.74-4.06,2.77-6A41.42,41.42,0,0,1,593,258a40.2,40.2,0,0,1,5.18-5.48,27.91,27.91,0,0,1,5.55-4,16.08,16.08,0,0,1,3.83-1.41,8.93,8.93,0,0,1,1.8-.19,10,10,0,0,1,2.09.24,5.68,5.68,0,0,1,2.32,1.35,6.44,6.44,0,0,1,1.07,1.26,4.1,4.1,0,0,1,.76,1.47c.06.16.11.31.18.47.05.34.11.69.16,1,.37,1.9.71,3.82,1,5.73a4.38,4.38,0,0,1-.42,3.21,4.14,4.14,0,0,1-5.69,1.49,4,4,0,0,1-1.91-2.48c-.23-1.23-.45-2.48-.67-3.72l-.26-1.39a24,24,0,0,0-3.1,1.94,41.27,41.27,0,0,0-6.13,6.18c-2.92,4-4.91,8.61-6.85,13.17a28,28,0,0,0-1.08,3c0,.11.06.21.09.33a2.34,2.34,0,0,1,.14.24c.11.13.24.24.35.35a14.11,14.11,0,0,0,1.91,1,32.51,32.51,0,0,0,6.62,1.84,34.55,34.55,0,0,0,5.48.19c1.85-.09,3.7-.21,5.55-.39,2.93-.26,5.84-.69,8.75-1q4-.49,8-1l-.38.06.91-.13-.53.06c1.12-.16,2.25-.34,3.38-.53a3.54,3.54,0,0,1,2.58.34A3.35,3.35,0,0,1,635.33,283.14Z" transform="translate(-199.46 -90.52)"/><path class="cls-1" d="M628.35,281.27l-.91.13.38-.06Z" transform="translate(-199.46 -90.52)"/><path class="cls-1" d="M576.83,275.1a8.8,8.8,0,0,1-.43,3.33,11.69,11.69,0,0,1-1.11,2.51A23.73,23.73,0,0,1,565,289.05a36.24,36.24,0,0,1-14.31,3c-1.62,0-3.26,0-4.9,0a2.89,2.89,0,0,0,.76-2.7c-.29-1.4-.55-2.81-.76-4.22,2.7-.09,5.4-.18,8.09-.49a35,35,0,0,0,7.34-1.91,28.24,28.24,0,0,0,4.91-2.8,22.9,22.9,0,0,0,2.32-2.24,8.64,8.64,0,0,0,.59-1,7.83,7.83,0,0,0,.24-.89h0a0,0,0,0,0,0,0c-.4-.23-.82-.43-1.23-.62a27.58,27.58,0,0,0-5.13-1.31,52.68,52.68,0,0,0-9.86-.2c-1.88.14-3.75.24-5.63.47a15.92,15.92,0,0,0-1.88.37l-.35.14c0-1.62.05-3.25.14-4.87s.19-3.34.29-5a52,52,0,0,0,3.85-4.46,38.29,38.29,0,0,0,4.08-6.5,11.6,11.6,0,0,0,.45-1.56c0-.25,0-.5,0-.77a1.15,1.15,0,0,0-.1-.16l-.13-.08c-.29-.09-.55-.16-.84-.23q-.79,0-1.59,0a14.16,14.16,0,0,0-2.05.58,14.51,14.51,0,0,0-1.61.93,14.68,14.68,0,0,0-1.32,1.34v-.09a3.22,3.22,0,0,0-3.21-3.21,3.17,3.17,0,0,0-2.27.94,3.38,3.38,0,0,0-.94,2.27c-.23,3.43-.45,6.85-.65,10.28,0,.49-.06,1-.09,1.47a4.6,4.6,0,0,1-3.4-3.22,17.06,17.06,0,0,1-.63-3.17,11.09,11.09,0,0,1,.3-3.35,19.68,19.68,0,0,1,.93-2.8,18.53,18.53,0,0,1,1.42-3,17.11,17.11,0,0,1,6.15-6.21c.55-.3,1.11-.57,1.69-.82a15,15,0,0,1,3-1,17.53,17.53,0,0,1,3.25-.43H552a12.25,12.25,0,0,1,6.42,1.5,10.54,10.54,0,0,1,2.38,1.9,9.12,9.12,0,0,1,1.57,2.41,9.23,9.23,0,0,1,.89,3.53,15,15,0,0,1-.19,2.59c-.6,4.07-3.11,7.56-5.62,10.69l-1.17,1.41q1.47,0,2.95.08a39.8,39.8,0,0,1,7.71,1,27.67,27.67,0,0,1,3.68,1.28A15.26,15.26,0,0,1,573,269a8.17,8.17,0,0,1,2.62,2.51A7.91,7.91,0,0,1,576.83,275.1Z" transform="translate(-199.46 -90.52)"/><path class="cls-2" d="M569.31,275.75h0a7.83,7.83,0,0,1-.24.89,8.64,8.64,0,0,1-.59,1,22.9,22.9,0,0,1-2.32,2.24,28.24,28.24,0,0,1-4.91,2.8,35,35,0,0,1-7.34,1.91c-2.68.31-5.39.4-8.09.49,0-.19-.06-.38-.09-.57a73,73,0,0,1-.52-9.95l.35-.14a15.92,15.92,0,0,1,1.88-.37c1.88-.23,3.75-.33,5.63-.47a52.68,52.68,0,0,1,9.86.2,27.58,27.58,0,0,1,5.13,1.31c.42.19.83.39,1.23.62A0,0,0,0,1,569.31,275.75Z" transform="translate(-199.46 -90.52)"/><path class="cls-2" d="M554,251.4c0,.26,0,.52,0,.77a11.6,11.6,0,0,1-.45,1.56,38.29,38.29,0,0,1-4.08,6.5,52,52,0,0,1-3.85,4.46c.24-3.63.5-7.24.76-10.87a14.68,14.68,0,0,1,1.32-1.34,14.51,14.51,0,0,1,1.61-.93,14.16,14.16,0,0,1,2.05-.58q.79-.06,1.59,0c.29.06.55.14.84.23l.13.08A1.15,1.15,0,0,1,554,251.4Z" transform="translate(-199.46 -90.52)"/><path class="cls-1" d="M546.58,289.32a2.89,2.89,0,0,1-.76,2.7c-1.3,0-2.59-.06-3.89-.16a3.49,3.49,0,0,1-.6-1.08,34.51,34.51,0,0,1-1.42-5.14c0-.19-.08-.37-.1-.55a44.7,44.7,0,0,0,4.5.08l1.52-.05C546,286.51,546.29,287.92,546.58,289.32Z" transform="translate(-199.46 -90.52)"/><path class="cls-1" d="M543.19,250.52a3.22,3.22,0,0,1,3.21,3.21v.09a1.19,1.19,0,0,0-.13.13,19,19,0,0,0-1.4,2.46,16.05,16.05,0,0,0-.59,2c.11.47.23.94.35,1.41a4.62,4.62,0,0,1-3.19,5.62,4.56,4.56,0,0,1-2.22,0c0-.49.05-1,.09-1.47.2-3.43.43-6.85.65-10.28a3.38,3.38,0,0,1,.94-2.27A3.17,3.17,0,0,1,543.19,250.52Z" transform="translate(-199.46 -90.52)"/><path class="cls-1" d="M546.27,253.95a1.19,1.19,0,0,1,.13-.13c-.25,3.63-.52,7.24-.76,10.87-.58.6-1.2,1.18-1.84,1.74l-.55.35a5.87,5.87,0,0,0-2.18,1.26,4,4,0,0,0,3.88,6.64l.26-.1a73,73,0,0,0,.52,9.95c0,.19.05.38.09.57l-1.52.05a44.7,44.7,0,0,1-4.5-.08,57,57,0,0,1-.94-10.24c0-3.12.18-6.23.38-9.35a4.56,4.56,0,0,0,2.22,0,4.62,4.62,0,0,0,3.19-5.62c-.13-.47-.24-.94-.35-1.41a16.05,16.05,0,0,1,.59-2A19,19,0,0,1,546.27,253.95Z" transform="translate(-199.46 -90.52)"/><path class="cls-1" d="M545.64,264.69c-.1,1.68-.2,3.34-.29,5s-.14,3.25-.14,4.87l-.26.1a4,4,0,0,1-3.88-6.64,5.87,5.87,0,0,1,2.18-1.26l.55-.35C544.45,265.88,545.07,265.3,545.64,264.69Z" transform="translate(-199.46 -90.52)"/><path class="cls-1" d="M545.82,292a2.59,2.59,0,0,1-1.15.65,2.76,2.76,0,0,1-2.09-.28,2.55,2.55,0,0,1-.65-.54C543.23,291.95,544.52,292,545.82,292Z" transform="translate(-199.46 -90.52)"/><path class="cls-1" d="M541.32,290.76a3.49,3.49,0,0,0,.6,1.08c-1.41-.09-2.81-.25-4.21-.48a3.17,3.17,0,0,1-1.94-1.5A3.26,3.26,0,0,1,538.6,285l1.2.11c0,.19.06.37.1.55A34.51,34.51,0,0,0,541.32,290.76Z" transform="translate(-199.46 -90.52)"/><path class="cls-1" d="M529.38,289.81a15.52,15.52,0,0,1,.19,4.18,3.83,3.83,0,0,1-1.06,2.54,3.6,3.6,0,0,1-5.08,0,3.82,3.82,0,0,1-1-2.54c0-.19,0-.37-.05-.55-.26-1.41-.64-2.82-1-4.22-.26-1.1-.52-2.19-.79-3.27-.48-2-1-3.92-1.47-5.86a2.66,2.66,0,0,0,.05-1.6,2.56,2.56,0,0,0-.82-1.3,146.78,146.78,0,0,0-5.53-16.93,41.13,41.13,0,0,0-2.36-4.79c-.45.76-.87,1.55-1.27,2.34s-1,1.84-1.4,2.78L505.32,266c-1.49,3.5-3,7-4.31,10.54-.77,2.12-1.55,4.23-2.32,6.35-1.74.76-3.48,1.54-5.19,2.34a2.69,2.69,0,0,0-1.27,1.66,2.8,2.8,0,0,0,.29,2.13,2.75,2.75,0,0,0,1.65,1.27,2.78,2.78,0,0,0,1.94-.2c-.65,1.86-1.28,3.74-1.93,5.6a3.94,3.94,0,0,1-1.69,2.2,3.68,3.68,0,0,1-5.4-4.16c2.14-6.22,4.36-12.39,6.61-18.58,1.42-4,3-7.81,4.65-11.69.88-2.12,1.83-4.19,2.73-6.28.38-.87.79-1.73,1.21-2.58a37,37,0,0,1,2.3-4.43,10,10,0,0,1,3-3.45,5.72,5.72,0,0,1,2.81-.76,4.28,4.28,0,0,1,1.69.31,6.4,6.4,0,0,1,2.15,1.3,12.86,12.86,0,0,1,1.15,1.2,19.19,19.19,0,0,1,2.38,3.6,63.78,63.78,0,0,1,3.83,8.7c.68,1.86,1.36,3.74,1.93,5.64.68,2.25,1.35,4.5,2,6.75.59,2,1.06,4,1.57,5.94s.91,3.7,1.31,5.55c.23,1.07.47,2.15.67,3.24C529.2,288.72,529.3,289.26,529.38,289.81Z" transform="translate(-199.46 -90.52)"/><path class="cls-1" d="M519.15,278.48a2.66,2.66,0,0,1-.05,1.6c-.08-.33-.16-.65-.25-1-.16-.64-.34-1.27-.52-1.91A2.56,2.56,0,0,1,519.15,278.48Z" transform="translate(-199.46 -90.52)"/><path class="cls-1" d="M518.84,279.1c.09.33.18.65.25,1a2.8,2.8,0,0,1-1.86,1.78c-4.13,1.21-8.16,2.72-12.2,4.23-2.92,1.27-5.84,2.54-8.73,3.9a1.18,1.18,0,0,1-.19.08c.52-1.49,1-3,1.57-4.45.34-.92.67-1.84,1-2.76l1.62-.72c1.54-.67,3.07-1.32,4.65-1.9,3.58-1.32,7.15-2.62,10.82-3.68a2.66,2.66,0,0,1,2.54.62C518.5,277.83,518.68,278.46,518.84,279.1Z" transform="translate(-199.46 -90.52)"/><path class="cls-2" d="M518.33,277.19a2.66,2.66,0,0,0-2.54-.62c-3.67,1.06-7.24,2.36-10.82,3.68-1.57.58-3.11,1.23-4.65,1.9l-1.62.72c.77-2.12,1.55-4.23,2.32-6.35,1.31-3.56,2.82-7,4.31-10.54l2.46-5.38c.43-.94.93-1.86,1.4-2.78s.82-1.59,1.27-2.34a41.13,41.13,0,0,1,2.36,4.79A146.78,146.78,0,0,1,518.33,277.19Z" transform="translate(-199.46 -90.52)"/><path class="cls-1" d="M498.69,282.87c-.34.92-.67,1.84-1,2.76-.53,1.47-1.06,3-1.57,4.45a2.78,2.78,0,0,1-1.94.2,2.75,2.75,0,0,1-1.65-1.27,2.8,2.8,0,0,1-.29-2.13,2.69,2.69,0,0,1,1.27-1.66C495.22,284.4,497,283.62,498.69,282.87Z" transform="translate(-199.46 -90.52)"/><path class="cls-1" d="M394.85,269c.05,3.8-.05,7.59-.19,11.4s-.35,7.41-.69,11.1c-.34,3.84-.79,7.66-1.2,11.49a106.41,106.41,0,0,1-1.47,11.31,43.53,43.53,0,0,1-3.88,11c-2.78,5.33-6.61,10.26-12,13.22a59.07,59.07,0,0,1-5.84,2.78,42.31,42.31,0,0,1-4.86,1.76,36.17,36.17,0,0,1-6.46,1.15c-1.69.14-3.4.16-5.09.16l-10.93,0c-3.64,0-7.28.06-10.91.28s-7.25.58-10.88.82c-8.1.52-16.23.64-24.35.79a3.54,3.54,0,0,1-1.94-.53c.1-2,.28-4,.5-6,.05-.3.11-.6.16-.91a3.93,3.93,0,0,1,1.27-.24c7.22-.13,14.43-.3,21.64-.64,3.58-.16,7.14-.47,10.72-.74s7.27-.48,10.91-.59,7.13-.19,10.68-.21,6.83,0,10.23-.31a55.8,55.8,0,0,0,10.53-3.1,26.22,26.22,0,0,0,4.37-2.48,25.77,25.77,0,0,0,3.82-3.87,33.91,33.91,0,0,0,2.43-3.69c.71-1.27,1.35-2.57,1.94-3.89s1-2.85,1.42-4.31.78-3.19,1.07-4.81c.29-2.23.52-4.45.77-6.69.28-2.52.59-5.06.87-7.59q1.19-11.26,1.31-22.58c0-3.83-.18-7.63-.42-11.45-.23-3.53-.47-7.05-.86-10.58a100.55,100.55,0,0,0-4.36-16.68c-.54-1.54-1.07-3.09-1.55-4.65s-.83-3-1.22-4.51c-.3-1.18-.5-2.41-.69-3.6.72-.38,1.44-.73,2.17-1.06a33.58,33.58,0,0,1,4.12-1.22q.81,3.16,1.74,6.28c.94,3.19,2.12,6.32,2.91,9.56.91,3.68,1.78,7.37,2.44,11.11a98,98,0,0,1,1.1,11.36c.1,1.84.21,3.67.33,5.5S394.82,267.06,394.85,269Z" transform="translate(-199.46 -90.52)"/><path class="cls-1" d="M384.85,214.39c.37,1.66.76,3.31,1.18,5a33.58,33.58,0,0,0-4.12,1.22c-.73.33-1.45.68-2.17,1.06,0-.18-.06-.34-.09-.52-.33-2-.6-3.93-.86-5.89a3,3,0,0,1,.91-2.18,3.06,3.06,0,0,1,1.57-.84,3.28,3.28,0,0,1,.6-.06A3.08,3.08,0,0,1,384.85,214.39Z" transform="translate(-199.46 -90.52)"/><path class="cls-1" d="M380.83,210.22l.45,2a3.06,3.06,0,0,0-1.57.84,3,3,0,0,0-.91,2.18c.25,2,.53,3.93.86,5.89,0,.18.05.34.09.52a49.24,49.24,0,0,0-6.66,4.29,4.8,4.8,0,0,1-3.92.52,5.59,5.59,0,0,1-.77-.28c-.35.37-.71.72-1,1.08q-4,4.18-7.91,8.48c-5.29,5.82-10.39,11.79-15.23,18-5.47,7.18-10.38,14.75-15.42,22.22q-4.46,6.63-9,13.24c-2.9,4.21-5.68,8.5-8.3,12.9-1.39,2.33-2.77,4.66-4,7.05-1.15,2.17-2.22,4.36-3.25,6.57-2.15,4.6-4.24,9.21-6.23,13.88l-.05.13c-.67,1.55-1.34,3.11-1.9,4.71a29.75,29.75,0,0,0-1.17,4.46,3.87,3.87,0,0,0-2.54,3.22l-1.76-.14a45.17,45.17,0,0,1,1-7,62.83,62.83,0,0,1,2.24-6.73c1.81-4.9,3.89-9.7,6.07-14.46,1-2.23,2-4.45,3.15-6.62,1.18-2.34,2.46-4.65,3.74-6.94,2.51-4.45,5.09-8.87,7.9-13.14,2.9-4.42,5.74-8.88,8.48-13.41s5.73-9.32,8.61-14,5.62-9.08,8.77-13.4c3.39-4.63,7-9,10.84-13.31,3.49-3.93,7.08-7.8,10.73-11.59,2-2.07,4-4.07,6.15-6,2.42-2.14,5.05-4.06,7.62-6a3.76,3.76,0,0,1,3-.4A4,4,0,0,1,380.83,210.22Z" transform="translate(-199.46 -90.52)"/><path class="cls-1" d="M294.87,338.85c-.05.3-.11.6-.16.91-.23,2-.4,4-.5,6a3.91,3.91,0,0,1-1.9-3.31c0-.13,0-.26,0-.39A3.87,3.87,0,0,1,294.87,338.85Z" transform="translate(-199.46 -90.52)"/></g><path class="cls-3" d="M459.68,430.11a109.4,109.4,0,0,0-16.86,6.3,2.17,2.17,0,0,0-1,1.06,125.58,125.58,0,0,0-15.34,8.59c-.72.48-1.48.9-2.21,1.37s-1.6,1.13-2.39,1.71c-1.65,1.21-3.29,2.46-4.87,3.77a116.11,116.11,0,0,0-8.94,8.4,108.94,108.94,0,0,0-29.72,90.22,118.48,118.48,0,0,0,2.4,12.69,109.82,109.82,0,0,0,3.79,12.11A112.56,112.56,0,0,0,432,633.54a105.79,105.79,0,0,0,22.58,10.14,116.83,116.83,0,0,0,23.85,4.9,113.36,113.36,0,0,0,23.53-.13,108.14,108.14,0,0,0,24.3-5.42c3.78-1.33,7.49-2.9,11.12-4.6A100.83,100.83,0,0,0,548,632.66a116.44,116.44,0,0,0,19-15,114.77,114.77,0,0,0,15.08-18,112.42,112.42,0,0,0,11.15-21,121,121,0,0,0,6.6-23A98.88,98.88,0,0,0,601.31,543a106,106,0,0,0,0-12.59,113.51,113.51,0,0,0-4.16-24.47,106.61,106.61,0,0,0-10-23.36,117.3,117.3,0,0,0-14.41-19.76,113.06,113.06,0,0,0-18.55-16.56,109.42,109.42,0,0,0-45-18.6A114.83,114.83,0,0,0,489.92,426a113.46,113.46,0,0,0-30.25,4.09Zm44.63,1.37a108.27,108.27,0,0,1,13.58,2.77,111.44,111.44,0,0,1,13.34,4.63,113.52,113.52,0,0,1,24.49,14.32,102.33,102.33,0,0,1,26.11,29.59,108.39,108.39,0,0,1,15.1,56.06,123.54,123.54,0,0,1-1.1,15.31,92.89,92.89,0,0,1-2.62,12.57A107.4,107.4,0,0,1,588.9,579l.2-.46a109.35,109.35,0,0,1-13.76,23.78A105.7,105.7,0,0,1,556.8,621l.44-.34-1.41,1.08.32-.25A107.9,107.9,0,0,1,504.46,643a107.27,107.27,0,0,1-27.31.07c-2.22-.3-4.43-.64-6.62-1.09q-3.52-.72-7-1.64a102.08,102.08,0,0,1-13-4.47A117.83,117.83,0,0,1,425.4,621.2a111.53,111.53,0,0,1-19-19,110.3,110.3,0,0,1-13.67-23.32A108.33,108.33,0,0,1,385.42,552a113.35,113.35,0,0,1,0-28.59,112.91,112.91,0,0,1,7.91-28.59,114.32,114.32,0,0,1,6.46-12.77,119.94,119.94,0,0,1,7.86-11.58q2.11-2.72,4.38-5.3c1.77-2,3.66-3.92,5.6-5.78,1.73-1.66,3.54-3.26,5.34-4.84s3.84-3.09,5.7-4.71a109.49,109.49,0,0,1,9.38-6.19c1.76-1,3.57-2,5.4-2.91a2.57,2.57,0,0,0,1.79-.25q1.59-.74,3.2-1.43a112.72,112.72,0,0,1,28.28-7.67l-.62.09a109.69,109.69,0,0,1,28.21,0Zm-55.36,7.4-.51.22.51-.22Zm82.51.1.3.13-.3-.13ZM407.9,470.15l-.15.19.15-.19ZM596,524.22l0,.18,0-.18Zm-20.7,78.07-.3.39.3-.39ZM449.95,635.65l.53.22-.53-.22Zm27.5,7.47.36,0-.36,0Z" transform="translate(-199.46 -90.52)"/><path class="cls-4" d="M515.29,474.8l0,0A38.76,38.76,0,0,0,509.2,468a17.63,17.63,0,0,0-3.2-1.83,31.28,31.28,0,0,0-6.87-1.83,15.53,15.53,0,0,0-3.08,0,14.31,14.31,0,0,0-2.67.75,13.39,13.39,0,0,0-2.26,1.34,19.94,19.94,0,0,0-2.7,2.72,32.62,32.62,0,0,0-2,3.08c-.72,1.26-1.44,2.51-2.09,3.79l-2.17,4.35q-1.32,2.6-2.54,5.26l-.18.44a2.87,2.87,0,0,1-.73,1.27l-.59.45a2.89,2.89,0,0,1-.74.3c-.15.58-.3,1.17-.45,1.76-1,3.9-1.69,7.85-2.26,11.81q-.31,2.47-.55,4.94-.68,6.85-.86,13.72c-.06,2.42-.1,4.84-.08,7.26a54.67,54.67,0,0,0,.51,6.38c.23,1.57.49,3.13.81,4.68a40.79,40.79,0,0,0,1.22,4.43c.94,2.91,2,5.78,3.12,8.61.58,1.33,1.2,2.64,1.92,3.92a34.64,34.64,0,0,0,2.22,3.48,17.34,17.34,0,0,0,2.26,2.34,14.63,14.63,0,0,0,2.5,1.49,30.37,30.37,0,0,0,6.43,1.64,14.21,14.21,0,0,0,2.89,0,16.67,16.67,0,0,0,3.36-.94,15.08,15.08,0,0,0,2.64-1.58,51.83,51.83,0,0,0,4.39-4c.7-.7,1.35-1.44,2-2.18.48-.55.92-1.13,1.38-1.71s1-1.33,1.41-2,.92-1.38,1.31-2.1.84-1.44,1.19-2.19l1.07-2.31c.66-1.61,1.33-3.21,1.86-4.85q1-3,1.86-6c.54-1.86,1-3.72,1.48-5.59.41-1.7.64-3.42.89-5.14.46-4.14.86-8.27,1.08-12.42.07-1.14.1-2.27.13-3.42s0-2.11,0-3.17c0-2-.29-3.9-.51-5.85-.36-2.41-.72-4.82-1.11-7.22-.61-3.76-1.12-7.57-2.55-11.12A32.53,32.53,0,0,0,515.29,474.8Zm11.09,31.54c0,2.31-.11,4.64-.32,6.95-.22,2.53-.48,5.06-.76,7.59-.11,1.08-.27,2.17-.39,3.26-.09.74-.22,1.48-.34,2.2-.06.45-.12.91-.22,1.36-.48,2.36-1,4.7-1.66,7s-1.33,4.73-2.07,7.07a64.19,64.19,0,0,1-2.56,6.72,41.58,41.58,0,0,1-3.3,6.13,46.32,46.32,0,0,1-4.41,5.81c-.79.87-1.58,1.74-2.44,2.55a26.52,26.52,0,0,1-4.9,4,15.86,15.86,0,0,1-8.73,2.17,25,25,0,0,1-3.91-.54,20.13,20.13,0,0,1-7-2.66,16,16,0,0,1-3.17-2.71c-.45-.55-.91-1.08-1.33-1.65-2.86-3.89-4.51-8.49-6-13-.78-2.3-1.53-4.6-2.16-6.95a29.37,29.37,0,0,1-.67-3.23c-.19-1.3-.4-2.6-.54-3.9a53.75,53.75,0,0,1-.38-6.89c.06-2.42.16-4.84.28-7.26.23-4.58.64-9.16,1.14-13.72.54-4.87,1.22-9.71,2.22-14.5.4-1.9.86-3.79,1.33-5.68a2.65,2.65,0,0,1-.12-1.89c.52-1.29,1.09-2.55,1.69-3.81.2-.67.41-1.35.65-2s.43-1.19.65-1.78.58-1.34.87-2a25.89,25.89,0,0,1,1.71-3.07c1.34-2.19,2.81-4.3,4.29-6.4a1.89,1.89,0,0,1,1.09-.84l.08,0a20.26,20.26,0,0,1,2.31-2.1,15,15,0,0,1,2.11-1.46,17.38,17.38,0,0,1,2-.89,14.56,14.56,0,0,1,4.39-.95c.23,0,.47,0,.7,0a17.46,17.46,0,0,1,4,.48,36.83,36.83,0,0,1,4.38,1.32,26.25,26.25,0,0,1,4.18,1.89,21.42,21.42,0,0,1,6,5.32l0,0,0,0,.11.14c1.1,1.42,2.17,2.85,3.23,4.3a29.48,29.48,0,0,1,5.17,11c.58,2.66,1,5.36,1.36,8.05.17,1.17.36,2.33.52,3.51s.39,2.59.54,3.9c.11,1.14.27,2.27.33,3.42S526.37,505,526.38,506.33Z" transform="translate(-199.46 -90.52)"/><path class="cls-4" d="M523.11,505.05c0,1.06,0,2.12,0,3.17s-.06,2.28-.13,3.42c-.23,4.15-.62,8.29-1.08,12.42-.25,1.72-.48,3.45-.89,5.14-.46,1.87-.94,3.73-1.48,5.59s-1.2,4-1.86,6c-.54,1.64-1.2,3.25-1.86,4.85l-1.07,2.31c-.35.75-.8,1.46-1.19,2.19s-.88,1.4-1.31,2.1-.94,1.36-1.41,2-.89,1.17-1.38,1.71c-.67.74-1.32,1.48-2,2.18a51.83,51.83,0,0,1-4.39,4,15.08,15.08,0,0,1-2.64,1.58,16.67,16.67,0,0,1-3.36.94,14.21,14.21,0,0,1-2.89,0,30.37,30.37,0,0,1-6.43-1.64,14.63,14.63,0,0,1-2.5-1.49,17.34,17.34,0,0,1-2.26-2.34,34.64,34.64,0,0,1-2.22-3.48c-.71-1.28-1.33-2.59-1.92-3.92-1.15-2.83-2.18-5.7-3.12-8.61a40.79,40.79,0,0,1-1.22-4.43c-.32-1.55-.58-3.11-.81-4.68a54.67,54.67,0,0,1-.51-6.38c0-2.42,0-4.84.08-7.26q.18-6.87.86-13.72.25-2.48.55-4.94c.58-4,1.3-7.91,2.26-11.81.14-.59.3-1.17.45-1.76a2.89,2.89,0,0,0,.74-.3l.59-.45a2.87,2.87,0,0,0,.73-1.27l.18-.44q1.22-2.66,2.54-5.26l2.17-4.35c.65-1.29,1.37-2.54,2.09-3.79a32.62,32.62,0,0,1,2-3.08,19.94,19.94,0,0,1,2.7-2.72,13.39,13.39,0,0,1,2.26-1.34,14.31,14.31,0,0,1,2.67-.75,15.53,15.53,0,0,1,3.08,0A31.28,31.28,0,0,1,506,466.2a17.63,17.63,0,0,1,3.2,1.83,38.76,38.76,0,0,1,6.06,6.73l0,0a32.53,32.53,0,0,1,3.64,6.07c1.43,3.55,1.94,7.36,2.55,11.12.39,2.4.76,4.81,1.11,7.22C522.82,501.15,523.08,503.1,523.11,505.05Z" transform="translate(-199.46 -90.52)"/><path class="cls-4" d="M499.56,598.33a9,9,0,0,1,0,1.28c-.08.4-.19.79-.31,1.17a11.22,11.22,0,0,1-.86,1.45,12.82,12.82,0,0,1-1.7,1.7,21,21,0,0,1-3.23,1.86,13.11,13.11,0,0,1-2.21.61,14,14,0,0,1-2.45-.05,11.87,11.87,0,0,1-2.1-.55,14.38,14.38,0,0,1-2-1.18,13.18,13.18,0,0,1-1.35-1.33,10.57,10.57,0,0,1-.67-1.13,8.22,8.22,0,0,1-.23-1,14.85,14.85,0,0,1,0-2.66,18.09,18.09,0,0,1,.92-3.46,34.08,34.08,0,0,1,3.74-5.87,44.36,44.36,0,0,1,5,1.67,24.64,24.64,0,0,1,4.59,2.63,13.52,13.52,0,0,1,1.61,1.55,8.34,8.34,0,0,1,.64,1.1A12.1,12.1,0,0,1,499.56,598.33Z" transform="translate(-199.46 -90.52)"/><path class="cls-4" d="M498.95,596.14a8.34,8.34,0,0,0-.64-1.1,13.52,13.52,0,0,0-1.61-1.55,24.64,24.64,0,0,0-4.59-2.63,44.36,44.36,0,0,0-5-1.67,34.08,34.08,0,0,0-3.74,5.87,18.09,18.09,0,0,0-.92,3.46,14.85,14.85,0,0,0,0,2.66,8.22,8.22,0,0,0,.23,1,10.57,10.57,0,0,0,.67,1.13,13.18,13.18,0,0,0,1.35,1.33,14.38,14.38,0,0,0,2,1.18,11.87,11.87,0,0,0,2.1.55,14,14,0,0,0,2.45.05,13.11,13.11,0,0,0,2.21-.61,21,21,0,0,0,3.23-1.86,12.82,12.82,0,0,0,1.7-1.7,11.22,11.22,0,0,0,.86-1.45c.12-.39.23-.77.31-1.17a9,9,0,0,0,0-1.28A12.1,12.1,0,0,0,498.95,596.14Zm4.72.58a11.11,11.11,0,0,1-.12,5.46,13.4,13.4,0,0,1-2.57,4.62,16,16,0,0,1-3,2.69,14,14,0,0,1-3.9,2,11.63,11.63,0,0,1-3.29.58,20.08,20.08,0,0,1-3-.22,13,13,0,0,1-4.77-1.69,13.87,13.87,0,0,1-4.5-4.17,8.81,8.81,0,0,1-1.18-2.39,12.32,12.32,0,0,1-.43-2.46,14.43,14.43,0,0,1,.06-2.92,18,18,0,0,1,.52-2.91,19.37,19.37,0,0,1,2.18-5c.66-1,1.36-2.06,2.09-3.06a2.61,2.61,0,0,1-.33-2,2.49,2.49,0,0,1,1.11-1.44,2.21,2.21,0,0,1,1.17-.31,4.33,4.33,0,0,1,.69.07c1.26.22,2.5.48,3.74.78a20.23,20.23,0,0,1,2.56.76,32.53,32.53,0,0,1,6.82,3.29,18.1,18.1,0,0,1,4.14,3.64A10.89,10.89,0,0,1,503.67,596.71Z" transform="translate(-199.46 -90.52)"/></svg>