<?xml version="1.0" encoding="UTF-8"?>
<svg fill="#272C31" width="100pt" height="100pt" version="1.1" viewBox="0 0 100 100" xmlns="http://www.w3.org/2000/svg">
 <g>
  <path d="m94.922 81.539v-54.309h-17.23v2.3086h14.922l0.003907 52h-85.234v-52h14.922v-2.3086h-17.227v54.309h-5.3828v4.6172l4.3086 6h92.309l4.3086-6v-4.6172zm3.2305 3.8438l-3.0781 4.3086h-89.996l-3.0781-4.3086v-1.5391h96.152z"/>
  <path d="m33.078 42l1.3828 2.9219c0.30859 0.46094 0.46094 0.76953 0.61719 1.2305l0.15234 0.15234c2.3086 4.1523 4 8.7695 5.0781 13.691h-1.8477v2.3086h2.3086c0.15234 0.46094 0.15234 1.0781 0.30859 1.6914 0.15234 1.3828 1.2305 2.3086 2.4609 2.6172 0.46094 2.9219 2.9219 5.2305 6 5.2305 3.0781 0 5.5391-2.3086 6-5.2305 1.5391 0 2.7695-1.2305 2.9219-2.6172 0-0.15234 0-0.46094 0.15234-0.61719 0-0.30859 0.15234-0.76953 0.15234-1.0781h2.3086v-2.3086h-1.8477c1.2305-5.2305 3.0781-10.152 5.6914-14.617 0.15234-0.15234 0.15234-0.30859 0.30859-0.61719l0.15234-0.15234c1.6914-2.9219 2.4609-6.3086 2.3086-9.6914-0.46094-9.0781-7.6914-16.309-16.617-16.922-10.461-0.76953-19.078 7.5391-19.078 17.848 0.007812 2.0078 0.31641 4.0078 1.0859 6.1602zm16.613 27.383c-1.6914 0-3.2305-1.2305-3.6914-2.9219h7.2305c-0.30859 1.6914-1.6914 2.9219-3.5391 2.9219zm6.7695-6.4609c0 0.15234 0 0.46094-0.15234 0.61719 0 0.30859-0.30859 0.61719-0.76953 0.61719h-11.383c-0.30859 0-0.61719-0.30859-0.76953-0.61719 0-0.46094-0.15234-0.92187-0.15234-1.3828h13.23c-0.003906 0.30469-0.003906 0.46094-0.003906 0.76562zm-8.4609-13.074c0.61719 0 1.2305 0.15234 1.8477 0.15234 0.61719 0 1.2305 0 1.8477-0.15234-0.15234 2.6172-0.15234 5.6914-0.15234 8.7695v1.3828h-3.5391v-1.3828c0.14844-3.2344 0.14844-6.3086-0.003906-8.7695zm2.9219-29.695c7.8477 0.46094 14.152 6.9219 14.461 14.77 0.15234 2.9219-0.46094 5.8477-2 8.4609-0.15234 0.30859-0.30859 0.46094-0.46094 0.76953-2.7695 4.6172-4.7695 10.152-6 15.691h-3.0781v-1.3828c0-2.4609 0-6.1523 0.15234-9.0781 1.6914-0.46094 3.2305-1.0781 4.1523-2 0.61719-0.61719 0.92187-1.3828 0.92187-2.1523 0-0.46094 0-1.0781-0.30859-1.5391-0.61719-1.2305-1.8477-1.8477-3.0781-1.8477-0.76953 0-2.4609 0.46094-3.3828 3.0781-0.15234 0.61719-0.30859 1.3828-0.46094 2.4609-0.61719 0-1.2305 0.15234-2 0.15234-0.76953 0-1.3828 0-2-0.15234-0.15234-1.0781-0.30859-1.8477-0.46094-2.4609-0.92188-2.6172-2.6172-2.9219-3.3828-3.0781-1.2305-0.15234-2.6172 0.61719-3.0781 1.8477-0.30859 0.46094-0.30859 0.92188-0.30859 1.5391 0 0.76953 0.30859 1.5391 0.92188 2.1523 0.92188 0.92188 2.4609 1.6914 4.1523 2 0.15234 2.9219 0.15234 6.6172 0.15234 9.0781v1.3828h-2.9219c-1.2305-5.3828-3.0781-10.461-5.5391-14.922l-0.15234-0.15234c-0.15234-0.30859-0.46094-0.76953-0.61719-0.92188l-1.3828-2.7695c-0.61719-1.6914-0.92188-3.5391-0.92188-5.2305 0.007813-9.0781 7.5469-16.309 16.621-15.695zm5.6953 25.539c-0.30859 0.46094-1.2305 0.92188-2.3086 1.2305 0-0.46094 0.15234-0.92188 0.30859-1.2305 0.30859-0.92188 0.76953-1.3828 1.2305-1.3828 0.46094 0 0.76953 0.15234 0.92188 0.46094 0.15234 0.30859 0 0.61328-0.15234 0.92188zm-13.539 0c-0.15234-0.30859-0.30859-0.61719-0.15234-0.92188 0.15234-0.30859 0.61719-0.61719 0.92188-0.46094 0.46094 0 1.0781 0.61719 1.2305 1.3828 0.15234 0.30859 0.15234 0.76953 0.30859 1.2305-1.0781-0.30469-1.8477-0.76953-2.3086-1.2305z"/>
  <path d="m42.113 13.078l1.4727 3.5547-2.1328 0.88281-1.4727-3.5547z"/>
  <path d="m28.605 25.234l3.5547 1.4727-0.88281 2.1328-3.5547-1.4727z"/>
  <path d="m31.109 42.059l0.88281 2.1328-3.5547 1.4727-0.88281-2.1328z"/>
  <path d="m68.918 42.309l3.5547 1.4727-0.88281 2.1328-3.5547-1.4727z"/>
  <path d="m72.551 27.633l-3.5547 1.4727-0.88281-2.1328 3.5547-1.4727z"/>
  <path d="m58.203 13.242l2.1328 0.88281-1.4727 3.5547-2.1328-0.88281z"/>
  <path d="m49.078 8h2.3086v7.6914h-2.3086z"/>
  <path d="m31.309 15.102l5.4375 5.4375-1.6328 1.6328-5.4375-5.4375z"/>
  <path d="m22.309 34.309h7.6914v2.3086h-7.6914z"/>
  <path d="m34.922 48.746l1.6328 1.6328-5.4375 5.4375-1.6328-1.6328z"/>
  <path d="m68.551 56.086l-5.4375-5.4375 1.6328-1.6328 5.4375 5.4375z"/>
  <path d="m70 34.617h7.6914v2.3086h-7.6914z"/>
  <path d="m68.871 15.406l1.6328 1.6328-5.4375 5.4375-1.6328-1.6328z"/>
 </g>
</svg>
