<?xml version="1.0" encoding="UTF-8"?>
<svg fill="#FB5607" width="100pt" height="100pt" version="1.1" viewBox="0 0 100 100" xmlns="http://www.w3.org/2000/svg">
 <g>
  <path d="m94.922 76.461v-63.383h-89.844v63.383h-5.3828v4.6172l4.3086 6h92.309l4.3086-6v-4.6172zm-87.539-61.078h85.23v61.078h-85.23zm90.77 64.926l-3.0781 4.3086h-89.996l-3.0781-4.3086v-1.5391h96.152z"/>
  <path d="m44.922 21.23h-15.078v5.5391h-5.5391v5.5391h-5.5391v38.922h51.539v-5.5391h5.5391v-5.5391h5.5391v-32.77h-29.844zm22.926 47.848h-46.926v-34.309h14l6.6172 6.1523h26.309zm5.5352-5.5391h-3.2305v-24.922h-27.691l-6.6172-6.1523h-9.2305v-3.2305h11.848l6.6172 6.1523h28.461v28.152zm5.6953-5.6914h-3.2305v-24.926h-30l-6.6172-6.1523h-7.0781v-3.2305h11.848l6.6172 6.1523h28.461z"/>
  <path d="m31.539 63.539h2.3086v2.3086h-2.3086z"/>
  <path d="m25.539 63.539h2.3086v2.3086h-2.3086z"/>
  <path d="m37.539 63.539h2.3086v2.3086h-2.3086z"/>
  <path d="m43.539 63.539h2.3086v2.3086h-2.3086z"/>
 </g>
</svg>
