<svg xmlns="http://www.w3.org/2000/svg" viewBox="0 0 702.4 499.86"><defs><style>.cls-1,.cls-6{fill:#bebebe;}.cls-1{opacity:0.83;}.cls-2{fill:#3975e4;}.cls-3{fill:#fff;}.cls-4{fill:#7f7f7f;}.cls-5{fill:none;}.cls-7{fill:#996425;}.cls-8{fill:#6edaf4;}</style></defs><title>find_it_fast</title><g id="Search_shadow" data-name="Search shadow"><path class="cls-1" d="M322.49,412.41c-2.45,0-4.89.11-7.34.19s-4.71,0-7.07,0c-2.15,0-4.29.08-6.44.21-1.86.11-3.7.09-5.56.13a50.65,50.65,0,0,0-8,.86c-1.84.34-3.65.8-5.5,1.13s-3.7.4-5.55.58a57.82,57.82,0,0,1-7.58.4c-2.36-.08-4.71-.21-7.08-.2-2.78,0-5.54.15-8.3.37-2.46.19-4.9.35-7.37.39-2.25,0-4.5.17-6.75.36-5.06.43-10.13.71-15.2,1a57,57,0,0,1-9.16-.34c-.94-.16-1.87-.33-2.8-.53-1.72-.37-3.46-.58-5.21-.81a52.13,52.13,0,0,0-7.11-.32c-4.75,0-9.53.14-14.28.37-4.53.21-9.06.74-13.58,1.18a72.74,72.74,0,0,1-7.48.55c-2.36,0-4.75-.22-7.11-.42-2.51-.22-5-.5-7.53-.63a66.23,66.23,0,0,0-7.21.13c-2.36.14-4.69.23-7.05.15-2.07-.07-4.14-.24-6.2-.35s-4.41-.09-6.62-.16c-2.43-.08-4.86-.16-7.29-.27-2.21-.1-4.41-.14-6.62-.12-1.23,0-2.46.12-3.68.12s-2.24-.13-3.36-.16c-3.82-.11-7.56.95-11.27,1.71-2.62.54-4.1,3.59-3.43,6A4.93,4.93,0,0,0,90,426.79a5.12,5.12,0,0,0,3.78.5c1.06-.22,2.12-.43,3.19-.61a32,32,0,0,1,6.12,0c2.4.36,4.79.82,7.22,1,2.24.2,4.5.27,6.75.31,2.4,0,4.81,0,7.21-.06,2.13,0,4.25,0,6.37-.14s4.35-.29,6.53-.34,4.57-.18,6.86-.27c2.48-.09,4.94-.18,7.42-.08s4.83.25,7.25.35c3.36.14,6.71.35,10,.76l-1.39-.19c2.79.38,5.56.7,8.37.88,2.34.14,4.67.31,7,.49,4.57.34,9.13.58,13.7.73,2.37.07,4.74.09,7.11.13s4.84.16,7.26.22c4.79.12,9.6,0,14.37-.39,5-.37,10-.69,15-1.2,2.3-.23,4.6-.39,6.9-.48s4.87-.37,7.3-.46c5.19-.2,10.34.36,15.52.54,4.77.16,9.53.41,14.28.87a101,101,0,0,0,14.3.58c2.46-.12,4.92-.45,7.38-.62s4.72-.29,7.08-.41,4.91-.34,7.37-.49,4.85-.22,7.27-.37,5-.4,7.52-.6,5-.38,7.48-.65a88.11,88.11,0,0,1,19.41-.27c2.4.35,4.8.7,7.22.84s4.63.21,6.94.22c5,0,10-.3,15-.39,4.55-.09,9.11,0,13.66.1,2.32,0,4.63.12,6.95.31a37.69,37.69,0,0,0,7.64.36,5.59,5.59,0,0,0,4.82-8.41,5.35,5.35,0,0,0-3.34-2.57c-2.62-.38-5.25-.62-7.89-.86-2.2-.2-4.39-.4-6.59-.51-4.34-.21-8.68-.45-13-.59-4.55-.15-9.11-.21-13.66-.44-4.39-.22-8.82-.42-13.18-.92-2.51-.35-5-.69-7.54-.81-2.37-.11-4.73-.08-7.1-.11s-4.54-.06-6.82,0c-2.52,0-5,.11-7.56,0-4.61-.13-9.21-.25-13.82-.25Z" transform="translate(-83.86 -178.03)"/><path class="cls-1" d="M680.67,327.71a8.55,8.55,0,0,0-1.67,1.39,11.26,11.26,0,0,0-2.81,4,7.34,7.34,0,0,0-.31,1.8,12.58,12.58,0,0,0,.21,2.29,10.35,10.35,0,0,0,.71,2.06,13.79,13.79,0,0,1,.58,2.3,46.15,46.15,0,0,1-.24,7.39,57.63,57.63,0,0,0,0,8.25c.21,3,.86,5.92,1.35,8.86.46,2.78,1,5.53,1.48,8.32.29,2.23.57,4.45.78,6.69v.09c0,.56,0,1.11-.09,1.67-.41,2.28-1.1,4.49-1.63,6.74-.28,1.2-.51,2.4-.77,3.6-.29,1.36-.66,2.7-.94,4.05-.54,2.61-1.06,5.23-1.71,7.81-.3,1.2-.62,2.38-.83,3.61-.17,1-.27,2.09-.51,3.12a29,29,0,0,1-3,1.5c-1.53.57-3.08,1-4.66,1.4-1.18.32-2.35.69-3.53,1l-3.44.16c-3.55.16-7.09.76-10.61,1.26-3.86.47-7.72.78-11.6,1-1.93.13-3.85.37-5.77.54l-.82.07-2.5-.22c-1.89-.15-3.77-.35-5.66-.54s-3.91-.32-5.87-.44c-1-.07-2.07-.16-3.09-.28-3.94-.61-7.84-1.47-11.81-1.89A93.44,93.44,0,0,0,590,415c-4,.07-8.05.33-12.08.55s-8,.25-11.95.27-7.71.07-11.57.32c-1.95.13-3.88.36-5.83.5s-4.11.28-6.16.49a90,90,0,0,1-11.41.67c-1.8,0-3.59,0-5.39-.09-2-.05-4-.19-5.94-.28-3.82-.17-7.64-.1-11.47,0s-7.61,0-11.43-.08-7.65.33-11.48.63l-2,.14a4.34,4.34,0,0,0-.75-.05v0c-1.26,0-2.52.07-3.77.18l-2.57.07c-1.7,0-3.4.08-5.1.07-3,0-6.05-.19-9.08-.24-1.08,0-2.15,0-3.22.09h-1c-4.08-.06-8.15-.17-12.23-.22s-7.93-.18-11.88-.36l-4.33-.18c-.53-.08-1.05-.16-1.58-.2a5.68,5.68,0,0,0-.86,0,4.81,4.81,0,0,0-.94.1q-2.45-.07-4.91-.1c-4.14,0-8.29,0-12.42-.37-1.55-.23-3.1-.51-4.65-.78-2.3-.41-4.62-.73-6.95-1-2-.18-4-.25-6-.39s-4-.26-5.93-.33c-4-.16-8-.17-12-.25s-8.19-.29-12.29-.39-7.9-.25-11.85-.39-8,0-12,0c-2,0-4,.06-6,.16-2.27.11-4.51.38-6.76.68a112.68,112.68,0,0,0-11.66,2.2c-2.09.52-4.17,1.09-6.23,1.72a2.68,2.68,0,0,0-1.18,4.47,2.55,2.55,0,0,0,1.89.78c1.93-.23,3.87-.49,5.8-.62,2.1-.14,4.2-.22,6.3-.32,1.83-.09,3.67-.11,5.5-.17,2-.07,4-.15,6-.17,8.1-.07,16.2.25,24.29.65,4,.19,7.91.23,11.87.38s7.94.22,11.91.25,8.15.14,12.23.34,7.94.18,11.91.48c1.87.14,3.73.36,5.6.52,1,.09,2,.13,3,.16a3.75,3.75,0,0,0,3.72,3.52c3.44,0,6.88-.12,10.32,0,3.18.08,6.36.07,9.54.3a88.16,88.16,0,0,0,9.2.3,46.22,46.22,0,0,0,4.9-.46H451c4.18,0,8.34-.08,12.52-.36,2.6-.17,5.19-.43,7.79-.64l4.91,0c3.12,0,6.24,0,9.36,0,4.6,0,9.2-.07,13.8,0,3.84.07,7.68,0,11.51-.3,1.86-.12,3.71-.28,5.57-.41s3.86-.21,5.79-.31,3.84-.27,5.77-.44l.85-.07,4.34.05c1.89,0,3.77.1,5.66.15,2.05.06,4.11,0,6.16,0,8-.09,16-.09,24-.06l4.08,0c2.95.45,5.89.92,8.86,1.22,4,.41,8.09.77,12.14,1,3.72.25,7.44.37,11.16.53s7.56.4,11.34.55a99.48,99.48,0,0,0,11.52-.36c3.76-.28,7.51-.82,11.23-1.44l2.12,0c3.81-.06,7.64-.24,11.44-.62a99.1,99.1,0,0,0,12.54-1.87c1.77-.41,3.54-.86,5.31-1.29.93-.22,1.84-.47,2.75-.76a29.6,29.6,0,0,0,3.64-1.52,19.56,19.56,0,0,0,2.84-1.58,10.85,10.85,0,0,0,3.17-3.27,11.41,11.41,0,0,0,1.11-2.7c.26-.83.45-1.69.68-2.52s.51-1.62.79-2.41a49.75,49.75,0,0,0,1.59-5.27c.4-1.79.64-3.6.92-5.41l.13-.33a26.11,26.11,0,0,0,1.55-10.82c-.09-1.64-.28-3.29-.39-4.93s-.32-3.46-.54-5.2-.38-3.3-.59-5c-.12-.9-.25-1.79-.39-2.68,0-1.5.08-3,0-4.51,0-1.86-.15-3.73-.05-5.6s.29-3.71.46-5.57.27-3.78.33-5.68.15-3.73.14-5.6-.06-3.91-.24-5.85c-.11-1.18-.24-2.36-.45-3.54-.36-2.08-1-4.23-2.85-5.46a4.47,4.47,0,0,0-2.45-.7,4.25,4.25,0,0,0-2.26.62ZM684,334.2l0,.21q0-.1,0-.21Zm-4.18,39.14.09.69-.09-.69Zm-5.27,38c0,.1-.08.2-.13.3l.13-.3Z" transform="translate(-83.86 -178.03)"/></g><g id="Search_bar_outline" data-name="Search bar outline"><path class="cls-2" d="M684.34,327.39a2,2,0,0,1-1.42,1.91c0-.83,0-1.67,0-2.5a2.67,2.67,0,0,0-.42-1.44A2.06,2.06,0,0,1,684.34,327.39Z" transform="translate(-83.86 -178.03)"/><path class="cls-2" d="M657.28,415.32c1.32-.17,2.65-.33,3.95-.59,1.54-.31,3.06-.65,4.58-1s2.81-.8,4.21-1.23,2.67-.8,4-1.29a5.77,5.77,0,0,0,.76-.44,1.07,1.07,0,0,0,.16-.14l.1-.17a24.25,24.25,0,0,0,.55-2.56c.15-.73.3-1.44.42-2.17.11-1.28.24-2.56.28-3.84s0-2.72-.05-4.08c-.09-2.71-.21-5.43-.21-8.14,0-3,.12-6.06.26-9.09s.34-6.19.36-9.29c0-2.77,0-5.55.17-8.32.09-1.59.21-3.19.37-4.77.15-1.43.31-2.86.32-4.29,0-2.91-.23-5.8-.26-8.71s0-5.66.07-8.49q0-3.5.08-7l1.55-.08c1.12,0,2.25-.09,3.37-.15a1.91,1.91,0,0,0,.62-.13q0,5.76,0,11.5c0,2.3.06,4.59.2,6.89.13,2.06.27,4.11.27,6.18a43.67,43.67,0,0,1-.32,4.57c-.17,1.5-.32,3-.46,4.49-.26,2.77-.44,5.55-.6,8.32-.17,3.1-.48,6.19-.73,9.29s-.46,6.06-.59,9.09c-.12,2.71-.19,5.43-.25,8.14,0,1.46,0,2.93-.13,4.39-.1,1.22-.24,2.44-.38,3.66a33.44,33.44,0,0,1-.89,4.32,7.73,7.73,0,0,1-1,2.45,5.77,5.77,0,0,1-2.5,1.94,17.86,17.86,0,0,1-2.35.86l-2.19.68c-1.24.39-2.49.79-3.75,1.13-1.67.46-3.33.87-5,1.23-1.41.3-2.85.49-4.28.7-3.07.45-6.15.74-9.23,1s-6.12.41-9.18.53-5.86.16-8.78.14c-6.54-.05-13.06-.2-19.59-.6-3-.19-6.06-.41-9.09-.62s-6.09-.33-9.13-.53c-6-.4-12.07-1-18.12-1.28-6.37-.3-12.75-.34-19.13-.33h-2.9c-5.22,0-10.45,0-15.66.26-3.24.17-6.46.48-9.69.81q-4.57.45-9.17.85c-6.06.53-12.12,1.08-18.19,1.46-3.19.2-6.38.35-9.57.53-3,.17-5.94.39-8.91.57-6.22.38-12.44.68-18.68.72-3.08,0-6.17,0-9.26,0s-6.33,0-9.5-.11c-3-.07-5.93-.14-8.9-.19-3.21-.05-6.42-.08-9.64-.16-6.18-.15-12.35-.48-18.53-.66s-12.25-.2-18.37-.28-12.53-.3-18.79-.54c-12.26-.48-24.52-.55-36.78-.58-6.17,0-12.32.19-18.48.33s-12.09.26-18.14.32c-3,0-6,0-8.94.25s-6.24.47-9.36.66c-5.94.35-11.89.39-17.84.47-6.27.09-12.54.3-18.82.38-6.09.08-12.18.16-18.27.07s-12-.18-18-.23-12,0-18.08-.1-12-.2-17.94-.26q-8.6-.07-17.18-.12c-2.89,0-5.78,0-8.66-.14s-6-.36-9-.48c-5.93-.25-11.85-.35-17.77-.18-2.86.08-5.72.23-8.57.36-2.4.12-4.8.36-7.2.45a49.36,49.36,0,0,1-7.88-.13,17.33,17.33,0,0,1-3.88-.89A22,22,0,0,1,87.1,420c-.75-.34-1.46-.75-2.19-1.11a2.16,2.16,0,0,1-.77-2.94,2.12,2.12,0,0,1,2.43-.95,2.36,2.36,0,0,0,.54.86,2.26,2.26,0,0,0,2.39.53,18,18,0,0,0,3.44,1,33.92,33.92,0,0,0,5.79,0c1.75-.1,3.5-.24,5.24-.44,2-.23,3.92-.47,5.89-.6s4.16-.3,6.24-.4c4.43-.2,8.86-.35,13.29-.23,2.27.06,4.53.13,6.8.23s4.5.28,6.76.36c2.86.11,5.73.1,8.6.11s5.81,0,8.71.06c5.78.06,11.56.13,17.34.25s11.76.2,17.64.21c6.13,0,12.27,0,18.39.13s12.09.2,18.13.17c6.23,0,12.46-.12,18.69-.31s12.24-.25,18.36-.38,12-.58,18-1.07c2.9-.23,5.8-.3,8.71-.34s6-.08,9-.14q9.45-.21,18.9-.5c5.95-.19,11.92-.14,17.88-.14,6.21,0,12.41,0,18.63.13,6.37.11,12.75.35,19.12.53,6.11.18,12.22.19,18.33.25s11.92.25,17.88.5c3.11.12,6.21.27,9.32.35s6.44.13,9.67.19c6.11.12,12.22.29,18.34.44,3.08.07,6.16.16,9.24.18s6.44,0,9.66-.11c6.19-.13,12.37-.57,18.55-.86s12.5-.6,18.74-1.09c6.07-.48,12.13-.93,18.2-1.51,3.05-.29,6.1-.6,9.17-.73s6.08-.21,9.12-.18q9.64.09,19.28.33c6.25.17,12.5.63,18.73,1.21,3.07.29,6.13.57,9.21.8s6.22.42,9.34.63c6.08.41,12.15.95,18.24,1.11s12.49.34,18.73.11c3.24-.11,6.47-.28,9.7-.49C651.44,416,654.37,415.66,657.28,415.32Zm17.48-4.58-.37.28A3.27,3.27,0,0,0,674.76,410.74Z" transform="translate(-83.86 -178.03)"/><path class="cls-2" d="M682.52,325.36a2.67,2.67,0,0,1,.42,1.44c0,.83,0,1.67,0,2.5a1.91,1.91,0,0,1-.62.13c-1.12.06-2.25.11-3.37.15l-1.55.08,0-2.86a2.54,2.54,0,0,1,.32-1.26c1.52-.06,3-.11,4.57-.19Z" transform="translate(-83.86 -178.03)"/><path class="cls-2" d="M682.52,325.36h-.22c-1.53.08-3,.13-4.57.19a2.75,2.75,0,0,1,2.44-1.51A2.79,2.79,0,0,1,682.52,325.36Z" transform="translate(-83.86 -178.03)"/><path class="cls-2" d="M676.43,325.58l1.3,0a2.54,2.54,0,0,0-.32,1.26l0,2.86q-.65,0-1.29,0c-1.78,0-3.57,0-5.35,0l-10-.07c-6.5,0-13,0-19.51-.16-6.14-.19-12.28-.27-18.43-.4s-12.28-.25-18.43-.36-12-.47-18.06-.73-12.19-.26-18.28-.43c-3.07-.09-6.13-.27-9.2-.37s-5.88-.17-8.82-.22q-9.32-.18-18.64-.22c-6.13,0-12.26.17-18.38.23s-12,.28-18,.38c-6.18.1-12.36.22-18.54.2s-12.51-.06-18.77-.11c-5.8,0-11.61-.09-17.4.29-6.12.41-12.23.69-18.36.91-3.13.11-6.26.16-9.39.21-2.94.05-5.88.11-8.81.12-6,0-11.91-.1-17.86-.21s-12.14-.16-18.21-.15c-3,0-6,.09-9.06.19s-6,.2-9,.34-6,.27-8.95.34-5.89.12-8.83.26c-6,.29-12,.85-18,1-1.58.05-3.17.08-4.75.06-1.38,0-2.77-.09-4.15-.17-3-.17-6.07-.32-9.11-.5-2.65-.15-5.29-.4-7.94-.45a46.22,46.22,0,0,0-4.71.12c-1.35.11-2.69.24-4,.33-2.88.21-5.77.34-8.66.5s-6,.3-9.05.34c-5.64.05-11.29-.13-16.93-.21-3,0-6-.19-9-.34-2.77-.14-5.52-.4-8.28-.64-5.77-.49-11.58-.68-17.38-.72-3.22,0-6.44,0-9.65.07-2.69,0-5.37.07-8.05.06-6,0-12-.06-18-.06-2.87,0-5.75,0-8.62,0s-5.88-.17-8.82-.23-5.88-.17-8.82-.25c-1.58,0-3.19-.1-4.77,0-1.41.1-2.8.25-4.2.43-1.93.26-3.85.55-5.78.79s-3.7.37-5.56.48c-3.53.21-7.07.41-10.6.46-3.38,0-6.76-.12-10.14-.13-1.76,0-3.54,0-5.3.09-1.52.06-3,.13-4.56.3a25.35,25.35,0,0,1-4,.42,5.56,5.56,0,0,0-.91.25l-.58.19a1.53,1.53,0,0,1-.37.08c.16-1.65.34-3.31.53-5l.67-.25,1.24-.24c.52-.08,1-.17,1.54-.27,1.31-.25,2.63-.45,3.95-.57,1.82-.18,3.66-.2,5.49-.23q2,0,4,0c2.51,0,5,.09,7.54,0,2.8-.06,5.59-.2,8.38-.36s5.76-.33,8.64-.67c1.43-.17,2.86-.37,4.29-.54s3-.39,4.51-.46a73.75,73.75,0,0,1,9.28.23c2.82.21,5.65.42,8.47.6s5.9.36,8.85.37,6,0,9,0c6,0,11.91-.13,17.87-.26s11.69-.32,17.53-.19c3,.07,6,.12,9,.3s5.67.49,8.51.75,5.61.46,8.42.62c3,.16,6,.19,9,.22,2.75,0,5.5,0,8.25,0s5.66,0,8.48-.18c3-.17,6-.45,8.94-.65s5.8-.4,8.69-.74c1.51-.17,3-.35,4.56-.37q1.89,0,3.78,0c2.94.1,5.87.28,8.81.39s6,.3,8.95.4,5.91-.05,8.85-.17,5.94-.35,8.91-.52,5.89-.32,8.84-.41,5.93-.11,8.9-.19,6-.22,9-.3,6-.17,9-.23,5.94,0,8.91.05c6.05.15,12.09.45,18.14.63s12,.46,17.95.52,12.07.16,18.09.07c3.14,0,6.29-.11,9.43-.27s6.16-.4,9.24-.56c6-.31,12-.3,18-.33,6.22,0,12.44,0,18.65-.13s12.2-.27,18.29-.43,11.9-.38,17.85-.51,12.05-.31,18.07-.31h.55q9.24,0,18.47.23c2.94.07,5.87.16,8.81.27s6.15.26,9.23.29c6,0,12,.12,18,.38,3,.13,6,.29,8.92.38q4.78.13,9.58.21c6.1.09,12.19.37,18.29.54,3.08.09,6.16.17,9.24.34s5.91.38,8.86.49c6,.22,12,.28,18,.38,3,.05,6,.12,9,.13C673.06,325.58,674.74,325.64,676.43,325.58Z" transform="translate(-83.86 -178.03)"/><path class="cls-3" d="M677.23,345.16c0,2.91.3,5.8.26,8.71,0,1.43-.17,2.86-.32,4.29-.16,1.58-.28,3.18-.37,4.77-.15,2.77-.15,5.55-.17,8.32,0,3.1-.22,6.19-.36,9.29s-.25,6.06-.26,9.09c0,2.71.12,5.43.21,8.14.05,1.36.09,2.72.05,4.08s-.17,2.56-.28,3.84c-.12.73-.27,1.44-.42,2.17a24.25,24.25,0,0,1-.55,2.56l-.1.17a1.07,1.07,0,0,1-.16.14,5.77,5.77,0,0,1-.76.44c-1.31.49-2.65.87-4,1.29s-2.8.85-4.21,1.23-3,.73-4.58,1c-1.3.26-2.63.42-3.95.59-2.91.34-5.84.67-8.77.86-3.23.21-6.46.38-9.7.49-6.24.23-12.5.05-18.73-.11s-12.16-.7-18.24-1.11c-3.12-.21-6.23-.39-9.34-.63s-6.14-.51-9.21-.8c-6.23-.58-12.48-1-18.73-1.21q-9.64-.26-19.28-.33c-3,0-6.08.05-9.12.18s-6.12.44-9.17.73c-6.07.58-12.13,1-18.2,1.51-6.24.49-12.49.79-18.74,1.09s-12.36.73-18.55.86c-3.22.07-6.44.13-9.66.11s-6.16-.11-9.24-.18c-6.12-.15-12.23-.32-18.34-.44-3.23-.06-6.45-.11-9.67-.19s-6.21-.23-9.32-.35c-6-.25-11.92-.44-17.88-.5s-12.22-.07-18.33-.25c-6.37-.18-12.75-.42-19.12-.53-6.22-.11-12.42-.12-18.63-.13-6,0-11.93-.05-17.88.14q-9.45.3-18.9.5c-3,.06-6,.1-9,.14s-5.81.11-8.71.34c-6,.49-12,1-18,1.07s-12.24.2-18.36.38-12.46.28-18.69.31c-6,0-12.08-.09-18.13-.17s-12.26-.12-18.39-.13c-5.88,0-11.76-.1-17.64-.21s-11.56-.19-17.34-.25c-2.9,0-5.81-.05-8.71-.06s-5.74,0-8.6-.11c-2.26-.08-4.51-.25-6.76-.36s-4.53-.17-6.8-.23c-4.43-.12-8.86,0-13.29.23-2.08.1-4.16.27-6.24.4s-3.93.37-5.89.6c-1.74.2-3.49.34-5.24.44a33.92,33.92,0,0,1-5.79,0,18,18,0,0,1-3.44-1A2.38,2.38,0,0,0,91,414.26c.05-1.47.16-2.94.14-4.42s0-2.79-.09-4.18c-.07-2.6-.28-5.19-.43-7.78-.3-5.34-.25-10.7-.18-16.05s.19-10.69.24-16,0-10.62-.08-15.92c0-3.74,0-7.48.12-11.21.1-2.23.27-4.46.49-6.68a1.53,1.53,0,0,0,.37-.08l.58-.19a5.56,5.56,0,0,1,.91-.25,25.35,25.35,0,0,0,4-.42c1.52-.17,3-.24,4.56-.3,1.76-.07,3.54-.1,5.3-.09,3.38,0,6.76.17,10.14.13,3.53-.05,7.07-.25,10.6-.46,1.86-.11,3.71-.25,5.56-.48s3.85-.53,5.78-.79c1.4-.18,2.79-.33,4.2-.43,1.58-.1,3.19,0,4.77,0,2.94.08,5.88.19,8.82.25s5.88.18,8.82.23,5.75,0,8.62,0c6,0,12,.06,18,.06,2.68,0,5.36,0,8.05-.06,3.21,0,6.43-.09,9.65-.07,5.8,0,11.61.23,17.38.72,2.76.24,5.51.5,8.28.64,3,.15,6,.3,9,.34,5.64.08,11.29.26,16.93.21,3,0,6-.16,9.05-.34s5.78-.29,8.66-.5c1.36-.09,2.7-.22,4-.33a46.22,46.22,0,0,1,4.71-.12c2.65.05,5.29.3,7.94.45,3,.18,6.07.33,9.11.5,1.38.08,2.77.15,4.15.17,1.58,0,3.17,0,4.75-.06,6-.16,12-.72,18-1,2.94-.14,5.89-.19,8.83-.26s6-.2,8.95-.34,6-.24,9-.34,6-.19,9.06-.19q9.11,0,18.21.15c5.95.11,11.9.21,17.86.21,2.93,0,5.87-.07,8.81-.12,3.13-.05,6.26-.1,9.39-.21,6.13-.22,12.24-.5,18.36-.91,5.79-.38,11.6-.34,17.4-.29,6.26.05,12.52.1,18.77.11s12.36-.1,18.54-.2c6-.1,12-.31,18-.38s12.25-.26,18.38-.23,12.43.1,18.64.22c2.94.05,5.88.13,8.82.22s6.13.28,9.2.37c6.09.17,12.19.17,18.28.43s12,.62,18.06.73,12.29.23,18.43.36,12.29.21,18.43.4c6.5.2,13,.12,19.51.16l10,.07c1.78,0,3.57,0,5.35,0q.65,0,1.29,0,0,3.51-.08,7C677.27,339.5,677.21,342.33,677.23,345.16Z" transform="translate(-83.86 -178.03)"/><path class="cls-2" d="M91.07,324.7a2.36,2.36,0,0,1,.73,1.76c0,.19,0,.37-.07.56-.26.09-.52.2-.77.31s-.73.35-1.09.54a2.21,2.21,0,0,0-1,2.49A2.26,2.26,0,0,0,91.2,332c-.22,2.22-.39,4.45-.49,6.68-.17,3.73-.15,7.47-.12,11.21,0,5.3.12,10.61.08,15.92s-.18,10.7-.24,16-.12,10.71.18,16.05c.15,2.59.36,5.18.43,7.78,0,1.39.08,2.78.09,4.18s-.09,2.95-.14,4.42a2.38,2.38,0,0,1-1.49,2.14l-.08,0c-.79-.38-1.56-.79-2.35-1.18a2.3,2.3,0,0,0-.5-.18.78.78,0,0,1-.05-.14c-.18-1.26-.39-2.53-.48-3.8-.05-.88-.11-1.77-.14-2.65-.07-1.82-.15-3.65-.3-5.46-.29-3.55-.53-7.09-.63-10.65-.16-5.39-.13-10.78-.1-16.17,0-2.7.06-5.4.09-8.1s0-5.42.05-8.13q.06-8.07.37-16.14c.21-5.79.75-11.55,1.43-17.31a2.76,2.76,0,0,1,.73-1.76,2.51,2.51,0,0,1,1.77-.73A2.47,2.47,0,0,1,91.07,324.7Z" transform="translate(-83.86 -178.03)"/><path class="cls-2" d="M91,327.33c.25-.11.51-.22.77-.31-.19,1.65-.37,3.31-.53,5a2.26,2.26,0,0,1-2.34-1.62,2.21,2.21,0,0,1,1-2.49C90.23,327.68,90.59,327.5,91,327.33Z" transform="translate(-83.86 -178.03)"/><path class="cls-2" d="M89.42,416.37l.08,0a2.26,2.26,0,0,1-2.39-.53,2.36,2.36,0,0,1-.54-.86,2.3,2.3,0,0,1,.5.18C87.86,415.58,88.63,416,89.42,416.37Z" transform="translate(-83.86 -178.03)"/><path class="cls-4" d="M110.88,401.13a7.39,7.39,0,1,0,7.39-7.39,7.46,7.46,0,0,0-7.39,7.39Z" transform="translate(-83.86 -178.03)"/><path class="cls-4" d="M141.66,402a5.27,5.27,0,1,0,5.27-5.27,5.32,5.32,0,0,0-5.27,5.27Z" transform="translate(-83.86 -178.03)"/><path class="cls-4" d="M171.73,400.6a5.33,5.33,0,1,0,5.33-5.33,5.38,5.38,0,0,0-5.33,5.33Z" transform="translate(-83.86 -178.03)"/><path class="cls-4" d="M206.23,395.38a5.59,5.59,0,0,0-2.55,3.32l-.2,1.48a5.56,5.56,0,0,0,.39,2.05l0,.15a5.61,5.61,0,0,0,10.81-3,7.39,7.39,0,0,0-.88-2,5.93,5.93,0,0,0-3.32-2.55,5.53,5.53,0,0,0-1.46-.2,5.59,5.59,0,0,0-2.82.76Zm-2,7.66,0,.06,0-.06Z" transform="translate(-83.86 -178.03)"/></g><g id="Search_bar_outline-2" data-name="Search bar outline"><g id="_Group_" data-name="&lt;Group&gt;"><g id="_Group_2" data-name="&lt;Group&gt;"><path class="cls-5" d="M732.8,326.75a166.31,166.31,0,0,1,1,31.31c-.18,1.63-.28,3.26-.43,4.89s-.36,3.38-.57,5.06c0,.18,0,.37-.08.55a215,215,0,0,1-4.43,21.93A165.92,165.92,0,0,1,720.72,413q-2.16,5-4.57,9.89c-.77,1.56-1.53,3.11-2.32,4.66-.43.84-.88,1.67-1.34,2.5-.23.42-.47.85-.72,1.28a14.45,14.45,0,0,0-.67,1.37,167.39,167.39,0,0,1-12,17.94A154.33,154.33,0,0,1,687,464.39a143.32,143.32,0,0,1-13.6,11.88,162.85,162.85,0,0,1-34.26,20.14c-1.57.61-3.13,1.28-4.71,1.9-1.93.75-3.88,1.45-5.84,2.12-3.53,1.21-7.11,2.29-10.7,3.29a163,163,0,0,1-21,4.34q-7,.9-14.11,1.29c-2.65.14-5.31.21-8,.24-1.36,0-2.73,0-4.09,0l-2-.05c-.36,0-.71,0-1.06,0a147.21,147.21,0,0,1-16.52-1.25,160.83,160.83,0,0,1-39.76-10.9,167.58,167.58,0,0,1-36.05-21.13,165.82,165.82,0,0,1-28.5-28.65q-1.81-2.37-3.54-4.81l2.68,0c3,.05,6,.16,9,.24,3.26.09,6.53,0,9.78-.08,12.69-.14,25.38-.14,38.06-.09,2.16,0,4.32,0,6.48.05,4.68.72,9.36,1.46,14.07,1.94,6.42.65,12.84,1.22,19.27,1.65,5.91.4,11.81.59,17.72.84s12,.64,18,.88a159.76,159.76,0,0,0,18.3-.57c6-.45,11.91-1.3,17.82-2.29l3.37,0c6-.1,12.13-.38,18.16-1a158.9,158.9,0,0,0,19.9-3c2.82-.65,5.62-1.37,8.44-2,1.47-.35,2.92-.75,4.36-1.21a45.63,45.63,0,0,0,5.79-2.41,29.54,29.54,0,0,0,4.5-2.51,17.06,17.06,0,0,0,5-5.19,17.79,17.79,0,0,0,1.76-4.27c.42-1.32.71-2.68,1.08-4s.81-2.57,1.26-3.83a77.82,77.82,0,0,0,2.51-8.36c.65-2.84,1-5.72,1.47-8.6.07-.17.13-.34.2-.52a41.53,41.53,0,0,0,2.47-17.18c-.15-2.61-.44-5.22-.62-7.82-.2-2.76-.52-5.5-.85-8.25s-.6-5.25-.95-7.86c-.18-1.43-.39-2.84-.61-4.26.06-2.39.12-4.77.08-7.16-.06-3-.24-5.93-.09-8.89s.47-5.9.74-8.85.43-6,.52-9,.25-5.92.23-8.88-.1-6.2-.39-9.29c-.18-1.88-.38-3.75-.7-5.61-.58-3.31-1.57-6.71-4.53-8.66a7,7,0,0,0-3.87-1.12v-.47a4.3,4.3,0,0,0-.65-2.29,1.43,1.43,0,0,0-.36,0L679,283l-3.63.14-2.07.07c-2.67.1-5.35,0-8,0-4.77,0-9.53-.12-14.3-.2-9.52-.15-19-.25-28.55-.61-4.7-.17-9.38-.51-14.08-.77-4.88-.26-9.77-.39-14.67-.53-9.68-.29-19.35-.72-29-.87q-7.61-.12-15.2-.34c-4.72-.14-9.45-.39-14.17-.6-9.54-.41-19.1-.53-28.64-.6-4.89-.05-9.78-.26-14.66-.45q-7-.28-14-.44-14.65-.33-29.32-.36h-.87c-5.81,0-11.62.11-17.43.24q2.64-5.4,5.66-10.62c1.74-3,3.49-6,5.42-8.88q3.12-4.67,6.55-9.11t7.27-8.81c2.49-2.83,5-5.65,7.71-8.29s5.44-5.19,8.26-7.67c1.49-1.31,3-2.58,4.54-3.83,1.3-1.07,2.58-2.16,3.91-3.19,3.93-3,8-5.83,12.1-8.54l.1-.06a4.26,4.26,0,0,0,3.39-.3q6.34-3.36,12.94-6.19c3.42-1.42,6.88-2.7,10.38-3.94s7.32-2.3,11-3.39A160,160,0,0,1,552.33,190a155.16,155.16,0,0,1,35.91-.53l3.92.51q2.63.36,5.24.79c1.74.28,3.45.69,5.19,1,3.93.72,7.83,1.6,11.71,2.59a166.56,166.56,0,0,1,22.29,7.45,170.11,170.11,0,0,1,36,21,191.45,191.45,0,0,1,15,13.06,148.17,148.17,0,0,1,13.56,14.88A173.8,173.8,0,0,1,712.83,268a153,153,0,0,1,8.83,17.65A167.08,167.08,0,0,1,728.61,306,170.4,170.4,0,0,1,732.8,326.75Z" transform="translate(-83.86 -178.03)"/><path class="cls-6" d="M481.66,429.09c10.12,0,20.25.06,30.37.53,9.6.44,19.17,1.39,28.76,2,4.83.32,9.66.54,14.5.85s9.62.68,14.44,1c10.36.63,20.72.87,31.09,1,4.64,0,9.31,0,13.94-.22,4.87-.19,9.73-.41,14.58-.85s9.79-.89,14.65-1.61c2.27-.34,4.56-.64,6.81-1.11,2.68-.58,5.32-1.24,8-1.95,2-.55,4-1.18,6-1.8l3.47-1.09a28.64,28.64,0,0,0,3.73-1.36,9.1,9.1,0,0,0,4-3.08,12,12,0,0,0,1.52-3.88,55.68,55.68,0,0,0,1.42-6.86c.22-1.93.43-3.88.59-5.82.2-2.31.18-4.65.22-7,.09-4.31.2-8.62.39-12.93q.24-5.41.65-10.83c.09-1.2.18-2.4.28-3.6.4-4.92.9-9.82,1.17-14.75.25-4.41.54-8.81.95-13.21.22-2.37.47-4.75.72-7.12a70.66,70.66,0,0,0,.52-7.26c0-3.29-.23-6.55-.43-9.82-.23-3.65-.29-7.28-.31-10.93,0-6.08,0-12.16,0-18.25l0-3.52a7,7,0,0,1,3.87,1.12c3,1.95,3.95,5.35,4.53,8.66.32,1.86.52,3.73.7,5.61.29,3.09.37,6.19.39,9.29s-.13,5.92-.23,8.88-.25,6-.52,9-.59,5.89-.74,8.85,0,5.93.09,8.89c0,2.39,0,4.77-.08,7.16.22,1.42.43,2.83.61,4.26.35,2.61.62,5.24.95,7.86s.65,5.49.85,8.25c.18,2.6.47,5.21.62,7.82a41.53,41.53,0,0,1-2.47,17.18c-.07.18-.13.35-.2.52-.45,2.88-.82,5.76-1.47,8.6a77.82,77.82,0,0,1-2.51,8.36c-.45,1.26-.89,2.53-1.26,3.83s-.66,2.69-1.08,4a17.79,17.79,0,0,1-1.76,4.27,17.06,17.06,0,0,1-5,5.19,29.54,29.54,0,0,1-4.5,2.51,45.63,45.63,0,0,1-5.79,2.41c-1.44.46-2.89.86-4.36,1.21-2.82.67-5.62,1.39-8.44,2a158.9,158.9,0,0,1-19.9,3c-6,.61-12.11.89-18.16,1l-3.37,0c-5.91,1-11.85,1.84-17.82,2.29a159.76,159.76,0,0,1-18.3.57c-6-.24-12-.63-18-.88s-11.81-.44-17.72-.84c-6.43-.43-12.85-1-19.27-1.65-4.71-.48-9.39-1.22-14.07-1.94-2.16,0-4.32-.05-6.48-.05-12.68-.05-25.37-.05-38.06.09-3.25,0-6.52.17-9.78.08-3-.08-6-.19-9-.24l-2.68,0q-4.11-5.77-7.7-11.87l1.29-.12c4.48-.45,8.95-.89,13.45-1.17l1.93-.11c8.27-.43,16.57-.42,24.86-.41Z" transform="translate(-83.86 -178.03)"/><path class="cls-2" d="M683,282.86l-4,.15,3.63-.16A1.43,1.43,0,0,1,683,282.86Z" transform="translate(-83.86 -178.03)"/><path class="cls-2" d="M678.92,360.72c-.7-4.42-1.63-8.8-2.36-13.21s-1.65-8.59-2-12.92c.23-2.15.45-4.3.48-6.45,0-3.59-.21-7.15-.34-10.72a53,53,0,0,0,.15-8.82c-.06-.34-.13-.69-.2-1,0-2.25.06-4.49.08-6.74q.06-4.51.1-9.05c.59-.77,1.23-1.49,1.87-2.19l.61,0c1.79-.06,3.58-.14,5.36-.24a3.55,3.55,0,0,0,1-.19c0,6.09-.06,12.17,0,18.25,0,3.65.08,7.28.31,10.93.2,3.27.42,6.53.43,9.82a70.66,70.66,0,0,1-.52,7.26c-.25,2.37-.5,4.75-.72,7.12-.41,4.4-.7,8.8-.95,13.21-.27,4.93-.77,9.83-1.17,14.75-.1,1.2-.19,2.4-.28,3.6L680,374c.06-.85.11-1.69.14-2.55v-.15C679.81,367.79,679.38,364.25,678.92,360.72Z" transform="translate(-83.86 -178.03)"/><path class="cls-2" d="M680,286.6a6.79,6.79,0,0,1,3.6-1h0l0,3.52a3.55,3.55,0,0,1-1,.19c-1.78.1-3.57.18-5.36.24l-.61,0,.72-.77A14.13,14.13,0,0,1,680,286.6Z" transform="translate(-83.86 -178.03)"/><path class="cls-2" d="M683,282.86a4.3,4.3,0,0,1,.65,2.29v.47h0a6.79,6.79,0,0,0-3.6,1,14.13,14.13,0,0,0-2.65,2.22l-.72.77c-.61,0-1.23.07-1.85.09,0-1.51,0-3,0-4.53a4.4,4.4,0,0,1,.51-2L679,283Z" transform="translate(-83.86 -178.03)"/><path class="cls-2" d="M676.66,289.59c-.64.7-1.28,1.42-1.87,2.19,0-.7,0-1.4,0-2.1C675.43,289.66,676.05,289.62,676.66,289.59Z" transform="translate(-83.86 -178.03)"/><path class="cls-2" d="M673.3,283.22l2.07-.07a4.4,4.4,0,0,0-.51,2c0,1.51,0,3,0,4.53-.69,0-1.37.06-2,.06-2.82,0-5.65,0-8.49,0-5.26,0-10.53-.09-15.81-.12-10.32-.05-20.65.06-31-.25-9.75-.3-19.51-.42-29.27-.63s-19.5-.4-29.26-.58c-9.57-.17-19.11-.74-28.67-1.15s-19.35-.42-29-.69c-4.87-.15-9.74-.43-14.61-.58q-7-.22-14-.36-14.79-.28-29.59-.35c-5.39,0-10.77.06-16.16.16,1.09-2.53,2.24-5,3.47-7.5,5.81-.13,11.62-.24,17.43-.24h.87q14.67,0,29.32.36,7,.16,14,.44c4.88.19,9.77.4,14.66.45,9.54.07,19.1.19,28.64.6,4.72.21,9.45.46,14.17.6q7.59.22,15.2.34c9.69.15,19.36.58,29,.87,4.9.14,9.79.27,14.67.53,4.7.26,9.38.6,14.08.77,9.51.36,19,.46,28.55.61,4.77.08,9.53.18,14.3.2C668,283.22,670.63,283.32,673.3,283.22Z" transform="translate(-83.86 -178.03)"/><path class="cls-2" d="M674.81,308.6a53,53,0,0,1-.15,8.82c0-1-.07-2.08-.08-3.12,0-2.24,0-4.49,0-6.73C674.68,307.91,674.75,308.26,674.81,308.6Z" transform="translate(-83.86 -178.03)"/><path class="cls-3" d="M672.76,289.74c.68,0,1.36,0,2-.06,0,.7,0,1.4,0,2.1q0,4.53-.1,9.05c0,2.25-.06,4.49-.08,6.74s0,4.49,0,6.73c0,1,0,2.08.08,3.12.13,3.57.38,7.13.34,10.72,0,2.15-.25,4.3-.48,6.45,0,.12,0,.23,0,.35q-.37,3.78-.58,7.58c-.24,4.4-.25,8.81-.28,13.21,0,4.93-.34,9.83-.57,14.75s-.39,9.61-.4,14.43c0,4.31.18,8.62.33,12.93.08,2.15.14,4.31.07,6.48,0,.2,0,.4,0,.6-.07,1.82-.25,3.66-.42,5.48-.18,1.16-.42,2.3-.66,3.45-.29,1.37-.45,2.75-.87,4.07l-.16.26-.25.24a0,0,0,0,0,0,0c-.18.11-.35.22-.53.31s-.45.25-.68.36c-2.07.78-4.2,1.39-6.31,2.05s-4.45,1.36-6.69,1.95c-2.4.64-4.83,1.18-7.26,1.66-2.07.41-4.18.67-6.28.95h-.07c-4.61.53-9.21,1-13.84,1.35-5.14.33-10.27.59-15.42.78-9.9.35-19.83.07-29.73-.19-8.66-.22-17.29-.94-25.93-1.55q-1.46-.21-2.91-.36a108.34,108.34,0,0,0-11.24-.58h0l-3.7-.26c-4.88-.37-9.75-.82-14.62-1.27-9.9-.92-19.81-1.66-29.75-1.93q-15.28-.4-30.6-.52c-4.83,0-9.66.09-14.48.29s-9.72.7-14.57,1.16l-3.83.34-1,.09q-2.75-5.25-5.08-10.72c-1.22-2.91-2.34-5.85-3.39-8.81s-1.89-5.86-2.75-8.83-1.65-6.29-2.37-9.45c-.76-3.35-1.49-6.75-1.95-10.15,0,.35.1.7.14,1.06-.14-1.07-.29-2.13-.44-3.19l0-.24c0-.1,0-.21,0-.31a190.69,190.69,0,0,1-1.46-22.15,162.85,162.85,0,0,1,12.75-64.36c.11-.25.21-.49.33-.74,5.39-.1,10.77-.18,16.16-.16q14.79.08,29.59.35,7,.13,14,.36c4.87.15,9.74.43,14.61.58,9.67.27,19.35.27,29,.69s19.1,1,28.67,1.15q14.64.27,29.26.58c9.76.21,19.52.33,29.27.63,10.32.31,20.65.2,31,.25,5.28,0,10.55.08,15.81.12C667.11,289.76,669.94,289.74,672.76,289.74Z" transform="translate(-83.86 -178.03)"/><path class="cls-2" d="M678.92,360.72c.46,3.53.89,7.07,1.24,10.61v.15c0,.86-.08,1.7-.14,2.55a.28.28,0,0,0,0,.09c-.65,3.61-1.74,7.12-2.59,10.7-.44,1.89-.81,3.81-1.22,5.71-.45,2.16-1,4.28-1.5,6.44-.54,2.65-1.08,5.31-1.68,7.95,0-.2,0-.4,0-.6.07-2.17,0-4.33-.07-6.48-.15-4.31-.35-8.62-.33-12.93,0-4.82.18-9.62.4-14.43s.54-9.82.57-14.75c0-4.4,0-8.81.28-13.21q.21-3.79.58-7.58c0-.12,0-.23,0-.35.39,4.33,1.33,8.64,2,12.92S678.22,356.3,678.92,360.72Z" transform="translate(-83.86 -178.03)"/><path class="cls-2" d="M670.65,418.43l-.55.42a.43.43,0,0,0,0-.11C670.3,418.65,670.47,418.54,670.65,418.43Z" transform="translate(-83.86 -178.03)"/><path class="cls-2" d="M663.13,421.15c2.11-.66,4.24-1.27,6.31-2.05.23-.11.46-.23.68-.36a.43.43,0,0,1,0,.11q-.1.6-.24,1.2a46.4,46.4,0,0,1-4.73,2.37,76,76,0,0,1-7.41,2.22c-1.87.5-3.72,1.09-5.59,1.6l-5.47.25c-5.64.25-11.25,1.2-16.84,2-6.13.75-12.26,1.25-18.42,1.65-3.06.2-6.11.58-9.16.86l-1.3.12-4-.35c-3-.24-6-.56-9-.86s-6.21-.5-9.31-.7c-1.65-.1-3.28-.26-4.91-.44-5.3-.83-10.54-1.93-15.85-2.65,8.64.61,17.27,1.33,25.93,1.55,9.9.26,19.83.54,29.73.19,5.15-.19,10.28-.45,15.42-.78,4.63-.31,9.23-.82,13.84-1.35h.07c2.1-.28,4.21-.54,6.28-.95,2.43-.48,4.86-1,7.26-1.66C658.68,422.51,660.91,421.83,663.13,421.15Z" transform="translate(-83.86 -178.03)"/><path class="cls-6" d="M557.91,426.11l-3-.21c-3.71-.25-7.42-.47-11.12-.73a108.34,108.34,0,0,1,11.24.58Q556.46,425.9,557.91,426.11Z" transform="translate(-83.86 -178.03)"/><path class="cls-2" d="M477.05,429.1c-8.29,0-16.59,0-24.86.41l-1.93.11v-.09c3.45-.2,6.9-.54,10.34-.91,3.26-.34,6.52-.53,9.77-.78,3.09-.22,6.17-.59,9.26-.79,6.12-.4,12.23-.47,18.36-.51,6.33,0,12.65-.08,19-.43s12.77-.77,19.18-.88c2.54,0,5.07-.09,7.61-.06h0c3.7.26,7.41.48,11.12.73l3,.21c5.31.72,10.55,1.82,15.85,2.65,1.63.18,3.26.34,4.91.44,3.1.2,6.21.39,9.31.7s6,.62,9,.86l4,.35,1.3-.12c3.05-.28,6.1-.66,9.16-.86,6.16-.4,12.29-.9,18.42-1.65,5.59-.79,11.2-1.74,16.84-2l5.47-.25c1.87-.51,3.72-1.1,5.59-1.6a76,76,0,0,0,7.41-2.22,46.4,46.4,0,0,0,4.73-2.37q.13-.6.24-1.2l.55-.42a0,0,0,0,1,0,0l.25-.24.16-.26c.42-1.32.58-2.7.87-4.07.24-1.15.48-2.29.66-3.45.17-1.82.35-3.66.42-5.48.6-2.64,1.14-5.3,1.68-7.95.46-2.16,1.05-4.28,1.5-6.44.41-1.9.78-3.82,1.22-5.71.85-3.58,1.94-7.09,2.59-10.7a.28.28,0,0,1,0-.09l.67.05q-.4,5.42-.65,10.83c-.19,4.31-.3,8.62-.39,12.93,0,2.31,0,4.65-.22,7-.16,1.94-.37,3.89-.59,5.82a55.68,55.68,0,0,1-1.42,6.86,12,12,0,0,1-1.52,3.88,9.1,9.1,0,0,1-4,3.08,28.64,28.64,0,0,1-3.73,1.36l-3.47,1.09c-2,.62-4,1.25-6,1.8-2.64.71-5.28,1.37-8,1.95-2.25.47-4.54.77-6.81,1.11-4.86.72-9.76,1.17-14.65,1.61s-9.71.66-14.58.85c-4.63.19-9.3.26-13.94.22-10.37-.08-20.73-.32-31.09-1-4.82-.3-9.63-.66-14.44-1s-9.67-.53-14.5-.85c-9.59-.64-19.16-1.59-28.76-2-10.12-.47-20.25-.54-30.37-.53Z" transform="translate(-83.86 -178.03)"/><path class="cls-2" d="M450.26,429.62c-4.5.28-9,.72-13.45,1.17l-1.29.12c-.27-.45-.53-.9-.79-1.35,2.58.06,5.16.07,7.75.13s5.19,0,7.78-.16Z" transform="translate(-83.86 -178.03)"/><path class="cls-2" d="M432.2,423l3.83-.34c4.85-.46,9.7-1,14.57-1.16s9.65-.33,14.48-.29q15.32.13,30.6.52c9.94.27,19.85,1,29.75,1.93,4.87.45,9.74.9,14.62,1.27l3.7.26c-2.54,0-5.07,0-7.61.06-6.41.11-12.79.52-19.18.88s-12.64.39-19,.43c-6.13,0-12.24.11-18.36.51-3.09.2-6.17.57-9.26.79-3.25.25-6.51.44-9.77.78-3.44.37-6.89.71-10.34.91-2.59.14-5.19.22-7.78.16s-5.17-.07-7.75-.13c-1.23-2.14-2.42-4.3-3.54-6.49Z" transform="translate(-83.86 -178.03)"/><path class="cls-2" d="M428.8,430c.24.51.49,1,.75,1.52h0C429.29,431,429,430.48,428.8,430Z" transform="translate(-83.86 -178.03)"/><path class="cls-6" d="M428.49,429.31l.15.32-.16-.32Z" transform="translate(-83.86 -178.03)"/><path class="cls-6" d="M417.69,443.9a2.72,2.72,0,0,1,.11.25h-.08Z" transform="translate(-83.86 -178.03)"/></g></g></g><g id="Mag_outline" data-name="Mag outline"><g id="_Group_3" data-name="&lt;Group&gt;"><path class="cls-4" d="M785.41,640.1a6.54,6.54,0,0,1-2.32,8.84,113.5,113.5,0,0,0-10.93,6.76,20,20,0,0,1-1.86,1.24c-.77.43-1.54.89-2.35,1.25a29.15,29.15,0,0,1-3.19,1.29c-.88.28-1.78.5-2.63.82-1.4.52-2.76,1.12-4.15,1.65-1.21.47-2.42.92-3.62,1.4-4.54,2-9,4.17-13.32,6.59-2,1.12-4,2.25-6,3.34-.71.38-1.42.75-2.15,1.09a6.74,6.74,0,0,1-1.53.68,5.41,5.41,0,0,0-.58.12q-2,1.13-4,2.27a3.47,3.47,0,0,1-4.7-1.23c-3.38-6-6.65-12.07-10.13-18-3.16-5.41-6.3-10.84-9.26-16.37-1.36-2.54-2.58-5.15-4-7.68s-2.75-5.1-4-7.68c-1.47-2.93-2.9-5.88-4.48-8.75-1.41-2.55-2.9-5.07-4.4-7.58-3.25-5.44-6.48-10.88-9.89-16.22-1.63-2.55-3.45-5-5.12-7.51s-3.15-5-4.77-7.55c-1-1.51-2-3-3.05-4.45-.87-1.24-1.69-2.51-2.52-3.77q-2.4-3.6-4.72-7.25c-3.12-4.88-6.43-9.65-9.44-14.6-3.34-5.5-6.38-11.16-9.42-16.83q-5.06-9.48-10.37-18.81a5.93,5.93,0,0,1-.79-2.72c3.89-1.26,7.72-2.7,11.52-4.23,1.66-.67,3.3-1.37,4.94-2.1a6.07,6.07,0,0,1-2.17,8.23l0,0q4.61,8,9.38,15.85c3.69,6.1,7.26,12.29,10.37,18.71,2.53,5.19,5.06,10.38,7.64,15.55,1.41,2.81,2.82,5.63,4.05,8.52s2.69,5.61,4.11,8.38c1.52,3,2.86,6,4.26,9,1.12,2.42,2.36,4.76,3.59,7.12,2.92,5.6,5.87,11.19,9,16.72.84,1.5,1.69,3,2.57,4.49.76,1.29,1.6,2.53,2.4,3.81,1.53,2.44,3.1,4.85,4.59,7.32,2.93,4.89,6,9.68,8.89,14.62,2.7,4.66,5.29,9.36,7.91,14.07,2.49,4.47,5.09,8.88,7.65,13.3l1.07-.6a9.32,9.32,0,0,1,1.1-1c.3-.23.62-.43.93-.63.75-.47,1.49-.94,2.25-1.38,2-1.2,4.11-2.35,6.14-3.56a147.93,147.93,0,0,0,12.68-8.32c1.65-1.33,3.35-2.6,5-3.88a59.23,59.23,0,0,1,5.34-4.41,33.82,33.82,0,0,1,3-1.75c.73-.37,1.49-.68,2.25-1,1.68-.76,3.33-1.6,5-2.47-.27-.57-.49-1.15-.71-1.75a9.63,9.63,0,0,1-.52-1.35c-1.55-2.93-3.2-5.79-4.74-8.72-2.2-4.2-4.47-8.36-6.69-12.55-2.9-5.47-5.92-10.89-8.7-16.42q-4.38-8.71-8.89-17.37c-3.09-5.91-6.35-11.74-9.57-17.58s-6.41-11.52-9.73-17.21c-1.64-2.81-3.34-5.59-5-8.41s-3.29-5.66-5-8.49c-3.31-5.61-6.52-11.28-9.71-17-1.56-2.77-3.09-5.55-4.71-8.28-1.41-2.38-2.88-4.72-4.31-7.09-2.73-4.52-5.35-9.1-8-13.7L682,486.57a40.48,40.48,0,0,1-6,2.8,4,4,0,0,1-4.52-1.84v0a180.72,180.72,0,0,0,16.06-12.75,4.19,4.19,0,0,1,2.69,2c2.4,4.22,4.84,8.41,7.16,12.67,1.8,3.32,3.53,6.66,5.31,10,3,5.61,6.25,11.05,9.35,16.59,3.25,5.79,6.44,11.61,9.68,17.41s6.41,11.72,9.69,17.54q4.7,8.32,9.59,16.54c3.45,5.85,6.91,11.68,10.53,17.42,3.26,5.18,6.56,10.35,9.73,15.58,3.41,5.65,6.84,11.29,10.24,16.94,1,1.73,2,3.47,3.11,5.2.71,1.16,1.45,2.32,2.13,3.51,1.11,1.93,2.21,3.86,3.37,5.75A11.23,11.23,0,0,1,781,633l.15.15a13.59,13.59,0,0,1,1.92,2.93Z" transform="translate(-83.86 -178.03)"/><path class="cls-7" d="M770.31,639.09c.22.6.44,1.18.71,1.75-1.63.87-3.28,1.71-5,2.47-.76.31-1.52.62-2.25,1a33.82,33.82,0,0,0-3,1.75,59.23,59.23,0,0,0-5.34,4.41c-1.69,1.28-3.39,2.55-5,3.88a147.93,147.93,0,0,1-12.68,8.32c-2,1.21-4.1,2.36-6.14,3.56-.76.44-1.5.91-2.25,1.38-.31.2-.63.4-.93.63a9.32,9.32,0,0,0-1.1,1l-1.07.6c-2.56-4.42-5.16-8.83-7.65-13.3-2.62-4.71-5.21-9.41-7.91-14.07-2.85-4.94-6-9.73-8.89-14.62-1.49-2.47-3.06-4.88-4.59-7.32-.8-1.28-1.64-2.52-2.4-3.81-.88-1.49-1.73-3-2.57-4.49-3.08-5.53-6-11.12-9-16.72-1.23-2.36-2.47-4.7-3.59-7.12-1.4-3-2.74-6-4.26-9-1.42-2.77-2.89-5.51-4.11-8.38s-2.64-5.71-4.05-8.52c-2.58-5.17-5.11-10.36-7.64-15.55-3.11-6.42-6.68-12.61-10.37-18.71q-4.77-7.89-9.38-15.85l0,0a6.07,6.07,0,0,0,2.17-8.23,174.83,174.83,0,0,0,25.95-14.24q1.73-1.15,3.42-2.34v0a4,4,0,0,0,4.52,1.84,40.48,40.48,0,0,0,6-2.8l2.82-1.61c2.61,4.6,5.23,9.18,8,13.7,1.43,2.37,2.9,4.71,4.31,7.09,1.62,2.73,3.15,5.51,4.71,8.28,3.19,5.68,6.4,11.35,9.71,17,1.67,2.83,3.32,5.65,5,8.49s3.34,5.6,5,8.41q5,8.54,9.73,17.21c3.22,5.84,6.48,11.67,9.57,17.58s6,11.56,8.89,17.37c2.78,5.53,5.8,11,8.7,16.42,2.22,4.19,4.49,8.35,6.69,12.55,1.54,2.93,3.19,5.79,4.74,8.72A9.63,9.63,0,0,0,770.31,639.09Z" transform="translate(-83.86 -178.03)"/><path class="cls-4" d="M732.73,368.56c0-.18.05-.37.08-.55.21-1.68.41-3.37.57-5.06s.25-3.26.43-4.89a166.31,166.31,0,0,0-1-31.31A170.4,170.4,0,0,0,728.61,306a167.08,167.08,0,0,0-6.95-20.31A153,153,0,0,0,712.83,268a173.8,173.8,0,0,0-11.69-17.31,148.17,148.17,0,0,0-13.56-14.88,191.45,191.45,0,0,0-15-13.06,170.11,170.11,0,0,0-36-21,166.56,166.56,0,0,0-22.29-7.45c-3.88-1-7.78-1.87-11.71-2.59-1.74-.32-3.45-.73-5.19-1s-3.49-.55-5.24-.79l-3.92-.51a155.16,155.16,0,0,0-35.91.53,160,160,0,0,0-22.72,4.86c-3.69,1.09-7.39,2.11-11,3.39s-7,2.52-10.38,3.94q-6.6,2.83-12.94,6.19a4.26,4.26,0,0,1-3.39.3l-.1.06c-4.12,2.71-8.17,5.53-12.1,8.54-1.33,1-2.61,2.12-3.91,3.19-1.53,1.25-3.05,2.52-4.54,3.83-2.82,2.48-5.59,5-8.26,7.67s-5.22,5.46-7.71,8.29-4.93,5.81-7.27,8.81-4.47,6-6.55,9.11c-1.93,2.89-3.68,5.88-5.42,8.88a177.61,177.61,0,0,0-9.46,18.86,162.85,162.85,0,0,0-12.75,64.36,190.69,190.69,0,0,0,1.46,22.15c0,.1,0,.21,0,.31l0,.24c.15,1.06.3,2.12.44,3.19,0-.36-.09-.71-.14-1.06.46,3.4,1.19,6.8,1.95,10.15.72,3.16,1.48,6.33,2.37,9.45s1.72,5.92,2.75,8.83,2.17,5.9,3.39,8.81a161.19,161.19,0,0,0,49.15,63.89,167.58,167.58,0,0,0,36.05,21.13,160.83,160.83,0,0,0,39.76,10.9,147.21,147.21,0,0,0,16.52,1.25c.35,0,.7,0,1.06,0l2,.05c1.36,0,2.73,0,4.09,0,2.66,0,5.32-.1,8-.24q7.08-.39,14.11-1.29a163,163,0,0,0,21-4.34c3.59-1,7.17-2.08,10.7-3.29,2-.67,3.91-1.37,5.84-2.12,1.58-.62,3.14-1.29,4.71-1.9a162.85,162.85,0,0,0,34.26-20.14A143.32,143.32,0,0,0,687,464.39a154.33,154.33,0,0,0,12.14-13.78,167.39,167.39,0,0,0,12-17.94,14.45,14.45,0,0,1,.67-1.37c.25-.43.49-.86.72-1.28.46-.83.91-1.66,1.34-2.5.79-1.55,1.55-3.1,2.32-4.66q2.42-4.89,4.57-9.89a165.92,165.92,0,0,0,7.58-22.48A215,215,0,0,0,732.73,368.56Zm12.91-29.05A181.1,181.1,0,0,1,744,376.3a131.53,131.53,0,0,1-4,18.2c-1,3.26-2,6.48-3.18,9.67-1.07,2.9-2.11,5.81-3.37,8.63-1.88,4.44-3.89,8.8-6.15,13.06q-1.77,3.33-3.78,6.54a67.79,67.79,0,0,1-3.75,5.72c-2.38,3.55-4.89,7-7.49,10.39l0,0A163.27,163.27,0,0,1,697,465.92q-4.57,4.56-9.4,8.84a4.51,4.51,0,0,0-3.31.43l-6.69,3.8c-.9.52-1.78,1-2.65,1.61a32.81,32.81,0,0,0-2.77,2.08,4,4,0,0,0-1,1.76,4.06,4.06,0,0,0,.39,3.07q-1.69,1.19-3.42,2.34a174.83,174.83,0,0,1-25.95,14.24v0a6.09,6.09,0,0,0-8.25-2.16q-2.62,1.49-5.24,3a6,6,0,0,0-3,5.53q-2.76.9-5.55,1.68a163.48,163.48,0,0,1-16.52,3.69,167.16,167.16,0,0,1-18,2.13c-3.35.2-6.69.31-10,.3-1.64,0-3.28,0-4.91-.08l-2-.08a9.38,9.38,0,0,1-1.57-.12l-2.38-.16a21.4,21.4,0,0,1-3.19-.31l-1.61-.17a177.43,177.43,0,0,1-36.4-7.66,171,171,0,0,1-104.44-95.79,164.92,164.92,0,0,1-10.85-35.34,173.13,173.13,0,0,1-2.51-18,165.54,165.54,0,0,1,5-55.27,168.23,168.23,0,0,1,12.69-33.15A143.7,143.7,0,0,1,432,257.35c3.47-5.16,7.08-10.2,11-15,2-2.41,4-4.77,6.17-7.05,2-2.09,3.92-4.24,6.07-6.13,2.31-2.05,4.5-4.21,6.84-6.24,2.14-1.87,4.37-3.64,6.63-5.38,1.37-1.06,2.75-2.11,4.16-3.13,1-.75,2.1-1.42,3.14-2.13s2.16-1.46,3.25-2.16c1.25-.8,2.48-1.65,3.76-2.39,2-1.21,4.08-2.42,6.18-3.52a4.15,4.15,0,0,1,1.93-2.82A164.8,164.8,0,0,1,518.82,188c2.24-.83,4.49-1.65,6.76-2.4,2.43-.8,4.93-1.46,7.41-2.09,4.46-1.14,9-2.11,13.52-2.86s9.31-1.41,14-1.85c2.53-.23,5.08-.42,7.63-.55,1.2-.06,2.4-.11,3.6-.14H573c.62,0,1.23,0,1.83,0s1.09-.05,1.63-.05H578c1.2,0,2.4,0,3.59,0,2.46.08,4.91.24,7.37.3a124.7,124.7,0,0,1,12.63,1.25l1.25.13c1.9.2,3.81.58,5.68,1,1.47.29,3,.59,4.41.92,3,.69,6,1.44,9,2.3a159.78,159.78,0,0,1,17.16,6,176.58,176.58,0,0,1,17.95,8.55,159.66,159.66,0,0,1,16.08,10.13A176.21,176.21,0,0,1,688,220.38a157.9,157.9,0,0,1,13.18,13.33c4.31,4.93,8.41,10.07,12.25,15.38a164.42,164.42,0,0,1,10.25,16.08,173.59,173.59,0,0,1,8.3,16.67,179.63,179.63,0,0,1,6.93,18.95A167.46,167.46,0,0,1,745.64,339.51Z" transform="translate(-83.86 -178.03)"/><path class="cls-4" d="M686.48,474.62a4.56,4.56,0,0,1,1.11.14,180.72,180.72,0,0,1-16.06,12.75,4.06,4.06,0,0,1-.39-3.07,4,4,0,0,1,1-1.76,32.81,32.81,0,0,1,2.77-2.08c.87-.58,1.75-1.09,2.65-1.61l6.69-3.8A4.54,4.54,0,0,1,686.48,474.62Z" transform="translate(-83.86 -178.03)"/><path class="cls-4" d="M642.15,504.07v0c-1.64.73-3.28,1.43-4.94,2.1-3.8,1.53-7.63,3-11.52,4.23a6,6,0,0,1,3-5.53q2.61-1.5,5.24-3A6.09,6.09,0,0,1,642.15,504.07Z" transform="translate(-83.86 -178.03)"/></g><path class="cls-6" d="M683.59,512a3.45,3.45,0,0,0-1.57,2,3.28,3.28,0,0,0,.35,2.63c3.05,4,6.16,8,9.43,11.86,2.87,3.4,5.77,6.76,8.57,10.22,2.44,3.24,4.88,6.51,7,9.94,2.36,3.73,4.4,7.63,6.51,11.51s4.14,7.55,6.15,11.35,3.91,7.43,6,11.1a163.56,163.56,0,0,0,12.47,18.85l.64.83a4.08,4.08,0,0,0,1.81,1.06,4.11,4.11,0,0,0,4.64-6c-2.48-3.88-4.77-7.87-7-11.89s-4.35-7.74-6.46-11.65c-2-3.66-4-7.24-6.17-10.79s-4.34-7-6.47-10.57c-1.05-1.75-2.12-3.48-3.22-5.19s-2.33-3.34-3.57-5c-2.53-3.31-5.18-6.56-7.93-9.69s-5.42-5.95-8.07-9-5.08-6.09-7.53-9.22l-.91-1.19a3.7,3.7,0,0,0-2-1.57,3.36,3.36,0,0,0-.91-.12,3.41,3.41,0,0,0-1.73.47Z" transform="translate(-83.86 -178.03)"/><path class="cls-6" d="M749.39,619.12a2.91,2.91,0,0,0-1.73,1.33,3.07,3.07,0,0,0-.29,2.23c.6,3,1.19,6.09,1.71,9.15a2.78,2.78,0,0,0,1.33,1.72,2.88,2.88,0,0,0,3.94-1,3.1,3.1,0,0,0,.29-2.22c-.52-3.06-1.09-6.11-1.68-9.16a2.86,2.86,0,0,0-2.84-2.12,2.72,2.72,0,0,0-.72.09Z" transform="translate(-83.86 -178.03)"/><path class="cls-8" d="M570.82,209.35a3.73,3.73,0,0,0-.89,6.82,3.94,3.94,0,0,0,2.88.38c1.31-.24,2.64-.44,4-.65a33.79,33.79,0,0,1,6.66-.07c3.5.58,6.93,1.59,10.36,2.5,3.16.84,6.28,1.8,9.38,2.86s6.15,2.4,9.2,3.63,6,2.37,8.95,3.58c4.13,1.85,8.22,3.79,12.23,5.9,2.21,1.16,4.46,2.28,6.59,3.58l3.18,1.94c1,.61,1.94,1.33,2.9,2,3.45,2.74,6.79,5.61,10.2,8.41,1.91,1.57,3.89,3.07,5.84,4.61a57.4,57.4,0,0,1,8.84,8.9c2.19,3,4.35,5.92,6.42,9l3.63,5.36a85.74,85.74,0,0,1,4.38,7.51q1.9,3.56,3.56,7.24c1.58,3.91,3.14,7.82,4.62,11.77,1.57,4.2,3.18,8.38,4.79,12.56a4.82,4.82,0,0,0,2.07,2.69,4.51,4.51,0,0,0,3.46.45,4.56,4.56,0,0,0,3.14-5.53c-1.33-5.5-3-10.93-4.59-16.36-.75-2.54-1.61-5-2.43-7.56a94.71,94.71,0,0,0-7-15.79c-1.6-2.93-3.39-5.79-5.27-8.54-1.49-2.18-2.94-4.39-4.53-6.51-3-4-6-8.09-9.81-11.3-2.33-1.95-4.71-3.82-7.14-5.66L664,241.22c-1.7-1.33-3.38-2.68-5.07-4-1.29-1-2.56-2.07-3.89-3-1-.76-2.05-1.58-3.14-2.27a77.19,77.19,0,0,0-6.75-4c-2.38-1.21-4.76-2.4-7.2-3.49-5.26-2.35-10.57-4.49-16-6.34-2.62-.89-5.26-1.72-7.88-2.62-2.33-.8-4.65-1.65-7-2.36-4.63-1.4-9.34-2.42-14.07-3.43-2.72-.58-5.44-1.1-8.2-1.45a25.7,25.7,0,0,0-3.23-.2,57.69,57.69,0,0,0-10.75,1.33Z" transform="translate(-83.86 -178.03)"/><path class="cls-8" d="M701.61,345.52A5.49,5.49,0,1,0,707.1,340a5.54,5.54,0,0,0-5.49,5.49Z" transform="translate(-83.86 -178.03)"/></g></svg>