<svg id="Layer_15" data-name="Layer 15" xmlns="http://www.w3.org/2000/svg" viewBox="0 0 261.42 730.45"><defs><style>.cls-1{fill:#404040;}.cls-2{fill:#081563;}.cls-3{fill:#7f7f7f;}.cls-4{fill:#fefefe;}</style></defs><title>honest_billing</title><g id="_Group_" data-name="&lt;Group&gt;"><path class="cls-1" d="M469.49,673.5q.44,3.25.86,6.52a1.6,1.6,0,0,1-.49,1.18,1.72,1.72,0,0,1-1.19.49,1.68,1.68,0,0,1-1.18-.49,1.63,1.63,0,0,1-.43-.74c-.21-1.36-.43-2.73-.64-4.09l2.37-2.35A3.18,3.18,0,0,1,469.49,673.5Z" transform="translate(-258.79 -48.44)"/><path class="cls-1" d="M466.42,676.37l-.45-2.81c-.34-2.22-.64-4.43-.93-6.65-.54-4.09-1-8.18-1.41-12.28q-.68-6.48-1.29-13t-1.42-12.94c-.76-5.55-1.57-11.09-2.33-16.63s-1.44-10.84-2.15-16.25a2.91,2.91,0,0,1,0-.31c-1-7.25-2-14.49-2.75-21.77-.38-3.89-.74-7.79-1.12-11.69-.35-3.59-.78-7.16-1.22-10.74-.39-2.79-.77-5.59-1.23-8.37-.51-3-1-6-1.53-9.06-1-6-1.93-12.07-2.77-18.12-.66-4.71-1.32-9.43-1.83-14.16-.54-4.94-1-9.88-1.45-14.84-.4-4.69-.76-9.39-.95-14.09-.2-5-.33-10-.73-15-.78-9.86-1.84-19.69-2.75-29.53-.46-5-.89-9.94-1.36-14.91s-1-9.66-1.46-14.49-.93-9.77-1.4-14.65-.94-9.59-1.38-14.39-.77-9.73-1.13-14.59c-.16-2.16-.32-4.33-.52-6.49-.23-2.58-.49-5.13-.77-7.7-.15-1.14-.31-2.29-.46-3.44s-.34-2.13-.51-3.19q-.51-3.14-1.15-6.24c-1-4.73-2-9.44-2.72-14.2s-1.4-9.57-2.11-14.35c-.68-4.55-1.47-9.08-2.26-13.61-.84-4.87-1.74-9.74-2.73-14.58-.91-4.42-1.86-8.84-2.64-13.28-1.74-9.79-3.11-19.63-4.67-29.45l.91-.52c.83-.45,1.66-.87,2.5-1.29.72,4.43,1.39,8.87,2.06,13.3.55,3.73,1.11,7.46,1.72,11.18s1.24,7.52,2,11.26,1.55,7.48,2.28,11.24c.95,4.91,1.8,9.84,2.65,14.77s1.6,9.64,2.3,14.49c.33,2.28.64,4.56,1,6.84l.72,4.49c.2,1.24.45,2.48.68,3.72.41,2.23.9,4.44,1.36,6.66.24,1.18.49,2.37.73,3.56s.48,2.4.68,3.6l.69,4.12c.2,1.19.34,2.4.5,3.6.32,2.3.57,4.6.78,6.91.43,4.84.79,9.69,1.14,14.55s.76,9.76,1.21,14.64,1,9.86,1.41,14.78c.89,9.69,1.91,19.37,2.75,29.06q.63,7.39,1.29,14.78c.41,4.59.88,9.18,1.29,13.77.46,5.06.9,10.11,1.14,15.19.23,4.81.34,9.63.69,14.44.68,9.58,1.71,19.11,2.93,28.63l0,.25q1.44,10.51,3.09,21c.76,4.78,1.62,9.54,2.43,14.31.39,2.29.71,4.6,1,6.91s.66,4.72.92,7.09c.28,2.61.56,5.22.82,7.83.24,2.44.45,4.88.7,7.32s.48,4.84.75,7.26c.26,2.27.55,4.53.84,6.8q1,7.71,2.05,15.42c.6,4.67,1.18,9.35,1.8,14v0a.52.52,0,0,1,0,.18.06.06,0,0,1,0,0c.65,4.66,1.36,9.32,1.93,14,.31,2.42.61,4.84.85,7.26s.49,5.14.72,7.71c.83,9.16,1.77,18.33,3,27.45,0,.05,0,.11,0,.16a.78.78,0,0,1,0,.14l.27,1.92a3.18,3.18,0,0,0-.7.52Z" transform="translate(-258.79 -48.44)"/><path class="cls-2" d="M466,673.56c-.34-2.22-.64-4.43-.93-6.65-.54-4.09-1-8.18-1.41-12.28q-.68-6.48-1.29-13t-1.42-12.94c-.76-5.55-1.57-11.09-2.33-16.63s-1.44-10.84-2.15-16.25a2.9,2.9,0,0,1,0-.31c-1-7.25-2-14.49-2.75-21.77-.38-3.89-.74-7.79-1.12-11.69-.35-3.59-.78-7.16-1.22-10.74-.39-2.79-.77-5.59-1.23-8.37-.51-3-1-6-1.53-9.06-1-6-1.93-12.07-2.77-18.12-.66-4.71-1.32-9.43-1.83-14.16-.54-4.94-1-9.88-1.45-14.84-.4-4.69-.76-9.39-1-14.09-.2-5-.33-10-.73-15-.78-9.86-1.84-19.69-2.75-29.53-.46-5-.89-9.94-1.36-14.91s-1-9.66-1.46-14.49-.93-9.77-1.4-14.65-.94-9.59-1.38-14.39-.77-9.73-1.13-14.59c-.16-2.16-.32-4.33-.52-6.49-.23-2.58-.49-5.13-.77-7.7-.15-1.14-.31-2.29-.46-3.44s-.34-2.13-.51-3.19q-.51-3.13-1.15-6.24c-1-4.73-2-9.44-2.72-14.2s-1.4-9.57-2.11-14.35c-.68-4.55-1.47-9.08-2.26-13.61-.84-4.87-1.74-9.74-2.73-14.58-.91-4.42-1.86-8.84-2.64-13.28-1.74-9.79-3.11-19.63-4.67-29.45-.85.48-1.68,1-2.53,1.45a16.68,16.68,0,0,1-4.35,1.73,29,29,0,0,1-5,.62c-2.9.09-5.79.06-8.69,0l-9-.11a49.67,49.67,0,0,1-9-.73,19.24,19.24,0,0,1-3.5-1c-.82,2.87-1.65,5.75-2.37,8.64s-1.46,6-2.14,8.94c-1.23,5.43-2.35,10.89-3.46,16.35-1.21,5.88-2.29,11.79-3.36,17.7s-2.26,11.63-3.42,17.44c-1.1,5.5-2.09,11-3.33,16.49-.64,2.84-1.31,5.66-2,8.49s-1.34,5.8-1.88,8.72c-1.09,5.84-2,11.7-2.89,17.58-.82,5.63-1.63,11.25-2.67,16.84-1.08,5.84-2.23,11.66-3.54,17.46-.65,2.89-1.34,5.79-1.91,8.71-.64,3.19-1.24,6.38-1.82,9.59-1,5.83-1.82,11.71-2.71,17.56-.82,5.42-1.8,10.83-2.73,16.23-.57,3.33-1.16,6.65-1.77,10-.47,2.59-1,5.18-1.45,7.77-.58,3.2-1.14,6.39-1.67,9.6-.45,2.75-.84,5.51-1.23,8.26-.25,2.09-.52,4.16-.72,6.24-.24,2.52-.49,5-.7,7.56s-.41,5-.63,7.46c-.19,2.21-.35,4.44-.6,6.64-.54,4.77-1.12,9.53-1.8,14.28s-1.36,9.3-2,14v0c0,.08,0,.17,0,.25v0q-2.45,18.49-4.37,37c-.58,5.56-1,11.13-1.61,16.68-.65,5.87-1.52,11.7-2.34,17.54-.8,5.65-1.52,11.31-2.33,17s-1.76,11.51-2.58,17.27l.06-.51c-.71,5.31-1.32,10.65-2.23,15.93-.47,2.71-1,5.41-1.43,8.12-.4,2.27-.7,4.56-1,6.85-.44,3.51-.82,7-1.34,10.52-.45,3.06-1.09,6.09-1.61,9.15a3.4,3.4,0,0,0,0,.45,3.5,3.5,0,0,0,.17.55,7.73,7.73,0,0,0,.67,1.19,32.68,32.68,0,0,0,3,3c1,.88,1.89,1.78,2.83,2.68,1.73,1.65,3.44,3.32,5.22,4.92,3.54,3.19,7.35,6.07,11,9.17,7.68,6.62,14.91,13.75,22.41,20.56,4.26,3.87,8.54,7.71,12.67,11.71,2,2,4,3.92,6,5.86s4.25,4.08,6.37,6.12c1.88,1.83,3.74,3.67,5.64,5.47s4.06,3.82,6.09,5.73c3.86,3.62,7.62,7.32,11.36,11,1-1.88,2-3.75,3.07-5.59,2-3.49,4-7,6.22-10.38,2-3,4.08-6.07,6.34-9s4.33-5.44,6.56-8.11c4.52-5.4,9-10.83,13.32-16.37,0,0,0,0,0,0l0,0,7.22-9.34c1.28-1.64,2.54-3.29,3.84-4.91s2.52-3.23,3.85-4.77,2.78-3.21,4.16-4.82c1-1.21,2.19-2.36,3.29-3.53,2.24-2.4,4.53-4.74,6.84-7.08,4.36-4.39,8.71-8.78,13.1-13.13Zm-119.49,31a3.24,3.24,0,0,1-3.9.51c-2.1-1.27-4.18-2.57-6.2-4-1-.69-2-1.39-3-2.11-1.19-.87-2.33-1.78-3.47-2.71a20.93,20.93,0,0,1-2.35-2.45c-.73-.81-1.4-1.69-2.09-2.53-1.57-1.91-3.09-3.86-4.5-5.9-.91-1.31-1.79-2.62-2.65-4-.43-.67-.88-1.35-1.27-2a28.42,28.42,0,0,1-1.83-4.15,21.18,21.18,0,0,1-1.22-5.68,30.75,30.75,0,0,1,0-3.84c.08-1.6.24-3.19.35-4.78.23-3.1.41-6.22.79-9.32.42-3.32,1-6.63,1.44-10s.84-6.73,1.28-10.1.88-6.88,1.2-10.33c.29-3.07.45-6.14.65-9.22.21-3.27.41-6.54.54-9.82.13-3.07.13-6.14.26-9.21s.33-6.16.56-9.23c.49-6.53.89-13.07,1.64-19.58a86.63,86.63,0,0,1,1.76-10c.74-3.12,1.34-6.24,1.81-9.41s.85-6.51,1.27-9.76.84-6.49,1.43-9.71,1.2-6.27,1.87-9.39c.83-3.84,1.75-7.64,2.71-11.43a2.58,2.58,0,0,1,2.5-1.88,2.36,2.36,0,0,1,.65.08,2.61,2.61,0,0,1,1.8,3.16c-.61,2.35-1.18,4.72-1.76,7.09-.4,1.66-.72,3.34-1.08,5-.67,3.14-1.21,6.3-1.73,9.47-.35,2.73-.66,5.45-.93,8.19s-.53,5.62-.81,8.43c-.32,3.15-.76,6.27-1.32,9.39-.47,2.53-.92,5.06-1.29,7.61-.55,5.46-.81,10.94-1.35,16.4s-1.33,10.87-1.89,16.32c-.34,3.18-.59,6.37-.91,9.55-.3,3-.67,6-1,9-.34,3.34-.66,6.68-1,10s-.82,6.39-1.26,9.57c-.69,5.15-1.27,10.31-2,15.45-.22,1.61-.44,3.22-.55,4.85-.13,1.85-.21,3.71-.25,5.57,0,1.62-.06,3.24-.06,4.85a58.7,58.7,0,0,0,.18,6.08,23.15,23.15,0,0,0,1.24,4.49,18.75,18.75,0,0,0,.86,1.81c.49.88,1,1.71,1.61,2.54s1.07,1.5,1.64,2.24l0,0,0,0a61.82,61.82,0,0,0,4.71,5.26c1.74,1.72,3.4,3.51,5.16,5.21s3.75,3.28,5.67,4.86,4.05,3.23,6.08,4.82a3.08,3.08,0,0,1,1,2.28A3.2,3.2,0,0,1,346.48,704.52ZM364,729a3.18,3.18,0,0,1-3.81-.49c-1.47-1.47-2.9-3-4.31-4.49-.71-.77-1.44-1.53-2.2-2.25s-1.56-1.32-2.37-2a3.74,3.74,0,0,1-1.13-2.74,3.88,3.88,0,0,1,1.13-2.73A3.92,3.92,0,0,1,354,713.2a3.74,3.74,0,0,1,2,.53l.78.6a29.15,29.15,0,0,1,4.8,4.42,34.38,34.38,0,0,1,3.55,5.92A3.2,3.2,0,0,1,364,729Z" transform="translate(-258.79 -48.44)"/><path class="cls-1" d="M462.67,614.61a0,0,0,0,0,0,0h0Z" transform="translate(-258.79 -48.44)"/><path class="cls-2" d="M441,173.55a22,22,0,0,1-.11,3.63,27.28,27.28,0,0,1-1.13,4.53q-.8,2.31-1.72,4.57c-.92,2.08-1.91,4.12-2.91,6.17s-2.12,4.31-3.26,6.43-2.3,4-3.49,5.95-2.48,3.9-3.84,5.76c-.74.92-1.5,1.81-2.31,2.69a27.44,27.44,0,0,1-2.64,2.41,34.38,34.38,0,0,1-3.6,2.37c-1.48.82-3,1.58-4.53,2.32s-3,1.47-4.51,2.29c-1.17.64-2.3,1.32-3.5,1.9a18.11,18.11,0,0,1-2.88.72c-4.24.31-8.49.18-12.74.12s-8.3.06-12.42-.34c-.83-.14-1.65-.29-2.47-.47a16.4,16.4,0,0,1-2.26-.7,56.2,56.2,0,0,1-9.07-6.17q-2.79-2.16-5.51-4.41c-1.93-1.61-3.83-3.28-5.74-4.93s-4-3.49-5.83-5.37a64.65,64.65,0,0,1-4.86-5.59c-1.18-1.58-2.38-3.17-3.41-4.86a66.26,66.26,0,0,1-4.09-7.61,61.26,61.26,0,0,1-2.07-6.22c.25-1.43.54-2.84.88-4.25s.66-2.74,1.1-4.07.94-2.77,1.48-4.14q.69-1.57,1.47-3.12c.6-1.19,1.3-2.34,2-3.49a62.63,62.63,0,0,1,4.35-6.15l.23-.3c2.58-3.33,5.15-6.69,8-9.83a74.62,74.62,0,0,1,9.08-8.42,59.53,59.53,0,0,1,10.24-6.1c2.28-.89,4.62-1.64,7-2.35a53.54,53.54,0,0,1,7.08-1.67c3.46-.43,6.95-.52,10.43-.76A67.11,67.11,0,0,1,404,124a27,27,0,0,1,3.05.62,26.64,26.64,0,0,1,3,1,44.06,44.06,0,0,1,4.54,2.44c1.44.9,2.82,1.89,4.17,2.9,1.57,1.27,3.05,2.63,4.49,4a51.34,51.34,0,0,1,4.24,4.61,87.83,87.83,0,0,1,8.62,15.49c1,2.3,1.92,4.61,2.68,7a54.41,54.41,0,0,1,1.89,8.15C440.85,171.34,441,172.44,441,173.55Z" transform="translate(-258.79 -48.44)"/><path class="cls-1" d="M341.63,153.22l-.23.3a62.63,62.63,0,0,0-4.35,6.15c-.68,1.15-1.38,2.3-2,3.49q-.78,1.54-1.47,3.12c-.54,1.37-1,2.74-1.48,4.14s-.76,2.71-1.1,4.07-.63,2.82-.88,4.25a61.26,61.26,0,0,0,2.07,6.22,66.26,66.26,0,0,0,4.09,7.61c1,1.69,2.23,3.28,3.41,4.86a64.65,64.65,0,0,0,4.86,5.59c1.87,1.88,3.83,3.64,5.83,5.37s3.81,3.32,5.74,4.93,3.65,3,5.51,4.41a56.2,56.2,0,0,0,9.07,6.17,16.4,16.4,0,0,0,2.26.7c.82.18,1.64.33,2.47.47,4.12.4,8.29.29,12.42.34s8.5.19,12.74-.12a18.11,18.11,0,0,0,2.88-.72c1.2-.58,2.33-1.26,3.5-1.9,1.47-.82,3-1.55,4.51-2.29s3.05-1.5,4.53-2.32a34.38,34.38,0,0,0,3.6-2.37,27.44,27.44,0,0,0,2.64-2.41c.81-.88,1.57-1.77,2.31-2.69,1.36-1.86,2.63-3.78,3.84-5.76s2.4-3.93,3.49-5.95,2.21-4.27,3.26-6.43,2-4.09,2.91-6.17q.93-2.26,1.72-4.57a27.28,27.28,0,0,0,1.13-4.53,22,22,0,0,0,.11-3.63c-.08-1.11-.19-2.21-.33-3.32a54.41,54.41,0,0,0-1.89-8.15c-.76-2.38-1.7-4.69-2.68-7a87.83,87.83,0,0,0-8.62-15.49,51.34,51.34,0,0,0-4.24-4.61c-1.44-1.4-2.92-2.76-4.49-4-1.35-1-2.73-2-4.17-2.9a44.06,44.06,0,0,0-4.54-2.44,26.64,26.64,0,0,0-3-1A27,27,0,0,0,404,124a67.11,67.11,0,0,0-10.61.11c-3.48.24-7,.33-10.43.76a53.54,53.54,0,0,0-7.08,1.67c-2.35.71-4.69,1.46-7,2.35a59.53,59.53,0,0,0-10.24,6.1,74.62,74.62,0,0,0-9.08,8.42C346.78,146.53,344.21,149.89,341.63,153.22ZM446.16,171a30.7,30.7,0,0,1,.19,3.83c0,.81-.08,1.6-.16,2.41a21,21,0,0,1-.34,2.36c-.34,1.42-.71,2.83-1.17,4.22-1,2.95-2.14,5.83-3.37,8.68-1.14,2.62-2.28,5.23-3.52,7.8s-2.54,4.81-3.9,7.15c-3.06,5.32-6.41,10.68-11.37,14.44a36,36,0,0,1-3.57,2.41c-1.15.67-2.33,1.28-3.51,1.88l-1.23.62c0-.22-.07-.43-.1-.65a1.79,1.79,0,0,0-.84-1.1,1.91,1.91,0,0,0-.93-.25,2.07,2.07,0,0,0-.49.07,1.89,1.89,0,0,0-1.1.84,2,2,0,0,0-.18,1.42c.08.49.16,1,.23,1.48-.85.48-1.68,1-2.53,1.45a16.68,16.68,0,0,1-4.35,1.73,29,29,0,0,1-5,.62c-2.9.09-5.79.06-8.69,0l-9-.11a49.67,49.67,0,0,1-8.95-.73,19.24,19.24,0,0,1-3.5-1c0-.2.11-.41.17-.61a2.65,2.65,0,0,0-1.84-3.24,2.24,2.24,0,0,0-.68-.1,2.65,2.65,0,0,0-2.32,1.39c-2.26-1.59-4.47-3.26-6.65-5-2.48-1.9-4.92-3.84-7.3-5.86-2.06-1.75-4.12-3.5-6.15-5.28-1.1-1-2.21-1.93-3.23-3s-2.08-2.18-3.09-3.32A79.43,79.43,0,0,1,332,198.2a48,48,0,0,1-4.41-7.72,36.15,36.15,0,0,1-2-5.33l-.63-2.33c-.42-1.56-.77-3.13-1.09-4.71a3.12,3.12,0,0,1,.3-2.3,3,3,0,0,1,1.78-1.36,2.81,2.81,0,0,1,1.38,0,59.93,59.93,0,0,1,3-10.1,52.64,52.64,0,0,1,4-7.74c.77-1.26,1.66-2.44,2.54-3.62s1.8-2.37,2.72-3.55c1.79-2.3,3.6-4.58,5.46-6.82a63.61,63.61,0,0,1,5.78-6.06,73.09,73.09,0,0,1,6.72-5.58,52.56,52.56,0,0,1,6.84-4.18,41.18,41.18,0,0,1,4.12-1.86c1.34-.52,2.71-.93,4.07-1.36,2.57-.8,5.18-1.51,7.81-2.1s5.35-1.06,8.06-1.44,5.53-.86,8.31-1.2a48.13,48.13,0,0,1,5.87-.42c.83,0,1.66,0,2.49.11a26.51,26.51,0,0,1,8.94,2.46,51.53,51.53,0,0,1,14.1,10.18,43,43,0,0,1,5.79,6.9,70,70,0,0,1,4.3,7.41c.62,1.26,1.24,2.52,1.82,3.8l.53,1.19c.13.29.23.51.31.73l.18.44c.35.83.69,1.67,1,2.52.49,1.24.94,2.5,1.37,3.78a56.2,56.2,0,0,1,2.09,8.29C445.8,167.79,446,169.42,446.16,171Z" transform="translate(-258.79 -48.44)"/><path class="cls-1" d="M410.75,225.75a1.89,1.89,0,0,1,1.1-.84,2.07,2.07,0,0,1,.49-.07,1.91,1.91,0,0,1,.93.25,1.79,1.79,0,0,1,.84,1.1c0,.22.07.43.1.65-.84.42-1.67.84-2.5,1.29l-.91.52c-.07-.49-.15-1-.23-1.48A2,2,0,0,1,410.75,225.75Z" transform="translate(-258.79 -48.44)"/><path class="cls-1" d="M386.28,777.92l0,.06.15.05Z" transform="translate(-258.79 -48.44)"/><path class="cls-1" d="M470.5,679.84a3.7,3.7,0,0,0-.24-.54l.1.72a1.6,1.6,0,0,1-.49,1.18,1.72,1.72,0,0,1-1.19.49,1.68,1.68,0,0,1-1.18-.49,1.63,1.63,0,0,1-.43-.74c-.21-1.36-.43-2.73-.64-4.09-4.39,4.35-8.74,8.74-13.1,13.13-2.31,2.34-4.6,4.68-6.84,7.08-1.1,1.17-2.24,2.32-3.29,3.53-1.38,1.61-2.77,3.21-4.16,4.82s-2.57,3.18-3.85,4.77-2.56,3.27-3.84,4.91l-7.22,9.34,0,0s0,0,0,0c-4.36,5.54-8.8,11-13.32,16.37q-3.35,4-6.56,8.11c-2.26,2.88-4.31,5.9-6.34,9-2.24,3.35-4.21,6.89-6.22,10.38-1.06,1.84-2.08,3.71-3.07,5.59l1.41,1.41a2.41,2.41,0,0,1,0,3.38,2.33,2.33,0,0,1-.19.15,6.24,6.24,0,0,0,2.82-1.14q2.27-4.31,4.78-8.49c.62-1,1.2-2.06,1.85-3.06l2.32-3.53c1.16-1.77,2.43-3.46,3.67-5.17,2-2.55,4-5.1,6.2-7.52q3.64-4.08,7.28-8.15c4.65-5.19,9.08-10.56,13.45-16,2.14-2.66,4.25-5.34,6.37-8,2-2.47,3.88-5,5.94-7.38l4.11-4.78c1.12-1.31,2.34-2.54,3.5-3.8,2.14-2.32,4.34-4.58,6.51-6.87q6.08-6.42,12.11-12.89C470.64,681,470.54,680.43,470.5,679.84Z" transform="translate(-258.79 -48.44)"/><path class="cls-1" d="M470.5,679.84c0,.6.15,1.18.2,1.74l0,0A4.5,4.5,0,0,0,470.5,679.84Z" transform="translate(-258.79 -48.44)"/><path class="cls-1" d="M386.4,778l.19.18a2.42,2.42,0,0,0,3.19.15A7.8,7.8,0,0,1,386.4,778Z" transform="translate(-258.79 -48.44)"/><path class="cls-1" d="M390,774.83l-1.41-1.41c-.78,1.49-1.55,3-2.28,4.5l.12.11a7.8,7.8,0,0,0,3.38.33,2.33,2.33,0,0,0,.19-.15A2.41,2.41,0,0,0,390,774.83Z" transform="translate(-258.79 -48.44)"/><path class="cls-1" d="M367.11,226.75A2.65,2.65,0,0,1,369,230c-.06.2-.12.41-.17.61a20.93,20.93,0,0,1-4.37-2.35l-.3-.21a2.65,2.65,0,0,1,2.32-1.39A2.24,2.24,0,0,1,367.11,226.75Z" transform="translate(-258.79 -48.44)"/><path class="cls-3" d="M365.08,724.67a3.15,3.15,0,0,1-4.94,3.82c-1.47-1.47-2.9-3-4.31-4.49-.71-.77-1.44-1.53-2.2-2.25s-1.56-1.32-2.37-2a3.74,3.74,0,0,1-1.13-2.74,3.88,3.88,0,0,1,1.13-2.73A3.92,3.92,0,0,1,354,713.2a3.74,3.74,0,0,1,1.95.53l.78.6a29.15,29.15,0,0,1,4.8,4.42A34.39,34.39,0,0,1,365.08,724.67Z" transform="translate(-258.79 -48.44)"/><path class="cls-1" d="M388.56,773.42c-3.74-3.73-7.5-7.43-11.36-11-2-1.91-4.07-3.8-6.09-5.73s-3.76-3.64-5.64-5.47c-2.12-2-4.26-4.07-6.37-6.12s-4-3.91-6-5.86c-4.13-4-8.41-7.84-12.67-11.71-7.5-6.81-14.73-13.94-22.41-20.56-3.62-3.1-7.43-6-11-9.17-1.78-1.6-3.49-3.27-5.22-4.92-.94-.9-1.88-1.8-2.83-2.68a32.68,32.68,0,0,1-3-3,7.73,7.73,0,0,1-.67-1.19,3.5,3.5,0,0,1-.17-.55,3.4,3.4,0,0,1,0-.45c.52-3.06,1.16-6.09,1.61-9.15.52-3.5.9-7,1.34-10.52.31-2.29.61-4.58,1-6.85.48-2.71,1-5.41,1.43-8.12.91-5.28,1.52-10.62,2.23-15.93l-.06.51c.82-5.76,1.76-11.51,2.58-17.27s1.53-11.31,2.33-17c.82-5.84,1.69-11.67,2.34-17.54.62-5.55,1-11.12,1.61-16.68q1.92-18.55,4.37-37v0c0-.08,0-.17,0-.25v0c.67-4.66,1.35-9.3,2-14s1.26-9.51,1.8-14.28c.25-2.2.41-4.43.6-6.64q.33-3.72.63-7.46c.21-2.52.46-5,.7-7.56.2-2.08.47-4.15.72-6.24.39-2.75.78-5.51,1.23-8.26.53-3.21,1.09-6.4,1.67-9.6.46-2.59,1-5.18,1.45-7.77.61-3.33,1.2-6.65,1.77-10,.93-5.4,1.91-10.81,2.73-16.23.89-5.85,1.68-11.73,2.71-17.56.58-3.21,1.18-6.4,1.82-9.59.57-2.92,1.26-5.82,1.91-8.71,1.31-5.8,2.46-11.62,3.54-17.46,1-5.59,1.85-11.21,2.67-16.84.86-5.88,1.8-11.74,2.89-17.58.54-2.92,1.23-5.82,1.88-8.72s1.31-5.65,2-8.49c1.24-5.47,2.23-11,3.33-16.49,1.16-5.81,2.35-11.61,3.42-17.44s2.15-11.82,3.36-17.7c1.11-5.46,2.23-10.92,3.46-16.35.68-3,1.4-6,2.14-8.94s1.55-5.77,2.37-8.64a20.93,20.93,0,0,1-4.37-2.35l-.3-.21a2.09,2.09,0,0,0-.24.55c-.88,3.07-1.78,6.14-2.56,9.24s-1.55,6.28-2.27,9.44c-1.25,5.47-2.4,11-3.57,16.45-.61,2.9-1.23,5.79-1.78,8.69s-1.09,5.8-1.67,8.68c-1.21,6.1-2.48,12.18-3.75,18.26-1.17,5.56-2.24,11.13-3.52,16.66s-2.69,11.11-3.73,16.74-1.88,11.31-2.65,17c-.79,5.89-1.62,11.77-2.62,17.62q-.82,4.8-1.73,9.58c-.52,2.82-1.14,5.63-1.72,8.44-1.2,5.69-2.34,11.4-3.19,17.16q-.68,4.59-1.31,9.18c-.42,3-.79,6-1.24,9-.88,5.91-1.86,11.8-2.82,17.7s-2,11.75-3,17.63-1.93,11.61-2.58,17.45c-.36,3.29-.68,6.57-1,9.86-.23,2.62-.4,5.25-.61,7.87q-.37,4.77-.79,9.52c-.24,2.86-.61,5.71-1,8.55-.1.85-.21,1.69-.31,2.54-.8,5.74-1.68,11.48-2.44,17.23s-1.51,11.75-2.19,17.64c-.71,6.09-1.42,12.19-2,18.29-.59,5.64-1,11.3-1.62,16.93-.29,2.6-.59,5.18-.92,7.77q-1.68,11.93-3.29,23.87s0,.08,0,.12l0,.21v0q-1,7.09-2.06,14.19c-.73,4.69-1.32,9.4-1.93,14.11,0,.17,0,.34-.07.51-.33,2.48-.7,4.94-1.1,7.41-.44,2.64-.92,5.27-1.31,7.92s-.7,5.4-1,8.11-.5,5.44-.82,8.15v0q-.5,3.59-1.28,7.11c-.11.51-.24,1-.35,1.54-.07.28-.12.57-.17.86l-.09.6a3.07,3.07,0,0,0,0,1.28,7.89,7.89,0,0,0,1,2.85,6.78,6.78,0,0,0,.92,1.34c.42.52.86,1,1.33,1.48,2,2,4.08,4,6.1,6.1.82.83,1.63,1.66,2.48,2.46,1.16,1.1,2.33,2.17,3.54,3.23,2.17,1.92,4.4,3.77,6.61,5.66s4.31,3.84,6.43,5.8c4.07,3.77,8,7.71,12,11.55,4.26,4.09,8.59,8.1,12.87,12.16,2.08,2,4.13,4,6.18,6s4,4,6,6,3.93,3.81,5.88,5.73,3.81,3.75,5.74,5.59c4.15,4,8.45,7.78,12.66,11.7,1.63,1.5,3.24,3,4.86,4.53C387,776.41,387.78,774.91,388.56,773.42Z" transform="translate(-258.79 -48.44)"/><path class="cls-3" d="M324.44,554.15c.74-3.12,1.34-6.24,1.81-9.41s.85-6.51,1.27-9.76.84-6.49,1.43-9.71,1.2-6.27,1.87-9.39c.83-3.84,1.75-7.64,2.71-11.43a2.58,2.58,0,0,1,2.5-1.88,2.36,2.36,0,0,1,.65.08,2.61,2.61,0,0,1,1.8,3.16c-.61,2.35-1.18,4.72-1.76,7.09-.4,1.66-.72,3.34-1.08,5-.67,3.14-1.21,6.3-1.73,9.47-.35,2.73-.66,5.45-.93,8.19s-.53,5.62-.81,8.43c-.32,3.15-.76,6.27-1.32,9.39-.47,2.53-.92,5.06-1.29,7.61-.55,5.46-.81,10.94-1.35,16.4s-1.33,10.87-1.89,16.32c-.34,3.18-.59,6.37-.91,9.55-.3,3-.67,6-1,9-.34,3.34-.66,6.68-1,10s-.82,6.39-1.26,9.57c-.69,5.15-1.27,10.31-2,15.45-.22,1.61-.44,3.22-.55,4.85-.13,1.85-.21,3.71-.25,5.57,0,1.62-.06,3.24-.06,4.85a58.71,58.71,0,0,0,.18,6.08,23.16,23.16,0,0,0,1.24,4.49,18.77,18.77,0,0,0,.86,1.81c.49.88,1,1.71,1.61,2.54s1.07,1.5,1.64,2.24l0,0,0,0a61.81,61.81,0,0,0,4.71,5.26c1.74,1.72,3.4,3.51,5.16,5.21s3.75,3.28,5.67,4.86,4,3.23,6.08,4.82a3.08,3.08,0,0,1,.95,2.28,3.2,3.2,0,0,1-.95,2.27,3.24,3.24,0,0,1-3.9.51c-2.1-1.27-4.18-2.57-6.2-4-1-.69-2-1.39-3-2.11-1.19-.87-2.33-1.78-3.47-2.71a20.93,20.93,0,0,1-2.35-2.45c-.73-.81-1.4-1.69-2.09-2.53-1.57-1.91-3.09-3.86-4.5-5.9-.91-1.31-1.79-2.62-2.65-4-.43-.67-.88-1.35-1.27-2a28.42,28.42,0,0,1-1.83-4.15,21.18,21.18,0,0,1-1.22-5.68,30.75,30.75,0,0,1,0-3.84c.08-1.6.24-3.19.35-4.78.23-3.1.41-6.22.79-9.32.42-3.32.95-6.63,1.44-10s.84-6.73,1.28-10.1.88-6.88,1.2-10.33c.29-3.07.45-6.14.65-9.22.21-3.27.41-6.54.54-9.82.13-3.07.13-6.14.26-9.21s.33-6.16.56-9.23c.49-6.53.89-13.07,1.64-19.58A86.64,86.64,0,0,1,324.44,554.15Z" transform="translate(-258.79 -48.44)"/></g><path class="cls-4" d="M473.48,205.52l-2.89.35a1,1,0,0,0-.64.26.91.91,0,0,0,0,1.27.86.86,0,0,0,.64.27l2.89-.35a1,1,0,0,0,.64-.27.91.91,0,0,0-.58-1.54Z" transform="translate(-258.79 -48.44)"/><path class="cls-4" d="M503.8,55.9c.47,3.4,1,6.79,1.5,10.19.3,2,.57,3.91.94,5.84,1,4.92,1.91,9.83,3,14.72.55,2.49,1.13,5,1.62,7.48.55,2.9,1.11,5.81,1.67,8.71l1,7.18c.3,2.29.5,4.61.59,6.92.07,1.67,0,3.35,0,5-.05,1.18-.1,2.38-.22,3.55-.3,3-.61,6-1,9.06-1.25,1.88-2.51,3.75-3.77,5.63-1.1,1.65-2.24,3.29-3.39,4.9s-2.33,3.31-3.53,4.93l-2.22,3c-1.29,1.63-2.57,3.25-3.89,4.86l-4,4.78c-1.38,1.66-2.76,3.31-4.18,4.93s-2.69,3-4,4.54c-2.83,3.2-5.62,6.44-8.42,9.67q-2.2,2.55-4.47,5.06c-1.3,1.46-2.65,2.9-3.92,4.4q-2.16,2.56-4.23,5.2c-1.33,1.71-2.65,3.43-3.9,5.2-.54.77-1.06,1.55-1.57,2.34-.15-1.16-.25-2.31-.34-3.48-.08-1-.1-2-.15-3-.1-2.16-.27-4.32-.45-6.47-.2-2.32-.46-4.62-.8-6.93-.3-2.08-.64-4.17-1.14-6.22s-1.05-4.22-1.75-6.28-1.54-4.35-2.41-6.5-1.95-4.38-3-6.52c-.94-1.89-2-3.73-3.1-5.54a121.48,121.48,0,0,0-7.69-11q-2.13-2.75-4.33-5.43c-1.41-1.71-2.88-3.37-4.36-5-.7-.77-1.45-1.5-2.17-2.25-.38-.39-.79-.74-1.19-1.11s-.68-.66-1-1c-1-.83-2-1.66-3.08-2.44l-1.36-1c-.5-.36-1.05-.66-1.57-1-.86-.54-1.76-1-2.65-1.48-.48-.26-1-.49-1.49-.73s-1.11-.53-1.69-.77c-1.07-.46-2.14-.91-3.23-1.31s-2.26-.78-3.4-1.15c-.52-.17-1-.32-1.56-.47,1-.14,2-.3,3-.49,1.74-.32,3.44-.73,5.16-1.15,1.5-.36,3-.82,4.45-1.25s2.85-.88,4.24-1.38c3.11-1.13,6.2-2.27,9.26-3.52s6.18-2.54,9.27-3.8c6.22-2.52,12.48-5,18.66-7.57,3.1-1.3,6.19-2.67,9.26-4,1.68-.76,3.34-1.53,5-2.33.57-.27,1.14-.55,1.7-.85.76-.39,1.54-.75,2.27-1.19l2.5-1.5c.67-.4,1.29-.89,1.92-1.34s1.53-1.09,2.26-1.7,1.43-1.12,2.08-1.75q2-1.86,3.84-3.79c1.11-1.14,2.18-2.31,3.25-3.48a51.07,51.07,0,0,0,6.31-8.12L499.4,65c.37-.62.67-1.28,1-1.93a82.34,82.34,0,0,0,3.37-8A3.58,3.58,0,0,0,503.8,55.9Z" transform="translate(-258.79 -48.44)"/><path class="cls-4" d="M296.14,182.94c-2.54-3.29-5.11-6.56-7.74-9.78q-2-2.42-4-4.8c-1.3-1.57-2.56-3.16-3.81-4.77l-.17-.21-.14-.18a1,1,0,0,0-.08-.11c-.53-.74-1.08-1.49-1.63-2.23s-1.12-1.59-1.68-2.39c-1-1.45-2-2.94-2.94-4.45-2.15-3.45-4.28-6.91-6.44-10.36-.62-1-1.24-1.94-1.87-2.91l-.56-.84c1.23,1,2.46,1.94,3.69,2.9a.93.93,0,0,0,1.28,0,.91.91,0,0,0,0-1.27l-2.84-2.22-2.57-2.06c-.05-1.71-.11-3.42-.18-5.12s-.14-3.7-.3-5.53-.34-3.82-.54-5.73-.41-3.95-.6-5.92c-.09-.85-.11-1.7-.16-2.55s-.11-1.54-.11-2.3c0-1.23,0-2.46,0-3.69,0-.71.05-1.41.09-2.11.05-1.12.11-2.23.16-3.34,0-.79.13-1.58.2-2.37l.27-3.13c.07-.77.19-1.55.28-2.32.16-1.29.31-2.57.47-3.86.45-3.3.88-6.61,1.39-9.9l1.14-7.44c.24-1.52.54-3,.81-4.53q.75-4,1.51-8a2,2,0,0,0-.19-1.5l.54-.31c1.18,2.09,2.42,4.14,3.76,6.14,1.8,2.69,3.6,5.39,5.58,8,2.07,2.72,4.19,5.38,6.35,8,2,2.42,4.09,4.75,6.12,7.14s3.92,4.86,6.1,7.08a39.94,39.94,0,0,0,3.48,3.28l2,1.59c.86.68,1.81,1.27,2.72,1.88a51.16,51.16,0,0,0,8.5,4.34c3.05,1.3,6.16,2.5,9.27,3.64a85.09,85.09,0,0,0,9.06,2.88c3.3.81,6.59,1.57,9.92,2.26,3,.62,6.07,1.18,9.14,1.66,3.45.54,6.9,1.14,10.38,1.52q6.21.66,12.46.89c-.64.28-1.27.59-1.88.91a60.41,60.41,0,0,0-5.54,3.26c-1.87,1.25-3.72,2.54-5.53,3.88s-3.6,2.85-5.35,4.33c-1.58,1.34-3.19,2.66-4.73,4.05-.89.81-1.77,1.61-2.62,2.47-.67.67-1.32,1.38-1.94,2.11-2.92,3.43-5.79,6.92-8.48,10.53-1.36,1.81-2.68,3.63-3.95,5.51s-2.34,3.57-3.49,5.36L327,166.2c-1.08,1.69-2.14,3.43-3,5.22-1.05,2.05-2.05,4.12-2.91,6.26-.39,1-.8,2-1.15,3s-.79,2.09-1.12,3.15c-.39,1.28-.79,2.55-1.18,3.83-.32,1-.57,2-.85,3-.63,2.26-1.21,4.53-1.79,6.8-.33,1.3-.64,2.61-1,3.92-.66-.51-1.34-1-2-1.52-1.92-1.51-3.82-3.06-5.6-4.74a38,38,0,0,1-2.84-2.84c-.91-1.06-1.8-2.13-2.68-3.22-1.32-1.73-2.63-3.46-4-5.18l-.2-.26-.16-.2h0a1.34,1.34,0,0,1-.11-.14Z" transform="translate(-258.79 -48.44)"/><path class="cls-4" d="M519.28,128a1.89,1.89,0,0,1,.67,2.57c-.82,1.42-1.67,2.83-2.52,4.23.21-2.1.41-4.2.62-6.29,0-.25,0-.5.07-.75l.23,0A1.8,1.8,0,0,1,519.28,128Z" transform="translate(-258.79 -48.44)"/><path class="cls-4" d="M513.37,145.79a2.35,2.35,0,0,1-1.37-1.06,2,2,0,0,1-.27-.85l0-.05c1.29-1.95,2.53-3.93,3.76-5.92l1.91-3.1c-.34,3.13-.71,6.26-1.24,9.37a2.21,2.21,0,0,1-1,1.38A2.38,2.38,0,0,1,513.37,145.79Z" transform="translate(-258.79 -48.44)"/><path class="cls-4" d="M462.58,203.12c-.67.91-1.35,1.84-2,2.78s-1.32,2-1.94,3c-.13.2-.25.41-.38.62a1.58,1.58,0,0,1,1.17.47,1.64,1.64,0,0,1,0,2.3c-1.06,1-2.11,2-3.18,2.93-.88.79-2,1.89-3.3,1.53a2,2,0,0,1-1.31-2.45,8.77,8.77,0,0,1,.74-1.62c1-1.93,2.09-3.86,3.2-5.75a2.44,2.44,0,0,0,1.86-2.39c0-.18-.05-.37-.07-.55.51-.79,1-1.57,1.57-2.34,1.25-1.77,2.57-3.49,3.9-5.2s2.79-3.49,4.23-5.2c1.27-1.5,2.62-2.94,3.92-4.4q2.26-2.51,4.47-5.06c2.8-3.23,5.59-6.47,8.42-9.67,1.34-1.51,2.7-3,4-4.54s2.8-3.27,4.18-4.93l4-4.78c1.32-1.61,2.6-3.23,3.89-4.86l2.22-3c1.2-1.62,2.35-3.28,3.53-4.93s2.29-3.25,3.39-4.9c1.26-1.88,2.52-3.75,3.77-5.63q-.3,2.75-.63,5.49c-.14,1-.27,1.93-.44,2.9a3.14,3.14,0,0,0,0,.91c-1.25,1.89-2.51,3.79-3.8,5.66s-2.61,3.7-3.95,5.54c-.64.89-1.34,1.75-2,2.61s-1.19,1.53-1.8,2.27c-1.33,1.64-2.66,3.28-4,4.9s-2.69,3.29-4.09,4.89-3.05,3.45-4.6,5.16c-2.8,3.1-5.56,6.23-8.34,9.34s-5.87,6.38-8.82,9.57c-2.7,2.92-5.18,6-7.64,9.19Z" transform="translate(-258.79 -48.44)"/><path class="cls-4" d="M511.77,143c.17-1,.3-1.93.44-2.9q.33-2.75.63-5.49c1.31-2,2.6-3.92,3.87-5.9a2,2,0,0,1,1.41-.91c0,.25-.05.5-.07.75-.21,2.09-.41,4.19-.62,6.29l-1.91,3.1c-1.23,2-2.47,4-3.76,5.92l0,.05A3.14,3.14,0,0,1,511.77,143Z" transform="translate(-258.79 -48.44)"/><path class="cls-4" d="M506.84,53.56a2,2,0,0,1,1,1.23c.6,4.4,1.28,8.77,2,13.15.43,2.76,1,5.49,1.57,8.23.4,2,.76,4,1.21,6,.67,3,1.35,6,2,9,.45,2,.84,4,1.25,6.05.28,1.39.57,2.79.85,4.18.14.72.22,1.44.32,2.17.5,3.47,1.05,7,1.37,10.45.16,1.81.27,3.62.26,5.44s-.09,3.36-.19,5c-.07,1.1-.19,2.19-.3,3.29a2,2,0,0,0-1.41.91c-1.27,2-2.56,3.94-3.87,5.9.34-3,.65-6,1-9.06.12-1.17.17-2.37.22-3.55.07-1.68.11-3.36,0-5-.09-2.31-.29-4.63-.59-6.92l-1-7.18c-.56-2.9-1.12-5.81-1.67-8.71-.49-2.5-1.07-5-1.62-7.48-1.06-4.89-2-9.8-3-14.72-.37-1.93-.64-3.89-.94-5.84-.52-3.4-1-6.79-1.5-10.19a3.58,3.58,0,0,1,0-.79l.33-.92a2,2,0,0,1,1.7-.91A2,2,0,0,1,506.84,53.56Z" transform="translate(-258.79 -48.44)"/><path class="cls-4" d="M503.1,48.89a3.33,3.33,0,0,1,1.53,3.75c-.17.52-.35,1-.54,1.55a.76.76,0,0,0-.08.11,1.85,1.85,0,0,0-.25.81,82.34,82.34,0,0,1-3.37,8c-.32.65-.62,1.31-1,1.93l-1.57,2.63a51.07,51.07,0,0,1-6.31,8.12c-1.07,1.17-2.14,2.34-3.25,3.48s-2.53,2.55-3.84,3.79c-.65.63-1.39,1.17-2.08,1.75s-1.48,1.16-2.26,1.7-1.25.94-1.92,1.34l-2.5,1.5c-.73.44-1.51.8-2.27,1.19-.56.3-1.13.58-1.7.85-1.67.8-3.33,1.57-5,2.33-3.07,1.38-6.16,2.75-9.26,4-6.18,2.61-12.44,5.05-18.66,7.57-3.09,1.26-6.17,2.54-9.27,3.8s-6.15,2.39-9.26,3.52c-1.39.5-2.81,1-4.24,1.38s-2.95.89-4.45,1.25c-1.72.42-3.42.83-5.16,1.15-1,.19-2,.35-3,.49h0c-1.56-.43-3.15-.78-4.73-1.13-1.17-.25-2.37-.41-3.56-.55a30.66,30.66,0,0,0-3.16-.29H390.4c-1.63,0-3.27,0-4.9.21-1.31.13-2.62.3-3.93.49a27.42,27.42,0,0,0-3.07.74,26.79,26.79,0,0,0-4.22,1.49q-6.24-.24-12.46-.89c-3.48-.38-6.93-1-10.38-1.52-3.07-.48-6.11-1-9.14-1.66-3.33-.69-6.62-1.45-9.92-2.26a85.09,85.09,0,0,1-9.06-2.88c-3.11-1.14-6.22-2.34-9.27-3.64a51.16,51.16,0,0,1-8.5-4.34c-.91-.61-1.86-1.2-2.72-1.88l-2-1.59a39.94,39.94,0,0,1-3.48-3.28c-2.18-2.22-4.09-4.71-6.1-7.08s-4.13-4.72-6.12-7.14c-2.16-2.64-4.28-5.3-6.35-8-2-2.57-3.78-5.27-5.58-8-1.34-2-2.58-4.05-3.76-6.14-.52-.9-1-1.81-1.52-2.72a1.64,1.64,0,1,1,2.83-1.66,98.7,98.7,0,0,0,5.07,8.5c1.76,2.59,3.57,5.13,5.46,7.63,1.64,2,3.29,4.09,5,6.06,1.89,2.17,3.81,4.28,5.77,6.38s4,4.29,6,6.41c.88.93,1.78,1.84,2.73,2.7s2,1.76,3,2.61c.67.5,1.34,1,2,1.46.89.55,1.76,1.16,2.67,1.66s1.74,1,2.64,1.41l2.47,1.13c2.84,1.11,5.69,2.17,8.57,3.19a94.28,94.28,0,0,0,9.14,2.92,173.6,173.6,0,0,0,18.38,3.5c3.82.43,7.64.83,11.48,1.12,3.07.23,6.15.33,9.23.37,3.36,0,6.73,0,10.09,0,6.3-.17,12.62-.53,18.89-1.15a70.46,70.46,0,0,0,7.05-1.3c2.7-.7,5.4-1.41,8.05-2.3q4.8-1.59,9.5-3.45c3.16-1.25,6.3-2.56,9.44-3.87,5.86-2.45,11.76-4.77,17.64-7.17q6.53-2.78,13-5.7c2.31-1,4.57-2.19,6.82-3.35a55.26,55.26,0,0,0,5.61-3.55c.8-.64,1.61-1.28,2.37-1.95,1.17-1,2.31-2.09,3.45-3.15a76.18,76.18,0,0,0,7.84-8.13c1-1.36,2-2.77,2.91-4.18.3-.43.54-.91.8-1.36s.73-1.17,1-1.78c1.3-2.55,2.58-5.11,3.7-7.74a3.15,3.15,0,0,1,2-1.53,3.28,3.28,0,0,1,.88-.12A3.37,3.37,0,0,1,503.1,48.89Z" transform="translate(-258.79 -48.44)"/><path class="cls-4" d="M504.09,54.19l-.33.92a1.85,1.85,0,0,1,.25-.81A.76.76,0,0,1,504.09,54.19Z" transform="translate(-258.79 -48.44)"/><path class="cls-4" d="M457.43,204.57a2.44,2.44,0,0,1-1.86,2.39c.58-1,1.18-2,1.79-2.94C457.38,204.2,457.41,204.39,457.43,204.57Z" transform="translate(-258.79 -48.44)"/><path class="cls-4" d="M390.83,117.88c3.17-.1,6.37-.15,9.51-.55,1-.13,2-.26,3-.41h0c.52.15,1,.3,1.56.47,1.14.37,2.27.74,3.4,1.15s2.16.85,3.23,1.31c.58.24,1.13.5,1.69.77s1,.47,1.49.73c.89.48,1.79.94,2.65,1.48.52.33,1.07.63,1.57,1l1.36,1c1.06.78,2.07,1.61,3.08,2.44.36.3.7.64,1,1s.81.72,1.19,1.11c.72.75,1.47,1.48,2.17,2.25,1.48,1.66,2.95,3.32,4.36,5s2.91,3.6,4.33,5.43a121.48,121.48,0,0,1,7.69,11c1.11,1.81,2.16,3.65,3.1,5.54,1.07,2.14,2.12,4.3,3,6.52s1.67,4.31,2.41,6.5,1.23,4.17,1.75,6.28.84,4.14,1.14,6.22c.34,2.31.6,4.61.8,6.93.18,2.15.35,4.31.45,6.47.05,1,.07,2,.15,3,.09,1.17.19,2.32.34,3.48-.61,1-1.21,2-1.79,2.94a2.18,2.18,0,0,1-.63.09,2.5,2.5,0,0,1-2.4-1.82c-.4-1.92-.73-3.83-1-5.78-.2-1.57-.32-3.15-.46-4.73-.24-2.86-.5-5.73-.86-8.58-.23-1.54-.45-3.09-.77-4.61-.37-1.77-.78-3.53-1.26-5.27a93.39,93.39,0,0,0-3.27-9.5l-.44-1a82.5,82.5,0,0,0-5.94-11.28c-1.26-2-2.55-3.92-3.89-5.84-1.17-1.68-2.41-3.31-3.64-4.94-2-2.54-3.95-5.06-6.05-7.49-.5-.57-1-1.13-1.51-1.69s-1.06-1.18-1.62-1.73-1.23-1.27-1.9-1.84l-1.88-1.62,0,0c-.62-.49-1.25-1-1.91-1.43l-1.67-1.1c-.42-.28-.88-.52-1.33-.77-1-.57-2-1.08-3-1.61-.72-.37-1.48-.68-2.23-1-2.33-.9-4.66-1.75-7.07-2.43-1.18-.33-2.37-.67-3.58-.92-.63-.13-1.26-.29-1.9-.39l-1.53-.24a44.73,44.73,0,0,0-5.79-.28l0-1.14Z" transform="translate(-258.79 -48.44)"/><path class="cls-4" d="M400.34,117.33c-3.14.4-6.34.45-9.51.55L388,118c-2.08.06-4.17.09-6.25.08q-3.74,0-7.47-.17a26.79,26.79,0,0,1,4.22-1.49,27.42,27.42,0,0,1,3.07-.74c1.31-.19,2.62-.36,3.93-.49,1.63-.16,3.27-.21,4.9-.21h1.52a30.66,30.66,0,0,1,3.16.29c1.19.14,2.39.3,3.56.55,1.58.35,3.17.7,4.73,1.13C402.37,117.07,401.35,117.2,400.34,117.33Z" transform="translate(-258.79 -48.44)"/><path class="cls-4" d="M381.75,118c2.08,0,4.17,0,6.25-.08l0,1.14c-1,0-2.05.07-3.08.14-.84.07-1.66.16-2.49.26-1,.21-2.1.4-3.12.69-.55.16-1.12.28-1.66.48l-1.58.57c-1.08.48-2.17,1-3.2,1.54-1.19.68-2.36,1.36-3.52,2.09-2.1,1.32-4.13,2.77-6.13,4.23-1.48,1.15-2.93,2.32-4.35,3.53-1.65,1.4-3.34,2.79-5,4.24-.82.74-1.64,1.48-2.42,2.26s-1.44,1.48-2.12,2.26c-2.8,3.25-5.48,6.59-8.13,10-1.76,2.31-3.46,4.65-5.08,7.07-1.19,1.78-2.36,3.58-3.55,5.36s-2.55,3.79-3.79,5.7c-.64,1-1.24,2-1.85,3s-1,1.81-1.52,2.72c-.26.49-.49,1-.74,1.49s-.45.86-.64,1.3c-.44,1-.87,2-1.31,3s-.83,2.09-1.24,3.14c-.35.88-.64,1.79-.95,2.69-.7,2-1.31,4.09-1.94,6.15s-1.06,3.92-1.59,5.87c-.24.9-.44,1.81-.65,2.71-.12.52-.25,1-.37,1.55-.67-.54-1.33-1.07-2-1.6l-.08-.06c.31-1.31.62-2.62,1-3.92.58-2.27,1.16-4.54,1.79-6.8.28-1,.53-2,.85-3,.39-1.28.79-2.55,1.18-3.83.33-1.06.74-2.1,1.12-3.15s.76-2,1.15-3c.86-2.14,1.86-4.21,2.91-6.26.91-1.79,2-3.53,3-5.22l3.81-5.92c1.15-1.79,2.29-3.6,3.49-5.36s2.59-3.7,3.95-5.51c2.69-3.61,5.56-7.1,8.48-10.53.62-.73,1.27-1.44,1.94-2.11.85-.86,1.73-1.66,2.62-2.47,1.54-1.39,3.15-2.71,4.73-4.05,1.75-1.48,3.5-3,5.35-4.33s3.66-2.63,5.53-3.88a60.41,60.41,0,0,1,5.54-3.26c.61-.32,1.24-.63,1.88-.91Q378,118,381.75,118Z" transform="translate(-258.79 -48.44)"/><path class="cls-4" d="M316.06,203c-.19.8-.37,1.6-.55,2.39a1.2,1.2,0,0,1-2.32-.64c.26-1.14.51-2.28.77-3.41l.08.06C314.73,202,315.39,202.51,316.06,203Z" transform="translate(-258.79 -48.44)"/><path class="cls-4" d="M267.53,143.66c2.16,3.45,4.29,6.91,6.44,10.36.95,1.51,1.92,3,2.94,4.45.56.8,1.1,1.61,1.68,2.39s1.1,1.49,1.63,2.23a1,1,0,0,1,.08.11l.14.18.17.21c1.25,1.61,2.51,3.2,3.81,4.77s2.66,3.19,4,4.8c2.63,3.22,5.2,6.49,7.74,9.78l.26.34a1.34,1.34,0,0,0,.11.14h0l.16.2.2.26c1.33,1.72,2.64,3.45,4,5.18.88,1.09,1.77,2.16,2.68,3.22a38,38,0,0,0,2.84,2.84c1.78,1.68,3.68,3.23,5.6,4.74.67.51,1.35,1,2,1.52-.26,1.13-.51,2.27-.77,3.41a1.2,1.2,0,0,0,2.32.64c.18-.79.36-1.59.55-2.39l.51.4.27.16.1,0h.44a2.57,2.57,0,0,1,2.54,2.54,2.51,2.51,0,0,1-.75,1.79,2.65,2.65,0,0,1-1.79.74,5.51,5.51,0,0,1-2.25-.14,6.51,6.51,0,0,1-1.78-.86c-.56-.4-1.09-.83-1.63-1.25l-2-1.59c-1.47-1.15-2.93-2.3-4.33-3.53-.75-.66-1.5-1.34-2.24-2s-1.21-1.12-1.76-1.72-1.32-1.43-1.94-2.19c-.76-.92-1.48-1.85-2.21-2.79-1.11-1.46-2.15-3-3.21-4.45q-1.74-2.44-3.51-4.87c-2.26-3.11-4.58-6.19-6.91-9.25l-.1-.13-.09-.11c-1.83-2.37-3.65-4.74-5.37-7.19-.9-1.28-1.76-2.58-2.62-3.89-.34-.52-.66-1.06-1-1.59s-.72-1.13-1.05-1.71q-1.6-2.78-3.12-5.59c-.84-1.55-1.66-3.11-2.49-4.66q-1.49-2.81-2.95-5.61c-.43-.83-.87-1.64-1.3-2.47-.24-.45-.47-.91-.7-1.36a1.22,1.22,0,0,0,.46.09,1.44,1.44,0,0,0,1.43-1.43l0-1.14,2.57,2.06,2.84,2.22a.91.91,0,0,1,0,1.27.93.93,0,0,1-1.28,0c-1.23-1-2.46-1.92-3.69-2.9l.56.84C266.29,141.72,266.91,142.69,267.53,143.66Z" transform="translate(-258.79 -48.44)"/><path class="cls-4" d="M264.69,138.4a1.44,1.44,0,0,1-1.43,1.43,1.22,1.22,0,0,1-.46-.09l-.12-.23c-.14-.26-.3-.52-.43-.79a3.15,3.15,0,0,1-.33-.78c-.05-.25-.08-.49-.11-.74a.93.93,0,0,1,.91-.91h.17a1.24,1.24,0,0,1,.59.13,2.94,2.94,0,0,1,.6.39l.58.45Z" transform="translate(-258.79 -48.44)"/><path class="cls-4" d="M264.48,132.14c.07,1.7.13,3.41.18,5.12l-.58-.45a2.94,2.94,0,0,0-.6-.39,1.24,1.24,0,0,0-.59-.13h-.17a.93.93,0,0,0-.91.91c0,.25.06.49.11.74a3.15,3.15,0,0,0,.33.78c.13.27.29.53.43.79l.12.23a1.35,1.35,0,0,1-.55-.33,1.58,1.58,0,0,1-.42-1c-.45-5-1-10.06-1.69-15.06-.2-1.53-.45-3-.62-4.58l-.27-2.34c-.06-.58-.16-1.17-.2-1.75-.05-.92-.11-1.84-.17-2.75,0-.52-.08-1-.08-1.54v-2.74c0-.55,0-1.1,0-1.65.06-1.11.11-2.22.17-3.34,0-.68.06-1.36.12-2,.16-1.83.28-3.68.5-5.51.27-2.14.51-4.29.8-6.43s.59-4.22.89-6.34c.53-3.84,1.15-7.67,1.74-11.51.24-1.54.55-3.07.83-4.6q.72-3.93,1.48-7.86a1.92,1.92,0,0,1,1.91-1.42,1.61,1.61,0,0,1,.49.07,2,2,0,0,1,1.16.89,2,2,0,0,1,.19,1.5q-.76,4-1.51,8c-.27,1.51-.57,3-.81,4.53l-1.14,7.44c-.51,3.29-.94,6.6-1.39,9.9-.16,1.29-.31,2.57-.47,3.86-.09.77-.21,1.55-.28,2.32l-.27,3.13c-.07.79-.16,1.58-.2,2.37-.05,1.11-.11,2.22-.16,3.34,0,.7-.09,1.4-.09,2.11,0,1.23,0,2.46,0,3.69,0,.76.06,1.53.11,2.3s.07,1.7.16,2.55c.19,2,.39,4,.6,5.92s.37,3.82.54,5.73S264.4,130.3,264.48,132.14Z" transform="translate(-258.79 -48.44)"/><path class="cls-3" d="M393.55,224.67a53.52,53.52,0,0,0-5.64.61c-1.6.22-3.2.49-4.79.77a90.69,90.69,0,0,0-9.51,2c-1.37.39-2.73.8-4.09,1.24s-2.92,1.05-4.37,1.62a3.1,3.1,0,0,0-1.72,1.32,2.89,2.89,0,0,0,1,3.95,2.77,2.77,0,0,0,2.22.29c1.64-.64,3.28-1.26,5-1.79,1.41-.44,2.82-.83,4.26-1.18,2.86-.7,5.77-1.13,8.68-1.55,2-.25,3.91-.47,5.88-.61a35.77,35.77,0,0,1,6.34.13c2.54.39,5.05.92,7.57,1.47,2.82.62,5.66,1.1,8.5,1.6a3.12,3.12,0,0,0,2.27-.3,2.95,2.95,0,0,0-.7-5.39c-1.8-.52-3.58-1.07-5.36-1.66-1.57-.52-3.17-.93-4.79-1.29a45.51,45.51,0,0,0-9.87-1.28Z" transform="translate(-258.79 -48.44)"/><path class="cls-3" d="M415.08,143.8a1.75,1.75,0,0,0-.5,1.22,1.82,1.82,0,0,0,.5,1.22c.77.91,1.54,1.82,2.27,2.75a22.81,22.81,0,0,1,2.52,4.49,29,29,0,0,1,1.8,6.71,33,33,0,0,1,.22,4.77,49.43,49.43,0,0,1-.43,5.09c-.2,1.43-.42,2.86-.64,4.28-.08.53-.23,1.06-.35,1.59s-.23,1.16-.38,1.72c-.73,2.66-1.47,5.31-2.32,7.94a1.61,1.61,0,0,0,1.11,2,1.62,1.62,0,0,0,2-1.11c.65-1.89,1.25-3.8,1.81-5.72.25-.83.52-1.66.72-2.51s.46-1.95.7-2.92c.08-.36.12-.72.18-1.08l.32-1.91a59.72,59.72,0,0,0,.73-6.34,31,31,0,0,0-3.07-15.55,20.75,20.75,0,0,0-2-3.29c-.86-1.14-1.79-2.22-2.71-3.31a1.66,1.66,0,0,0-1.22-.5,1.75,1.75,0,0,0-1.22.5Z" transform="translate(-258.79 -48.44)"/><path class="cls-3" d="M408.49,201.31A3.31,3.31,0,1,0,411.8,198a3.34,3.34,0,0,0-3.31,3.31Z" transform="translate(-258.79 -48.44)"/></svg>