<svg id="Layer_15" data-name="Layer 15" xmlns="http://www.w3.org/2000/svg" viewBox="0 0 871.69 845.84"><defs><style>.cls-1{fill:#404040;}.cls-2{fill:#1471c6;}.cls-3{fill:#7f7f7f;}.cls-4{fill:#fefefe;}.cls-5{fill:#d8d8d8;}</style></defs><title>honest_billing2</title><g id="_Group_" data-name="&lt;Group&gt;"><path class="cls-1" d="M532.46,732.35l0,0c-.06-.61-.17-1.28-.23-1.94A4.94,4.94,0,0,1,532.46,732.35Z"/><path class="cls-1" d="M445.41,839.75a7.16,7.16,0,0,1-3.16,1.29,2.52,2.52,0,0,0,.2-4l-1.58-1.57c1.1-2.1,2.23-4.21,3.41-6.26,2.23-3.92,4.43-7.89,6.92-11.65,2.26-3.42,4.54-6.81,7.06-10,2.4-3.07,4.82-6.1,7.31-9.11,5-6.06,10-12.15,14.84-18.37l0,0s0,0,0-.06l8-10.47c1.42-1.85,2.83-3.69,4.28-5.52s2.81-3.62,4.29-5.35,3.1-3.6,4.64-5.41c1.17-1.36,2.44-2.64,3.66-4,2.5-2.69,5.06-5.32,7.63-7.95,4.86-4.94,9.71-9.87,14.62-14.75.24,1.52.49,3,.73,4.57a1.79,1.79,0,0,0,.48.83,1.88,1.88,0,0,0,2.65,0,1.81,1.81,0,0,0,.55-1.32c0-.27-.08-.52-.11-.79a3.45,3.45,0,0,1,.26.59c.06.66.17,1.32.23,1.94q-6.73,7.26-13.51,14.48c-2.41,2.57-4.88,5.11-7.26,7.71-1.29,1.42-2.66,2.8-3.91,4.26l-4.58,5.37c-2.29,2.7-4.45,5.51-6.62,8.28-2.36,3-4.71,6-7.09,9-4.87,6.08-9.81,12.11-15,17.94l-8.11,9.15c-2.41,2.72-4.66,5.58-6.91,8.44-1.38,1.93-2.79,3.82-4.09,5.81l-2.58,4c-.73,1.13-1.37,2.3-2.06,3.43C448.86,833.36,447.09,836.52,445.41,839.75Z"/><path class="cls-1" d="M532,730.65a1.81,1.81,0,0,1-.55,1.32,1.88,1.88,0,0,1-2.65,0,1.79,1.79,0,0,1-.48-.83c-.24-1.52-.49-3-.73-4.57l2.63-2.64a3.7,3.7,0,0,1,.79-.58c.28,2.16.58,4.31.88,6.49h0C532,730.12,532,730.38,532,730.65Z"/><path class="cls-1" d="M531.06,723.35a3.7,3.7,0,0,0-.79.58l-2.63,2.64c-.18-1.06-.35-2.1-.52-3.15-.39-2.48-.73-5-1.06-7.43-.62-4.58-1.12-9.15-1.63-13.74q-.79-7.25-1.49-14.5t-1.65-14.48c-.87-6.22-1.8-12.41-2.67-18.61s-1.65-12.13-2.47-18.18a2.68,2.68,0,0,1-.05-.34c-1.13-8.12-2.31-16.21-3.16-24.36-.45-4.34-.86-8.71-1.3-13.08-.4-4-.91-8-1.41-12-.46-3.12-.89-6.25-1.42-9.37-.58-3.37-1.18-6.75-1.75-10.13-1.13-6.74-2.2-13.5-3.17-20.27-.76-5.26-1.51-10.55-2.1-15.84-.62-5.53-1.21-11.06-1.68-16.61-.46-5.25-.88-10.51-1.12-15.77-.25-5.58-.41-11.16-.88-16.73-.91-11-2.14-22-3.2-33-.53-5.56-1-11.12-1.58-16.69-.53-5.4-1.13-10.8-1.69-16.2s-1.08-10.94-1.63-16.4-1.08-10.73-1.6-16.1-.9-10.88-1.32-16.33c-.19-2.41-.37-4.85-.6-7.26-.27-2.88-.57-5.73-.89-8.62-.17-1.28-.37-2.56-.53-3.85s-.38-2.38-.58-3.57c-.38-2.34-.82-4.66-1.31-7-1.09-5.29-2.24-10.56-3.1-15.89s-1.6-10.71-2.42-16c-.77-5.09-1.67-10.16-2.58-15.23-1-5.44-2-10.89-3.1-16.31-1-4.94-2.12-9.89-3-14.85-2-10.95-3.56-22-5.35-32.94l1-.58c.92-.51,1.85-1,2.79-1.45.83,5,1.59,9.92,2.36,14.88.64,4.17,1.27,8.35,2,12.51s1.42,8.41,2.27,12.6,1.76,8.36,2.6,12.56c1.09,5.5,2.05,11,3,16.53s1.83,10.78,2.63,16.2c.38,2.55.72,5.1,1.14,7.65.28,1.67.55,3.35.83,5,.22,1.38.51,2.77.77,4.16.47,2.49,1,5,1.55,7.45.28,1.32.56,2.65.83,4s.55,2.68.77,4c.26,1.52.53,3.07.79,4.61.23,1.33.4,2.68.58,4,.37,2.57.65,5.15.9,7.73.49,5.41.92,10.84,1.33,16.27s.89,10.93,1.41,16.39,1.1,11,1.64,16.53c1,10.84,2.22,21.68,3.19,32.52q.74,8.29,1.51,16.54c.48,5.15,1,10.28,1.5,15.41.53,5.67,1,11.31,1.34,17,.27,5.38.42,10.78.82,16.16.8,10.71,2,21.38,3.39,32l0,.28q1.66,11.76,3.55,23.47c.86,5.34,1.85,10.67,2.77,16,.45,2.56.82,5.14,1.19,7.72s.77,5.28,1.06,7.93q.49,4.38,1,8.76c.28,2.73.53,5.45.82,8.19s.55,5.41.86,8.12c.3,2.54.64,5.08,1,7.61q1.2,8.63,2.36,17.25c.69,5.22,1.36,10.46,2.08,15.68a.09.09,0,0,0,0,0,1,1,0,0,1,0,.21s0,0,0,0c.74,5.21,1.56,10.42,2.21,15.67.36,2.71.7,5.41,1,8.12.28,2.87.57,5.75.83,8.62,1,10.25,2.05,20.51,3.43,30.71,0,.06,0,.12,0,.18a.84.84,0,0,1,0,.16C530.85,721.93,531,722.63,531.06,723.35Z"/><path class="cls-2" d="M401.57,777.81c.85.8,1.67,1.65,2.47,2.51,1.59,1.69,3.2,3.37,4.85,5a3.54,3.54,0,0,0,4.27.53A3.58,3.58,0,0,0,414.4,781a38.74,38.74,0,0,0-4-6.62,33.25,33.25,0,0,0-5.39-4.93l-.88-.67a4.19,4.19,0,0,0-2.18-.59,4.34,4.34,0,0,0-4.32,4.34,4.22,4.22,0,0,0,1.28,3.06C399.82,776.34,400.74,777,401.57,777.81Zm78.51-456.75c.86,5.33,2,10.59,3.1,15.89.5,2.32.93,4.64,1.31,7,.2,1.19.42,2.37.58,3.57s.36,2.57.53,3.85c.32,2.88.62,5.74.89,8.62.23,2.41.41,4.85.6,7.26.42,5.45.81,10.89,1.32,16.33s1.06,10.74,1.6,16.1,1.06,10.93,1.63,16.4,1.15,10.81,1.69,16.2c.54,5.56,1,11.13,1.58,16.69,1.06,11,2.29,22,3.2,33,.47,5.58.63,11.16.88,16.73.23,5.26.66,10.52,1.12,15.77.47,5.55,1.06,11.08,1.68,16.61.59,5.28,1.34,10.57,2.1,15.84,1,6.77,2,13.53,3.17,20.27.57,3.38,1.17,6.76,1.75,10.13.53,3.12,1,6.25,1.42,9.37.5,4,1,8,1.41,12,.44,4.37.86,8.74,1.3,13.08.84,8.15,2,16.24,3.16,24.36a2.68,2.68,0,0,0,.05.34c.82,6.05,1.6,12.13,2.47,18.18s1.8,12.39,2.67,18.61q.93,7.22,1.65,14.48t1.49,14.5c.51,4.59,1,9.15,1.63,13.74.33,2.48.68,4.95,1.06,7.43.17,1.05.34,2.1.52,3.15-4.9,4.88-9.75,9.81-14.62,14.75-2.57,2.63-5.13,5.25-7.63,7.95-1.23,1.32-2.49,2.6-3.66,4-1.54,1.81-3.08,3.61-4.64,5.41s-2.86,3.57-4.29,5.35-2.86,3.67-4.28,5.52l-8,10.47s0,0,0,.06l0,0c-4.85,6.21-9.8,12.3-14.84,18.37-2.48,3-4.91,6-7.31,9.11-2.52,3.24-4.8,6.62-7.06,10-2.5,3.76-4.69,7.73-6.92,11.65-1.18,2.06-2.31,4.16-3.41,6.26-4.21-4.16-8.43-8.29-12.76-12.33-2.28-2.12-4.58-4.23-6.85-6.38s-4.22-4.06-6.33-6.1c-2.37-2.28-4.78-4.54-7.15-6.82s-4.45-4.36-6.7-6.54c-4.64-4.46-9.44-8.75-14.23-13.05-8.43-7.6-16.54-15.55-25.17-22.93-4.06-3.46-8.34-6.66-12.31-10.22-2-1.78-3.92-3.64-5.86-5.49-1.06-1-2.11-2-3.18-3a37.35,37.35,0,0,1-3.37-3.34,9,9,0,0,1-.76-1.33,6.4,6.4,0,0,1-.19-.62,3.94,3.94,0,0,1,0-.5c.57-3.43,1.27-6.83,1.76-10.25.57-3.92,1-7.84,1.45-11.78.34-2.57.67-5.13,1.11-7.68.53-3,1-6.05,1.57-9.09,1-5.91,1.65-11.89,2.42-17.84l-.06.58c.9-6.46,1.93-12.88,2.82-19.34s1.67-12.66,2.54-19c.9-6.54,1.84-13.06,2.55-19.64.68-6.22,1.11-12.45,1.74-18.67q2.08-20.78,4.75-41.49s0,0,0,0l.05-.29s0,0,0,0c.73-5.22,1.47-10.42,2.22-15.64s1.37-10.65,2-16c.27-2.46.44-5,.64-7.43.24-2.78.46-5.57.68-8.35s.5-5.64.76-8.47c.21-2.33.51-4.65.78-7,.43-3.08.85-6.17,1.35-9.25.57-3.59,1.19-7.16,1.83-10.75.51-2.91,1.07-5.81,1.59-8.7q1-5.6,1.94-11.18c1-6,2.1-12.11,3-18.18,1-6.55,1.84-13.13,3-19.66.63-3.6,1.29-7.17,2-10.74.63-3.27,1.38-6.51,2.09-9.76,1.45-6.49,2.71-13,3.9-19.55,1.13-6.26,2-12.55,2.92-18.86.94-6.58,2-13.15,3.17-19.69.59-3.28,1.35-6.52,2.07-9.78s1.44-6.32,2.15-9.51c1.36-6.13,2.45-12.31,3.66-18.47,1.28-6.51,2.59-13,3.76-19.53s2.35-13.24,3.69-19.82c1.22-6.12,2.45-12.23,3.81-18.32.74-3.35,1.54-6.69,2.36-10s1.71-6.46,2.62-9.67a22.52,22.52,0,0,0,3.92,1.12,55.75,55.75,0,0,0,10,.79l10.07.09c3.25,0,6.48.07,9.73,0a33.07,33.07,0,0,0,5.59-.71,14.27,14.27,0,0,0,2.5-.8c.41-.17.81-.36,1.2-.56l1.16-.6c1-.51,1.88-1.09,2.83-1.63,1.79,11,3.36,22,5.35,32.94.88,5,2,9.91,3,14.85,1.12,5.42,2.14,10.86,3.1,16.31.91,5.08,1.81,10.14,2.58,15.23C478.47,310.36,479.22,315.73,480.08,321.07ZM366.31,601.53c-.82,7.29-1.24,14.61-1.76,21.92-.24,3.44-.45,6.88-.58,10.33s-.12,6.87-.26,10.31c-.13,3.67-.34,7.33-.56,11-.21,3.44-.38,6.88-.7,10.32-.34,3.85-.81,7.71-1.3,11.57s-.92,7.55-1.4,11.3-1.12,7.44-1.57,11.16c-.41,3.47-.6,7-.85,10.43-.12,1.79-.29,3.57-.38,5.35a37.16,37.16,0,0,0,0,4.3,23.73,23.73,0,0,0,1.39,6.35,32.88,32.88,0,0,0,2.06,4.65c.43.78.95,1.54,1.43,2.29q1.46,2.23,3,4.41c1.59,2.28,3.29,4.46,5.07,6.59.77.94,1.52,1.92,2.34,2.81a23,23,0,0,0,2.64,2.74c1.28,1,2.57,2.05,3.91,3,1.1.8,2.24,1.58,3.38,2.35,2.27,1.55,4.6,3,7,4.41a3.61,3.61,0,0,0,5.42-3.13,3.44,3.44,0,0,0-1.07-2.54c-2.28-1.78-4.58-3.54-6.83-5.37s-4.35-3.49-6.36-5.42-3.85-3.89-5.8-5.81A70.5,70.5,0,0,1,369.2,731s0,0,0-.06l0,0c-.64-.83-1.28-1.65-1.85-2.51s-1.26-1.85-1.81-2.83c-.37-.66-.66-1.34-1-2a26.14,26.14,0,0,1-1.4-5,65.1,65.1,0,0,1-.22-6.8c0-1.81,0-3.62.05-5.43,0-2.08.12-4.17.25-6.24.12-1.82.36-3.63.6-5.43.81-5.76,1.44-11.54,2.18-17.3.49-3.56,1-7.13,1.37-10.72s.75-7.47,1.12-11.21c.33-3.37.73-6.73,1.05-10.1.35-3.56.62-7.13,1-10.69.61-6.1,1.46-12.17,2.05-18.28S373.4,604.1,374,598c.41-2.85.9-5.69,1.42-8.52.61-3.5,1.09-7,1.44-10.52.3-3.14.58-6.28.87-9.43s.64-6.11,1-9.18c.57-3.54,1.16-7.09,1.9-10.61.39-1.87.74-3.75,1.19-5.61.64-2.65,1.26-5.31,1.94-7.93a2.94,2.94,0,0,0-2-3.54,3.19,3.19,0,0,0-.73-.09,2.89,2.89,0,0,0-2.79,2.12c-1.06,4.25-2.07,8.5-3,12.81-.74,3.49-1.41,7-2.06,10.51s-1.12,7.23-1.56,10.87-.91,7.29-1.38,10.94-1.18,7-2,10.53A95.39,95.39,0,0,0,366.31,601.53Z"/><path class="cls-1" d="M438.33,840.56q1.22-2.54,2.54-5.05l1.58,1.57a2.52,2.52,0,0,1-.2,4,8.72,8.72,0,0,1-3.78-.36Z"/><path class="cls-1" d="M438.47,840.68a8.72,8.72,0,0,0,3.78.36,2.71,2.71,0,0,1-3.57-.17Z"/><path class="cls-1" d="M438.33,840.56l.14.12-.17-.06A.14.14,0,0,1,438.33,840.56Z"/><path class="cls-3" d="M404.14,768.83l.88.67a33.25,33.25,0,0,1,5.39,4.93,38.74,38.74,0,0,1,4,6.62,3.58,3.58,0,0,1-1.25,4.82,3.54,3.54,0,0,1-4.27-.53c-1.65-1.63-3.26-3.31-4.85-5-.8-.86-1.62-1.71-2.47-2.51s-1.75-1.47-2.66-2.17a4.22,4.22,0,0,1-1.28-3.06,4.34,4.34,0,0,1,4.32-4.34A4.19,4.19,0,0,1,404.14,768.83Z"/><path class="cls-3" d="M378.73,560.34c-.38,3.06-.71,6.1-1,9.18s-.57,6.28-.87,9.43c-.35,3.53-.83,7-1.44,10.52-.52,2.83-1,5.67-1.42,8.52-.59,6.12-.86,12.24-1.45,18.36s-1.44,12.18-2.05,18.28c-.36,3.56-.63,7.13-1,10.69-.32,3.37-.72,6.73-1.05,10.1-.37,3.74-.72,7.48-1.12,11.21s-.89,7.16-1.37,10.72c-.74,5.77-1.37,11.54-2.18,17.3-.24,1.8-.48,3.6-.6,5.43-.13,2.07-.22,4.16-.25,6.24,0,1.82-.05,3.62-.05,5.43a65.1,65.1,0,0,0,.22,6.8,26.14,26.14,0,0,0,1.4,5c.31.69.6,1.37,1,2,.55,1,1.18,1.91,1.81,2.83s1.21,1.68,1.85,2.51l0,0s0,0,0,.06a70.5,70.5,0,0,0,5.29,5.87c2,1.92,3.82,3.91,5.8,5.81s4.21,3.66,6.36,5.42,4.55,3.59,6.83,5.37a3.44,3.44,0,0,1,1.07,2.54,3.61,3.61,0,0,1-5.42,3.13c-2.36-1.42-4.69-2.86-7-4.41-1.14-.77-2.27-1.55-3.38-2.35-1.34-1-2.62-2-3.91-3a23,23,0,0,1-2.64-2.74c-.82-.9-1.57-1.88-2.34-2.81-1.77-2.13-3.48-4.32-5.07-6.59q-1.53-2.18-3-4.41c-.48-.75-1-1.51-1.43-2.29a32.88,32.88,0,0,1-2.06-4.65,23.73,23.73,0,0,1-1.39-6.35,37.16,37.16,0,0,1,0-4.3c.08-1.78.26-3.56.38-5.35.25-3.46.44-7,.85-10.43.45-3.72,1-7.43,1.57-11.16s.92-7.54,1.4-11.3,1-7.71,1.3-11.57c.31-3.44.49-6.88.7-10.32.22-3.67.43-7.33.56-11,.14-3.44.12-6.87.26-10.31s.34-6.89.58-10.33c.52-7.31.94-14.63,1.76-21.92a95.39,95.39,0,0,1,1.93-11.19c.81-3.5,1.47-7,2-10.53s.92-7.29,1.38-10.94.92-7.27,1.56-10.87,1.32-7,2.06-10.51c.91-4.31,1.93-8.56,3-12.81a2.89,2.89,0,0,1,2.79-2.12,3.19,3.19,0,0,1,.73.09,2.94,2.94,0,0,1,2,3.54c-.68,2.62-1.3,5.29-1.94,7.93-.44,1.86-.8,3.74-1.19,5.61C379.89,553.25,379.3,556.8,378.73,560.34Z"/><path class="cls-1" d="M468.79,223l-1.37.69c0-.24-.08-.48-.11-.72a2,2,0,0,0-.94-1.23,2.18,2.18,0,0,0-1-.27,2.07,2.07,0,0,0-.55.08,2.09,2.09,0,0,0-1.23.94,2.29,2.29,0,0,0-.19,1.59c.09.55.19,1.11.26,1.65-.94.54-1.87,1.12-2.83,1.63l-1.16.6c-.4.2-.79.39-1.2.56a14.27,14.27,0,0,1-2.5.8,33.07,33.07,0,0,1-5.59.71c-3.25.11-6.48.1-9.73,0l-10.07-.09a55.75,55.75,0,0,1-10-.79,22.52,22.52,0,0,1-3.92-1.12c.06-.23.13-.46.19-.69a3,3,0,0,0-2.07-3.62,2.91,2.91,0,0,0-.76-.11,3,3,0,0,0-2.6,1.57c-2.53-1.77-5-3.64-7.46-5.51-2.78-2.12-5.52-4.28-8.19-6.53-2.31-1.94-4.63-3.9-6.9-5.89-1.23-1.08-2.48-2.14-3.63-3.32s-2.34-2.43-3.47-3.7a88.08,88.08,0,0,1-6.43-8.32,53.48,53.48,0,0,1-5-8.62,41.75,41.75,0,0,1-2.3-6c-.24-.86-.48-1.73-.71-2.6-.48-1.74-.87-3.5-1.24-5.27a3.44,3.44,0,0,1,.33-2.58,3.29,3.29,0,0,1,2-1.53,3.22,3.22,0,0,1,1.55-.06,66.84,66.84,0,0,1,3.3-11.31,59.69,59.69,0,0,1,4.47-8.68c.86-1.4,1.86-2.73,2.83-4.06s2-2.66,3-4c2-2.58,4-5.14,6.09-7.66a71.47,71.47,0,0,1,6.45-6.8,82.16,82.16,0,0,1,7.5-6.27,57.47,57.47,0,0,1,7.64-4.7,44.71,44.71,0,0,1,4.6-2.1c1.5-.58,3-1.06,4.55-1.54,2.88-.9,5.79-1.71,8.73-2.38s6-1.2,9-1.63,6.18-1,9.29-1.38a53.21,53.21,0,0,1,6.57-.49,27.39,27.39,0,0,1,2.79.11,29.38,29.38,0,0,1,10,2.72,57.48,57.48,0,0,1,15.82,11.34,48.16,48.16,0,0,1,6.51,7.69,77.46,77.46,0,0,1,4.84,8.28c.7,1.41,1.4,2.82,2.05,4.25l.6,1.33c.15.32.26.57.35.82s.14.32.2.49c.39.93.78,1.86,1.16,2.82.55,1.39,1.05,2.8,1.54,4.22a62.1,62.1,0,0,1,2.37,9.26c.31,1.8.58,3.62.73,5.43a33.47,33.47,0,0,1,.22,4.29c0,.9-.07,1.79-.16,2.69a23.11,23.11,0,0,1-.37,2.64c-.38,1.59-.78,3.18-1.29,4.73-1.08,3.3-2.37,6.54-3.74,9.73-1.26,2.94-2.53,5.86-3.91,8.74s-2.83,5.4-4.34,8c-3.4,6-7.13,12-12.67,16.21a40.33,40.33,0,0,1-4,2.71C471.44,221.59,470.12,222.27,468.79,223ZM375.49,177.1a72.91,72.91,0,0,0,4.6,8.5c1.16,1.89,2.51,3.67,3.84,5.43a72.5,72.5,0,0,0,5.46,6.24c2.1,2.09,4.3,4.06,6.55,6s4.27,3.71,6.44,5.5,4.1,3.31,6.19,4.9c3.25,2.46,6.49,5.09,10.18,6.88a17.49,17.49,0,0,0,2.54.77c.91.2,1.83.36,2.76.52,4.61.43,9.27.28,13.89.33s9.52.18,14.27-.18a21.1,21.1,0,0,0,3.22-.82c1.33-.65,2.6-1.42,3.91-2.14,1.64-.92,3.34-1.75,5-2.57s3.4-1.69,5.05-2.62a37.35,37.35,0,0,0,4-2.67,28.18,28.18,0,0,0,2.95-2.71c.91-1,1.75-2,2.58-3,1.51-2.09,2.93-4.24,4.27-6.45s2.67-4.42,3.88-6.67,2.46-4.79,3.62-7.22,2.22-4.59,3.24-6.91c.69-1.7,1.32-3.4,1.91-5.12a31.34,31.34,0,0,0,1.24-5.08,25.08,25.08,0,0,0,.11-4.06c-.1-1.24-.23-2.47-.39-3.71a59.56,59.56,0,0,0-2.14-9.12c-.86-2.67-1.92-5.25-3-7.81A98.94,98.94,0,0,0,482,126a57.26,57.26,0,0,0-4.76-5.14c-1.62-1.56-3.28-3.08-5-4.5-1.51-1.12-3.07-2.22-4.67-3.22a46.89,46.89,0,0,0-5.09-2.71,29,29,0,0,0-3.38-1.14,29.82,29.82,0,0,0-3.42-.68,75.51,75.51,0,0,0-11.87.16c-3.9.29-7.81.39-11.67.89a62.08,62.08,0,0,0-7.92,1.9c-2.62.8-5.24,1.65-7.79,2.66A66.47,66.47,0,0,0,404.92,121a84.2,84.2,0,0,0-10.13,9.46c-3.15,3.53-6,7.29-8.89,11-.09.11-.17.23-.26.33a70.54,70.54,0,0,0-4.84,6.91c-.77,1.29-1.54,2.58-2.2,3.91-.59,1.16-1.13,2.33-1.64,3.5-.59,1.54-1.14,3.07-1.64,4.64s-.84,3-1.22,4.57-.7,3.16-1,4.75A66.5,66.5,0,0,0,375.49,177.1Z"/><path class="cls-1" d="M467.31,222.92c0,.24.08.48.11.72-.93.47-1.87.94-2.79,1.45l-1,.58c-.07-.55-.17-1.1-.26-1.65a2.29,2.29,0,0,1,.19-1.59,2.09,2.09,0,0,1,1.23-.94,2.07,2.07,0,0,1,.55-.08,2.18,2.18,0,0,1,1,.27A2,2,0,0,1,467.31,222.92Z"/><path class="cls-2" d="M495.89,173c-.59,1.72-1.22,3.42-1.91,5.12-1,2.32-2.13,4.61-3.24,6.91s-2.35,4.84-3.62,7.22-2.56,4.47-3.88,6.67-2.76,4.37-4.27,6.45c-.83,1-1.67,2-2.58,3a28.18,28.18,0,0,1-2.95,2.71,37.35,37.35,0,0,1-4,2.67c-1.65.93-3.35,1.78-5.05,2.62s-3.41,1.66-5,2.57c-1.31.72-2.58,1.49-3.91,2.14a21.1,21.1,0,0,1-3.22.82c-4.75.36-9.51.23-14.27.18s-9.28.1-13.89-.33c-.93-.16-1.85-.32-2.76-.52a17.49,17.49,0,0,1-2.54-.77c-3.69-1.79-6.93-4.41-10.18-6.88-2.09-1.59-4.15-3.24-6.19-4.9s-4.3-3.66-6.44-5.5-4.44-3.89-6.55-6a72.5,72.5,0,0,1-5.46-6.24c-1.33-1.76-2.68-3.53-3.84-5.43a72.91,72.91,0,0,1-4.6-8.5,66.5,66.5,0,0,1-2.35-7c.27-1.6.6-3.17,1-4.75s.73-3.07,1.22-4.57,1-3.1,1.64-4.64c.51-1.17,1.05-2.34,1.64-3.5.66-1.33,1.44-2.62,2.2-3.91a70.54,70.54,0,0,1,4.84-6.91c.09-.1.17-.22.26-.33,2.88-3.74,5.74-7.5,8.89-11A84.2,84.2,0,0,1,404.92,121a66.47,66.47,0,0,1,11.44-6.86c2.55-1,5.17-1.86,7.79-2.66a62.08,62.08,0,0,1,7.92-1.9c3.87-.49,7.77-.6,11.67-.89a75.51,75.51,0,0,1,11.87-.16,29.82,29.82,0,0,1,3.42.68,29,29,0,0,1,3.38,1.14,46.89,46.89,0,0,1,5.09,2.71c1.61,1,3.16,2.1,4.67,3.22,1.76,1.42,3.43,2.94,5,4.5A57.26,57.26,0,0,1,482,126a98.94,98.94,0,0,1,9.7,17.31c1.11,2.57,2.17,5.14,3,7.81a59.56,59.56,0,0,1,2.14,9.12c.16,1.24.29,2.47.39,3.71a25.08,25.08,0,0,1-.11,4.06A31.34,31.34,0,0,1,495.89,173Z"/><path class="cls-1" d="M414.71,223.73a3,3,0,0,1,2.07,3.62c-.07.23-.14.46-.19.69a23.17,23.17,0,0,1-4.9-2.62l-.34-.23a3,3,0,0,1,2.6-1.57A2.91,2.91,0,0,1,414.71,223.73Z"/><path class="cls-1" d="M411.7,225.42a23.17,23.17,0,0,0,4.9,2.62c-.91,3.21-1.83,6.44-2.62,9.67s-1.62,6.67-2.36,10c-1.36,6.09-2.59,12.2-3.81,18.32-1.33,6.58-2.52,13.2-3.69,19.82s-2.49,13-3.76,19.53c-1.21,6.16-2.29,12.33-3.66,18.47-.71,3.19-1.45,6.34-2.15,9.51s-1.47,6.5-2.07,9.78c-1.2,6.53-2.23,13.1-3.17,19.69-.9,6.3-1.79,12.6-2.92,18.86-1.19,6.53-2.45,13.06-3.9,19.55-.71,3.24-1.47,6.49-2.09,9.76-.71,3.57-1.37,7.15-2,10.74-1.13,6.53-2,13.11-3,19.66-.89,6.07-2,12.14-3,18.18q-.93,5.59-1.94,11.18c-.51,2.89-1.08,5.8-1.59,8.7-.64,3.58-1.26,7.16-1.83,10.75-.5,3.08-.92,6.17-1.35,9.25-.27,2.34-.57,4.65-.78,7-.26,2.83-.53,5.64-.76,8.47s-.44,5.58-.68,8.35c-.2,2.47-.37,5-.64,7.43-.6,5.34-1.22,10.67-2,16s-1.48,10.41-2.22,15.64c0,0,0,0,0,0l-.05.29s0,0,0,0q-2.68,20.72-4.75,41.49c-.62,6.22-1.06,12.45-1.74,18.67-.7,6.57-1.64,13.1-2.55,19.64-.88,6.33-1.66,12.67-2.54,19s-1.92,12.89-2.82,19.34l.06-.58c-.77,5.95-1.43,11.92-2.42,17.84-.52,3-1,6.06-1.57,9.09-.44,2.54-.77,5.11-1.11,7.68-.47,3.93-.88,7.86-1.45,11.78-.5,3.42-1.2,6.82-1.76,10.25a3.94,3.94,0,0,0,0,.5,6.4,6.4,0,0,0,.19.62,9,9,0,0,0,.76,1.33,37.35,37.35,0,0,0,3.37,3.34c1.06,1,2.12,2,3.18,3,1.94,1.84,3.86,3.7,5.86,5.49,4,3.56,8.25,6.76,12.31,10.22,8.63,7.38,16.74,15.33,25.17,22.93,4.79,4.31,9.59,8.59,14.23,13.05,2.25,2.18,4.45,4.37,6.7,6.54s4.77,4.55,7.15,6.82c2.12,2,4.21,4.1,6.33,6.1s4.57,4.26,6.85,6.38c4.33,4,8.55,8.17,12.76,12.33q-1.31,2.5-2.54,5.05c-1.82-1.69-3.62-3.38-5.45-5.05-4.73-4.38-9.56-8.63-14.22-13q-3.26-3.08-6.44-6.24c-2.19-2.14-4.42-4.24-6.61-6.38s-4.46-4.5-6.71-6.72-4.6-4.5-6.94-6.71c-4.82-4.52-9.67-9-14.46-13.56-4.5-4.28-8.9-8.67-13.47-12.88-2.38-2.18-4.76-4.38-7.22-6.47s-5-4.16-7.42-6.31c-1.37-1.18-2.67-2.37-4-3.6-1-.89-1.87-1.82-2.78-2.75-2.27-2.28-4.57-4.52-6.85-6.8-.53-.53-1-1.07-1.5-1.64a7.38,7.38,0,0,1-1-1.5,8.58,8.58,0,0,1-1.09-3.18,3.51,3.51,0,0,1,0-1.44c0-.22.07-.45.1-.67a9.54,9.54,0,0,1,.19-1c.11-.58.26-1.16.38-1.73q.87-3.95,1.4-8s0,0,0,.06c.35-3,.59-6.09.88-9.12s.65-6.08,1.07-9.08,1-5.92,1.44-8.88c.43-2.77.83-5.52,1.2-8.29,0-.19.05-.38.08-.57.67-5.28,1.31-10.55,2.1-15.8s1.56-10.59,2.26-15.89a0,0,0,0,1,0,0l0-.23a.56.56,0,0,1,0-.14q1.75-13.36,3.59-26.73c.37-2.9.69-5.79,1-8.7.67-6.3,1.11-12.64,1.75-18.95.67-6.84,1.45-13.67,2.23-20.49.73-6.59,1.54-13.16,2.38-19.75.82-6.43,1.78-12.86,2.65-19.29.12-1,.23-1.89.34-2.85.4-3.17.8-6.37,1.06-9.57.3-3.54.58-7.1.84-10.65.22-2.93.4-5.88.65-8.82.33-3.68.67-7.35,1.06-11,.7-6.54,1.73-13,2.82-19.54S366,467.43,367,460.84s2.13-13.2,3.09-19.82c.49-3.36.9-6.72,1.35-10.09s.94-6.85,1.43-10.28c.92-6.46,2.18-12.85,3.5-19.23.64-3.15,1.32-6.3,1.89-9.45q1-5.36,1.9-10.72c1.09-6.55,2-13.14,2.87-19.74.84-6.37,1.76-12.71,2.89-19s2.7-12.52,4.12-18.75,2.58-12.44,3.87-18.66c1.4-6.81,2.79-13.62,4.13-20.45.64-3.23,1.23-6.47,1.83-9.72s1.3-6.49,2-9.74c1.29-6.15,2.55-12.3,3.94-18.42.79-3.55,1.64-7.07,2.5-10.58s1.85-6.91,2.83-10.36a2.18,2.18,0,0,1,.26-.61Z"/></g><path class="cls-4" d="M533.68,199.56l-3.23.4a1.1,1.1,0,0,0-.71.3,1,1,0,0,0,0,1.43,1,1,0,0,0,.71.29l3.23-.4a1.09,1.09,0,0,0,.71-.3,1,1,0,0,0-.65-1.72Z"/><path class="cls-5" d="M584.63,112.62a2.11,2.11,0,0,1,.76,2.87c-.91,1.59-1.86,3.17-2.8,4.74.23-2.35.44-4.7.67-7,0-.28.05-.56.08-.84l.26,0A2,2,0,0,1,584.63,112.62Z"/><path class="cls-5" d="M583.54,97c.19,2,.32,4.05.31,6.09,0,1.88-.09,3.76-.19,5.63-.07,1.23-.2,2.45-.32,3.68a2.23,2.23,0,0,0-1.57,1c-1.41,2.22-2.85,4.42-4.31,6.62.37-3.38.7-6.76,1-10.14.13-1.31.18-2.65.23-4,.07-1.88.11-3.76,0-5.63-.11-2.59-.34-5.18-.69-7.74l-1.1-8c-.64-3.24-1.28-6.5-1.9-9.74-.56-2.8-1.22-5.58-1.84-8.37-1.21-5.47-2.28-11-3.38-16.46-.42-2.16-.73-4.35-1.08-6.53-.6-3.8-1.18-7.6-1.72-11.4a4,4,0,0,1,0-.88l.37-1a2.26,2.26,0,0,1,1.9-1,2.28,2.28,0,0,1,1.18.31,2.2,2.2,0,0,1,1.08,1.37c.69,4.92,1.47,9.81,2.25,14.71.49,3.09,1.16,6.14,1.79,9.21.46,2.24.87,4.47,1.38,6.7.76,3.36,1.53,6.71,2.3,10.07.51,2.25,1,4.51,1.42,6.77.32,1.55.65,3.12,1,4.68.16.81.25,1.61.37,2.43C582.54,89.15,583.17,93,583.54,97Z"/><path class="cls-5" d="M583.33,112.36c0,.28-.05.56-.08.84-.23,2.34-.44,4.69-.67,7l-2.13,3.48c-1.37,2.23-2.75,4.45-4.19,6.64l0,.06a3.51,3.51,0,0,1,0-1c.19-1.09.33-2.16.48-3.25q.36-3.07.68-6.15c1.46-2.2,2.89-4.4,4.31-6.62A2.23,2.23,0,0,1,583.33,112.36Z"/><path class="cls-5" d="M580.46,123.72l2.13-3.48c-.37,3.5-.77,7-1.35,10.49a2.48,2.48,0,0,1-1.17,1.55,2.66,2.66,0,0,1-2,.26,2.63,2.63,0,0,1-1.54-1.18,2.2,2.2,0,0,1-.31-1l0-.06C577.72,128.17,579.1,125.95,580.46,123.72Z"/><path class="cls-5" d="M578.74,100.25c.08,1.87,0,3.75,0,5.63-.05,1.32-.1,2.66-.23,4-.32,3.38-.66,6.76-1,10.14-1.39,2.11-2.79,4.21-4.2,6.32-1.22,1.85-2.49,3.69-3.77,5.5s-2.59,3.71-3.93,5.53l-2.47,3.37c-1.44,1.83-2.86,3.65-4.33,5.45l-4.41,5.37c-1.54,1.86-3.08,3.72-4.66,5.53s-3,3.4-4.49,5.1c-3.15,3.59-6.26,7.23-9.39,10.86q-2.46,2.86-5,5.68c-1.45,1.64-3,3.26-4.37,4.94q-2.41,2.88-4.71,5.84c-1.48,1.92-3,3.85-4.34,5.84-.6.86-1.18,1.74-1.75,2.63-.17-1.3-.29-2.58-.39-3.89-.09-1.12-.12-2.25-.18-3.37-.12-2.42-.32-4.83-.53-7.24-.23-2.6-.53-5.17-.92-7.75-.34-2.33-.73-4.66-1.3-7s-1.19-4.72-2-7-1.74-4.86-2.72-7.27-2.2-4.89-3.41-7.29c-1.06-2.11-2.24-4.17-3.49-6.19A136,136,0,0,0,492,128.65q-2.39-3.06-4.87-6.06c-1.58-1.91-3.24-3.76-4.9-5.61-.79-.86-1.63-1.67-2.44-2.51-.43-.44-.89-.83-1.34-1.24s-.76-.74-1.17-1.07c-1.13-.92-2.27-1.85-3.46-2.72l-1.53-1.11c-.56-.4-1.18-.73-1.76-1.1-1-.6-2-1.11-3-1.65-.54-.29-1.11-.54-1.67-.81s-1.24-.59-1.89-.86c-1.2-.51-2.4-1-3.62-1.45s-2.53-.86-3.81-1.27c-.58-.19-1.17-.35-1.75-.52,1.12-.16,2.24-.34,3.36-.56,1.95-.37,3.85-.83,5.77-1.31,1.68-.41,3.32-.93,5-1.42s3.19-1,4.74-1.56c3.48-1.28,6.93-2.57,10.35-4S491,89,494.43,87.55c7-2.84,13.95-5.6,20.86-8.55,3.46-1.47,6.92-3,10.35-4.57,1.88-.86,3.73-1.73,5.6-2.63.64-.3,1.27-.62,1.9-1,.85-.44,1.72-.85,2.54-1.34l2.79-1.69c.75-.45,1.44-1,2.14-1.51.87-.61,1.71-1.23,2.52-1.91s1.6-1.26,2.32-2q2.19-2.09,4.28-4.26c1.24-1.28,2.43-2.59,3.62-3.91a57.16,57.16,0,0,0,7-9.11c.58-1,1.17-2,1.75-2.95.41-.7.74-1.44,1.1-2.16a92.16,92.16,0,0,0,3.74-9,4,4,0,0,0,0,.88c.54,3.8,1.12,7.6,1.72,11.4.34,2.18.65,4.37,1.08,6.53,1.11,5.5,2.18,11,3.38,16.46.63,2.78,1.28,5.57,1.84,8.37.63,3.24,1.27,6.5,1.9,9.74l1.1,8C578.39,95.07,578.63,97.67,578.74,100.25Z"/><path class="cls-5" d="M521.47,196.91c-.75,1-1.5,2.06-2.24,3.12s-1.47,2.25-2.16,3.4c-.14.22-.28.46-.42.7a1.77,1.77,0,0,1,1.31.52,1.83,1.83,0,0,1,0,2.57c-1.18,1.09-2.35,2.2-3.55,3.29-1,.89-2.23,2.12-3.69,1.73a2.25,2.25,0,0,1-1.48-2.74,9.82,9.82,0,0,1,.82-1.82c1.16-2.16,2.32-4.33,3.56-6.45a2.73,2.73,0,0,0,2.07-2.68c0-.2-.06-.41-.08-.62.57-.89,1.15-1.76,1.75-2.63,1.39-2,2.86-3.92,4.34-5.84s3.11-3.92,4.71-5.84c1.42-1.68,2.92-3.3,4.37-4.94q2.53-2.81,5-5.68c3.12-3.63,6.23-7.26,9.39-10.86,1.49-1.7,3-3.38,4.49-5.1s3.12-3.67,4.66-5.53l4.41-5.37c1.47-1.81,2.9-3.63,4.33-5.45l2.47-3.37c1.34-1.82,2.62-3.68,3.93-5.53s2.55-3.65,3.77-5.5c1.4-2.11,2.81-4.21,4.2-6.32q-.32,3.07-.68,6.15c-.15,1.09-.29,2.16-.48,3.25a3.51,3.51,0,0,0,0,1c-1.39,2.12-2.79,4.25-4.23,6.35s-2.91,4.15-4.4,6.22c-.71,1-1.49,2-2.24,2.93s-1.33,1.72-2,2.55c-1.48,1.84-3,3.68-4.47,5.5s-3,3.69-4.56,5.49-3.4,3.87-5.13,5.79c-3.12,3.48-6.2,7-9.3,10.49s-6.54,7.16-9.83,10.75c-3,3.28-5.77,6.79-8.51,10.32Z"/><path class="cls-5" d="M566.21,24.13a3.73,3.73,0,0,1,1.73,4.19c-.19.58-.39,1.17-.6,1.74a.85.85,0,0,0-.09.12,2.07,2.07,0,0,0-.28.91,92.16,92.16,0,0,1-3.74,9c-.36.73-.69,1.47-1.1,2.16-.58,1-1.17,2-1.75,2.95a57.16,57.16,0,0,1-7,9.11c-1.19,1.31-2.39,2.63-3.62,3.91q-2.09,2.17-4.28,4.26c-.73.71-1.55,1.31-2.32,2s-1.65,1.3-2.52,1.91c-.7.51-1.4,1.06-2.14,1.51l-2.79,1.69c-.82.5-1.69.9-2.54,1.34-.63.34-1.26.65-1.9,1-1.87.9-3.72,1.77-5.6,2.63-3.43,1.56-6.88,3.1-10.35,4.57-6.91,2.95-13.9,5.7-20.86,8.55-3.45,1.42-6.9,2.87-10.36,4.29s-6.87,2.7-10.35,4c-1.55.57-3.14,1.1-4.74,1.56s-3.3,1-5,1.42c-1.92.48-3.82.94-5.77,1.31-1.12.22-2.24.4-3.36.56h0c-1.75-.48-3.53-.86-5.3-1.25-1.31-.28-2.65-.45-4-.6A34.32,34.32,0,0,0,442,98.5h-1.7c-1.82,0-3.66.07-5.48.25-1.47.15-2.93.35-4.4.56a30.69,30.69,0,0,0-3.43.84,30,30,0,0,0-4.72,1.68q-7-.24-13.95-.95c-3.9-.41-7.76-1.07-11.62-1.66-3.44-.53-6.84-1.14-10.24-1.82-3.73-.76-7.42-1.6-11.11-2.49a95.24,95.24,0,0,1-10.15-3.19c-3.49-1.26-7-2.59-10.39-4a57.26,57.26,0,0,1-9.53-4.82c-1-.68-2.09-1.34-3.05-2.09L340,79a44.7,44.7,0,0,1-3.91-3.66c-2.45-2.48-4.6-5.26-6.86-7.9s-4.64-5.27-6.88-8c-2.43-2.95-4.81-5.92-7.14-9-2.23-2.87-4.25-5.88-6.28-8.89-1.51-2.23-2.9-4.52-4.23-6.86-.59-1-1.15-2-1.71-3a1.84,1.84,0,1,1,3.16-1.87,110.47,110.47,0,0,0,5.71,9.49c2,2.89,4,5.73,6.14,8.52,1.84,2.29,3.7,4.56,5.64,6.76,2.12,2.42,4.28,4.78,6.48,7.12s4.45,4.79,6.7,7.15c1,1,2,2.05,3.07,3s2.25,2,3.4,2.91c.75.56,1.5,1.14,2.3,1.63,1,.61,2,1.29,3,1.85s2,1.11,3,1.57l2.77,1.26c3.18,1.23,6.38,2.41,9.6,3.54a105.52,105.52,0,0,0,10.24,3.23,194.3,194.3,0,0,0,20.59,3.84c4.28.47,8.55.9,12.85,1.21,3.44.25,6.88.35,10.33.38,3.76,0,7.53,0,11.29-.08,7.05-.22,14.12-.64,21.14-1.36a78.87,78.87,0,0,0,7.89-1.48c3-.79,6-1.6,9-2.61q5.37-1.8,10.62-3.9c3.53-1.41,7-2.89,10.55-4.37,6.55-2.77,13.14-5.39,19.72-8.09q7.29-3.13,14.49-6.43c2.58-1.18,5.11-2.47,7.62-3.78a61.85,61.85,0,0,0,6.26-4c.89-.72,1.8-1.44,2.64-2.19,1.31-1.17,2.58-2.35,3.85-3.54a85.27,85.27,0,0,0,8.74-9.13c1.14-1.53,2.18-3.11,3.24-4.69.33-.48.6-1,.89-1.53.38-.66.81-1.31,1.15-2,1.44-2.86,2.87-5.73,4.11-8.68a3.53,3.53,0,0,1,2.21-1.72,3.67,3.67,0,0,1,1-.14A3.77,3.77,0,0,1,566.21,24.13Z"/><path class="cls-5" d="M567.34,30.06l-.37,1a2.07,2.07,0,0,1,.28-.91A.85.85,0,0,1,567.34,30.06Z"/><path class="cls-5" d="M515.71,198.55a2.73,2.73,0,0,1-2.07,2.68c.65-1.11,1.31-2.21,2-3.3C515.65,198.14,515.69,198.35,515.71,198.55Z"/><path class="cls-5" d="M515.24,194c.11,1.31.22,2.6.39,3.89-.68,1.09-1.35,2.19-2,3.3a2.44,2.44,0,0,1-.7.1,2.79,2.79,0,0,1-2.69-2c-.46-2.15-.83-4.28-1.11-6.47-.23-1.76-.37-3.52-.53-5.29-.28-3.2-.58-6.41-1-9.6-.26-1.72-.52-3.46-.88-5.16-.42-2-.89-3.95-1.43-5.89a104.53,104.53,0,0,0-3.7-10.62l-.5-1.14a92.34,92.34,0,0,0-6.69-12.6c-1.42-2.2-2.87-4.38-4.38-6.52-1.32-1.88-2.71-3.7-4.09-5.51-2.21-2.84-4.44-5.65-6.8-8.36-.56-.64-1.11-1.26-1.7-1.89s-1.19-1.32-1.82-1.93-1.38-1.42-2.13-2.05l-2.11-1.81,0,0c-.7-.55-1.4-1.1-2.14-1.59l-1.87-1.22c-.47-.31-1-.58-1.49-.86-1.1-.63-2.24-1.2-3.38-1.79-.81-.41-1.66-.76-2.5-1.12-2.61-1-5.22-1.94-7.92-2.69-1.32-.36-2.66-.74-4-1-.71-.14-1.41-.32-2.13-.43l-1.71-.26a50.06,50.06,0,0,0-6.48-.29l0-1.28,3.17-.1c3.55-.12,7.13-.19,10.64-.65,1.13-.15,2.27-.3,3.39-.47h0c.58.17,1.17.33,1.75.52,1.28.41,2.54.82,3.81,1.27s2.42.94,3.62,1.45c.65.27,1.27.56,1.89.86s1.13.52,1.67.81c1,.53,2,1,3,1.65.58.37,1.2.7,1.76,1.1l1.53,1.11c1.19.87,2.32,1.79,3.46,2.72.4.33.79.71,1.17,1.07s.91.8,1.34,1.24c.81.84,1.65,1.65,2.44,2.51,1.66,1.85,3.31,3.7,4.9,5.61s3.27,4,4.87,6.06A136,136,0,0,1,500.7,141c1.25,2,2.43,4.08,3.49,6.19,1.21,2.39,2.39,4.8,3.41,7.29s1.89,4.82,2.72,7.27,1.39,4.66,2,7,1,4.63,1.3,7c.39,2.58.69,5.16.92,7.75.21,2.41.41,4.82.53,7.24C515.12,191.79,515.14,192.92,515.24,194Z"/><path class="cls-5" d="M454.86,100.66c-1.12.17-2.26.32-3.39.47-3.51.46-7.09.53-10.64.65l-3.17.1c-2.33.08-4.67.12-7,.11q-4.18,0-8.36-.16a30,30,0,0,1,4.72-1.68,30.69,30.69,0,0,1,3.43-.84c1.47-.22,2.93-.41,4.4-.56,1.82-.19,3.66-.25,5.48-.25H442a34.32,34.32,0,0,1,3.54.31c1.33.15,2.68.33,4,.6C451.33,99.8,453.11,100.19,454.86,100.66Z"/><path class="cls-5" d="M437.66,101.89l0,1.28c-1.15,0-2.29.09-3.45.17-.94.08-1.86.19-2.79.3-1.16.24-2.35.46-3.49.78-.61.18-1.25.32-1.86.54l-1.77.64c-1.21.54-2.42,1.08-3.58,1.74-1.33.77-2.64,1.53-3.93,2.35-2.35,1.49-4.61,3.12-6.84,4.76-1.65,1.29-3.27,2.61-4.85,4-1.84,1.57-3.73,3.14-5.52,4.77-.91.83-1.83,1.66-2.7,2.54s-1.61,1.66-2.36,2.54c-3.12,3.65-6.11,7.4-9.06,11.19-2,2.59-3.85,5.22-5.66,7.93-1.32,2-2.63,4-4,6s-2.84,4.25-4.22,6.39c-.71,1.1-1.38,2.22-2.06,3.35s-1.12,2-1.69,3.05c-.29.55-.54,1.11-.82,1.67s-.5,1-.71,1.46c-.49,1.1-1,2.21-1.45,3.31s-.92,2.34-1.38,3.52c-.39,1-.71,2-1.05,3-.78,2.29-1.45,4.58-2.15,6.89s-1.17,4.39-1.76,6.58c-.27,1-.49,2-.72,3-.13.58-.28,1.15-.41,1.74-.75-.6-1.49-1.19-2.27-1.78l-.09-.07c.34-1.47.68-2.93,1-4.39.64-2.54,1.28-5.09,2-7.62.31-1.13.59-2.29.94-3.41.43-1.43.87-2.86,1.31-4.29.37-1.19.82-2.35,1.24-3.53s.84-2.22,1.28-3.33c1-2.4,2.07-4.72,3.23-7,1-2,2.19-4,3.39-5.85l4.24-6.64c1.28-2,2.55-4,3.89-6s2.88-4.15,4.4-6.18c3-4.05,6.2-8,9.45-11.82.69-.82,1.42-1.62,2.16-2.37.95-1,1.93-1.86,2.92-2.77,1.72-1.56,3.51-3,5.28-4.55,2-1.66,3.91-3.34,6-4.87s4.09-3,6.17-4.36a67.61,67.61,0,0,1,6.19-3.67c.68-.36,1.39-.71,2.1-1q4.18.15,8.36.16C433,102,435.33,102,437.66,101.89Z"/><path class="cls-5" d="M335.1,175c-2.86-3.67-5.75-7.32-8.7-10.92q-2.23-2.7-4.47-5.36c-1.46-1.75-2.88-3.53-4.28-5.32l-.19-.23-.16-.2a1.17,1.17,0,0,0-.09-.12c-.6-.83-1.21-1.66-1.83-2.49s-1.26-1.78-1.89-2.67c-1.15-1.62-2.24-3.28-3.31-5-2.42-3.85-4.82-7.72-7.25-11.57-.7-1.08-1.4-2.17-2.1-3.25-.2-.31-.42-.63-.63-.94,1.38,1.09,2.76,2.16,4.14,3.23a1,1,0,0,0,1.43,0,1,1,0,0,0,0-1.42l-3.19-2.47c-1-.77-1.92-1.54-2.88-2.3-.06-1.91-.14-3.83-.22-5.73-.1-2.06-.17-4.14-.36-6.19s-.4-4.27-.63-6.41-.47-4.42-.69-6.62c-.1-1-.13-1.9-.19-2.85s-.13-1.72-.13-2.57c0-1.38,0-2.75,0-4.13,0-.79.05-1.58.09-2.36.05-1.25.11-2.5.17-3.74,0-.88.14-1.77.21-2.65l.29-3.5c.08-.86.21-1.74.3-2.6.17-1.44.34-2.88.51-4.32.49-3.7,1-7.4,1.52-11.09l1.25-8.33c.26-1.7.59-3.38.89-5.07q.82-4.5,1.66-9a2.25,2.25,0,0,0-.22-1.68l.6-.35c1.33,2.33,2.72,4.62,4.23,6.86,2,3,4.05,6,6.28,8.89,2.33,3,4.71,6,7.14,9,2.24,2.7,4.6,5.3,6.88,8s4.41,5.42,6.86,7.9A44.7,44.7,0,0,0,340,79l2.26,1.77c1,.76,2,1.41,3.05,2.09a57.26,57.26,0,0,0,9.53,4.82c3.42,1.44,6.9,2.77,10.39,4a95.24,95.24,0,0,0,10.15,3.19c3.7.89,7.38,1.73,11.11,2.49,3.39.68,6.8,1.3,10.24,1.82,3.86.59,7.73,1.25,11.62,1.66q7,.71,13.95.95c-.72.32-1.42.67-2.1,1a67.61,67.61,0,0,0-6.19,3.67c-2.09,1.41-4.15,2.86-6.17,4.36s-4,3.2-6,4.87c-1.76,1.51-3.56,3-5.28,4.55-1,.91-2,1.81-2.92,2.77-.75.75-1.47,1.55-2.16,2.37-3.25,3.85-6.45,7.77-9.45,11.82-1.52,2-3,4.07-4.4,6.18s-2.6,4-3.89,6l-4.24,6.64c-1.2,1.9-2.38,3.85-3.39,5.85-1.17,2.3-2.28,4.62-3.23,7-.43,1.11-.89,2.21-1.28,3.33s-.88,2.34-1.24,3.53c-.43,1.43-.87,2.86-1.31,4.29-.35,1.12-.63,2.27-.94,3.41-.7,2.53-1.34,5.07-2,7.62-.36,1.46-.71,2.92-1,4.39-.74-.57-1.5-1.13-2.26-1.69-2.15-1.68-4.29-3.41-6.29-5.28a42.59,42.59,0,0,1-3.19-3.17c-1-1.18-2-2.38-3-3.59-1.48-1.93-3-3.86-4.45-5.78l-.22-.29-.18-.22h0a1.5,1.5,0,0,1-.12-.16Z"/><path class="cls-5" d="M361.81,200.91a2.81,2.81,0,0,1-.83,2,3,3,0,0,1-2,.84,6.17,6.17,0,0,1-2.52-.15,7.29,7.29,0,0,1-2-1c-.63-.45-1.22-.92-1.83-1.39l-2.28-1.77c-1.65-1.28-3.29-2.56-4.86-3.93-.84-.74-1.68-1.49-2.52-2.26-.67-.61-1.36-1.25-2-1.92s-1.48-1.6-2.18-2.44c-.85-1-1.66-2.06-2.48-3.11-1.25-1.63-2.42-3.32-3.61-5q-2-2.73-3.95-5.44c-2.54-3.47-5.15-6.91-7.77-10.33l-.11-.15-.1-.12c-2.06-2.65-4.1-5.29-6-8-1-1.43-2-2.88-2.95-4.34-.38-.58-.74-1.18-1.11-1.78s-.81-1.26-1.18-1.91q-1.81-3.1-3.51-6.24c-.95-1.73-1.87-3.47-2.81-5.21q-1.67-3.13-3.32-6.27c-.48-.93-1-1.83-1.46-2.76-.27-.5-.53-1-.79-1.52a1.36,1.36,0,0,0,.52.1,1.61,1.61,0,0,0,1.59-1.61l0-1.28c1,.76,1.92,1.53,2.88,2.3l3.19,2.47a1,1,0,0,1,0,1.42,1,1,0,0,1-1.43,0c-1.38-1.07-2.76-2.14-4.14-3.23.21.31.43.63.63.94.71,1.08,1.41,2.17,2.1,3.25,2.43,3.85,4.83,7.72,7.25,11.57,1.07,1.69,2.16,3.35,3.31,5,.63.89,1.24,1.8,1.89,2.67s1.24,1.66,1.83,2.49a1.17,1.17,0,0,1,.09.12l.16.2.19.23c1.41,1.8,2.82,3.57,4.28,5.32s3,3.56,4.47,5.36c3,3.59,5.85,7.24,8.7,10.92l.29.38a1.5,1.5,0,0,0,.12.16h0l.18.22.22.29c1.5,1.92,3,3.85,4.45,5.78,1,1.22,2,2.41,3,3.59a42.59,42.59,0,0,0,3.19,3.17c2,1.87,4.13,3.6,6.29,5.28.75.57,1.51,1.13,2.26,1.69-.29,1.27-.56,2.54-.85,3.82a1.35,1.35,0,1,0,2.6.71c.2-.88.4-1.78.61-2.68l.57.45.3.18.11,0H359A2.88,2.88,0,0,1,361.81,200.91Z"/><path class="cls-5" d="M357.48,197.41c-.21.9-.41,1.79-.61,2.68a1.35,1.35,0,1,1-2.6-.71c.29-1.28.56-2.55.85-3.82l.09.07C356,196.22,356.73,196.81,357.48,197.41Z"/><path class="cls-5" d="M304.11,35.14a2.25,2.25,0,0,1,.22,1.68q-.84,4.49-1.66,9c-.3,1.69-.63,3.37-.89,5.07l-1.25,8.33c-.56,3.68-1,7.39-1.52,11.09-.17,1.44-.34,2.88-.51,4.32-.1.86-.23,1.74-.3,2.6l-.29,3.5c-.08.88-.17,1.77-.21,2.65-.05,1.24-.11,2.49-.17,3.74,0,.78-.1,1.57-.09,2.36,0,1.38,0,2.75,0,4.13,0,.85.07,1.71.13,2.57s.09,1.9.19,2.85c.22,2.2.45,4.42.69,6.62s.43,4.27.63,6.41.26,4.13.36,6.19c.09,1.9.16,3.82.22,5.73l-.65-.5a3.29,3.29,0,0,0-.67-.43,1.39,1.39,0,0,0-.66-.14h-.19a1,1,0,0,0-1,1c0,.28.07.55.13.83a3.53,3.53,0,0,0,.37.87c.15.3.33.59.48.88l.14.26a1.51,1.51,0,0,1-.62-.37,1.77,1.77,0,0,1-.47-1.13c-.52-5.63-1.18-11.26-2-16.85-.23-1.71-.52-3.41-.71-5.12l-.31-2.62c-.07-.65-.18-1.31-.23-2-.06-1-.13-2.06-.2-3.08,0-.58-.09-1.15-.1-1.72V90.85c0-.62,0-1.23,0-1.85.06-1.24.11-2.49.18-3.74,0-.76.06-1.52.13-2.28.17-2,.3-4.12.54-6.17.29-2.4.55-4.8.87-7.2s.64-4.73,1-7.1c.58-4.3,1.26-8.59,1.9-12.89.26-1.72.6-3.44.91-5.15q.79-4.4,1.63-8.8a2.15,2.15,0,0,1,2.13-1.6,1.81,1.81,0,0,1,.55.08A2.18,2.18,0,0,1,304.11,35.14Z"/><path class="cls-5" d="M299.73,125.25a1.61,1.61,0,0,1-1.59,1.61,1.36,1.36,0,0,1-.52-.1l-.14-.26c-.16-.29-.34-.58-.48-.88a3.53,3.53,0,0,1-.37-.87c-.06-.28-.09-.55-.13-.83a1,1,0,0,1,1-1h.19a1.39,1.39,0,0,1,.66.14,3.29,3.29,0,0,1,.67.43l.65.5Z"/><path class="cls-3" d="M444.29,221.3a59.9,59.9,0,0,0-6.31.7c-1.79.26-3.57.56-5.36.88A101.51,101.51,0,0,0,422,225.2c-1.53.45-3.06.91-4.58,1.4s-3.27,1.19-4.88,1.83a3.47,3.47,0,0,0-1.92,1.49,3.23,3.23,0,0,0,1.17,4.41,3.1,3.1,0,0,0,2.48.31c1.83-.72,3.67-1.43,5.55-2,1.57-.5,3.16-.94,4.76-1.33,3.2-.8,6.45-1.28,9.71-1.76,2.19-.29,4.37-.55,6.58-.71a40,40,0,0,1,7.1.12c2.85.43,5.66,1,8.48,1.61,3.15.68,6.34,1.21,9.52,1.75a3.49,3.49,0,0,0,2.54-.34,3.3,3.3,0,0,0-.81-6c-2-.57-4-1.18-6-1.84-1.76-.58-3.55-1-5.37-1.43a50.93,50.93,0,0,0-11-1.39l-1,0Z"/><path class="cls-3" d="M468.07,130.7a2,2,0,0,0-.56,1.37,2,2,0,0,0,.57,1.36c.86,1,1.73,2,2.55,3.07a25.53,25.53,0,0,1,2.84,5,32.44,32.44,0,0,1,2,7.51,36.92,36.92,0,0,1,.26,5.34,55.32,55.32,0,0,1-.46,5.7c-.22,1.6-.46,3.2-.7,4.8-.09.59-.26,1.19-.38,1.78s-.25,1.3-.42,1.93c-.81,3-1.63,6-2.57,8.89a1.8,1.8,0,0,0,1.25,2.19,1.82,1.82,0,0,0,2.19-1.25c.72-2.12,1.38-4.26,2-6.41.27-.93.57-1.86.8-2.81s.51-2.18.77-3.27c.09-.4.13-.81.2-1.21l.35-2.14a66.84,66.84,0,0,0,.79-7.1,34.71,34.71,0,0,0-3.49-17.39,23.23,23.23,0,0,0-2.25-3.67c-1-1.27-2-2.48-3-3.7a1.86,1.86,0,0,0-1.37-.56,2,2,0,0,0-1.37.57Z"/><path class="cls-3" d="M460.92,195.09a3.71,3.71,0,1,0,3.69-3.72,3.74,3.74,0,0,0-3.69,3.72Z"/></svg>