<?xml version="1.0" encoding="UTF-8"?>
<svg fill="#272C31" width="100pt" height="100pt" version="1.1" viewBox="0 0 100 100" xmlns="http://www.w3.org/2000/svg">
 <g>
  <path d="m19.078 19.848c6.7695-6.9219 15.691-11.383 25.23-12.617 0.76953 2.4609 2.9219 4.4609 5.6914 4.4609 3.2305 0 6-2.6172 6-6 0-3.3828-2.6172-6-6-6-3.0781 0-5.5391 2.3086-5.8477 5.2305-10.152 1.2305-19.691 6-26.77 13.23zm30.922-17.848c2 0 3.6914 1.6914 3.6914 3.6914s-1.6914 3.6914-3.6914 3.6914-3.6914-1.6914-3.6914-3.6914c0-2.1523 1.6914-3.6914 3.6914-3.6914z"/>
  <path d="m6.3086 62.922l2.1523-0.61719c-1.2305-4-1.6914-8-1.6914-12.152 0-5.6914 1.0781-11.383 3.2305-16.617 0.46094 0.15234 1.0781 0.15234 1.5391 0.15234 2.1523 0 4.1523-1.0781 5.2305-2.9219 1.6914-2.9219 0.61719-6.4609-2.1523-8.1523-0.92188-0.46094-2-0.76953-3.0781-0.76953-2.1523 0-4.1523 1.0781-5.2305 2.9219-0.61719 1.2344-0.92578 2.9258-0.46094 4.4648 0.30469 1.2305 1.0742 2.3086 2.1523 3.0781-2.3086 5.5391-3.5391 11.539-3.5391 17.691 0 4.3086 0.61719 8.7695 1.8477 12.922zm2.1523-37.074c0.61719-1.0781 1.8477-1.8477 3.2305-1.8477 0.61719 0 1.2305 0.15234 1.8477 0.46094 1.6914 1.0781 2.3086 3.2305 1.3828 5.0781-1.0742 1.6914-3.3828 2.3086-5.0742 1.2305-0.92188-0.46094-1.3828-1.2305-1.6914-2.3086-0.30859-0.76953-0.15625-1.8438 0.30469-2.6133z"/>
  <path d="m15.539 76.152c0.76953-0.76953 1.2305-1.5391 1.5391-2.6172 0.46094-1.5391 0.15234-3.0781-0.61719-4.4609-1.0781-1.8477-3.0781-3.0781-5.2305-3.0781-1.0781 0-2 0.30859-2.9219 0.76953-2.7695 1.543-3.6914 5.2344-2.1562 8.1562 1.0781 1.8477 3.0781 3.0781 5.2305 3.0781 0.76953 0 1.5391-0.15234 2.3086-0.46094 6 7.8477 14.309 13.691 23.848 16.309l0.61719-2.1523c-8.9258-2.6172-16.926-8.1562-22.617-15.543zm-7.3867-2.4609c-0.92188-1.6914-0.30859-4 1.3828-5.0781 0.61719-0.30859 1.2305-0.46094 1.8477-0.46094 1.3828 0 2.6172 0.76953 3.2305 1.8477 0.46094 0.92188 0.61719 1.8477 0.30859 2.7695s-0.92188 1.6914-1.6914 2.1523c-1.6914 1.2305-4 0.46094-5.0781-1.2305z"/>
  <path d="m80.617 80.461c-6.7695 6.7695-15.539 11.078-24.922 12.309-0.30859-0.92188-0.76953-1.8477-1.5391-2.6172-1.0781-1.0781-2.6172-1.8477-4.3086-1.8477-3.2305 0-6 2.6172-6 5.8477 0 3.2305 2.6172 6 5.8477 6 3.0781 0 5.5391-2.3086 5.8477-5.2305 10-1.2305 19.23-5.8477 26.461-13.078zm-30.617 17.691v1.0781-1.0781c-2 0-3.6914-1.6914-3.6914-3.6914s1.6914-3.6914 3.6914-3.6914c0.92188 0 1.8477 0.46094 2.6172 1.0781 0.61719 0.76953 1.0781 1.6914 1.0781 2.6172-0.003906 1.9961-1.6953 3.6875-3.6953 3.6875z"/>
  <path d="m84.617 24.152c-1.8477 1.8477-2.4609 4.7695-1.0781 7.2305 1.0781 1.8477 3.0781 3.0781 5.2305 3.0781 1.0781 0 2-0.30859 2.9219-0.76953 2.9219-1.5391 4-5.2305 2.3086-8.1523-1.0781-1.8477-3.0781-3.0781-5.2305-3.0781-0.76953 0-1.5391 0.15234-2.1523 0.46094-6.3086-8.4609-15.383-14.617-25.539-17.078l-0.61719 2.3086c9.6914 2.3086 18.309 8 24.156 16zm7.3828 2.4648c0.92188 1.6914 0.30859 4-1.3828 4.9219-1.6914 0.92188-4 0.30859-4.9219-1.3828-0.92187-1.6914-0.30859-4 1.3828-4.9219 0.61719-0.30859 1.2305-0.46094 1.8477-0.46094 1.2266-0.003907 2.457 0.76562 3.0742 1.8438z"/>
  <path d="m91.848 68c2.4609-5.6914 3.6914-11.691 3.6914-18 0-3.8477-0.46094-7.8477-1.5391-11.539l-2.3086 0.61719c0.92188 3.5391 1.3828 7.2305 1.3828 10.922 0 5.8477-1.2305 11.539-3.5391 16.922-0.46094-0.15234-1.0781-0.15234-1.6914-0.15234-2.1523 0-4 1.0781-5.0781 2.9219-1.6914 2.7695-0.76953 6.4609 2 8.1523 0.92188 0.61719 2 0.76953 3.0781 0.76953 2.1523 0 4-1.0781 5.0781-2.9219 0.76953-1.3828 1.0781-2.9219 0.61719-4.4609 0.15234-1.2305-0.61719-2.3086-1.6914-3.2305zm-0.61719 6.6172c-0.92188 1.6914-3.3828 2.3086-5.0781 1.2305-1.6914-1.0781-2.3086-3.2305-1.2305-5.0781 0.61719-1.0781 1.8477-1.8477 3.2305-1.8477 0.61719 0 1.2305 0.15234 1.8477 0.46094 0.76953 0.46094 1.3828 1.2305 1.6914 2.3086s0.15625 2-0.46094 2.9258z"/>
  <path d="m54.77 81.691c2 0 3.5391-1.3828 4-3.3828 0-0.46094 0.15234-0.92188 0.15234-1.6914h2.1523v-2.3086h-2c0-0.15234 0.30859-1.3828 0.30859-2h3.6914v-2.3086h-3.0742c1.2305-5.3828 3.2305-10.461 5.8477-14.922 0.15234-0.30859 0.30859-0.46094 0.46094-0.76953 1.8477-3.0781 2.6172-6.6172 2.4609-10.309-0.46094-9.5391-8-17.23-17.539-17.848-11.078-0.76953-20.152 8-20.152 18.922 0 2.1523 0.30859 4.1523 1.0781 6.3086l1.6914 3.2305c0.30859 0.46094 0.46094 0.76953 0.76953 1.2305l0.15234 0.15234c2.4609 4.3086 4.1523 9.0781 5.3828 14h-3.3828v2.3125h3.8477c0.15234 0.46094 0.15234 1.2305 0.30859 2h-2v2.3086h2.3086v0.76953l0.15234 1.2305v0.30859c0.61719 1.5391 2.1523 2.6172 3.8477 2.6172l9.5352-0.003907zm-18.309-27.074c-0.30859-0.46094-0.46094-0.92188-0.76953-1.2305l-1.5391-3.0781c-0.61719-1.6914-0.92188-3.5391-0.92188-5.5391 0-9.5391 8-17.23 17.691-16.617 8.3086 0.61719 14.922 7.2305 15.383 15.691 0.15234 3.2305-0.61719 6.3086-2 8.9219l-0.15234 0.15234c-0.15234 0.30859-0.30859 0.46094-0.46094 0.76953-2.7695 4.7695-4.9219 10.309-6.3086 16.152h-15.383c-0.92188-5.3789-2.9219-10.457-5.5391-15.223zm6.3086 17.691h14.309c-0.15234 0.46094-0.30859 1.6914-0.30859 2h-13.691c-0.15625-0.76953-0.30859-1.3867-0.30859-2zm0.61328 6l-0.15234-1.0781v-0.61719h13.383c0 0.61719-0.15234 1.0781-0.15234 1.3828-0.15234 0.76953-0.92188 1.3828-1.6914 1.3828h-9.6914c-0.76953 0.003906-1.3867-0.45703-1.6953-1.0703z"/>
  <path d="m66.805 63.613l-2.4727-2.5312 1.6523-1.6133 2.4727 2.5312z"/>
  <path d="m73.898 52.664l-3.4062-0.95703 0.625-2.2227 3.4062 0.95703z"/>
  <path d="m70.828 38.145l3.4297-0.875 0.57031 2.2344-3.4297 0.875z"/>
  <path d="m68.875 27.973l-2.5312 2.4727-1.6133-1.6523 2.5312-2.4727z"/>
  <path d="m56.934 24.125l-2.2227-0.625 0.95703-3.4062 2.2227 0.625z"/>
  <path d="m45.719 23.426l-2.2344 0.57031-0.875-3.4297 2.2344-0.57031z"/>
  <path d="m35.633 28.367l-1.6523 1.6133-2.4727-2.5312 1.6523-1.6133z"/>
  <path d="m25.422 38.938l0.625-2.2227 3.4062 0.95703-0.625 2.2227z"/>
  <path d="m25.832 52.008l-0.57031-2.2344 3.4297-0.875 0.57031 2.2344z"/>
  <path d="m31.098 61.562l2.5273-2.4766 1.6133 1.6484-2.5273 2.4766z"/>
 </g>
</svg>
