<?xml version="1.0" encoding="UTF-8"?>
<svg fill="#272C31" width="100pt" height="100pt" version="1.1" viewBox="0 0 100 100" xmlns="http://www.w3.org/2000/svg">
 <g>
  <path d="m18.461 15.23h2.3086v2.3086h-2.3086z"/>
  <path d="m23.848 15.23h2.3086v2.3086h-2.3086z"/>
  <path d="m29.23 15.23h2.3086v2.3086h-2.3086z"/>
  <path d="m17.848 36.617h6.4609v2.3086h-6.4609z"/>
  <path d="m25.078 82.922h-8c-0.61719 0-1.2305 0.46094-1.2305 1.2305 0 0.61719 0.46094 1.2305 1.2305 1.2305h8c0.61719 0 1.2305-0.46094 1.2305-1.2305 0-0.76953-0.61719-1.2305-1.2305-1.2305z"/>
  <path d="m96.152 56.77h-4v-8.4609c0-3.5391-1.8477-6.6172-4.4609-8.3086v-25.383c0-2.1562-1.6914-3.8477-3.8438-3.8477h-67.539c-2.1562 0-3.8477 1.6914-3.8477 3.8477v18.152h-9.2305c-2 0-3.6914 1.6914-3.6914 3.6914v49.078c0 2 1.6914 3.6914 3.6914 3.6914h33.078c2 0 3.6914-1.6914 3.6914-3.6914v-15.078h23.691v9.0781c0 2.3086 1.8477 4.3086 4.3086 4.3086h28.152c2.3086 0 4.3086-1.8477 4.3086-4.3086v-18.461c0-2.3086-2-4.3086-4.3086-4.3086zm-6.3047-8.4609v8.4609h-15.539v-8.4609c0-4.3086 3.5391-7.6914 7.6914-7.6914 4.3086-0.15625 7.8477 3.3828 7.8477 7.6914zm-73.539-35.23h67.539c0.92188 0 1.5391 0.76953 1.5391 1.5391v4.6172l-70.617-0.003906v-4.6172c0-0.76562 0.61328-1.5352 1.5391-1.5352zm-13.078 22h33.078c0.76953 0 1.3828 0.61719 1.3828 1.3828v4.3086h-35.691v-4.3086c0-0.76953 0.61719-1.3828 1.2305-1.3828zm34.617 8v35.848l-35.848-0.003906v-35.844zm-1.3867 43.844h-33.23c-0.76953 0-1.3828-0.61719-1.3828-1.3828v-4.3086h35.848v4.3086c0.15234 0.76953-0.46484 1.3828-1.2344 1.3828zm3.6914-18.77v-4.9219h23.691v4.9219zm23.695-7.2305h-23.695v-24.461c0-2-1.6914-3.6914-3.6914-3.6914h-21.691v-11.23h70.617v17.23c-1.0781-0.30859-2.1523-0.61719-3.3828-0.61719-5.5391 0-10 4.4609-10 10v8.4609h-4c-2.3125 0.15625-4.1562 2.0039-4.1562 4.3086zm34.305 18.617c0 1.0781-0.92188 2-2 2h-28.152c-1.0781 0-2-0.92187-2-2v-18.461c0-1.0781 0.92188-2 2-2h28.152c1.0781 0 2 0.92188 2 2z"/>
  <path d="m86 67.691c0-2.1523-1.8477-4-4-4s-4 1.8477-4 4c0 0.92188 0.30859 1.8477 0.92188 2.4609l-1.0781 5.0781c-0.15234 0.30859 0 0.76953 0.15234 0.92188 0.15234 0.30859 0.61719 0.46094 0.92188 0.46094h6.1523c0.30859 0 0.61719-0.15234 0.92188-0.46094 0.15234-0.30859 0.30859-0.61719 0.15234-0.92188l-1.0781-5.0781c0.625-0.61328 0.93359-1.5352 0.93359-2.4609zm-3.2305 2.6172l0.92188 4h-3.2305l0.92187-4v-0.15234c0.15234-0.46094 0-0.92188-0.30859-1.2305-0.46094-0.30859-0.61719-0.76953-0.61719-1.2305 0-0.92187 0.76953-1.6914 1.6914-1.6914 0.92187 0 1.6914 0.76953 1.6914 1.6914 0 0.46094-0.15234 0.92188-0.61719 1.2305-0.45312 0.45703-0.60547 0.92188-0.45312 1.3828z"/>
 </g>
</svg>
