<svg id="Layer_7" data-name="Layer 7" xmlns="http://www.w3.org/2000/svg" viewBox="0 0 694.09 544.78"><defs><style>.cls-1{fill:#dfce00;}.cls-2{fill:#fff;}.cls-3{fill:#bababa;}.cls-4{fill:#7f7f7f;}</style></defs><title>no_load_files</title><path class="cls-1" d="M658.43,454.11q.13,8.74.12,17.48c0,6-.15,12-.51,18-.35,5.52-.8,11-1.26,16.56-1,12.16-2.25,24.27-4.26,36.3q-1.54,9.19-3.08,18.39c-.92,5.51-1.91,11-3.12,16.49-2.55,11.5-5.33,23-8.49,34.35a4.91,4.91,0,0,1-6,3.39,4.84,4.84,0,0,1-3.5-4.23,4.2,4.2,0,0,0,.12-1,4.49,4.49,0,0,0,0-.57.61.61,0,0,1,0-.15c.57-2.46,1.11-4.93,1.67-7.4,1.37-6.09,2.75-12.19,4-18.31,1.19-5.55,2.16-11.15,3.17-16.73s1.78-11.1,2.6-16.66,1.6-10.84,2.35-16.27c.53-4.58,1-9.14,1.48-13.73.41-4.31.7-8.63,1-13,.4-5.52.85-11.06,1.16-16.59.35-5.95.54-11.87.53-17.81,0-11.79-.15-23.58-.7-35.36-.28-5.72-.74-11.42-1.11-17.12-.39-5.95-.67-11.9-.9-17.85-.22-5.78-.27-11.55-.33-17.32s-.18-11.58-.3-17.36c-.25-11.83-.21-23.7-1.15-35.5-.45-5.67-.94-11.33-1.45-17-.54-6-1.14-12-1.56-18-.39-5.53-.73-11.08-.8-16.64-.07-5.8.11-11.6.33-17.41.23-6.07.41-12.13.23-18.2-.16-5.51-.77-11-1.45-16.42s-1.66-11.14-2.7-16.69a91.71,91.71,0,0,0-4.67-17.57,27.3,27.3,0,0,0-2.62-4.65,14.42,14.42,0,0,0-1.47-1.51,10.38,10.38,0,0,0-1.22-.71,15.84,15.84,0,0,0-2.57-.62c-3-.29-5.95-.51-8.92-.86s-6-.79-8.94-1.2c-3.52-.45-7-.86-10.56-1.22s-7.18-.84-10.78-1-7.13-.27-10.69-.41-7.24-.35-10.86-.57c-5.82-.35-11.64-.58-17.47-.65s-11.54-.08-17.32-.22c-5.57-.12-11.12-.45-16.66-.8-6.1-.38-12.21-.57-18.31-.64-5.92-.07-11.83.3-17.73.71-5.73.4-11.39,1.37-17.09,2-2.86.33-5.7.65-8.56.9-1.38.12-2.75.25-4.14.31-1.61.08-3.23.23-4.84.24-5.69,0-11.37-.06-17-.18s-11.39-.08-17.09-.06c-6.07,0-12.11-.08-18.17-.28-5.62-.18-11.24-.51-16.83-1-5.91-.54-11.79-1.34-17.69-2a145.23,145.23,0,0,0-17-.81c-5.78,0-11.56.15-17.32.56-6.26.44-12.5,1-18.73,1.57-5.47.5-11,.73-16.46.8-6.37.08-12.73.23-19.08.51-5.59.24-11.19.82-16.75,1.42-5.9.64-11.78,1.38-17.69,1.85s-11.73.59-17.62.63c-4.09,0-8.17,0-12.27,0l-4.88,0a3.37,3.37,0,0,0-3.27-2.78,3.32,3.32,0,0,0-2.34,1,3.24,3.24,0,0,0-.9,1.82c-2.52,0-5,0-7.58.1l1.66-1.61a35.49,35.49,0,0,0,6.37-5.09h0l0,0a3.25,3.25,0,0,0,1-.92l4.83-.11c11.82-.23,23.67-.16,35.47-1.2,5.92-.53,11.81-1.32,17.7-2,5.53-.63,11.08-1.19,16.64-1.48,6.34-.33,12.69-.52,19-.68,5.51-.15,11-.48,16.5-1.07,6.2-.67,12.4-1.31,18.61-1.82,5.81-.5,11.65-.64,17.48-.75a143.29,143.29,0,0,1,17.06.75c5.9.58,11.77,1.32,17.67,1.82,11.58,1,23.22,1.08,34.82.93,5.76-.07,11.52-.11,17.28,0l8.08.13c2.83,0,5.69.13,8.52,0,3.16-.15,6.3-.31,9.43-.57,2.71-.23,5.42-.51,8.11-.85,5.75-.74,11.52-1.59,17.29-2,5.22-.35,10.44-.64,15.67-.64h2q9.26.13,18.5.71c5.52.35,11,.65,16.56.76,5.75.12,11.49.12,17.23.25s11.58.39,17.34.86,11.71.86,17.57,1.27,12,1.28,17.94,2.12c5.34.74,10.64,1.77,16,2.57,3.11.4,6.22.71,9.35,1a26.67,26.67,0,0,1,3.38.47,14.18,14.18,0,0,1,4.84,2.06A17.1,17.1,0,0,1,635,186a34.25,34.25,0,0,1,3.14,6.07A91.4,91.4,0,0,1,643,209.45c1.14,5.65,2.07,11.36,3,17,.51,3.15.9,6.32,1.26,9.48.3,2.69.59,5.4.71,8.1.07,1.54.21,3.1.22,4.64l0,4.84c0,2.85-.06,5.7-.12,8.54-.11,5.84-.22,11.66,0,17.48.18,5.52.53,11.06,1,16.55,1,12,2.4,23.85,3.52,35.79,1.08,11.53,1.19,23.13,1.57,34.69.19,5.78.4,11.54.54,17.32q.2,9.14.61,18.25c.27,5.64.64,11.29,1.08,16.93.46,6,1,11.9,1.33,17.87C658.07,442.68,658.35,448.39,658.43,454.11Z" transform="translate(-97.39 -169.19)"/><path class="cls-2" d="M646.5,472.65c0,5.95-.18,11.87-.53,17.81-.31,5.53-.76,11.07-1.16,16.59-.31,4.32-.61,8.65-1,13-.46,4.59-.94,9.15-1.48,13.73-.75,5.44-1.54,10.85-2.35,16.27s-1.61,11.13-2.6,16.66-2,11.19-3.17,16.73c-1.28,6.11-2.66,12.22-4,18.31-.56,2.47-1.1,4.94-1.67,7.4a.61.61,0,0,0,0,.15,4.82,4.82,0,0,0-1.4-2.89,4.74,4.74,0,0,0-3.46-1.44c-5.34.36-10.69.5-16,.45s-10.61-.07-15.91,0-10.49.28-15.73.38c-4.93.1-9.86,0-14.77,0-10.63-.08-21.24-.41-31.87-.31-10.35.1-20.71.17-31.07.28q-15.86.16-31.72.42c-10.55.17-21.09.33-31.63.74-10.17.4-20.29,1.4-30.44,2.19-5.35.41-10.72.85-16.09,1.09-5.55.27-11.08.41-16.62.47-10.56.12-21.14.13-31.71.16-10.29,0-20.6,0-30.89-.29q-9.21-.29-18.4-.75c-3.25-.17-6.49-.34-9.74-.61-2.87-.24-5.72-.59-8.56-1-5.39-.86-10.76-1.74-16.19-2.35-5.23-.58-10.47-.87-15.74-1.11s-10.35-.3-15.54-.44q-8.34-.24-16.67-.54c-10.11-.36-20.18-1.32-30.31-1.32h-.51c-2.82,0-5.62.1-8.44.21-2.42.1-4.83.33-7.24.52s-4.75.51-7.12.81c-2.68.33-5.34.67-8,1l-3.32.39c-2.16-8.4-4.42-16.78-6.65-25.16-2.41-9.06-4.72-18.14-6.83-27.28-.81-3.51-1.61-7-2.36-10.55s-1.42-7-2.14-10.5c-1.49-7.23-2.64-14.49-3.66-21.81-1-7.73-2-15.45-3.17-23.15s-2.55-15.57-3.68-23.38c0-.06,0-.11,0-.17q-3.52-26.52-4.86-53.25c-.42-9-.64-18-.59-27,0-9.4.15-18.79.21-28.2.12-18.14.18-36.28-.18-54.42-.08-4.17-.23-8.34-.31-12.51a4,4,0,0,0,0-1.6h0c0-1.19,0-2.37,0-3.55l.17-.08a58.37,58.37,0,0,1,7.4-2.22c2.3-.57,4.66-.94,7-1.32,4.76-.76,9.47-1.77,14.23-2.51,3.4-.4,6.82-.69,10.22-1s7-.82,10.46-1.25a102.29,102.29,0,0,0,10.82-1.76,25.7,25.7,0,0,0,4.3-1.47,23.73,23.73,0,0,0,6.05-4,36.92,36.92,0,0,0,5-5.69,42.85,42.85,0,0,0,4.93-8.9A51.07,51.07,0,0,0,192.82,242a128.25,128.25,0,0,0,2.11-21.09c.17-5.52-.28-11-.4-16.55-.07-2.86-.07-5.72,0-8.58s0-6,.11-9a3.64,3.64,0,0,0,0-.52l4.88,0c4.09,0,8.17.06,12.27,0,5.88,0,11.76-.17,17.62-.63s11.79-1.21,17.69-1.85c5.56-.59,11.15-1.17,16.75-1.42,6.36-.28,12.71-.42,19.08-.51,5.49-.07,11-.3,16.46-.8,6.24-.58,12.47-1.14,18.73-1.57,5.75-.41,11.54-.51,17.32-.56a145.23,145.23,0,0,1,17,.81c5.9.63,11.78,1.43,17.69,2,5.59.52,11.21.85,16.83,1,6.07.19,12.11.3,18.17.28,5.69,0,11.39-.06,17.09.06s11.36.22,17,.18c1.61,0,3.23-.16,4.84-.24,1.39-.06,2.76-.19,4.14-.31,2.86-.24,5.7-.57,8.56-.9,5.69-.64,11.36-1.61,17.09-2,5.9-.41,11.81-.79,17.73-.71,6.1.07,12.21.27,18.31.64,5.55.35,11.09.68,16.66.8,5.78.13,11.54.16,17.32.22s11.65.3,17.47.65c3.62.22,7.23.44,10.86.57s7.13.23,10.69.41,7.19.65,10.78,1,7,.77,10.56,1.22c3,.41,5.95.84,8.94,1.2s6,.57,8.92.86a15.84,15.84,0,0,1,2.57.62,10.38,10.38,0,0,1,1.22.71,14.42,14.42,0,0,1,1.47,1.51,27.3,27.3,0,0,1,2.62,4.65,91.71,91.71,0,0,1,4.67,17.57c1,5.55,1.88,11.12,2.7,16.69s1.3,10.91,1.45,16.42c.18,6.07,0,12.13-.23,18.2-.22,5.81-.4,11.61-.33,17.41.07,5.56.41,11.1.8,16.64.42,6,1,12,1.56,18,.51,5.67,1,11.33,1.45,17,.94,11.81.9,23.67,1.15,35.5.12,5.79.25,11.58.3,17.36s.11,11.54.33,17.32c.23,5.95.51,11.9.9,17.85.38,5.7.84,11.41,1.11,17.12C646.35,449.08,646.47,460.86,646.5,472.65Z" transform="translate(-97.39 -169.19)"/><path class="cls-1" d="M628.46,609.26a4.49,4.49,0,0,1,0,.57,4.2,4.2,0,0,1-.12,1A4.76,4.76,0,0,1,628.46,609.26Z" transform="translate(-97.39 -169.19)"/><path class="cls-1" d="M628.46,609.26a4.76,4.76,0,0,0-.08,1.6,4.88,4.88,0,0,1-3.48,3.71l-1.31.18c-4.35.57-8.73,1.05-13.11,1.21-4.18.13-8.35.19-12.53.3-4,.1-8,.21-12,.41s-7.93.47-11.91.5c-10.41.1-20.81-.25-31.22-.5-10.72-.27-21.43-.21-32.14-.23-11,0-21.94,0-32.91,0q-14.49,0-29,0c-5.3,0-10.63-.06-15.93.07s-10.86.33-16.29.61c-10.38.53-20.74,1.19-31.13,1.48-10.69.3-21.4.06-32.09,0-10.36-.06-20.72-.08-31.07-.3q-15.77-.33-31.47-1.44c-5.53-.39-11-.84-16.5-1.65-5.18-.77-10.35-1.74-15.52-2.59-4.35-.56-8.69-1.09-13.08-1.34q-7.27-.44-14.53-.71c-9.6-.4-19.2-.81-28.79-1.42-5.22-.33-10.41-.9-15.62-1.19s-10.34-.54-15.52-.48-10.28.3-15.39.88l-13.2,1.51a3.14,3.14,0,0,0,1-3.14c-.12-.5-.25-1-.38-1.48l3.32-.39c2.69-.31,5.35-.65,8-1,2.37-.3,4.75-.63,7.12-.81s4.82-.42,7.24-.52c2.82-.11,5.62-.21,8.44-.21h.51c10.12,0,20.2,1,30.31,1.32q8.34.31,16.67.54c5.18.13,10.36.19,15.54.44s10.51.53,15.74,1.11c5.42.61,10.8,1.49,16.19,2.35,2.85.36,5.69.71,8.56,1,3.25.27,6.49.44,9.74.61q9.21.47,18.4.75c10.29.33,20.6.31,30.89.29,10.57,0,21.15,0,31.71-.16,5.55-.06,11.08-.21,16.62-.47,5.38-.24,10.74-.68,16.09-1.09,10.15-.79,20.27-1.79,30.44-2.19,10.53-.41,21.08-.57,31.63-.74s21.15-.31,31.72-.42c10.36-.11,20.72-.18,31.07-.28,10.63-.1,21.24.23,31.87.31,4.92,0,9.84.11,14.77,0,5.24-.1,10.49-.3,15.73-.38s10.61,0,15.91,0,10.7-.08,16-.45a4.74,4.74,0,0,1,3.46,1.44A4.82,4.82,0,0,1,628.46,609.26Z" transform="translate(-97.39 -169.19)"/><path class="cls-1" d="M178.47,259.07s0,0,0,0c.44-.54.85-1.1,1.24-1.7.64-.94,1.22-1.9,1.8-2.88a41.35,41.35,0,0,0,2.22-4.54c.39-1,.77-2.08,1.11-3.14.41-1.26.76-2.51,1.09-3.79.53-2.08.86-4.21,1.22-6.32q.45-3.78.75-7.56c.12-1.59.21-3.17.28-4.75.06-1.78.19-3.6.16-5.36-.07-3.54-.25-7.06-.45-10.58s-.3-7.13-.35-10.7.16-7.34.44-11c0-.18,0-.35.06-.52q3.25,0,6.5,0a3.64,3.64,0,0,1,0,.52c-.06,3-.06,6-.11,9s0,5.73,0,8.58c.12,5.51.57,11,.4,16.55A128.25,128.25,0,0,1,192.82,242a51.07,51.07,0,0,1-3.23,10.63,42.85,42.85,0,0,1-4.93,8.9,36.92,36.92,0,0,1-5,5.69,23.73,23.73,0,0,1-6.05,4,25.7,25.7,0,0,1-4.3,1.47,102.29,102.29,0,0,1-10.82,1.76c-3.49.42-7,.9-10.46,1.25s-6.82.64-10.22,1c-4.76.74-9.47,1.74-14.23,2.51-2.34.38-4.7.75-7,1.32a58.37,58.37,0,0,0-7.4,2.22l-.17.08c0-2.2,0-4.38,0-6.57,1.13-.41,2.28-.77,3.43-1.14a100.47,100.47,0,0,1,10.8-2.52c3.39-.64,6.74-1.42,10.13-2,3.58-.68,7.22-1,10.85-1.39,3.44-.33,6.88-.74,10.3-1.16,3.25-.4,6.49-.79,9.72-1.21a34.84,34.84,0,0,0,7-1.65,19.24,19.24,0,0,0,3-1.8A36.13,36.13,0,0,0,178.47,259.07Z" transform="translate(-97.39 -169.19)"/><path class="cls-1" d="M194.56,186.23q-3.25,0-6.5,0a3.24,3.24,0,0,1,.9-1.82,3.32,3.32,0,0,1,2.34-1A3.37,3.37,0,0,1,194.56,186.23Z" transform="translate(-97.39 -169.19)"/><path class="cls-1" d="M189.72,175.17a3.21,3.21,0,0,1-.18,3.5h-.11q-.44.47-.91.94h0c-.92.56-1.79,1.15-2.66,1.78-1.3,1-2.51,2.17-3.71,3.31l-1,.58c-.64.38-1.3.73-1.95,1.07l1.25,0-.86.82-5.29,5c-2.77,2.65-5.49,5.39-8.23,8.08s-5.79,5.62-8.56,8.54c-5.41,5.69-10.64,11.6-15.51,17.76-2.26,3.11-4.52,6.21-6.71,9.37-4.59,6.56-9.2,13.1-13.68,19.74-2.28,3.38-4.76,6.6-7.13,9.9a45.57,45.57,0,0,0-2.91,4.77c-.93,1.72-1.79,3.45-2.62,5.22,0-.71,0-1.43,0-2.14,0-.91,0-1.83,0-2.74-2.24,2.94-4.46,5.88-6.68,8.81l-.85.58a13.73,13.73,0,0,1,.15-3.15,20.08,20.08,0,0,1,1.65-4.89,71.55,71.55,0,0,1,4.6-8.61c1.79-2.83,3.89-5.47,5.84-8.19,1.76-2.45,3.38-5,5-7.5,2.13-3.29,4.3-6.56,6.41-9.87s4.36-6.89,6.56-10.32c1.1-1.7,2.18-3.39,3.28-5.07,1.25-1.91,2.7-3.71,4.1-5.51,2.37-3,4.86-6,7.4-8.94,2.74-3.1,5.55-6.1,8.52-9s6-5.63,9.07-8.42c2.83-2.62,5.75-5.15,8.67-7.65q2.34-2,4.67-4a29.76,29.76,0,0,1,3.58-2.81A29.37,29.37,0,0,1,185.3,174a4.29,4.29,0,0,1,1.71-.44,2.62,2.62,0,0,1,.79.11A3.22,3.22,0,0,1,189.72,175.17Z" transform="translate(-97.39 -169.19)"/><path class="cls-1" d="M189.43,178.67h.11a3.25,3.25,0,0,1-1,.92l0,0Q189,179.14,189.43,178.67Z" transform="translate(-97.39 -169.19)"/><path class="cls-2" d="M188.36,219c0,1.77-.1,3.58-.16,5.36-.07,1.57-.16,3.16-.28,4.75q-.29,3.78-.75,7.56c-.36,2.11-.69,4.24-1.22,6.32-.33,1.28-.68,2.53-1.09,3.79-.34,1.05-.73,2.09-1.11,3.14a41.35,41.35,0,0,1-2.22,4.54c-.58,1-1.16,1.94-1.8,2.88-.39.59-.8,1.15-1.24,1.7,0,0,0,0,0,0a36.13,36.13,0,0,1-4.25,4.25,19.24,19.24,0,0,1-3,1.8,34.84,34.84,0,0,1-7,1.65c-3.23.42-6.48.81-9.72,1.21-3.43.42-6.87.84-10.3,1.16-3.63.35-7.27.71-10.85,1.39-3.39.63-6.74,1.4-10.13,2a100.47,100.47,0,0,0-10.8,2.52c-1.15.36-2.3.73-3.43,1.14,0-.22,0-.45,0-.67.82-1.77,1.68-3.5,2.62-5.22a45.57,45.57,0,0,1,2.91-4.77c2.37-3.31,4.86-6.53,7.13-9.9,4.48-6.64,9.09-13.17,13.68-19.74,2.19-3.16,4.44-6.26,6.71-9.37,4.87-6.16,10.1-12.07,15.51-17.76,2.77-2.92,5.68-5.72,8.56-8.54s5.46-5.42,8.23-8.08l5.29-5,.86-.82c2.53-.06,5.06-.08,7.58-.1,0,.17,0,.34-.06.52-.28,3.64-.5,7.33-.44,11s.17,7.13.35,10.7S188.29,215.48,188.36,219Z" transform="translate(-97.39 -169.19)"/><path class="cls-1" d="M181.18,185.29l1-.58-1.66,1.61-1.25,0C179.89,186,180.54,185.67,181.18,185.29Z" transform="translate(-97.39 -169.19)"/><path class="cls-1" d="M143.66,606.78a3.14,3.14,0,0,1-1,3.14l-3.29.38a3.12,3.12,0,0,1-1.59-1.9c-.23-.76-.46-1.54-.68-2.3a2.62,2.62,0,0,1,.53-.12l5.64-.67C143.4,605.8,143.54,606.28,143.66,606.78Z" transform="translate(-97.39 -169.19)"/><path class="cls-1" d="M114.79,463.47c1.13,7.81,2.46,15.6,3.68,23.38s2.16,15.43,3.17,23.15c1,7.31,2.17,14.58,3.66,21.81.73,3.49,1.4,7,2.14,10.5s1.55,7,2.36,10.55c2.11,9.14,4.42,18.22,6.83,27.28,2.23,8.38,4.49,16.76,6.65,25.16l-5.64.67a2.62,2.62,0,0,0-.53.12c-2.18-7.35-4.29-14.75-6.36-22.13-2.43-8.6-4.78-17.22-6.94-25.89-1.07-4.27-2.17-8.54-3.15-12.83s-1.9-8.79-2.85-13.19c-1.83-8.6-3-17.34-4.15-26-1.07-7.91-2.17-15.8-3.49-23.67-1.47-8.69-2.81-17.39-3.92-26.13-2.32-18.08-3.84-36.24-4.79-54.43-.45-8.69-.57-17.4-.65-26.11q-.15-14.37-.3-28.73c-.11-9.12-.3-18.24-.53-27.37-.23-8.84-.58-17.69-.86-26.53-.06-1.91-.11-3.83-.15-5.75a3.05,3.05,0,0,0,.65.25,3,3,0,0,0,2.35-.31c.17-.12.33-.24.5-.35.06.41.13.84.21,1.25a3.29,3.29,0,0,0,6,.79A2.83,2.83,0,0,0,109,288c.08,4.17.23,8.34.31,12.51.36,18.14.3,36.28.18,54.42-.06,9.41-.16,18.8-.21,28.2,0,9,.17,18,.59,27q1.29,26.72,4.86,53.25C114.78,463.37,114.78,463.41,114.79,463.47Z" transform="translate(-97.39 -169.19)"/><path class="cls-1" d="M139.37,610.29l3.29-.38a2.86,2.86,0,0,1-1.14.61A2.93,2.93,0,0,1,139.37,610.29Z" transform="translate(-97.39 -169.19)"/><path class="cls-1" d="M139.37,610.29l-1.73.19a2.25,2.25,0,0,1-2.26-2.25,2.18,2.18,0,0,1,1.73-2.14c.22.76.45,1.54.68,2.3A3.12,3.12,0,0,0,139.37,610.29Z" transform="translate(-97.39 -169.19)"/><path class="cls-1" d="M109,286.38a4,4,0,0,1,0,1.6c0-.21,0-.41,0-.62S109,286.7,109,286.38Z" transform="translate(-97.39 -169.19)"/><path class="cls-1" d="M109.05,270.7c0,.91,0,1.83,0,2.74,0,.71,0,1.43,0,2.14l0,.08q-.15.35-.25.69a29.93,29.93,0,0,0-4.27,1.91c-.7.39-1.38.8-2,1.25C104.6,276.58,106.81,273.64,109.05,270.7Z" transform="translate(-97.39 -169.19)"/><path class="cls-1" d="M109,287.36c0,.21,0,.41,0,.62a2.83,2.83,0,0,1-.35.93,3.29,3.29,0,0,1-6-.79c-.07-.41-.15-.84-.21-1.25a44.92,44.92,0,0,1,6-3.8c.17,1.1.35,2.2.56,3.29h0C109,286.7,109,287,109,287.36Z" transform="translate(-97.39 -169.19)"/><path class="cls-1" d="M108.94,275.66l0-.08c0,.22,0,.45,0,.67l-.28.11Q108.8,276,108.94,275.66Z" transform="translate(-97.39 -169.19)"/><path class="cls-1" d="M109,276.24c0,2.19,0,4.37,0,6.57a5.15,5.15,0,0,0-.52.25l0-.21a23.26,23.26,0,0,1-.28-4.59,15.21,15.21,0,0,1,.56-1.93Z" transform="translate(-97.39 -169.19)"/><path class="cls-1" d="M109,282.82c0,1.17,0,2.36,0,3.55-.21-1.09-.39-2.19-.56-3.29A5.15,5.15,0,0,1,109,282.82Z" transform="translate(-97.39 -169.19)"/><path class="cls-1" d="M108.41,282.86l0,.21a44.92,44.92,0,0,0-6,3.8c-.3-1.68-.56-3.38-.77-5.07,0-.41-.1-.81-.13-1.21.28-.35.54-.71.81-1.08.67-.45,1.34-.86,2-1.25a29.93,29.93,0,0,1,4.27-1.91,15.21,15.21,0,0,0-.56,1.93A23.26,23.26,0,0,0,108.41,282.86Z" transform="translate(-97.39 -169.19)"/><path class="cls-1" d="M102.47,286.87c-.17.11-.33.23-.5.35a3,3,0,0,1-2.35.31,3.05,3.05,0,0,1-.65-.25h0c0-1.07,0-2.14,0-3.21.88-1.15,1.77-2.31,2.64-3.48,0,.4.08.8.13,1.21C101.91,283.49,102.16,285.19,102.47,286.87Z" transform="translate(-97.39 -169.19)"/><path class="cls-1" d="M102.37,279.51c-.27.36-.53.73-.81,1.08l0-.5Z" transform="translate(-97.39 -169.19)"/><path class="cls-1" d="M101.56,280.59c-.87,1.16-1.76,2.32-2.64,3.48,0,1.07,0,2.14,0,3.21a2.84,2.84,0,0,1-1.16-1.14,3.1,3.1,0,0,1-.31-2.34,3.31,3.31,0,0,1,1.4-1.83c.87-.62,1.73-1.26,2.63-1.88Z" transform="translate(-97.39 -169.19)"/><rect class="cls-3" x="85.65" y="361.15" width="79.34" height="37.54"/><rect class="cls-3" x="192.61" y="361.15" width="79.34" height="37.54"/><rect class="cls-3" x="406.53" y="361.15" width="79.34" height="37.54"/><rect class="cls-3" x="299.57" y="361.15" width="79.34" height="37.54"/><rect class="cls-3" x="85.65" y="301.82" width="79.34" height="37.54"/><rect class="cls-3" x="192.61" y="301.82" width="79.34" height="37.54"/><rect class="cls-3" x="406.53" y="301.82" width="79.34" height="37.54"/><rect class="cls-3" x="299.57" y="301.82" width="79.34" height="37.54"/><rect class="cls-3" x="85.65" y="241.27" width="79.34" height="37.54"/><rect class="cls-3" x="192.61" y="241.27" width="79.34" height="37.54"/><rect class="cls-3" x="406.53" y="241.27" width="79.34" height="37.54"/><rect class="cls-3" x="299.57" y="241.27" width="79.34" height="37.54"/><rect class="cls-3" x="85.65" y="183.07" width="79.34" height="37.54"/><rect class="cls-3" x="192.61" y="183.07" width="79.34" height="37.54"/><rect class="cls-3" x="406.53" y="183.07" width="79.34" height="37.54"/><rect class="cls-3" x="299.57" y="183.07" width="79.34" height="37.54"/><rect class="cls-3" x="85.65" y="123.82" width="79.34" height="37.54"/><rect class="cls-3" x="192.61" y="123.82" width="79.34" height="37.54"/><rect class="cls-3" x="406.53" y="123.82" width="79.34" height="37.54"/><rect class="cls-3" x="299.57" y="123.82" width="79.34" height="37.54"/><rect class="cls-3" x="192.61" y="63.93" width="79.34" height="37.54"/><rect class="cls-3" x="406.53" y="63.93" width="79.34" height="37.54"/><rect class="cls-3" x="299.57" y="63.93" width="79.34" height="37.54"/><path class="cls-4" d="M767.7,602a160.84,160.84,0,0,0,11.15-41.1,178.45,178.45,0,0,0,0-44.38,167.62,167.62,0,0,0-11-40.78,178.57,178.57,0,0,0-22.06-37.63,168.35,168.35,0,0,0-67.17-51.86,171.33,171.33,0,0,0-41.28-11.31,174.6,174.6,0,0,0-44,0A177.54,177.54,0,0,0,550,386.8a199.09,199.09,0,0,0-29.41,15.68,4.88,4.88,0,0,1-3.54.67c-.77.57-1.56,1.16-2.32,1.74a179.31,179.31,0,0,0-30.91,31,175,175,0,0,0-21.77,37.22l-.07.16a166.7,166.7,0,0,0,0,129.06,165.62,165.62,0,0,0,88.34,88.5,171.71,171.71,0,0,0,41.77,11.32,166.73,166.73,0,0,0,87-11.75,177.44,177.44,0,0,0,18.68-9.26,171.45,171.45,0,0,0,18.05-12,177.81,177.81,0,0,0,30.6-30.63A172.59,172.59,0,0,0,767.6,602.2C767.63,602.12,767.66,602,767.7,602Zm23.67-70.65a177.87,177.87,0,0,1-44.29,123.43,177.7,177.7,0,0,1-73.78,49.69,176.94,176.94,0,0,1-43.46,9,175,175,0,0,1-86.55-15.29,178.29,178.29,0,0,1-68.75-55.42,173.66,173.66,0,0,1-33.33-83.83,176.29,176.29,0,0,1,.42-44.61,173.59,173.59,0,0,1,64-112.08l.79-.62c2-1.59,4.08-3.12,6.18-4.63,0-.17.07-.34.12-.51a5.31,5.31,0,0,1,1.38-2.36c.36-.28.73-.56,1.08-.85,3.21-2.36,6.49-4.61,9.87-6.72A149.62,149.62,0,0,1,544.92,376,171.08,171.08,0,0,1,567,368a177.71,177.71,0,0,1,44.47-6.59c1.2,0,2.39,0,3.57,0a168.44,168.44,0,0,1,19.46,1.09,184.47,184.47,0,0,1,23,4,171,171,0,0,1,21.78,6.88,182.63,182.63,0,0,1,20.86,9.61,175.41,175.41,0,0,1,36.29,26.36,171.26,171.26,0,0,1,15.39,16.53,175.59,175.59,0,0,1,13.65,19.12A178.61,178.61,0,0,1,784,486.74,174.32,174.32,0,0,1,789.09,509,186.93,186.93,0,0,1,791.37,531.31Z" transform="translate(-97.39 -169.19)"/><path class="cls-2" d="M778.83,516.49a178.45,178.45,0,0,1,0,44.38A160.84,160.84,0,0,1,767.7,602c0,.07-.06.16-.1.23a172.59,172.59,0,0,1-21.13,36.29,177.81,177.81,0,0,1-30.6,30.63,171.45,171.45,0,0,1-18.05,12,169.24,169.24,0,0,1-61.54,21,175,175,0,0,1-44.16,0,171.71,171.71,0,0,1-41.77-11.32A165.94,165.94,0,0,1,450.53,560.3a166.64,166.64,0,0,1,11.47-87l.07-.16a175,175,0,0,1,21.77-37.22,179.31,179.31,0,0,1,30.91-31c.76-.58,1.55-1.17,2.32-1.74a4.88,4.88,0,0,0,3.54-.67A199.09,199.09,0,0,1,550,386.8a177.54,177.54,0,0,1,43.25-11.88,174.6,174.6,0,0,1,44,0,171.33,171.33,0,0,1,41.28,11.31,168.35,168.35,0,0,1,67.17,51.86,178.57,178.57,0,0,1,22.06,37.63A167.62,167.62,0,0,1,778.83,516.49ZM695.58,618.23a24,24,0,0,0,.46-3.09,22.43,22.43,0,0,0-.54-4.12,21.34,21.34,0,0,0-1.1-2.75c-.44-1-.9-1.85-1.42-2.76-1-1.67-2.14-3.23-3.25-4.82a84.9,84.9,0,0,0-6.7-8.32,68.35,68.35,0,0,0-9.74-8.57A47.48,47.48,0,0,0,662,577.61a61.22,61.22,0,0,0-11.62-3.29,99.88,99.88,0,0,0-17.63-1.5q-3.69,0-7.36.23a138,138,0,0,0-25,4,159,159,0,0,0-23.65,8.25,178.69,178.69,0,0,0-21.58,11.22,71.84,71.84,0,0,0-9.67,6.94,24.17,24.17,0,0,0-3.62,3.92,15.75,15.75,0,0,0-2.69,5,5.78,5.78,0,0,0,11.1,3.18c.31-.56.64-1.1,1-1.62a33,33,0,0,1,3.56-3.32,106.58,106.58,0,0,1,11.65-7.22,158.81,158.81,0,0,1,14.69-7.24A138.72,138.72,0,0,1,613.88,587a110.78,110.78,0,0,1,27.23-.22,67,67,0,0,1,14.24,3.64,48.54,48.54,0,0,1,8.55,5c1.51,1.25,3,2.53,4.4,3.9a52.27,52.27,0,0,1,4.33,4.9,60.65,60.65,0,0,1,5.84,9.76c.16.42.29.86.42,1.3l-.11.74a8.55,8.55,0,0,0,12.86,7.39A8.39,8.39,0,0,0,695.58,618.23ZM679.06,444.68a4.56,4.56,0,1,0-9.13,0c-.45,11.89-.91,23.79-1.21,35.68-.28,10.43-.63,20.85-.76,31.29,0,.28,0,.57,0,.85a4.44,4.44,0,0,0,8.88,0q.87-33.46,2.2-66.92Zm-114,35.38c.07-3.81,0-7.64,0-11.45q0-9.26-.12-18.51a5.26,5.26,0,0,0-10.52,0q.11,9.52.12,19c0,4,0,8,0,12-.1,4.58-.17,9.14-.3,13.72-.07,2.18-.15,4.36-.19,6.55l-.11,4.06a15.72,15.72,0,0,0,.11,3.69,5.85,5.85,0,0,0,2,3.49,5,5,0,0,0,2.19,1.28,4.94,4.94,0,0,0,3.81-.5,9.71,9.71,0,0,0,1.71-1.34,4.89,4.89,0,0,0,.75-5.82,3.79,3.79,0,0,0-.24-.36c.41-4.23.4-8.51.52-12.75S565,484.43,565.11,480.06Z" transform="translate(-97.39 -169.19)"/><path class="cls-4" d="M696,615.14a24,24,0,0,1-.46,3.09,8.39,8.39,0,0,1-3.94,5.11,8.63,8.63,0,0,1-6.59.86,8.56,8.56,0,0,1-6.27-8.25l.11-.74c-.13-.44-.27-.87-.42-1.3a60.65,60.65,0,0,0-5.84-9.76,52.27,52.27,0,0,0-4.33-4.9c-1.42-1.37-2.88-2.65-4.4-3.9a48.54,48.54,0,0,0-8.55-5,67,67,0,0,0-14.24-3.64,110.78,110.78,0,0,0-27.23.22,138.72,138.72,0,0,0-32.77,9.21,158.81,158.81,0,0,0-14.69,7.24,106.58,106.58,0,0,0-11.65,7.22,33,33,0,0,0-3.56,3.32c-.36.52-.69,1.07-1,1.62a5.78,5.78,0,0,1-11.1-3.18,15.75,15.75,0,0,1,2.69-5,24.17,24.17,0,0,1,3.62-3.92,71.84,71.84,0,0,1,9.67-6.94,178.69,178.69,0,0,1,21.58-11.22A159,159,0,0,1,600.32,577a138,138,0,0,1,25-4q3.67-.24,7.36-.23a99.88,99.88,0,0,1,17.63,1.5A61.22,61.22,0,0,1,662,577.61a47.48,47.48,0,0,1,11.33,6.19,68.35,68.35,0,0,1,9.74,8.57,84.9,84.9,0,0,1,6.7,8.32c1.1,1.59,2.28,3.15,3.25,4.82.52.91,1,1.8,1.42,2.76a21.34,21.34,0,0,1,1.1,2.75A22.43,22.43,0,0,1,696,615.14Z" transform="translate(-97.39 -169.19)"/><path class="cls-4" d="M674.5,440.11a4.59,4.59,0,0,1,4.56,4.56l0,.9q-1.29,33.46-2.2,66.92a4.44,4.44,0,0,1-8.88,0c0-.28,0-.57,0-.85.13-10.44.48-20.86.76-31.29.3-11.89.76-23.79,1.21-35.68A4.62,4.62,0,0,1,674.5,440.11Z" transform="translate(-97.39 -169.19)"/><path class="cls-4" d="M565.11,468.6c0,3.81.07,7.64,0,11.45-.07,4.37-.11,8.73-.25,13.09s-.11,8.52-.52,12.75a3.79,3.79,0,0,1,.24.36,4.89,4.89,0,0,1-.75,5.82,9.71,9.71,0,0,1-1.71,1.34,4.94,4.94,0,0,1-3.81.5,5,5,0,0,1-2.19-1.28,5.85,5.85,0,0,1-2-3.49,15.72,15.72,0,0,1-.11-3.69l.11-4.06c0-2.19.12-4.37.19-6.55.13-4.58.21-9.14.3-13.72.07-4,0-8,0-12q0-9.5-.12-19a5.26,5.26,0,0,1,10.52,0Q565.08,459.35,565.11,468.6Zm-.84,39.89c0-.23-.06-.45-.08-.67A3.24,3.24,0,0,0,564.27,508.49Z" transform="translate(-97.39 -169.19)"/></svg>