<?xml version="1.0" encoding="UTF-8"?>
<svg fill="#272C31" width="100pt" height="100pt" version="1.1" viewBox="0 0 100 100" xmlns="http://www.w3.org/2000/svg">
 <g>
  <path d="m44.461 31.848c2.9219-3.6914 8.1523-4.9219 12.461-2.7695 1.6914 0.92188 3.0781 2.1523 4 3.6914l-6 2 14.77 11.691 5.2305-18.152-5.2305 1.6914c-1.8477-3.8477-4.7695-6.9219-8.6172-8.9219-8.1523-4.1523-18.152-2-23.691 5.2305l-0.76953 0.92188 7.0781 5.3828zm24 10.613l-8.6172-6.9219 11.691-3.8477zm-28.461-15.691c5.0781-5.5391 13.23-7.2305 20-3.6914 3.2305 1.6914 5.8477 4.3086 7.3828 7.5391l-4.3086 1.3828c-1.2305-2.1523-2.9219-4-5.0781-5.0781-4.9219-2.4609-10.922-1.3828-14.617 2.4609z"/>
  <path d="m67.691 49.539l0.76953-0.92187-7.0781-5.5391-0.76953 0.92188c-2.9219 3.6914-8.1523 4.9219-12.461 2.7695-1.6914-0.92188-3.0781-2.1523-4-3.6914l6-2-14.77-11.695-5.2305 18.152 5.2305-1.6914c1.8477 3.8477 4.7695 6.9219 8.6172 8.9219 2.7695 1.3828 5.6914 2.1523 8.6172 2.1523 5.8438-0.14844 11.383-2.7656 15.074-7.3789zm-30.922-16.156l8.6172 6.9219-11.691 3.8477zm8.3086 19.234c-3.2305-1.6914-5.8477-4.3086-7.3828-7.5391l4.3086-1.3828c1.2305 2.1523 2.9219 4 5.0781 5.0781 4.9219 2.4609 10.922 1.3828 14.617-2.4609l3.5391 2.6172c-5.0859 5.6875-13.391 7.2227-20.16 3.6875z"/>
  <path d="m85.691 82.922v-2.3047h-14.77v-10l3.3867 3.2305 1.5391-1.6953-6.1562-5.8438-6.1523 5.8438 1.5391 1.6953 3.5391-3.2305v12.305z"/>
  <path d="m90.617 86.461l3.3828 3.3828-35.539 0.003906v-22.77c4.9219-1.5391 7.3828-4.9219 8.4609-6.7695 3.3828 2 7.2305 2.9219 11.078 2.9219 12.309 0 22.461-10 22.461-22.461 0-12.309-10-22.461-22.461-22.461-1.3828 0-3.5391 0.30859-4.9219 0.61719-2.6172-9.3867-11.539-16.156-21.539-16.156-9.6914 0-18.152 6.3086-21.23 15.383-1.5391-0.46094-3.0781-0.76953-4.6172-0.76953-11.539 0-14 10.152-14.461 13.23-6.7695 1.8477-11.539 8-11.539 15.078 0 8.6172 6.9219 15.539 15.539 15.539 2 0 3.8477-0.30859 5.6914-1.0781 2.4609 2.7695 6 4.4609 9.8477 4.4609 3.2305 0 6.1523-1.0781 8.6172-3.2305 0.46094 0.61719 1.2305 1.5391 2.3086 2.4609v26.309h-35.695l3.3828-3.3828-1.6914-2-6.1523 6.3086 6.1523 6.1523 1.6914-1.6914-3.3828-3.3828h38v-26.926c2.3086 1.3828 5.2305 2.6172 8.7695 2.6172 1.2305 0 2.3086-0.15234 3.3828-0.30859v24.617h38l-3.3828 3.3828 1.6914 1.6914 6.3086-6.3086-6.4609-6.1523zm-50.156-27.691l-0.76953-1.2305-1.0781 1.0781c-2.1523 2.1523-4.9219 3.3828-8 3.3828-4.9219 0-9.2305-3.2305-10.617-8l-2.1523 0.61719c0.30859 1.2305 0.92188 2.3086 1.5391 3.3828-1.3828 0.46094-2.7695 0.61719-4.1523 0.61719-7.2305 0-13.23-6-13.23-13.23 0-6.3086 4.4609-11.691 10.617-12.922l0.76562-0.15625v-0.92188c0-0.46094 0.92188-11.848 12.309-11.848 1.3828 0 2.7695 0.30859 4 0.61719-0.30859 1.5391-0.46094 3.2305-0.46094 4.9219h2.3086c0-1.8477 0.15234-3.5391 0.61719-5.2305 2.3086-8.7695 10.309-14.922 19.383-14.922 9.3828 0 17.539 6.6172 19.539 15.691l0.30859 1.0781 1.0781-0.30859s3.6914-0.76953 5.5391-0.76953c11.078 0 20.152 9.0781 20.152 20.152 0 11.078-9.0781 20.152-20.152 20.152-3.8477 0-7.6914-1.0781-10.922-3.2305l-1.2344-0.76953-0.46094 1.3828c-0.15234 0.30859-2.9219 7.2305-12.617 7.2305-8 0.003906-12.309-6.6133-12.309-6.7656z"/>
  <path d="m14.309 80.617v2.3047h17.074v-12.305l3.5391 3.2305 1.5391-1.6953-6.1523-5.8438-6.1562 5.8438 1.5391 1.6953 3.3867-3.2305v10z"/>
 </g>
</svg>
