<svg xmlns="http://www.w3.org/2000/svg" viewBox="0 0 693.19 501.06"><defs><style>.cls-1{fill:#fff;}.cls-2{fill:#7f7f7f;}.cls-3{fill:#fff7a9;}</style></defs><title>quick_document_review</title><g id="Layer_7" data-name="Layer 7"><path class="cls-1" d="M495.44,670.11c.11,8,.2,16,.33,24-6.49,0-13,.12-19.47.18l-23.55.25q-23.86.24-47.72.53c-15.66.19-31.32.3-47,.45s-31.36.33-47,.47-31.59.36-47.37.46l-47.06.31q-24.26.15-48.52.34-23.38.15-46.78.17l-15.76,0H98.24c-1.75,0-3.51,0-5.26-.07,0-.91,0-1.82,0-2.73,0-1.86,0-3.72,0-5.58,0-3.85,0-7.7,0-11.55,0-7.67-.08-15.34-.09-23q-.06-22.91-.15-45.81-.23-47.88-.72-95.77-.32-31.23-.73-62.47a2.71,2.71,0,0,0,0-.4c.07-7.82.11-15.64.07-23.45s-.07-15.7-.12-23.55l-.33-48-.27-41.59c1.5-2.84,3.32-5.5,5.08-8.19,1.45-2.23,3-4.4,4.53-6.59,2.75-4,5.54-7.89,8.3-11.84,2.9-4.17,5.79-8.35,8.8-12.44s6.24-8.27,9.29-12.46q2.48-3.4,4.93-6.82,2.58-3.59,5.23-7.13c1.58-2,3.16-4,4.79-5.92,1.51-1.81,3.05-3.61,4.58-5.4,3.41-4,6.81-8,10.12-12.07q3.22-4,6.16-8.12c.84-1.18,1.65-2.38,2.5-3.55.36-.5.73-1,1.11-1.51l12.13,0q23.49,0,47-.06c15.95,0,31.88-.1,47.82-.14,15.75,0,31.5-.07,47.26-.19s31.36-.25,47-.39q23.26-.21,46.52-.5c15.76-.21,31.52-.5,47.28-.67,5.77-.06,11.54-.09,17.31-.14l8.58-.07c1.88,0,3.76,0,5.64,0q.17,46.45.28,92.89.1,48.14.29,96.24.24,47.88.46,95.75.29,47.72.74,95.45.24,27,.68,54C495.14,652.27,495.32,661.19,495.44,670.11Z" transform="translate(-83.14 -200.82)"/><path class="cls-2" d="M172.08,203.9a1.25,1.25,0,0,1-.18.24c-1.5,1.63-2.92,3.31-4.32,5L166,211.25h-5l1.41-2.5.44-.57q1.77-2.2,3.73-4.24Z" transform="translate(-83.14 -200.82)"/><path class="cls-2" d="M171.9,201.38a2,2,0,0,1,.18,2.52l-5.45.05c.81-.87,1.65-1.72,2.51-2.57a2,2,0,0,1,1.39-.56A1.94,1.94,0,0,1,171.9,201.38Z" transform="translate(-83.14 -200.82)"/><path class="cls-2" d="M165.67,204h1q-2,2-3.73,4.24l-.44.57c.89-1.59,1.77-3.18,2.64-4.79Z" transform="translate(-83.14 -200.82)"/><path class="cls-2" d="M90.61,313.29l.27,41.59.33,48q.08,11.78.12,23.55c0,7.81,0,15.63-.07,23.45a2.71,2.71,0,0,1,0,.4q.44,31.25.73,62.47.47,47.88.72,95.77.1,22.9.15,45.81c0,7.66.06,15.33.09,23,0,3.85,0,7.7,0,11.55,0,1.86,0,3.72,0,5.58,0,.91,0,1.82,0,2.73,1.75,0,3.51.07,5.26.07h7.28l15.76,0q23.4,0,46.78-.17,24.26-.17,48.52-.34l47.06-.31c15.78-.1,31.57-.31,47.37-.46s31.36-.31,47-.47,31.32-.26,47-.45q23.86-.27,47.72-.53l23.55-.25c6.49-.06,13-.15,19.47-.18-.13-8-.22-16-.33-24-.12-8.92-.3-17.84-.43-26.77q-.42-27-.68-54-.42-47.72-.74-95.45t-.46-95.75q-.26-48.12-.29-96.24-.09-46.44-.28-92.89c-1.88,0-3.76,0-5.64,0l-8.58.07c-5.77,0-11.54.08-17.31.14-15.76.17-31.52.46-47.28.67q-23.26.3-46.52.5-23.51.21-47,.39c-15.76.12-31.51.14-47.26.19-15.94,0-31.87.12-47.82.14q-23.48,0-47,.06l-12.13,0,1.55-2.07c1.4-1.73,2.82-3.41,4.32-5a1.25,1.25,0,0,0,.18-.24q20.39-.19,40.79-.43,47.52-.53,95.05-.87c15.68-.13,31.37-.16,47.05-.21s31.25-.09,46.87-.11,31.26.07,46.9.1q11.93,0,23.86,0l12.44,0c2.12,0,4.25-.05,6.37-.05,1.48,0,3,0,4.44.07a3.35,3.35,0,0,1,3.3,3.31q.48,54.83,1,109.67.25,24.38.48,48.75.19,23.82.36,47.64.36,47.94.67,95.88.24,47.61.36,95.22,0,23.57-.07,47.14c0,7.93-.08,15.86-.09,23.79,0,7.78,0,15.56-.06,23.35a3,3,0,0,1-3,3c-10.33.11-20.66.08-31,.1q-94.29.15-188.56.34c-32,.11-64,.33-95.94.49-15.71.07-31.43.14-47.14.31l-23.25.24-12,.12c-1.79,0-3.58,0-5.37.06l-5,.18a2.3,2.3,0,0,1-1.68-.69,2.54,2.54,0,0,1-.69-1.67c-.09-1.1-.08-2.2-.1-3.3l0-2.68c-.17-15.1-.24-30.19-.39-45.29-.14-15.43-.3-30.85-.39-46.28Q87,554,86.86,506q-.06-27.84,0-55.69a3.25,3.25,0,0,1-.06-.45q-.25-12.21-.36-24.4T86.28,401q-.19-39.58-.43-79.14h.05a2.76,2.76,0,0,0,1.94-.8,2.92,2.92,0,0,0,.8-1.94c0-.35.08-.7.13-1a12.09,12.09,0,0,1,.71-2.5C89.83,314.81,90.2,314,90.61,313.29Z" transform="translate(-83.14 -200.82)"/><path class="cls-2" d="M88.77,318.1c0,.34-.09.69-.13,1a2.92,2.92,0,0,1-.8,1.94,2.76,2.76,0,0,1-1.94.8h-.05c0-1.46,0-2.93,0-4.39,1.57-2.15,3.17-4.29,4.77-6.42,0,.74,0,1.48,0,2.22-.41.76-.78,1.52-1.13,2.31A12.09,12.09,0,0,0,88.77,318.1Z" transform="translate(-83.14 -200.82)"/><path class="cls-2" d="M85.83,317.49c0,1.46,0,2.93,0,4.39a2.73,2.73,0,0,1-1.89-.8,2.65,2.65,0,0,1-.81-1.94,17.4,17.4,0,0,1,.95-4.8,35.45,35.45,0,0,1,2.11-4.5c.94-1.67,2-3.28,3-4.88,1.35-2,2.74-4.06,4.14-6.08,2.48-3.57,5.06-7.08,7.59-10.61,2.86-4,5.66-8,8.53-12q4.67-6.44,9.48-12.75c3-4,6-8,8.89-12.1,1.54-2.14,3.12-4.26,4.7-6.38,1-1.28,2-2.52,3-3.77.75-.93,1.52-1.83,2.28-2.75,6.44-7.68,13.28-15,19.47-22.89l.2-.27c1.63-2.21,3.23-4.44,4.94-6.6l-1.41,2.5h5c-.38.5-.75,1-1.11,1.51-.85,1.17-1.66,2.37-2.5,3.55q-2.94,4.17-6.16,8.12c-3.31,4.07-6.71,8.08-10.12,12.07-1.53,1.79-3.07,3.59-4.58,5.4-1.63,2-3.21,3.93-4.79,5.92q-2.64,3.56-5.23,7.13-2.46,3.42-4.93,6.82c-3.05,4.19-6.22,8.29-9.29,12.46s-5.9,8.27-8.8,12.44c-2.76,4-5.55,7.88-8.3,11.84-1.52,2.19-3.08,4.36-4.53,6.59-1.76,2.69-3.58,5.35-5.08,8.19,0-.74,0-1.48,0-2.22C89,313.2,87.4,315.34,85.83,317.49Z" transform="translate(-83.14 -200.82)"/><path class="cls-2" d="M396.72,295.1c-8.44.06-16.87.15-25.31.32s-16.94.16-25.41.25c-8.29.1-16.55.4-24.83.79-2.36.11-4.72.17-7.07.32-2.62.16-5.23.37-7.86.61-1.4.13-2.79.36-4.18.54-1.61.21-3.2.49-4.79.76-3.11.53-6.21,1.18-9.33,1.65a30,30,0,0,1-5.74.16,46,46,0,0,1-7.89-2.2,28.88,28.88,0,0,0-10.72-1.74,47.4,47.4,0,0,0-6.29.76c-1.23.2-2.45.46-3.66.76-1.45.36-2.89.7-4.33,1.09-3.07.84-6.15,1.63-9.24,2.41-1.49.38-3,.61-4.54.91-1.32.26-2.66.44-4,.64a62.29,62.29,0,0,1-9,.66,49.06,49.06,0,0,1-5.31-.49c-4.08-.67-8.12-1.49-12.13-2.51-3.3-.84-6.64-1.74-10.09-1.41a34.24,34.24,0,0,0-6.4,1.42L184,302.14a2.81,2.81,0,1,0,1.5,5.43,79.93,79.93,0,0,1,9.31-2.52,16.1,16.1,0,0,1,2.95,0,63,63,0,0,1,7.46,2c1.8.54,3.64,1,5.48,1.45,2.07.46,4.13.91,6.22,1.25a46.64,46.64,0,0,0,9.95.65c2.49-.13,5-.46,7.45-.81,2.28-.33,4.52-.71,6.79-1.13,3.84-.71,7.58-1.89,11.39-2.76,2.33-.53,4.64-1.06,7-1.43a32.67,32.67,0,0,1,7-.2,26.16,26.16,0,0,1,5.36,1.55l2.72,1.11a29.7,29.7,0,0,0,7.34,1.86,31.64,31.64,0,0,0,8.26-.24c4-.55,8.05-1.27,12.08-1.89,1.84-.21,3.67-.42,5.52-.56,2.15-.16,4.29-.28,6.45-.37,4.14-.19,8.29-.2,12.44-.3,8.3-.19,16.61-.19,24.91-.16l12.75,0c4.1,0,8.2-.09,12.3-.14,8.3-.11,16.61-.07,24.91-.06H405a123.6,123.6,0,0,1,16.88.68,4.4,4.4,0,0,0,2.23-.61,4.42,4.42,0,0,0-1.06-8.08,75.68,75.68,0,0,0-7.65-1.27,52.27,52.27,0,0,0-5.85-.46q-3.8,0-7.61,0l-5.24,0Z" transform="translate(-83.14 -200.82)"/><path class="cls-2" d="M420.85,358.64c-2.92.1-5.83.21-8.74.38s-5.62.37-8.43.56c-5.31.35-10.57,1.18-15.83,2-1.71.18-3.41.38-5.12.45-2.18.1-4.34.13-6.52.14q-5.62,0-11.24.17c-.93,0-1.86.11-2.78.16s-1.87.09-2.81.16l-5.57.46-6.34.52c-2.18.18-4.37.24-6.56.36-1.11.06-2.23.05-3.35,0h-1.39c-1.59,0-3.15,0-4.73-.09-1.84-.11-3.69-.14-5.52-.34l-5.67-.62c-2.43-.34-4.86-.69-7.27-1.12-2.78-.5-5.53-1.12-8.28-1.77a52.54,52.54,0,0,0-9-1.36,64.34,64.34,0,0,0-12.28.86c-3.22.43-6.43.95-9.64,1.44-2.53.33-5.05.65-7.6.81-1.41.09-2.82.11-4.23.11s-2.84,0-4.25-.08l-6.8-.47c-1.87-.13-3.73-.31-5.59-.47s-3.91-.26-5.87-.38c-3.78-.23-7.58-.23-11.37-.29-1.86,0-3.71-.1-5.56-.1s-3.71-.07-5.56,0c-3.53.16-7.06.33-10.56.81q-4.77.65-9.53,1.34-3,.37-6.09.61a34,34,0,0,1-6.32-.08,8.78,8.78,0,0,1-1-.26l-.09-.17a1.73,1.73,0,0,1,0-.32,2.51,2.51,0,0,0-4.59-.6,2.7,2.7,0,0,0-.25,1.93,5.38,5.38,0,0,0,1.66,2.95,6.81,6.81,0,0,0,3.81,1.44,32.7,32.7,0,0,0,4.24.3c1.52,0,3.05-.16,4.57-.27,3.33-.24,6.64-.79,9.93-1.25h0c3.47-.46,7-1,10.46-1.08,2-.07,4-.15,5.94-.12s4,.07,5.94.14c4.07.14,8.13.3,12.19.52s8,.66,12,1.1a131.37,131.37,0,0,0,14.92.91,94.26,94.26,0,0,0,12.36-1.09l6-.82c2.65-.32,5.3-.63,8-.77a43.11,43.11,0,0,1,7.26.21c2.58.4,5.06,1.13,7.59,1.78l3.3.85c.95.24,1.93.4,2.88.6,4.1.85,8.23,1.45,12.38,2,1.87.25,3.72.43,5.6.57s3.6.29,5.42.32,3.95.15,5.91.08l6.72-.24c2.08-.07,4.16-.25,6.24-.37l5.61-.32c3.73-.21,7.48-.18,11.21-.16,4,0,7.91.29,11.88.24a100.42,100.42,0,0,0,11.25-1c2.06-.25,4.13-.53,6.2-.69q3.59-.28,7.18-.5c4.63-.3,9.24-.93,13.85-1.5l1.14-.16a4.25,4.25,0,0,0,1.89-1.1,4.29,4.29,0,0,0-2.9-7.32Zm-237.51,3.77,0,.11h0l0-.1Zm.06.17,0,0,.09.22a1.8,1.8,0,0,1-.12-.24Zm.24.29.09.12-.09-.12ZM283.1,366l-.44.06.44-.06Z" transform="translate(-83.14 -200.82)"/><path class="cls-2" d="M414.2,423.41c-2.54,1-5.1,1.88-7.68,2.69a87.94,87.94,0,0,1-13.7,3.59c-2.54.29-5.08.36-7.63.44-.66,0-1.33,0-2,0-.91,0-1.82,0-2.73-.07-3.63-.21-7.24-.47-10.85-.89-1.86-.22-3.71-.45-5.57-.69-1.52-.19-3.05-.39-4.58-.51-1.87-.14-3.73-.29-5.59-.37-1.61-.07-3.23-.13-4.85-.21-3.67-.19-7.34-.39-11-.56-3.25-.15-6.5-.23-9.75-.41-3.61-.2-7.2-.51-10.79-.94-1.66-.2-3.31-.41-5-.57l-2.91-.27c-1-.09-2-.09-3-.14-.53,0-1.07,0-1.6,0s-1.21,0-1.8.05c-1.45.14-2.92.24-4.37.47s-2.63.36-3.92.62l-4.3.9c-2.5.52-5,1.14-7.46,1.68-2.64.57-5.3,1.1-8,1.48-1.92.24-3.83.42-5.77.49a44.67,44.67,0,0,1-7-.32,89,89,0,0,1-12.58-3.21,33.67,33.67,0,0,0-12.3-1.57c-1.74.07-3.47.25-5.2.39a90,90,0,0,1-10.42,0l-10.48-.35c-1.3,0-2.61-.11-3.91-.15-.87,0-1.74-.06-2.61-.07a45.67,45.67,0,0,0-6.81.5,57.56,57.56,0,0,0-5.69,1.17,59.4,59.4,0,0,0-6.32,2c-4.12,1.5-8.08,3.47-12,5.33a3.65,3.65,0,0,0-1.73,2.25,3.78,3.78,0,0,0,2.64,4.64,4,4,0,0,0,2.91-.38c2.66-1.25,5.31-2.5,8-3.68a58.81,58.81,0,0,1,13.5-3.76c4.21-.46,8.41,0,12.61.29,3.3.21,6.61.39,9.91.59a88,88,0,0,0,8.9.32c1.49-.06,3-.17,4.46-.27l2.82-.19a35.73,35.73,0,0,1,5.94.14c2.15.36,4.26,1,6.37,1.49,1.94.49,3.87.92,5.83,1.34a52,52,0,0,0,5.71.8,46.33,46.33,0,0,0,8.1,0A79.53,79.53,0,0,0,280,435.85c3.49-.74,6.94-1.64,10.39-2.58,1.77-.48,3.54-.93,5.32-1.37,1.59-.4,3.21-.7,4.82-1,.94-.2,1.91-.32,2.87-.46l2.67-.25c.89-.08,1.8-.05,2.7-.07,1.63,0,3.27.06,4.9.18,3.68.26,7.36.58,11.05.79,3.31.18,6.63.23,9.94.34,3.58.11,7.15.26,10.73.44l10.38.49c3.52.17,7,.66,10.53,1.12a133.62,133.62,0,0,0,21,1.46l2.38-.06a43.09,43.09,0,0,0,6.33-.75,64.53,64.53,0,0,0,9.79-2.73q5.12-1.78,10.07-4a2.17,2.17,0,0,0,1-2.46,2.3,2.3,0,0,0-2.09-1.63,1.67,1.67,0,0,0-.59.11Z" transform="translate(-83.14 -200.82)"/><path class="cls-2" d="M426.31,488.56c-3.48.35-6.92,1-10.36,1.59-2.63.46-5.27,1-7.86,1.6l-5.5,1.37c-1.13.28-2.25.67-3.37,1a114,114,0,0,1-16,4.1,52.42,52.42,0,0,1-6.7.37c-1.25,0-2.49,0-3.73-.08l-5.29-.15c-3.66-.09-7.33-.11-11-.14-3.22,0-6.45-.1-9.67-.29-3.71-.21-7.41-.48-11.11-.71-6.76-.41-13.54-.35-20.3-.78q-5.48-.35-10.95-.89c-3.35-.34-6.72-.72-10.09-.88-7.19-.34-14.38-.44-21.58-.66-6.73-.2-13.45-.75-20.17-1.12-7-.39-13.95-.86-20.93-.95-3.55,0-7.08,0-10.62.15-1.8.08-3.59.19-5.38.32s-3.46.33-5.19.54c-1.52.18-3,.38-4.53.63a91.5,91.5,0,0,0-9.41,2.18,106,106,0,0,0-17.41,7,2.54,2.54,0,0,0,.61,4.64,2.69,2.69,0,0,0,2-.25c2.38-1.16,4.77-2.25,7.21-3.28l-.61.26a83.89,83.89,0,0,1,10.2-3.54,86.65,86.65,0,0,1,10.13-2.11c3.3-.33,6.59-.69,9.91-.74s6.76-.13,10.13,0c1.76.08,3.53.11,5.29.24l5.69.4c3.63.25,7.24.57,10.86.87,6.94.57,13.87,1.17,20.83,1.63,3.46.23,6.95.29,10.41.39s6.74.19,10.11.34c3.62.16,7.23.43,10.84.73,3.19.27,6.38.58,9.58.75,7.28.38,14.57.41,21.85.7,3.18.13,6.35.42,9.52.66,3.73.29,7.45.54,11.18.73,3.28.17,6.56.23,9.84.39,4.14.21,8.29.47,12.44.58a53.23,53.23,0,0,0,13.45-1.53c2.6-.61,5.17-1.37,7.73-2.15l5.69-1.72c1.33-.41,2.69-.72,4-1.07s2.65-.75,4-1l5.54-1.18c3.2-.68,6.41-1.37,9.64-1.85a3.56,3.56,0,0,0,1.59-.92,3.59,3.59,0,0,0,0-5.09,3.57,3.57,0,0,0-2.33-1.06Z" transform="translate(-83.14 -200.82)"/><path class="cls-2" d="M335.6,564.33c-1.68,0-3.37,0-5,.09s-3.43.16-5.13.34c-2.07.22-4.14.41-6.2.7l-5.34.74-5,.72-5.35.6c-1.64.19-3.29.23-4.94.33-3.37.21-6.75.28-10.12.43-6.4.29-12.76,1.07-19.12,1.75-2.4.26-4.8.54-7.2.73a76.81,76.81,0,0,1-15.31-.16,44.89,44.89,0,0,1-6.23-1.42c-1-.3-2-.66-3-1l-5-1.73a34.83,34.83,0,0,0-12-2,77.22,77.22,0,0,0-9.52,1c-3.17.45-6.33,1-9.46,1.65-3.3.69-6.6,1.38-9.86,2.25l-3.59,1-1.93.52a2.18,2.18,0,0,0-3.49-2.5c-.45.46-.9.93-1.33,1.41a8,8,0,0,0-1.83,2.51,2.72,2.72,0,0,0,1.81,3.41,5.78,5.78,0,0,0,2.4.13,20.61,20.61,0,0,0,2.63-.46c2.64-.63,5.25-1.37,7.89-2l4.57-1c1.22-.27,2.46-.46,3.69-.7,2.3-.43,4.61-.78,6.93-1.14,4.76-.58,9.57-1.28,14.37-.72a36.12,36.12,0,0,1,6.32,1.66c1,.36,2,.8,3,1.21l4.91,2a39.13,39.13,0,0,0,4.58,1.54,48.08,48.08,0,0,0,7.42,1.23c2.25.23,4.52.29,6.78.32s4.7,0,7-.22q5.34-.42,10.69-.88c3.11-.27,6.24-.52,9.36-.67q4.24-.2,8.48-.32c2.32-.07,4.63-.09,6.95-.22,1.25-.06,2.52-.07,3.77-.2l4.64-.49c2.71-.28,5.4-.69,8.09-1.06l-1,.14,5.49-.73,5.16-.55c1.71-.18,3.45-.23,5.18-.35s3.38-.07,5.07-.11c.56,0,1.12,0,1.67.05l3.33.12c3.18.12,6.37.48,9.54.76q5.3.47,10.6.88c3.27.25,6.54.36,9.81.48s6.27.23,9.4.23c1.67,0,3.35.06,5,0s3.52-.07,5.27-.22c3.52-.29,7-.56,10.52-1.16l2.46-.42c.88-.15,1.75-.35,2.63-.49.58-.06,1.16-.09,1.74-.11a21.93,21.93,0,0,1,2.91.18l1.06.13c.72.12,1.43.25,2.14.42a3.38,3.38,0,0,0,3.81-5,3.55,3.55,0,0,0-2-1.55,31.82,31.82,0,0,0-8.43-1.75,27.79,27.79,0,0,0-5.93.55l-2.95.46,1.05-.14-4.21.58-4.8.47c-.72.07-1.46.08-2.19.12l-3.2.17c-1.16.06-2.34.05-3.51.05h-1.61c-1.6,0-3.2,0-4.79-.06-6.54-.12-13.08-.41-19.59-1-3.37-.32-6.75-.69-10.13-1-1.58-.12-3.17-.29-4.76-.36s-3.07-.2-4.59-.2Z" transform="translate(-83.14 -200.82)"/><path class="cls-2" d="M306,631.18c-1.71.14-3.43.23-5.14.43l-6.29.72c-2.07.24-4.13.58-6.19.88l-4.37.64-4.39.67-5.36.68a77.67,77.67,0,0,1-10.91.56c-4.32-.07-8.65-.37-13-.64-4.07-.25-8.15-.51-12.23-.58a76.76,76.76,0,0,0-13.29.81l-6.55,1c-1.6.25-3.17.63-4.75,1-1.74.38-3.49.75-5.23,1.15L201,640.2c-1.49.34-3,.66-4.48,1-2.68.57-5.37,1-8.08,1.4a22.44,22.44,0,0,1-4.74.21,18.65,18.65,0,0,1-2.59-.77,2.6,2.6,0,0,0-2.94,3.82,2.75,2.75,0,0,0,1.55,1.2,15.49,15.49,0,0,0,4.6,1,31.92,31.92,0,0,0,6.24-.54c3.71-.52,7.39-1.23,11.05-2l8.72-2c2.73-.61,5.49-1.12,8.23-1.69,1.21-.25,2.46-.35,3.68-.52l3.64-.52a83,83,0,0,1,14.14-.32l5.8.42c3.61.27,7.22.64,10.83.93,3.22.27,6.45.52,9.68.53a59.63,59.63,0,0,0,6.47-.22l2.84-.29c3.81-.39,7.61-.87,11.41-1.36,4.29-.56,8.58-1,12.88-1.44,2.09-.2,4.19-.31,6.29-.44a79.93,79.93,0,0,1,14.44.34c2,.3,4,.68,5.94,1.15l3.56.84L334.8,642a65.65,65.65,0,0,0,8.32,1.27,66.93,66.93,0,0,0,11,.09c1.54-.11,3.07-.32,4.6-.48,2.44-.27,4.87-.63,7.29-1l5.91-.69a60.62,60.62,0,0,1,14.46.11c2.57.36,5.15.76,7.72,1.15l3.57.52c1.3.18,2.59.34,3.89.41s2.72,0,4.08,0c3.09-.1,6.18-.52,9.25-.83,2-.2,4-.47,6-.84a3.17,3.17,0,0,0,2-1.5,3.28,3.28,0,0,0-1.17-4.48l-.78-.33a3.28,3.28,0,0,0-1.74,0l-.28,0c-1.83.2-3.66.36-5.49.5a71.45,71.45,0,0,1-13.18.24c-4.78-.7-9.52-1.68-14.32-2.29-2-.26-4-.42-6.08-.51a62.14,62.14,0,0,0-6.55.16c-2,.13-3.93.36-5.89.56-2.64.27-5.26.67-7.89.94-1.79.18-3.59.41-5.38.53a68.37,68.37,0,0,1-13-.31c-4.29-.64-8.5-1.69-12.72-2.67a69.89,69.89,0,0,0-15.64-1.7q-3.38,0-6.76.28Zm112.55,4.33-.38.05.38-.05Z" transform="translate(-83.14 -200.82)"/></g><g id="Layer_10" data-name="Layer 10"><g id="Layer_8" data-name="Layer 8"><path class="cls-1" d="M769.76,566.75c.21,28.95.2,57.91.19,86.87-.61,0-1.23,0-1.84.06s-1.11.1-1.67.1h-2.28l-10,.11c-6.33.07-12.65,0-19-.08-13.92-.15-27.84-.41-41.76-.56-14.59-.16-29.17-.27-43.76-.42s-29.46-.16-44.2-.23c-29.63-.15-59.28-.32-88.91-.28-15.27,0-30.54,0-45.8.11s-30.44.29-45.65.65c-9.67.23-19.35.33-29,.47-10.16.13-20.32.3-30.48.39-9.73.1-19.45.09-29.18.12l-15.44.07-7.09,0-3.5,0a6.62,6.62,0,0,0-1.09,0c-.1-5.47-.13-10.94-.16-16.41a3,3,0,0,0,1.33-2.44q.17-17.7.29-35.41c.05-6.16.07-12.32.16-18.48l.21-14.62q88-1,176.09-.74,45.58.07,91.18.28c15.09.07,30.19.18,45.28.24q22.88.09,45.75,0,27.87,0,55.72-.06c8.93,0,17.85,0,26.77,0q6.52,0,13,.1C766.56,566.75,768.16,566.78,769.76,566.75Z" transform="translate(-83.14 -200.82)"/><path class="cls-3" d="M773,560a3.33,3.33,0,0,1,3.3,3.29c-.25,31.12-.22,62.23-.22,93.35a3.1,3.1,0,0,1-3.08,3.08c-1.38,0-2.76,0-4.13-.06-.82,0-1.64-.13-2.46-.14l-6.22,0c-4.44,0-8.89-.11-13.33-.09-8.45,0-16.9.16-25.35.29q-28.8.41-57.57.66c-7.41.06-14.81.16-22.22.2s-14.92.07-22.39.1l-43.73.21q-45.29.22-90.57.08c-15.16-.06-30.32-.13-45.49-.4-7.5-.14-15-.34-22.5-.47-7.3-.13-14.6-.19-21.91-.31q-22.51-.39-45.06-.46l-21.9-.08-11.7-.06-5.25,0H309.5l-.65-.09-1.79-.62a1.82,1.82,0,0,1-1.31-1.73c.15-6.27.18-12.54.22-18.82a3,3,0,0,1-1.34-2.44q-.17-18.16-.29-36.34c-.05-6.15-.08-12.3-.17-18.46q-.12-8.64-.25-17.29a3.64,3.64,0,0,1,3.58-3.62h0q56.31.65,112.63.77c60.64.17,121.29-.11,181.93-.41q45.09-.23,90.17-.13,22,0,44.07.08c7.13,0,14.27,0,21.41-.05,3.27,0,6.56,0,9.83-.09,1.14,0,2.27,0,3.4,0l.79.07.35,0ZM770,653.62c0-29,0-57.92-.19-86.87-1.6,0-3.2,0-4.81,0q-6.52-.06-13-.1c-8.92,0-17.84,0-26.77,0q-27.86.07-55.72.06-22.87,0-45.75,0c-15.09-.06-30.19-.17-45.28-.24q-45.59-.19-91.18-.28-88-.15-176.09.74l-.21,14.62c-.09,6.16-.11,12.32-.16,18.48q-.12,17.7-.29,35.41a3,3,0,0,1-1.33,2.44c0,5.47.06,10.94.16,16.41a6.62,6.62,0,0,1,1.09,0l3.5,0,7.09,0,15.44-.07c9.73,0,19.45,0,29.18-.12,10.16-.09,20.32-.26,30.48-.39,9.67-.14,19.35-.24,29-.47q22.82-.54,45.65-.65c15.26-.08,30.53-.09,45.8-.11,29.63,0,59.28.13,88.91.28,14.74.07,29.47.08,44.2.23s29.17.26,43.76.42c13.92.15,27.84.41,41.76.56,6.33.07,12.65.15,19,.08l10-.11h2.28c.56,0,1.11-.07,1.67-.1S769.34,653.63,770,653.62Z" transform="translate(-83.14 -200.82)"/></g><g id="Layer_9" data-name="Layer 9"><path class="cls-1" d="M762.51,296.34c.2,29,.19,57.91.19,86.87l-1.85.07c-.56,0-1.11.09-1.67.1h-2.27c-3.34,0-6.68.06-10,.1-6.32.08-12.65,0-19-.07-13.92-.16-27.84-.42-41.76-.57-14.59-.16-29.18-.27-43.76-.42-14.73-.15-29.47-.15-44.2-.22-29.64-.15-59.28-.32-88.92-.29-15.26,0-30.53,0-45.8.12s-30.43.28-45.65.64c-9.67.23-19.34.34-29,.47-10.16.14-20.32.3-30.48.4-9.72.1-19.45.08-29.17.12l-15.45.07c-2.36,0-4.72,0-7.08,0l-3.5,0a5.66,5.66,0,0,0-1.09,0c-.11-5.46-.13-10.93-.17-16.4A3,3,0,0,0,303.2,365q.17-17.72.28-35.41c.05-6.16.07-12.32.16-18.48q.12-7.31.22-14.62,88-1,176.09-.74,45.59.06,91.17.28c15.1.06,30.19.17,45.29.23s30.5.06,45.75.05q27.85,0,55.72-.06c8.92,0,17.84-.06,26.76,0,4.36,0,8.71.07,13.06.1C759.3,296.34,760.9,296.38,762.51,296.34Z" transform="translate(-83.14 -200.82)"/><path class="cls-3" d="M765.78,289.61a3.33,3.33,0,0,1,3.29,3.3c-.24,31.11-.21,62.23-.21,93.35a3.11,3.11,0,0,1-3.08,3.07c-1.38,0-2.76,0-4.14-.05-.82,0-1.64-.14-2.46-.14l-6.22-.05c-4.44,0-8.88-.11-13.32-.09-8.46,0-16.91.16-25.36.28q-28.79.42-57.57.66c-7.4.06-14.8.16-22.21.21l-22.39.1-43.74.21q-45.29.21-90.56.08c-15.17-.06-30.33-.13-45.49-.4-7.5-.14-15-.34-22.5-.48-7.3-.13-14.61-.18-21.91-.31q-22.53-.39-45.06-.46l-21.9-.07-11.71-.07-5.25,0-1.75,0-.65-.09-1.78-.61a1.83,1.83,0,0,1-1.32-1.73c.16-6.27.18-12.55.22-18.82a3,3,0,0,1-1.34-2.44q-.17-18.18-.29-36.34c0-6.15-.08-12.31-.17-18.46q-.12-8.65-.25-17.29a3.66,3.66,0,0,1,3.58-3.63h.05q56.29.66,112.62.77c60.65.17,121.29-.1,181.94-.4q45.08-.22,90.16-.13,22,0,44.07.07c7.14,0,14.28,0,21.41,0,3.28,0,6.56-.05,9.84-.1,1.13,0,2.27,0,3.4.06.27,0,.52,0,.79.06l.35,0Zm-3.08,93.6c0-29,0-57.91-.19-86.87-1.61,0-3.21,0-4.81,0-4.35,0-8.7-.08-13.06-.1-8.92,0-17.84,0-26.76,0q-27.87.08-55.72.06-22.87,0-45.75-.05c-15.1-.06-30.19-.17-45.29-.23q-45.59-.21-91.17-.28-88-.15-176.09.74-.1,7.31-.22,14.62c-.09,6.16-.11,12.32-.16,18.48q-.12,17.7-.28,35.41a3,3,0,0,1-1.34,2.44c0,5.47.06,10.94.17,16.4a5.66,5.66,0,0,1,1.09,0l3.5,0c2.36,0,4.72,0,7.08,0l15.45-.07c9.72,0,19.45,0,29.17-.12,10.16-.1,20.32-.26,30.48-.4,9.68-.13,19.35-.24,29-.47q22.83-.54,45.65-.64c15.27-.09,30.54-.1,45.8-.12,29.64,0,59.28.14,88.92.29,14.73.07,29.47.07,44.2.22,14.58.15,29.17.26,43.76.42,13.92.15,27.84.41,41.76.57,6.32.06,12.65.15,19,.07,3.35,0,6.69-.08,10-.1h2.27c.56,0,1.11-.08,1.67-.1Z" transform="translate(-83.14 -200.82)"/></g><path class="cls-1" d="M766.47,429.57c.2,28.95.19,57.91.19,86.87-.62,0-1.23,0-1.85.06s-1.11.09-1.67.1h-2.27l-10,.11c-6.32.07-12.65,0-19-.08-13.91-.15-27.84-.41-41.75-.57-14.59-.16-29.18-.27-43.77-.41s-29.46-.16-44.2-.23c-29.63-.15-59.27-.32-88.91-.28-15.27,0-30.53,0-45.8.11s-30.43.29-45.65.65c-9.67.23-19.35.33-29,.47-10.16.13-20.32.3-30.48.39-9.73.1-19.45.09-29.17.12l-15.45.07-7.09,0-3.5,0a6.5,6.5,0,0,0-1.08,0c-.11-5.47-.13-10.94-.17-16.41a3,3,0,0,0,1.34-2.44q.16-17.7.28-35.41c.05-6.16.07-12.32.16-18.48l.21-14.62q88-1,176.1-.74,45.58.07,91.17.28c15.1.07,30.19.18,45.29.23s30.49.06,45.74.05q27.87,0,55.73-.06c8.92,0,17.84-.06,26.76,0l13.06.09C763.26,429.57,764.86,429.6,766.47,429.57Z" transform="translate(-83.14 -200.82)"/><path class="cls-3" d="M769.73,422.84a3.33,3.33,0,0,1,3.3,3.29c-.24,31.12-.22,62.23-.22,93.35a3.1,3.1,0,0,1-3.08,3.08c-1.37,0-2.75,0-4.13-.06-.82,0-1.64-.13-2.46-.14l-6.22-.05c-4.44,0-8.88-.11-13.33-.09-8.45,0-16.9.16-25.35.28q-28.78.42-57.57.67c-7.4.06-14.81.16-22.21.2l-22.4.1-43.73.21q-45.28.23-90.56.08c-15.17-.06-30.33-.13-45.5-.4-7.5-.14-15-.34-22.5-.47-7.3-.14-14.6-.19-21.9-.32q-22.53-.37-45.07-.45L324.91,522c-3.91,0-7.81,0-11.71-.06l-5.25-.05-1.75,0-.65-.08-1.78-.62a1.82,1.82,0,0,1-1.32-1.73c.15-6.27.18-12.55.22-18.82a3,3,0,0,1-1.34-2.44q-.16-18.16-.29-36.34c-.05-6.15-.08-12.31-.17-18.46q-.12-8.64-.25-17.29a3.65,3.65,0,0,1,3.58-3.62h0q56.31.64,112.63.77c60.65.17,121.29-.11,181.93-.41q45.09-.23,90.17-.13,22,0,44.07.08c7.14,0,14.27,0,21.41-.05,3.28,0,6.56,0,9.84-.09,1.13,0,2.26,0,3.39,0l.79.07.36,0Zm-3.07,93.6c0-29,0-57.92-.19-86.87-1.61,0-3.21,0-4.81,0l-13.06-.09c-8.92-.05-17.84,0-26.76,0q-27.87.07-55.73.06c-15.25,0-30.49,0-45.74-.05s-30.19-.16-45.29-.23q-45.59-.19-91.17-.28-88.05-.15-176.1.74l-.21,14.62c-.09,6.16-.11,12.32-.16,18.48q-.12,17.7-.28,35.41a3,3,0,0,1-1.34,2.44c0,5.47.06,10.94.17,16.41a6.5,6.5,0,0,1,1.08,0l3.5,0,7.09,0,15.45-.07c9.72,0,19.44,0,29.17-.12,10.16-.09,20.32-.26,30.48-.39,9.67-.14,19.35-.24,29-.47q22.83-.54,45.65-.65c15.27-.08,30.53-.09,45.8-.11,29.64,0,59.28.13,88.91.28,14.74.07,29.47.07,44.2.23s29.18.25,43.77.41c13.91.16,27.84.42,41.75.57,6.33.07,12.66.15,19,.08l10-.11h2.27c.56,0,1.11-.07,1.67-.1S766,516.45,766.66,516.44Z" transform="translate(-83.14 -200.82)"/><path class="cls-2" d="M338.42,323.6q.32,10.18.43,20.35c0,3.1,0,6.2.14,9.3q.08,2.58.2,5.16a31.64,31.64,0,0,0,.62,5.77,3,3,0,1,0,5.79-1.59c-.07-.28-.12-.55-.17-.83-.32-2.92-.35-5.9-.44-8.83-.1-3.15-.1-6.3-.13-9.45q-.11-9.94-.42-19.86a3,3,0,0,0-6,0Z" transform="translate(-83.14 -200.82)"/><path class="cls-2" d="M346.77,321.19a53.45,53.45,0,0,0-8.52,1.47,3,3,0,0,0-2.09,3.69,3,3,0,0,0,3.69,2.09c1.87-.41,3.74-.84,5.63-1.12a20.58,20.58,0,0,1,4.3-.07,16.34,16.34,0,0,1,3,.84,18.1,18.1,0,0,1,2.68,1.58,14.22,14.22,0,0,1,1.7,1.63,11.37,11.37,0,0,1,.75,1.24,8.43,8.43,0,0,1,.29,1c0,.21,0,.42,0,.63s-.11.46-.19.68a10,10,0,0,1-.67,1.13,14.35,14.35,0,0,1-1.7,1.58,40.76,40.76,0,0,1-7.73,4.15c-1.08.43-2.15.85-3.26,1.2a3,3,0,1,0,1.6,5.79,66.17,66.17,0,0,0,6.45-2.59,32.32,32.32,0,0,0,6.81-4c.55-.43,1.07-.87,1.58-1.35a12.89,12.89,0,0,0,1.42-1.73,8.74,8.74,0,0,0,1.54-3.61c1.09-6-4.11-10.8-9.16-12.91a17.9,17.9,0,0,0-6.95-1.35q-.56,0-1.12,0Z" transform="translate(-83.14 -200.82)"/><path class="cls-2" d="M376.19,327.56q-.07,9.49-.17,19c0,2,0,4-.07,6q0,1.95,0,3.88c0,.82-.06,1.64-.11,2.46a13,13,0,0,0,.05,2.14,11.53,11.53,0,0,0,.21,1.31l.3.72a4.48,4.48,0,0,0,.46.91,3,3,0,0,0,1.79,1.38,3.13,3.13,0,0,0,2.31-.3,5.08,5.08,0,0,0,1.66-1.69,2.88,2.88,0,0,0,.3-2.31,3,3,0,0,0-1.1-1.61c0-1.14.11-2.28.13-3.42q0-2.17.05-4.36c0-1.8,0-3.61.06-5.42q.09-9.35.16-18.69a3,3,0,0,0-6,0Z" transform="translate(-83.14 -200.82)"/><path class="cls-2" d="M384.84,320.29a10.85,10.85,0,0,0-4.23,1.34,7.17,7.17,0,0,0-2.77,3.18,3,3,0,0,0,1.08,4.11,3,3,0,0,0,4.1-1.08q.25-.48.52-.95l.58-.33a9.32,9.32,0,0,1,1.15-.31,17.76,17.76,0,0,1,3.35.05,20.2,20.2,0,0,1,3.44.93,11.54,11.54,0,0,1,1.66.95,10.4,10.4,0,0,1,.88.89,9.64,9.64,0,0,1,.56,1,10.31,10.31,0,0,1,.33,1.21,9.88,9.88,0,0,1,0,1.47,5.11,5.11,0,0,1-1.07,2.47,19.41,19.41,0,0,1-2.45,2.37,53.06,53.06,0,0,1-6.69,4c-1.16.6-2.34,1.17-3.54,1.69h0l-.71.3a3,3,0,0,0,0,5.18,2.88,2.88,0,0,0,2.31.3c2.27-1,4.46-2,6.64-3.17a41.38,41.38,0,0,0,6.3-4.09,16.87,16.87,0,0,0,3.1-3.21,11.66,11.66,0,0,0,1.8-3.69,10.16,10.16,0,0,0,.27-4.13,12.64,12.64,0,0,0-.45-2.2,11.38,11.38,0,0,0-.88-2,10.51,10.51,0,0,0-2.94-3.24,14.31,14.31,0,0,0-3.77-2,18.59,18.59,0,0,0-4.27-1,19.24,19.24,0,0,0-2.5-.17,16.31,16.31,0,0,0-1.81.1Zm-1,6.3-.13.1h0l-.1.07.22-.17Zm-.51.46-.13.16.13-.16Z" transform="translate(-83.14 -200.82)"/><path class="cls-2" d="M392,343.45a3,3,0,0,0-1.08,4.11l7.8,11.19c2,2.93,4.07,5.88,5.89,8.94a3,3,0,1,0,5.18-3c-1.83-3.07-3.87-6-5.89-8.94-2.57-3.75-5.2-7.46-7.81-11.19a3.17,3.17,0,0,0-1.79-1.38,3,3,0,0,0-.79-.11,3,3,0,0,0-1.52.41Z" transform="translate(-83.14 -200.82)"/><path class="cls-2" d="M418.89,324.09c.15,4.12.19,8.25.25,12.37,0,1,0,2.08,0,3.12q-.05,3.27-.11,6.54c-.05,2.9-.17,5.8-.26,8.71l-.15,4.72c0,.8,0,1.6-.06,2.4,0,.4,0,.8,0,1.2s0,1,0,1.46a6.32,6.32,0,0,0,.33,2.13,3.26,3.26,0,0,0,1.38,1.79,3,3,0,0,0,4.1-1.08,2.88,2.88,0,0,0,.3-2.31l-.1-.24c-.07-1,0-2,0-3,0-.8,0-1.6.06-2.4l.15-4.72c.09-2.9.21-5.8.26-8.71q.05-3.27.11-6.54c0-1,.05-2.08,0-3.12-.07-4.12-.11-8.25-.25-12.37a3,3,0,0,0-6,0Z" transform="translate(-83.14 -200.82)"/><path class="cls-2" d="M463.22,320.4a2.88,2.88,0,0,0-1.38,1.79c-.66,4.13-1.41,8.23-2.19,12.34-.37,2-.86,3.9-1.29,5.85a81.78,81.78,0,0,1-4.46,13.33l-1.83,4.13-.22-1q-1-4.7-1.95-9.41c-1.41-7.09-2.64-14.21-3.89-21.33a2.87,2.87,0,0,0-1.38-1.79,3,3,0,0,0-4.11,1.07,3.22,3.22,0,0,0-.3,2.31c1.26,7.21,2.51,14.44,3.95,21.62q.93,4.65,1.92,9.28c.27,1.27.54,2.54.84,3.81l.54,2.28a11.54,11.54,0,0,0,1.27,3.63,3,3,0,0,0,4.71.61,5,5,0,0,0,1.25-1.95l.36-.91.54-1.34q1.58-3.67,3.2-7.32a87.08,87.08,0,0,0,5.51-16.18l1.09-4.91c.3-1.38.53-2.78.79-4.17.52-2.77,1-5.55,1.43-8.33a3.24,3.24,0,0,0-.3-2.31,3,3,0,0,0-1.79-1.38,3,3,0,0,0-2.31.3Z" transform="translate(-83.14 -200.82)"/><path class="cls-2" d="M476.94,327.77c-.27,5.45-.59,10.9-.91,16.34-.14,2.31-.35,4.62-.52,6.92-.05.71-.11,1.43-.17,2.14-.1,1.19-.16,2.39-.29,3.57a3,3,0,0,0,5.26,2.88c.84-1.5.78-3.34.91-5,.09-1,.17-2,.25-3l.56-7.47c.16-2.18.26-4.37.39-6.55q.29-4.93.53-9.87a3,3,0,0,0-3-3,3,3,0,0,0-3,3Z" transform="translate(-83.14 -200.82)"/><path class="cls-2" d="M501,322.34a2.84,2.84,0,0,0-1.38,1.79q-1.7,12-3.25,24c-.33,2.45-.65,4.9-1,7.33-.22,1.32-.44,2.63-.7,3.93a15.55,15.55,0,0,0-.32,1.75,3.54,3.54,0,0,0,.52,2.25,3.42,3.42,0,0,0,2.89,1.56c.8,0,1.59,0,2.39.09,2.79.43,5.54,1.13,8.3,1.69l2.67.53a29.41,29.41,0,0,0,3,.39,7,7,0,0,0,1.79-.17,6.59,6.59,0,0,0,1.54-.52,8.44,8.44,0,0,0,3.49-3.82c.57-1.09,1.07-2.19,1.55-3.32a2.87,2.87,0,0,0-.3-2.31,3,3,0,0,0-4.11-1.07l-.61.47a3,3,0,0,0-.77,1.31,20.59,20.59,0,0,1-1.55,2.95l-.39.44-.12,0a8.3,8.3,0,0,1-1.29-.05c-2.34-.36-4.66-.91-7-1.41-.91-.2-1.82-.38-2.74-.57-.63-.13-1.27-.25-1.91-.34l-.89-.13c.35-1.93.62-3.88.89-5.82q.7-5.09,1.36-10.19c0,.27-.07.53-.11.8.68-5,1.35-10,2-15a4.59,4.59,0,0,0,.25-1.16q.15-1.42.31-2.85a3,3,0,0,0-4.52-2.59Zm14.09,39-.24.19.24-.19Zm-.58.38-.16.07.16-.07Z" transform="translate(-83.14 -200.82)"/><path class="cls-2" d="M532.46,323.71a3,3,0,0,0,0,4.24,3.17,3.17,0,0,0,2.12.88c2.79.24,5.57.48,8.35.83l1,.2a3.14,3.14,0,0,0,2.31-.3,3,3,0,0,0-.72-5.48,43.4,43.4,0,0,0-5-.7l-6-.54h-.16a3,3,0,0,0-2,.89Z" transform="translate(-83.14 -200.82)"/><path class="cls-2" d="M529.63,326.88c0,3.9,0,7.79-.23,11.68-.16,3.05-.46,6.08-.75,9.12-.16,1.64-.31,3.28-.41,4.92a25.12,25.12,0,0,0,.25,5.05c.1.71.22,1.43.39,2.13.11.42.21.82.35,1.23a5.17,5.17,0,0,0,2.51,2.86,11,11,0,0,0,2.77,1,23.37,23.37,0,0,0,3.45.5,34.91,34.91,0,0,0,6.91-.28c2.64-.29,5.28-.71,7.9-1.13a2.87,2.87,0,0,0,1.79-1.38,3,3,0,0,0-1.07-4.11,3.24,3.24,0,0,0-2.31-.3c-1.44.23-2.88.44-4.32.66a42,42,0,0,1-9.61.47,14.54,14.54,0,0,1-2.43-.59h0a21.47,21.47,0,0,1-.49-2.37,34.5,34.5,0,0,1,.14-6.51c.18-2.2.44-4.39.62-6.59.22-2.6.36-5.2.49-7.8.05-1.05,0-2.11,0-3.16,0-1.79,0-3.58,0-5.37a3,3,0,0,0-6,0Z" transform="translate(-83.14 -200.82)"/><path class="cls-2" d="M551.1,340.56a139.5,139.5,0,0,1-14,2.42l-3.1.39-.8.11a3,3,0,0,0-1.32,5,2.86,2.86,0,0,0,2.12.88q3.15-.4,6.3-.83c1.23-.17,2.47-.31,3.7-.52,2.93-.5,5.86-1,8.75-1.68a3,3,0,0,0-.84-5.88,3.2,3.2,0,0,0-.76.09ZM537,343l-.66.09L537,343Z" transform="translate(-83.14 -200.82)"/><path class="cls-2" d="M584.93,321.78a10.27,10.27,0,0,0-1.73.32,12,12,0,0,0-2.52,1.12,16.34,16.34,0,0,0-2.31,1.7,19.41,19.41,0,0,0-1.9,1.82,36.4,36.4,0,0,0-3.33,4.24,52.93,52.93,0,0,0-5.16,9.47,39.62,39.62,0,0,0-3,9.95,12.21,12.21,0,0,0,.31,5.46,10,10,0,0,0,3.11,4.57,20.73,20.73,0,0,0,10.44,4.1,21.15,21.15,0,0,0,5.53.05,11.2,11.2,0,0,0,5.15-1.78,3.16,3.16,0,0,0,1.38-1.79,3,3,0,0,0-4.41-3.39,8.94,8.94,0,0,1-1,.58,10.94,10.94,0,0,1-1.67.43,20.68,20.68,0,0,1-4,0,26.16,26.16,0,0,1-5.42-1.46,14.23,14.23,0,0,1-2.07-1.22c-.25-.22-.49-.46-.73-.7a9.49,9.49,0,0,1-.59-1,7.94,7.94,0,0,1-.26-1,15.12,15.12,0,0,1,0-2,39.25,39.25,0,0,1,2.47-8.3,52,52,0,0,1,5.93-10.37,26,26,0,0,1,3.47-3.62,12.47,12.47,0,0,1,1.82-1.09c.27-.09.54-.16.82-.23H586l.24.07.17.1.18.17a8.07,8.07,0,0,1,.47.83,9.69,9.69,0,0,1,.32,1.22c0,.26,0,.51,0,.76-.1.49-.22,1-.36,1.44a3,3,0,1,0,5.79,1.6,16.42,16.42,0,0,0,.45-1.89,9.12,9.12,0,0,0,0-3,10.07,10.07,0,0,0-.8-2.72A8,8,0,0,0,591,324a7.43,7.43,0,0,0-2.13-1.58,8.15,8.15,0,0,0-3-.71h-.14a5.55,5.55,0,0,0-.82.06Zm.9,5.84.14.06-.14-.06Z" transform="translate(-83.14 -200.82)"/><path class="cls-2" d="M586,343.11c-1,0-2,.12-2.93.22a26.12,26.12,0,0,0-3.07.5,3,3,0,1,0,1.59,5.79c.52-.11,1-.21,1.57-.3a22.45,22.45,0,0,1,3.43-.2c.08.27.14.54.19.82.21,2.51.15,5,.13,7.56l0,3.52c0,.61,0,1.22,0,1.83a4.48,4.48,0,0,0,.51,2.12,3.36,3.36,0,0,0,.58.81,4.45,4.45,0,0,0,1.61.89,2.88,2.88,0,0,0,2.31-.3,3,3,0,0,0,1.08-4.11l-.12-.19c0-1.14,0-2.31.05-3.44,0-1.54.05-3.07,0-4.61-.06-2.84.16-6-1.44-8.48a5.32,5.32,0,0,0-2.66-2.05,7.55,7.55,0,0,0-2.69-.37Zm.89,6.06.23.18-.23-.18Zm.17,0,.17.07-.17-.07Z" transform="translate(-83.14 -200.82)"/><path class="cls-2" d="M622.85,324.7l-2.12.18-4.84.41q-5.34.45-10.7.8a3.11,3.11,0,0,0-2.12.88,3,3,0,0,0,2.12,5.12c3.38-.22,6.75-.47,10.12-.76l.29,0a3,3,0,0,0,1.32,1.61,3.2,3.2,0,0,0,2.31.3c1.23-.21,2.45-.46,3.68-.73a15.79,15.79,0,0,0,2.16-.61,8.62,8.62,0,0,0,1.88-.92,6.31,6.31,0,0,0,1.55-1.67,2.91,2.91,0,0,0,.3-2.31,3,3,0,0,0-.77-1.32,3,3,0,0,0-1.32-.77,4.53,4.53,0,0,0-1.78-.32c-.68,0-1.36.1-2.05.15Z" transform="translate(-83.14 -200.82)"/><path class="cls-2" d="M605.27,328.09A117.51,117.51,0,0,0,601.46,343c-.45,2.49-.82,5-1.14,7.5-.17,1.31-.29,2.63-.39,3.95a18.29,18.29,0,0,0,0,3.81,12.29,12.29,0,0,0,.32,1.69,7,7,0,0,0,.71,1.55,7.89,7.89,0,0,0,1.1,1.38,6.26,6.26,0,0,0,1.77,1.24,13.41,13.41,0,0,0,7.58,1,45.5,45.5,0,0,0,8-1.65,3,3,0,0,0-1.59-5.79,44.12,44.12,0,0,1-6.2,1.41,18.59,18.59,0,0,1-3.55.12,10.35,10.35,0,0,1-1.5-.41l-.24-.14-.19-.2-.09-.15a6.69,6.69,0,0,1-.17-.65,19.68,19.68,0,0,1,0-3.22c.11-1.46.26-2.92.45-4.38.47-3.33,1-6.65,1.77-9.93.79-3.52,1.8-7,2.91-10.42A3,3,0,0,0,609,326a3,3,0,0,0-.79-.11,3.1,3.1,0,0,0-2.9,2.2Zm1,30.56h0Zm0,0h0l.13.17-.13-.17Z" transform="translate(-83.14 -200.82)"/><path class="cls-2" d="M623.93,342.82c-2.86.24-5.73.5-8.57.92-1.24.18-2.49.34-3.73.57l-5.93,1.12a3,3,0,0,0-.71,5.48,3.17,3.17,0,0,0,2.31.3l6.13-1.15c1.09-.2,2.2-.35,3.31-.5,2.4-.27,4.8-.54,7.2-.74a3.17,3.17,0,0,0,2.12-.88,3,3,0,0,0,0-4.24,3,3,0,0,0-2-.89Z" transform="translate(-83.14 -200.82)"/><path class="cls-2" d="M641.45,330.16q-.87,4.23-1.63,8.47c-.33,1.79-.7,3.58-1,5.38-.37,2.42-.77,4.84-1.09,7.27l-.43,3.28c-.07.59-.14,1.17-.19,1.76-.11,1.35-.13,2.84.94,3.84a3.05,3.05,0,0,0,2.92.77,3,3,0,0,0,1.32-.77,3,3,0,0,0,.77-1.32.74.74,0,0,0,.09-.34,3.61,3.61,0,0,0-.05-1.76c.13-1.64.34-3.26.55-4.89.38-2.54.71-5.09,1.18-7.61.77-4.16,1.52-8.33,2.37-12.48a3.13,3.13,0,0,0-.3-2.31,3,3,0,0,0-1.79-1.38,2.81,2.81,0,0,0-.75-.1,3,3,0,0,0-2.94,2.19Z" transform="translate(-83.14 -200.82)"/><path class="cls-2" d="M647.82,320a10.58,10.58,0,0,0-5.39,2.93,12.45,12.45,0,0,0-2.87,5.77,14.93,14.93,0,0,0-.3,4.73,3.14,3.14,0,0,0,.88,2.12,3,3,0,0,0,5.12-2.12,16.14,16.14,0,0,1,0-2.51,15.31,15.31,0,0,1,.7-2.48,9.14,9.14,0,0,1,.66-1.15c.17-.19.35-.37.54-.54a8.86,8.86,0,0,1,.92-.55,12.52,12.52,0,0,1,2-.52,13.61,13.61,0,0,1,2.34,0,26.69,26.69,0,0,1,5.3,1.54,31.19,31.19,0,0,1,5.74,3.31,23,23,0,0,1,3.3,3.21,15.09,15.09,0,0,1,1.47,2.44,13.39,13.39,0,0,1,.62,2.18,14.24,14.24,0,0,1,0,2.21,19.55,19.55,0,0,1-1,3.71,24.79,24.79,0,0,1-2.74,4.54,34.77,34.77,0,0,1-5.12,5.2,30.9,30.9,0,0,1-5.94,3.52q-2.26.92-4.59,1.62c-.91.28-1.84.51-2.76.74s-1.65.41-2.49.56a11.47,11.47,0,0,1-1.64.05c-.28-.07-.54-.15-.81-.25a23.86,23.86,0,0,1-3.87-2.43l-.14-.11a3.25,3.25,0,0,0-2.12-.88,3,3,0,0,0-3,3,2.86,2.86,0,0,0,.88,2.12c.93.72,1.86,1.41,2.82,2.07a17.29,17.29,0,0,0,2.34,1.39c.53.25,1.07.46,1.62.68a9,9,0,0,0,2.2.42,13.12,13.12,0,0,0,3.27-.27,27.87,27.87,0,0,0,3.08-.71,53.45,53.45,0,0,0,6.82-2.23,33.39,33.39,0,0,0,11.5-7.75,38,38,0,0,0,4.09-5.07,22.63,22.63,0,0,0,2.93-6.26,18.91,18.91,0,0,0,.64-3.39,13.94,13.94,0,0,0,0-3.52,14.88,14.88,0,0,0-2.73-6.57,27.32,27.32,0,0,0-10.53-8.41,30.68,30.68,0,0,0-6.2-2.23,23.72,23.72,0,0,0-3.36-.51c-.26,0-.52,0-.79,0a16.74,16.74,0,0,0-3.24.39ZM658,327.39l.18.07-.18-.07Zm-19.91,30.7.22.17-.22-.17Z" transform="translate(-83.14 -200.82)"/><path class="cls-2" d="M352.17,460.15a9.13,9.13,0,0,0-3.05.83,27,27,0,0,0-7.79,5.43,36.79,36.79,0,0,0-6.1,7.68,34.7,34.7,0,0,0-2.14,4.5,11.24,11.24,0,0,0-.71,4.75,9,9,0,0,0,1.65,4.52,12.81,12.81,0,0,0,3.44,3.37,19.57,19.57,0,0,0,4.16,2,21.76,21.76,0,0,0,5,1.14,37.27,37.27,0,0,0,10-.35c2.1-.28,4.2-.57,6.28-1a3,3,0,0,0-1.59-5.79c-1.87.41-3.75.68-5.65.94l.18,0-1,.14.53-.07a33.84,33.84,0,0,1-8.16.25,22.57,22.57,0,0,1-4.58-1.24,16.22,16.22,0,0,1-2.3-1.25,10.57,10.57,0,0,1-1.07-1.06,9.85,9.85,0,0,1-.72-1.2c-.06-.19-.11-.37-.15-.56a10.58,10.58,0,0,1,0-1.23,10.83,10.83,0,0,1,.54-1.83,32.25,32.25,0,0,1,3.39-5.79,35.73,35.73,0,0,1,5.43-5.53,22.54,22.54,0,0,1,3.86-2.33l.39-.13c0,1,0,2.06,0,3.08a3,3,0,0,0,6,0,27,27,0,0,0-.32-5.54c-.14-.36-.29-.72-.45-1.07a5.4,5.4,0,0,0-.68-.95,2.78,2.78,0,0,0-.87-.78,5.59,5.59,0,0,0-1.42-.68c-.41-.08-.82-.14-1.23-.18l-.39,0-.5,0Zm.7,6,.22.1-.22-.1Z" transform="translate(-83.14 -200.82)"/><path class="cls-2" d="M375.59,464.32a3.15,3.15,0,0,0-1.38,1.79c-1.1,3.18-2.26,6.35-3.21,9.57a37.66,37.66,0,0,0-1.14,4.8,15.6,15.6,0,0,0,.2,5.74,10.87,10.87,0,0,0,.8,2.11,9.29,9.29,0,0,0,1.53,2.29,9.62,9.62,0,0,0,3.93,2.66,8.78,8.78,0,0,0,1.76.47,9.09,9.09,0,0,0,2.91,0,11.61,11.61,0,0,0,4.6-1.78,14.82,14.82,0,0,0,5.62-7.83,16.37,16.37,0,0,0,.74-4.87,12,12,0,0,0-1.38-5.48,11.06,11.06,0,0,0-3.07-3.68,9.83,9.83,0,0,0-2.64-1.55,11.74,11.74,0,0,0-2.75-.59,9.17,9.17,0,0,0-2.19,0l.09-.25A3,3,0,0,0,377.9,464a3,3,0,0,0-.8-.11,3,3,0,0,0-1.52.41ZM382,474c.28.06.55.13.82.22s.54.31.8.48a10.37,10.37,0,0,1,1.1,1.11,11.73,11.73,0,0,1,.82,1.43,9.91,9.91,0,0,1,.35,1.31,14.12,14.12,0,0,1,0,2.06,15.52,15.52,0,0,1-.78,2.86,14.17,14.17,0,0,1-1.17,2,13.05,13.05,0,0,1-1.34,1.37,9.71,9.71,0,0,1-1.26.73,10.16,10.16,0,0,1-1.43.39c-.23,0-.46,0-.69,0a9.14,9.14,0,0,1-1-.27,9,9,0,0,1-.87-.49c-.2-.18-.39-.37-.57-.58a10.5,10.5,0,0,1-.73-1.24,9.81,9.81,0,0,1-.33-1.26,14.41,14.41,0,0,1,0-2.4,44.56,44.56,0,0,1,1.58-6c.33-.34.67-.67,1-1,.18-.11.36-.22.55-.32a11.13,11.13,0,0,1,1.5-.39,10.73,10.73,0,0,1,1.65,0Zm3,9.82-.07.18.07-.18Z" transform="translate(-83.14 -200.82)"/><path class="cls-2" d="M400.39,465c-.49,1.75-1,3.5-1.42,5.27l-1.13,4.7-.87,3.61c-.23.93-.36,1.9-.54,2.84-.47,2.52-.94,5-1.38,7.57-.19,1.07-.38,2.13-.54,3.2a37.55,37.55,0,0,0-.69,6.23,3,3,0,0,0,6,0,18.76,18.76,0,0,1,.14-2.48c.71-4.59,1.56-9.16,2.41-13.73.37-2,.84-4,1.32-5.93q.53-2.21,1.06-4.42c.43-1.77.93-3.52,1.43-5.27a3,3,0,0,0-2.1-3.69,2.92,2.92,0,0,0-.78-.11,3,3,0,0,0-2.91,2.2Z" transform="translate(-83.14 -200.82)"/><path class="cls-2" d="M419.09,450.09c-.11,6.27-.37,12.53-.7,18.79-.07,1.31-.16,2.62-.23,3.93-.09,1.48-.14,3-.27,4.46-.24,2.76-.43,5.53-.72,8.29l-.55-1c-1-1.76-1.91-3.5-2.82-5.29s-2-3.68-2.79-5.59l-2.59-6c-.27-.69-.52-1.39-.79-2.08a3.19,3.19,0,0,0-1.37-1.79,3,3,0,0,0-4.11,1.07,2.9,2.9,0,0,0-.3,2.31c.81,2.16,1.72,4.27,2.64,6.39.58,1.35,1.11,2.74,1.78,4.05l2.83,5.6c.7,1.39,1.47,2.74,2.21,4.1s1.39,2.48,2.15,3.68a17.3,17.3,0,0,0,2.49,3.3,3.6,3.6,0,0,0,3.38,1,4.27,4.27,0,0,0,2.72-2.94,35.31,35.31,0,0,0,1.06-6.42c.08-.73.14-1.45.2-2.18q.28-3.14.55-6.27c.2-2.32.29-4.65.43-7s.25-4.48.36-6.72c.24-4.59.36-9.19.44-13.79a3,3,0,0,0-6,0Z" transform="translate(-83.14 -200.82)"/><path class="cls-2" d="M462.18,455.34c-5.92.66-11.82,1.49-17.73,2.26l-.8.11a3,3,0,0,0-1.32,5,2.85,2.85,0,0,0,2.12.88c5.91-.77,11.81-1.6,17.73-2.26a3.24,3.24,0,0,0,2.12-.88,3,3,0,0,0-1.93-5.13Z" transform="translate(-83.14 -200.82)"/><path class="cls-2" d="M442.68,461a15.39,15.39,0,0,0-1.58,2.3,21.13,21.13,0,0,0-1.14,2.54,33.77,33.77,0,0,0-1.51,5.88c-.61,3-1.07,6.06-1.47,9.11a60.84,60.84,0,0,0-.79,9,3,3,0,0,0,6,0,61.6,61.6,0,0,1,.82-9.2c.33-2.28.67-4.55,1.13-6.8a42.38,42.38,0,0,1,1.67-6.54,19.05,19.05,0,0,1,1.15-2.11,3.14,3.14,0,0,0,.85-2.08,3,3,0,0,0-3-3,2.9,2.9,0,0,0-2.12.88Zm.41,19-.06.46.06-.46Z" transform="translate(-83.14 -200.82)"/><path class="cls-2" d="M454.83,472.45c-5.27,1.34-10.58,2.53-15.9,3.65a3,3,0,0,0-.72,5.48,3.14,3.14,0,0,0,2.31.3c5.32-1.12,10.63-2.31,15.9-3.65a3,3,0,0,0-.83-5.88,3.11,3.11,0,0,0-.76.1Z" transform="translate(-83.14 -200.82)"/><path class="cls-2" d="M475.22,461.13a2.89,2.89,0,0,0-1.38,1.79c-.33,1.93-.68,3.86-.94,5.8q-.33,2.5-.68,5c-.31,2.32-.66,4.64-.87,7-.23,2.6-.48,5.2-.7,7.8l-.39,4.72a14.74,14.74,0,0,0,.59,6.79,3.26,3.26,0,0,0,1.38,1.79,3,3,0,0,0,4.11-1.08,2.9,2.9,0,0,0,.3-2.31,9.42,9.42,0,0,1-.49-1.67,40.75,40.75,0,0,1,.26-5.34c.09-1.16.18-2.33.29-3.49l.78-8.71q.38-2.82.76-5.63l.51-3.74c.24-1.77.57-3.54.87-5.3a3.2,3.2,0,0,0-.3-2.31,3,3,0,0,0-1.79-1.38,3,3,0,0,0-.79-.11,3,3,0,0,0-1.52.41Z" transform="translate(-83.14 -200.82)"/><path class="cls-2" d="M495.13,465.36a7.07,7.07,0,0,0-1,1.82,11.55,11.55,0,0,0-.44,2.21c-.2,1.58-.37,3.16-.5,4.75-.1,1.32-.18,2.64-.26,4-.07,1.07-.12,2.15-.17,3.23a26.6,26.6,0,0,0-.05,4.5,3,3,0,0,0,4.52,2.59,3.15,3.15,0,0,0,1.38-1.79,10.25,10.25,0,0,0,.39-2.18,2.39,2.39,0,0,0-.33-1.37c0-.52.06-1,.08-1.55,0-1,.1-2,.15-3,.11-2.1.26-4.2.47-6.29a3,3,0,0,0,1.62-1.33l.3-.71a3,3,0,0,0,0-1.59,14.34,14.34,0,0,0-.68-2.54,3.08,3.08,0,0,0-2.09-2.09,3,3,0,0,0-.79-.11,3.18,3.18,0,0,0-2.6,1.49Z" transform="translate(-83.14 -200.82)"/><path class="cls-2" d="M502.56,456.84a11.87,11.87,0,0,0-5.63,3.44,9.61,9.61,0,0,0-2.61,5,19.58,19.58,0,0,0-.17,3.38v5.47a3,3,0,0,0,6,0v-3.9c0-1.24-.06-2.5,0-3.74.05-.26.12-.51.2-.76a8.78,8.78,0,0,1,.51-.88,11.63,11.63,0,0,1,1.34-1.3,10,10,0,0,1,1.18-.71,12.26,12.26,0,0,1,1.41-.36,10.92,10.92,0,0,1,1.69,0,17.91,17.91,0,0,1,3,.86,17.81,17.81,0,0,1,6.56,5,17.26,17.26,0,0,1,1.62,2.73,14.92,14.92,0,0,1,.63,2.34,12.59,12.59,0,0,1,0,2.21,16.35,16.35,0,0,1-.79,2.81A17,17,0,0,1,516,481a15.83,15.83,0,0,1-2.14,2.11,42.64,42.64,0,0,1-7.47,4.35,13,13,0,0,1-1.73.54h-.18l-.48-.12-.18-.11a18.7,18.7,0,0,1-2.22-2.25,2.91,2.91,0,0,0-2.12-.88,3,3,0,0,0-3,3,3.17,3.17,0,0,0,.88,2.13,13.72,13.72,0,0,0,4,3.49,7.76,7.76,0,0,0,3.31.75,7.88,7.88,0,0,0,1.86-.27,11,11,0,0,0,1.52-.5,40.71,40.71,0,0,0,5.38-2.65,32.26,32.26,0,0,0,5.35-3.79,16.22,16.22,0,0,0,3.63-4.77,19.92,19.92,0,0,0,1.27-3.14,17.34,17.34,0,0,0,.62-3.38,12.21,12.21,0,0,0-.18-3.31,15.36,15.36,0,0,0-.77-2.92,19.27,19.27,0,0,0-3.49-5.64,23.88,23.88,0,0,0-4.59-3.93,20.63,20.63,0,0,0-5.88-2.74,15.64,15.64,0,0,0-3.43-.55l-.49,0a13.75,13.75,0,0,0-2.92.4ZM505.2,488l-.18,0,.18,0Z" transform="translate(-83.14 -200.82)"/><path class="cls-2" d="M529,456.6a3,3,0,0,0,0,4.24l.61.47a3,3,0,0,0,1.52.41c3.29.41,6.59.84,9.88,1.24,2.91.35,5.83.78,8.77.93a3,3,0,0,0,0-6c-2.93-.15-5.86-.58-8.77-.93-3.3-.39-6.59-.82-9.88-1.24h-.2a3,3,0,0,0-1.92.89Z" transform="translate(-83.14 -200.82)"/><path class="cls-2" d="M535.7,458.7a3.15,3.15,0,0,0-1.38,1.79c-.5,1.46-1,2.91-1.44,4.38l-1.34,4.47c-.66,2.2-1.08,4.45-1.57,6.69a46.77,46.77,0,0,0-.94,6.06,12.2,12.2,0,0,0,2.43,9.07,9,9,0,0,0,3.27,2.5,10.84,10.84,0,0,0,4.8.92,22.64,22.64,0,0,0,4.57-.67,15.31,15.31,0,0,0,4.26-1.85,3,3,0,1,0-3-5.18c-.5.3-1,.58-1.52.83a12.92,12.92,0,0,1-5.41.85,9.78,9.78,0,0,1-1.07-.29,7.51,7.51,0,0,1-.79-.45c-.22-.21-.42-.42-.62-.64a8.56,8.56,0,0,1-.53-.92,12.92,12.92,0,0,1-.39-1.45,19.4,19.4,0,0,1,.15-3.89c.27-1.74.64-3.44,1-5.15.26-1.21.45-2.45.8-3.63,1-3.37,2-6.73,3.13-10.05A3,3,0,0,0,538,458.4a3,3,0,0,0-.79-.11,3,3,0,0,0-1.52.41Zm4.66,29.86-.18,0,.18,0Z" transform="translate(-83.14 -200.82)"/><path class="cls-2" d="M560,472.75c-3.84.32-7.67.83-11.5,1.29-4.75.57-9.48,1.29-14.21,2a2.87,2.87,0,0,0-1.79,1.38,3,3,0,0,0,1.07,4.1,3.26,3.26,0,0,0,2.31.3c3.62-.55,7.24-1.06,10.87-1.57,4.41-.54,8.82-1.14,13.24-1.51a3.16,3.16,0,0,0,2.12-.88,3,3,0,0,0-2-5.13Z" transform="translate(-83.14 -200.82)"/><path class="cls-2" d="M566,467.85q-1.15,3.84-2.21,7.69c-.48,1.75-1,3.49-1.43,5.26l-1.5,6.47c-.19.81-.36,1.62-.55,2.43l-.39,1.72c-.19.83-.28,1.67-.4,2.51l-.11.8a3,3,0,0,0,.41,1.51,3,3,0,0,0,2.59,1.49,3.65,3.65,0,0,0,1.88-.44,4.57,4.57,0,0,0,1.62-1.91,3.12,3.12,0,0,0,0-3.08l.16-.71c.2-.89.39-1.78.6-2.67l1.49-6.39c.4-1.71.91-3.41,1.38-5.11q1.1-4,2.29-8a3,3,0,0,0-2.09-3.69,3,3,0,0,0-.79-.11,3.07,3.07,0,0,0-2.91,2.2Z" transform="translate(-83.14 -200.82)"/><path class="cls-2" d="M583.11,455.07a3,3,0,0,0-1.79,1.38,3.14,3.14,0,0,0-.3,2.31c.13.63.23,1.26.34,1.9.12.93.24,1.87.33,2.81a29.8,29.8,0,0,1,.06,4.34c-.08,1.64-.16,3.29-.28,4.93s-.21,3-.37,4.53l-.59,5.36c-.2,1.46-.4,2.91-.69,4.35-.05.27-.12.53-.18.8-.54-.95-1.06-1.91-1.59-2.86-.9-1.62-1.75-3.28-2.53-5-.89-1.93-1.8-3.86-2.65-5.81-.54-1.24-1.06-2.48-1.59-3.72a3.21,3.21,0,0,0-.35-1.06c-.19-.34-.37-.68-.55-1l-.32-.72a3,3,0,0,0-5.48,2.31,11.83,11.83,0,0,0,.58,1.35c1.24,2.82,2.39,5.68,3.69,8.48,1.44,3.11,2.91,6.19,4.57,9.18a51.31,51.31,0,0,0,2.92,4.88,9.8,9.8,0,0,0,1,1.32,4.14,4.14,0,0,0,1.63,1,4.65,4.65,0,0,0,3.22-.46,6.16,6.16,0,0,0,1.12-.92,5.55,5.55,0,0,0,.88-1.3,17,17,0,0,0,1.06-3.25,59.75,59.75,0,0,0,1.49-9.27c.18-1.66.42-3.33.54-5,.19-2.53.37-5.05.49-7.58a38.07,38.07,0,0,0-.23-6.67c-.2-1.5-.38-3-.68-4.49a3,3,0,0,0-2.94-2.19,2.83,2.83,0,0,0-.75.1Z" transform="translate(-83.14 -200.82)"/><path class="cls-2" d="M624.5,458.55l-3.62.09c-2.11.05-4.21.16-6.31.25-1.8.07-3.59.27-5.39.45l-3.86.38c-1.82.18-3.62.45-5.44.7a2.88,2.88,0,0,0-1.79,1.38,3,3,0,0,0,1.08,4.11l.71.3a3,3,0,0,0,1.6,0l1.89-.26c2-.26,4.07-.43,6.1-.63,1.55-.15,3.09-.34,4.65-.4,2-.09,4-.2,6-.25l3.2-.08a37.43,37.43,0,0,1,4.15,0l0,0a3,3,0,0,0,4.24-4.24,14,14,0,0,0-1.27-1c-.39-.18-.79-.34-1.19-.48a10.54,10.54,0,0,0-1.3-.21,16.68,16.68,0,0,0-2.11-.12l-1.38,0Zm2.7,6h0Zm.79.19.19.08-.19-.08Z" transform="translate(-83.14 -200.82)"/><path class="cls-2" d="M614.72,461.75c-.31,1.55-.66,3.11-.91,4.67-.2,1.17-.39,2.34-.58,3.51-.37,2.2-.81,4.39-1.07,6.61s-.54,4.53-.8,6.79c-.15,1.24-.27,2.47-.36,3.71a29.4,29.4,0,0,0,.63,8.75,3,3,0,1,0,5.79-1.59c-.1-.44-.2-.88-.28-1.33-.11-1-.18-2-.22-2.95a33.14,33.14,0,0,1,.18-4c.08-1,.2-2,.32-3q.34-2.93.69-5.85t1-5.77c.44-2.64.92-5.26,1.45-7.89a3.14,3.14,0,0,0-.3-2.31,3,3,0,0,0-1.79-1.38,2.83,2.83,0,0,0-.75-.1,3,3,0,0,0-2.94,2.19Z" transform="translate(-83.14 -200.82)"/><path class="cls-2" d="M640.2,465.49q-1.14,4.89-2.21,9.79c-.44,2-.89,4.07-1.27,6.13-.43,2.35-.86,4.7-1.26,7.05s-.82,4.8-1,7.22a2.9,2.9,0,0,0,.88,2.12,3,3,0,0,0,4.24,0,3.2,3.2,0,0,0,.88-2.12c.05-.62.13-1.24.21-1.86.64-4.06,1.37-8.11,2.12-12.15.33-1.8.77-3.58,1.16-5.37q1-4.62,2.08-9.21a3,3,0,0,0-2.09-3.69,2.87,2.87,0,0,0-.76-.1,3,3,0,0,0-2.93,2.2Zm.52,27.66-.06.42.06-.42Z" transform="translate(-83.14 -200.82)"/><path class="cls-2" d="M668,460a28.62,28.62,0,0,0-2.59,3.2c-.75,1.13-1.38,2.35-2.06,3.52-.47.82-1,1.64-1.45,2.45-1.09,1.84-2.25,3.65-3.27,5.53l-3.55,6.53c-1.56,2.86-3.07,5.74-4.57,8.64a3,3,0,0,0,5.18,3c1.37-2.65,2.75-5.29,4.17-7.91l3.77-6.94c.86-1.57,1.82-3.1,2.73-4.64l1.7-2.88q0,1.43.07,2.85c.07,2.75.13,5.5.23,8.25.2,5.35.55,10.7,1,16a3.18,3.18,0,0,0,.88,2.12,3,3,0,0,0,4.24,0,2.88,2.88,0,0,0,.88-2.12q-.72-8.43-1-16.88c-.09-2.53-.15-5.07-.21-7.6q-.05-2.38-.11-4.77c0-.78,0-1.55,0-2.33a15.12,15.12,0,0,0-.24-2.79,12.3,12.3,0,0,0-1-2.7,2.9,2.9,0,0,0-1.79-1.38,3,3,0,0,0-.8-.1A2.88,2.88,0,0,0,668,460Z" transform="translate(-83.14 -200.82)"/><path class="cls-2" d="M673.33,481.05c-4.88.19-9.75.52-14.62.91a3.17,3.17,0,0,0-2.12.88,3,3,0,0,0,2.12,5.12c4.87-.39,9.74-.72,14.62-.91a3,3,0,0,0,.1-6Z" transform="translate(-83.14 -200.82)"/><path class="cls-2" d="M687.07,463.13c-1.47,7.19-2.88,14.4-4.18,21.63q-.74,4.11-1.44,8.24c-.11.65-.21,1.3-.32,1.95a11.65,11.65,0,0,0-.25,1.59A7.79,7.79,0,0,0,681,498a3.8,3.8,0,0,0,.91,1.56,3.54,3.54,0,0,0,1.63.86,7.34,7.34,0,0,0,2.89-.11l1.84-.28,1.9-.27c1.46-.16,2.91-.32,4.38-.41,1.84-.11,3.67-.18,5.51-.2,3.38-.06,6.77.12,10.15.25a3,3,0,0,0,0-6c-4.16-.16-8.32-.28-12.48-.21a85.34,85.34,0,0,0-10.44,1q1-6.06,2.12-12.1c1-5.82,2.24-11.61,3.42-17.39a3.14,3.14,0,0,0-.3-2.31,3,3,0,0,0-1.79-1.38,2.84,2.84,0,0,0-.75-.1,3,3,0,0,0-2.94,2.2Z" transform="translate(-83.14 -200.82)"/><path class="cls-2" d="M340,632.08a3,3,0,1,0,3-3,3,3,0,0,0-3,3Z" transform="translate(-83.14 -200.82)"/><path class="cls-2" d="M375,634.45a3,3,0,1,0,3-3,3,3,0,0,0-3,3Z" transform="translate(-83.14 -200.82)"/><path class="cls-2" d="M412.08,636.25a3,3,0,1,0,3-3,3,3,0,0,0-3,3Z" transform="translate(-83.14 -200.82)"/><path class="cls-2" d="M447.08,635.7a3,3,0,1,0,3-3,3,3,0,0,0-3,3Z" transform="translate(-83.14 -200.82)"/><path class="cls-2" d="M473.6,635.7a3,3,0,1,0,3-3,3,3,0,0,0-3,3Z" transform="translate(-83.14 -200.82)"/></g></svg>