<?xml version="1.0" encoding="UTF-8"?>
<svg fill="#272C31" width="100pt" height="100pt" version="1.1" viewBox="0 0 100 100" xmlns="http://www.w3.org/2000/svg">
 <g>
  <path d="m94.77 5.3828h-89.539c-3.0781 0-5.6914 2.4609-5.6914 5.6914v83.539h100.77v-83.535c0.15234-3.0781-2.4609-5.6953-5.5391-5.6953zm-89.539 2.3086h89.539c1.8477 0 3.2305 1.5391 3.2305 3.3828v6.3086h-96v-6.3047c0-1.8477 1.3828-3.3867 3.2305-3.3867zm-3.2305 84.617v-72.77h96.152v72.77z"/>
  <path d="m75.848 11.383h2.3086v2.3086h-2.3086z"/>
  <path d="m81.691 11.383h2.3086v2.3086h-2.3086z"/>
  <path d="m87.539 11.383h2.3086v2.3086h-2.3086z"/>
  <path d="m9.3828 11.383h59.23v2.3086h-59.23z"/>
  <path d="m68.152 49.691c-5.2305 0-9.8477 2.3086-13.078 6l-7.3828-2.6172-7.2305 13.539h-2.6172l-7.0742-13.691-8.1523 2.9219c-2.1523 0.76953-4 2.3086-5.2305 4.3086-1.0781 1.8477-1.6914 3.8477-1.6914 5.6914-0.15234 0.76953-0.76953 6.4609-1.0781 13.23v1.2305h43.078c2.9219 2.3086 6.6172 3.6914 10.617 3.6914 9.5391 0 17.23-7.6914 17.23-17.23-0.16016-9.3828-7.8516-17.074-17.391-17.074zm0 2.3086c3.6914 0 7.0781 1.3828 9.6914 3.5391l-20.922 20.922c-2.1523-2.6172-3.5391-6-3.5391-9.6914 0-8.1523 6.6172-14.77 14.77-14.77zm-50.152 14.152v-0.15234c0-1.8477 0.76953-3.5391 1.3828-4.6172 0.92188-1.5391 2.3086-2.6172 4-3.2305l6.1523-2.1523 6.9219 12.922h5.2305l6.9219-12.922 4.7695 1.6914c-1.6914 2.6172-2.7695 5.8477-2.7695 9.2305 0 4.3086 1.5391 8.1523 4.1523 11.23h-37.684c0.30469-6.7695 0.92188-12 0.92188-12zm50.152 15.539c-3.6914 0-7.0781-1.3828-9.6914-3.5391l20.922-20.922c2.1523 2.6172 3.5391 6 3.5391 9.6914 0.15625 8-6.6133 14.77-14.77 14.77z"/>
  <path d="m39.23 51.23c6 0 10.922-4.9219 10.922-10.922s-4.9219-10.922-10.922-10.922-10.922 4.9219-10.922 10.922 4.9219 10.922 10.922 10.922zm0-19.539c4.7695 0 8.6172 3.8477 8.6172 8.6172 0 4.7695-3.8477 8.6172-8.6172 8.6172s-8.6172-3.8477-8.6172-8.6172c0.003907-4.7695 4.0039-8.6172 8.6172-8.6172z"/>
 </g>
</svg>
