<?xml version="1.0" encoding="UTF-8"?>
<svg fill="#1198ED" width="100pt" height="100pt" version="1.1" viewBox="0 0 100 100" xmlns="http://www.w3.org/2000/svg">
 <g>
  <path d="m-0.30859 8.7695v82.309h100.77v-82.309zm98.461 2.3086v9.5391h-96.152v-9.5391zm-96.152 77.844v-66h96.152v65.848h-96.152z"/>
  <path d="m81.691 14.77h2.3086v2.3086h-2.3086z"/>
  <path d="m75.848 14.77h2.3086v2.3086h-2.3086z"/>
  <path d="m87.539 14.77h2.3086v2.3086h-2.3086z"/>
  <path d="m9.3828 14.77h59.23v2.3086h-59.23z"/>
  <path d="m33.23 81.848h33.691v-51.848h-33.691zm2.3086-49.539h29.078v47.23h-29.078z"/>
  <path d="m80.152 52.922c-0.30859-0.30859-0.46094-0.61719-0.46094-1.0781h-2.3086c0 1.0781 0.46094 2 1.2305 2.7695 0.46094 0.46094 1.0781 0.76953 1.8477 0.92188v1.8477h2.3086v-1.8477c0.61719-0.15234 1.2305-0.46094 1.8477-0.92188 0.76953-0.76953 1.2305-1.6914 1.2305-2.7695s-0.46094-2-1.2305-2.7695c-0.76953-0.61719-1.8477-1.0781-2.9219-1.0781-0.61719 0-1.0781-0.15234-1.3828-0.46094-0.30859-0.30859-0.46094-0.61719-0.46094-1.0781 0-0.30859 0.15234-0.76953 0.46094-1.0781 0.76953-0.61719 2.1523-0.61719 2.7695 0 0.30859 0.30859 0.46094 0.61719 0.46094 1.0781h2.3086c0-1.0781-0.46094-2-1.2305-2.7695-0.46094-0.46094-1.0781-0.76953-1.8477-0.92188v-1.8477h-2.3086v1.8477c-0.61719 0.15234-1.2305 0.46094-1.8477 0.92188-0.76953 0.76953-1.2305 1.6914-1.2305 2.7695s0.46094 2 1.2305 2.7695c0.76953 0.61719 1.8477 1.0781 2.9219 1.0781 0.61719 0 1.0781 0.15234 1.3828 0.46094 0.30859 0.30859 0.46094 0.61719 0.46094 1.0781 0 0.30859-0.15234 0.76953-0.46094 1.0781-0.61328 0.61719-2 0.61719-2.7695 0z"/>
  <path d="m70.617 76.77h21.848v-41.539h-21.848zm2.3047-39.23h17.23v36.922h-17.23z"/>
  <path d="m76.152 68h10.77v2.3086h-10.77z"/>
  <path d="m76.152 62.461h10.77v2.3086h-10.77z"/>
  <path d="m16.922 52.922c-0.30859-0.30859-0.46094-0.61719-0.46094-1.0781l-2.3086 0.003906c0 1.0781 0.46094 2 1.2305 2.7695 0.46094 0.46094 1.0781 0.76953 1.8477 0.92187v1.8477h2.3086v-1.8477c0.61719-0.15234 1.2305-0.46094 1.8477-0.92187 0.76953-0.76953 1.2305-1.6914 1.2305-2.7695s-0.46094-2-1.2305-2.7695c-0.76953-0.61719-1.8477-1.0781-2.9219-1.0781-0.46094 0-1.0781-0.15234-1.3828-0.46094-0.30859-0.30859-0.46094-0.61719-0.46094-1.0781 0-0.30859 0.15234-0.76953 0.46094-1.0781 0.76953-0.61719 2.1523-0.61719 2.7695 0 0.30859 0.30859 0.46094 0.61719 0.46094 1.0781h2.3086c0-1.0781-0.46094-2-1.2305-2.7695-0.46094-0.46094-1.0781-0.76953-1.8477-0.92188v-1.8477h-2.3086v1.8477c-0.61719 0.15234-1.2305 0.46094-1.8477 0.92188-0.76953 0.76953-1.2305 1.6914-1.2305 2.7695 0 1.0781 0.46094 2 1.2305 2.7695 0.76953 0.61719 1.8477 1.0781 2.9219 1.0781 0.61719 0 1.0781 0.15234 1.3828 0.46094 0.30859 0.30859 0.46094 0.61719 0.46094 1.0781 0 0.30859-0.15234 0.76953-0.46094 1.0781-0.61328 0.61328-2 0.61328-2.7695-0.003906z"/>
  <path d="m7.5391 76.77h21.848v-41.539h-21.848zm2.3086-39.23h17.23v36.922h-17.23z"/>
  <path d="m13.078 68h10.77v2.3086h-10.77z"/>
  <path d="m13.078 62.461h10.77v2.3086h-10.77z"/>
  <path d="m46.77 55.848c-0.76953-0.61719-1.0781-1.3828-1.0781-2.1523h-2.3086c0 1.5391 0.61719 2.9219 1.8477 4 0.92188 0.76953 2 1.2305 3.2305 1.5391v3.5391h2.3086v-3.5391c1.2305-0.15234 2.3086-0.76953 3.2305-1.5391 1.2305-1.0781 1.8477-2.4609 1.8477-4 0-1.5391-0.61719-2.9219-1.8477-4-1.2305-1.0781-2.7695-1.5391-4.3086-1.5391-1.0781 0-2-0.30859-2.7695-0.92188-0.76953-0.61719-1.0781-1.3828-1.0781-2.1523s0.46094-1.5391 1.0781-2.1523c1.5391-1.2305 4.1523-1.2305 5.6914 0 0.76953 0.61719 1.0781 1.3828 1.0781 2.1523h2.3086c0-1.5391-0.61719-2.9219-1.8477-4-0.92188-0.76953-2-1.2305-3.2305-1.3828v-3.5391h-2.3086v3.5391c-1.2305 0.15234-2.3086 0.61719-3.2305 1.3828-1.2305 1.0781-1.8477 2.4609-1.8477 4 0 1.5391 0.61719 2.9219 1.8477 4 1.2305 1.0781 2.7695 1.5391 4.3086 1.5391 1.0781 0 2.1523 0.30859 2.7695 0.92188 0.76953 0.61719 1.0781 1.3828 1.0781 2.1523 0 0.76953-0.46094 1.5391-1.0781 2.1523-1.5391 1.2305-4.3086 1.2305-5.6914 0z"/>
  <path d="m39.23 73.539h20.617v2.3086h-20.617z"/>
  <path d="m39.23 68h20.617v2.3086h-20.617z"/>
 </g>
</svg>
