<svg id="Layer_15" data-name="Layer 15" xmlns="http://www.w3.org/2000/svg" viewBox="0 0 501.13 250.73"><defs><style>.cls-1{fill:#404040;}</style></defs><title>simple_pricing</title><path class="cls-1" d="M259.06,269.55c-.47.45-.94.89-1.38,1.37a14.64,14.64,0,0,0-1.35,1.86,27.25,27.25,0,0,0-1.71,3.11c-1.19,1.19-2.42,2.33-3.64,3.49-1.91,1.81-4,3.49-5.94,5.22l-6.78,5.21c-1.58,1.21-3.2,2.34-4.83,3.48q-10.79,7.55-21.63,15a3.57,3.57,0,0,0-1.57,2,3.41,3.41,0,0,0,5,3.85q8.4-5.79,16.75-11.62c3.34-2.33,6.73-4.59,10-7.08l6.71-5.16q.7-.54,1.37-1.1c-.49,2.15-.9,4.32-1.31,6.48-.88,4.6-1.69,9.21-2.52,13.81-1.43,8-2.88,16.1-4.45,24.12-3.35,17-7,34-10,51.07-1.59,9.07-3.16,18.13-4.53,27.23-1.28,8.47-2.24,17-3.32,25.46q-.41,2.26-.81,4.51c-.25,1.39-.63,2.74-1,4.11a69.21,69.21,0,0,1-2.49,8.29,14.81,14.81,0,0,1-.9,1.56,12.84,12.84,0,0,1-.95.93A22.72,22.72,0,0,1,214,459a46.9,46.9,0,0,1-5.11,1.69h-.52c-2.68-.08-5.37-.19-8,0-1.6.09-3.16.22-4.76.4-1.2.14-2.39.3-3.58.51a22.48,22.48,0,0,0-2.51.62,7.5,7.5,0,0,0-3,1.78,4.19,4.19,0,0,0,.84,6.53l.46.26a4.13,4.13,0,0,0,2.08.56,10.87,10.87,0,0,0,1.81,0c.69,0,1.39-.11,2.08-.16,1.22-.11,2.45-.27,3.67-.45,2-.31,4-.64,6.05-1l2.52-.5c2.72.06,5.43.18,8.15.26,7.77.24,15.57.43,23.29,1.39a85.85,85.85,0,0,1,12,2.63c2,.61,4,1.33,6.06,2,2.6.91,5.15,1.93,7.71,3,1.12.48,2.23,1,3.34,1.47.86.39,1.71.78,2.59,1.15a9.64,9.64,0,0,0,1.91.64,4.68,4.68,0,0,0,1.81.13,5.87,5.87,0,0,0,2.67-.84,4.38,4.38,0,0,0-2.73-8.12c-1-.34-2-.8-3-1.21l-3.48-1.42c-1.93-.78-3.88-1.52-5.82-2.26s-4.22-1.5-6.34-2.23A84.44,84.44,0,0,0,236.7,462c-4.18-.5-8.4-.73-12.61-.89a13.78,13.78,0,0,0,2.19-3.35,25.47,25.47,0,0,0,1.25-3.16c.69-2,1.41-4,1.95-6l1-3.72c.25-1,.4-1.94.6-2.91.92-4.64,1.47-9.33,2.07-14q.13-1,.26-2c.54-3.93,1.08-7.87,1.68-11.79q1.08-7,2.27-14c1.47-8.69,3-17.36,4.65-26,1.57-8.45,3.29-16.87,5-25.29q2.62-13,4.93-26c1-5.72,2-11.45,3-17.18.5-2.88,1-5.75,1.53-8.62a85.15,85.15,0,0,1,4.43-16.71c.28-.64.57-1.29.87-1.92.67-.72,1.26-1.5,1.91-2.23a8.11,8.11,0,0,0,.88-1.07,5.57,5.57,0,0,0,.76-1.59,4.24,4.24,0,0,0-.56-3.25,3.59,3.59,0,0,0-3.09-1.78,3.73,3.73,0,0,0-2.56,1.05Zm-35.3,168.72v0a.08.08,0,0,1,0,0v-.07Zm-5.39,18.1-.2.15.2-.15Zm19.4,14.49.38,0-.38,0Z" transform="translate(-185.28 -268.5)"/><path class="cls-1" d="M503.9,377.88l-1.17.19c-5.41.67-10.85,1.19-16.28,1.7-3.33.31-6.68.75-10,.94l-10.31.6-5.92.35c-.88,0-1.76.16-2.64.15l-8.84-.05-13.41-.08c-4.9,0-9.78-.26-14.68-.46a7.2,7.2,0,0,0-5.09,12.28,7.35,7.35,0,0,0,5.09,2.11c4.9.2,9.78.43,14.68.44h22.25c.87,0,1.77-.14,2.64-.22l6.51-.53,9.74-.8c1.86-.15,3.74-.52,5.59-.78l6.6-.94c3-.42,5.91-.94,8.86-1.43a72.36,72.36,0,0,0,9.53-2.14,5.89,5.89,0,0,0,1.4-10.76,5.45,5.45,0,0,0-2.85-.75,10.12,10.12,0,0,0-1.68.16Z" transform="translate(-185.28 -268.5)"/><path class="cls-1" d="M464.11,350.13c-.38.87-.78,1.72-1.15,2.59a20.21,20.21,0,0,0-.85,2.63c-.51,2-.87,4-1.19,5.95-.44,2.71-.82,5.44-1.29,8.14q-.83,4.78-1.66,9.55-1.44,8.2-2.86,16.42c-.4,2.29-.85,4.59-1.18,6.9q-.72,5-1.45,10.08c-.41,2.86-.65,5.76-1,8.63-.12,1.17-.16,2.34-.23,3.51l-.13,2.2c0,.54,0,1.09,0,1.63,0,.88,0,1.76.08,2.64l.16,1.82c.09,1,.28,2,.46,3.06a2.89,2.89,0,0,0,1.37,1.78,3,3,0,0,0,4.08-1.07,3.21,3.21,0,0,0,.3-2.3c-.07-.42-.14-.84-.21-1.25a51.67,51.67,0,0,1-.25-6.8c.08-1.54.15-3.08.23-4.63.05-1.11.19-2.22.28-3.33.2-2.35.4-4.7.68-7.05l1-8.36c1.6-11,3.2-22,4.88-32.92.37-2.45.65-4.91,1-7.37.24-1.73.52-3.44.87-5.15q.11-.55.24-1.1a2,2,0,0,0,1.43-.6,1.94,1.94,0,0,0,.6-1.44c-.15-1.22-.32-2.44-.49-3.66a2,2,0,0,0-1.43-1.43,2,2,0,0,0-.52-.07,2,2,0,0,0-1.8,1Zm1.07,12.66,0,.16,0-.16Z" transform="translate(-185.28 -268.5)"/><path class="cls-1" d="M677.75,281.31c-3,2.05-5.24,5.19-7.17,8.26a56.88,56.88,0,0,0-4.07,7.95l-.72.68-6.48,6c-3.39,3.14-6.94,6.13-10.57,9A182.57,182.57,0,0,1,629,326a3.89,3.89,0,0,0,3.92,6.72,189.17,189.17,0,0,0,18.65-12c3.31-2.47,6.54-5.11,9.66-7.84-1.63,6.12-2.87,12.33-4,18.56-.4,2.17-.69,4.37-1,6.55l-1.7,10.81c-.7,4.45-1.35,8.91-2,13.37-1.61,10.75-3.29,21.48-5,32.21-.85,5.39-1.88,10.75-2.81,16.12q-1.18,6.75-2.43,13.48c-.88,4.8-1.77,9.61-2.62,14.42-.92,5.19-1.9,10.37-2.73,15.58l-2,13c-.59,3.68-1,7.39-1.56,11.09-.5,3.51-.92,7-1.38,10.54-.24,1.84-.44,3.68-.66,5.52-.1.81-.15,1.62-.23,2.42,0,.51-.09,1-.14,1.52s0,1.21-.05,1.82l0,0-1.5-.21c-2.41-.35-4.81-.72-7.23-1l-9.39-1c-1.86-.2-3.77-.22-5.64-.27a56,56,0,0,0-6.29.23,41.21,41.21,0,0,0-6,1,10.72,10.72,0,0,0-2.43,1,7.14,7.14,0,0,0-2.4,2.71,4.5,4.5,0,0,0-.46,3.5,4.32,4.32,0,0,0,2.09,2.71c.75.32,1.48.64,2.25.9a9.24,9.24,0,0,0,2.45.25l2.15,0,4.09.06c2.49,0,5,.09,7.47.14l8.12.17a81.56,81.56,0,0,0,10.23-.1c.79-.08,1.56-.18,2.33-.32,1.57.23,3.14.47,4.71.73,5.36.89,10.72,1.81,16.06,2.81,4.57.86,9.13,1.76,13.7,2.63l7.69,1.47c2.44.46,4.92.83,7.31,1.51a4.4,4.4,0,0,0,4.78-.92A4.33,4.33,0,0,0,686,516a4.22,4.22,0,0,0-.44-3.38,6,6,0,0,0-1.77-1.83,16.62,16.62,0,0,0-2.25-1,19.61,19.61,0,0,0-2.22-.65c-1.16-.31-2.34-.54-3.51-.81-2.56-.57-5.15-1.08-7.72-1.61-5-1-10-2.06-15-3-4-.76-7.92-1.47-11.88-2.15.23-.88.42-1.77.56-2.68.45-2.79.85-5.59,1.25-8.39.71-5,1.39-10.06,2.09-15.09,1.49-10.68,3.22-21.32,5-32,1.59-9.39,3.3-18.76,4.84-28.16q1.46-8.9,2.92-17.8c.93-5.67,1.66-11.38,2.49-17.06,1.33-9.12,2.5-18.26,3.83-27.38L666.86,335c.73-5,1.67-10,2.76-14.9a121.5,121.5,0,0,1,5.89-19.74q.28-.64.57-1.27l1.39-1.37c1.48-1.44,2.93-2.91,4.3-4.46a46.51,46.51,0,0,0,3.07-3.92,11.05,11.05,0,0,0,1.1-2.2,5.44,5.44,0,0,0,.33-3.46,5.27,5.27,0,0,0-3.64-3.45,4.35,4.35,0,0,0-1.16-.15,6.87,6.87,0,0,0-3.72,1.29ZM631,499.11v0Zm-34,8.67h0l-.3,0,.3,0Z" transform="translate(-185.28 -268.5)"/></svg>