<svg id="Layer_8" data-name="Layer 8" xmlns="http://www.w3.org/2000/svg" xmlns:xlink="http://www.w3.org/1999/xlink" viewBox="0 0 834.28 785.19"><defs><style>.cls-1{fill:#eebf70;}.cls-2{fill:#faf175;}.cls-3{fill:url(#linear-gradient);}.cls-4{fill:url(#linear-gradient-2);}.cls-5{fill:url(#linear-gradient-3);}</style><linearGradient id="linear-gradient" x1="390.47" y1="472.77" x2="390.51" y2="472.79" gradientUnits="userSpaceOnUse"><stop offset="0" stop-color="#fff" stop-opacity="0"/><stop offset="0.86" stop-color="#888" stop-opacity="0.21"/><stop offset="1" stop-opacity="0.45"/></linearGradient><linearGradient id="linear-gradient-2" x1="389.49" y1="474.3" x2="389.57" y2="474.33" xlink:href="#linear-gradient"/><linearGradient id="linear-gradient-3" x1="20.38" y1="171.44" x2="491.69" y2="391.22" xlink:href="#linear-gradient"/></defs><title>swift_upload</title><path class="cls-1" d="M846.19,580.1a1.94,1.94,0,0,1-1.7,2.12l-1.65.11a2.25,2.25,0,0,0,.37-1.5,23.79,23.79,0,0,0-.3-2.36l1.17-.08a2.18,2.18,0,0,1,1,.18A1.86,1.86,0,0,1,846.19,580.1Z" transform="translate(-11.92 -6.13)"/><path class="cls-1" d="M843.21,580.83a2.25,2.25,0,0,1-.37,1.5c-.67,0-1.33.07-2,.06l-2.19,0a26.11,26.11,0,0,1-3.49-3.94l2.4.11,2.87,0c.81,0,1.64,0,2.47-.1A23.79,23.79,0,0,1,843.21,580.83Z" transform="translate(-11.92 -6.13)"/><path class="cls-1" d="M795.24,522.69c-2.47-2.57-5.09-5-7.71-7.38s-5-4.68-7.64-6.91c-5.28-4.54-10.41-9.25-15.65-13.84-2.85-2.49-5.67-5-8.56-7.48s-5.86-4.78-8.78-7.17-5.42-4.77-8.18-7.1q-2.74-2.32-5.51-4.59a2.89,2.89,0,0,0,.67-1.45,3,3,0,0,0-.51-2.15,3.22,3.22,0,0,0-1.24-1,1.82,1.82,0,0,0-.71-.18c-1,0-2,0-3,0a2.56,2.56,0,0,1,3.62-2.69,2.43,2.43,0,0,1,.57.35c4,3.27,8.15,6.37,12.23,9.56s7.93,6.2,11.88,9.32c2.83,2.23,5.55,4.57,8.24,7,2.86,2.53,5.75,5,8.57,7.59s5.42,5,8.2,7.38,5.48,4.84,8.16,7.33,5.67,5.16,8.5,7.75q4,3.6,7.67,7.46c2.56,2.66,5.13,5.32,7.65,8a95.09,95.09,0,0,1,7.36,8.91c2.26,3.11,4.58,6.17,6.81,9.3s4.16,6.09,6.17,9.19A81.6,81.6,0,0,1,840,569.89,40.8,40.8,0,0,1,842,575a30.7,30.7,0,0,1,.85,3.3,1.25,1.25,0,0,1,0,.19c-.83,0-1.66.11-2.47.1l-2.87,0-2.4-.11c-.35-.49-.68-1-1-1.5-1.38-2.22-2.69-4.48-4.16-6.63s-2.92-4.23-4.37-6.35-2.8-4.38-4.19-6.57c-2-3.17-4.17-6.23-6.23-9.36s-4-6.1-6.2-9-4.84-5.89-7.27-8.83c-2.09-2.53-4.2-5-6.42-7.43l-.08-.08Z" transform="translate(-11.92 -6.13)"/><path class="cls-1" d="M840.85,582.39c.66,0,1.32,0,2-.06a2.37,2.37,0,0,1-3.55.61l-.63-.57Z" transform="translate(-11.92 -6.13)"/><path class="cls-1" d="M838.66,582.37h-1c-2.21,0-4.43-.17-6.64-.29-2.83-.14-5.67-.28-8.49-.52-3-.25-6.05-.58-9.07-1s-5.9-.71-8.85-1-5.69-.52-8.53-.84c-5.89-.66-11.74-1.67-17.61-2.52s-11.63-1.61-17.44-2.45c-3-.43-6-.9-8.93-1.44a88.73,88.73,0,0,1-8.94-2.29,152.75,152.75,0,0,1-16.58-6.17l1.11-.87a2.89,2.89,0,0,0,1.16-1.87,2.83,2.83,0,0,0-.5-2.07,2.87,2.87,0,0,0-1.14-.93,2.75,2.75,0,0,0-2.8.27l-.46.36a3.5,3.5,0,0,1,1.88-1.71,3.6,3.6,0,0,1,2.66.08c4,1.53,7.94,3.06,11.93,4.54,3.64,1.35,7.33,2.53,11,3.69,2.51.74,5,1.43,7.59,2,2.87.67,5.77,1.25,8.67,1.8,5.64,1.09,11.32,2,17,2.92,2.92.49,5.84,1,8.77,1.43s6.08.83,9.13,1.21c2.82.35,5.64.71,8.45,1.14,3,.45,6,.93,9,1.3,5,.63,10.07,1,15.12,1.23A26.11,26.11,0,0,0,838.66,582.37Z" transform="translate(-11.92 -6.13)"/><path class="cls-2" d="M834.17,576.93c.32.51.65,1,1,1.5-5-.25-10.11-.6-15.12-1.23-3-.37-6-.85-9-1.3-2.81-.43-5.63-.79-8.45-1.14-3-.38-6.09-.77-9.13-1.21s-5.85-.94-8.77-1.43c-5.66-1-11.34-1.83-17-2.92-2.9-.55-5.8-1.13-8.67-1.8-2.55-.6-5.08-1.29-7.59-2-3.7-1.16-7.39-2.34-11-3.69-4-1.48-8-3-11.93-4.54a3.6,3.6,0,0,0-2.66-.08,3.5,3.5,0,0,0-1.88,1.71c-2.6,2-5.18,4.09-7.85,6a69.46,69.46,0,0,1-7.78,4.76q-3,1.61-6,3.25c-1.85,1-3.69,2.05-5.55,3.06s-3.67,1.82-5.55,2.63-3.92,1.67-5.86,2.58-3.9,1.83-5.83,2.79c-1.18.59-2.36,1.2-3.52,1.84a30.66,30.66,0,0,0-2.6,1.64c-.86.59-1.81,1-2.67,1.61s-1.68,1.24-2.54,1.82l-.61.28a1.06,1.06,0,0,0-.41.34,191.28,191.28,0,0,0-15.44-13.86c-5.34-4.28-10.91-8.28-16.49-12.24-2.85-2-5.65-4.08-8.43-6.18s-5.48-4-8.34-5.77-6-3.66-9.07-5.34-6.3-3.49-9.43-5.26c-1.54-.87-3.1-1.7-4.7-2.42l-.56-.25a26.38,26.38,0,0,0-3.94-1.31c.59-2.74,1.16-5.47,1.68-8.23.48-2.58.92-5.17,1.38-7.75q2.78-15.6,5.59-31.19l.12,0c2.22-.86,4.48-1.57,6.74-2.31q3.14-1,6.31-1.94c3-.68,6-1.26,9.07-1.78s6.06-1,9.06-1.59c3.21-.66,6.41-1.44,9.65-1.93s6.53-1,9.79-1.53,6.23-1.07,9.35-1.58,6.31-1.09,9.48-1.64,6.33-1,9.52-1.32c3.41-.37,6.79-.82,10.17-1.37,6.43-1.06,12.81-2.45,19.24-3.48,3.14-.5,6.31-.8,9.47-1.15,1.48-.16,3-.34,4.44-.45,1.81-.14,3.6-.23,5.41-.3.92,0,1.86,0,2.78,0h.76a3,3,0,0,0,2-.52,2.47,2.47,0,0,0,.53-.49q2.76,2.26,5.51,4.59c2.76,2.33,5.39,4.81,8.18,7.1s5.9,4.73,8.78,7.17,5.71,5,8.56,7.48c5.24,4.59,10.37,9.3,15.65,13.84,2.61,2.23,5.11,4.59,7.64,6.91s5.24,4.81,7.71,7.38h0l.08.08c2.22,2.41,4.33,4.9,6.42,7.43,2.43,2.94,4.93,5.82,7.27,8.83s4.21,5.94,6.2,9,4.22,6.19,6.23,9.36c1.39,2.19,2.72,4.43,4.19,6.57s2.93,4.22,4.37,6.35S832.79,574.71,834.17,576.93Z" transform="translate(-11.92 -6.13)"/><path class="cls-1" d="M733.37,464.62a3,3,0,0,1,.51,2.15,2.89,2.89,0,0,1-.67,1.45q-1.93-1.62-3.89-3.21a2.58,2.58,0,0,1-.9-1.63c1,0,2,0,3,0a1.82,1.82,0,0,1,.71.18A3.22,3.22,0,0,1,733.37,464.62Z" transform="translate(-11.92 -6.13)"/><path class="cls-1" d="M729.32,465q2,1.59,3.89,3.21a2.47,2.47,0,0,1-.53.49,3,3,0,0,1-2,.52H730c-.92,0-1.86-.05-2.78,0-1.81.07-3.6.16-5.41.3-1.48.11-3,.29-4.44.45-3.16.35-6.33.65-9.47,1.15-6.43,1-12.81,2.42-19.24,3.48-3.38.55-6.76,1-10.17,1.37-3.19.35-6.36.77-9.52,1.32s-6.32,1.13-9.48,1.64-6.24,1.06-9.35,1.58-6.53,1-9.79,1.53-6.44,1.27-9.65,1.93c-3,.61-6,1.07-9.06,1.59s-6.07,1.1-9.07,1.78q-3.18.9-6.31,1.94c-2.26.74-4.52,1.45-6.74,2.31l-.12,0c.11-.65.23-1.31.35-2,.24-1.3.47-2.61.71-3.91a46.45,46.45,0,0,1,4.65-2.13c1.41-.54,2.81-1.06,4.25-1.53,1.28-.41,2.57-.76,3.87-1.1,2.73-.73,5.53-1.3,8.29-1.91,2.45-.54,4.88-1.09,7.31-1.67,4-1,8.07-2.17,12.18-2.92,3.94-.73,7.9-1.4,11.85-2.09,3.29-.57,6.58-1.07,9.88-1.6s6.31-1.08,9.48-1.51,6.33-.64,9.5-1,6.33-.83,9.49-1.3,6.49-1,9.72-1.49,6.47-1,9.73-1.29,6.46-.47,9.69-.65c2.71-.15,5.41-.2,8.11-.17A2.58,2.58,0,0,0,729.32,465Z" transform="translate(-11.92 -6.13)"/><path class="cls-1" d="M728.33,559.07a2.83,2.83,0,0,1,.5,2.07,2.89,2.89,0,0,1-1.16,1.87l-1.11.87-.94-.39a3.51,3.51,0,0,1-1.75-4.6l.06-.12.46-.36a2.75,2.75,0,0,1,2.8-.27A2.87,2.87,0,0,1,728.33,559.07Z" transform="translate(-11.92 -6.13)"/><path class="cls-1" d="M725.62,563.49l.94.39c-1.64,1.3-3.29,2.58-4.94,3.88s-3.44,2.6-5.25,3.78-3.62,2.22-5.47,3.27-3.83,2.21-5.74,3.34-3.79,2.26-5.73,3.3c-1.15.63-2.3,1.27-3.48,1.82l-3.22,1.45c-4,1.74-8,3.35-12.11,4.71-2,.67-4.07,1.08-6.05,1.8-.45.15-.89.33-1.34.47a12.87,12.87,0,0,1-1.74.39c-.91.16-1.82.32-2.74.42l-.4.14-.8-.81-.44-.44a1.06,1.06,0,0,1,.41-.34l.61-.28c.86-.58,1.67-1.25,2.54-1.82s1.81-1,2.67-1.61a30.66,30.66,0,0,1,2.6-1.64c1.16-.64,2.34-1.25,3.52-1.84,1.93-1,3.88-1.87,5.83-2.79s3.9-1.73,5.86-2.58,3.73-1.69,5.55-2.63,3.7-2,5.55-3.06q3-1.65,6-3.25a69.46,69.46,0,0,0,7.78-4.76c2.67-1.94,5.25-4,7.85-6l-.06.12A3.51,3.51,0,0,0,725.62,563.49Z" transform="translate(-11.92 -6.13)"/><path class="cls-1" d="M709.12,756.78c.68,2.51,1.43,5,2.21,7.47s1.6,5.22,2.41,7.84a66.92,66.92,0,0,0,2.89,7.59c.54,1.21,1.08,2.41,1.61,3.62l.78,1.82a10.92,10.92,0,0,1,.88,2.62,3.24,3.24,0,0,1-5.28,2.84,3.33,3.33,0,0,1-.57-.62,3.25,3.25,0,0,1-.35-.63c-.16-.29-.31-.58-.46-.88-1-1.52-2.12-3-3.2-4.42-1.32-1.8-2.74-3.51-4.22-5.19a81.38,81.38,0,0,0-6.19-6c-2.55-2.17-5.12-4.31-7.7-6.45L690.22,765a1.47,1.47,0,0,0,1.54-.5,1.59,1.59,0,0,0-.21-2.22c-4.3-3.48-8.49-7.06-12.51-10.85a1.63,1.63,0,0,1,1.51.31l3.06,2.53c2.8,2.32,5.59,4.65,8.41,6.95,2.6,2.11,5.24,4.18,7.83,6.3s5.31,4.41,7.8,6.8c-.4-1.39-.78-2.79-1.18-4.19-.95-3.4-1.95-6.77-2.67-10.22a44.27,44.27,0,0,1-.89-5.08c-.16-1.76-.28-3.51-.41-5.27a74.23,74.23,0,0,1-.09-10.44,69.6,69.6,0,0,1,1-9.56c.66-3.18,1.35-6.37,2.11-9.53.4-1.63.85-3.25,1.22-4.89a33.71,33.71,0,0,0,.72-4.68c.27-3.18.52-6.35.62-9.54a43.88,43.88,0,0,0-.86-9.57c-.66-3.1-1.26-6.2-2-9.28q-.64-2.71-1.28-5.41c-.65-2.55-1.39-5.07-2.09-7.6s-1.39-5.24-2.21-7.82c-1-3.14-2.31-6.16-3.44-9.24s-2.1-6.17-3.23-9.23c-.58-1.58-1.17-3.16-1.83-4.71s-1.31-2.91-1.9-4.4-1.14-3.14-1.8-4.67-1.22-2.71-1.9-4c-1-1.83-2.11-3.62-3.31-5.34s-2.58-3.6-4-5.34-2.86-3.6-4.34-5.36-2.92-3.32-4.43-4.94l.14.14c-2.16-2.32-4.3-4.65-6.45-7q-4.86-5.18-9.92-10.14a132.15,132.15,0,0,0-10.58-9.19c-5.45-4.35-11-8.56-16.52-12.84-2.67-2.07-5.26-4.24-8-6.21s-5.67-3.92-8.59-5.77c-3.78-2.35-7.52-4.76-11.27-7.16-1.14-.7-2.3-1.4-3.46-2.08a26.54,26.54,0,0,0-4.82-2.05c.17-.69.35-1.38.5-2.08.06-.27.12-.55.17-.82a26.38,26.38,0,0,1,3.94,1.31l.56.25c1.6.72,3.16,1.55,4.7,2.42,3.13,1.77,6.26,3.54,9.43,5.26s6.1,3.46,9.07,5.34,5.64,3.73,8.34,5.77,5.58,4.16,8.43,6.18c5.58,4,11.15,8,16.49,12.24a191.28,191.28,0,0,1,15.44,13.86.86.86,0,0,0-.1.81.9.9,0,0,0,1.15.52l.19-.08c2.13,2.13,4.21,4.3,6.31,6.43,2.58,2.61,5,5.3,7.4,8.1,2.15,2.53,4.29,5.07,6.31,7.7A87.61,87.61,0,0,1,694,623.5c1.66,2.81,3.15,5.72,4.74,8.57a58.2,58.2,0,0,1,2.65,5.3c.65,1.52,1.25,3.06,1.84,4.6,1.16,3,2.17,6.09,3.31,9.12s2.28,6.29,3.15,9.54c1,3.6,1.66,7.29,2.37,10.94.63,3.3,1.17,6.62,1.64,9.94.23,1.6.43,3.21.6,4.81s.4,3.47.47,5.21a48.4,48.4,0,0,1-.06,5.9c-.12,1.64-.31,3.27-.51,4.91-.41,3.31-.81,6.61-1.25,9.91a34.49,34.49,0,0,1-1,4.62c-.43,1.65-.86,3.29-1.27,4.94s-.76,3.15-1.19,4.72-.88,3.1-1.19,4.68a70.59,70.59,0,0,0-1.15,9.5,52.06,52.06,0,0,0,.52,8c.37,2.65.76,5.28,1.35,7.89C709.09,756.65,709.1,756.72,709.12,756.78Z" transform="translate(-11.92 -6.13)"/><path class="cls-2" d="M391,472h0l0,0-.09.15h0c-.08.14-.16.28-.25.42a1.09,1.09,0,0,1,.08-.15l-.09.15c-.05.08-.1.18-.16.26v0l-.08.13v0a2.39,2.39,0,0,0-.13.21l-.11.17-.18.29-.16.26c-.12.19-.24.38-.35.57l-.14.21a3.45,3.45,0,0,1-.2.32c-.11.18-.22.35-.32.53a129.78,129.78,0,0,0-8.27,15.92,2.62,2.62,0,0,0,3.32,3.52,2.85,2.85,0,0,0,1.46-1.38c1.33-2.18,2.68-4.36,4-6.55,3.64-5.72,7.34-11.44,11.53-16.78,2.14-2.74,4.5-5.29,6.87-7.82s4.73-5,7-7.64,4.28-5.16,6.38-7.77,4.28-5.2,6.52-7.73c4.48-5.09,9.32-9.86,14-14.74s9.32-9.48,14.09-14.12q3.56-3.45,7-7c2.13-2.17,4.27-4.32,6.48-6.42,5.1-4.56,10.33-9,15.35-13.63,2.72-2.53,5.46-5,8.27-7.45,2.64-2.3,5.42-4.46,8.16-6.65,1.93-1.54,3.91-3,5.88-4.5a2.9,2.9,0,0,0,1.14-2.06l1.42-3.09a1.38,1.38,0,0,0,.12-.56h0a1.93,1.93,0,0,0,.21-1.09c-.2-2.47-.48-4.91-.82-7.36-.31-2.27-.69-4.52-1-6.79s-.52-4.52-.68-6.79-.18-4.5-.17-6.75c0-5.14-.1-10.29,0-15.44h0v-.1c0-1,.07-2.08.17-3.13s.28-2.29.44-3.43c.34-2.3.71-4.59,1-6.89s.65-4.55,1.13-6.8,1-4.56,1.54-6.83c1.32-5.7,2.93-11.34,4.57-16.95l.18-.6c2.64-8.82,5-17.71,7.58-26.55.64-2,1.3-4.09,2.07-6.1.85-2.25,1.75-4.48,2.65-6.71s1.7-4.16,2.61-6.21c.68-1.52,1.41-3,2.15-4.5.3.29.59.6.88.9a105.28,105.28,0,0,1,8.22,10.48c1.23,1.72,2.46,3.45,3.56,5.26s2.11,3.58,3.1,5.41c2.39,4.57,4.77,9.15,6.93,13.83,1.19,2.58,2.37,5.16,3.5,7.77,1.06,2.45,2.11,4.91,3.18,7.36,2.13,4.87,4.45,9.66,6.74,14.46s4.38,9.5,6.43,14.31c1.1,2.57,2.2,5.14,3.26,7.74s2,5.1,2.93,7.68c1.74,4.87,3.2,9.84,4.54,14.82.51,1.94,1,3.87,1.5,5.81a1.74,1.74,0,0,0,.05.22c1.16,5,2.27,9.93,3.25,14.93.53,2.66,1,5.32,1.54,8s1,5.21,1.49,7.83c.91,5.14,1.38,10.33,2,15.5.67,5.34,1.49,10.66,2.57,15.93.49,2.4,1.08,4.77,1.73,7.13a1.92,1.92,0,0,0,0,.92c.1.34.19.69.27,1,.26,1.15.51,2.3.72,3.46s.32,2.47.42,3.71c.12,1.49.2,3,.19,4.47,0,1.94,0,3.88,0,5.82-.14,2.69-.27,5.38-.49,8.07-.23,2.86-.49,5.72-.75,8.59q-.78,8.58-1.65,17.17c-.25,2.51-.55,5-.91,7.51-.21,1.45-.36,2.91-.63,4.35-.31,1.67-.62,3.34-.94,5-.46,2.47-1,4.92-1.55,7.38-.38,1.79-.76,3.57-1.13,5.36-.21,1-.41,2-.62,2.95-2.28,11.13-4.6,22.25-6.78,33.41-.65,3.28-1.28,6.56-2,9.82-.3,1.3-.57,2.62-.89,3.92-.09.36-.18.71-.28,1.07l-1.5,5.56c-.71,2.3-1.4,4.62-2.19,6.9q-.78,2.29-1.57,4.59c-.49,1.43-1.05,2.84-1.58,4.26-1.92,5.17-4.06,10.26-6.22,15.34q-1.84,4.34-3.68,8.66a3.44,3.44,0,1,0,6.28,2.82c2.53-5.36,4.87-10.82,7.19-16.28.5-1.18.94-2.39,1.41-3.58s.85-2.15,1.24-3.24q.89-2.48,1.79-4.95c.46-1.27.85-2.57,1.27-3.85,1-3,1.86-6,2.76-9,.35-1.21.63-2.45.94-3.67l.36-1.37a26.54,26.54,0,0,1,4.82,2.05c1.16.68,2.32,1.38,3.46,2.08,3.75,2.4,7.49,4.81,11.27,7.16,2.92,1.85,5.78,3.75,8.59,5.77s5.32,4.14,8,6.21c5.51,4.28,11.07,8.49,16.52,12.84A132.15,132.15,0,0,1,653.27,587q5.06,5,9.92,10.14c2.15,2.33,4.29,4.66,6.45,7l-.14-.14c1.51,1.62,3,3.25,4.43,4.94s2.92,3.55,4.34,5.36,2.69,3.52,4,5.34,2.27,3.51,3.31,5.34c.68,1.32,1.32,2.65,1.9,4s1.19,3.12,1.8,4.67,1.29,2.93,1.9,4.4,1.25,3.13,1.83,4.71c1.13,3.06,2.11,6.17,3.23,9.23s2.44,6.1,3.44,9.24c.82,2.58,1.49,5.2,2.21,7.82s1.44,5.05,2.09,7.6q.63,2.7,1.28,5.41c.72,3.08,1.32,6.18,2,9.28a43.88,43.88,0,0,1,.86,9.57c-.1,3.19-.35,6.36-.62,9.54a33.71,33.71,0,0,1-.72,4.68c-.37,1.64-.82,3.26-1.22,4.89-.76,3.16-1.45,6.35-2.11,9.53a69.6,69.6,0,0,0-1,9.56,74.23,74.23,0,0,0,.09,10.44c.13,1.76.25,3.51.41,5.27a44.27,44.27,0,0,0,.89,5.08c.72,3.45,1.72,6.82,2.67,10.22.4,1.4.78,2.8,1.18,4.19-2.49-2.39-5.13-4.61-7.8-6.8s-5.23-4.19-7.83-6.3c-2.82-2.3-5.61-4.63-8.41-6.95l-3.06-2.53a1.63,1.63,0,0,0-1.51-.31l-2.32-2.23c-2.15-2.11-4.11-4.41-6.38-6.41s-4.83-3.86-7.29-5.74c-5.34-4.07-10.49-8.4-15.8-12.52a193.07,193.07,0,0,0-16.35-11.65q-4.33-2.69-8.57-5.5c-2.53-1.66-5-3.4-7.56-5a135.46,135.46,0,0,0-17.51-9.63c-3-1.32-6.07-2.57-9.16-3.7s-6.27-2.17-9.43-3.17-6.4-1.88-9.61-2.76-6.3-1.74-9.44-2.65l-.32-.09-.11,0-.12,0c-3.19-1-6.36-1.88-9.55-2.8s-6.18-1.65-9.27-2.47c-3.32-.86-6.62-1.81-10-2.58s-6.86-1.44-10.33-2-6.88-.89-10.32-1.23c-1.77-.17-3.52-.38-5.27-.61s-3.52-.6-5.27-.93c-6.62-1.25-13.21-2.61-19.76-4.18-3.14-.75-6.28-1.49-9.45-2.13s-6.65-1.33-10-2c-6.62-1.45-13.24-2.82-19.92-4-3.23-.54-6.46-1.06-9.7-1.49s-6.61-.85-9.87-1.5c-6.25-1.25-12.48-2.63-18.61-4.38-6.07-1.95-12-4.23-18-6.42-5.81-2.13-11.46-4.7-17.3-6.78-3-1.06-6-2.11-9-3.1-3.25-1.06-6.5-2.12-9.73-3.26a74.61,74.61,0,0,1-8.66-3.89c-2.72-1.38-5.37-2.9-8-4.5-1.9-1.24-3.78-2.51-5.61-3.85-2-1.5-4.12-3-6.06-4.62-3.89-3.31-7.57-6.88-11.12-10.55-3.2-3.52-6.16-7.23-9.22-10.87-1.73-2.07-3.46-4.15-5.17-6.24-1.48-1.81-2.87-3.7-4.26-5.57s-2.67-3.71-4-5.58c-1.52-2.15-3.06-4.3-4.5-6.51-2.6-4-4.86-8.17-7.11-12.34q-3.74-7.11-7.26-14.35c-1.29-2.65-2.58-5.29-3.84-8-1.17-2.5-2.24-5-3.3-7.61s-2.1-5-3.06-7.48-1.82-5.11-2.69-7.68q-2.62-7.8-4.63-15.78c-.66-2.77-1.25-5.56-1.83-8.36-.62-3-1.17-6.12-1.85-9.15s-1.48-6-2.23-9a67.35,67.35,0,0,0-2.61-8.58,70.69,70.69,0,0,0-4.36-8.81c-.79-1.39-1.58-2.78-2.45-4.11s-1.84-2.67-2.81-4l-.58-.74a2,2,0,0,0-.42-1.22c-1.39-1.86-2.88-3.66-4.31-5.49-.57-.74-1.12-1.5-1.7-2.23-.74-.94-1.48-1.86-2.25-2.78a53.52,53.52,0,0,0-4.67-5c-1.59-1.47-3.3-2.8-5-4.13s-3.35-2.53-5-3.77-3.4-2.51-5.14-3.71-3.33-2.34-5-3.56c-.87-.65-1.72-1.31-2.61-1.94s-1.76-1.2-2.65-1.78c-1.15-.75-2.3-1.5-3.49-2.16s-2.23-1.21-3.35-1.79-2.13-1.18-3.21-1.74l-.28-.13c-.46-.21-1-.36-1.44-.53-.63-.22-1.25-.46-1.87-.71h0c-1.68-.85-3.37-1.67-5.06-2.49-.47-.23-.93-.45-1.41-.66-1.31-.59-2.64-1.14-4-1.71-1.75-.76-3.54-1.43-5.31-2.12-3.3-1.3-6.67-2.41-10-3.49-1.94-.62-3.86-1.27-5.81-1.85l-6.7-2-1-.3,1.25-.54c1.15-.51,2.31-1,3.43-1.58l2.15-1.1c.7-.35,1.36-.75,2-1.13s1.61-.91,2.39-1.41,1.59-1,2.34-1.62,1.42-1.07,2.08-1.67c1-.9,2-1.79,2.92-2.73.4-.4.8-.78,1.18-1.19s.88-.91,1.28-1.4.77-.9,1.11-1.39a27.44,27.44,0,0,0,1.72-2.66,23.21,23.21,0,0,0,1.09-2.51c.17-.44.33-.9.48-1.36,1.28.64,2.57,1.27,3.82,1.95l3.62,1.95c.81.44,1.65.85,2.45,1.33l6,3.55,5.13,3.37c1.53,1,3,2.11,4.52,3.17,3,2.11,5.84,4.36,8.72,6.59,4.44,3.44,8.92,6.83,13.52,10.05a1.72,1.72,0,0,0,1.19.36,1.6,1.6,0,0,0,.85-2.82c-3.1-2.56-6.24-5.06-9.36-7.61l-4.6-3.75c-1.43-1.16-2.89-2.28-4.36-3.39l-2.2-1.69c-.68-.52-1.42-1-2.12-1.48l-2.84-2c-.51-.36-1-.68-1.56-1l-3.42-2.17c-.6-.37-1.19-.78-1.81-1.12l-5.93-3.36c-.47-.27-1-.51-1.44-.76-1.2-.6-2.39-1.22-3.59-1.83-1.58-.8-3.18-1.56-4.78-2.32-.59-.28-1.17-.56-1.76-.82-2.83-1.34-5.68-2.63-8.53-3.91-3.47-1.56-7-3.09-10.44-4.62s-6.82-3-10.26-4.47c-1.06-.45-2.12-.89-3.19-1.32,1.11-.39,2.23-.78,3.33-1.19,1.91-.71,3.78-1.52,5.64-2.36s3.39-1.7,5.07-2.59,3.36-1.74,5-2.63,3.57-2,5.36-2.95c.84-.41,1.68-.82,2.54-1.21s1.81-.77,2.73-1.15,1.62-.69,2.4-1.09c1.08-.55,2.12-1.12,3.17-1.73,1.61-.94,3.16-2,4.78-2.89s3.52-2,5.25-3.07,3.1-2.1,4.61-3.21,3.18-2.42,4.75-3.66,3.06-2.35,4.6-3.51,3-2.36,4.52-3.6,2.65-2.38,4-3.6,2.36-2.25,3.55-3.36c1.86-1.73,3.77-3.41,5.66-5.11,1.26-1.14,2.49-2.3,3.69-3.5-.07.33-.15.66-.22,1-.19.85-.32,1.71-.47,2.56-.31,1.75-.53,3.51-.76,5.27-.47,3.43-.84,6.87-1,10.33,0,.77,0,1.56,0,2.34a20.93,20.93,0,0,0,.6,4.08c.16.65.32,1.27.52,1.91.1.32.21.64.32,1l-1.36,1.12c-.87.72-1.73,1.46-2.61,2.17s-2,1.51-3,2.25c-.51.38-1.08.7-1.61,1s-.82.51-1.24.75l-3.23,1.88c-2.32,1.35-4.6,2.78-6.79,4.34-2.37,1.69-4.75,3.37-7.07,5.13a2.42,2.42,0,0,0,1,4.37,2.57,2.57,0,0,0,1.78-.42l.88-.5,1.24.41c.61.22,1.23.4,1.83.64l2,.81c1.12.44,2.2,1,3.29,1.52.49.23,1,.54,1.42.81l1.55.88c1.22.78,2.44,1.55,3.63,2.37.71.48,1.43.95,2.13,1.46l2.25,1.64a75.24,75.24,0,0,1,7.11,5.86c1.11,1,2.2,2.1,3.29,3.17.89.87,1.74,1.78,2.6,2.69,2.09,2.33,4.16,4.67,6.1,7.12,1,1.24,1.94,2.48,2.94,3.69s2.1,2.53,3.18,3.76c1.46,1.65,2.87,3.33,4.34,5,.74.81,1.48,1.62,2.21,2.45.37.42.74.84,1.09,1.27s.8,1,1.19,1.55a.92.92,0,0,0,1.25.21.9.9,0,0,0,.21-1.24,22.55,22.55,0,0,1-1.47-2.05c-.42-.68-.82-1.36-1.23-2-.83-1.39-1.68-2.76-2.61-4.08s-1.91-2.6-2.88-3.9-1.87-2.56-2.79-3.85-1.92-2.68-2.9-4-2-2.49-3.05-3.71-2.09-2.37-3.19-3.5c-.59-.59-1.15-1.22-1.75-1.79s-1.4-1.3-2.09-2c-.53-.5-1.09-1-1.64-1.46s-1-.9-1.54-1.33l-2.1-1.69c-.7-.56-1.45-1.06-2.17-1.59-1.31-1-2.68-1.88-4-2.8-.62-.42-1.27-.81-1.91-1.21s-1.33-.86-2-1.26l-2.43-1.42c-.52-.31-1.06-.58-1.59-.85l-1.32-.7-.52-.26-2.46-1.08c-.58-.26-1.19-.46-1.78-.68s-1.25-.46-1.89-.68l-.22-.07c2.83-1.71,5.64-3.48,8.48-5.17,1-.59,2-1.15,3-1.72s1.86-1,2.74-1.6c.6-.41,1.21-.8,1.81-1.2s.93-.69,1.39-1c.88-.67,1.72-1.39,2.53-2.13,1.28-1.16,2.54-2.33,3.83-3.46.43-.38.86-.76,1.3-1.13,2.06-1.74,4.08-3.5,6-5.36,1.62-1.54,3.12-3.24,4.58-4.93s3.11-3.67,4.53-5.63,2.71-4,4-6.09a65.6,65.6,0,0,0,3.52-6.29c.2-.43.39-.86.58-1.29a29.57,29.57,0,0,0,.08,3,23.76,23.76,0,0,0,.61,3.47c.3,1.19.6,2.35.95,3.52.31,1,.64,2,1,3s.63,1.91,1,2.86c.08.22.16.43.25.64.09.44.17.89.24,1.34.24,1.46.38,2.93.56,4.39.4,3.19.81,6.36,1.37,9.52,1.14,6.45,3.73,12.52,6,18.64,1.12,3.07,2.22,6.12,3.58,9.1a97.69,97.69,0,0,0,4.86,8.94c1.64,2.78,3.48,5.43,5.31,8.08s3.66,5.12,5.54,7.65,3.8,5,5.88,7.36c2.33,2.61,4.7,5.18,7.15,7.67,2.25,2.3,4.56,4.53,7,6.64s5,4.28,7.54,6.4,5,4,7.46,6,4.94,4.11,7.43,6.13c5.21,4.24,11,7.61,16.75,11.05q6.46,3.85,12.86,7.8c4.27,2.63,8.56,5.22,12.84,7.84,5.5,3.47,11,7,16.72,10.07,2.9,1.52,5.8,3,8.77,4.39q4.77,2.19,9.59,4.25,2.44,1,4.9,2a2.71,2.71,0,0,0,.73.19A94.3,94.3,0,0,0,391,472Z" transform="translate(-11.92 -6.13)"/><path class="cls-1" d="M691.55,762.25a1.59,1.59,0,0,1,.21,2.22,1.47,1.47,0,0,1-1.54.5c-1.58-1.34-3.13-2.71-4.68-4.09-2.4-2.16-4.84-4.3-7.14-6.58a1.73,1.73,0,0,1-.22-2.37,1.63,1.63,0,0,1,.86-.53C683.06,755.19,687.25,758.77,691.55,762.25Z" transform="translate(-11.92 -6.13)"/><path class="cls-1" d="M690.22,765a2.07,2.07,0,0,1-.69-.29c-2.84-1.86-5.66-3.77-8.35-5.85-2.22-1.72-4.38-3.53-6.46-5.42s-4.26-4.07-6.48-6-4.35-3.49-6.61-5.14c-2.49-1.82-5-3.65-7.4-5.57s-4.91-3.91-7.41-5.81c-5-3.8-10-7.57-15.23-10.93-3.82-2.31-7.76-4.37-11.66-6.53s-7.79-4.25-11.73-6.29c-2.07-1.08-4.14-2.17-6.26-3.17s-4.46-2-6.73-2.93c-4-1.64-8.16-3-12.31-4.37-3.17-.94-6.34-1.9-9.53-2.78-3.81-1-7.63-2-11.44-3.08-3.59-1-7.16-2.06-10.75-3S544,685.89,540.39,685l-10.1-2.45c-3.25-.79-6.53-1.43-9.83-2-3.53-.58-7.08-1-10.64-1.38-3.35-.36-6.71-.64-10-1.25s-6.67-1.26-10-1.93-6.6-1.33-9.86-2.13-6.68-1.69-10-2.43c-3.15-.68-6.31-1.32-9.44-2-6.61-1.52-13.22-3-19.87-4.32-3.49-.68-7-1.35-10.48-2-3.21-.57-6.43-1-9.63-1.68s-6.44-1.42-9.63-2.24c-3.39-.88-6.77-1.78-10.1-2.85s-6.38-2.18-9.5-3.47-6.18-2.53-9.27-3.79c-3.37-1.37-6.68-2.87-10-4.37-2.72-1.22-5.43-2.45-8.18-3.61-6.23-2.64-12.58-5-18.87-7.47a84.4,84.4,0,0,1-8.75-4.3,100.7,100.7,0,0,1-9-5.38c-2.69-1.85-5.3-3.8-7.88-5.8s-5.21-4.25-7.68-6.55-4.67-4.34-6.9-6.62c-2.45-2.51-4.81-5.11-7.13-7.76-2.17-2.48-4.39-4.94-6.52-7.47s-4.34-5.24-6.42-7.93-3.91-5.23-5.82-7.88-3.91-5.59-5.69-8.52c-3.47-5.73-6.68-11.62-9.82-17.54-1.59-3-3.1-6-4.61-9s-3-6.06-4.39-9.16-2.73-6.31-4-9.5c-1.16-2.94-2.16-5.93-3.17-8.92q-3.28-9.76-5.56-19.78c-.52-2.29-1-4.6-1.46-6.91a7.44,7.44,0,0,0,.14-1.9c-.07-1.84-.18-3.67-.33-5.5a37.7,37.7,0,0,0-1.31-6.49c-.4-1.47-.94-2.9-1.4-4.35-.54-1.69-1-3.41-1.52-5.12a40.52,40.52,0,0,0-1.56-4.54c-.69-1.61-1.49-3.16-2.22-4.75a52.09,52.09,0,0,0-2.33-4.89c-.31-.53-.72-1-1.06-1.46-.67-1.36-1.33-2.74-2.12-4,.15.16.31.31.47.46a2.22,2.22,0,0,0,2.73.09,2.28,2.28,0,0,0,.94-1.9l.58.74c1,1.29,1.92,2.6,2.81,4s1.66,2.72,2.45,4.11a70.69,70.69,0,0,1,4.36,8.81,67.35,67.35,0,0,1,2.61,8.58c.75,3,1.55,6,2.23,9s1.23,6.1,1.85,9.15c.58,2.8,1.17,5.59,1.83,8.36q2,8,4.63,15.78c.87,2.57,1.73,5.14,2.69,7.68s2,5,3.06,7.48,2.13,5.11,3.3,7.61c1.26,2.66,2.55,5.3,3.84,8q3.51,7.23,7.26,14.35c2.25,4.17,4.51,8.37,7.11,12.34,1.44,2.21,3,4.36,4.5,6.51,1.32,1.87,2.63,3.74,4,5.58s2.78,3.76,4.26,5.57c1.71,2.09,3.44,4.17,5.17,6.24,3.06,3.64,6,7.35,9.22,10.87,3.55,3.67,7.23,7.24,11.12,10.55,1.94,1.64,4,3.12,6.06,4.62,1.83,1.34,3.71,2.61,5.61,3.85,2.6,1.6,5.25,3.12,8,4.5a74.61,74.61,0,0,0,8.66,3.89c3.23,1.14,6.48,2.2,9.73,3.26,3,1,6,2,9,3.1,5.84,2.08,11.49,4.65,17.3,6.78,6,2.19,12,4.47,18,6.42,6.13,1.75,12.36,3.13,18.61,4.38,3.26.65,6.57,1.06,9.87,1.5s6.47.95,9.7,1.49c6.68,1.13,13.3,2.5,19.92,4,3.32.72,6.65,1.38,10,2s6.31,1.38,9.45,2.13c6.55,1.57,13.14,2.93,19.76,4.18,1.75.33,3.51.7,5.27.93s3.5.44,5.27.61c3.44.34,6.9.65,10.32,1.23s6.9,1.23,10.33,2,6.64,1.72,10,2.58c3.09.82,6.2,1.58,9.27,2.47s6.36,1.85,9.55,2.8l.12,0,.11,0,.32.09q4.71,1.37,9.44,2.65c3.21.88,6.43,1.76,9.61,2.76s6.32,2,9.43,3.17,6.14,2.38,9.16,3.7a135.46,135.46,0,0,1,17.51,9.63c2.56,1.61,5,3.35,7.56,5q4.25,2.81,8.57,5.5a193.07,193.07,0,0,1,16.35,11.65c5.31,4.12,10.46,8.45,15.8,12.52,2.46,1.88,5,3.7,7.29,5.74s4.23,4.3,6.38,6.41L679,751.4a1.63,1.63,0,0,0-.86.53,1.73,1.73,0,0,0,.22,2.37c2.3,2.28,4.74,4.42,7.14,6.58C687.09,762.26,688.64,763.63,690.22,765Z" transform="translate(-11.92 -6.13)"/><path class="cls-1" d="M667.55,591.84l.8.81-.19.08a.9.9,0,0,1-1.15-.52.86.86,0,0,1,.1-.81Z" transform="translate(-11.92 -6.13)"/><path class="cls-1" d="M605.5,421.72c.1,5.6-.08,11.19-.37,16.78s-.57,11.19-.93,16.78c-.21,3.14-.44,6.27-.69,9.41-.1,1.17-.22,2.33-.34,3.5s-.23,2.5-.42,3.74q-.39,2.63-.8,5.24c-.19,1.3-.46,2.59-.69,3.89l-.84,4.67c-1.06.56-2.1,1.14-3.13,1.75a2,2,0,0,0-.91,1.35l-2.24-.47c.37-1.79.75-3.57,1.13-5.36.52-2.46,1.09-4.91,1.55-7.38.32-1.67.63-3.34.94-5,.27-1.44.42-2.9.63-4.35.36-2.49.66-5,.91-7.51q.86-8.58,1.65-17.17c.26-2.87.52-5.73.75-8.59.22-2.69.35-5.38.49-8.07,0-1.94,0-3.88,0-5.82,0-1.48-.07-3-.19-4.47-.1-1.24-.21-2.49-.42-3.71s-.46-2.31-.72-3.46c-.08-.34-.17-.69-.27-1a1.92,1.92,0,0,1,0-.92c.19.69.38,1.37.58,2.06a1.5,1.5,0,0,0,1.59,1,1.62,1.62,0,0,0,1.3-1c.29,1.17.54,2.35.72,3.54.28,1.86.46,3.73.57,5.6C605.46,418.33,605.48,420,605.5,421.72Z" transform="translate(-11.92 -6.13)"/><path class="cls-1" d="M588,336c-.49-1.94-1-3.87-1.5-5.81-1.34-5-2.8-10-4.54-14.82-.92-2.58-1.89-5.14-2.93-7.68s-2.16-5.17-3.26-7.74c-2-4.81-4.17-9.59-6.43-14.31s-4.61-9.59-6.74-14.46c-1.07-2.45-2.12-4.91-3.18-7.36-1.13-2.61-2.31-5.19-3.5-7.77-2.16-4.68-4.54-9.26-6.93-13.83-1-1.83-2-3.64-3.1-5.41s-2.33-3.54-3.56-5.26a105.28,105.28,0,0,0-8.22-10.48c-.29-.3-.58-.61-.88-.9l1-2,.61-1.23a2.91,2.91,0,0,0-1.08-3.64l0-.07a17.2,17.2,0,0,1,2.62,2A34.71,34.71,0,0,1,539.1,218l2.1,2.44c1.31,1.51,2.49,3.14,3.65,4.75,1.48,2,3,4.1,4.34,6.19,1.55,2.31,3,4.67,4.35,7.09,2.77,4.89,5.35,9.89,7.87,14.91,2.33,4.68,4.4,9.48,6.55,14.23s4.55,9.6,6.9,14.37,4.69,9.81,6.85,14.8,4.27,9.72,6.07,14.71c.92,2.53,1.79,5.08,2.58,7.65s1.51,5.18,2.23,7.78c1.48,5.39,2.63,10.87,3.75,16.34,1.08,5.24,1.89,10.52,2.79,15.8.41,2.43.85,4.87,1.16,7.32.34,2.72.62,5.43.85,8.16s.33,5.32.49,8,.36,5.13.6,7.69q.38,4.14.71,8.3c.23,2.79.69,5.55,1.19,8.31a1.22,1.22,0,0,1-.05.63c-.17-.73-.37-1.45-.56-2.17a1.29,1.29,0,0,0-.75-.83,1.65,1.65,0,0,0-1.23-.06,1.47,1.47,0,0,0-.93,1.07c-.65-2.36-1.24-4.73-1.73-7.13-1.08-5.27-1.9-10.59-2.57-15.93-.65-5.17-1.12-10.36-2-15.5-.46-2.62-1-5.22-1.49-7.83s-1-5.32-1.54-8c-1-5-2.09-10-3.25-14.93A1.74,1.74,0,0,1,588,336Z" transform="translate(-11.92 -6.13)"/><path class="cls-1" d="M603.52,405.33c.19.72.39,1.44.56,2.17a1.62,1.62,0,0,1-1.3,1,1.5,1.5,0,0,1-1.59-1c-.2-.69-.39-1.37-.58-2.06a1.47,1.47,0,0,1,.93-1.07,1.65,1.65,0,0,1,1.23.06A1.29,1.29,0,0,1,603.52,405.33Z" transform="translate(-11.92 -6.13)"/><path class="cls-1" d="M600.42,485.73c-.24,1.3-.47,2.61-.71,3.91-.12.65-.24,1.31-.35,2a2.34,2.34,0,0,1-2.89-1.38,2.51,2.51,0,0,1-.09-1.39,2,2,0,0,1,.91-1.35C598.32,486.87,599.36,486.29,600.42,485.73Z" transform="translate(-11.92 -6.13)"/><path class="cls-1" d="M599.36,491.6q-2.81,15.6-5.59,31.19c-.46,2.58-.9,5.17-1.38,7.75-.52,2.76-1.09,5.49-1.68,8.23-1-.27-2.09-.51-3.13-.74a1.49,1.49,0,0,0-1.62,1l-2.14-.55c.32-1.3.59-2.62.89-3.92.75-3.26,1.38-6.54,2-9.82,2.18-11.16,4.5-22.28,6.78-33.41.21-1,.41-2,.62-2.95l2.24.47a2.51,2.51,0,0,0,.09,1.39A2.34,2.34,0,0,0,599.36,491.6Z" transform="translate(-11.92 -6.13)"/><path class="cls-1" d="M590.71,538.77c0,.27-.11.55-.17.82-.15.7-.33,1.39-.5,2.08l-.39-.12c-.83-.21-1.67-.42-2.52-.61a1.51,1.51,0,0,1-1.23-1.68A2.27,2.27,0,0,1,586,539a1.49,1.49,0,0,1,1.62-1C588.62,538.26,589.67,538.5,590.71,538.77Z" transform="translate(-11.92 -6.13)"/><path class="cls-1" d="M589.65,541.55l.39.12-.36,1.37c-.31,1.22-.59,2.46-.94,3.67-.9,3-1.77,6-2.76,9-.42,1.28-.81,2.58-1.27,3.85q-.9,2.47-1.79,4.95c-.39,1.09-.82,2.16-1.24,3.24s-.91,2.4-1.41,3.58c-2.32,5.46-4.66,10.92-7.19,16.28a3.44,3.44,0,1,1-6.28-2.82q1.85-4.32,3.68-8.66c2.16-5.08,4.3-10.17,6.22-15.34.53-1.42,1.09-2.83,1.58-4.26s1-3.06,1.57-4.59c.79-2.28,1.48-4.6,2.19-6.9l1.5-5.56c.1-.36.19-.71.28-1.07L586,539a2.27,2.27,0,0,0-.06.25,1.51,1.51,0,0,0,1.23,1.68C588,541.13,588.82,541.34,589.65,541.55Z" transform="translate(-11.92 -6.13)"/><path class="cls-1" d="M533.69,213.34a2.91,2.91,0,0,1,1.08,3.64l-.61,1.23-1,2c-.27-.27-.55-.53-.84-.77a26.1,26.1,0,0,0-2.16-1.59,2.78,2.78,0,0,1-1.11-.93c-.12-.21-.23-.43-.35-.65,0,0,0,0,0-.06l.78-1.56a3,3,0,0,1,1.62-1.53,2.94,2.94,0,0,1,2.22.07C533.45,213.2,533.57,213.27,533.69,213.34Z" transform="translate(-11.92 -6.13)"/><path class="cls-1" d="M533.74,213.27l0,.07c-.12-.07-.24-.14-.37-.2a2.94,2.94,0,0,0-2.22-.07,3,3,0,0,0-1.62,1.53l-.78,1.56a2.88,2.88,0,0,1,1.7-3.67,2.87,2.87,0,0,1,2,0,.56.56,0,0,1,.17.09C533,212.79,533.36,213,533.74,213.27Z" transform="translate(-11.92 -6.13)"/><path class="cls-1" d="M507,315c-.07,5.15,0,10.3,0,15.44,0,2.25,0,4.5.17,6.75s.39,4.53.68,6.79.68,4.52,1,6.79c.34,2.45.62,4.89.82,7.36a1.93,1.93,0,0,1-.21,1.09,1.39,1.39,0,0,0-2.65-.57c-.17.36-.33.73-.49,1.09a2.19,2.19,0,0,1-.58-1.19,56.5,56.5,0,0,1-.94-8.42c-.12-2.28-.08-4.57-.12-6.86s-.07-4.54-.18-6.8-.2-4.37-.27-6.55-.23-4.65-.38-7-.29-4.37-.38-6.55a63.66,63.66,0,0,1,0-7.31c.19-2.41.44-4.82.68-7.22.22-2.25.43-4.5.8-6.72.73-4.47,1.71-8.91,2.67-13.33.51-2.34.94-4.7,1.43-7s1-4.5,1.59-6.72,1.23-4.48,1.84-6.72,1.12-4.23,1.71-6.33,1.28-4.45,1.91-6.67c.71-2.46,1.39-4.93,2.18-7.37,1.41-4.4,3.19-8.65,4.95-12.92.91-2.2,1.84-4.39,2.82-6.57.79-1.78,1.67-3.54,2.55-5.29,0,0,0,0,0,.06.12.22.23.44.35.65a2.78,2.78,0,0,0,1.11.93,26.1,26.1,0,0,1,2.16,1.59c.29.24.57.5.84.77-.74,1.49-1.47,3-2.15,4.5-.91,2-1.77,4.12-2.61,6.21s-1.8,4.46-2.65,6.71c-.77,2-1.43,4.05-2.07,6.1-2.56,8.84-4.94,17.73-7.58,26.55l-.18.6c-1.64,5.61-3.25,11.25-4.57,16.95-.54,2.27-1.06,4.54-1.54,6.83s-.8,4.52-1.13,6.8-.71,4.59-1,6.89c-.16,1.14-.33,2.28-.44,3.43s-.13,2.09-.17,3.13v.1Z" transform="translate(-11.92 -6.13)"/><path class="cls-1" d="M509.52,359.19h0a2,2,0,0,1-3,.63l-.13-.12c.16-.36.32-.73.49-1.09a1.39,1.39,0,0,1,2.65.57Z" transform="translate(-11.92 -6.13)"/><path class="cls-1" d="M509.52,359.2a1.38,1.38,0,0,1-.12.56L508,362.85a2.7,2.7,0,0,0-.49-1.84,2.83,2.83,0,0,0-1.12-.91l-.14,0a2.52,2.52,0,0,1,.15-.34l.13.12a2,2,0,0,0,3-.63Z" transform="translate(-11.92 -6.13)"/><path class="cls-1" d="M507.49,361a2.7,2.7,0,0,1,.49,1.84c-.19.43-.39.85-.58,1.28a1.41,1.41,0,0,1-1.82.69,1.38,1.38,0,0,1-.69-1.82c.44-1,.88-2,1.34-2.95l.14,0A2.83,2.83,0,0,1,507.49,361Z" transform="translate(-11.92 -6.13)"/><path class="cls-1" d="M507.4,364.13c.19-.43.39-.85.58-1.28a2.9,2.9,0,0,1-1.14,2.06c-2,1.48-4,3-5.88,4.5-2.74,2.19-5.52,4.35-8.16,6.65-2.81,2.43-5.55,4.92-8.27,7.45-5,4.65-10.25,9.07-15.35,13.63-2.21,2.1-4.35,4.25-6.48,6.42q-3.47,3.54-7,7-7.15,7-14.09,14.12c-4.72,4.88-9.56,9.65-14,14.74q-3.36,3.8-6.52,7.73c-2.1,2.61-4.19,5.24-6.38,7.77s-4.62,5.12-7,7.64-4.73,5.08-6.87,7.82c-4.19,5.34-7.89,11.06-11.53,16.78-1.34,2.19-2.69,4.37-4,6.55a2.85,2.85,0,0,1-1.46,1.38,2.62,2.62,0,0,1-3.32-3.52,129.78,129.78,0,0,1,8.27-15.92c.1-.18.21-.35.32-.53a3.45,3.45,0,0,0,.2-.32l.14-.21c.11-.19.23-.38.35-.57l.16-.26.18-.29.11-.17a2.39,2.39,0,0,1,.13-.21v0l.08-.13v0c.06-.08.11-.18.17-.26s.17-.28.25-.42h0l.09-.15,0,0h0a94.3,94.3,0,0,1,5.83-8.24,2.61,2.61,0,0,0,2.74-1.51,2.56,2.56,0,0,0,.08-1.94c1.45-1.68,2.95-3.31,4.45-4.95,2.32-2.55,4.59-5.14,6.78-7.79,4.27-5.19,8.41-10.47,13-15.4,2.42-2.6,4.9-5.15,7.39-7.69,2.3-2.35,4.58-4.72,6.92-7,5.09-5,10.37-9.88,15.66-14.72,2.55-2.4,5-4.86,7.57-7.28,2.78-2.66,5.7-5.16,8.68-7.58,2.73-2.22,5.46-4.43,8.11-6.75s5.57-4.89,8.38-7.3c2.41-2.07,4.91-4.06,7.41-6q4.78-3.78,9.65-7.46a2.75,2.75,0,0,1,2.64-.31c-.46,1-.9,2-1.34,2.95a1.38,1.38,0,0,0,.69,1.82A1.41,1.41,0,0,0,507.4,364.13Z" transform="translate(-11.92 -6.13)"/><path class="cls-1" d="M399.6,460.34a2.56,2.56,0,0,1-.08,1.94,2.61,2.61,0,0,1-2.74,1.51c.27-.37.56-.74.86-1.11C398.27,461.89,398.93,461.11,399.6,460.34Z" transform="translate(-11.92 -6.13)"/><path class="cls-1" d="M286.13,382l.1.1,0,0h0l.07.07c1.73,1.85,3.48,3.7,5.27,5.51s3.64,3.47,5.54,5.12c2.43,2.12,4.84,4.25,7.29,6.35s4.87,4,7.29,6.09,4.77,4.2,7.26,6.16c1.28,1,2.55,2,3.9,2.95s2.44,1.64,3.68,2.43c2.85,1.72,5.73,3.39,8.61,5,5.47,3.16,10.88,6.41,16.33,9.6,2.76,1.61,5.57,3.15,8.3,4.81,2.94,1.79,5.87,3.63,8.79,5.46,2.21,1.35,4.41,2.74,6.65,4.05q4,2.34,8,4.63c5,2.82,9.92,5.63,14.93,8.34a2.79,2.79,0,0,1,1.38,1.47.14.14,0,0,1,0,.06c-.67.77-1.33,1.55-2,2.34-.3.37-.59.74-.86,1.11a2.71,2.71,0,0,1-.73-.19q-2.46-1-4.9-2-4.83-2.07-9.59-4.25c-3-1.36-5.87-2.87-8.77-4.39-5.75-3-11.22-6.6-16.72-10.07-4.28-2.62-8.57-5.21-12.84-7.84s-8.55-5.23-12.86-7.8c-5.75-3.44-11.54-6.81-16.75-11.05-2.49-2-4.91-4.14-7.43-6.13s-5-3.94-7.46-6-5-4.25-7.54-6.4-4.74-4.34-7-6.64c-2.45-2.49-4.82-5.06-7.15-7.67-2.08-2.34-4-4.84-5.88-7.36s-3.75-5.06-5.54-7.65-3.67-5.3-5.31-8.08a97.69,97.69,0,0,1-4.86-8.94c-1.36-3-2.46-6-3.58-9.1-2.23-6.12-4.82-12.19-6-18.64-.56-3.16-1-6.33-1.37-9.52-.18-1.46-.32-2.93-.56-4.39-.07-.45-.15-.9-.24-1.34.36.87.79,1.72,1.21,2.55a1.62,1.62,0,0,0,1.65,1,1.59,1.59,0,0,0,1-.56,1.53,1.53,0,0,0,.36-1.19,47,47,0,0,1-.91-5.56c-.21-1.84-.61-3.62-1-5.43-.18-1-.38-2-.52-3a1.1,1.1,0,0,1,0-.18l.24-.51c.23-.49.45-1,.66-1.5.17,1.24.43,2.48.68,3.72,1.1,4.23,2.53,8.38,3.21,12.71.65,4.07,1.17,8.16,2,12.19.65,2.43,1.41,4.8,2.27,7.17s1.78,4.6,2.7,6.89c1,2.53,2,5.08,3,7.62a65.62,65.62,0,0,0,2.89,6.26l.75,1.36a157.27,157.27,0,0,0,10.61,15.88c1.84,2.52,3.69,5,5.64,7.47S284.1,379.81,286.13,382Z" transform="translate(-11.92 -6.13)"/><path class="cls-1" d="M390.66,472.49a1.09,1.09,0,0,0-.08.15h0Z" transform="translate(-11.92 -6.13)"/><path class="cls-1" d="M248,310.1a1.53,1.53,0,0,1-.36,1.19,1.59,1.59,0,0,1-1,.56,1.62,1.62,0,0,1-1.65-1c-.42-.83-.85-1.68-1.21-2.55-.18-1-.39-1.9-.61-2.84-.28-1.1-.56-2.2-.83-3.3l1-1.82c.82-1.43,1.55-2.91,2.26-4.4a1.1,1.1,0,0,0,0,.18c.14,1,.34,2,.52,3,.35,1.81.75,3.59,1,5.43A47,47,0,0,0,248,310.1Z" transform="translate(-11.92 -6.13)"/><path class="cls-1" d="M245.5,274.26a2.49,2.49,0,0,1,1.24,3.26c-.23.59-.46,1.17-.66,1.77a23.24,23.24,0,0,0-.68,4.83c0,1.44.06,2.88,0,4.32v.25c0,1.57-.06,3.13,0,4.7a24.11,24.11,0,0,0,.19,2.54c-.71,1.49-1.44,3-2.26,4.4l-1,1.82c.27,1.1.55,2.2.83,3.3.22.94.43,1.88.61,2.84-.09-.21-.17-.42-.25-.64-.35-.95-.68-1.9-1-2.86s-.64-2-1-3c-.35-1.17-.65-2.33-.95-3.52a23.76,23.76,0,0,1-.61-3.47,29.57,29.57,0,0,1-.08-3c.8-1.8,1.54-3.62,2.3-5.44.87-2.08,1.66-4.22,2.67-6.25.3-.59.59-1.18.91-1.77a1.44,1.44,0,0,0-2.63-1.18c-1,1.87-1.91,3.81-2.81,5.74,0-.42.1-.83.17-1.25.11-.68.23-1.35.37-2a23.86,23.86,0,0,1,1.33-4.15A2.49,2.49,0,0,1,245.5,274.26Z" transform="translate(-11.92 -6.13)"/><path class="cls-1" d="M245.08,276.46a1.45,1.45,0,0,1,.73,1.9c-.32.59-.61,1.18-.91,1.77-1,2-1.8,4.17-2.67,6.25-.76,1.82-1.5,3.64-2.3,5.44,0-.21,0-.42,0-.64.05-2,.23-4,.27-6v.33c0-.88.06-1.74.16-2.61.9-1.93,1.8-3.87,2.81-5.74A1.46,1.46,0,0,1,245.08,276.46Z" transform="translate(-11.92 -6.13)"/><path class="cls-1" d="M243.18,386.84a.9.9,0,0,1-.21,1.24.92.92,0,0,1-1.25-.21c-.39-.52-.78-1-1.19-1.55s-.72-.85-1.09-1.27c-.73-.83-1.47-1.64-2.21-2.45-1.47-1.63-2.88-3.31-4.34-5-1.08-1.23-2.15-2.48-3.18-3.76s-2-2.45-2.94-3.69c-1.94-2.45-4-4.79-6.1-7.12-.86-.91-1.71-1.82-2.6-2.69-1.09-1.07-2.18-2.13-3.29-3.17a75.24,75.24,0,0,0-7.11-5.86l-2.25-1.64c-.7-.51-1.42-1-2.13-1.46-1.19-.82-2.41-1.59-3.63-2.37l-1.55-.88c-.47-.27-.93-.58-1.42-.81-1.09-.52-2.17-1.08-3.29-1.52l-2-.81c-.6-.24-1.22-.42-1.83-.64l-1.24-.41q1.66-1,3.3-1.95l.22.07c.64.22,1.26.44,1.89.68s1.2.42,1.78.68l2.46,1.08.52.26,1.32.7c.53.27,1.07.54,1.59.85l2.43,1.42c.68.4,1.34.83,2,1.26s1.29.79,1.91,1.21c1.36.92,2.73,1.82,4,2.8.72.53,1.47,1,2.17,1.59l2.1,1.69c.53.43,1,.88,1.54,1.33s1.11,1,1.64,1.46c.69.66,1.39,1.31,2.09,2s1.16,1.2,1.75,1.79c1.1,1.13,2.16,2.31,3.19,3.5s2.1,2.43,3.05,3.71,1.94,2.67,2.9,4,1.84,2.59,2.79,3.85,1.95,2.58,2.88,3.9,1.78,2.69,2.61,4.08c.41.69.81,1.37,1.23,2A22.55,22.55,0,0,0,243.18,386.84Z" transform="translate(-11.92 -6.13)"/><path class="cls-1" d="M240.37,282.92c-.1.87-.14,1.73-.16,2.61v-.33c0,2-.22,4-.27,6,0,.22,0,.43,0,.64-.19.43-.38.86-.58,1.29a65.6,65.6,0,0,1-3.52,6.29c-1.26,2.07-2.55,4.12-4,6.09s-3,3.81-4.53,5.63-3,3.39-4.58,4.93c-1.95,1.86-4,3.62-6,5.36-.44.37-.87.75-1.3,1.13l-2.05-1.82h.17a1.6,1.6,0,0,0,1.44-1.78c-.2-.85-.39-1.71-.56-2.56l1-.8c1.79-1.37,3.5-2.81,5.17-4.33,1.44-1.4,2.87-2.83,4.27-4.28s2.57-2.87,3.77-4.37,2.4-3.22,3.55-4.87c1-1.47,2-2.95,3-4.46.74-1.26,1.45-2.53,2.09-3.85s1.31-2.72,2-4.09C239.63,284.52,240,283.72,240.37,282.92Z" transform="translate(-11.92 -6.13)"/><path class="cls-1" d="M230.56,440.29a2.28,2.28,0,0,1-.94,1.9,2.22,2.22,0,0,1-2.73-.09c-.16-.15-.32-.3-.47-.46a3.72,3.72,0,0,0-.22-.38,25.51,25.51,0,0,0-4.56-5.12c-.45-.42-.91-.85-1.38-1.25a5.4,5.4,0,0,0-.32-2.71,9,9,0,0,0-2.33-3.17c-1.08-1.16-2.17-2.32-3.27-3.46-.75-1-1.54-1.87-2.36-2.77,1.73,1.26,3.42,2.56,5.06,3.93A91.35,91.35,0,0,1,230.56,440.29Z" transform="translate(-11.92 -6.13)"/><path class="cls-1" d="M230.14,439.07a2,2,0,0,1,.42,1.22A91.35,91.35,0,0,0,217,426.71c-1.64-1.37-3.33-2.67-5.06-3.93.82.9,1.61,1.81,2.36,2.77,1.1,1.14,2.19,2.3,3.27,3.46a9,9,0,0,1,2.33,3.17,5.4,5.4,0,0,1,.32,2.71c.47.4.93.83,1.38,1.25a25.51,25.51,0,0,1,4.56,5.12,3.72,3.72,0,0,1,.22.38c-3.86-3.76-7.3-7.91-10.88-11.93-.52-.54-1-1.08-1.58-1.6-.75-.71-1.52-1.39-2.3-2.07-1.41-1.21-2.88-2.36-4.33-3.51s-3-2.3-4.46-3.45-2.79-2.17-4.26-3.16c-1.75-1.2-3.48-2.43-5.15-3.74-.83-.65-1.64-1.34-2.46-2s-1.55-1.21-2.31-1.84c-1.55-1.3-3.06-2.63-4.64-3.9-1.15-.92-2.31-1.85-3.51-2.71l.91.53,2.53,1.47a1.58,1.58,0,0,0,1-.87,1.62,1.62,0,0,0-.8-2.12q-3-1.57-6-3.08c.62.25,1.24.49,1.87.71.48.17,1,.32,1.44.53l.28.13c1.08.56,2.13,1.18,3.21,1.74s2.24,1.17,3.35,1.79,2.34,1.41,3.49,2.16c.89.58,1.78,1.16,2.65,1.78s1.74,1.29,2.61,1.94c1.62,1.22,3.28,2.41,5,3.56s3.44,2.46,5.14,3.71,3.39,2.48,5,3.77,3.42,2.66,5,4.13a53.52,53.52,0,0,1,4.67,5c.77.92,1.51,1.84,2.25,2.78.58.73,1.13,1.49,1.7,2.23C227.26,435.41,228.75,437.21,230.14,439.07Z" transform="translate(-11.92 -6.13)"/><path class="cls-1" d="M216.06,302.07a1.64,1.64,0,0,0,0,.23l-.13.23-.29-.06Z" transform="translate(-11.92 -6.13)"/><path class="cls-1" d="M215.09,286.65a1.39,1.39,0,0,1,.85,1.52c-.27,1.09-.5,2.18-.74,3.28-.17.79-.29,1.6-.42,2.41-.24,1.51-.41,3-.55,4.56-.27,3.16-.42,6.33-.53,9.5a37.82,37.82,0,0,0,.28,6c.13.81.27,1.62.44,2.43-1,.76-2,1.53-2.93,2.31-.11-.32-.22-.64-.32-1-.2-.64-.36-1.26-.52-1.91a20.93,20.93,0,0,1-.6-4.08c0-.78,0-1.57,0-2.34.18-3.46.55-6.9,1-10.33.23-1.76.45-3.52.76-5.27.15-.85.28-1.71.47-2.56.07-.33.15-.66.22-1,.67-.66,1.33-1.35,2-2a1,1,0,0,0-.13-1.36,1,1,0,0,0-.22-.14l-.16-.05a1.26,1.26,0,0,1,.74-.1A1.46,1.46,0,0,1,215.09,286.65Z" transform="translate(-11.92 -6.13)"/><path class="cls-1" d="M213.37,320.72l2.05,1.82c-1.29,1.13-2.55,2.3-3.83,3.46-.81.74-1.65,1.46-2.53,2.13-.46.35-.91.72-1.39,1s-1.21.79-1.81,1.2c-.88.57-1.82,1.08-2.74,1.6s-2,1.13-3,1.72c-2.84,1.69-5.65,3.46-8.48,5.17-1.51-.52-3-1-4.54-1.48a1.57,1.57,0,0,0-1.11,0,1.47,1.47,0,0,0-.81.76,1.52,1.52,0,0,0,0,1.11,1.38,1.38,0,0,0,.76.81c.81.25,1.63.51,2.43.78l-.88.5a2.57,2.57,0,0,1-1.78.42,2.42,2.42,0,0,1-1-4.37c2.32-1.76,4.7-3.44,7.07-5.13,2.19-1.56,4.47-3,6.79-4.34l3.23-1.88c.42-.24.83-.49,1.24-.75s1.1-.66,1.61-1c1-.74,2-1.47,3-2.25s1.74-1.45,2.61-2.17l1.36-1.12.36,1A1.64,1.64,0,0,0,213.37,320.72Z" transform="translate(-11.92 -6.13)"/><path class="cls-1" d="M215,318.93a1.6,1.6,0,0,1-1.44,1.78h-.17a1.64,1.64,0,0,1-1.52-1l-.36-1c1-.78,1.95-1.55,2.93-2.31C214.59,317.22,214.78,318.08,215,318.93Z" transform="translate(-11.92 -6.13)"/><path class="cls-1" d="M214.39,286.84a1,1,0,0,1,.13,1.36c-.65.69-1.31,1.38-2,2,.19-.84.37-1.67.59-2.5a1.52,1.52,0,0,1,.58-.94,1.05,1.05,0,0,1,.3-.15l.16.05A1,1,0,0,1,214.39,286.84Z" transform="translate(-11.92 -6.13)"/><path class="cls-1" d="M214.09,390.26a1.6,1.6,0,0,1-.85,2.82,1.72,1.72,0,0,1-1.19-.36c-4.6-3.22-9.08-6.61-13.52-10.05-2.88-2.23-5.75-4.48-8.72-6.59-1.5-1.06-3-2.16-4.52-3.17l-5.13-3.37-6-3.55c-.8-.48-1.64-.89-2.45-1.33l-3.62-1.95c-1.25-.68-2.54-1.31-3.82-1.95.07-.22.15-.43.22-.65a1.63,1.63,0,0,0,0-1.11,1.49,1.49,0,0,0-.77-.81l.57-1.22c.59.26,1.17.54,1.76.82,1.6.76,3.2,1.52,4.78,2.32,1.2.61,2.39,1.23,3.59,1.83.48.25,1,.49,1.44.76l5.93,3.36c.62.34,1.21.75,1.81,1.12l3.42,2.17c.52.33,1,.65,1.56,1l2.84,2c.7.49,1.44,1,2.12,1.48l2.2,1.69c1.47,1.11,2.93,2.23,4.36,3.39l4.6,3.75C207.85,385.2,211,387.7,214.09,390.26Z" transform="translate(-11.92 -6.13)"/><path class="cls-1" d="M213,287a1.05,1.05,0,0,1,1-.32,1.05,1.05,0,0,0-.3.15,1.52,1.52,0,0,0-.58.94c-.22.83-.4,1.66-.59,2.5-1.2,1.2-2.43,2.36-3.69,3.5-1.89,1.7-3.8,3.38-5.66,5.11-1.19,1.11-2.36,2.24-3.55,3.36s-2.59,2.46-4,3.6-3,2.45-4.52,3.6-3.08,2.32-4.6,3.51-3.15,2.47-4.75,3.66-3,2.22-4.61,3.21-3.49,2.07-5.25,3.07-3.17,1.95-4.78,2.89c-1.05.61-2.09,1.18-3.17,1.73-.78.4-1.6.74-2.4,1.09s-1.83.76-2.73,1.15-1.7.8-2.54,1.21c-1.79,1-3.56,2-5.36,2.95s-3.37,1.74-5,2.63-3.34,1.82-5.07,2.59-3.73,1.65-5.64,2.36c-1.1.41-2.22.8-3.33,1.19-1.4-.57-2.8-1.13-4.21-1.68a1.61,1.61,0,0,0-1-.06,1.34,1.34,0,0,1,.09-.26,2.15,2.15,0,0,1,.69-.86c1.24-.66,2.48-1.32,3.75-1.91,1.11-.52,2.23-1,3.34-1.53,2.24-1.06,4.47-2.14,6.68-3.28l3.11-1.65c1.68-.88,3.39-1.7,5.09-2.53s3.38-1.75,5.12-2.5c.92-.39,1.85-.78,2.79-1.15s1.75-.65,2.62-1,1.72-.67,2.56-1.07,1.52-.73,2.27-1.12c2.86-1.61,5.77-3.14,8.67-4.67.79-.46,1.58-.91,2.34-1.4s1.79-1.16,2.68-1.77c1.6-1.09,3.17-2.25,4.73-3.39s3-2.2,4.51-3.26,3.16-2.15,4.69-3.31,3-2.33,4.51-3.55,3.11-2.6,4.69-3.87c2.94-2.39,6-4.71,8.78-7.23C211.31,288.75,212.18,287.87,213,287Z" transform="translate(-11.92 -6.13)"/><path class="cls-1" d="M187.06,337.38c1.53.48,3,1,4.54,1.48q-1.63,1-3.3,1.95c-.8-.27-1.62-.53-2.43-.78a1.38,1.38,0,0,1-.76-.81,1.52,1.52,0,0,1,0-1.11,1.47,1.47,0,0,1,.81-.76A1.57,1.57,0,0,1,187.06,337.38Z" transform="translate(-11.92 -6.13)"/><path class="cls-1" d="M184.17,400.73a1.62,1.62,0,0,1,.8,2.12,1.58,1.58,0,0,1-1,.87l-2.53-1.47-.91-.53c-.35-.26-.71-.5-1.07-.74a18.53,18.53,0,0,0-2.32-1.15,1.21,1.21,0,0,1-.6-1.59,1.23,1.23,0,0,1,1.59-.6h0Q181.19,399.15,184.17,400.73Z" transform="translate(-11.92 -6.13)"/><path class="cls-1" d="M179.47,401c.36.24.72.48,1.07.74-1.06-.62-2.12-1.24-3.23-1.78l-5.82-2.83-.84-.4c-1.85-.83-3.77-1.5-5.66-2.21a28.41,28.41,0,0,0-3.35-1.08q-1.92-.82-3.87-1.59l-.91-.34-1.71-.82-.41.08c-1.21-.4-2.42-.76-3.64-1.1a19.61,19.61,0,0,0-2.64-.54,9.48,9.48,0,0,0-2.13,0l-.68-.23c-3.94-1.17-7.88-2.34-11.84-3.46a2,2,0,0,1-1.22-.75,1.8,1.8,0,0,1-.32-1.35,1.84,1.84,0,0,1,.75-1.22,1.77,1.77,0,0,1,1.35-.32l1.19.34-.4.2a1.17,1.17,0,0,0-.59.55,1.05,1.05,0,0,0,1.33,1.41c1-.4,1.95-.81,2.92-1.23l1,.3,6.7,2c1.95.58,3.87,1.23,5.81,1.85,3.37,1.08,6.74,2.19,10,3.49,1.77.69,3.56,1.36,5.31,2.12,1.32.57,2.65,1.12,4,1.71.48.21.94.43,1.41.66,1.69.82,3.38,1.64,5.06,2.49a1.23,1.23,0,0,0-1.59.6,1.21,1.21,0,0,0,.6,1.59A18.53,18.53,0,0,1,179.47,401Z" transform="translate(-11.92 -6.13)"/><path class="cls-1" d="M164.52,359a1.63,1.63,0,0,1,0,1.11c-.07.22-.15.43-.22.65-.47-.22-.94-.45-1.4-.69l-1.22-.6.18-.55a1.38,1.38,0,0,1,.81-.76,1.43,1.43,0,0,1,1.11,0A1.49,1.49,0,0,1,164.52,359Z" transform="translate(-11.92 -6.13)"/><path class="cls-1" d="M164.32,357l-.57,1.22a1.43,1.43,0,0,0-1.11,0,1.38,1.38,0,0,0-.81.76l-.18.55c-1.29-.64-2.6-1.27-3.9-1.9-3.45-1.67-6.94-3.26-10.42-4.86-3.3-1.52-6.62-3-9.93-4.52-3.59-1.62-7.21-3.17-10.88-4.6a1.45,1.45,0,0,1-.73-1.9,1.43,1.43,0,0,1,.91-.78,2,2,0,0,0,0,1.35,2.13,2.13,0,0,0,2.72,1.22l2.44-.83c1.07.43,2.13.87,3.19,1.32,3.44,1.44,6.84,3,10.26,4.47s7,3.06,10.44,4.62C158.64,354.34,161.49,355.63,164.32,357Z" transform="translate(-11.92 -6.13)"/><path class="cls-1" d="M154.68,370l1.36-1.37c.45-.45.87-.94,1.3-1.4a21.8,21.8,0,0,0,2.27-3l0,0h0a12.42,12.42,0,0,0,1-2c.15-.39.3-.77.46-1.16s.38-1,.55-1.56l1.22.6c.46.24.93.47,1.4.69-.15.46-.31.92-.48,1.36a23.21,23.21,0,0,1-1.09,2.51,27.44,27.44,0,0,1-1.72,2.66c-.34.49-.74.93-1.11,1.39s-.86.94-1.28,1.4-.78.79-1.18,1.19c-.95.94-1.94,1.83-2.92,2.73-.66.6-1.37,1.14-2.08,1.67s-1.54,1.11-2.34,1.62-1.58,1-2.39,1.41-1.33.78-2,1.13l-2.15,1.1c-1.12.56-2.28,1.07-3.43,1.58l-1.25.54c-1.08-.32-2.17-.63-3.26-.93,2.14-1.09,4.27-2.17,6.39-3.29l.13-.07c.77-.44,1.56-.86,2.31-1.31l2.78-1.64a39.44,39.44,0,0,0,5.27-3.81c.71-.6,1.38-1.24,2.07-1.87Z" transform="translate(-11.92 -6.13)"/><path class="cls-1" d="M156.86,391.49l-.11,0-.95-.34c-.35-.13-.71-.25-1.06-.36l.41-.08Z" transform="translate(-11.92 -6.13)"/><path class="cls-1" d="M156.75,391.45l-.95-.34Z" transform="translate(-11.92 -6.13)"/><path class="cls-1" d="M138.82,383c-1,.42-1.94.83-2.92,1.23a1.05,1.05,0,0,1-1.33-1.41,1.17,1.17,0,0,1,.59-.55l.4-.2C136.65,382.42,137.74,382.73,138.82,383Z" transform="translate(-11.92 -6.13)"/><path class="cls-1" d="M127.69,341c1.41.55,2.81,1.11,4.21,1.68l-2.44.83a2.13,2.13,0,0,1-2.72-1.22,2,2,0,0,1,0-1.35A1.61,1.61,0,0,1,127.69,341Z" transform="translate(-11.92 -6.13)"/><path class="cls-3" d="M390.4,472.92l.17-.28h0Z" transform="translate(-11.92 -6.13)"/><path class="cls-4" d="M389.73,474l-.35.56,0,.06Z" transform="translate(-11.92 -6.13)"/><path class="cls-5" d="M311.62,611.65c-2.33-2.17-4.67-4.34-6.89-6.62-2.45-2.52-4.81-5.11-7.13-7.76-2.18-2.48-4.4-4.94-6.52-7.47s-4.34-5.24-6.42-7.93-3.91-5.23-5.82-7.88-3.91-5.59-5.68-8.52c-3.47-5.73-6.69-11.63-9.83-17.54-1.58-3-3.1-6-4.61-9s-3-6.06-4.38-9.16-2.73-6.31-4-9.5c-1.17-2.93-2.16-5.93-3.17-8.92a205.24,205.24,0,0,1-5.56-19.77c-.52-2.3-1-4.6-1.46-6.91a7.57,7.57,0,0,0,.14-1.91q-.12-2.75-.34-5.5a37.28,37.28,0,0,0-1.31-6.49c-.39-1.47-.93-2.9-1.39-4.35-.54-1.7-1-3.41-1.52-5.12a41,41,0,0,0-1.56-4.55c-.68-1.61-1.49-3.16-2.21-4.75a52.58,52.58,0,0,0-2.33-4.89c-.31-.53-.72-1-1.06-1.46-.68-1.38-1.36-2.76-2.14-4.07-3.84-3.75-7.28-7.89-10.85-11.89-.52-.54-1-1.08-1.58-1.6-.75-.71-1.52-1.39-2.3-2.07-1.41-1.21-2.88-2.36-4.33-3.52s-3-2.3-4.45-3.45-2.8-2.17-4.26-3.17c-1.75-1.2-3.48-2.43-5.15-3.74-.84-.65-1.65-1.34-2.47-2s-1.55-1.22-2.3-1.85c-1.55-1.3-3.07-2.63-4.65-3.9-1.15-.92-2.3-1.85-3.49-2.71-1.06-.63-2.13-1.25-3.24-1.79l-5.82-2.83-.85-.39c-1.85-.83-3.77-1.5-5.66-2.22a30.24,30.24,0,0,0-3.34-1.08c-1.28-.55-2.57-1.08-3.87-1.58a68.81,68.81,0,0,0-6.67-2.18,19.39,19.39,0,0,0-2.64-.54,9.7,9.7,0,0,0-2.13,0l-.68-.22c-3.94-1.17-7.88-2.35-11.84-3.46a2,2,0,0,1-1.22-.75,1.84,1.84,0,0,1,.43-2.57,1.75,1.75,0,0,1,1.35-.32l1.18.34c2.14-1.08,4.27-2.17,6.39-3.28.82-.46,1.65-.9,2.45-1.38l2.77-1.65a38.67,38.67,0,0,0,5.27-3.8c.71-.6,1.39-1.24,2.07-1.87l1.54-1.54c.45-.45.86-.94,1.29-1.4a21.82,21.82,0,0,0,2.31-3,12.85,12.85,0,0,0,1-2l.46-1.16c.2-.51.38-1,.55-1.55l-3.9-1.9c-3.45-1.67-6.94-3.26-10.42-4.86q-5-2.28-9.93-4.52c-3.59-1.62-7.21-3.17-10.88-4.6a1.44,1.44,0,0,1-.72-1.9,1.37,1.37,0,0,1,.9-.76,2.06,2.06,0,0,1,.09-.28,2.13,2.13,0,0,1,.7-.86c1.23-.66,2.48-1.32,3.75-1.91,1.11-.51,2.23-1,3.34-1.53,2.25-1.05,4.48-2.13,6.68-3.27h0l3.12-1.66c1.67-.88,3.39-1.7,5.09-2.53s3.38-1.74,5.12-2.49c.93-.4,1.86-.79,2.79-1.15s1.76-.65,2.62-1,1.72-.68,2.56-1.07,1.52-.74,2.26-1.13c2.87-1.6,5.77-3.13,8.67-4.67.79-.46,1.58-.91,2.34-1.39s1.79-1.17,2.67-1.77c1.61-1.09,3.17-2.25,4.74-3.4s3-2.2,4.5-3.25,3.17-2.16,4.69-3.31,3-2.33,4.51-3.55,3.11-2.6,4.69-3.88c2.94-2.39,6-4.7,8.78-7.22.9-.86,1.77-1.73,2.61-2.64a1,1,0,0,1,1-.31,1.42,1.42,0,0,1,.74-.11,1.34,1.34,0,0,1,.34.1,1.4,1.4,0,0,1,.85,1.52c-.27,1.09-.5,2.18-.74,3.27-.17.8-.29,1.61-.42,2.41-.25,1.51-.41,3-.55,4.56-.28,3.16-.43,6.33-.53,9.5a37.19,37.19,0,0,0,.28,6c.13.82.28,1.62.44,2.43l1-.8c1.78-1.38,3.5-2.82,5.16-4.33q2.17-2.11,4.27-4.29c1.33-1.39,2.57-2.86,3.77-4.37s2.41-3.22,3.55-4.86q1.53-2.21,3-4.46c.74-1.26,1.45-2.53,2.1-3.85s1.31-2.72,2-4.09c.38-.81.76-1.63,1.14-2.44,0-.4.08-.81.15-1.21.11-.68.24-1.35.37-2a24.4,24.4,0,0,1,1.34-4.15,2.47,2.47,0,0,1,4.5,2c-.23.59-.46,1.18-.67,1.78a23.71,23.71,0,0,0-.68,4.83c0,1.44.06,2.87,0,4.31V288c0,.18,0,.37,0,.55,0,1.62-.06,3.23,0,4.85,0,.85.08,1.7.19,2.54l.24-.5c.23-.5.45-1,.66-1.51.17,1.25.43,2.48.68,3.72,1.1,4.23,2.53,8.39,3.22,12.71.65,4.07,1.16,8.16,2,12.19.64,2.43,1.41,4.8,2.27,7.17s1.78,4.6,2.69,6.89c1,2.53,2,5.08,3,7.62a66.76,66.76,0,0,0,2.88,6.26l.75,1.35a158.74,158.74,0,0,0,10.61,15.89c1.84,2.52,3.69,5,5.64,7.46s3.93,4.69,6,7l0,0,.06.07c1.74,1.85,3.49,3.7,5.28,5.51s3.64,3.47,5.54,5.13c2.43,2.12,4.84,4.25,7.29,6.35s4.87,4,7.29,6.09,4.77,4.2,7.27,6.16c1.28,1,2.55,2,3.89,3s2.44,1.64,3.68,2.43c2.85,1.71,5.73,3.38,8.62,5,5.47,3.16,10.88,6.41,16.33,9.6,2.76,1.61,5.57,3.15,8.3,4.82,2.95,1.79,5.87,3.62,8.79,5.45,2.21,1.36,4.41,2.74,6.65,4.05q4,2.34,8,4.63c5,2.82,9.92,5.63,14.93,8.34a2.76,2.76,0,0,1,1.38,1.46l0,.06c1.45-1.68,3-3.31,4.45-5,2.32-2.55,4.59-5.13,6.78-7.79,4.27-5.19,8.41-10.47,13-15.4,2.43-2.6,4.9-5.15,7.39-7.69,2.3-2.35,4.58-4.72,6.92-7,5.09-5,10.37-9.88,15.66-14.72,2.55-2.41,5-4.86,7.58-7.29,2.77-2.66,5.69-5.16,8.67-7.58,2.73-2.22,5.47-4.43,8.11-6.74s5.57-4.89,8.38-7.31c2.41-2.07,4.91-4.05,7.4-6q4.8-3.77,9.66-7.45a2.72,2.72,0,0,1,2.63-.3l.16-.35a2.23,2.23,0,0,1-.58-1.19,55.94,55.94,0,0,1-.94-8.42c-.11-2.28-.08-4.57-.12-6.86s-.07-4.54-.18-6.81-.2-4.37-.27-6.55-.23-4.65-.39-7-.29-4.37-.37-6.55a60.77,60.77,0,0,1,0-7.31c.19-2.41.44-4.82.68-7.22.22-2.24.43-4.49.8-6.72.73-4.47,1.71-8.9,2.67-13.33.51-2.34.94-4.7,1.42-7s1-4.49,1.6-6.72,1.23-4.48,1.84-6.72,1.11-4.23,1.71-6.33,1.28-4.44,1.91-6.67c.7-2.47,1.39-4.93,2.17-7.37,1.41-4.4,3.19-8.65,5-12.92.91-2.21,1.84-4.39,2.82-6.57.8-1.79,1.68-3.54,2.56-5.29a2.91,2.91,0,0,1,3.74-3.69s-58-126.21-110-160.21-134.71-59-237.35-39-185.65,141-171.65,248S54.88,487.74,327.18,624c-2.69-1.85-5.3-3.8-7.88-5.8S314.09,613.95,311.62,611.65ZM216.08,302.3l-.13.22-.29-.06.4-.4Q216.06,302.19,216.08,302.3Z" transform="translate(-11.92 -6.13)"/></svg>