<svg xmlns="http://www.w3.org/2000/svg" width="1920" height="1080" viewBox="0 0 1920 1080"><defs><style>.a{fill:#e6e6e6;}.b{fill:#f4c04a;}.c{fill:#804fff;}.d{fill:#fff;}.e{fill:#acdfff;}.f{fill:#453773;}.g{fill:#b2095e;}.h{fill:#f4bf56;}.i{fill:#afc461;}.j{fill:#3a896e;}.k{fill:#3b544b;}.l{fill:#6dab56;}.m{fill:#860627;}.n{fill:#225378;}.o{fill:#d1570d;}.p,.w,.x{fill:none;stroke-miterlimit:10;}.p{stroke:#e6e6e6;stroke-width:4px;}.q{fill:#404041;}.r{fill:#ffb819;}.s{fill:#f7d93e;}.t{fill:#fced75;}.u{fill:#a6a8ab;}.v{fill:#f2f2f2;}.w{stroke:#ccc;}.w,.x{stroke-width:6px;}.x{stroke:#7263ba;}.y{fill:#268efe;}.z{fill:#2e3192;}.aa{fill:#f7931e;}.ab{fill:#fcee21;}.ac{fill:#c1272d;}.ad{fill:#8cc63f;}</style></defs><title>vector goldfynch</title><rect class="a" y="418.6" width="200" height="68"/><rect class="b" width="1920" height="110"/><path class="c" d="M1471,39V71a12,12,0,0,1-12,12h-54V27h54A12,12,0,0,1,1471,39Z"/><path class="d" d="M1405,27V83H225a12,12,0,0,1-12-12V39a12,12,0,0,1,12-12Z"/><path class="d" d="M1451.5,64.5l-5.2-5.2a10.3,10.3,0,0,0,1.9-6,10.4,10.4,0,0,0-.8-4.1,10.4,10.4,0,0,0-5.6-5.6,10.5,10.5,0,0,0-8.2,0,10.4,10.4,0,0,0-5.6,5.6,10.5,10.5,0,0,0,0,8.2,10.4,10.4,0,0,0,5.6,5.6,10.4,10.4,0,0,0,4.1.8,10.3,10.3,0,0,0,6-1.9l5.2,5.1a1.8,1.8,0,0,0,1.4.6,1.9,1.9,0,0,0,1.4-3.3Zm-9.1-6.4a6.7,6.7,0,1,1,2-4.8,6.5,6.5,0,0,1-2,4.8Zm0,0"/><rect class="e" x="1317" y="35" width="80" height="40" rx="5.5" ry="5.5"/><path class="f" d="M1597.9,36.2A4,4,0,0,0,1595,35h-41.7a4.2,4.2,0,0,0-4.2,4.2V70.8a4.2,4.2,0,0,0,4.2,4.2H1595a4.2,4.2,0,0,0,4.2-4.2V39.2a4,4,0,0,0-1.2-2.9Zm-2.1,34.6a.8.8,0,0,1-.2.6l-.6.2h-41.7l-.6-.2a.8.8,0,0,1-.2-.6V55h43.3Zm0-25.8h-43.3V39.2a.8.8,0,0,1,.2-.6l.6-.2H1595l.6.2a.8.8,0,0,1,.2.6Zm0,0"/><rect class="f" x="1555.8" y="65" width="6.7" height="3.33"/><rect class="f" x="1565.8" y="65" width="10" height="3.33"/><path class="f" d="M1699.4,52.5l-.5-.3-4.1-.6a13.7,13.7,0,0,0-.9-2.2l1.2-1.6,1.2-1.5a.9.9,0,0,0,.2-.5.7.7,0,0,0-.2-.5,31,31,0,0,0-3.7-3.9l-.6-.2-.5.2-3.2,2.4-2-.8-.6-4.2a.7.7,0,0,0-.3-.5l-.6-.2h-5a.8.8,0,0,0-.8.6,36.9,36.9,0,0,0-.7,4.2l-2.1.9-3.1-2.4-.6-.2q-.5,0-2.1,1.6a22.6,22.6,0,0,0-2.2,2.4,1,1,0,0,0-.2.5.8.8,0,0,0,.2.5l2.4,3.1a11.3,11.3,0,0,0-.9,2.1l-4.2.6-.4.3a.9.9,0,0,0-.2.5v5a.9.9,0,0,0,.2.5l.5.3,4.1.6a11.1,11.1,0,0,0,.9,2.2l-1.2,1.6-1.2,1.5a.9.9,0,0,0,0,1,29.8,29.8,0,0,0,3.7,3.8l.6.2.6-.2,3.2-2.4,2,.8.6,4.2a.7.7,0,0,0,.3.5l.6.2h5a.8.8,0,0,0,.8-.6,37.4,37.4,0,0,0,.7-4.2l2.1-.9,3.1,2.4.6.2q.5,0,2.1-1.6a22.9,22.9,0,0,0,2.2-2.4.8.8,0,0,0,.2-.5.9.9,0,0,0-.2-.6l-2.4-3.1a14.5,14.5,0,0,0,.9-2.1l4.2-.6.5-.3a.9.9,0,0,0,.2-.5v-5a.9.9,0,0,0-.2-.5Zm-13.1,7.1a5.8,5.8,0,1,1,1.7-4.1,5.6,5.6,0,0,1-1.7,4.1Zm0,0"/><path class="f" d="M1716.8,42.2h-.2l-2.1-.3-.5-1.1.6-.8.6-.8v-.3a.4.4,0,0,0-.1-.2,15.5,15.5,0,0,0-1.9-1.9h-.6l-1.6,1.2-1-.4-.3-2.1v-.2h-2.8a.4.4,0,0,0-.4.3,18.4,18.4,0,0,0-.3,2.1l-1,.4-1.6-1.2h-.3q-.2,0-1.1.8l-1.1,1.2v.5l1.2,1.6-.4,1-2.1.3h-.2v3h.2l2.1.3a5.5,5.5,0,0,0,.5,1.1l-.6.8-.6.8v.5a14.9,14.9,0,0,0,1.9,1.9h.6l1.6-1.2,1,.4.3,2.1v.2h2.8a.4.4,0,0,0,.4-.3,18.7,18.7,0,0,0,.3-2.1l1-.4,1.6,1.2h.3q.2,0,1.1-.8l1.1-1.2v-.5l-1.2-1.6.4-1,2.1-.3h.2v-3Zm-6.6,3.5a2.9,2.9,0,1,1,.8-2,2.8,2.8,0,0,1-.8,2Zm0,0"/><path class="f" d="M1716.8,64.8h-.2l-2.1-.3-.5-1.1.6-.8.6-.8v-.3a.4.4,0,0,0-.1-.2,15.5,15.5,0,0,0-1.9-1.9h-.6l-1.6,1.2-1-.4-.3-2.1v-.2h-2.8a.4.4,0,0,0-.4.3,18.4,18.4,0,0,0-.3,2.1l-1,.4-1.6-1.2h-.3q-.2,0-1.1.8l-1.1,1.2v.5l1.2,1.6-.4,1-2.1.3h-.2v3h.2l2.1.3a5.5,5.5,0,0,0,.5,1.1l-.6.8-.6.8v.5a14.9,14.9,0,0,0,1.9,1.9h.6l1.6-1.2,1,.4.3,2.1v.2h2.8a.4.4,0,0,0,.4-.3,18.7,18.7,0,0,0,.3-2.1l1-.4,1.6,1.2h.3q.2,0,1.1-.8l1.1-1.2v-.5l-1.2-1.6.4-1,2.1-.3h.2v-3Zm-6.6,3.5a2.9,2.9,0,1,1,.8-2,2.8,2.8,0,0,1-.8,2Zm0,0"/><path class="f" d="M1802.9,72a.8.8,0,0,1-.1-.4c0-.1-.1-.2-.2-.3l-.3-.2h-10.5a5,5,0,0,1-5-5V44a5,5,0,0,1,5-5h10l.6-.2a1,1,0,0,0,.3-.6,5.3,5.3,0,0,0,.1-.7,7.6,7.6,0,0,0,0-.8c0-.3,0-.5,0-.6a1,1,0,0,0-1-1h-10a9,9,0,0,0-9,9V66a9,9,0,0,0,9,9h10l.6-.2a1,1,0,0,0,.3-.6,5.3,5.3,0,0,0,.1-.7,7.6,7.6,0,0,0,0-.8c0-.3,0-.5,0-.6Zm0,0"/><path class="f" d="M1831.3,53.6l-17-17a2,2,0,0,0-3.4,1.4v9h-14a2,2,0,0,0-2,2V61a2,2,0,0,0,2,2h14v9a2,2,0,0,0,3.4,1.4l17-17a2,2,0,0,0,0-2.8Zm0,0"/><rect class="g" x="72.5" y="166.5" width="55" height="55" rx="11.8" ry="11.8"/><path class="d" d="M86.5,192.3a2.3,2.3,0,0,0-.7,1.7,2.4,2.4,0,0,0,.7,1.8l12.5,12.5a2.5,2.5,0,0,0,3.5,0l1.4-1.4a2.5,2.5,0,0,0,0-3.5l-5.6-5.6h13.6a2.1,2.1,0,0,0,1.6-.7,2.6,2.6,0,0,0,.6-1.7v-2.5a2.6,2.6,0,0,0-.6-1.7,2.1,2.1,0,0,0-1.6-.7H98.4l5.6-5.7a2.4,2.4,0,0,0,0-3.5l-1.4-1.4a2.4,2.4,0,0,0-3.5,0L86.5,192.3Zm0,0"/><rect class="h" x="72.5" y="283" width="55" height="55" rx="11.8" ry="11.8"/><path class="d" d="M117.1,309.2a20.9,20.9,0,0,0-7.4-7.2,18.9,18.9,0,0,0-19.5,0,20.9,20.9,0,0,0-7.4,7.2,2.5,2.5,0,0,0,0,2.7,20.8,20.8,0,0,0,7.4,7.2,18.9,18.9,0,0,0,19.5,0,20.7,20.7,0,0,0,7.4-7.2,2.5,2.5,0,0,0,0-2.7Zm-21.3-5.3a5.7,5.7,0,0,1,4.2-1.7.9.9,0,1,1,0,1.9,4.1,4.1,0,0,0-4.1,4.1.9.9,0,1,1-1.9,0,5.7,5.7,0,0,1,1.7-4.2Zm12.7,13.1a16.4,16.4,0,0,1-17,0,20.1,20.1,0,0,1-6.5-6.4,19.2,19.2,0,0,1,7.4-6.9,8.5,8.5,0,0,0-1.2,4.4,8.8,8.8,0,0,0,17.5,0,8.5,8.5,0,0,0-1.2-4.4,19.2,19.2,0,0,1,7.4,6.9,20.1,20.1,0,0,1-6.5,6.4Zm0,0"/><rect class="i" x="72.5" y="354" width="55" height="55" rx="11.8" ry="11.8"/><path class="d" d="M117,372.1a1.8,1.8,0,0,0-1.3-.5h-8.1a5,5,0,0,0-2.5.8v-6.4a1.9,1.9,0,0,0-1.9-1.9H95a5.2,5.2,0,0,0-3.2,1.3l-8,8a5.2,5.2,0,0,0-1.3,3.2v13.1a1.9,1.9,0,0,0,1.9,1.9H95v5.6a1.9,1.9,0,0,0,1.9,1.9h18.7a1.9,1.9,0,0,0,1.9-1.9V373.4a1.8,1.8,0,0,0-.5-1.3Zm-12,3.6v5.8H99.2Zm-12.5-7.5V374H86.7Zm3.8,12.6A5.2,5.2,0,0,0,95,384v5H85V376.5h8.1a1.9,1.9,0,0,0,1.9-1.9v-8.1h7.5v8.1ZM115,396.5H97.5V384h8.1a1.9,1.9,0,0,0,1.9-1.9V374H115Zm0,0"/><rect class="j" x="72.5" y="425.1" width="55" height="55" rx="11.8" ry="11.8"/><path class="d" d="M116.7,465.5l-7.2-7.2a14.4,14.4,0,0,0,2.6-8.4,14.6,14.6,0,0,0-1.2-5.8,14.5,14.5,0,0,0-7.9-7.9,14.8,14.8,0,0,0-11.5,0,14.5,14.5,0,0,0-7.9,7.9,14.8,14.8,0,0,0,0,11.5,14.5,14.5,0,0,0,7.9,7.9,14.6,14.6,0,0,0,5.8,1.2,14.4,14.4,0,0,0,8.4-2.6l7.2,7.2a2.5,2.5,0,0,0,1.9.8,2.7,2.7,0,0,0,1.9-4.6ZM104,456.5a9.4,9.4,0,1,1,2.8-6.7,9.1,9.1,0,0,1-2.8,6.7Zm0,0"/><rect class="k" x="72.5" y="496.1" width="55" height="55" rx="11.8" ry="11.8"/><path class="d" d="M114.4,507.2a2.6,2.6,0,0,0-1.2-.9l-1-.2H87.9l-1,.2a2.6,2.6,0,0,0-1.2.9,2.5,2.5,0,0,0-.5,1.4v29.8a2.5,2.5,0,0,0,.5,1.4,2.6,2.6,0,0,0,1.2.9l1,.2a2.8,2.8,0,0,0,1.9-.8l10.2-9.8,10.2,9.8a2.8,2.8,0,0,0,1.9.7l1-.2a2.6,2.6,0,0,0,1.2-.9,2.5,2.5,0,0,0,.5-1.4V508.7a2.5,2.5,0,0,0-.5-1.4Zm-2.5,30.5-9.8-9.4-2.1-2-2.1,2-9.8,9.4V509h23.7Zm0,0"/><rect class="l" x="72.5" y="567.1" width="55" height="55" rx="11.8" ry="11.8"/><path class="d" d="M116.3,593.1a3.9,3.9,0,0,0-2.9-1.2h-1.3v-5.4a5.6,5.6,0,0,0-1.4-3.4l-3.2-3.2a5.6,5.6,0,0,0-3.5-1.4H89.9a2,2,0,0,0-2,2v11.4H86.5a4.1,4.1,0,0,0-4,4v8.8a.6.6,0,0,0,.2.5l.5.2h4.7v3.4a2,2,0,0,0,2,2h20.2a2,2,0,0,0,2-2v-3.4h4.7l.5-.2a.6.6,0,0,0,.2-.5v-8.8a3.9,3.9,0,0,0-1.2-2.8Zm-6.9,15H90.6v-5.4h18.8Zm0-13.5H90.6V581.1H104v3.4a2,2,0,0,0,2,2h3.4Zm5,2.3a1.3,1.3,0,1,1,.4-.9,1.3,1.3,0,0,1-.4.9Zm0,0"/><rect class="m" x="72.5" y="638.1" width="55" height="55" rx="11.8" ry="11.8"/><path class="d" d="M115.2,656.8a17.4,17.4,0,0,0-6.4-6.4,17.6,17.6,0,0,0-17.6,0,17.4,17.4,0,0,0-6.4,6.4,17.6,17.6,0,0,0,0,17.6,17.4,17.4,0,0,0,6.4,6.4,17.6,17.6,0,0,0,17.6,0,17.4,17.4,0,0,0,6.4-6.4,17.6,17.6,0,0,0,0-17.6Zm-12.2,19.7a.7.7,0,0,1-.2.5l-.5.2H97.8l-.5-.2a.7.7,0,0,1-.2-.5v-4.3a.7.7,0,0,1,.2-.5l.5-.2h4.4l.5.2a.7.7,0,0,1,.2.5Zm0-7.8a.6.6,0,0,1-.2.4l-.5.2H97.9l-.5-.2a.5.5,0,0,1-.2-.4l-.4-14.2a.4.4,0,0,1,.2-.4l.5-.2h5l.5.2a.4.4,0,0,1,.2.4Zm0,0"/><rect class="f" x="72.5" y="709.1" width="55" height="55" rx="11.8" ry="11.8"/><path class="d" d="M110.4,739.2a2.4,2.4,0,0,0-.7-1.7L96.6,724.4a6.5,6.5,0,0,0-4-1.7H84.9a2.4,2.4,0,0,0-2.4,2.4v7.7a5.7,5.7,0,0,0,.5,2.2,5.5,5.5,0,0,0,1.2,1.9l13.2,13.2a2.3,2.3,0,0,0,1.7.7,2.4,2.4,0,0,0,1.7-.7l9-9.1a2.3,2.3,0,0,0,.7-1.7Zm-20.4-8.9a2.4,2.4,0,1,1,.7-1.7,2.3,2.3,0,0,1-.7,1.7Zm0,0"/><path class="d" d="M116.8,737.5l-13.2-13.2a6.5,6.5,0,0,0-4-1.7H95.5a6.5,6.5,0,0,1,4,1.7l13.2,13.2a2.4,2.4,0,0,1,.7,1.7,2.3,2.3,0,0,1-.7,1.7l-8.7,8.7,1,.8a2.1,2.1,0,0,0,1.1.3,2.4,2.4,0,0,0,1.7-.7l9-9.1a2.3,2.3,0,0,0,.7-1.7,2.4,2.4,0,0,0-.7-1.7Zm0,0"/><rect class="n" x="72.5" y="780.2" width="55" height="55" rx="11.8" ry="11.8"/><path class="d" d="M117.3,804.7l-.5-.3-4.2-.6a13.8,13.8,0,0,0-.9-2.2l1.2-1.6,1.2-1.5a.9.9,0,0,0,.2-.5.7.7,0,0,0-.2-.5,31.2,31.2,0,0,0-3.8-3.9l-.6-.2-.5.2-3.2,2.4L104,795l-.6-4.2a.7.7,0,0,0-.3-.5l-.6-.2H97.5a.8.8,0,0,0-.8.6A37.1,37.1,0,0,0,96,795l-2.1.9-3.1-2.4-.6-.2q-.5,0-2.2,1.6a22.7,22.7,0,0,0-2.2,2.4,1,1,0,0,0-.2.5.9.9,0,0,0,.2.5l2.4,3.1a11.3,11.3,0,0,0-.9,2.1l-4.2.6-.4.3a.9.9,0,0,0-.2.5v5.1a.9.9,0,0,0,.2.5l.5.3,4.2.6a11.2,11.2,0,0,0,.9,2.3L87,815.5,85.9,817a.9.9,0,0,0,0,1,30,30,0,0,0,3.8,3.8l.6.2.6-.2,3.2-2.4,2.1.8.6,4.2a.7.7,0,0,0,.3.5l.6.2h5.1a.8.8,0,0,0,.8-.6,37.6,37.6,0,0,0,.7-4.2l2.1-.9,3.1,2.5.6.2q.5,0,2.1-1.6a23,23,0,0,0,2.3-2.5.8.8,0,0,0,.2-.5.9.9,0,0,0-.2-.6l-2.4-3.1a14.5,14.5,0,0,0,.9-2.1l4.2-.6.5-.3a.9.9,0,0,0,.2-.5v-5.1a.9.9,0,0,0-.2-.5Zm-13.2,7.1a5.8,5.8,0,1,1,1.7-4.1,5.6,5.6,0,0,1-1.7,4.1Zm0,0"/><rect class="o" x="72.5" y="851.2" width="55" height="55" rx="11.8" ry="11.8"/><path class="d" d="M116,880.2a6.9,6.9,0,0,0-3.9-2.5,4.7,4.7,0,0,0-6.9-6.1,9.3,9.3,0,0,0-8.6-5.8,9.3,9.3,0,0,0-9.3,9.3q0,.2,0,.8a8.2,8.2,0,0,0-4.7,7.4,8.2,8.2,0,0,0,8.2,8.2h19.8a7,7,0,0,0,5.5-11.3Zm-10.3-.5-.4.2h-4.1v6.4a.6.6,0,0,1-.2.4l-.4.2H97.1l-.4-.2a.6.6,0,0,1-.2-.4v-6.4H92.4l-.4-.2a.6.6,0,0,1-.2-.4.7.7,0,0,1,.2-.4l6.4-6.4.4-.2.4.2,6.4,6.4a.6.6,0,0,1,.2.4.6.6,0,0,1-.2.4Zm0,0"/><line class="p" x1="200" y1="110" x2="200" y2="1080"/><polygon class="q" points="97 1037 79.6 1038.8 76 1038.8 80.8 1035.2 86.5 1036.5 86.7 1037.4 97 1037"/><polygon class="r" points="112.2 963.7 119 971 110.8 970.3 112.2 963.7"/><polygon class="s" points="104.2 955.7 104.6 974 110.8 970.3 112.2 963.7 104.2 955.7"/><polygon class="r" points="104.4 963.7 84.3 955.7 93.7 985.3 104.6 974 104.4 963.7"/><polygon class="s" points="93.7 985.3 82.1 1011.3 121.7 1022.8 101.6 977.1 93.7 985.3"/><polygon class="s" points="60 984.6 84.3 955.7 76.9 975.9 60 984.6"/><polygon class="t" points="76.9 975.9 88.7 969.8 84.3 955.7 76.9 975.9"/><polygon class="t" points="88.7 969.8 93.7 985.3 82.1 1011.3 78.5 985.9 88.7 969.8"/><polygon class="r" points="121.7 1022.8 123.3 1031.1 103 1026.8 96.5 1034.2 102.4 1038.8 79.6 1038.8 84.3 1035.2 90 1036.5 100.7 1024.2 121.7 1022.8"/><polygon class="u" points="60 984.6 66.4 1005 88.7 969.8 60 984.6"/><polygon class="u" points="103 1026.8 124.4 1041.1 123.3 1031.1 103 1026.8"/><polyline class="q" points="124.4 1041.1 140 1045.7 123.3 1031.1"/><polygon class="q" points="94.8 1024.6 91.9 1034.4 90 1036.5 87.9 1036 91.1 1025 83.5 1025.4 66.4 1005 78.5 985.9 82.1 1011.3 121.7 1022.8 94.8 1024.6"/><polygon class="q" points="84.3 955.7 104.4 963.7 104.2 955.7 96.9 954.3 84.3 955.7"/><rect class="v" x="244.7" y="182.8" width="20" height="20" rx="5" ry="5"/><rect class="v" x="244.7" y="283" width="20" height="20" rx="5" ry="5"/><rect class="v" x="244.7" y="544.5" width="20" height="20" rx="5" ry="5"/><rect class="v" x="244.7" y="803" width="20" height="20" rx="5" ry="5"/><line class="w" x1="309" y1="180.3" x2="689" y2="180.3"/><line class="w" x1="309" y1="205.3" x2="915" y2="205.3"/><rect class="v" x="291.7" y="260" width="1100" height="220" rx="9.4" ry="9.4"/><rect class="v" x="291.7" y="521.5" width="1100" height="220" rx="9.4" ry="9.4"/><rect class="v" x="291.7" y="780" width="1100" height="220" rx="9.4" ry="9.4"/><line class="x" x1="309" y1="293" x2="689" y2="293"/><line class="x" x1="309" y1="555" x2="689" y2="555"/><line class="x" x1="309" y1="813" x2="689" y2="813"/><line class="w" x1="309" y1="338" x2="915" y2="338"/><line class="w" x1="309" y1="372" x2="815" y2="372"/><line class="w" x1="309" y1="338" x2="915" y2="338"/><line class="w" x1="309" y1="406" x2="1020" y2="406"/><line class="w" x1="309" y1="440" x2="869" y2="440"/><line class="w" x1="309" y1="631" x2="815" y2="631"/><line class="w" x1="309" y1="597" x2="915" y2="597"/><line class="w" x1="309" y1="665" x2="1020" y2="665"/><line class="w" x1="309" y1="699" x2="869" y2="699"/><line class="w" x1="309" y1="889" x2="815" y2="889"/><line class="w" x1="309" y1="855" x2="915" y2="855"/><line class="w" x1="309" y1="923" x2="1020" y2="923"/><line class="w" x1="309" y1="957" x2="869" y2="957"/><rect class="v" x="1491" y="263" width="352" height="736" rx="9.7" ry="9.7"/><line class="w" x1="1529" y1="303" x2="1632" y2="303"/><line class="w" x1="1529" y1="395" x2="1632" y2="395"/><path class="y" d="M1671.1,360.3h-23.6V337.8h23.6a8,8,0,0,1,7.9,7.9v6.6A8,8,0,0,1,1671.1,360.3Z"/><path class="d" d="M1647.5,360.3H1536.9a8,8,0,0,1-7.9-7.9v-6.6a8,8,0,0,1,7.9-7.9h110.6Z"/><path class="y" d="M1754.1,452.3h-24.6V429.8h24.6a10,10,0,0,1,9.9,9.9v2.6A10,10,0,0,1,1754.1,452.3Z"/><path class="d" d="M1538.9,429.8h190.6v22.5H1538.9a10,10,0,0,1-9.9-9.9v-2.6A10,10,0,0,1,1538.9,429.8Z"/><line class="w" x1="1529" y1="487.1" x2="1632" y2="487.1"/><rect class="z" x="1529" y="521.8" width="179" height="22.5" rx="5" ry="5"/><rect class="z" x="1529" y="567.8" width="150" height="22.5" rx="5" ry="5"/><rect class="z" x="1529" y="613.8" width="200" height="22.5" rx="5" ry="5"/><line class="w" x1="1529" y1="671.1" x2="1632" y2="671.1"/><rect class="aa" x="1529" y="705.9" width="100" height="22.5" rx="5" ry="5"/><rect class="ab" x="1529" y="751.9" width="125" height="22.5" rx="5" ry="5"/><rect class="ac" x="1529" y="797.9" width="100" height="22.5" rx="5" ry="5"/><rect class="ad" x="1529" y="843.9" width="135" height="22.5" rx="5" ry="5"/></svg>