<svg id="Layer_8" data-name="Layer 8" xmlns="http://www.w3.org/2000/svg" viewBox="0 0 620.8 747.45"><defs><style>.cls-1{fill:#c1c1c1;}.cls-2{fill:#7f7f7f;}.cls-3{fill:#e4dc00;}.cls-4{fill:#ea9a00;}.cls-5{fill:#fff;}.cls-6{fill:#bebebe;}.cls-7{fill:#ffe11a;}</style></defs><title>zero_learning_curve</title><path class="cls-1" d="M417.73,740.21c-1,3-2,5.95-3.2,8.85a26.94,26.94,0,0,1-2.88,5.27,13.15,13.15,0,0,1-1.74,1.76,25,25,0,0,1-11.17,4.6,17.69,17.69,0,0,1-3.78.06,13.75,13.75,0,0,1-2.68-.71,12.32,12.32,0,0,1-2-1.21,14.57,14.57,0,0,1-2-2,15.86,15.86,0,0,1-1.7-2.93,24.37,24.37,0,0,1-1.42-5.36s0-.07,0-.11h0a58.52,58.52,0,0,1-.21-8.58,1.78,1.78,0,0,0-.22-.91l1.85,0c2,0,4,0,6,.11s3.94.35,5.91.56a111.8,111.8,0,0,0,12.27.77c2,0,4-.11,6.05-.17l1,0Z" transform="translate(-111.54 -17.91)"/><path class="cls-1" d="M347,725c.35-2.06,1-4.07,1.5-6.08a1.48,1.48,0,0,0-1-1.8h0c.45.16.9.28,1.35.4a27.91,27.91,0,0,0,4.07.59c1.05.11,2.11.09,3.16.1s2,0,2.93-.06c2.07-.06,4.13-.11,6.2-.15s4,0,6,0q3.26,0,6.49-.11c1.88,0,3.78-.06,5.66,0,2.18.07,4.37.17,6.55.27,2.5.12,5,.19,7.5.23,1.24,0,2.49,0,3.72.15s2.56.24,3.83.4c2,.28,3.92.58,5.88.92s3.89.83,5.81,1.34a58.22,58.22,0,0,0,6.13,1.34c2.08.32,4.2.51,6.31.69,4.05.34,8.12.52,12.18.63,1.93,0,3.87.07,5.8.06,1,0,2,0,3,0,.44,0,.88-.05,1.31-.1a1.66,1.66,0,0,0-1.21,1.54c-.14,1.93-.36,3.84-.6,5.76a15.91,15.91,0,0,1-.75,3.19,9.11,9.11,0,0,1-.58,1.06,3.31,3.31,0,0,1-.26.27l-.13.07a5.36,5.36,0,0,1-.54.14,32.2,32.2,0,0,1-3.54-.11q-1.47-.09-2.94-.12c-2,0-4,0-6,0l-12,0c-4.19,0-8.35.34-12.54.42a105.38,105.38,0,0,1-11.92-.44c-2-.19-3.93-.42-5.91-.45s-4.08,0-6.12,0c-1.14,0-2.29,0-3.44,0-.93,0-1.85.06-2.78.11-2,.11-3.92.28-5.88.35a72.27,72.27,0,0,1-10.6-.46c-.82-.13-1.65-.27-2.48-.43s-1.7-.42-2.55-.64a53,53,0,0,1-5-1.76,26.18,26.18,0,0,1-5.18-2.8,7.06,7.06,0,0,1-.68-.66,6,6,0,0,1-.45-.77,6.48,6.48,0,0,1-.27-1A9.42,9.42,0,0,1,347,725Z" transform="translate(-111.54 -17.91)"/><path class="cls-1" d="M452.42,711a2,2,0,0,0-.54,1.89,23.39,23.39,0,0,1,.46,2.3,13.44,13.44,0,0,1,0,2.69,6,6,0,0,1-.21.81L452,719c-.06.07-.13.12-.19.18h0a4.05,4.05,0,0,1-.47.12,26.58,26.58,0,0,1-3,0c-1,0-2,0-3-.09q-3-.1-6.09-.27c-3.91-.22-7.81-.45-11.71-.83-1.6-.16-3.2-.32-4.79-.51-.92-.15-1.83-.29-2.75-.48l-2.95-.63c-1.06-.22-2.11-.41-3.17-.6-1.22-.21-2.46-.33-3.69-.47-1.93-.22-3.88-.38-5.82-.54s-4-.29-6-.28-4.11.05-6.16,0c-2.2,0-4.39-.08-6.59-.13-4.07-.1-8.13.08-12.2.24-3.77.14-7.54.19-11.31.38-2,.09-4,.19-6,.26a34.13,34.13,0,0,1-5.44-.26,15.66,15.66,0,0,1-2.93-.79,7.33,7.33,0,0,1-.91-.51l-.36-.36a2,2,0,0,1-.14-.25,4.24,4.24,0,0,1-.17-.61,1.5,1.5,0,0,1,0-.3,10.17,10.17,0,0,1,.69-2.15,19.69,19.69,0,0,1,1.56-2.66,8.07,8.07,0,0,1,.93-.92c.39-.28.81-.52,1.21-.77a1.3,1.3,0,0,0,.47-1.77h0a20.09,20.09,0,0,0,3.94.85c.44,0,.87.14,1.31.16l1.65.11c.94.06,1.89,0,2.82,0s1.75,0,2.63,0c1.86,0,3.72.06,5.58.18s3.87.31,5.81.49c3.73.35,7.48.5,11.22.86,2.78.26,5.57.44,8.37.63s5.58.45,8.37.77c1.74.27,3.47.63,5.2,1,2,.4,4.05.62,6.09.82,1.82.19,3.65.4,5.48.57s3.67.36,5.51.59a111,111,0,0,0,11.08,1c1.94,0,3.89,0,5.83,0h1.17c1.39,0,2.8,0,4.2,0,.52,0,1,0,1.56-.1a12.81,12.81,0,0,0,1.95-.33A10.13,10.13,0,0,0,452.42,711Z" transform="translate(-111.54 -17.91)"/><path class="cls-1" d="M453.14,702.44a10.1,10.1,0,0,1,0,1.74,7,7,0,0,1-.28,1,6.65,6.65,0,0,1-.33.58,6.38,6.38,0,0,1-.52.52,10,10,0,0,1-1.46.84,9.32,9.32,0,0,1-1.63.43c-1.87.18-3.77.1-5.64.1s-3.74,0-5.61,0-3.68-.11-5.53-.27-3.6-.36-5.4-.57c-5.35-.62-10.72-1-16.06-1.6-1.76-.27-3.51-.61-5.28-.88a58.54,58.54,0,0,0-5.93-.51c-3.62-.17-7.25-.16-10.87-.34-1.91-.09-3.83-.2-5.74-.25s-3.73-.08-5.59-.17-3.74-.24-5.62-.36-3.93-.19-5.89-.23-3.76,0-5.64,0c-.86,0-1.71,0-2.56-.05-.48,0-1,0-1.42-.07l-1.42-.17a17.39,17.39,0,0,1-3.63-.91,5.49,5.49,0,0,1-2.45-1.84,6.79,6.79,0,0,1-.55-.94,6.31,6.31,0,0,1-.32-1.15,11.33,11.33,0,0,1,0-2.1,31,31,0,0,1,.63-3.19c.38-1.36.81-2.7,1.25-4a1,1,0,0,0,.05-.34,28.59,28.59,0,0,0,4.4,1.75,32.73,32.73,0,0,0,5.27,1.21c2,.31,4,.54,6,.72,3.66.32,7.35.28,11,.5.59,0,1.17.11,1.76.18,1.78.29,3.55.65,5.32,1a53,53,0,0,0,5.75.78c3.64.34,7.3.33,10.95.48s7.3.66,10.95.94c1.79.14,3.57.17,5.35.15s3.62,0,5.43.08,3.78.19,5.68.31,3.65.19,5.48.28c3.49.16,7,.46,10.45.71a41.26,41.26,0,0,0,5.21.2,17.14,17.14,0,0,0,2.57-.29c0,.1.08.2.11.3A36.43,36.43,0,0,1,453.14,702.44Z" transform="translate(-111.54 -17.91)"/><path class="cls-1" d="M455.35,677.12c0,1.75.07,3.53-.07,5.28-.11,1.49-.22,3-.37,4.48a11.8,11.8,0,0,1-.51,2.11,12.18,12.18,0,0,1-.92,1.61,5.71,5.71,0,0,1-.55.55,8.88,8.88,0,0,1-1.16.66l-.3.1a7.65,7.65,0,0,1-1.17.27,30.07,30.07,0,0,1-4.93-.08c-1.79-.14-3.58-.32-5.38-.48-3.54-.34-7.11-.42-10.66-.6-1.82-.1-3.64-.21-5.47-.24s-3.7,0-5.55,0-3.68.21-5.52.24-3.66,0-5.48-.12-3.48-.2-5.22-.27-3.61-.08-5.42-.11a107.1,107.1,0,0,1-10.89-.62c-3.56-.53-7.09-1.32-10.7-1.32-1.9,0-3.79,0-5.69,0s-3.65-.06-5.47-.21c-1.48-.13-3-.28-4.43-.48s-2.76-.49-4.13-.83a29.91,29.91,0,0,1-3.72-1.21,11.55,11.55,0,0,1-2.28-1.27,13.9,13.9,0,0,1-2-1.93,7.13,7.13,0,0,1-.74-1.24,10.42,10.42,0,0,1-.43-1.64,21.11,21.11,0,0,1,.12-3.81c.09-1,.16-2,.18-3,0-1.52.05-3,.06-4.53l1.74.78,1.52.65.1,0,.2.09c.72.3,1.46.6,2.21.84s1.71.52,2.58.75c1.6.45,3.24.79,4.86,1.16s3.45.76,5.19,1,3.74.54,5.62.76c1.67.21,3.36.35,5,.52s3.49.37,5.23.58,3.32.39,5,.61,3.56.42,5.36.55l2.78.18c.85.06,1.69.16,2.53.27,1.45.2,2.9.4,4.34.58,1.66.25,3.32.53,5,.79,1.82.29,3.66.44,5.5.59s3.37.27,5.07.32,3.6.09,5.4.11,3.47,0,5.21,0,3.33.05,5,0,3.52-.2,5.29-.31,3.42-.13,5.13-.24,3.67-.14,5.48-.39a21.11,21.11,0,0,0,2.61-.51c.85-.22,1.68-.48,2.51-.76s1.72-.62,2.55-1A1.38,1.38,0,0,0,455.35,677.12Z" transform="translate(-111.54 -17.91)"/><path class="cls-1" d="M462.91,654.78c-.07,1.51-.18,3-.32,4.53a22.68,22.68,0,0,1-.68,3c-.33,1.06-.65,2.12-1.05,3.15a15,15,0,0,1-.87,1.63c-.33.53-.69,1-1.07,1.54a18.91,18.91,0,0,1-1.35,1.49c-.5.49-1,.94-1.58,1.38-.35.26-.72.52-1.09.75a10.25,10.25,0,0,1-1.18.63c-1.12.43-2.25.82-3.39,1.18-.59.2-1.19.36-1.79.5s-1.06.2-1.59.28l-4.89.33c-1.74.13-3.47.19-5.2.31s-3.43.3-5.14.32-3.64,0-5.45,0c-3,0-6,0-9-.13s-6.2-.38-9.28-.71c-1.59-.22-3.17-.5-4.75-.77s-3.26-.46-4.88-.71c-1.82-.28-3.64-.54-5.48-.67s-3.55-.29-5.32-.5h-.21c-3.31-.45-6.64-.93-10-1.18-1.79-.14-3.59-.25-5.38-.36s-3.4-.27-5.09-.43c-1.3-.12-2.6-.24-3.89-.4-2.2-.34-4.39-.72-6.57-1.17-1.13-.23-2.24-.52-3.35-.82a25.12,25.12,0,0,1-2.89-1.08l0,0-.29-.12c-.87-.39-1.74-.79-2.59-1.2-.39-.19-.79-.39-1.18-.6a17,17,0,0,1-2.19-1.35,10.37,10.37,0,0,1-1.13-1.07,5.19,5.19,0,0,1-.37-.65,8.59,8.59,0,0,1-.39-1.59c-.22-1.83-.24-3.66-.3-5.5-.07-2.09-.14-4.19-.24-6.28,1.25.42,2.51.79,3.74,1.28,1.92.84,3.88,1.56,5.82,2.36,1.47.65,2.94,1.3,4.45,1.84,1.32.48,2.69.81,4,1.16s3,.76,4.5,1.1,2.88.52,4.32.74a69.94,69.94,0,0,1,8.73,1.77c1.36.39,2.73.79,4.1,1.15s2.85.67,4.29,1a74.43,74.43,0,0,0,9.86,1.24c3,.22,6,.39,9,.61,5.87.42,11.76.45,17.65.49a86.36,86.36,0,0,0,9.24-.31c3.13-.33,6.24-.83,9.36-1.28l.37-.05.14,0c1.31-.17,2.63-.31,3.94-.53a36,36,0,0,0,3.58-.72c2.39-.71,4.76-1.47,7.07-2.38,1.37-.54,2.75-1.06,4.09-1.67l2.09-.94A10.72,10.72,0,0,0,462.91,654.78Z" transform="translate(-111.54 -17.91)"/><path class="cls-2" d="M348.47,719c-.53,2-1.15,4-1.5,6.08l-2.92-.4a1.81,1.81,0,0,1,0-.23c.37-2.11,1-4.16,1.58-6.23a1.48,1.48,0,0,1,1.42-1.07,1.5,1.5,0,0,1,.37,0A1.48,1.48,0,0,1,348.47,719Z" transform="translate(-111.54 -17.91)"/><path class="cls-2" d="M451.68,723.71l-.38,0A1.58,1.58,0,0,1,451.68,723.71Z" transform="translate(-111.54 -17.91)"/><path class="cls-2" d="M420.47,738.66a2.25,2.25,0,0,0-2.72,1.49l-1,0c-2,.06-4,.17-6.05.17a111.8,111.8,0,0,1-12.27-.77c-2-.21-3.93-.46-5.91-.56s-4-.09-6-.11l-1.85,0a2,2,0,0,0-1.75-1.07L382.8,735c1.15,0,2.3,0,3.44,0q3.06,0,6.12,0c2,0,3.95.26,5.91.45a105.38,105.38,0,0,0,11.92.44c4.19-.08,8.35-.42,12.54-.42l12,0c2,0,4,0,6,0q1.47,0,2.94.12a32.2,32.2,0,0,0,3.54.11,5.36,5.36,0,0,0,.54-.14l.13-.07a3.31,3.31,0,0,0,.26-.27,9.11,9.11,0,0,0,.58-1.06,15.91,15.91,0,0,0,.75-3.19c.24-1.92.46-3.83.6-5.76a1.66,1.66,0,0,1,1.21-1.54l.38,0a1.61,1.61,0,0,1,1.59,1.59,39.18,39.18,0,0,1,.11,6.85,14.2,14.2,0,0,1-.82,3.76,7.72,7.72,0,0,1-1.86,2.91c-1.43,1.3-3.43,1.46-5.27,1.44s-3.63-.06-5.45-.06c-1.66,0-3.32,0-5,0-4,0-8-.07-12-.13h-1A2.2,2.2,0,0,0,420.47,738.66Z" transform="translate(-111.54 -17.91)"/><path class="cls-2" d="M422,740.1c-1.41,0-2.82,0-4.24,0a2.25,2.25,0,0,1,2.72-1.49A2.2,2.2,0,0,1,422,740.1Z" transform="translate(-111.54 -17.91)"/><path class="cls-2" d="M347,725a9.42,9.42,0,0,0,0,1.84,6.48,6.48,0,0,0,.27,1,6,6,0,0,0,.45.77,7.06,7.06,0,0,0,.68.66,26.18,26.18,0,0,0,5.18,2.8,53,53,0,0,0,5,1.76c.85.22,1.69.47,2.55.64s1.66.3,2.48.43a72.27,72.27,0,0,0,10.6.46c2-.07,3.92-.24,5.88-.35.93-.05,1.85-.09,2.78-.11l.09,2.82a1.94,1.94,0,0,0-1.77,1.14l-.59,0c-2,.1-4.05.26-6.08.32a61,61,0,0,1-12.8-.94,32.83,32.83,0,0,1-5.68-1.69,59.43,59.43,0,0,1-6.11-2.71c-.48-.25-1-.54-1.43-.81s-.74-.46-1.1-.71a10.64,10.64,0,0,1-1.53-1.22,6.48,6.48,0,0,1-1.74-3.28,9.48,9.48,0,0,1-.16-1.77,13,13,0,0,1,.15-1.52Z" transform="translate(-111.54 -17.91)"/><path class="cls-2" d="M392.28,760a13.75,13.75,0,0,0,2.68.71,17.69,17.69,0,0,0,3.78-.06,25,25,0,0,0,11.17-4.6,13.15,13.15,0,0,0,1.74-1.76,26.94,26.94,0,0,0,2.88-5.27c1.2-2.9,2.24-5.87,3.2-8.85l0-.06c1.42,0,2.83-.06,4.24,0a2.29,2.29,0,0,1,0,1.3c-.34,1.32-.72,2.62-1.11,3.93-.29,1-.62,1.94-1,2.88a48,48,0,0,1-2.78,6.16,16.85,16.85,0,0,1-1.42,2.2,16.57,16.57,0,0,1-1.61,1.94,19,19,0,0,1-3.58,2.66,29.49,29.49,0,0,1-9.11,3.64,18.09,18.09,0,0,1-9.63-.21,14,14,0,0,1-4.38-2.47,15.13,15.13,0,0,1-2.88-3.2,21.54,21.54,0,0,1-3.24-9,42.26,42.26,0,0,1-.45-5.26c0-1.62,0-3.24.06-4.85a2,2,0,0,1,.21-.84c1.17-.05,2.35-.07,3.52-.07a1.78,1.78,0,0,1,.22.91,58.52,58.52,0,0,0,.21,8.58h0s0,.07,0,.11a24.37,24.37,0,0,0,1.42,5.36,15.86,15.86,0,0,0,1.7,2.93,14.57,14.57,0,0,0,2,2A12.32,12.32,0,0,0,392.28,760Z" transform="translate(-111.54 -17.91)"/><path class="cls-2" d="M347.45,717.16a7.38,7.38,0,0,1-2.41-1.29,4.7,4.7,0,0,1-1.12-1.42,3.17,3.17,0,0,1-.34-.95,4.05,4.05,0,0,1-.12-1,8.24,8.24,0,0,1,.75-2.84c.19-.42.37-.83.59-1.22a15.25,15.25,0,0,1,1.76-2.72,11.27,11.27,0,0,1,2.74-2.16,1.4,1.4,0,0,1,.33-.15,10.59,10.59,0,0,0,1.43.61h0a1.3,1.3,0,0,1-.47,1.77c-.4.25-.82.49-1.21.77a8.07,8.07,0,0,0-.93.92,19.69,19.69,0,0,0-1.56,2.66,10.17,10.17,0,0,0-.69,2.15,1.5,1.5,0,0,0,0,.3,4.24,4.24,0,0,0,.17.61,2,2,0,0,0,.14.25l.36.36a7.33,7.33,0,0,0,.91.51,15.66,15.66,0,0,0,2.93.79,34.13,34.13,0,0,0,5.44.26c2-.07,4-.17,6-.26,3.77-.19,7.54-.24,11.31-.38,4.07-.16,8.13-.34,12.2-.24,2.2,0,4.39.1,6.59.13,2,0,4.11,0,6.16,0s4,.11,6,.28,3.89.32,5.82.54c1.23.14,2.47.26,3.69.47,1.06.19,2.11.38,3.17.6l2.95.63c.92.19,1.83.33,2.75.48,1.59.19,3.19.35,4.79.51,3.9.38,7.8.61,11.71.83q3,.16,6.09.27c1,0,2,.06,3,.09a26.58,26.58,0,0,0,3,0,4.05,4.05,0,0,0,.47-.12h0c.06-.06.13-.11.19-.18l.15-.26a6,6,0,0,0,.21-.81,13.44,13.44,0,0,0,0-2.69,23.39,23.39,0,0,0-.46-2.3,2,2,0,0,1,.54-1.89l.46-.23a2.94,2.94,0,0,0,.46-.25,2,2,0,0,1,2.21,1.36,17.47,17.47,0,0,1,1,4.74,8.07,8.07,0,0,1-.75,4.28,5.13,5.13,0,0,1-3.54,2.67l-.56.1a1.58,1.58,0,0,0-.38,0c-.43,0-.87.09-1.31.1-1,0-2,0-3,0-1.93,0-3.87,0-5.8-.06-4.06-.11-8.13-.29-12.18-.63-2.11-.18-4.23-.37-6.31-.69a58.22,58.22,0,0,1-6.13-1.34c-1.92-.51-3.85-1-5.81-1.34s-3.91-.64-5.88-.92c-1.27-.16-2.55-.29-3.83-.4s-2.48-.12-3.72-.15c-2.5,0-5-.11-7.5-.23-2.18-.1-4.37-.2-6.55-.27-1.88-.06-3.78,0-5.66,0q-3.24.07-6.49.11c-2,0-4,0-6,0s-4.13.09-6.2.15c-1,0-1.95.07-2.93.06s-2.11,0-3.16-.1a27.91,27.91,0,0,1-4.07-.59C348.35,717.44,347.9,717.32,347.45,717.16Z" transform="translate(-111.54 -17.91)"/><path class="cls-2" d="M384.64,738.89c-1.17,0-2.35,0-3.52.07a1.94,1.94,0,0,1,1.77-1.14A2,2,0,0,1,384.64,738.89Z" transform="translate(-111.54 -17.91)"/><path class="cls-2" d="M345.2,696.6a16.17,16.17,0,0,1,.36-3.33,46.86,46.86,0,0,1,1.67-6,1.4,1.4,0,0,1,.7-.82,13.24,13.24,0,0,0,1.81,1.16,1,1,0,0,1-.05.34c-.44,1.34-.87,2.68-1.25,4a31,31,0,0,0-.63,3.19,11.33,11.33,0,0,0,0,2.1,6.31,6.31,0,0,0,.32,1.15,6.79,6.79,0,0,0,.55.94,5.49,5.49,0,0,0,2.45,1.84,17.39,17.39,0,0,0,3.63.91l1.42.17c.46,0,.94,0,1.42.07.85.05,1.7.05,2.56.05,1.88,0,3.76,0,5.64,0s3.93.11,5.89.23,3.74.27,5.62.36,3.72.12,5.59.17,3.83.16,5.74.25c3.62.18,7.25.17,10.87.34a58.54,58.54,0,0,1,5.93.51c1.77.27,3.52.61,5.28.88,5.34.62,10.71,1,16.06,1.6,1.8.21,3.6.42,5.4.57s3.69.25,5.53.27,3.74,0,5.61,0,3.77.08,5.64-.1a9.32,9.32,0,0,0,1.63-.43,10,10,0,0,0,1.46-.84,6.38,6.38,0,0,0,.52-.52,6.65,6.65,0,0,0,.33-.58,7,7,0,0,0,.28-1,10.1,10.1,0,0,0,0-1.74,36.43,36.43,0,0,0-1.67-5.48c0-.1-.07-.2-.11-.3a8.9,8.9,0,0,0,1-.24,9.29,9.29,0,0,0,2.23-1h0c.12.25.23.51.35.77.49,1.1,1,2.21,1.38,3.34a13,13,0,0,1,.91,4.08,8.06,8.06,0,0,1-.23,2.34,9.9,9.9,0,0,1-.5,1.38,3.74,3.74,0,0,1-.45.81,7.91,7.91,0,0,1-.94,1.14,10.51,10.51,0,0,1-.9.72,6.2,6.2,0,0,1-.87.57l-.13,0a1.82,1.82,0,0,0-.79.45,10.13,10.13,0,0,1-1.59.59,12.81,12.81,0,0,1-1.95.33c-.52,0-1,.08-1.56.1-1.4,0-2.81,0-4.2,0H442c-1.94,0-3.89,0-5.83,0a111,111,0,0,1-11.08-1c-1.84-.23-3.67-.41-5.51-.59s-3.66-.38-5.48-.57c-2-.2-4.08-.42-6.09-.82-1.73-.35-3.46-.71-5.2-1-2.79-.32-5.57-.58-8.37-.77s-5.59-.37-8.37-.63c-3.74-.36-7.49-.51-11.22-.86-1.94-.18-3.87-.36-5.81-.49s-3.72-.15-5.58-.18c-.88,0-1.75,0-2.63,0s-1.88,0-2.82,0l-1.65-.11c-.44,0-.87-.11-1.31-.16a20.09,20.09,0,0,1-3.94-.85,1.32,1.32,0,0,0-1.13-.64l-.3,0a7,7,0,0,1-.79-.45,8,8,0,0,1-2.64-2.68A7.62,7.62,0,0,1,345.2,696.6Z" transform="translate(-111.54 -17.91)"/><path class="cls-2" d="M453.21,710.59l.13,0a2.94,2.94,0,0,1-.46.25l-.46.23A1.82,1.82,0,0,1,453.21,710.59Z" transform="translate(-111.54 -17.91)"/><path class="cls-2" d="M351.06,704a10.59,10.59,0,0,1-1.43-.61l.3,0A1.32,1.32,0,0,1,351.06,704Z" transform="translate(-111.54 -17.91)"/><path class="cls-3" d="M447.59,484.37c-.63,3.1-1.15,6.22-1.67,9.34-.1.76-.21,1.52-.31,2.28-.44,3.31-.74,6.63-1,10s-.58,6.71-.91,10.06-.68,6.5-.93,9.76-.39,6.65-.44,10c-.09,6.75.24,13.48.6,20.22.17,3.31.26,6.62.3,9.94s-.1,6.63-.25,9.94c0,.76-.12,1.51-.18,2.27s-.1,1.32-.18,2c-.22,1.8-.43,3.6-.72,5.38-.55,3.5-1.22,7-1.9,10.43-.65,3.29-1.33,6.56-2,9.84-.59,3-1,6-1.41,9s-.68,6.23-1,9.34c-.28,2.76-.6,5.52-.8,8.28a86.87,86.87,0,0,0-.37,9c0,1,.05,1.9.08,2.84,0,.28,0,.56,0,.84l-3,.23c0-.43-.07-.85-.08-1.28,0-.78,0-1.55-.07-2.33,0-.55-.06-1.12,0-1.67,0-1.23.07-2.47.1-3.7s.17-2.46.25-3.68.2-2.28.29-3.41l.51-5.94c.3-3.38.58-6.77,1-10.14s.93-6.94,1.54-10.39,1.23-6.65,1.83-10c.57-3.1,1.06-6.2,1.52-9.33.28-2.62.56-5.25.64-7.89.08-2.84.18-5.69.09-8.53,0-1.54,0-3.09-.13-4.62s-.18-3.2-.28-4.8c-.15-2.74-.4-5.47-.6-8.2-.25-3.38-.4-6.76-.52-10.14s-.08-6.51,0-9.76c.15-6.56.87-13.08,1.39-19.61.28-3.44.55-6.89.88-10.34s.86-6.93,1.43-10.37c.51-3.15,1.16-6.28,1.79-9.41.33-1.63.66-3.26,1-4.9.25-1.45.47-2.91.68-4.37.26-2.59.49-5.17.63-7.77s.19-5,.37-7.51c.2-2.75.43-5.49.65-8.23.2-2.55.34-5.11.49-7.67.38-6.72,1-13.41,1.77-20.1.72-6.52,1.71-13,2.63-19.51q.38-3,.71-6c.2-1.76.41-3.52.65-5.28s.44-3.26.78-4.87c.18-.84.32-1.7.55-2.53l.75-2.83c.37-1.38.79-2.75,1.19-4.12a87.81,87.81,0,0,0,2.35-9.7c.55-3.23,1-6.47,1.45-9.71.17-1.31.32-2.62.47-3.93.61,0,1.22.05,1.83,0a2.07,2.07,0,0,0,2.05-2.05l1.24,0c0,1.26-.08,2.53-.14,3.79-.15,3.47-.6,6.91-1.09,10.34q-.3,2.24-.75,4.44c-.16.81-.3,1.62-.5,2.42s-.48,1.88-.72,2.82c-.38,1.47-.86,2.93-1.3,4.39-.53,1.72-1,3.46-1.52,5.2a71.37,71.37,0,0,0-1.75,9.06c-.52,4.14-1.06,8.27-1.7,12.39-.58,3.81-1.18,7.62-1.72,11.43-.83,6.58-1.55,13.16-2,19.77-.21,3.1-.29,6.21-.44,9.31-.16,3.31-.39,6.62-.6,9.93s-.31,6.8-.49,10.19c-.08,1.56-.22,3.11-.36,4.66-.18,1.86-.43,3.7-.69,5.55-.21,1.54-.52,3.08-.82,4.6Q448.15,481.67,447.59,484.37Z" transform="translate(-111.54 -17.91)"/><path class="cls-3" d="M434.66,645.83c.17,2.12.34,4.24.53,6.35a1.5,1.5,0,0,1-1.5,1.5,1.53,1.53,0,0,1-1.5-1.5c-.15-1.72-.3-3.45-.44-5.18-.05-.59-.11-1.19-.15-1.78l3-.23C434.61,645.28,434.64,645.56,434.66,645.83Z" transform="translate(-111.54 -17.91)"/><path class="cls-4" d="M370.67,350.94a36.62,36.62,0,0,1-3,2.66,4.16,4.16,0,0,1-1.27.57,2.2,2.2,0,0,1-.92,0,1.27,1.27,0,0,1-.52-.17,2.61,2.61,0,0,1-.27-.19l.09-.88a.52.52,0,0,1,0-.11v0h0c.15-1,.3-2.06.5-3.09.11-.56.24-1.12.38-1.68,0,.73.1,1.46.19,2.19l0-.16c0,.1,0,.21.05.31a8.33,8.33,0,0,0,.22,1.23.82.82,0,0,0,.2-.12,13.38,13.38,0,0,0,1.21-1.05c.3-.29.58-.6.88-.88a4.58,4.58,0,0,1,1.73-1.23,3.46,3.46,0,0,1,2.18-.07,7.54,7.54,0,0,1,1.35.56c.3.17.58.36.87.56l.84.57a24,24,0,0,0,2.56,1.68,6.69,6.69,0,0,0,.77.2,6.42,6.42,0,0,0,1,0,22.91,22.91,0,0,0,3.72-1.16l2.07-.73a14,14,0,0,1,5.63-1l1.34,0a36.06,36.06,0,0,0,4.16-.06c1.54-.12,3.1-.22,4.64-.4a20.56,20.56,0,0,0,4.27-1.34c.59-.26,1.18-.51,1.76-.79.4-.2.81-.39,1.21-.6s.75-.4,1.13-.58a7.59,7.59,0,0,1,1.35-.57,9.26,9.26,0,0,1,5.68.86c.81.34,1.61.68,2.4,1.07l.57.15h.08a4.5,4.5,0,0,0,.77-.23,20.07,20.07,0,0,0,2.95-2l.73-.55a10.06,10.06,0,0,1,.94-.67,8.83,8.83,0,0,1,1.12-.53,5,5,0,0,1,1.85-.33h.4a13,13,0,0,1,2.39.4c.8.22,1.56.55,2.37.7a6.22,6.22,0,0,0,1.14,0,9.87,9.87,0,0,0,1.41-.31,8,8,0,0,1,1.94-.35,10.36,10.36,0,0,1,3.23.47,18.31,18.31,0,0,1,2.88,1.13L445,345a4.84,4.84,0,0,0,.51.14,3.05,3.05,0,0,0,.43,0,15.19,15.19,0,0,0,2-.56,7.57,7.57,0,0,1,2.2-.53,3.63,3.63,0,0,1,.93,0,8,8,0,0,1,2,.39c.47.19.94.38,1.4.59l1.22.54a16.33,16.33,0,0,0,3.44.92,8.57,8.57,0,0,0,.9.09l.58,0c-.12,1.36-.26,2.72-.41,4.07a15.3,15.3,0,0,1-2.33-.29,17.41,17.41,0,0,1-4.32-1.49c-.51-.25-1-.5-1.53-.73a6.11,6.11,0,0,0-.95-.28,4.87,4.87,0,0,0-.66,0,14.52,14.52,0,0,0-2,.64,7.68,7.68,0,0,1-3,.5,5.51,5.51,0,0,1-2-.54c-.3-.14-.59-.3-.88-.45-.49-.27-1-.52-1.48-.75a13.9,13.9,0,0,0-2.28-.68,7,7,0,0,0-1.21,0c-.45.1-.89.26-1.35.36a15,15,0,0,1-1.63.29,7.21,7.21,0,0,1-1.54,0,6.16,6.16,0,0,1-1.34-.23c-.45-.16-.9-.33-1.36-.48a10.44,10.44,0,0,0-1.56-.38,6.41,6.41,0,0,0-1,0l-.28.08a5.69,5.69,0,0,0-.85.52c-.62.49-1.25,1-1.88,1.44a17.22,17.22,0,0,1-1.81,1.26,9.32,9.32,0,0,1-1.23.6,5.9,5.9,0,0,1-1,.31,5,5,0,0,1-1,.13,5.18,5.18,0,0,1-.78-.09,5.31,5.31,0,0,1-1.28-.41c-.43-.19-.83-.43-1.24-.64s-.93-.46-1.39-.69a12.73,12.73,0,0,0-2.17-.69,4.61,4.61,0,0,0-.83,0l-.35.11c-.94.43-1.85.91-2.77,1.37-.71.34-1.44.64-2.16.94a24.68,24.68,0,0,1-2.76,1A14.62,14.62,0,0,1,401,352l-2.38.21c-1.41.12-2.81.21-4.23.23-.68,0-1.35,0-2-.06a20.62,20.62,0,0,0-3.24,0,21.32,21.32,0,0,0-3.23.94l-2.7.94c-2.07.73-4.45,1.29-6.53.26a9.51,9.51,0,0,1-1.64-1.12c-.31-.23-.61-.48-.92-.73l-1.12-.9c-.18-.14-.36-.28-.55-.4a6.11,6.11,0,0,0-.79-.44,2.92,2.92,0,0,0-.42-.13h-.11l-.37.1Z" transform="translate(-111.54 -17.91)"/><path class="cls-3" d="M461.3,344.61a2.38,2.38,0,0,1,4.05,1.68l-.06,2.39-1.24,0a2.06,2.06,0,0,0-2.05-2c-.48,0-.95,0-1.42,0l0-.3A2.49,2.49,0,0,1,461.3,344.61Z" transform="translate(-111.54 -17.91)"/><path class="cls-5" d="M437.37,654.52c-2.43.42-4.86.86-7.3,1.23a79.67,79.67,0,0,1-8.32.62c-3,0-6,0-9-.07s-5.78-.2-8.66-.4-6-.35-9-.49c-2.18-.1-4.34-.25-6.52-.49-2.71-.4-5.4-.89-8.08-1.51-1.41-.32-2.79-.74-4.2-1s-2.92-.59-4.39-.84-2.85-.39-4.27-.63-3.14-.59-4.71-.93c-2.78-.62-5.61-1-8.34-1.86-1.52-.46-3-.86-4.59-1.23s-2.83-.77-4.23-1.2-2.86-.71-4.27-1.12a3.81,3.81,0,0,0,1.16-2.81c-.32-3.41-.64-6.82-.92-10.24-.26-3.18-.37-6.37-.49-9.55s-.37-6.21-.66-9.31-.81-6.41-1.24-9.62c0-.07,0-.15,0-.23-.38-2.88-.75-5.77-1.13-8.65-.43-3.32-1-6.63-1.54-9.94a154.05,154.05,0,0,0-3.83-17.9c-.89-3-1.79-6-3-9s-2.57-6.12-4.05-9.09q-1.07-2.16-2.22-4.28c-.71-1.3-1.49-2.57-2.23-3.86-1.5-2.67-3-5.32-4.7-7.88s-3.33-5-5.17-7.43c-2-2.55-4.08-4.94-6.23-7.32S301,513,299,510.66s-3.89-4.5-5.84-6.75c-1.5-1.72-3.17-3.28-4.83-4.85s-3.57-3.29-5.4-4.88c-1.49-1.3-2.93-2.63-4.35-4a1.43,1.43,0,0,0,.43-.31,2,2,0,0,0,0-2.77c-2.55-2.38-5-4.85-7.34-7.42a11.4,11.4,0,0,0-1.05-1.58l-1.81-2.16c-1.26-1.72-2.58-3.38-3.9-5.05a46.53,46.53,0,0,0-3.15-4.37c-.46-.62-.93-1.22-1.39-1.83-.63-.83-1.18-1.71-1.79-2.55-2.41-3.31-4.57-6.77-6.78-10.21a190.46,190.46,0,0,1-12.07-21.57c-.35-1-.82-2-1.24-2.93s-.84-1.92-1.26-2.89a240.89,240.89,0,0,1-9.76-27.63c-1.37-4.88-2.65-9.76-3.73-14.71s-1.94-9.95-2.65-15l-.06-.45c-.51-4-.87-8.07-1.21-12.12-.39-4.63-.5-9.29-.51-13.94,0-4.37.06-8.73.33-13.11s.68-8.5,1.23-12.73a220.06,220.06,0,0,1,5.14-25.8,191.77,191.77,0,0,1,8.48-24.69,186.94,186.94,0,0,1,23.32-40,220.65,220.65,0,0,1,15.83-18.2,198.54,198.54,0,0,1,20.19-18A204.25,204.25,0,0,1,315.52,174a231.84,231.84,0,0,1,24.63-12.19l.21-.09a195.12,195.12,0,0,1,47.75-12.91,211.21,211.21,0,0,1,26.36-1.58,200.63,200.63,0,0,1,26.16,1.66,193.34,193.34,0,0,1,47.15,12.68,207,207,0,0,1,44.36,25.87,238.78,238.78,0,0,1,18.91,16.33c3.16,3,6.28,6.12,9.22,9.38s6,6.9,8.81,10.49a199.35,199.35,0,0,1,24.44,41.93,184.44,184.44,0,0,1,7.55,22.06c.44,1.62.85,3.26,1.25,4.89.5,2,1,4,1.35,6,.36,2.17.81,4.33,1.17,6.5.33,2,.61,3.94.89,5.91q.9,7.11,1.4,14.25c.1,1.32.15,2.64.21,4,.05,1.15.13,2.31.1,3.47-.07,2.33-.09,4.65-.09,7,0,4.76-.37,9.49-.5,14.24-.12,4.24-.32,8.5-.83,12.72-.93,6.36-2.35,12.65-3.9,18.89-.41,1.69-.88,3.36-1.36,5-.12.3-.25.61-.38.91-.15.46-.31.91-.46,1.37-.24.73-.49,1.45-.74,2.17-.51,1.51-1.13,3-1.64,4.48-.63,1.87-1.29,3.74-2,5.61-.61,1.43-1.19,2.86-1.79,4.3-1.7,4-3.47,7.9-5.34,11.79-2.19,4.58-4.64,9-7.18,13.42a249.45,249.45,0,0,1-17.47,26.19c-5.78,7.35-12,14.34-18.44,21.09-1.74,1.82-3.54,3.6-5.35,5.35-1.58,1.53-3.12,3.12-4.69,4.66l-.7.69c-1.8,1.75-3.7,3.41-5.59,5.06-1,.82-1.91,1.63-2.87,2.44l-1.45,1.2c-.34.38-.68.76-1,1.15a5.81,5.81,0,0,0-1.49,2.54,6,6,0,0,0-.2,1.88c-.51.56-1,1.12-1.5,1.69a88,88,0,0,0-7.14,9.08,59.18,59.18,0,0,0-4.83,10.09c-.66,1.56-1.34,3.13-2.11,4.65-1,2-2.08,3.9-3.13,5.85-1.95,3.62-4,7.22-5.79,10.91-.93,1.87-1.82,3.76-2.82,5.58s-2,3.7-3,5.6q-1.69,3.45-3.17,7c-.81,2-1.51,4-2.23,6-1.41,4-2.61,8-3.87,12-.64,2.06-1.27,4.11-1.87,6.19s-1,4-1.56,6c-1.07,4.09-2.38,8.11-3.75,12.12-.72,2.12-1.53,4.21-2.36,6.3-.71,1.79-1.48,3.58-2,5.43a73.13,73.13,0,0,0-1.93,8.12c-.23,1.22-.4,2.46-.6,3.68s-.46,2.33-.67,3.5c-.54,3.06-.9,6.13-1.17,9.21-2.36,1.22-4.77,2.33-7.2,3.37a104.74,104.74,0,0,1-14.6,4.38c-1.15.24-2.33.36-3.5.52S438.64,654.3,437.37,654.52Zm-54-303.85a22.91,22.91,0,0,1-3.72,1.16,6.42,6.42,0,0,1-1,0,6.69,6.69,0,0,1-.77-.2,24,24,0,0,1-2.56-1.68l-.84-.57c-.29-.2-.57-.39-.87-.56a7.54,7.54,0,0,0-1.35-.56,3.46,3.46,0,0,0-2.18.07,4.58,4.58,0,0,0-1.73,1.23c-.3.28-.58.59-.88.88a13.38,13.38,0,0,1-1.21,1.05.82.82,0,0,1-.2.12,8.33,8.33,0,0,1-.22-1.23.77.77,0,0,1,0-.15c-.09-.73-.15-1.46-.19-2.19l.36-1.36c.65-2.33,1.39-4.64,2.17-6.93a.77.77,0,0,0-.53-.93.69.69,0,0,0-.2,0,.79.79,0,0,0-.73.56q-.93,2.75-1.77,5.54a1.09,1.09,0,0,0-.65-.2A1.25,1.25,0,0,0,363,346c.09,1.74.18,3.46.43,5.17h0c-.43,2.63-.66,5.28-.86,7.93-.12,1.67-.16,3.35-.23,5s-.06,3.24,0,4.86a48.24,48.24,0,0,0,.49,6.36,39.59,39.59,0,0,0,1.63,6.34c.51,1.55,1.06,3.08,1.58,4.62s1.14,3.29,1.63,4.95c.24.85.53,1.69.74,2.55l.67,2.65c.21.83.35,1.68.53,2.51s.24,1.52.36,2.28.13,1.26.19,1.88a33.2,33.2,0,0,1,.14,3.86,51.62,51.62,0,0,1-.5,5.27c-.13.8-.27,1.6-.41,2.4s-.37,1.7-.56,2.54c-.36,1.66-.77,3.3-1.14,5s-.6,3.16-.85,4.74c-.13.84-.21,1.68-.29,2.53a30.49,30.49,0,0,0,0,5.32c.08,1,.26,2.05.4,3.07.1.75.22,1.5.34,2.25.3,1.77.6,3.55.91,5.32.56,3.29,1.18,6.56,1.73,9.85.38,2.25.71,4.52,1,6.78s.47,4.53.78,6.78c0,.25.07.49.1.74s0,.25.05.37,0,.09,0,.13c.06.5.13,1,.2,1.51l0,.24a1.38,1.38,0,0,0,0,.2.2.2,0,0,0,0,.07c0,.14,0,.27,0,.4a.43.43,0,0,0,0,.05c0,.06,0,.12,0,.18.38,2.83.84,5.65,1.28,8.46.47,3,.94,5.94,1.37,8.91.18,1.59.35,3.18.47,4.77.13,1.79.22,3.58.3,5.38.07,1.52.08,3.05.09,4.57,0,1.84,0,3.68.07,5.51,0,1.49.11,3,.16,4.47.07,1.66.14,3.32.19,5,.05,1.81.09,3.63.1,5.44s0,3.66-.07,5.48c-.07,3.12-.29,6.25-.5,9.36-.25,3.57-.49,7.13-.74,10.69-.1,1.43-.21,2.86-.31,4.3-.06.79-.12,1.59-.17,2.39s-.12,1.65-.13,2.47l-.06,2.61c0,.88.05,1.78.08,2.66s.12,1.57.18,2.36.17,1.65.27,2.48c.34,3.07.87,6.12,1.15,9.2.17,1.84.31,3.66.43,5.5.1,1.54.15,3.09.19,4.64.11,3.21.16,6.43.18,9.65s.05,6.66.2,10c.17,4.15.66,8.28,1.21,12.39,0,.1,0,.2,0,.3s0,.09,0,.13c.28,2.13.52,4.25.67,6.39s.27,4.17.38,6.25a59,59,0,0,1,.07,6.24c-.06,1.18-.14,2.36-.22,3.53s-.11,2.49-.15,3.73a2,2,0,0,0,3.35,1.38,2,2,0,0,0,.57-1.38c.19-1.79.45-3.57.62-5.35s.23-3.3.24-5c0-1.48-.07-3-.14-4.43s-.13-3.07-.21-4.6-.18-3.25-.35-4.86-.39-3.3-.6-4.95c-.4-3.17-.68-6.35-.88-9.54s-.24-6.31-.28-9.47-.08-6.38-.18-9.56c-.11-3.48-.27-6.95-.57-10.41-.27-3.12-.77-6.2-1.12-9.3-.2-1.72-.36-3.44-.51-5.16-.07-.83-.07-1.67-.1-2.5s0-1.65,0-2.47c0-1.55.12-3.09.21-4.63s.19-3,.29-4.55q.33-5.16.65-10.32c.1-1.75.2-3.49.29-5.23.08-1.48.15-3,.18-4.45,0-1.71.06-3.41,0-5.12s-.06-3.67-.12-5.5c-.11-3.34-.29-6.68-.45-10-.07-1.62-.09-3.24-.12-4.86s-.09-3.54-.15-5.32c0-1.55-.16-3.1-.29-4.64-.06-.82-.1-1.64-.19-2.45l-.36-3.08c-.22-1.85-.54-3.7-.85-5.55s-.59-3.54-.87-5.32q-.9-5.58-1.69-11.18c-.34-2.85-.68-5.7-1.1-8.54-.37-2.61-.82-5.2-1.31-7.79q-.81-4.23-1.6-8.46c-.28-1.5-.56-3-.83-4.5-.24-1.27-.43-2.55-.63-3.83a33.39,33.39,0,0,1-.26-4.12c0-.69.06-1.38.1-2.07.05-1,.18-2.06.31-3.09.11-.77.23-1.54.35-2.31s.31-1.71.47-2.56c.32-1.64.66-3.28,1-4.92s.45-3.18.59-4.77c.11-1.23.2-2.45.22-3.68a31.27,31.27,0,0,0-.35-4.93c-.22-1.59-.48-3.16-.85-4.72s-.77-3.18-1.27-4.75-1.09-3.4-1.66-5.09-1.11-3.15-1.67-4.71c-.42-1.16-.81-2.32-1.2-3.49-.24-.68-.4-1.39-.6-2.09a28.62,28.62,0,0,1-.75-3.66s0-.07,0-.11,0,0,0,0a.08.08,0,0,1,0,0,74.12,74.12,0,0,1-.29-10.95q.08-2.53.24-5.07c.1-1.33.22-2.65.37-4a2.61,2.61,0,0,0,.27.19,1.27,1.27,0,0,0,.52.17,2.2,2.2,0,0,0,.92,0,4.16,4.16,0,0,0,1.27-.57,36.62,36.62,0,0,0,3-2.66l.09-.06.37-.1h.11a2.92,2.92,0,0,1,.42.13,6.11,6.11,0,0,1,.79.44c.19.12.37.26.55.4l1.12.9c.31.25.61.5.92.73a9.51,9.51,0,0,0,1.64,1.12c2.08,1,4.46.47,6.53-.26l2.7-.94a21.32,21.32,0,0,1,3.23-.94,20.62,20.62,0,0,1,3.24,0c.67,0,1.34.06,2,.06,1.42,0,2.82-.11,4.23-.23L401,352a14.62,14.62,0,0,0,2.92-.56,24.68,24.68,0,0,0,2.76-1c.72-.3,1.45-.6,2.16-.94.92-.46,1.83-.94,2.77-1.37L412,348a4.61,4.61,0,0,1,.83,0,12.73,12.73,0,0,1,2.17.69c.46.23.93.45,1.39.69s.81.45,1.24.64a5.31,5.31,0,0,0,1.28.41,5.18,5.18,0,0,0,.78.09,5,5,0,0,0,1-.13,5.9,5.9,0,0,0,1-.31,9.32,9.32,0,0,0,1.23-.6,17.22,17.22,0,0,0,1.81-1.26c.63-.47,1.26-.95,1.88-1.44a5.69,5.69,0,0,1,.85-.52l.28-.08a6.41,6.41,0,0,1,1,0,10.44,10.44,0,0,1,1.56.38c.46.15.91.32,1.36.48a6.16,6.16,0,0,0,1.34.23,7.21,7.21,0,0,0,1.54,0,15,15,0,0,0,1.63-.29c.46-.1.9-.26,1.35-.36a7,7,0,0,1,1.21,0,13.9,13.9,0,0,1,2.28.68c.51.23,1,.48,1.48.75.29.15.58.31.88.45a5.51,5.51,0,0,0,2,.54,7.68,7.68,0,0,0,3-.5,14.52,14.52,0,0,1,2-.64,4.87,4.87,0,0,1,.66,0,6.11,6.11,0,0,1,.95.28c.51.23,1,.48,1.53.73a17.41,17.41,0,0,0,4.32,1.49,15.3,15.3,0,0,0,2.33.29c-.15,1.31-.3,2.62-.47,3.93-.45,3.24-.9,6.48-1.45,9.71a87.81,87.81,0,0,1-2.35,9.7c-.4,1.37-.82,2.74-1.19,4.12l-.75,2.83c-.23.83-.37,1.69-.55,2.53-.34,1.61-.57,3.24-.78,4.87s-.45,3.52-.65,5.28q-.33,3-.71,6c-.92,6.5-1.91,13-2.63,19.51-.75,6.69-1.39,13.38-1.77,20.1-.15,2.56-.29,5.12-.49,7.67-.22,2.74-.45,5.48-.65,8.23-.18,2.5-.23,5-.37,7.51s-.37,5.18-.63,7.77c-.21,1.46-.43,2.92-.68,4.37-.3,1.64-.63,3.27-1,4.9-.63,3.13-1.28,6.26-1.79,9.41-.57,3.44-1.1,6.9-1.43,10.37s-.6,6.9-.88,10.34c-.52,6.53-1.24,13.05-1.39,19.61-.07,3.25-.1,6.5,0,9.76s.27,6.76.52,10.14c.2,2.73.45,5.46.6,8.2.1,1.6.19,3.2.28,4.8s.09,3.08.13,4.62c.09,2.84,0,5.69-.09,8.53-.08,2.64-.36,5.27-.64,7.89-.46,3.13-1,6.23-1.52,9.33-.6,3.34-1.23,6.66-1.83,10s-1.13,6.91-1.54,10.39-.67,6.76-1,10.14l-.51,5.94c-.09,1.13-.21,2.27-.29,3.41s-.21,2.45-.25,3.68-.06,2.47-.1,3.7c0,.55,0,1.12,0,1.67,0,.78.05,1.55.07,2.33,0,.43,0,.85.08,1.28,0,.59.1,1.19.15,1.78.14,1.73.29,3.46.44,5.18a1.53,1.53,0,0,0,1.5,1.5,1.5,1.5,0,0,0,1.5-1.5c-.19-2.11-.36-4.23-.53-6.35,0-.27-.05-.55-.08-.84s0-.56,0-.84c0-.94-.05-1.89-.08-2.84a86.87,86.87,0,0,1,.37-9c.2-2.76.52-5.52.8-8.28.31-3.11.64-6.23,1-9.34s.82-6,1.41-9c.64-3.28,1.32-6.55,2-9.84.68-3.47,1.35-6.93,1.9-10.43.29-1.78.5-3.58.72-5.38.08-.66.12-1.32.18-2s.14-1.51.18-2.27c.15-3.31.28-6.62.25-9.94s-.13-6.63-.3-9.94c-.36-6.74-.69-13.47-.6-20.22.05-3.32.19-6.65.44-10s.62-6.5.93-9.76.64-6.7.91-10.06.57-6.65,1-10c.1-.76.21-1.52.31-2.28.52-3.12,1-6.24,1.67-9.34q.55-2.7,1.1-5.4c.3-1.52.61-3.06.82-4.6.26-1.85.51-3.69.69-5.55.14-1.55.28-3.1.36-4.66.18-3.39.28-6.79.49-10.19s.44-6.62.6-9.93c.15-3.1.23-6.21.44-9.31.46-6.61,1.18-13.19,2-19.77.54-3.81,1.14-7.62,1.72-11.43.64-4.12,1.18-8.25,1.7-12.39a71.37,71.37,0,0,1,1.75-9.06c.49-1.74,1-3.48,1.52-5.2.44-1.46.92-2.92,1.3-4.39.24-.94.48-1.89.72-2.82s.34-1.61.5-2.42q.45-2.21.75-4.44c.49-3.43.94-6.87,1.09-10.34.06-1.26.1-2.53.14-3.79l.06-2.39a2.38,2.38,0,0,0-4.05-1.68,2.49,2.49,0,0,0-.69,1.68l0,.3-.58,0a8.57,8.57,0,0,1-.9-.09,16.33,16.33,0,0,1-3.44-.92l-1.22-.54c-.46-.21-.93-.4-1.4-.59a8,8,0,0,0-2-.39,3.63,3.63,0,0,0-.93,0,7.57,7.57,0,0,0-2.2.53,15.19,15.19,0,0,1-2,.56,3.05,3.05,0,0,1-.43,0A4.84,4.84,0,0,1,445,345l-1.21-.59a18.31,18.31,0,0,0-2.88-1.13,10.36,10.36,0,0,0-3.23-.47,8,8,0,0,0-1.94.35,9.87,9.87,0,0,1-1.41.31,6.22,6.22,0,0,1-1.14,0c-.81-.15-1.57-.48-2.37-.7a13,13,0,0,0-2.39-.4H428a5,5,0,0,0-1.85.33,8.83,8.83,0,0,0-1.12.53,10.06,10.06,0,0,0-.94.67l-.73.55a20.07,20.07,0,0,1-2.95,2,4.5,4.5,0,0,1-.77.23h-.08l-.57-.15c-.79-.39-1.59-.73-2.4-1.07a9.26,9.26,0,0,0-5.68-.86,7.59,7.59,0,0,0-1.35.57c-.38.18-.75.39-1.13.58s-.81.4-1.21.6c-.58.28-1.17.53-1.76.79a20.56,20.56,0,0,1-4.27,1.34c-1.54.18-3.1.28-4.64.4a36.06,36.06,0,0,1-4.16.06l-1.34,0a14,14,0,0,0-5.63,1Z" transform="translate(-111.54 -17.91)"/><path class="cls-2" d="M349.74,687.66a13.24,13.24,0,0,1-1.81-1.16,1.18,1.18,0,0,1,.53-.12,1.33,1.33,0,0,1,.34,0A1.31,1.31,0,0,1,349.74,687.66Z" transform="translate(-111.54 -17.91)"/><path class="cls-6" d="M614.12,394.09c-.2,1.3-.43,2.58-.72,3.88-.17.76-.38,1.53-.53,2.29-.1.52-.19,1-.29,1.54-.75,2.78-1.64,5.51-2.45,8.26a154.22,154.22,0,0,1-5.93,16.4,187,187,0,0,1-17,32A195.9,195.9,0,0,1,574.62,475a165.13,165.13,0,0,1-13,13.73A138.61,138.61,0,0,1,545.55,502c-2,1.36-3.93,2.72-5.91,4q2.65-3.4,5.17-6.88a5.78,5.78,0,0,0,.81-3,5.92,5.92,0,0,0-1.73-4.17,6.08,6.08,0,0,0-4.27-1.72,5.47,5.47,0,0,0-4.08,1.72l-.22-.23c1.57-1.54,3.11-3.13,4.69-4.66,1.81-1.75,3.61-3.53,5.35-5.35C551.84,475,558,468,563.8,460.65a249.45,249.45,0,0,0,17.47-26.19c2.54-4.39,5-8.84,7.18-13.42,1.87-3.89,3.64-7.83,5.34-11.79.6-1.44,1.18-2.87,1.79-4.3.67-1.87,1.33-3.74,2-5.61.51-1.51,1.13-3,1.64-4.48.25-.72.5-1.44.74-2.17.15-.46.31-.91.46-1.37.13-.3.26-.61.38-.91.48-1.67.95-3.34,1.36-5,1.55-6.24,3-12.53,3.9-18.89.51-4.22.71-8.48.83-12.72.13-4.75.51-9.48.5-14.24,0-2.33,0-4.65.09-7,0-1.16,0-2.32-.1-3.47-.06-1.32-.11-2.64-.21-4q-.5-7.14-1.4-14.25c-.28-2-.56-4-.89-5.91-.36-2.17-.81-4.33-1.17-6.5-.33-2-.85-4-1.35-6-.4-1.63-.81-3.27-1.25-4.89a184.44,184.44,0,0,0-7.55-22.06,199.35,199.35,0,0,0-24.44-41.93c-2.82-3.59-5.74-7.1-8.81-10.49s-6.06-6.34-9.22-9.38a238.78,238.78,0,0,0-18.91-16.33,207,207,0,0,0-44.36-25.87,193.34,193.34,0,0,0-47.15-12.68,200.63,200.63,0,0,0-26.16-1.66,211.21,211.21,0,0,0-26.36,1.58,195.12,195.12,0,0,0-47.75,12.91l-.21.09A231.84,231.84,0,0,0,315.52,174a204.25,204.25,0,0,0-21.74,14.25,198.54,198.54,0,0,0-20.19,18,220.65,220.65,0,0,0-15.83,18.2,186.94,186.94,0,0,0-23.32,40A191.77,191.77,0,0,0,226,289.09a220.06,220.06,0,0,0-5.14,25.8q-.82,6.35-1.23,12.73c-.27,4.38-.34,8.74-.33,13.11,0,4.65.12,9.31.51,13.94.34,4.05.7,8.09,1.21,12.12l.06.45c.71,5,1.58,10,2.65,15s2.36,9.83,3.73,14.71a240.89,240.89,0,0,0,9.76,27.63c.42,1,.83,1.93,1.26,2.89s.89,1.93,1.24,2.93a190.46,190.46,0,0,0,12.07,21.57c2.21,3.44,4.37,6.9,6.78,10.21.61.84,1.16,1.72,1.79,2.55.46.61.93,1.21,1.39,1.83a46.53,46.53,0,0,1,3.15,4.37c1.32,1.67,2.64,3.33,3.9,5.05l1.81,2.16a11.4,11.4,0,0,1,1.05,1.58c2.36,2.57,4.79,5,7.34,7.42a2,2,0,0,1,0,2.77,1.43,1.43,0,0,1-.43.31l-.77-.74c-.85-.84-1.74-1.66-2.56-2.54s-1.5-1.7-2.2-2.59q-1.29-1.71-2.62-3.39c-.85-1.07-1.76-2.11-2.62-3.17-1.15-1.56-2.24-3.15-3.38-4.7-1.29-1.76-2.68-3.45-4.12-5.09a1.38,1.38,0,0,0-1-.44,1.64,1.64,0,0,0-1.12.44,1.56,1.56,0,0,0,0,2.16c.78.88,1.53,1.79,2.28,2.69,1.39,1.81,2.72,3.64,4,5.51.68,1,1.42,1.89,2.17,2.8l-.06-.05c-.56-.53-1.09-1.1-1.67-1.6a56,56,0,0,1-4.24-4.06,6.61,6.61,0,0,0-1.35-1.24L258.12,473c-.51-.54-1-1.09-1.51-1.64-1-1.13-2-2.31-3-3.42-1.33-1.47-2.55-3-3.79-4.59-1-1.24-2-2.49-3-3.74-2.26-2.89-4.35-5.89-6.35-9-.63-.83-1.17-1.7-1.72-2.59-.79-1.27-1.59-2.54-2.37-3.82-1.53-2.53-3-5.08-4.44-7.66-1.27-2.27-2.59-4.49-3.79-6.8s-2.33-4.56-3.37-6.9c-2.35-5.34-4.59-10.72-6.5-16.25q-2.58-7.46-4.46-15.13a201.87,201.87,0,0,1-5.3-34.3c-.18-2.79-.3-5.59-.38-8.38s-.16-5.73-.06-8.58c.22-5.76.41-11.54,1.07-17.27.85-7.34,1.83-14.65,3.4-21.87a207,207,0,0,1,6.29-22.68,216.83,216.83,0,0,1,42.73-73.63,191.49,191.49,0,0,1,15.12-15.3c5.56-5,11.37-9.64,17.33-14.14a148.61,148.61,0,0,1,16.75-11.27,184.63,184.63,0,0,1,18.28-9.44,205.55,205.55,0,0,1,40-13.09,212.42,212.42,0,0,1,23.11-3.67,206.93,206.93,0,0,1,21.26-1.25h1.88a207.7,207.7,0,0,1,45.31,5.59,220.4,220.4,0,0,1,40.38,14A193.86,193.86,0,0,1,538,178.45a183.86,183.86,0,0,1,16.62,14.17,225.82,225.82,0,0,1,40.2,53.45c3.47,6.57,6.51,13.32,9.36,20.18a198.26,198.26,0,0,1,7.35,20.94,223.22,223.22,0,0,1,5.38,22.22c.76,4.24,1.4,8.49,1.88,12.77.23,2,.44,3.94.62,5.91.16,1.76.25,3.52.48,5.28l-.09-.64c.18,1.38.32,2.75.39,4.14s.12,3,.14,4.51c0,2.77.15,5.57,0,8.35a163.14,163.14,0,0,1-1.67,16.63c-.54,4.6-1.07,9.2-1.82,13.77,0-.13,0-.27.05-.4C616.23,384.56,615.22,389.34,614.12,394.09Z" transform="translate(-111.54 -17.91)"/><path class="cls-6" d="M545.62,496.15a5.78,5.78,0,0,1-.81,3q-2.52,3.47-5.17,6.88l-1.9,1.25c-1.32.85-2.64,1.7-4,2.53l-1.62,1-1.46.62-1.37.52a5.55,5.55,0,0,1-4.44-.58,5.78,5.78,0,0,1-2.85-4.63c2-2.21,4-4.38,6-6.55,2.53-2.71,5-5.46,7.51-8.18a5.47,5.47,0,0,1,4.08-1.72,6.08,6.08,0,0,1,4.27,1.72A5.92,5.92,0,0,1,545.62,496.15Z" transform="translate(-111.54 -17.91)"/><path class="cls-6" d="M483.7,600.89c-1.37,3.26-2.67,6.55-4,9.84s-2.82,6.76-4.3,10.11c-.61,1.48-1.19,3-1.69,4.5-.56,1.71-1,3.45-1.5,5.19s-.94,3.31-1.28,5-.61,3.22-.85,4.85c-.19,1.46-.35,2.92-.48,4.39a3.08,3.08,0,0,0-2,.33c-.37.2-.75.39-1.13.58.27-3.08.63-6.15,1.17-9.21.21-1.17.48-2.32.67-3.5s.37-2.46.6-3.68a73.13,73.13,0,0,1,1.93-8.12c.56-1.85,1.33-3.64,2-5.43.83-2.09,1.64-4.18,2.36-6.3,1.37-4,2.68-8,3.75-12.12.53-2,1-4,1.56-6s1.23-4.13,1.87-6.19c1.26-4,2.46-8,3.87-12,.72-2,1.42-4,2.23-6q1.47-3.56,3.17-7c.94-1.9,2-3.74,3-5.6s1.89-3.71,2.82-5.58c1.83-3.69,3.84-7.29,5.79-10.91,1.05-1.95,2.12-3.89,3.13-5.85.77-1.52,1.45-3.09,2.11-4.65a59.18,59.18,0,0,1,4.83-10.09,88,88,0,0,1,7.14-9.08c.5-.57,1-1.13,1.5-1.69a5.78,5.78,0,0,0,2.85,4.63,5.55,5.55,0,0,0,4.44.58l1.37-.52,1.46-.62,1.62-1c1.34-.83,2.66-1.68,4-2.53l1.9-1.25c-1.43,1.84-2.88,3.66-4.37,5.44-3,3.55-5.93,7.09-8.84,10.67-.8,1.06-1.6,2.13-2.31,3.26-.94,1.5-1.75,3-2.54,4.62-1.55,3-3.1,6.13-4.8,9.11-3.34,5.89-7,11.61-10.16,17.59-1.95,3.67-4.16,7.2-6.11,10.87q-1.57,2.94-3.12,5.89c-1,1.85-1.83,3.77-2.83,5.6-2,3.73-4.13,7.4-6.05,11.19C486.76,593.73,485.22,597.31,483.7,600.89Z" transform="translate(-111.54 -17.91)"/><path class="cls-6" d="M535.32,491.75l.22.23c-2.5,2.72-5,5.47-7.51,8.18-2,2.17-4,4.34-6,6.55a6,6,0,0,1,.2-1.88,5.81,5.81,0,0,1,1.49-2.54c.32-.39.66-.77,1-1.15l1.45-1.2c1-.81,1.92-1.62,2.87-2.44,1.89-1.65,3.79-3.31,5.59-5.06Z" transform="translate(-111.54 -17.91)"/><path class="cls-2" d="M471.62,646.14a2.9,2.9,0,0,1,.3,2.25,3.13,3.13,0,0,1-1.34,1.75l-1.47,1c.15-2.12.3-4.24.51-6.36A2.82,2.82,0,0,1,471.62,646.14Z" transform="translate(-111.54 -17.91)"/><path class="cls-2" d="M467.62,645.09a3.08,3.08,0,0,1,2-.33c-.21,2.12-.36,4.24-.51,6.36-1,.68-2.07,1.33-3.14,1.95a.9.9,0,0,1,0-.23c.16-2.39.32-4.78.54-7.17C466.87,645.48,467.25,645.29,467.62,645.09Z" transform="translate(-111.54 -17.91)"/><path class="cls-6" d="M469.11,651.12c0,.57-.07,1.15-.11,1.72a1.54,1.54,0,0,1-1.52,1.53,1.62,1.62,0,0,1-1.27-.67,1.41,1.41,0,0,0-.24-.58,0,0,0,0,1,0-.05C467,652.45,468.08,651.8,469.11,651.12Z" transform="translate(-111.54 -17.91)"/><path class="cls-2" d="M466.27,654.07c.36,3.07.62,6.24-.37,9.21a34.23,34.23,0,0,1-1.8,4.43,16.14,16.14,0,0,1-1.06,1.74c-.45.65-.91,1.3-1.41,1.92a21.43,21.43,0,0,1-3.89,3.66c-.24.18-.48.36-.73.52h-.08a1.57,1.57,0,0,0-1.36.81q-1.25.56-2.55,1c-.83.28-1.66.54-2.51.76a21.11,21.11,0,0,1-2.61.51c-1.81.25-3.66.27-5.48.39s-3.42.14-5.13.24-3.52.24-5.29.31-3.33,0-5,0-3.47,0-5.21,0-3.6,0-5.4-.11-3.38-.18-5.07-.32-3.68-.3-5.5-.59c-1.66-.26-3.32-.54-5-.79-1.44-.18-2.89-.38-4.34-.58-.84-.11-1.68-.21-2.53-.27l-2.78-.18c-1.8-.13-3.58-.32-5.36-.55s-3.32-.41-5-.61-3.48-.41-5.23-.58-3.37-.31-5-.52q-2.82-.33-5.62-.76c-1.74-.26-3.47-.63-5.19-1s-3.26-.71-4.86-1.16c-.87-.23-1.73-.49-2.58-.75s-1.49-.54-2.21-.84l-.2-.09-.1,0-1.52-.65-1.74-.78c0-.75,0-1.5,0-2.25a1,1,0,0,0-.62-.94l.13-.25c.39.21.79.41,1.18.6.85.41,1.72.81,2.59,1.2l.29.12,0,0a25.12,25.12,0,0,0,2.89,1.08c1.11.3,2.22.59,3.35.82,2.18.45,4.37.83,6.57,1.17,1.29.16,2.59.28,3.89.4,1.69.16,3.39.32,5.09.43s3.59.22,5.38.36c3.34.25,6.67.73,10,1.18h.21c1.77.21,3.54.37,5.32.5s3.66.39,5.48.67c1.62.25,3.25.44,4.88.71s3.16.55,4.75.77c3.08.33,6.18.58,9.28.71s6,.12,9,.13c1.81,0,3.63,0,5.45,0s3.43-.2,5.14-.32,3.46-.18,5.2-.31l4.89-.33c.53-.08,1.06-.17,1.59-.28s1.2-.3,1.79-.5c1.14-.36,2.27-.75,3.39-1.18a10.25,10.25,0,0,0,1.18-.63c.37-.23.74-.49,1.09-.75.54-.44,1.08-.89,1.58-1.38a18.91,18.91,0,0,0,1.35-1.49c.38-.5.74-1,1.07-1.54a15,15,0,0,0,.87-1.63c.4-1,.72-2.09,1.05-3.15a22.68,22.68,0,0,0,.68-3c.14-1.5.25-3,.32-4.53l.57-.31c.83-.44,1.65-.9,2.46-1.39,0,0,0,0,0,0a1.35,1.35,0,0,0,.24.58A2.2,2.2,0,0,1,466.27,654.07Z" transform="translate(-111.54 -17.91)"/><path class="cls-2" d="M466.49,645.67c-.22,2.39-.38,4.78-.54,7.17a.9.9,0,0,0,0,.23h0a1.19,1.19,0,0,0-.15-.18,1.67,1.67,0,0,0-2.85,1.17l0,.71a10.72,10.72,0,0,1-1,.52l-2.09.94c-1.34.61-2.72,1.13-4.09,1.67-2.31.91-4.68,1.67-7.07,2.38a36,36,0,0,1-3.58.72c-1.31.22-2.63.36-3.94.53l-.14,0-.37.05c-3.12.45-6.23.95-9.36,1.28a86.36,86.36,0,0,1-9.24.31c-5.89,0-11.78-.07-17.65-.49-3-.22-6-.39-9-.61a74.43,74.43,0,0,1-9.86-1.24c-1.44-.31-2.87-.61-4.29-1s-2.74-.76-4.1-1.15a69.94,69.94,0,0,0-8.73-1.77c-1.44-.22-2.89-.42-4.32-.74s-3-.72-4.5-1.1-2.72-.68-4-1.16c-1.51-.54-3-1.19-4.45-1.84-1.94-.8-3.9-1.52-5.82-2.36-1.23-.49-2.49-.86-3.74-1.28,0-.1,0-.19,0-.29a1.21,1.21,0,0,0-1.19-1.19,1.23,1.23,0,0,0-1.07.67c-1.18-.43-2.37-.88-3.56-1.3a1.78,1.78,0,0,1-.67-3.12,3.6,3.6,0,0,0,.85,1.31,4,4,0,0,0,5.64,0h0c1.41.41,2.86.69,4.27,1.12s2.8.87,4.23,1.2,3.07.77,4.59,1.23c2.73.83,5.56,1.24,8.34,1.86q2.36.51,4.71.93c1.42.24,2.85.38,4.27.63s2.93.52,4.39.84,2.79.73,4.2,1c2.68.62,5.37,1.11,8.08,1.51,2.18.24,4.34.39,6.52.49,3,.14,6,.28,9,.49s5.77.33,8.66.4,6,.12,9,.07a79.67,79.67,0,0,0,8.32-.62c2.44-.37,4.87-.81,7.3-1.23,1.27-.22,2.55-.4,3.82-.58s2.35-.28,3.5-.52a104.74,104.74,0,0,0,14.6-4.38C461.72,648,464.13,646.89,466.49,645.67Z" transform="translate(-111.54 -17.91)"/><path class="cls-2" d="M466,653.12a1.41,1.41,0,0,1,.24.58A1.35,1.35,0,0,1,466,653.12Z" transform="translate(-111.54 -17.91)"/><path class="cls-2" d="M465.79,652.9a1.19,1.19,0,0,1,.15.18c-.81.49-1.63.95-2.46,1.39l-.57.31,0-.71a1.67,1.67,0,0,1,2.85-1.17Z" transform="translate(-111.54 -17.91)"/><path class="cls-4" d="M464.05,348.65A2.07,2.07,0,0,1,462,350.7c-.61,0-1.22,0-1.83,0,.15-1.35.29-2.71.41-4.07.47,0,.94,0,1.42,0A2.06,2.06,0,0,1,464.05,348.65Z" transform="translate(-111.54 -17.91)"/><path class="cls-2" d="M459.22,683.11c.07.94.07,1.88.06,2.82,0,.43-.06.86-.09,1.29a11.35,11.35,0,0,1-.16,1.15,9.6,9.6,0,0,1-.2,1.07,12.29,12.29,0,0,1-1.7,3.63,8.47,8.47,0,0,1-2.54,2.34c-.41-.91-.83-1.8-1.27-2.69a1.62,1.62,0,0,0-1.83-.74l0-.07.3-.1a8.88,8.88,0,0,0,1.16-.66,5.71,5.71,0,0,0,.55-.55,12.18,12.18,0,0,0,.92-1.61,11.8,11.8,0,0,0,.51-2.11c.15-1.49.26-3,.37-4.48.14-1.75.09-3.53.07-5.28a1.38,1.38,0,0,1,.22-.77l.13-.06a9.37,9.37,0,0,0,1.31-.74,1.54,1.54,0,0,1,1.05.46,1.76,1.76,0,0,1,.46,1.11q.23,1.63.42,3.27C459.06,681.29,459.15,682.2,459.22,683.11Z" transform="translate(-111.54 -17.91)"/><path class="cls-2" d="M456.93,675.54H457a9.37,9.37,0,0,1-1.31.74l-.13.06A1.57,1.57,0,0,1,456.93,675.54Z" transform="translate(-111.54 -17.91)"/><path class="cls-2" d="M454.59,695.41h0a9.29,9.29,0,0,1-2.23,1,8.9,8.9,0,0,1-1,.24c-.31-.91-.64-1.81-1-2.69a1.57,1.57,0,0,1,.17-1.25,1.62,1.62,0,0,1,2.79,0C453.76,693.61,454.18,694.5,454.59,695.41Z" transform="translate(-111.54 -17.91)"/><path class="cls-2" d="M451.47,691.91l0,.07a1.62,1.62,0,0,0-1,.74,1.57,1.57,0,0,0-.17,1.25c.36.88.69,1.78,1,2.69a17.14,17.14,0,0,1-2.57.29,41.26,41.26,0,0,1-5.21-.2c-3.48-.25-7-.55-10.45-.71-1.83-.09-3.66-.16-5.48-.28s-3.79-.24-5.68-.31-3.62-.09-5.43-.08-3.56,0-5.35-.15c-3.65-.28-7.29-.78-10.95-.94s-7.31-.14-10.95-.48a53,53,0,0,1-5.75-.78c-1.77-.35-3.54-.71-5.32-1-.59-.07-1.17-.14-1.76-.18-3.68-.22-7.37-.18-11-.5-2-.18-4-.41-6-.72a32.73,32.73,0,0,1-5.27-1.21,28.59,28.59,0,0,1-4.4-1.75,1.31,1.31,0,0,0-.94-1.23,1.33,1.33,0,0,0-.34,0,1.18,1.18,0,0,0-.53.12,8.67,8.67,0,0,1-.73-.63,9.77,9.77,0,0,1-2.87-4.21,9.35,9.35,0,0,1-.42-3.11c0-.44.06-.88.1-1.32.17-1.75.35-3.49.43-5.24.06-1.55.1-3.09.12-4.64.66.37,1.33.7,2,1,0,1.51,0,3-.06,4.53,0,1-.09,2-.18,3a21.11,21.11,0,0,0-.12,3.81,10.42,10.42,0,0,0,.43,1.64,7.13,7.13,0,0,0,.74,1.24,13.9,13.9,0,0,0,2,1.93,11.55,11.55,0,0,0,2.28,1.27,29.91,29.91,0,0,0,3.72,1.21c1.37.34,2.74.6,4.13.83s2.95.35,4.43.48c1.82.15,3.65.19,5.47.21s3.79,0,5.69,0c3.61,0,7.14.79,10.7,1.32a107.1,107.1,0,0,0,10.89.62c1.81,0,3.62,0,5.42.11s3.48.2,5.22.27,3.65.14,5.48.12,3.68-.2,5.52-.24,3.7,0,5.55,0,3.65.14,5.47.24c3.55.18,7.12.26,10.66.6,1.8.16,3.59.34,5.38.48a30.07,30.07,0,0,0,4.93.08A7.65,7.65,0,0,0,451.47,691.91Z" transform="translate(-111.54 -17.91)"/><path class="cls-2" d="M387.46,672.32h0Z" transform="translate(-111.54 -17.91)"/><path class="cls-3" d="M383.63,633.14c.07,1.47.14,3,.14,4.43,0,1.65-.08,3.3-.24,5s-.43,3.56-.62,5.35a2,2,0,0,1-.57,1.38,2,2,0,0,1-3.35-1.38c0-1.24.06-2.49.15-3.73s.16-2.35.22-3.53a59,59,0,0,0-.07-6.24c-.11-2.08-.23-4.17-.38-6.25s-.39-4.26-.67-6.39c0,0,0-.09,0-.13s0-.2,0-.3c-.55-4.11-1-8.24-1.21-12.39-.15-3.33-.18-6.66-.2-10s-.07-6.44-.18-9.65c0-1.55-.09-3.1-.19-4.64-.12-1.84-.26-3.66-.43-5.5-.28-3.08-.81-6.13-1.15-9.2-.1-.83-.2-1.65-.27-2.48s-.16-1.57-.18-2.36-.1-1.78-.08-2.66l.06-2.61c0-.82.09-1.64.13-2.47s.11-1.6.17-2.39c.1-1.44.21-2.87.31-4.3.25-3.56.49-7.12.74-10.69.21-3.11.43-6.24.5-9.36,0-1.82.07-3.65.07-5.48s0-3.63-.1-5.44c-.05-1.66-.12-3.32-.19-5-.05-1.49-.14-3-.16-4.47,0-1.83-.05-3.67-.07-5.51,0-1.52,0-3-.09-4.57-.08-1.8-.17-3.59-.3-5.38-.12-1.59-.29-3.18-.47-4.77-.43-3-.9-5.94-1.37-8.91-.44-2.81-.9-5.63-1.28-8.46,0-.06,0-.12,0-.18a.43.43,0,0,1,0-.05c0-.13,0-.26,0-.4a.2.2,0,0,1,0-.07,1.38,1.38,0,0,1,0-.2l0-.24c-.07-.51-.14-1-.2-1.51,0,0,0-.08,0-.13s0-.25-.05-.37-.07-.49-.1-.74c-.31-2.25-.52-4.52-.78-6.78s-.63-4.53-1-6.78c-.55-3.29-1.17-6.56-1.73-9.85-.31-1.77-.61-3.55-.91-5.32-.12-.75-.24-1.5-.34-2.25-.14-1-.32-2.05-.4-3.07a30.49,30.49,0,0,1,0-5.32c.08-.85.16-1.69.29-2.53.25-1.58.5-3.17.85-4.74s.78-3.29,1.14-5c.19-.84.41-1.69.56-2.54s.28-1.6.41-2.4a51.62,51.62,0,0,0,.5-5.27,33.2,33.2,0,0,0-.14-3.86c-.06-.62-.13-1.25-.19-1.88s-.2-1.53-.36-2.28-.32-1.68-.53-2.51l-.67-2.65c-.21-.86-.5-1.7-.74-2.55-.49-1.66-1.07-3.3-1.63-4.95s-1.07-3.07-1.58-4.62a39.59,39.59,0,0,1-1.63-6.34,48.24,48.24,0,0,1-.49-6.36c0-1.62,0-3.24,0-4.86s.11-3.35.23-5c.2-2.65.43-5.3.86-7.93l.12.74a3.76,3.76,0,0,0,.42,1.22,2.43,2.43,0,0,0,.64.75c-.15,1.32-.27,2.64-.37,4q-.17,2.54-.24,5.07a74.12,74.12,0,0,0,.29,10.95.08.08,0,0,0,0,0s0,0,0,0,0,.07,0,.11a28.62,28.62,0,0,0,.75,3.66c.2.7.36,1.41.6,2.09.39,1.17.78,2.33,1.2,3.49.56,1.56,1.14,3.13,1.67,4.71s1.13,3.39,1.66,5.09.88,3.16,1.27,4.75.63,3.13.85,4.72a31.27,31.27,0,0,1,.35,4.93c0,1.23-.11,2.45-.22,3.68-.14,1.59-.3,3.19-.59,4.77s-.64,3.28-1,4.92c-.16.85-.34,1.71-.47,2.56s-.24,1.54-.35,2.31c-.13,1-.26,2.05-.31,3.09,0,.69-.1,1.38-.1,2.07A33.39,33.39,0,0,0,370,435c.2,1.28.39,2.56.63,3.83.27,1.5.55,3,.83,4.5q.79,4.23,1.6,8.46c.49,2.59.94,5.18,1.31,7.79.42,2.84.76,5.69,1.1,8.54q.78,5.6,1.69,11.18c.28,1.78.58,3.55.87,5.32s.63,3.7.85,5.55l.36,3.08c.09.81.13,1.63.19,2.45.13,1.54.25,3.09.29,4.64.06,1.78.11,3.55.15,5.32s.05,3.24.12,4.86c.16,3.34.34,6.68.45,10,.06,1.83.1,3.67.12,5.5s0,3.41,0,5.12c0,1.48-.1,3-.18,4.45-.09,1.74-.19,3.48-.29,5.23q-.31,5.16-.65,10.32c-.1,1.52-.2,3-.29,4.55s-.19,3.08-.21,4.63c0,.82-.05,1.65,0,2.47s0,1.67.1,2.5c.15,1.72.31,3.44.51,5.16.35,3.1.85,6.18,1.12,9.3.3,3.46.46,6.93.57,10.41.1,3.18.15,6.37.18,9.56s.08,6.32.28,9.47.48,6.37.88,9.54c.21,1.65.42,3.29.6,4.95s.27,3.24.35,4.86S383.57,631.61,383.63,633.14Z" transform="translate(-111.54 -17.91)"/><path class="cls-3" d="M367.64,338.84a.77.77,0,0,1,.53.93c-.78,2.29-1.52,4.6-2.17,6.93l-.36,1.36c0-.7-.07-1.4-.11-2.1a1.28,1.28,0,0,0-.59-1.05q.84-2.79,1.77-5.54a.79.79,0,0,1,.73-.56A.69.69,0,0,1,367.64,338.84Z" transform="translate(-111.54 -17.91)"/><path class="cls-4" d="M365.83,350.25a.77.77,0,0,0,0,.15c0-.1,0-.21-.05-.31Z" transform="translate(-111.54 -17.91)"/><path class="cls-4" d="M365.53,346c0,.7.07,1.4.11,2.1-.14.56-.27,1.12-.38,1.68-.2,1-.35,2.06-.5,3.09h0v0a.52.52,0,0,0,0,.11l-.09.88a2.43,2.43,0,0,1-.64-.75,3.76,3.76,0,0,1-.42-1.22l-.12-.74h0c.09-.6.19-1.2.31-1.8.29-1.46.7-2.9,1.13-4.33l0-.09A1.28,1.28,0,0,1,365.53,346Z" transform="translate(-111.54 -17.91)"/><path class="cls-4" d="M364.94,344.91l0,.09c-.43,1.43-.84,2.87-1.13,4.33-.12.6-.22,1.2-.31,1.8-.25-1.71-.34-3.43-.43-5.17a1.25,1.25,0,0,1,1.25-1.25A1.09,1.09,0,0,1,364.94,344.91Z" transform="translate(-111.54 -17.91)"/><path class="cls-2" d="M346.6,666.11c0,.75,0,1.5,0,2.25-.68-.31-1.35-.64-2-1,0-.41,0-.83,0-1.24a1,1,0,0,1,1.4-.94A1,1,0,0,1,346.6,666.11Z" transform="translate(-111.54 -17.91)"/><path class="cls-2" d="M346.11,664.92l-.13.25a1,1,0,0,0-1.4.94c0,.41,0,.83,0,1.24-.31-.16-.62-.34-.93-.52a10.56,10.56,0,0,1-2.78-2.19,6.12,6.12,0,0,1-.89-1.32,7.15,7.15,0,0,1-.55-1.81,17.64,17.64,0,0,1-.22-2.81c0-1.63.06-3.26.06-4.89,0-1.87-.07-3.75-.15-5.62a1,1,0,0,1,.12-.52c.55.21,1.1.41,1.66.6l.61.21c.1,2.09.17,4.19.24,6.28.06,1.84.08,3.67.3,5.5a8.59,8.59,0,0,0,.39,1.59,5.19,5.19,0,0,0,.37.65,10.37,10.37,0,0,0,1.13,1.07A17,17,0,0,0,346.11,664.92Z" transform="translate(-111.54 -17.91)"/><path class="cls-6" d="M342.65,641.74a3.81,3.81,0,0,1-1.16,2.81l-.07,0c-1.62-.48-3.2-1.1-4.8-1.65a1.61,1.61,0,0,0-.48-.08,1.77,1.77,0,0,0-1.15.45,5.19,5.19,0,0,1-.31-1.51c-.26-3.32-.51-6.64-.7-10-.18-3.06-.17-6.13-.17-9.2s0-6-.19-9-.41-5.65-.76-8.46c-.58-4.14-1.33-8.25-2.16-12.35-.58-2.88-1.34-5.73-2-8.58-.73-3-1.48-6-2.26-9a139.77,139.77,0,0,0-5.7-17.51c-1.06-2.45-2.17-4.89-3.35-7.29-1.27-2.58-2.68-5.09-4-7.65a99.1,99.1,0,0,0-8.52-14.15c-.1-.14-.21-.27-.32-.41-1.84-2.31-3.85-4.5-5.84-6.69-1-1.09-2-2.16-2.94-3.28-1.21-1.39-2.35-2.83-3.48-4.29-1.77-2.31-3.22-4.86-4.84-7.28s-3.2-4.67-4.91-6.91c-1.07-1.32-2.23-2.54-3.39-3.79s-2.39-2.65-3.59-4-2.22-2.5-3.29-3.78-2.16-2.73-3.22-4.11c-.79-1-1.63-2-2.44-3a14.86,14.86,0,0,0,2,1.5c2.52,2.44,5.08,4.85,7.65,7.25a2,2,0,0,0,2.35.31c1.42,1.37,2.86,2.7,4.35,4,1.83,1.59,3.63,3.21,5.4,4.88s3.33,3.13,4.83,4.85c1.95,2.25,3.86,4.53,5.84,6.75s4.21,4.51,6.29,6.8,4.27,4.77,6.23,7.32c1.84,2.39,3.51,4.91,5.17,7.43s3.2,5.21,4.7,7.88c.74,1.29,1.52,2.56,2.23,3.86s1.51,2.84,2.22,4.28c1.48,3,2.83,6,4.05,9.09s2.07,6,3,9a154.05,154.05,0,0,1,3.83,17.9c.56,3.31,1.11,6.62,1.54,9.94.38,2.88.75,5.77,1.13,8.65,0,.08,0,.16,0,.23.43,3.21.93,6.41,1.24,9.62s.53,6.2.66,9.31.23,6.37.49,9.55C342,634.92,342.33,638.33,342.65,641.74Z" transform="translate(-111.54 -17.91)"/><path class="cls-2" d="M341.48,648.19c0,.1,0,.19,0,.29l-.61-.21c-.56-.19-1.11-.39-1.66-.6a1.23,1.23,0,0,1,1.07-.67A1.21,1.21,0,0,1,341.48,648.19Z" transform="translate(-111.54 -17.91)"/><path class="cls-2" d="M341.49,644.55h0a4,4,0,0,1-5.64,0,3.6,3.6,0,0,1-.85-1.31,1.77,1.77,0,0,1,1.15-.45,1.61,1.61,0,0,1,.48.08c1.6.55,3.18,1.17,4.8,1.65Z" transform="translate(-111.54 -17.91)"/><path class="cls-6" d="M277.76,489.44l.77.74a2,2,0,0,1-2.35-.31c-2.57-2.4-5.13-4.81-7.65-7.25a14.86,14.86,0,0,1-2-1.5c-.75-.91-1.49-1.83-2.17-2.8-1.31-1.87-2.64-3.7-4-5.51-.75-.9-1.5-1.81-2.28-2.69a1.56,1.56,0,0,1,0-2.16,1.64,1.64,0,0,1,1.12-.44,1.38,1.38,0,0,1,1,.44c1.44,1.64,2.83,3.33,4.12,5.09,1.14,1.55,2.23,3.14,3.38,4.7.86,1.06,1.77,2.1,2.62,3.17s1.76,2.25,2.62,3.39c.7.89,1.42,1.76,2.2,2.59S276.91,488.6,277.76,489.44Z" transform="translate(-111.54 -17.91)"/><path class="cls-7" d="M112.59,166.31a3.6,3.6,0,0,0-1.05,2.54,3.48,3.48,0,0,0,1.05,2.54l3,2.59c1.23,1,2.52,2,3.8,3q3.59,2.76,7.31,5.34A105.38,105.38,0,0,0,141.62,191a51.43,51.43,0,0,0,8.23,3.15c1.76.48,3.54.88,5.31,1.32a50.4,50.4,0,0,0,7,1.31,3.32,3.32,0,0,0,1.7-.46,3.37,3.37,0,0,0,1.21-4.61,3.2,3.2,0,0,0-2-1.54,43.26,43.26,0,0,1-5.17-1.14l-2.92-.79c-1.29-.35-2.59-.68-3.87-1.07s-2.34-.81-3.49-1.28a96.85,96.85,0,0,1-12.94-7c-4.17-2.63-8.17-5.52-12.09-8.52-1.68-1.31-3.27-2.71-4.89-4.09a3.78,3.78,0,0,0-2.54-1.05,3.6,3.6,0,0,0-2.54,1.05ZM122,170l.41.31L122,170Zm25.77,16,.44.19-.44-.19Z" transform="translate(-111.54 -17.91)"/><path class="cls-7" d="M213.36,66.24a3.44,3.44,0,0,0-1.22,4.65c2.67,4.84,5.35,9.68,8.09,14.48l6.32,11.08c.66,1.16,1.39,2.29,2.09,3.44l4,6.61q2.7,4.44,5.43,8.86c1.78,2.89,3.56,5.79,5.45,8.61a3.46,3.46,0,0,0,2,1.52,3.3,3.3,0,0,0,3.73-4.86c-2-3-3.89-6.17-5.78-9.29s-3.71-6.09-5.55-9.14-3.87-6.23-5.68-9.42l-6.77-11.91c-2.53-4.45-5-8.92-7.46-13.41a3.44,3.44,0,0,0-4.65-1.22Z" transform="translate(-111.54 -17.91)"/><path class="cls-7" d="M361.94,19a3.72,3.72,0,0,0-1.12,2.71q.79,9.51,1.64,19c.16,1.78.28,3.56.53,5.33q.48,3.5,1,7c1.09,7.88,2.5,15.72,3.92,23.55.33,1.83.66,3.66,1,5.49a3.57,3.57,0,0,0,6.53.86,3.82,3.82,0,0,0,.36-2.75c-1.46-8.11-2.68-16.26-4-24.4l-.9-6.95c-.23-1.75-.48-3.5-.62-5.26q-.93-10.95-1.83-21.89A4,4,0,0,0,367.35,19a3.82,3.82,0,0,0-5.41,0Zm10,37.38,0,.31,0-.31Z" transform="translate(-111.54 -17.91)"/><path class="cls-7" d="M554.55,31.7a4.41,4.41,0,0,0-2.5,1.92c-2.57,3.69-4.91,7.54-7.32,11.33-1,1.59-2,3.2-3,4.79s-1.95,3-2.82,4.58l-3.95,7c-.7,1.24-1.38,2.46-2,3.75-2.73,5.76-5.46,11.52-8.14,17.31a4.62,4.62,0,0,0-.43,3.33,4.33,4.33,0,0,0,5.32,3,4.18,4.18,0,0,0,2.58-2q3.95-8.55,8-17.06c1.76-3.72,3.91-7.26,5.91-10.85.77-1.39,1.63-2.72,2.46-4.07L552,49.43c2.41-3.87,4.77-7.79,7.3-11.59a4.19,4.19,0,0,0-4.73-6.15Z" transform="translate(-111.54 -17.91)"/><path class="cls-7" d="M688,110.88a3.89,3.89,0,0,0-1.72,1l-3.66,2.84.78-.61q-8.81,6.77-17.63,13.53-6.05,4.63-12.11,9.27c-4.45,3.43-8.93,6.79-13.55,10-2.27,1.56-4.58,3.07-7,4.45-1.13.66-2.29,1.25-3.43,1.89s-2.29,1.31-3.49,1.87c-.36.13-.72.25-1.08.35l-.11-.12a3.44,3.44,0,0,0-4.81,0,6.39,6.39,0,0,0-.95,1.2,3.41,3.41,0,0,0,1.22,4.65,7.89,7.89,0,0,0,3.68,1.29,13.46,13.46,0,0,0,3.73-.66c2.67-.87,5.09-2.46,7.58-3.73a81.33,81.33,0,0,0,7.11-4.22q3.8-2.46,7.47-5.11c3.71-2.67,7.34-5.46,11-8.21l5.37-4,20-15.06L691,118l.79-.61a3.9,3.9,0,0,0-3.8-6.52Z" transform="translate(-111.54 -17.91)"/><path class="cls-7" d="M724.08,205.31c-4.85,2.34-9.83,4.43-14.76,6.6q-6.13,2.69-12.26,5.33a128.83,128.83,0,0,1-14.36,5.17c-2.79.76-5.62,1.3-8.45,1.88L665.74,226a5.36,5.36,0,0,0-3.29,2.52,5.49,5.49,0,0,0,2,7.52,5.75,5.75,0,0,0,4.23.55c4.72-1,9.45-1.9,14.16-2.95A93.18,93.18,0,0,0,697.05,229c4.62-1.85,9.17-3.87,13.74-5.85,6.29-2.74,12.65-5.38,18.83-8.37a5.34,5.34,0,0,0,2.53-3.28,5.5,5.5,0,0,0-3.84-6.76,5.13,5.13,0,0,0-1.38-.19,6.52,6.52,0,0,0-2.86.74Z" transform="translate(-111.54 -17.91)"/></svg>